<svg width="26" height="26" viewBox="0 0 26 26" fill="none" xmlns="http://www.w3.org/2000/svg">
<g clip-path="url(#clip0_800_4194)">
<path d="M9.25167 11.2992C9.14333 10.9633 9.04583 10.6383 8.9375 10.3025C8.82917 9.96667 8.73167 9.6525 8.645 9.33833C8.55833 9.035 8.4825 8.75333 8.40667 8.49333H8.385C8.2875 8.95917 8.16833 9.425 8.01667 9.89083C7.85417 10.4108 7.69167 10.9525 7.51833 11.4942C7.3775 12.0467 7.20417 12.5558 7.04167 13.0108H9.79333C9.72833 12.7833 9.64167 12.5125 9.54417 12.2308C9.44667 11.9383 9.34917 11.6242 9.25167 11.2992ZM18.5467 10.985C17.9508 10.9525 17.3875 11.2667 17.1058 11.8083C16.9758 12.0575 16.9 12.3175 16.8675 12.5883H19.1523C19.4339 12.5883 19.6398 12.5883 19.7698 12.5775C19.8564 12.5667 19.9431 12.545 20.0189 12.4908V12.3825C20.0147 12.1939 19.9732 12.0079 19.8968 11.8354C19.8204 11.6628 19.7106 11.5071 19.5738 11.3772C19.4369 11.2473 19.2757 11.1458 19.0994 11.0785C18.9231 11.0111 18.7353 10.9794 18.5467 10.985ZM21.3958 0H4.60417C2.05833 0 0 2.05833 0 4.60417V20.7458C0 23.2917 2.05833 25.35 4.60417 25.35H21.3958C23.9417 25.35 26 23.2917 26 20.7458V4.60417C26 2.05833 23.9417 0 21.3958 0ZM13.7692 17.8869H11.505C11.4292 17.8978 11.3533 17.8425 11.3317 17.7678L10.4433 15.1677H6.41333L5.59 17.7244C5.56833 17.8219 5.48167 17.8869 5.38417 17.8761H3.3475C3.22833 17.8761 3.19583 17.8111 3.22833 17.6811L6.71667 7.68083C6.74917 7.5725 6.78167 7.475 6.825 7.345C6.86833 7.1175 6.89 6.87917 6.89 6.64083C6.87917 6.58667 6.9225 6.5325 6.97667 6.52167H9.7825C9.85833 6.52167 9.9125 6.55417 9.92333 6.60833L13.8775 17.7125C13.91 17.8317 13.8786 17.8869 13.7692 17.8869ZM22.2744 13.5633C22.2517 13.7681 22.2408 13.9208 22.23 14.0183C22.2192 14.0942 22.1552 14.1592 22.0783 14.1592C22.0133 14.1592 21.8942 14.17 21.7208 14.1819C21.5497 14.2036 21.3406 14.2141 21.0936 14.2133C20.8444 14.2133 20.5833 14.17 20.3027 14.17H16.8686C16.9108 14.5058 17.0203 14.8417 17.2044 15.1342C17.3961 15.4257 17.6714 15.6527 17.9942 15.7853C18.4275 15.9694 18.9053 16.0669 19.3819 16.0561C19.7611 16.0442 20.1392 16.0128 20.5075 15.9369C20.8384 15.8944 21.1626 15.8106 21.4727 15.6878C21.5269 15.6455 21.5594 15.6661 21.5594 15.7744V17.433C21.5594 17.4753 21.5486 17.5197 21.5367 17.5619C21.5172 17.5921 21.4918 17.6179 21.4619 17.6378C21.1153 17.7894 20.7578 17.8978 20.3786 17.9628C19.8683 18.0603 19.3603 18.1036 18.8403 18.0928C18.0158 18.0928 17.3236 17.9628 16.7603 17.7136C16.2304 17.4825 15.7625 17.1299 15.3942 16.6844C15.0486 16.2619 14.7983 15.7853 14.6467 15.2653C14.4949 14.7514 14.4186 14.2183 14.4203 13.6825C14.4203 13.0986 14.5069 12.5233 14.6911 11.96C14.8644 11.4183 15.1353 10.92 15.5036 10.4758C15.8611 10.0425 16.3042 9.69583 16.8133 9.44667C17.3225 9.1975 17.9292 9.11083 18.6225 9.11083C19.2002 9.097 19.7737 9.21171 20.3017 9.44667C20.7458 9.64167 21.1358 9.93417 21.4392 10.3133C21.7208 10.6817 21.9483 11.0933 22.0903 11.5483C22.23 11.9817 22.295 12.4258 22.295 12.87C22.295 13.13 22.2842 13.3575 22.2744 13.5633Z" fill="black"/>
</g>
<defs>
<clipPath id="clip0_800_4194">
<rect width="26" height="26" fill="white"/>
</clipPath>
</defs>
</svg>
