<svg width="26" height="26" viewBox="0 0 26 26" fill="none" xmlns="http://www.w3.org/2000/svg">
<g clip-path="url(#clip0_800_4207)">
<path fill-rule="evenodd" clip-rule="evenodd" d="M13 26C20.1797 26 26 20.1797 26 13C26 5.8203 20.1797 0 13 0C5.8203 0 0 5.8203 0 13C0 20.1797 5.8203 26 13 26ZM14.8678 5C16.5352 5 17.8244 6.2141 17.9748 7.65377C18.1273 8.94306 17.5966 10.0798 16.157 10.7631C15.3986 11.1413 15.0956 11.1435 14.943 10.9157C14.8678 10.7631 14.943 10.6127 15.0956 10.4601C16.46 9.32343 16.46 8.4123 16.3074 7.12522C16.2322 6.28929 15.6263 5.75853 15.0182 5.75853C12.3646 5.75853 8.5744 11.672 9.10512 15.9954C9.33288 17.6629 10.3191 19.6355 12.442 19.6355C13.1231 19.6355 13.8794 19.4077 14.5649 19.1048C15.6018 18.5572 16.2479 18.1225 16.8677 17.4685L16.9907 17.6148C16.853 18.2642 15.945 19.3858 15.3212 19.7859C14.2597 20.4692 13.0479 21 11.6061 21C10.3191 21 9.1803 20.3167 8.5744 19.7107C7.66333 18.877 7.13482 17.5877 7.05743 16.3736C6.60411 12.6583 8.87735 7.88155 12.3646 5.75853C13.2005 5.30518 14.0342 5 14.8678 5Z" fill="black"/>
</g>
<defs>
<clipPath id="clip0_800_4207">
<rect width="26" height="26" fill="white"/>
</clipPath>
</defs>
</svg>
