<svg width="26" height="26" viewBox="0 0 26 26" fill="none" xmlns="http://www.w3.org/2000/svg">
<g clip-path="url(#clip0_800_4192)">
<path d="M4.60417 0C2.05833 0 0 2.05833 0 4.60417V20.7458C0 23.2917 2.05833 25.35 4.60417 25.35H21.3958C23.9417 25.35 26 23.2917 26 20.7458V4.60417C26 2.05833 23.9417 0 21.3958 0H4.60417ZM16.8567 5.5575H19.0558C19.11 5.54667 19.1533 5.59 19.1642 5.63333V15.9683C19.1642 16.1633 19.175 16.38 19.1858 16.6183C19.2075 16.8458 19.2183 17.0625 19.2292 17.2467C19.2292 17.3225 19.1967 17.3875 19.1208 17.42C18.5575 17.6583 17.9617 17.8317 17.355 17.94C16.8133 18.0375 16.25 18.0917 15.6867 18.0917C14.885 18.1025 14.0833 17.94 13.3575 17.6042C12.675 17.29 12.1117 16.77 11.7217 16.1308C11.3208 15.47 11.1258 14.6467 11.1258 13.6608C11.115 12.8592 11.3208 12.0683 11.7217 11.375C12.1333 10.6708 12.7292 10.0858 13.4442 9.69583C14.2025 9.27333 15.1125 9.0675 16.185 9.0675C16.2392 9.0675 16.315 9.0675 16.4125 9.07833C16.51 9.08917 16.6183 9.08917 16.7483 9.1V5.67667C16.7483 5.60083 16.7808 5.5575 16.8567 5.5575ZM7.1825 6.48917H9.295C9.36 6.47833 9.425 6.52167 9.43583 6.5975C9.44667 6.60833 9.44667 6.61917 9.44667 6.63V17.745C9.44667 17.8642 9.3925 17.9183 9.295 17.9183H7.17167C7.07417 17.9183 7.03083 17.8642 7.03083 17.745V6.63C7.03083 6.5325 7.085 6.48917 7.1825 6.48917ZM16.0983 11.0825C15.6758 11.0825 15.2533 11.1692 14.8742 11.3642C14.5058 11.5483 14.1917 11.8192 13.9533 12.1658C13.715 12.5125 13.5958 12.9783 13.5958 13.5417C13.585 13.9208 13.65 14.3 13.78 14.6575C13.8883 14.95 14.0508 15.21 14.2675 15.4267C14.4733 15.6217 14.7225 15.7733 15.0042 15.86C15.2967 15.9575 15.6 16.0008 15.9033 16.0008C16.0658 16.0008 16.2175 15.99 16.3583 15.9792C16.4992 15.99 16.6292 15.9683 16.7483 15.925V11.1583C16.5353 11.1079 16.3172 11.0824 16.0983 11.0825Z" fill="black"/>
</g>
<defs>
<clipPath id="clip0_800_4192">
<rect width="26" height="26" fill="white"/>
</clipPath>
</defs>
</svg>
