<svg width="26" height="26" viewBox="0 0 26 26" fill="none" xmlns="http://www.w3.org/2000/svg">
<path d="M4.86376 0L1 2.32692V20.1511L4.86271 17.8242H23.1327V1.28757C23.1327 0.579881 22.5507 0 21.844 0H4.86376ZM24.19 3.96094V18.8805H5.15846L3.10616 20.1163V24.0624C3.10616 24.7701 3.6871 25.35 4.39267 25.35H24.8924V3.96094H24.19ZM8.90497 3.98734H12.0072L13.9982 11.9177L16.0864 4.01692L16.0737 3.98734H19.0914V13.8675H16.7508V7.48776L15.0978 13.8527V13.8675H12.7708L11.0217 7.23426V13.8675H8.90497V3.98734ZM10.3098 19.5797H11.5562L12.6842 23.322H11.7315L11.5023 22.5055H10.3774L10.1693 23.322H9.23981L10.3098 19.5797ZM12.3357 19.5797H13.3201L14.0045 21.1577L14.6837 19.5797H15.628L14.4524 21.8327V23.322H13.5155V21.8369L12.3357 19.5797ZM16.3769 19.5797H17.6233L18.7513 23.322H17.8007L17.5715 22.5055H16.4466L16.2385 23.322H15.309L16.3769 19.5797ZM10.9309 20.1944L10.5485 21.8105H11.3196L10.9309 20.1944ZM16.998 20.1944L16.6177 21.8105H17.3888L16.998 20.1944Z" fill="black"/>
</svg>
