<svg width="26" height="26" viewBox="0 0 26 26" fill="none" xmlns="http://www.w3.org/2000/svg">
<g clip-path="url(#clip0_800_4197)">
<path d="M2.1671 13C2.16674 15.0345 2.73927 17.0281 3.81915 18.7524C4.89903 20.4767 6.44261 21.8621 8.2732 22.75L3.1044 8.5891C2.48479 9.97697 2.16538 11.4801 2.1671 13ZM13.1911 13.9477L9.9398 23.3922C12.1221 24.0347 14.4511 23.9742 16.5971 23.2193C16.5668 23.1718 16.5407 23.1218 16.5191 23.0698L13.1911 13.9477ZM20.3138 12.4527C20.2992 11.3933 19.99 10.3589 19.4207 9.4653C18.8384 8.73293 18.4699 7.85381 18.356 6.9251C18.3431 6.42885 18.5273 5.9477 18.8685 5.58707C19.2096 5.22643 19.6798 5.01572 20.176 5.0011C20.2241 5.0011 20.2696 5.0076 20.3151 5.0115C19.1586 3.952 17.7857 3.15634 16.2914 2.67955C14.7972 2.20277 13.2172 2.05623 11.6607 2.25007C10.1043 2.44392 8.60852 2.97352 7.27686 3.80226C5.94519 4.63099 4.80943 5.73908 3.9481 7.0499C4.2029 7.0577 4.4421 7.0629 4.6462 7.0629C5.7785 7.0629 7.5322 6.9251 7.5322 6.9251C7.64718 6.92189 7.759 6.96298 7.84455 7.03988C7.93009 7.11678 7.98282 7.22361 7.99183 7.33828C8.00085 7.45295 7.96546 7.56671 7.89298 7.65603C7.8205 7.74535 7.71647 7.8034 7.6024 7.8182C7.6024 7.8182 7.0148 7.8858 6.3622 7.9209L10.3077 19.6547L12.6789 12.5437L10.9902 7.9209C10.4065 7.8858 9.854 7.8169 9.854 7.8169C9.7422 7.79973 9.64102 7.74095 9.57073 7.65234C9.50043 7.56372 9.46621 7.45182 9.47493 7.33905C9.48364 7.22628 9.53464 7.12096 9.61771 7.0442C9.70078 6.96744 9.80979 6.9249 9.9229 6.9251C9.9229 6.9251 11.7117 7.0629 12.7764 7.0629C13.9087 7.0629 15.6637 6.9251 15.6637 6.9251C15.7223 6.92058 15.7813 6.92765 15.8372 6.94591C15.8931 6.96417 15.9449 6.99326 15.9895 7.03153C16.0342 7.0698 16.0709 7.11649 16.0975 7.16893C16.1241 7.22138 16.1402 7.27856 16.1447 7.3372C16.1492 7.39584 16.1422 7.4548 16.1239 7.51071C16.1056 7.56662 16.0765 7.61838 16.0383 7.66305C16 7.70771 15.9533 7.7444 15.9009 7.77102C15.8484 7.79765 15.7912 7.81368 15.7326 7.8182C15.7326 7.8182 15.145 7.8858 14.4937 7.9209L18.408 19.5663L19.526 16.0238C19.9628 14.8798 20.228 13.6747 20.3138 12.4527ZM22.5797 8.918C22.5609 10.2529 22.2809 11.5712 21.7555 12.7985L18.447 22.3652C20.8874 20.9457 22.6772 18.6296 23.4355 15.9102C24.1938 13.1907 23.8606 10.2827 22.5069 7.8052C22.5563 8.1731 22.5797 8.5462 22.5797 8.918ZM13 0C5.8201 0 0 5.8201 0 13C0 20.1799 5.8201 26 13 26C20.1799 26 26 20.1799 26 13C26 5.8201 20.1799 0 13 0ZM17.7567 24.2606C15.8841 25.0529 13.8433 25.3648 11.8195 25.168C9.79579 24.9712 7.85329 24.2718 6.1685 23.1335C4.20336 21.8071 2.6649 19.9395 1.7394 17.7567C0.946849 15.8842 0.634814 13.8433 0.831653 11.8195C1.02849 9.79571 1.72796 7.8532 2.8665 6.1685C4.19278 4.20359 6.0605 2.66552 8.2433 1.7407C10.1158 0.948195 12.1566 0.63607 14.1803 0.832678C16.204 1.02929 18.1466 1.72839 19.8315 2.8665C21.7966 4.19287 23.3351 6.06052 24.2606 8.2433C25.0532 10.1158 25.3652 12.1567 25.1683 14.1805C24.9715 16.2043 24.272 18.1468 23.1335 19.8315C21.8074 21.7969 19.9397 23.3354 17.7567 24.2606Z" fill="black"/>
</g>
<defs>
<clipPath id="clip0_800_4197">
<rect width="26" height="26" fill="white"/>
</clipPath>
</defs>
</svg>
