<?xml version="1.0" encoding="UTF-8"?><svg id="Layer_1" xmlns="http://www.w3.org/2000/svg" viewBox="0 0 780.2 466.54"><defs><style>.cls-1{fill:#d8d8d8;stroke-width:2px;}.cls-1,.cls-2,.cls-3{stroke:#000;stroke-miterlimit:10;}.cls-2{fill:#fff;}.cls-3{fill:none;}.cls-4{font-family:Indivisible-Regular, Indivisible;font-size:12px;}.cls-5{letter-spacing:0em;}</style></defs><g><polygon class="cls-1" points="71.32 103.95 415.98 49.94 504.13 69.53 610.46 52.27 709.23 71.92 709.23 413.32 610.46 379.13 504.13 406.06 415.51 371.75 71.45 462.38 71.32 103.95"/><line class="cls-1" x1="196.66" y1="428.33" x2="192.7" y2="84.94"/><line class="cls-1" x1="309.62" y1="399.13" x2="305.79" y2="67.03"/><line class="cls-1" x1="415.98" y1="49.94" x2="415.51" y2="371.75"/><line class="cls-1" x1="504.13" y1="69.53" x2="504.13" y2="406.06"/><line class="cls-1" x1="610.46" y1="52.27" x2="610.46" y2="379.13"/></g><line class="cls-2" x1="419.39" y1="36.06" x2="500.52" y2="54.25"/><polyline class="cls-3" points="425.94 33.98 418.87 35.72 423.92 40.97"/><polyline class="cls-3" points="494.04 56.47 501.06 54.54 495.88 49.43"/><line class="cls-2" x1="507.63" y1="54.33" x2="607.09" y2="38.38"/><polyline class="cls-3" points="512.24 49.86 506.68 54.56 513.53 57.02"/><polyline class="cls-3" points="601.78 42.8 607.52 38.33 600.78 35.59"/><line class="cls-2" x1="612.12" y1="38.38" x2="708.01" y2="57.68"/><polyline class="cls-3" points="701.05 59.8 708.01 57.68 702.69 52.72"/><polyline class="cls-3" points="618.45 35.98 611.54 38.28 616.99 43.11"/><g><g><line class="cls-2" x1="412.03" y1="2.72" x2="70.98" y2="56.71"/><polyline class="cls-3" points="76.09 51.93 70.81 56.94 77.78 59.01"/><polyline class="cls-3" points="406.74 7.56 412.03 2.55 405.05 .48"/></g><text class="cls-4" transform="translate(221.81 19.82)"><tspan x="0" y="0">291 cm</tspan></text></g><polyline class="cls-3" points="57.13 112.71 53.51 106.4 49.86 112.69"/><text class="cls-4" transform="translate(0 288.68)"><tspan x="0" y="0">235 cm</tspan></text><polyline class="cls-3" points="730.1 80.35 726.48 74.04 722.82 80.33"/><polyline class="cls-3" points="722.82 410.16 726.44 416.47 730.1 410.18"/><text class="cls-4" transform="translate(738.48 250.84)"><tspan x="0" y="0">235 cm</tspan></text><g><text class="cls-4" transform="translate(112.97 68.93)"><tspan class="cls-5" x="0" y="0">9</tspan><tspan x="7.3" y="0">7 cm</tspan></text><line class="cls-2" x1="71.45" y1="87.81" x2="188.63" y2="68.93"/><polyline class="cls-3" points="76.74 83.08 71.33 87.95 78.24 90.2"/><polyline class="cls-3" points="183.83 73.53 189.24 68.67 182.32 66.41"/></g><g><text class="cls-4" transform="translate(234.34 49.07)"><tspan class="cls-5" x="0" y="0">9</tspan><tspan x="7.3" y="0">7 cm</tspan></text><line class="cls-2" x1="192.82" y1="67.94" x2="303.08" y2="49.98"/><polyline class="cls-3" points="198.11 63.22 192.7 68.08 199.62 70.33"/><polyline class="cls-3" points="298.28 54.57 303.69 49.71 296.78 47.46"/></g><text class="cls-4" transform="translate(349.35 29.75)"><tspan class="cls-5" x="0" y="0">9</tspan><tspan x="7.3" y="0">7 cm</tspan></text><text class="cls-4" transform="translate(449.26 35.59)"><tspan class="cls-5" x="0" y="0">9</tspan><tspan x="7.3" y="0">7 cm</tspan></text><text class="cls-4" transform="translate(536.95 35.59)"><tspan class="cls-5" x="0" y="0">9</tspan><tspan x="7.3" y="0">7 cm</tspan></text><text class="cls-4" transform="translate(642.99 35.59)"><tspan class="cls-5" x="0" y="0">9</tspan><tspan x="7.3" y="0">7 cm</tspan></text><line class="cls-2" x1="307.83" y1="48.62" x2="412.21" y2="32.27"/><polyline class="cls-3" points="313.12 43.9 307.71 48.76 314.63 51.01"/><polyline class="cls-3" points="407.4 36.86 412.82 32 405.9 29.75"/><line class="cls-2" x1="53.56" y1="464.83" x2="53.43" y2="106.4"/><polyline class="cls-3" points="49.92 459.22 53.54 465.54 57.19 459.25"/><line class="cls-2" x1="726.46" y1="74.43" x2="726.46" y2="415.83"/></svg>