<?xml version="1.0" encoding="UTF-8"?><svg id="Layer_1" xmlns="http://www.w3.org/2000/svg" viewBox="0 0 775.52 463.57"><defs><style>.cls-1{fill:#d8d8d8;stroke-width:2px;}.cls-1,.cls-2,.cls-3{stroke:#000;stroke-miterlimit:10;}.cls-2{fill:#fff;}.cls-3{fill:none;}.cls-4{font-family:Indivisible-Regular, Indivisible;font-size:12px;}.cls-5{letter-spacing:0em;}</style></defs><g><polygon class="cls-1" points="66.77 103.93 411.3 49.94 499.45 69.53 605.79 52.27 703.26 71.86 704.92 411.92 605.79 379.13 499.45 406.06 410.84 371.75 71.75 459.41 66.77 103.93"/><line class="cls-1" x1="191.98" y1="428.33" x2="188.02" y2="84.94"/><line class="cls-1" x1="304.95" y1="399.13" x2="301.12" y2="67.03"/><line class="cls-1" x1="411.3" y1="49.94" x2="410.84" y2="371.75"/><line class="cls-1" x1="499.45" y1="69.53" x2="499.45" y2="406.06"/><line class="cls-1" x1="605.79" y1="52.27" x2="605.79" y2="379.13"/></g><line class="cls-2" x1="414.71" y1="36.06" x2="495.85" y2="54.25"/><polyline class="cls-3" points="421.26 33.98 414.2 35.72 419.24 40.97"/><polyline class="cls-3" points="489.36 56.47 496.38 54.54 491.2 49.43"/><line class="cls-2" x1="502.95" y1="54.33" x2="602.42" y2="38.38"/><polyline class="cls-3" points="507.56 49.86 502.01 54.56 508.85 57.02"/><polyline class="cls-3" points="597.1 42.8 602.84 38.33 596.1 35.59"/><line class="cls-2" x1="607.44" y1="38.38" x2="703.33" y2="57.68"/><polyline class="cls-3" points="696.37 59.8 703.33 57.68 698.02 52.72"/><polyline class="cls-3" points="613.77 35.98 606.87 38.28 612.31 43.11"/><g><g><line class="cls-2" x1="407.35" y1="2.72" x2="66.3" y2="56.71"/><polyline class="cls-3" points="71.42 51.93 66.13 56.94 73.11 59.01"/><polyline class="cls-3" points="402.07 7.56 407.35 2.55 400.37 .48"/></g><text class="cls-4" transform="translate(217.13 19.82)"><tspan x="0" y="0">291 cm</tspan></text></g><g><line class="cls-2" x1="53.77" y1="462.38" x2="48.79" y2="106.9"/><polyline class="cls-3" points="52.43 112.34 48.81 106.02 45.15 112.31"/><polyline class="cls-3" points="50.13 456.26 53.75 462.57 57.41 456.28"/><text class="cls-4" transform="translate(0 288.3)"><tspan x="0" y="0">235 cm</tspan></text></g><line class="cls-2" x1="726.76" y1="419.44" x2="721.79" y2="74.91"/><polyline class="cls-3" points="725.42 80.35 721.8 74.04 718.15 80.33"/><polyline class="cls-3" points="723.12 413.32 726.74 419.63 730.4 413.34"/><text class="cls-4" transform="translate(733.81 250.84)"><tspan x="0" y="0">235 cm</tspan></text><g><text class="cls-4" transform="translate(108.29 68.93)"><tspan class="cls-5" x="0" y="0">9</tspan><tspan x="7.3" y="0">7 cm</tspan></text><line class="cls-2" x1="66.77" y1="87.81" x2="183.95" y2="68.93"/><polyline class="cls-3" points="72.06 83.08 66.65 87.95 73.57 90.2"/><polyline class="cls-3" points="179.15 73.53 184.56 68.67 177.65 66.41"/></g><g><text class="cls-4" transform="translate(229.66 49.07)"><tspan class="cls-5" x="0" y="0">9</tspan><tspan x="7.3" y="0">7 cm</tspan></text><line class="cls-2" x1="188.14" y1="67.94" x2="298.41" y2="49.98"/><polyline class="cls-3" points="193.43 63.22 188.02 68.08 194.94 70.33"/><polyline class="cls-3" points="293.61 54.57 299.02 49.71 292.1 47.46"/></g><text class="cls-4" transform="translate(344.67 29.75)"><tspan class="cls-5" x="0" y="0">9</tspan><tspan x="7.3" y="0">7 cm</tspan></text><text class="cls-4" transform="translate(444.58 35.59)"><tspan class="cls-5" x="0" y="0">9</tspan><tspan x="7.3" y="0">7 cm</tspan></text><text class="cls-4" transform="translate(532.27 35.59)"><tspan class="cls-5" x="0" y="0">9</tspan><tspan x="7.3" y="0">7 cm</tspan></text><text class="cls-4" transform="translate(638.32 35.59)"><tspan class="cls-5" x="0" y="0">9</tspan><tspan x="7.3" y="0">7 cm</tspan></text><line class="cls-2" x1="303.15" y1="48.62" x2="407.53" y2="32.27"/><polyline class="cls-3" points="308.44 43.9 303.03 48.76 309.95 51.01"/><polyline class="cls-3" points="402.73 36.86 408.14 32 401.22 29.75"/></svg>