<svg width="545" height="199" viewBox="0 0 545 199" fill="none" xmlns="http://www.w3.org/2000/svg">
<path d="M0 23.08V0.610001H5.96V8.83H14.25V0.610001H20.21V23.08H14.25V14.29H5.96V23.08H0Z" fill="black"/>
<path d="M24.2598 23.08V0.610001H40.4298V5.77H30.2198V9.24H38.6098V14.09H30.2198V17.93H41.1398V23.09H24.2598V23.08Z" fill="black"/>
<path d="M42.3501 23.08L50.6101 0.610001H57.4501L65.4001 23.08H58.9601L57.5101 18.43H50.0001L48.5201 23.08H42.3501ZM51.2101 14.08H56.3001L53.8101 5.83L51.2201 14.08H51.2101Z" fill="black"/>
<path d="M67.5498 23.08V0.610001H76.1798C78.4898 0.610001 80.5498 1.01 82.3598 1.81C84.1698 2.61 85.5998 3.84 86.6598 5.52C87.7198 7.19 88.2398 9.34 88.2398 11.97C88.2398 14.44 87.7098 16.5 86.6598 18.15C85.5998 19.8 84.1598 21.04 82.3298 21.86C80.4998 22.68 78.4398 23.09 76.1498 23.09H67.5598L67.5498 23.08ZM73.5098 17.82H75.9398C77.8698 17.82 79.3798 17.26 80.4598 16.15C81.5398 15.04 82.0798 13.59 82.0798 11.82C82.0798 10.05 81.5898 8.57 80.5998 7.47C79.6098 6.37 78.0598 5.82 75.9498 5.82H73.5198V17.81L73.5098 17.82Z" fill="black"/>
<path d="M91.4099 23.08V0.610001H97.3699V17.83H107.78V23.09H91.3999L91.4099 23.08Z" fill="black"/>
<path d="M110.48 23.08V0.610001H116.44V23.08H110.48Z" fill="black"/>
<path d="M120.49 23.08V0.610001H125.91L134.54 13.14V0.610001H140.44V23.08H135.35L126.39 10.18V23.08H120.49Z" fill="black"/>
<path d="M144.48 23.08V0.610001H160.65V5.77H150.44V9.24H158.83V14.09H150.44V17.93H161.36V23.09H144.48V23.08Z" fill="black"/>
<path d="M170.56 23.08V0.610001H176.52V17.83H186.93V23.09H170.55L170.56 23.08Z" fill="black"/>
<path d="M188.24 23.08L196.5 0.610001H203.34L211.29 23.08H204.85L203.4 18.43H195.89L194.41 23.08H188.24ZM197.1 14.08H202.19L199.7 5.83L197.11 14.08H197.1Z" fill="black"/>
<path d="M213.45 23.08V0.610001H222.75C225.15 0.610001 227.08 1.23 228.54 2.48C230 3.73 230.73 5.56 230.73 7.99C230.73 9.45 230.4 10.73 229.75 11.83C229.1 12.93 228.23 13.81 227.16 14.46L231.98 23.09H225.58L221.77 15.44H219.28V23.09H213.45V23.08ZM219.28 10.75H222.18C222.97 10.75 223.61 10.51 224.1 10.03C224.59 9.55 224.84 8.9 224.84 8.09C224.84 7.24 224.6 6.56 224.13 6.07C223.66 5.58 223 5.33 222.14 5.33H219.28V10.75Z" fill="black"/>
<path d="M245.56 14.86V10.24H254.79V20.38C253.44 21.53 251.89 22.35 250.14 22.86C248.39 23.37 246.65 23.62 244.92 23.62C242.49 23.62 240.4 23.14 238.65 22.17C236.9 21.2 235.56 19.84 234.62 18.08C233.69 16.32 233.22 14.22 233.22 11.8C233.22 9.51 233.71 7.48 234.7 5.7C235.69 3.92 237.06 2.53 238.83 1.52C240.59 0.51 242.62 0 244.91 0C246.77 0 248.52 0.31 250.15 0.93C251.78 1.55 253.14 2.58 254.24 4.01L250.37 7.92C249.67 7.22 248.93 6.65 248.13 6.2C247.33 5.75 246.41 5.53 245.35 5.53C244.07 5.53 242.98 5.82 242.08 6.39C241.18 6.96 240.5 7.73 240.04 8.68C239.58 9.64 239.35 10.71 239.35 11.9C239.35 13.81 239.9 15.34 241 16.5C242.1 17.66 243.56 18.23 245.38 18.23C246.12 18.23 246.83 18.13 247.5 17.94C248.17 17.75 248.83 17.44 249.45 17.01V14.85H245.54L245.56 14.86Z" fill="black"/>
<path d="M258.46 23.08V0.610001H274.63V5.77H264.42V9.24H272.81V14.09H264.42V17.93H275.34V23.09H258.46V23.08Z" fill="black"/>
<path d="M284.54 16.38V10.92H295.66V16.38H284.54Z" fill="black"/>
<path d="M305.8 23.08V0.610001H321.97V5.77H311.76V9.24H320.15V14.09H311.76V17.93H322.68V23.09H305.8V23.08Z" fill="black"/>
<path d="M325.51 23.08V11.62H323.08V7.24H325.51V7.04C325.51 5.98 325.66 5.04 325.95 4.19C326.24 3.34 326.66 2.62 327.2 2.02C328.41 0.67 330.16 0 332.46 0C333.16 0 333.84 0.1 334.52 0.29C335.19 0.48 335.8 0.77 336.34 1.15L334.52 4.99C333.96 4.65 333.43 4.48 332.94 4.48C332.63 4.48 332.26 4.61 331.85 4.87C331.43 5.13 331.23 5.67 331.23 6.5V7.24H336.01V6.63C336.01 5.19 336.32 3.98 336.94 3.01C337.56 2.03 338.4 1.29 339.47 0.77C340.54 0.25 341.76 0 343.13 0C345.15 0 346.84 0.54 348.18 1.62L345.82 5.29C345.53 5.07 345.19 4.89 344.81 4.75C344.43 4.62 344.04 4.55 343.63 4.55C343.07 4.55 342.61 4.73 342.25 5.09C341.89 5.45 341.71 5.93 341.71 6.54V7.25H345.15V11.63H341.71V23.09H336.02V11.63H331.24V23.09H325.55L325.51 23.08Z" fill="black"/>
<path d="M347.24 23.08V7.24H352.73L352.93 9.23C353.38 8.6 353.93 8.07 354.6 7.63C355.26 7.19 356.07 6.97 357.01 6.97C357.46 6.97 357.85 6.99 358.17 7.04C358.49 7.09 358.78 7.15 359.03 7.24L358.29 12.09C357.75 11.96 357.2 11.89 356.64 11.89C354.17 11.89 352.93 13.25 352.93 15.97V23.08H347.24Z" fill="black"/>
<path d="M369.68 23.08L369.48 21.6C368.76 22.36 368.04 22.89 367.31 23.18C366.58 23.47 365.68 23.62 364.6 23.62C363.9 23.62 363.17 23.49 362.41 23.22C361.65 22.95 360.99 22.47 360.46 21.77C359.93 21.07 359.65 20.1 359.65 18.84C359.65 17.58 360 16.49 360.69 15.64C361.39 14.79 362.31 14.14 363.47 13.7C364.63 13.26 365.88 13.04 367.23 13.04C367.75 13.04 368.16 13.05 368.48 13.07C368.8 13.09 369.13 13.13 369.49 13.17V12.87C369.49 12.31 369.35 11.89 369.07 11.61C368.79 11.33 368.45 11.14 368.04 11.04C367.63 10.94 367.24 10.89 366.86 10.89C365.87 10.89 364.99 11.02 364.22 11.28C363.44 11.54 362.82 11.84 362.35 12.17L360.19 8.9C360.86 8.36 361.81 7.87 363.04 7.42C364.26 6.97 365.81 6.75 367.67 6.75C369.87 6.75 371.65 7.32 373.01 8.45C374.37 9.58 375.05 11.28 375.05 13.52V23.09H369.69L369.68 23.08ZM369.48 17.28V16.24C369.1 16.15 368.58 16.11 367.93 16.11C366.99 16.11 366.29 16.3 365.84 16.67C365.39 17.04 365.17 17.48 365.17 18C365.17 19.17 365.8 19.75 367.06 19.75C367.64 19.75 368.19 19.58 368.71 19.23C369.23 18.88 369.48 18.24 369.48 17.29V17.28Z" fill="black"/>
<path d="M384.74 23.08V0.610001H390.7V8.83H398.99V0.610001H404.95V23.08H398.99V14.29H390.7V23.08H384.74Z" fill="black"/>
<path d="M421.81 18.23L423.6 21.94C423.08 22.23 422.25 22.59 421.11 23C419.96 23.42 418.59 23.62 417 23.62C414.1 23.62 411.87 22.88 410.31 21.41C408.75 19.94 407.97 17.88 407.97 15.23C407.97 14.17 408.14 13.14 408.47 12.13C408.81 11.12 409.32 10.2 410 9.38001C410.68 8.56001 411.55 7.91001 412.59 7.43001C413.63 6.95001 414.85 6.71001 416.25 6.71001C417.65 6.71001 419.03 7.04001 420.21 7.70001C421.39 8.36001 422.33 9.36001 423.02 10.7C423.71 12.04 424.06 13.73 424.06 15.77V16.85H413.35C413.37 17.21 413.5 17.59 413.74 17.98C413.98 18.37 414.38 18.7 414.95 18.97C415.52 19.24 416.3 19.37 417.29 19.37C418.28 19.37 419.14 19.25 419.95 19C420.76 18.75 421.38 18.49 421.8 18.23H421.81ZM413.39 13.48H419.02C419.02 13.12 418.92 12.75 418.72 12.37C418.52 11.99 418.21 11.66 417.79 11.38C417.37 11.1 416.84 10.96 416.19 10.96C415.54 10.96 415.04 11.1 414.62 11.38C414.2 11.66 413.9 11.99 413.69 12.37C413.49 12.75 413.39 13.12 413.39 13.48Z" fill="black"/>
<path d="M435.75 23.08L435.55 21.6C434.83 22.36 434.11 22.89 433.38 23.18C432.65 23.47 431.75 23.62 430.67 23.62C429.97 23.62 429.24 23.49 428.48 23.22C427.72 22.95 427.06 22.47 426.53 21.77C426 21.07 425.72 20.1 425.72 18.84C425.72 17.58 426.07 16.49 426.76 15.64C427.46 14.79 428.38 14.14 429.54 13.7C430.7 13.26 431.95 13.04 433.3 13.04C433.82 13.04 434.23 13.05 434.55 13.07C434.87 13.09 435.2 13.13 435.56 13.17V12.87C435.56 12.31 435.42 11.89 435.14 11.61C434.86 11.33 434.52 11.14 434.11 11.04C433.7 10.94 433.31 10.89 432.93 10.89C431.94 10.89 431.06 11.02 430.29 11.28C429.51 11.54 428.89 11.84 428.42 12.17L426.26 8.9C426.93 8.36 427.88 7.87 429.11 7.42C430.33 6.97 431.88 6.75 433.74 6.75C435.94 6.75 437.72 7.32 439.08 8.45C440.44 9.58 441.12 11.28 441.12 13.52V23.09H435.76L435.75 23.08ZM435.55 17.28V16.24C435.17 16.15 434.65 16.11 434 16.11C433.06 16.11 432.36 16.3 431.91 16.67C431.46 17.04 431.24 17.48 431.24 18C431.24 19.17 431.87 19.75 433.13 19.75C433.71 19.75 434.26 19.58 434.78 19.23C435.3 18.88 435.55 18.24 435.55 17.29V17.28Z" fill="black"/>
<path d="M448.69 23.08L442.02 7.24001H448.22L451.45 16.71L454.45 7.24001H460.65L453.78 23.08H448.69Z" fill="black"/>
<path d="M461.43 28.77L463.55 24.89C463.86 25.11 464.22 25.31 464.63 25.46C465.04 25.61 465.39 25.7 465.71 25.7C466.23 25.7 466.66 25.6 467.01 25.4C467.36 25.2 467.64 24.78 467.87 24.15L468.34 22.87L461 7.24001H467.47L470.84 16.4L474.04 7.24001H479.97L473.67 22.84C473.27 23.81 472.86 24.73 472.46 25.62C472.06 26.51 471.59 27.3 471.06 28C470.53 28.7 469.87 29.24 469.07 29.63C468.27 30.02 467.29 30.22 466.12 30.22C465.29 30.22 464.48 30.1 463.69 29.87C462.9 29.63 462.15 29.27 461.43 28.78V28.77Z" fill="black"/>
<path d="M488.25 16.38V10.92H499.37V16.38H488.25Z" fill="black"/>
<path d="M508.97 23.08V19.98C508.97 18.88 509.2 17.89 509.66 17.01C510.12 16.13 510.71 15.34 511.43 14.63C512.15 13.92 512.91 13.27 513.72 12.68C514.53 12.09 515.29 11.53 516.01 11.01C516.73 10.49 517.32 9.99 517.78 9.51C518.24 9.03 518.47 8.53 518.47 8.01C518.47 7.54 518.27 7.11 517.86 6.71C517.46 6.32 516.84 6.12 516.01 6.12C515.4 6.12 514.87 6.25 514.41 6.51C513.95 6.77 513.57 7.07 513.26 7.4C512.96 7.74 512.72 8.05 512.54 8.34L508.43 5.51C508.88 4.77 509.48 4.07 510.23 3.42C510.98 2.77 511.9 2.24 512.99 1.84C514.08 1.44 515.33 1.23 516.75 1.23C518.34 1.23 519.69 1.53 520.79 2.14C521.89 2.75 522.72 3.53 523.28 4.5C523.84 5.47 524.12 6.48 524.12 7.53C524.12 8.7 523.84 9.72999 523.28 10.61C522.72 11.5 522.02 12.29 521.19 13C520.36 13.71 519.53 14.34 518.7 14.9C517.87 15.46 517.17 15.99 516.59 16.5C516.02 17.01 515.71 17.51 515.66 18H524.18V23.05H508.95L508.97 23.08Z" fill="black"/>
<path d="M530.64 11.42C529.99 11.02 529.41 10.43 528.9 9.67C528.4 8.91 528.14 8.02 528.14 7.01C528.14 5.93 528.45 4.95 529.08 4.08C529.71 3.21 530.6 2.51 531.74 2.01C532.89 1.5 534.23 1.25 535.78 1.25C537.33 1.25 538.68 1.5 539.84 2.01C541 2.52 541.89 3.21 542.54 4.08C543.18 4.96 543.5 5.93 543.5 7.01C543.5 8.02 543.25 8.91 542.74 9.67C542.23 10.43 541.66 11.02 541 11.42C542.06 11.94 542.9 12.64 543.53 13.53C544.16 14.42 544.47 15.55 544.47 16.92C544.47 17.93 544.15 18.95 543.53 19.99C542.9 21.02 541.95 21.89 540.67 22.58C539.39 23.27 537.76 23.62 535.78 23.62C533.8 23.62 532.24 23.3 530.96 22.66C529.68 22.02 528.72 21.19 528.1 20.17C527.47 19.15 527.16 18.09 527.16 16.99C527.16 15.62 527.49 14.48 528.14 13.57C528.79 12.66 529.62 11.95 530.63 11.43L530.64 11.42ZM535.8 13.75C535.1 13.95 534.43 14.28 533.78 14.74C533.13 15.2 532.8 15.86 532.8 16.71C532.8 17.56 533.11 18.16 533.73 18.56C534.35 18.96 535.04 19.17 535.8 19.17C536.56 19.17 537.25 18.97 537.87 18.56C538.49 18.16 538.8 17.54 538.8 16.71C538.8 15.88 538.48 15.2 537.84 14.74C537.2 14.28 536.52 13.95 535.8 13.75ZM535.8 10.08C536.5 9.86 537.09 9.52 537.59 9.07C538.08 8.62 538.33 8.08 538.33 7.45C538.33 6.75 538.09 6.2 537.62 5.78C537.15 5.36 536.54 5.16 535.8 5.16C535.06 5.16 534.45 5.37 533.98 5.78C533.51 6.2 533.27 6.75 533.27 7.45C533.27 8.08 533.52 8.62 534.01 9.07C534.5 9.52 535.1 9.86 535.8 10.08Z" fill="black"/>
<path d="M0.339844 137.09V114.62H4.58984V123.65H15.7398V114.62H19.9898V137.09H15.7398V127.42H4.57984V137.09H0.339844Z" fill="black"/>
<path d="M36.9998 132.37L39.1598 134.8L38.5998 135.36C38.2998 135.66 37.8598 135.99 37.2898 136.34C36.7198 136.69 35.9898 136.99 35.0998 137.25C34.2098 137.51 33.1498 137.64 31.9198 137.64C30.2398 137.64 28.7698 137.27 27.5198 136.54C26.2698 135.81 25.2998 134.79 24.6098 133.49C23.9098 132.19 23.5698 130.69 23.5698 129.01C23.5698 127.46 23.9098 126.06 24.5998 124.82C25.2898 123.57 26.2298 122.59 27.4298 121.85C28.6298 121.12 30.0198 120.76 31.5898 120.76C33.0498 120.76 34.2698 121.02 35.2598 121.53C36.2498 122.05 37.0498 122.74 37.6498 123.6C38.2498 124.46 38.6898 125.44 38.9598 126.51C39.2298 127.59 39.3598 128.69 39.3598 129.81V130.38H27.5698C27.5698 131.14 27.7898 131.81 28.2298 132.38C28.6698 132.95 29.2198 133.4 29.8998 133.73C30.5698 134.06 31.2598 134.22 31.9598 134.22C32.9898 134.22 33.8498 134.1 34.5198 133.87C35.1898 133.64 35.7298 133.37 36.1398 133.08C36.5398 132.79 36.8398 132.55 37.0198 132.37H36.9998ZM27.5298 127.52H35.2798C35.2798 126.98 35.1398 126.45 34.8598 125.92C34.5798 125.39 34.1698 124.95 33.6298 124.61C33.0898 124.27 32.4098 124.09 31.5698 124.09C30.6898 124.09 29.9598 124.26 29.3598 124.61C28.7598 124.96 28.3098 125.4 27.9998 125.92C27.6898 126.45 27.5298 126.98 27.5298 127.52Z" fill="black"/>
<path d="M51.8497 137.09L51.7497 135.61C51.3197 136.13 50.6697 136.59 49.7797 136.99C48.8897 137.39 47.9197 137.6 46.8697 137.6C46.0197 137.6 45.1697 137.42 44.3297 137.06C43.4897 136.7 42.7897 136.14 42.2397 135.38C41.6897 134.62 41.4097 133.65 41.4097 132.48C41.4097 130.68 42.0497 129.29 43.3297 128.3C44.6097 127.31 46.2797 126.82 48.3497 126.82C48.7297 126.82 49.1897 126.83 49.7097 126.85C50.2397 126.87 50.9197 126.91 51.7497 126.95V126.58C51.7497 125.79 51.4397 125.18 50.8097 124.73C50.1797 124.28 49.3597 124.06 48.3497 124.06C47.2297 124.06 46.3297 124.21 45.6497 124.5C44.9797 124.79 44.3797 125.11 43.8597 125.44L42.0397 122.74C42.4697 122.43 42.9697 122.12 43.5597 121.81C44.1497 121.5 44.8597 121.25 45.7197 121.05C46.5697 120.85 47.6297 120.75 48.8897 120.75C50.9097 120.75 52.5297 121.28 53.7397 122.35C54.9497 123.42 55.5597 124.79 55.5597 126.48V137.09H51.8497ZM51.7497 131.5V129.95C51.2297 129.91 50.6697 129.87 50.0597 129.85C49.4497 129.83 48.9897 129.82 48.6797 129.82C47.3997 129.82 46.4997 130.07 45.9797 130.58C45.4597 131.09 45.2097 131.66 45.2097 132.31C45.2097 132.96 45.4497 133.51 45.9297 133.89C46.4097 134.27 47.1297 134.46 48.0697 134.46C48.6997 134.46 49.2897 134.33 49.8397 134.06C50.3897 133.79 50.8397 133.43 51.1997 132.98C51.5597 132.53 51.7397 132.04 51.7397 131.5H51.7497Z" fill="black"/>
<path d="M70.4197 137.09L70.3197 135.54C69.9197 135.99 69.3297 136.45 68.5497 136.92C67.7697 137.39 66.7897 137.63 65.5997 137.63C64.4097 137.63 63.3497 137.32 62.2997 136.69C61.2397 136.06 60.3697 135.13 59.6897 133.91C58.9997 132.69 58.6597 131.21 58.6597 129.48C58.6597 128.24 58.8397 127.16 59.1997 126.21C59.5597 125.27 60.0097 124.48 60.5497 123.85C61.1597 123.13 61.8297 122.56 62.5697 122.15C63.3097 121.73 64.0397 121.43 64.7597 121.24C65.4797 121.05 66.0997 120.95 66.6097 120.95C67.3097 120.95 67.8497 120.98 68.2397 121.03C68.6297 121.09 68.9797 121.16 69.2797 121.27C69.5797 121.38 69.9297 121.5 70.3097 121.66V114.62H74.2497V137.09H70.4097H70.4197ZM70.3197 130.08V125.23C69.6197 124.67 68.5297 124.39 67.0497 124.39C66.2897 124.39 65.6397 124.54 65.1097 124.85C64.5797 125.15 64.1297 125.55 63.7497 126.05C63.0297 126.99 62.6697 128.14 62.6697 129.49C62.6697 130.84 63.0097 131.96 63.6797 132.86C64.3497 133.76 65.3297 134.21 66.6097 134.21C67.5297 134.21 68.2597 134 68.7997 133.57C69.3397 133.14 69.7297 132.61 69.9597 131.97C70.1897 131.33 70.3097 130.71 70.3097 130.1L70.3197 130.08Z" fill="black"/>
<path d="M78.1699 137.09V114.62H82.1499V137.09H78.1699Z" fill="black"/>
<path d="M86.0898 118.79V114.61H90.3398V118.79H86.0898ZM86.2198 137.09V121.29H90.1998V137.09H86.2198Z" fill="black"/>
<path d="M94.2698 137.09V121.29H98.0798L98.1798 123.08C98.5798 122.63 99.1698 122.16 99.9298 121.68C100.69 121.2 101.69 120.96 102.93 120.96C104.88 120.96 106.38 121.55 107.43 122.73C108.47 123.91 109 125.5 109 127.5V137.1H105.02V127.53C105.02 126.54 104.74 125.77 104.19 125.2C103.64 124.64 102.93 124.36 102.05 124.36C100.95 124.36 100.04 124.76 99.3198 125.57C98.5998 126.38 98.2398 127.37 98.2398 128.54V137.1H94.2598L94.2698 137.09Z" fill="black"/>
<path d="M125.54 132.37L127.7 134.8L127.14 135.36C126.84 135.66 126.4 135.99 125.83 136.34C125.26 136.69 124.53 136.99 123.64 137.25C122.75 137.51 121.69 137.64 120.46 137.64C118.78 137.64 117.31 137.27 116.06 136.54C114.81 135.81 113.84 134.79 113.15 133.49C112.45 132.19 112.11 130.69 112.11 129.01C112.11 127.46 112.45 126.06 113.14 124.82C113.83 123.57 114.77 122.59 115.97 121.85C117.17 121.12 118.56 120.76 120.13 120.76C121.59 120.76 122.81 121.02 123.8 121.53C124.79 122.05 125.59 122.74 126.19 123.6C126.79 124.46 127.23 125.44 127.5 126.51C127.77 127.59 127.9 128.69 127.9 129.81V130.38H116.11C116.11 131.14 116.33 131.81 116.77 132.38C117.21 132.95 117.76 133.4 118.44 133.73C119.11 134.06 119.8 134.22 120.5 134.22C121.53 134.22 122.39 134.1 123.06 133.87C123.73 133.64 124.27 133.37 124.68 133.08C125.08 132.79 125.38 132.55 125.56 132.37H125.54ZM116.07 127.52H123.82C123.82 126.98 123.68 126.45 123.4 125.92C123.12 125.39 122.71 124.95 122.17 124.61C121.63 124.27 120.95 124.09 120.11 124.09C119.23 124.09 118.5 124.26 117.9 124.61C117.3 124.96 116.85 125.4 116.54 125.92C116.23 126.45 116.07 126.98 116.07 127.52Z" fill="black"/>
<path d="M136.15 133.48L139.12 130.75C139.5 131.15 139.95 131.59 140.47 132.06C140.99 132.53 141.6 132.94 142.32 133.27C143.04 133.61 143.87 133.78 144.81 133.78C146.14 133.78 147.12 133.47 147.76 132.85C148.4 132.23 148.72 131.51 148.72 130.68C148.72 129.71 148.33 128.96 147.54 128.42C146.75 127.88 145.35 127.42 143.33 127.04C141.96 126.77 140.83 126.31 139.94 125.66C139.05 125.01 138.39 124.23 137.95 123.32C137.51 122.41 137.29 121.46 137.29 120.47C137.29 119.32 137.58 118.26 138.15 117.29C138.72 116.32 139.59 115.52 140.74 114.91C141.9 114.3 143.35 114 145.1 114C146.29 114 147.31 114.13 148.17 114.39C149.02 114.65 149.74 114.96 150.31 115.33C150.88 115.7 151.33 116.06 151.64 116.41C151.95 116.76 152.18 117.01 152.31 117.17L149.51 119.8C149.38 119.67 149.11 119.43 148.72 119.09C148.33 118.75 147.82 118.44 147.2 118.16C146.58 117.88 145.84 117.74 144.96 117.74C143.79 117.74 142.93 118.02 142.38 118.58C141.83 119.14 141.55 119.7 141.55 120.27C141.55 121.06 141.87 121.7 142.51 122.21C143.15 122.72 144.39 123.16 146.23 123.54C147.4 123.79 148.49 124.19 149.52 124.74C150.54 125.29 151.37 126.05 152 127.03C152.63 128.01 152.94 129.26 152.94 130.79C152.94 132.09 152.59 133.27 151.9 134.31C151.21 135.35 150.24 136.18 149.02 136.79C147.8 137.4 146.41 137.7 144.86 137.7C143.31 137.7 142.07 137.48 140.93 137.03C139.79 136.58 138.83 136.03 138.03 135.36C137.23 134.7 136.6 134.07 136.13 133.49L136.15 133.48Z" fill="black"/>
<path d="M156.37 137.09V121.29H160.18L160.28 123.08C160.66 122.61 161.21 122.14 161.93 121.66C162.65 121.19 163.63 120.95 164.86 120.95C166.95 120.95 168.53 121.71 169.61 123.24C170.42 122.41 171.25 121.82 172.1 121.47C172.95 121.12 173.93 120.95 175.03 120.95C177.03 120.95 178.56 121.54 179.63 122.72C180.7 123.9 181.23 125.49 181.23 127.49V137.09H177.25V127.52C177.25 126.53 177 125.76 176.49 125.19C175.98 124.63 175.29 124.35 174.42 124.35C173.32 124.35 172.44 124.75 171.77 125.56C171.11 126.37 170.78 127.36 170.78 128.53V137.09H166.8V127.52C166.8 126.53 166.55 125.76 166.04 125.19C165.53 124.63 164.84 124.35 163.97 124.35C162.87 124.35 161.99 124.75 161.32 125.56C160.65 126.37 160.33 127.36 160.33 128.53V137.09H156.35H156.37Z" fill="black"/>
<path d="M194.51 137.09L194.41 135.61C193.98 136.13 193.33 136.59 192.44 136.99C191.55 137.39 190.58 137.6 189.53 137.6C188.68 137.6 187.83 137.42 186.99 137.06C186.15 136.7 185.45 136.14 184.9 135.38C184.35 134.62 184.07 133.65 184.07 132.48C184.07 130.68 184.71 129.29 185.99 128.3C187.27 127.31 188.94 126.82 191.01 126.82C191.39 126.82 191.85 126.83 192.37 126.85C192.9 126.87 193.58 126.91 194.41 126.95V126.58C194.41 125.79 194.1 125.18 193.47 124.73C192.84 124.28 192.02 124.06 191.01 124.06C189.89 124.06 188.99 124.21 188.31 124.5C187.64 124.79 187.04 125.11 186.52 125.44L184.7 122.74C185.13 122.43 185.63 122.12 186.22 121.81C186.81 121.5 187.52 121.25 188.38 121.05C189.23 120.85 190.29 120.75 191.55 120.75C193.57 120.75 195.19 121.28 196.4 122.35C197.61 123.42 198.22 124.79 198.22 126.48V137.09H194.51ZM194.41 131.5V129.95C193.89 129.91 193.33 129.87 192.72 129.85C192.11 129.83 191.65 129.82 191.34 129.82C190.06 129.82 189.16 130.07 188.64 130.58C188.12 131.09 187.87 131.66 187.87 132.31C187.87 132.96 188.11 133.51 188.59 133.89C189.07 134.27 189.79 134.46 190.73 134.46C191.36 134.46 191.95 134.33 192.5 134.06C193.05 133.79 193.5 133.43 193.86 132.98C194.22 132.53 194.4 132.04 194.4 131.5H194.41Z" fill="black"/>
<path d="M202.06 137.09V114.62H206.04V137.09H202.06Z" fill="black"/>
<path d="M209.94 137.09V114.62H213.92V137.09H209.94Z" fill="black"/>
<path d="M224.26 129.57V125.8H234.54V129.57H224.26Z" fill="black"/>
<path d="M245.29 137.09V114.62H259.85V118.36H249.54V123.65H257.12V127.42H249.54V133.28H260.63V137.09H245.3H245.29Z" fill="black"/>
<path d="M263.68 137.09V124.52H260.98V121.29H263.68V120.45C263.68 119.12 263.88 118.04 264.27 117.2C264.66 116.36 265.17 115.71 265.79 115.25C266.41 114.79 267.04 114.47 267.69 114.29C268.34 114.11 268.91 114.02 269.41 114.02C270.13 114.02 270.88 114.13 271.65 114.36C272.42 114.59 273.21 115.02 273.99 115.67L272.14 118.3C271.83 118.05 271.48 117.85 271.1 117.69C270.72 117.53 270.35 117.45 269.99 117.45C269.23 117.45 268.64 117.7 268.24 118.19C267.84 118.68 267.63 119.37 267.63 120.25V121.29H274.17V120.31C274.17 118.78 274.47 117.56 275.08 116.64C275.69 115.72 276.44 115.05 277.34 114.64C278.24 114.22 279.14 114.02 280.04 114.02C280.76 114.02 281.56 114.12 282.43 114.32C283.3 114.52 284.15 114.97 284.96 115.67L283.11 118.3C282.75 118.05 282.36 117.85 281.95 117.69C281.53 117.53 281.11 117.45 280.69 117.45C279.9 117.45 279.28 117.7 278.82 118.21C278.36 118.72 278.13 119.44 278.13 120.38V121.29H282.21V124.52H278.17V137.09H274.19V124.52H267.69V137.09H263.71H263.68Z" fill="black"/>
<path d="M284.44 137.09V121.29H288.25L288.35 123.28C288.6 122.97 288.93 122.63 289.34 122.29C289.76 121.94 290.27 121.64 290.89 121.38C291.51 121.12 292.24 120.99 293.1 120.99C293.48 120.99 293.82 121.01 294.13 121.06C294.44 121.11 294.74 121.18 295.06 121.3L294.25 125.04C293.71 124.84 293.1 124.74 292.43 124.74C291.33 124.74 290.39 125.09 289.6 125.78C288.81 126.48 288.42 127.41 288.42 128.58V137.1H284.44V137.09Z" fill="black"/>
<path d="M306.41 137.09L306.31 135.61C305.88 136.13 305.23 136.59 304.34 136.99C303.45 137.39 302.48 137.6 301.43 137.6C300.58 137.6 299.73 137.42 298.89 137.06C298.05 136.7 297.35 136.14 296.8 135.38C296.25 134.62 295.97 133.65 295.97 132.48C295.97 130.68 296.61 129.29 297.89 128.3C299.17 127.31 300.84 126.82 302.91 126.82C303.29 126.82 303.75 126.83 304.27 126.85C304.8 126.87 305.48 126.91 306.31 126.95V126.58C306.31 125.79 306 125.18 305.37 124.73C304.74 124.28 303.92 124.06 302.91 124.06C301.79 124.06 300.89 124.21 300.21 124.5C299.54 124.79 298.94 125.11 298.42 125.44L296.6 122.74C297.03 122.43 297.53 122.12 298.12 121.81C298.71 121.5 299.42 121.25 300.28 121.05C301.13 120.85 302.19 120.75 303.45 120.75C305.47 120.75 307.09 121.28 308.3 122.35C309.51 123.42 310.12 124.79 310.12 126.48V137.09H306.41ZM306.31 131.5V129.95C305.79 129.91 305.23 129.87 304.62 129.85C304.01 129.83 303.55 129.82 303.24 129.82C301.96 129.82 301.06 130.07 300.54 130.58C300.02 131.09 299.77 131.66 299.77 132.31C299.77 132.96 300.01 133.51 300.49 133.89C300.97 134.27 301.69 134.46 302.63 134.46C303.26 134.46 303.85 134.33 304.4 134.06C304.95 133.79 305.4 133.43 305.76 132.98C306.12 132.53 306.3 132.04 306.3 131.5H306.31Z" fill="black"/>
<path d="M320.19 137.09L321.27 114.62H325.21L331.44 125.23L337.57 114.62H341.51L342.59 137.09H338.45L337.71 121.52L332.32 130.68H330.33L324.91 121.75L324.17 137.08H320.19V137.09Z" fill="black"/>
<path d="M359.34 132.37L361.5 134.8C361.43 134.87 361.25 135.05 360.94 135.36C360.64 135.66 360.2 135.99 359.63 136.34C359.06 136.69 358.33 136.99 357.44 137.25C356.55 137.51 355.49 137.64 354.26 137.64C352.58 137.64 351.11 137.27 349.86 136.54C348.61 135.81 347.64 134.79 346.95 133.49C346.25 132.19 345.91 130.69 345.91 129.01C345.91 127.46 346.25 126.06 346.94 124.82C347.63 123.57 348.57 122.59 349.77 121.85C350.97 121.12 352.36 120.76 353.93 120.76C355.39 120.76 356.61 121.02 357.6 121.53C358.59 122.05 359.39 122.74 359.99 123.6C360.59 124.46 361.03 125.44 361.3 126.51C361.57 127.59 361.7 128.69 361.7 129.81V130.38H349.91C349.91 131.14 350.13 131.81 350.57 132.38C351.01 132.95 351.56 133.4 352.24 133.73C352.91 134.06 353.6 134.22 354.3 134.22C355.33 134.22 356.19 134.1 356.86 133.87C357.53 133.64 358.07 133.37 358.48 133.08C358.89 132.79 359.18 132.55 359.36 132.37H359.34ZM349.87 127.52H357.62C357.62 126.98 357.48 126.45 357.2 125.92C356.92 125.39 356.51 124.95 355.97 124.61C355.43 124.27 354.75 124.09 353.91 124.09C353.03 124.09 352.3 124.26 351.7 124.61C351.1 124.96 350.65 125.4 350.34 125.92C350.03 126.45 349.87 126.98 349.87 127.52Z" fill="black"/>
<path d="M375.78 137.09L375.68 135.54C375.28 135.99 374.69 136.45 373.91 136.92C373.13 137.39 372.15 137.63 370.96 137.63C369.77 137.63 368.71 137.32 367.66 136.69C366.61 136.06 365.73 135.13 365.05 133.91C364.37 132.69 364.02 131.21 364.02 129.48C364.02 128.24 364.2 127.16 364.56 126.21C364.92 125.27 365.37 124.48 365.91 123.85C366.52 123.13 367.19 122.56 367.93 122.15C368.67 121.73 369.4 121.43 370.12 121.24C370.84 121.05 371.46 120.95 371.97 120.95C372.67 120.95 373.21 120.98 373.6 121.03C373.99 121.09 374.34 121.16 374.64 121.27C374.94 121.37 375.29 121.5 375.67 121.66V114.62H379.61V137.09H375.77H375.78ZM375.68 130.08V125.23C374.98 124.67 373.89 124.39 372.41 124.39C371.65 124.39 371 124.54 370.47 124.85C369.94 125.16 369.49 125.55 369.11 126.05C368.39 126.99 368.03 128.14 368.03 129.49C368.03 130.84 368.37 131.96 369.04 132.86C369.71 133.76 370.69 134.21 371.97 134.21C372.89 134.21 373.62 134 374.16 133.57C374.7 133.14 375.09 132.61 375.32 131.97C375.56 131.33 375.67 130.71 375.67 130.1L375.68 130.08Z" fill="black"/>
<path d="M383.57 118.79V114.61H387.82V118.79H383.57ZM383.7 137.09V121.29H387.68V137.09H383.7Z" fill="black"/>
<path d="M391.68 130.89V121.29H395.66V130.86C395.66 131.85 395.94 132.62 396.49 133.18C397.04 133.74 397.75 134.02 398.63 134.02C399.73 134.02 400.64 133.62 401.36 132.81C402.08 132 402.44 131.01 402.44 129.85V121.29H406.42V137.09H402.61L402.51 135.3C402.11 135.75 401.53 136.22 400.78 136.7C400.03 137.18 399.02 137.42 397.76 137.42C395.8 137.42 394.31 136.83 393.26 135.63C392.22 134.44 391.69 132.86 391.69 130.88L391.68 130.89Z" fill="black"/>
<path d="M410.32 137.09V121.29H414.13L414.23 123.08C414.61 122.61 415.16 122.14 415.88 121.66C416.6 121.18 417.58 120.95 418.81 120.95C420.9 120.95 422.48 121.71 423.56 123.24C424.37 122.41 425.2 121.82 426.05 121.47C426.9 121.12 427.88 120.95 428.98 120.95C430.98 120.95 432.51 121.54 433.58 122.72C434.65 123.9 435.18 125.49 435.18 127.49V137.09H431.2V127.52C431.2 126.53 430.95 125.76 430.44 125.19C429.94 124.63 429.24 124.35 428.37 124.35C427.27 124.35 426.39 124.75 425.73 125.56C425.07 126.37 424.74 127.36 424.74 128.53V137.09H420.76V127.52C420.76 126.53 420.51 125.76 420 125.19C419.49 124.63 418.8 124.35 417.93 124.35C416.83 124.35 415.95 124.75 415.28 125.56C414.61 126.37 414.29 127.36 414.29 128.53V137.09H410.31H410.32Z" fill="black"/>
<path d="M445.46 129.57V125.8H455.74V129.57H445.46Z" fill="black"/>
<path d="M468.54 137.09V133.62H472.18V120.21L468.1 122.37L466.45 119.27L472.68 115.87H476.15V133.63H479.65V137.1H468.53L468.54 137.09Z" fill="black"/>
<path d="M487.64 125.31C486.94 124.91 486.33 124.31 485.79 123.51C485.25 122.71 484.98 121.83 484.98 120.87C484.98 119.75 485.26 118.77 485.82 117.93C486.38 117.09 487.17 116.43 488.18 115.96C489.19 115.49 490.36 115.25 491.68 115.25C493.88 115.25 495.55 115.76 496.68 116.78C497.81 117.8 498.38 119.11 498.38 120.7C498.38 121.73 498.1 122.64 497.54 123.43C496.98 124.22 496.34 124.8 495.62 125.18C496.88 125.72 497.87 126.49 498.58 127.49C499.3 128.49 499.66 129.68 499.66 131.05C499.66 131.77 499.51 132.52 499.22 133.29C498.93 134.07 498.46 134.78 497.82 135.43C497.18 136.08 496.35 136.61 495.34 137.02C494.33 137.42 493.1 137.63 491.67 137.63C490.24 137.63 488.97 137.43 487.96 137.04C486.95 136.65 486.13 136.12 485.5 135.47C484.87 134.82 484.41 134.11 484.12 133.34C483.83 132.58 483.68 131.83 483.68 131.11C483.68 129.74 484.05 128.55 484.77 127.55C485.5 126.55 486.45 125.8 487.62 125.31H487.64ZM491.62 127.18C490.59 127.4 489.68 127.86 488.91 128.54C488.13 129.23 487.75 130.05 487.75 131.02C487.75 131.81 487.95 132.45 488.36 132.94C488.76 133.43 489.27 133.79 489.88 134.02C490.49 134.25 491.09 134.36 491.7 134.36C492.31 134.36 492.91 134.25 493.52 134.02C494.13 133.79 494.63 133.44 495.04 132.94C495.44 132.45 495.65 131.81 495.65 131.02C495.65 130.37 495.46 129.79 495.08 129.27C494.7 128.75 494.2 128.31 493.6 127.94C493 127.57 492.34 127.32 491.65 127.18H491.62ZM491.69 123.91C492.59 123.66 493.31 123.24 493.85 122.63C494.39 122.02 494.66 121.41 494.66 120.78C494.66 120.04 494.38 119.43 493.83 118.94C493.28 118.46 492.57 118.22 491.69 118.22C490.81 118.22 490.16 118.47 489.58 118.96C489.01 119.45 488.72 120.09 488.72 120.88C488.72 121.46 488.99 122.05 489.53 122.65C490.07 123.25 490.79 123.67 491.69 123.91Z" fill="black"/>
<path d="M0.169922 83.09V60.62H5.25992V69.25H14.9999V60.62H20.0899V83.09H14.9999V73.86H5.25992V83.09H0.169922Z" fill="black"/>
<path d="M36.9999 78.3L38.9899 81.37C38.7699 81.53 38.3699 81.79 37.7899 82.14C37.2199 82.5 36.4599 82.84 35.5199 83.15C34.5799 83.46 33.4199 83.62 32.0499 83.62C30.2499 83.62 28.6999 83.26 27.3999 82.54C26.0999 81.82 25.0999 80.82 24.3999 79.54C23.6999 78.26 23.3599 76.79 23.3599 75.13C23.3599 73.65 23.6799 72.27 24.3199 70.99C24.9599 69.71 25.8899 68.68 27.1199 67.91C28.3399 67.14 29.8099 66.75 31.5199 66.75C33.2299 66.75 34.6599 67.14 35.8199 67.91C36.9799 68.68 37.8499 69.75 38.4499 71.11C39.0399 72.47 39.3399 74.04 39.3399 75.81V76.62H28.0899C28.1099 77.45 28.4899 78.19 29.2399 78.84C29.9799 79.49 30.9799 79.82 32.2399 79.82C33.4999 79.82 34.5199 79.63 35.3099 79.26C36.0999 78.89 36.6699 78.57 37.0299 78.3H36.9999ZM28.0699 73.52H34.7399C34.7399 73.07 34.6199 72.62 34.3899 72.16C34.1499 71.7 33.7899 71.31 33.3099 71C32.8299 70.69 32.2099 70.53 31.4699 70.53C30.7299 70.53 30.1099 70.69 29.5999 71C29.0899 71.31 28.7099 71.7 28.4499 72.16C28.1899 72.62 28.0599 73.08 28.0599 73.52H28.0699Z" fill="black"/>
<path d="M51.3801 83.09L51.2501 81.61C50.1301 82.91 48.5301 83.56 46.4701 83.56C45.7301 83.56 44.9501 83.42 44.1301 83.14C43.3101 82.86 42.6101 82.36 42.0201 81.64C41.4401 80.92 41.1401 79.93 41.1401 78.67C41.1401 77.41 41.4601 76.39 42.1001 75.54C42.7401 74.69 43.6101 74.04 44.7101 73.6C45.8101 73.16 47.0501 72.94 48.4201 72.94C48.9801 72.94 49.5501 72.95 50.1201 72.97C50.6901 72.99 51.0701 73.03 51.2501 73.07V72.73C51.2501 71.92 50.9401 71.34 50.3201 70.99C49.7001 70.64 49.0001 70.47 48.2101 70.47C47.1501 70.47 46.2701 70.6 45.5501 70.87C44.8301 71.14 44.2201 71.44 43.7301 71.78L41.7401 68.82C42.3901 68.3 43.2801 67.83 44.4001 67.39C45.5201 66.95 47.0201 66.73 48.8801 66.73C51.2801 66.73 53.0601 67.38 54.2001 68.67C55.3501 69.96 55.9201 71.7 55.9201 73.88V83.08H51.3701L51.3801 83.09ZM51.2501 77.4V76.12C51.1401 76.1 50.9201 76.07 50.6101 76.04C50.3001 76.01 49.9401 75.99 49.5301 75.99C48.1801 75.99 47.2301 76.18 46.6701 76.56C46.1101 76.94 45.8301 77.48 45.8301 78.18C45.8301 79.48 46.6201 80.13 48.1901 80.13C48.9501 80.13 49.6601 79.89 50.3001 79.42C50.9401 78.95 51.2601 78.27 51.2601 77.4H51.2501Z" fill="black"/>
<path d="M70.39 83.09L70.19 81.51C69.7 82.07 69.06 82.55 68.29 82.96C67.52 83.37 66.63 83.57 65.64 83.57C64.36 83.57 63.2 83.24 62.15 82.58C61.11 81.92 60.27 80.97 59.66 79.75C59.04 78.53 58.73 77.08 58.73 75.42C58.73 74 58.98 72.76 59.47 71.7C59.96 70.64 60.62 69.75 61.44 69.05C62.26 68.35 63.15 67.83 64.12 67.48C65.09 67.13 66.04 66.96 66.98 66.96C67.74 66.96 68.34 67.01 68.78 67.11C69.22 67.21 69.65 67.34 70.08 67.5V60.63H74.9V83.1H70.39V83.09ZM70.09 75.95V71.64C69.46 71.26 68.61 71.07 67.53 71.07C66.29 71.07 65.33 71.49 64.65 72.32C63.96 73.15 63.62 74.22 63.62 75.52C63.62 76.67 63.91 77.6 64.48 78.33C65.05 79.06 65.89 79.42 66.99 79.42C68.09 79.42 68.88 79.07 69.37 78.36C69.85 77.65 70.09 76.85 70.09 75.95Z" fill="black"/>
<path d="M78.4697 83.09V60.62H83.3197V83.09H78.4697Z" fill="black"/>
<path d="M86.8599 64.96V60.61H92.0499V64.96H86.8599ZM87.0299 83.09V67.29H91.8799V83.09H87.0299Z" fill="black"/>
<path d="M95.6199 83.09V67.29H100.27L100.4 69.01C100.92 68.38 101.6 67.88 102.46 67.49C103.31 67.11 104.19 66.92 105.09 66.92C106.89 66.92 108.32 67.46 109.4 68.54C110.48 69.62 111.02 71.21 111.02 73.32V83.09H106.17V73.99C106.17 73.11 105.95 72.42 105.51 71.9C105.07 71.38 104.46 71.13 103.67 71.13C102.61 71.13 101.81 71.48 101.26 72.17C100.71 72.87 100.43 73.68 100.43 74.6V83.09H95.6099H95.6199Z" fill="black"/>
<path d="M127.46 78.3L129.45 81.37C129.23 81.53 128.83 81.79 128.25 82.14C127.68 82.5 126.92 82.84 125.98 83.15C125.04 83.46 123.88 83.62 122.51 83.62C120.71 83.62 119.16 83.26 117.86 82.54C116.56 81.82 115.56 80.82 114.86 79.54C114.16 78.26 113.82 76.79 113.82 75.13C113.82 73.65 114.14 72.27 114.78 70.99C115.42 69.71 116.35 68.68 117.58 67.91C118.8 67.14 120.27 66.75 121.98 66.75C123.69 66.75 125.12 67.14 126.28 67.91C127.44 68.68 128.31 69.75 128.91 71.11C129.5 72.47 129.8 74.04 129.8 75.81V76.62H118.55C118.57 77.45 118.95 78.19 119.7 78.84C120.44 79.49 121.44 79.82 122.7 79.82C123.96 79.82 124.98 79.63 125.77 79.26C126.56 78.89 127.13 78.57 127.49 78.3H127.46ZM118.53 73.52H125.2C125.2 73.07 125.08 72.62 124.85 72.16C124.61 71.7 124.25 71.31 123.77 71C123.29 70.69 122.67 70.53 121.93 70.53C121.19 70.53 120.57 70.69 120.06 71C119.55 71.31 119.17 71.7 118.91 72.16C118.65 72.62 118.52 73.08 118.52 73.52H118.53Z" fill="black"/>
<path d="M138.68 83.09L139.72 60.62H144.54L150.4 71.17L156.13 60.62H160.98L162.02 83.09H156.93L156.29 68.4L151.64 77.16H149.01L144.09 68.5L143.52 83.09H138.67H138.68Z" fill="black"/>
<path d="M178.58 78.3L180.57 81.37C180.35 81.53 179.95 81.79 179.37 82.14C178.8 82.5 178.04 82.84 177.1 83.15C176.16 83.46 175 83.62 173.63 83.62C171.83 83.62 170.28 83.26 168.98 82.54C167.68 81.82 166.68 80.82 165.98 79.54C165.28 78.26 164.94 76.79 164.94 75.13C164.94 73.65 165.26 72.27 165.9 70.99C166.54 69.71 167.47 68.68 168.7 67.91C169.92 67.14 171.39 66.75 173.1 66.75C174.81 66.75 176.24 67.14 177.4 67.91C178.56 68.68 179.43 69.75 180.03 71.11C180.62 72.47 180.92 74.04 180.92 75.81V76.62H169.67C169.69 77.45 170.07 78.19 170.82 78.84C171.56 79.49 172.56 79.82 173.82 79.82C175.08 79.82 176.1 79.63 176.89 79.26C177.68 78.89 178.25 78.57 178.61 78.3H178.58ZM169.65 73.52H176.32C176.32 73.07 176.2 72.62 175.97 72.16C175.73 71.7 175.37 71.31 174.89 71C174.41 70.69 173.79 70.53 173.05 70.53C172.31 70.53 171.69 70.69 171.18 71C170.67 71.31 170.29 71.7 170.03 72.16C169.77 72.62 169.64 73.08 169.64 73.52H169.65Z" fill="black"/>
<path d="M194.61 83.09L194.41 81.51C193.92 82.07 193.28 82.55 192.51 82.96C191.74 83.37 190.85 83.57 189.86 83.57C188.58 83.57 187.42 83.24 186.37 82.58C185.33 81.92 184.49 80.97 183.88 79.75C183.26 78.53 182.95 77.08 182.95 75.42C182.95 74 183.2 72.76 183.69 71.7C184.18 70.64 184.84 69.75 185.66 69.05C186.48 68.35 187.37 67.83 188.34 67.48C189.31 67.13 190.26 66.96 191.2 66.96C191.96 66.96 192.56 67.01 193 67.11C193.44 67.21 193.87 67.34 194.3 67.5V60.63H199.12V83.1H194.61V83.09ZM194.31 75.95V71.64C193.68 71.26 192.83 71.07 191.75 71.07C190.51 71.07 189.55 71.49 188.87 72.32C188.18 73.15 187.84 74.22 187.84 75.52C187.84 76.67 188.13 77.6 188.7 78.33C189.27 79.06 190.11 79.42 191.21 79.42C192.31 79.42 193.1 79.07 193.59 78.36C194.07 77.65 194.31 76.85 194.31 75.95Z" fill="black"/>
<path d="M202.67 64.96V60.61H207.86V64.96H202.67ZM202.84 83.09V67.29H207.69V83.09H202.84Z" fill="black"/>
<path d="M211.32 77.09V67.29H216.17V76.39C216.17 77.29 216.39 78 216.83 78.51C217.27 79.03 217.91 79.28 218.77 79.28C219.76 79.28 220.52 78.93 221.06 78.22C221.6 77.51 221.87 76.71 221.87 75.81V67.29H226.69V83.09H222.04L221.91 81.41C221.39 82.02 220.71 82.52 219.87 82.91C219.03 83.3 218.15 83.5 217.22 83.5C215.42 83.5 213.99 82.96 212.92 81.88C211.85 80.8 211.32 79.21 211.32 77.1V77.09Z" fill="black"/>
<path d="M230.29 83.09V67.29H234.94L235.11 69.04C235.6 68.43 236.23 67.93 237 67.52C237.77 67.11 238.66 66.91 239.7 66.91C240.96 66.91 241.96 67.15 242.7 67.62C243.44 68.09 243.99 68.59 244.35 69.1C245 68.4 245.79 67.87 246.73 67.48C247.66 67.1 248.63 66.91 249.64 66.91C251.64 66.91 253.18 67.49 254.26 68.64C255.34 69.8 255.88 71.35 255.88 73.31V83.08H251.03V74.08C251.03 73.16 250.82 72.43 250.41 71.91C249.99 71.38 249.37 71.12 248.54 71.12C247.62 71.12 246.87 71.45 246.3 72.1C245.73 72.75 245.44 73.58 245.44 74.59V83.08H240.76V74.08C240.76 73.16 240.55 72.43 240.14 71.91C239.72 71.38 239.1 71.12 238.27 71.12C237.37 71.12 236.63 71.45 236.05 72.1C235.47 72.75 235.17 73.58 235.17 74.59V83.08H230.32L230.29 83.09Z" fill="black"/>
<path d="M265.84 75.98V71.36H276.52V75.98H265.84Z" fill="black"/>
<path d="M286.97 83.09V60.62H302.33V65.07H292.05V69.45H300.04V73.76H292.05V78.61H303.07V83.09H286.96H286.97Z" fill="black"/>
<path d="M305.83 83.09V71.09H303.27V67.28H305.83V66.74C305.83 65.05 306.15 63.72 306.79 62.75C307.43 61.77 308.23 61.07 309.2 60.64C310.17 60.21 311.15 60 312.16 60C312.86 60 313.57 60.11 314.3 60.32C315.03 60.53 315.72 60.9 316.37 61.42L314.58 64.59C313.95 64.14 313.31 63.92 312.66 63.92C312.12 63.92 311.65 64.11 311.24 64.48C310.83 64.85 310.63 65.46 310.63 66.32V67.3H316.29V66.49C316.29 65.01 316.59 63.79 317.2 62.83C317.81 61.87 318.6 61.17 319.59 60.71C320.58 60.25 321.63 60.02 322.76 60.02C323.61 60.02 324.48 60.14 325.35 60.39C326.23 60.64 327.02 61.06 327.74 61.67L325.68 64.74C325.34 64.49 324.97 64.3 324.57 64.17C324.17 64.04 323.75 63.97 323.32 63.97C322.67 63.97 322.13 64.2 321.72 64.64C321.3 65.09 321.1 65.68 321.1 66.43V67.31H324.84V71.12H321.1V83.12H316.28V71.12H310.62V83.12H305.8L305.83 83.09Z" fill="black"/>
<path d="M327.06 83.09V67.29H331.71L331.88 69.28C332.28 68.74 332.84 68.22 333.55 67.73C334.26 67.24 335.17 66.99 336.3 66.99C336.73 66.99 337.09 67.01 337.39 67.06C337.69 67.11 337.99 67.18 338.28 67.3L337.51 71.58C337.02 71.42 336.43 71.34 335.76 71.34C334.61 71.34 333.69 71.68 332.98 72.37C332.27 73.06 331.92 74.03 331.92 75.28V83.1H327.07L327.06 83.09Z" fill="black"/>
<path d="M349.27 83.09L349.14 81.61C348.02 82.91 346.42 83.56 344.36 83.56C343.62 83.56 342.84 83.42 342.02 83.14C341.2 82.86 340.5 82.36 339.91 81.64C339.33 80.92 339.03 79.93 339.03 78.67C339.03 77.41 339.35 76.39 339.99 75.54C340.63 74.69 341.5 74.04 342.6 73.6C343.7 73.16 344.94 72.94 346.31 72.94C346.87 72.94 347.44 72.95 348.01 72.97C348.58 72.99 348.96 73.03 349.14 73.07V72.73C349.14 71.92 348.83 71.34 348.21 70.99C347.59 70.64 346.89 70.47 346.1 70.47C345.04 70.47 344.16 70.6 343.44 70.87C342.72 71.14 342.11 71.44 341.62 71.78L339.63 68.82C340.28 68.3 341.17 67.83 342.29 67.39C343.41 66.95 344.91 66.73 346.77 66.73C349.17 66.73 350.95 67.38 352.09 68.67C353.24 69.96 353.81 71.7 353.81 73.88V83.08H349.26L349.27 83.09ZM349.14 77.4V76.12C349.03 76.1 348.81 76.07 348.5 76.04C348.19 76.01 347.83 75.99 347.42 75.99C346.07 75.99 345.12 76.18 344.56 76.56C344 76.94 343.72 77.48 343.72 78.18C343.72 79.48 344.51 80.13 346.08 80.13C346.84 80.13 347.55 79.89 348.19 79.42C348.83 78.95 349.15 78.27 349.15 77.4H349.14Z" fill="black"/>
<path d="M363.82 83.09V60.62H372.24C374.1 60.62 375.59 60.9 376.7 61.45C377.81 62 378.62 62.72 379.11 63.61C379.6 64.5 379.85 65.46 379.85 66.49C379.85 67.43 379.64 68.24 379.23 68.92C378.81 69.59 378.34 70.12 377.81 70.49C377.28 70.86 376.84 71.09 376.48 71.18C376.66 71.23 376.87 71.29 377.1 71.38C377.34 71.47 377.58 71.57 377.82 71.68C378.74 72.08 379.5 72.71 380.11 73.57C380.72 74.43 381.02 75.46 381.02 76.67C381.02 78.98 380.23 80.63 378.64 81.62C377.06 82.61 374.92 83.1 372.22 83.1H363.8L363.82 83.09ZM368.77 69.61H371.77C372.53 69.61 373.24 69.42 373.88 69.05C374.52 68.68 374.84 68.02 374.84 67.08C374.84 66.41 374.69 65.89 374.38 65.53C374.08 65.17 373.69 64.92 373.22 64.77C372.75 64.62 372.26 64.55 371.77 64.55H368.77V69.6V69.61ZM368.77 79.18H372.07C372.56 79.18 373.11 79.12 373.7 78.99C374.29 78.87 374.81 78.6 375.23 78.18C375.66 77.76 375.87 77.12 375.87 76.24C375.87 75.43 375.66 74.81 375.25 74.39C374.84 73.97 374.33 73.68 373.73 73.53C373.13 73.38 372.58 73.31 372.06 73.31H368.76V79.17L368.77 79.18Z" fill="black"/>
<path d="M383.06 75.17C383.06 73.62 383.42 72.2 384.14 70.92C384.86 69.64 385.85 68.62 387.12 67.87C388.39 67.12 389.87 66.74 391.55 66.74C393.23 66.74 394.71 67.12 395.98 67.87C397.25 68.62 398.24 69.64 398.94 70.92C399.64 72.2 400 73.62 400 75.17C400 76.72 399.65 78.13 398.94 79.42C398.23 80.7 397.24 81.72 395.98 82.49C394.71 83.25 393.23 83.64 391.55 83.64C389.87 83.64 388.39 83.26 387.12 82.49C385.85 81.73 384.86 80.7 384.14 79.42C383.42 78.14 383.06 76.72 383.06 75.17ZM391.55 79.42C392.38 79.42 393.07 79.22 393.62 78.81C394.17 78.41 394.59 77.88 394.88 77.23C395.17 76.58 395.32 75.89 395.32 75.17C395.32 74.45 395.17 73.77 394.88 73.13C394.59 72.49 394.17 71.97 393.62 71.56C393.07 71.16 392.38 70.95 391.55 70.95C390.72 70.95 390.05 71.15 389.48 71.56C388.91 71.96 388.47 72.49 388.18 73.13C387.89 73.77 387.74 74.45 387.74 75.17C387.74 75.89 387.89 76.57 388.18 77.23C388.47 77.88 388.9 78.41 389.48 78.81C390.05 79.21 390.74 79.42 391.55 79.42Z" fill="black"/>
<path d="M402.87 83.09V60.62H407.72V83.09H402.87Z" fill="black"/>
<path d="M422.25 83.09L422.05 81.51C421.56 82.07 420.92 82.55 420.15 82.96C419.37 83.36 418.49 83.57 417.5 83.57C416.22 83.57 415.06 83.24 414.01 82.58C412.97 81.92 412.13 80.97 411.52 79.75C410.9 78.53 410.59 77.08 410.59 75.42C410.59 74 410.84 72.76 411.33 71.7C411.82 70.64 412.48 69.75 413.3 69.05C414.12 68.35 415.01 67.83 415.98 67.48C416.95 67.13 417.9 66.96 418.84 66.96C419.6 66.96 420.21 67.01 420.64 67.11C421.08 67.21 421.51 67.34 421.94 67.5V60.63H426.76V83.1H422.25V83.09ZM421.95 75.95V71.64C421.32 71.26 420.47 71.07 419.39 71.07C418.15 71.07 417.19 71.49 416.51 72.32C415.82 73.15 415.48 74.22 415.48 75.52C415.48 76.67 415.77 77.6 416.34 78.33C416.91 79.06 417.75 79.42 418.85 79.42C419.95 79.42 420.74 79.07 421.23 78.36C421.71 77.65 421.95 76.85 421.95 75.95Z" fill="black"/>
<path d="M436.8 75.98V71.36H447.48V75.98H436.8Z" fill="black"/>
<path d="M457.39 83.09V80.23C457.39 79.11 457.61 78.1 458.06 77.2C458.51 76.3 459.09 75.48 459.81 74.74C460.53 74 461.29 73.32 462.08 72.7C462.88 72.08 463.63 71.5 464.35 70.95C465.07 70.4 465.65 69.86 466.1 69.33C466.55 68.8 466.77 68.26 466.77 67.7C466.77 67.14 466.56 66.66 466.13 66.18C465.7 65.7 465 65.47 464.01 65.47C463.36 65.47 462.79 65.6 462.31 65.86C461.83 66.12 461.42 66.43 461.1 66.8C460.77 67.17 460.51 67.51 460.31 67.83L456.77 65.37C457.17 64.7 457.72 64.05 458.4 63.42C459.08 62.79 459.94 62.27 460.96 61.87C461.98 61.47 463.18 61.26 464.55 61.26C466.17 61.26 467.5 61.55 468.56 62.14C469.62 62.72 470.41 63.48 470.94 64.4C471.47 65.32 471.73 66.29 471.73 67.3C471.73 68.31 471.52 69.22 471.11 70.03C470.7 70.84 470.15 71.58 469.49 72.25C468.83 72.92 468.13 73.55 467.38 74.12C466.63 74.69 465.93 75.23 465.26 75.74C464.59 76.25 464.04 76.75 463.63 77.24C463.21 77.73 463 78.25 462.97 78.79H471.83V83.1H457.38L457.39 83.09Z" fill="black"/>
<path d="M475.08 79.21V75.47L484.24 61.86H489.06V75.4H491.22V79.21H489.06V83.09H484.55V79.21H475.08ZM479.43 75.4H484.55V67.55L479.43 75.4Z" fill="black"/>
<path d="M0.540039 191.05V168.58H8.15004C9.70004 168.58 10.98 168.84 11.99 169.35C13 169.87 13.75 170.56 14.25 171.42C14.75 172.28 14.99 173.25 14.99 174.3C14.99 175.24 14.79 176.06 14.38 176.76C13.98 177.46 13.49 178.01 12.91 178.41C12.33 178.81 11.8 179.06 11.31 179.15C11.76 179.22 12.26 179.36 12.83 179.59C13.39 179.82 13.93 180.13 14.43 180.55C14.94 180.97 15.35 181.52 15.68 182.2C16.01 182.89 16.17 183.73 16.17 184.74C16.17 186.34 15.79 187.59 15.04 188.51C14.29 189.43 13.28 190.08 12.01 190.46C10.74 190.84 9.32004 191.03 7.75004 191.03H0.540039V191.05ZM3.67004 177.94H7.68004C8.35004 177.94 9.01004 177.83 9.65004 177.6C10.29 177.38 10.82 177.02 11.23 176.52C11.65 176.03 11.85 175.37 11.85 174.57C11.85 173.67 11.64 172.99 11.23 172.53C10.81 172.07 10.29 171.76 9.65004 171.6C9.01004 171.44 8.35004 171.36 7.68004 171.36H3.67004V177.93V177.94ZM3.67004 188.25H7.58004C8.16004 188.25 8.76004 188.22 9.38004 188.15C10 188.08 10.58 187.93 11.12 187.68C11.66 187.43 12.1 187.06 12.43 186.57C12.77 186.08 12.94 185.41 12.94 184.58C12.94 183.5 12.66 182.69 12.11 182.14C11.56 181.59 10.89 181.21 10.11 181.01C9.32004 180.81 8.55004 180.71 7.78004 180.71H3.67004V188.26V188.25Z" fill="black"/>
<path d="M27.4902 191.52C25.8902 191.52 24.4702 191.14 23.2102 190.39C21.9502 189.64 20.9702 188.63 20.2602 187.36C19.5502 186.09 19.2002 184.7 19.2002 183.2C19.2002 181.7 19.5502 180.28 20.2602 179.02C20.9702 177.76 21.9502 176.76 23.2102 176C24.4702 175.25 25.8902 174.87 27.4902 174.87C29.0902 174.87 30.5102 175.25 31.7502 176C33.0002 176.75 33.9802 177.76 34.7002 179.02C35.4202 180.28 35.7802 181.67 35.7802 183.2C35.7802 184.73 35.4202 186.09 34.7002 187.36C33.9802 188.63 33.0002 189.64 31.7502 190.39C30.5002 191.14 29.0802 191.52 27.4902 191.52ZM27.4902 188.89C28.5902 188.89 29.5302 188.62 30.3002 188.06C31.0702 187.51 31.6702 186.8 32.0902 185.92C32.5102 185.04 32.7102 184.13 32.7102 183.19C32.7102 182.25 32.5002 181.34 32.0902 180.46C31.6702 179.58 31.0702 178.87 30.2902 178.32C29.5002 177.77 28.5702 177.49 27.4902 177.49C26.4102 177.49 25.4802 177.77 24.6902 178.32C23.9002 178.87 23.3002 179.58 22.8902 180.44C22.4702 181.3 22.2702 182.22 22.2702 183.19C22.2702 184.16 22.4802 185.04 22.9102 185.9C23.3402 186.76 23.9402 187.48 24.7102 188.04C25.4902 188.6 26.4102 188.88 27.4902 188.88V188.89Z" fill="black"/>
<path d="M50.6102 191.05L50.5102 189.06C50.3502 189.24 50.0702 189.53 49.6502 189.94C49.2302 190.35 48.6802 190.71 47.9802 191.03C47.2802 191.36 46.4302 191.52 45.4202 191.52C44.0902 191.52 42.9002 191.19 41.8502 190.53C40.7902 189.87 39.9602 188.93 39.3602 187.72C38.7502 186.51 38.4502 185.08 38.4502 183.44C38.4502 181.96 38.7002 180.68 39.2102 179.62C39.7202 178.56 40.3702 177.68 41.1802 177.01C41.9902 176.34 42.8602 175.84 43.7902 175.51C44.7202 175.18 45.6002 175.02 46.4402 175.02C47.2802 175.02 48.0302 175.11 48.6502 175.29C49.2702 175.47 49.8902 175.72 50.5202 176.03V168.58H53.5502V190.09C53.5502 190.42 53.5602 190.74 53.5802 191.05H50.6202H50.6102ZM50.5102 184.45V178.86C50.1102 178.52 49.5902 178.24 48.9602 178.02C48.3302 177.8 47.5702 177.68 46.6702 177.68C45.2102 177.68 43.9902 178.2 43.0102 179.23C42.0302 180.26 41.5402 181.68 41.5402 183.48C41.5402 184.47 41.7002 185.38 42.0302 186.21C42.3602 187.04 42.8602 187.7 43.5302 188.18C44.2002 188.66 45.0602 188.9 46.0902 188.9C47.1202 188.9 47.9902 188.66 48.6302 188.18C49.2702 187.7 49.7402 187.11 50.0502 186.41C50.3502 185.71 50.5102 185.06 50.5102 184.46V184.45Z" fill="black"/>
<path d="M56.44 197.02L57.82 194.9C58.04 195.1 58.3 195.28 58.59 195.44C58.88 195.6 59.24 195.68 59.67 195.68C60.39 195.68 60.93 195.36 61.29 194.72C61.65 194.08 62.08 193.15 62.57 191.94L62.97 190.93L55.96 175.4H59.43L64.48 187.23L68.93 175.4H72.23L65.96 190.66C65.67 191.36 65.36 192.14 65.05 193C64.74 193.86 64.36 194.7 63.94 195.49C63.52 196.28 62.97 196.94 62.31 197.44C61.65 197.94 60.82 198.2 59.83 198.2C59.04 198.2 58.38 198.09 57.84 197.88C57.3 197.67 56.83 197.38 56.42 197.02H56.44Z" fill="black"/>
<path d="M87.5402 191.05V171.41H79.4902V168.58H98.8002V171.41H90.7802V191.05H87.5502H87.5402Z" fill="black"/>
<path d="M108.69 186.94L110.41 188.76C110.19 189.03 109.78 189.38 109.2 189.82C108.62 190.26 107.86 190.65 106.93 191C106 191.35 104.87 191.52 103.54 191.52C101.92 191.52 100.5 191.17 99.2601 190.46C98.0201 189.75 97.0601 188.76 96.3801 187.5C95.6901 186.23 95.3501 184.77 95.3501 183.1C95.3501 181.57 95.6801 180.19 96.3401 178.96C97.0001 177.73 97.9201 176.74 99.1001 176.01C100.28 175.28 101.63 174.92 103.16 174.92C104.98 174.92 106.45 175.36 107.57 176.23C108.69 177.11 109.51 178.24 110.03 179.63C110.55 181.02 110.8 182.52 110.8 184.11H98.4301C98.4501 185.03 98.7001 185.86 99.1701 186.59C99.6401 187.32 100.26 187.89 101.04 188.31C101.81 188.73 102.65 188.93 103.55 188.93C104.88 188.93 105.97 188.71 106.84 188.26C107.71 187.81 108.32 187.37 108.68 186.95L108.69 186.94ZM98.4501 181.85H107.68C107.59 180.64 107.16 179.6 106.4 178.75C105.64 177.9 104.56 177.47 103.17 177.47C102.2 177.47 101.37 177.68 100.68 178.11C99.9801 178.54 99.4501 179.08 99.0801 179.74C98.7101 180.4 98.5001 181.1 98.4601 181.85H98.4501Z" fill="black"/>
<path d="M112.03 191.05L118.09 182.96L112.46 175.38H116.23L120 180.57L123.71 175.38H127.08L121.62 182.73L127.85 191.05H124.04L119.69 185.12L115.41 191.05H112.01H112.03Z" fill="black"/>
<path d="M131.61 185.93V177.91H128.78V175.38H131.61V170.26H134.64V175.38H139.22V177.91H134.64V185.63C134.64 186.89 134.84 187.75 135.23 188.22C135.62 188.69 136.18 188.93 136.9 188.93C137.48 188.93 137.97 188.84 138.37 188.66C138.76 188.48 139.14 188.21 139.5 187.85L140.88 189.7C140.23 190.33 139.56 190.78 138.88 191.06C138.19 191.34 137.38 191.48 136.44 191.48C134.8 191.48 133.59 191.02 132.8 190.12C132.01 189.21 131.62 187.81 131.62 185.93H131.61Z" fill="black"/>
<path d="M149.67 183.07V180.17H159.54V183.07H149.67Z" fill="black"/>
<path d="M170.66 191.05V168.58H184.81V171.44H173.89V177.98H182.11V180.88H173.89V188.16H185.62V191.06H170.66V191.05Z" fill="black"/>
<path d="M189.22 191.05V177.91H186.36V175.38H189.22V174.3C189.22 172.73 189.5 171.48 190.06 170.56C190.62 169.64 191.31 168.98 192.13 168.59C192.95 168.2 193.76 168 194.57 168C195.38 168 196.16 168.13 196.91 168.4C197.66 168.67 198.35 169.11 198.98 169.71L197.5 171.66C196.69 170.96 195.85 170.62 194.97 170.62C194.09 170.62 193.48 170.9 192.98 171.45C192.49 172 192.24 172.92 192.24 174.2V175.38H199.55V174.2C199.55 172.76 199.81 171.59 200.32 170.68C200.84 169.77 201.5 169.1 202.32 168.66C203.14 168.22 204.02 168 204.97 168C205.8 168 206.62 168.13 207.43 168.39C208.24 168.65 208.97 169.09 209.62 169.72L208.1 171.67C207.27 170.97 206.38 170.63 205.44 170.63C204.56 170.63 203.87 170.93 203.35 171.52C202.83 172.11 202.58 173.04 202.58 174.3V175.38H207.03V177.91H202.58V191.05H199.55V177.91H192.24V191.05H189.21H189.22Z" fill="black"/>
<path d="M212.5 191.05H209.47V176.36C209.47 176.16 209.46 175.83 209.44 175.38H212.34L212.44 177.91C212.69 177.55 213.03 177.16 213.47 176.73C213.91 176.3 214.46 175.93 215.14 175.62C215.81 175.31 216.62 175.15 217.57 175.15C217.91 175.15 218.22 175.17 218.5 175.22C218.78 175.26 219.04 175.33 219.29 175.42L218.62 178.25C218.22 178.09 217.7 178.01 217.07 178.01C216.22 178.01 215.45 178.23 214.76 178.67C214.07 179.11 213.53 179.69 213.13 180.4C212.73 181.12 212.52 181.92 212.52 182.79V191.04L212.5 191.05Z" fill="black"/>
<path d="M231.1 191.05L231.03 189.16C230.47 189.92 229.7 190.5 228.72 190.89C227.74 191.28 226.76 191.48 225.77 191.48C224.92 191.48 224.07 191.32 223.23 191.01C222.39 190.7 221.69 190.18 221.14 189.46C220.59 188.74 220.31 187.79 220.31 186.6C220.31 184.92 220.91 183.57 222.1 182.56C223.29 181.55 224.99 181.04 227.19 181.04C227.68 181.04 228.19 181.06 228.72 181.09C229.25 181.12 229.72 181.16 230.15 181.19C230.58 181.22 230.86 181.25 230.99 181.27V180.7C230.99 179.53 230.64 178.7 229.93 178.19C229.22 177.68 228.26 177.43 227.05 177.43C225.84 177.43 224.94 177.59 224.24 177.92C223.54 178.25 222.94 178.58 222.47 178.91L221.05 176.85C221.61 176.4 222.39 175.96 223.38 175.54C224.37 175.11 225.7 174.9 227.39 174.9C229.39 174.9 230.97 175.39 232.14 176.37C233.31 177.35 233.89 178.73 233.89 180.53V190.23C233.89 190.45 233.9 190.72 233.92 191.04H231.09L231.1 191.05ZM231 185.42V183.63C230.89 183.59 230.63 183.55 230.23 183.51C229.83 183.47 229.37 183.44 228.87 183.41C228.37 183.38 227.88 183.36 227.4 183.36C226.28 183.36 225.42 183.52 224.82 183.85C224.22 184.18 223.82 184.58 223.61 185.06C223.4 185.54 223.29 186.02 223.29 186.49C223.29 187.32 223.58 187.96 224.17 188.41C224.75 188.86 225.56 189.08 226.6 189.08C227.39 189.08 228.11 188.91 228.77 188.56C229.43 188.21 229.97 187.76 230.39 187.2C230.81 186.64 231.01 186.04 231.01 185.41L231 185.42Z" fill="black"/>
<path d="M244.61 191.05V168.58H251.79C253.7 168.58 255.23 168.91 256.37 169.56C257.52 170.21 258.34 171.04 258.85 172.05C259.36 173.06 259.61 174.11 259.61 175.18C259.61 176.62 259.27 177.89 258.6 178.99C257.93 180.09 256.88 180.91 255.47 181.45L260.73 191.05H257.09L252.27 181.85H247.76V191.05H244.63H244.61ZM247.74 179.12H252.05C253.44 179.12 254.5 178.77 255.22 178.08C255.94 177.38 256.3 176.45 256.3 175.28C256.3 174.04 255.92 173.08 255.15 172.4C254.39 171.71 253.33 171.37 251.98 171.37H247.73V179.12H247.74Z" fill="black"/>
<path d="M275.31 186.94L277.03 188.76C276.81 189.03 276.4 189.38 275.82 189.82C275.24 190.26 274.48 190.65 273.55 191C272.62 191.35 271.49 191.52 270.16 191.52C268.54 191.52 267.12 191.17 265.88 190.46C264.64 189.75 263.68 188.76 263 187.5C262.31 186.23 261.97 184.77 261.97 183.1C261.97 181.57 262.3 180.19 262.96 178.96C263.62 177.73 264.54 176.74 265.72 176.01C266.9 175.28 268.25 174.92 269.78 174.92C271.6 174.92 273.07 175.36 274.19 176.23C275.31 177.11 276.13 178.24 276.65 179.63C277.17 181.02 277.42 182.52 277.42 184.11H265.05C265.07 185.03 265.32 185.86 265.79 186.59C266.26 187.32 266.88 187.89 267.66 188.31C268.43 188.73 269.27 188.93 270.17 188.93C271.5 188.93 272.59 188.71 273.46 188.26C274.33 187.81 274.94 187.37 275.3 186.95L275.31 186.94ZM265.07 181.85H274.3C274.21 180.64 273.78 179.6 273.02 178.75C272.26 177.9 271.18 177.47 269.79 177.47C268.82 177.47 267.99 177.68 267.3 178.11C266.6 178.54 266.07 179.08 265.7 179.74C265.33 180.4 265.12 181.1 265.08 181.85H265.07Z" fill="black"/>
<path d="M281.48 196.48L282.9 194.26C283.42 194.62 284.05 194.93 284.8 195.19C285.55 195.45 286.47 195.58 287.55 195.58C289.05 195.58 290.18 195.16 290.92 194.33C291.66 193.5 292.03 192.41 292.03 191.06V189.14C291.83 189.32 291.52 189.57 291.12 189.9C290.72 190.23 290.19 190.52 289.55 190.79C288.91 191.06 288.12 191.19 287.17 191.19C285.64 191.19 284.35 190.85 283.28 190.18C282.21 189.51 281.4 188.58 280.85 187.4C280.3 186.22 280.02 184.89 280.02 183.41C280.02 181.79 280.39 180.35 281.13 179.08C281.87 177.81 282.9 176.82 284.23 176.1C285.56 175.38 287.09 175.02 288.85 175.02C290.11 175.02 291.29 175.13 292.4 175.36C293.51 175.58 294.4 175.83 295.08 176.1V191.06C295.08 193.31 294.42 195.06 293.09 196.32C291.76 197.58 289.92 198.21 287.56 198.21C285.96 198.21 284.7 198.03 283.75 197.67C282.81 197.31 282.04 196.92 281.46 196.49L281.48 196.48ZM292.06 184.65V178.15C291.86 178.08 291.52 177.99 291.03 177.86C290.55 177.74 289.82 177.67 288.86 177.67C287.71 177.67 286.71 177.91 285.86 178.39C285.01 178.87 284.34 179.54 283.86 180.39C283.38 181.24 283.14 182.23 283.14 183.36C283.14 184.3 283.29 185.17 283.59 185.95C283.89 186.74 284.38 187.37 285.06 187.84C285.73 188.31 286.6 188.55 287.65 188.55C288.7 188.55 289.49 188.36 290.14 187.98C290.79 187.6 291.27 187.11 291.59 186.51C291.9 185.91 292.06 185.29 292.06 184.64V184.65Z" fill="black"/>
<path d="M299.13 184.79V175.39H302.16V184.59C302.16 186.05 302.46 187.12 303.07 187.79C303.68 188.46 304.55 188.8 305.7 188.8C306.85 188.8 307.78 188.5 308.43 187.89C309.08 187.28 309.55 186.51 309.83 185.58C310.11 184.65 310.25 183.68 310.25 182.67V175.39H313.28V190.1C313.28 190.43 313.29 190.75 313.31 191.06H310.41L310.31 188.74C310.06 189.1 309.71 189.49 309.27 189.9C308.82 190.32 308.25 190.67 307.57 190.96C306.88 191.25 306.06 191.4 305.09 191.4C303.05 191.4 301.54 190.81 300.57 189.61C299.6 188.42 299.12 186.81 299.12 184.79H299.13Z" fill="black"/>
<path d="M317.46 191.05V168.58H320.49V191.05H317.46Z" fill="black"/>
<path d="M334.51 191.05L334.44 189.16C333.88 189.92 333.11 190.5 332.13 190.89C331.15 191.28 330.17 191.48 329.18 191.48C328.33 191.48 327.48 191.32 326.64 191.01C325.8 190.7 325.1 190.18 324.55 189.46C324 188.74 323.72 187.79 323.72 186.6C323.72 184.92 324.32 183.57 325.51 182.56C326.7 181.55 328.4 181.04 330.6 181.04C331.09 181.04 331.6 181.06 332.13 181.09C332.66 181.12 333.13 181.16 333.56 181.19C333.99 181.22 334.27 181.25 334.4 181.27V180.7C334.4 179.53 334.05 178.7 333.34 178.19C332.63 177.68 331.67 177.43 330.46 177.43C329.25 177.43 328.35 177.59 327.65 177.92C326.95 178.25 326.35 178.58 325.88 178.91L324.46 176.85C325.02 176.4 325.8 175.96 326.79 175.54C327.78 175.11 329.11 174.9 330.8 174.9C332.8 174.9 334.38 175.39 335.55 176.37C336.72 177.35 337.3 178.73 337.3 180.53V190.23C337.3 190.45 337.31 190.72 337.33 191.04H334.5L334.51 191.05ZM334.41 185.42V183.63C334.3 183.59 334.04 183.55 333.64 183.51C333.24 183.47 332.78 183.44 332.28 183.41C331.78 183.38 331.29 183.36 330.81 183.36C329.69 183.36 328.83 183.52 328.23 183.85C327.63 184.18 327.23 184.58 327.02 185.06C326.81 185.54 326.7 186.02 326.7 186.49C326.7 187.32 326.99 187.96 327.58 188.41C328.16 188.86 328.97 189.08 330.01 189.08C330.8 189.08 331.52 188.91 332.18 188.56C332.84 188.21 333.38 187.76 333.8 187.2C334.22 186.64 334.42 186.04 334.42 185.41L334.41 185.42Z" fill="black"/>
<path d="M344.48 191.05H341.45V176.36C341.45 176.16 341.44 175.83 341.42 175.38H344.32L344.42 177.91C344.67 177.55 345.01 177.16 345.45 176.73C345.89 176.3 346.44 175.93 347.12 175.62C347.79 175.31 348.6 175.15 349.55 175.15C349.89 175.15 350.2 175.17 350.48 175.22C350.76 175.26 351.02 175.33 351.27 175.42L350.6 178.25C350.2 178.09 349.68 178.01 349.05 178.01C348.2 178.01 347.43 178.23 346.74 178.67C346.05 179.11 345.51 179.69 345.11 180.4C344.71 181.12 344.5 181.92 344.5 182.79V191.04L344.48 191.05Z" fill="black"/>
<path d="M360.18 183.07V180.17H370.05V183.07H360.18Z" fill="black"/>
<path d="M383.36 191.05V188.35H387.13V173.09L382.75 175.45L381.5 173.06L387.46 169.79H390.19V188.36H393.9V191.06H383.35L383.36 191.05Z" fill="black"/>
<path d="M398.63 186.64V184.05L408.27 169.8H411.34V184.02H413.63V186.65H411.34V191.06H408.41V186.65H398.64L398.63 186.64ZM401.63 184.01H408.4V173.87L401.63 184.01Z" fill="black"/>
</svg>
