<?xml version="1.0" encoding="UTF-8"?><svg id="Layer_1" xmlns="http://www.w3.org/2000/svg" viewBox="0 0 555.23 106.54"><defs><style>.cls-1{fill:#fff;}.cls-2{fill:#e73225;}.cls-3{fill:#231f20;}.cls-4{fill:none;stroke:#231f20;stroke-width:.25px;}</style></defs><g><g><path class="cls-3" d="m86.98.82h1.91c1.08,0,1.73.71,1.73,1.64,0,.99-.78,1.68-1.73,1.68h-1.18v2.28h-.73V.82Zm.73.64v2.06h1.03c.75,0,1.13-.49,1.13-1.05s-.41-1.01-1.13-1.01h-1.03Z"/><path class="cls-3" d="m94.31,6.42v-.74c-.43.61-.92.86-1.51.86-1.1,0-1.53-.86-1.53-1.95,0-1.16.58-2.19,2.18-2.19.31,0,.83.08,1.53.29v3.72h-.69Zm0-1.63v-1.62c-.37-.13-.68-.16-.91-.16-.97,0-1.42.55-1.42,1.53s.36,1.39.95,1.39c.51,0,.98-.41,1.37-1.15Z"/><path class="cls-3" d="m96.13,2.53l.69-.07v.69c.46-.43.99-.74,1.62-.74.85,0,1.24.39,1.24,1.32v2.7h-.69v-2.61c0-.59-.26-.79-.77-.79-.47,0-.96.34-1.4.74v2.66h-.69v-3.89Z"/><path class="cls-3" d="m100.39,2.53h.66v-1.18h.69v1.18h1.33l-.06.6h-1.27v2.11c0,.55.32.71.7.71.18,0,.43-.04.61-.1l-.04.6c-.25.07-.53.1-.79.1-.65,0-1.16-.29-1.16-1.21v-2.21h-.66v-.6Z"/><path class="cls-3" d="m105.58,2.41c1.37,0,1.98.83,1.98,2.06s-.61,2.07-1.99,2.07-1.99-.84-1.99-2.07.62-2.06,2-2.06Zm0,3.53c.81,0,1.28-.48,1.28-1.47s-.5-1.45-1.28-1.45c-.89,0-1.28.46-1.28,1.44,0,.91.33,1.48,1.28,1.48Z"/><path class="cls-3" d="m108.47,2.53l.69-.07v.69c.46-.43.99-.74,1.62-.74.85,0,1.24.39,1.24,1.32v2.7h-.69v-2.61c0-.59-.26-.79-.77-.79-.47,0-.96.34-1.4.74v2.66h-.69v-3.89Z"/><path class="cls-3" d="m113.59,4.74c.08.91.64,1.2,1.39,1.2.41,0,.86-.06,1.3-.19l-.06.6c-.2.08-.67.2-1.26.2-1.37,0-2.07-.67-2.07-1.97s.69-2.16,1.94-2.16c1.02,0,1.64.48,1.64,1.54,0,.22-.03.54-.07.79h-2.8Zm0-.57h2.13c.02-.08.03-.15.03-.24,0-.74-.51-.95-.97-.95-.63,0-1.09.38-1.18,1.18Z"/><path class="cls-3" d="m119.46.82h1.78c1.22,0,1.86.6,1.86,1.47,0,.6-.32,1.08-.94,1.3.62.22.94.69.94,1.32,0,.86-.64,1.51-1.86,1.51h-1.79V.82Zm.73.63v1.88h1.07c.74,0,1.09-.43,1.09-.94,0-.54-.37-.95-1.09-.95h-1.07Zm0,2.46v1.88h1.07c.74,0,1.09-.43,1.09-.94,0-.55-.36-.95-1.09-.95h-1.07Z"/><path class="cls-3" d="m124.24,2.53l.69-.07v.78c.36-.47.76-.83,1.37-.83.08,0,.15,0,.22.01v.68c-.15-.03-.28-.03-.4-.03-.44,0-.81.34-1.19.76v2.59h-.69v-3.89Z"/><path class="cls-3" d="m127.57,4.74c.08.91.64,1.2,1.39,1.2.41,0,.86-.06,1.3-.19l-.06.6c-.2.08-.67.2-1.26.2-1.37,0-2.07-.67-2.07-1.97s.69-2.16,1.94-2.16c1.02,0,1.64.48,1.64,1.54,0,.22-.03.54-.07.79h-2.8Zm0-.57h2.13c.02-.08.03-.15.03-.24,0-.74-.51-.95-.97-.95-.63,0-1.08.38-1.18,1.18Z"/><path class="cls-3" d="m134.15,6.42v-.74c-.43.61-.92.86-1.51.86-1.1,0-1.53-.86-1.53-1.95,0-1.16.58-2.19,2.19-2.19.31,0,.83.08,1.53.29v3.72h-.69Zm0-1.63v-1.62c-.37-.13-.68-.16-.91-.16-.97,0-1.41.55-1.41,1.53s.36,1.39.95,1.39c.51,0,.98-.41,1.37-1.15Z"/><path class="cls-3" d="m135.98.6h.69v5.83h-.69V.6Zm2.74,1.93h.85l-1.94,1.84,1.94,2.05h-.88l-1.87-2.02,1.91-1.88Z"/><path class="cls-3" d="m142.91,5.67c-.38.57-.89.87-1.48.87-1.06,0-1.56-.81-1.56-1.87,0-1.2.53-2.26,2.15-2.26.28,0,.59.04.89.12V.6h.69v5.83h-.69v-.75Zm0-.92v-1.57c-.3-.1-.6-.16-.94-.16-1.01,0-1.39.6-1.39,1.6,0,1.11.55,1.32.97,1.32.57,0,1.05-.55,1.36-1.2Z"/><path class="cls-3" d="m146.5,2.41c1.37,0,1.98.83,1.98,2.06s-.61,2.07-1.99,2.07-1.99-.84-1.99-2.07.62-2.06,2-2.06Zm0,3.53c.81,0,1.28-.48,1.28-1.47s-.5-1.45-1.28-1.45c-.89,0-1.28.46-1.28,1.44,0,.91.33,1.48,1.28,1.48Z"/><path class="cls-3" d="m150.58,5.8h.02l1.22-3.27h.73l1.16,3.25h.01l.83-3.25h.72l-1.09,3.89h-.92l-1.1-3.12h-.02l-1.18,3.12h-.9l-1.04-3.89h.74l.81,3.27Z"/><path class="cls-3" d="m156.02,2.53l.69-.07v.69c.46-.43.99-.74,1.62-.74.85,0,1.24.39,1.24,1.32v2.7h-.69v-2.61c0-.59-.26-.79-.77-.79-.47,0-.96.34-1.4.74v2.66h-.69v-3.89Z"/><path class="cls-3" d="m160.62,2.41h.76v1.08h-.76v-1.08Zm0,2.93h.76v1.08h-.76v-1.08Z"/></g><g><path class="cls-3" d="m86.98,10.82h1.91c1.08,0,1.73.71,1.73,1.64,0,.77-.48,1.36-1.13,1.58l1.13,2.38h-.81l-1.04-2.28h-1.06v2.28h-.73v-5.6Zm.73.64v2.06h1.03c.75,0,1.13-.49,1.13-1.05s-.41-1.01-1.13-1.01h-1.03Z"/><path class="cls-3" d="m95.07,16.42h-.69v-.62c-.4.43-.9.75-1.51.75-.85,0-1.3-.38-1.3-1.33v-2.69h.69v2.61c0,.6.22.8.74.8.48,0,1.03-.41,1.39-.83v-2.58h.69v3.89Z"/><path class="cls-3" d="m96.2,10.6h.69v2.71c.43-.62.9-.9,1.52-.9,1.05,0,1.51.78,1.51,1.88,0,1.17-.43,2.25-2.2,2.25-.42,0-.93-.05-1.51-.14v-5.81Zm.69,3.52v1.75c.38.06.74.08.89.08,1.06,0,1.43-.62,1.43-1.56,0-1.18-.51-1.37-.93-1.37-.51,0-1,.46-1.39,1.09Z"/><path class="cls-3" d="m101.19,10.82h.69v.91h-.69v-.91Zm0,1.71h.69v3.89h-.69v-3.89Z"/><path class="cls-3" d="m103.02,12.53l.69-.07v.69c.46-.43.99-.74,1.62-.74.85,0,1.24.39,1.24,1.32v2.7h-.69v-2.61c0-.59-.26-.79-.77-.79-.47,0-.96.34-1.4.74v2.66h-.69v-3.89Z"/><path class="cls-3" d="m108.14,14.74c.08.91.64,1.2,1.39,1.2.41,0,.86-.06,1.3-.19l-.06.6c-.2.08-.67.2-1.26.2-1.37,0-2.07-.67-2.07-1.97s.69-2.16,1.94-2.16c1.02,0,1.64.48,1.64,1.54,0,.22-.03.54-.07.79h-2.8Zm0-.57h2.13c.02-.08.03-.15.03-.24,0-.74-.51-.95-.97-.95-.63,0-1.09.38-1.18,1.18Z"/><path class="cls-3" d="m114.02,10.82h1.91c1.08,0,1.73.71,1.73,1.64,0,.77-.48,1.36-1.13,1.58l1.13,2.38h-.81l-1.04-2.28h-1.06v2.28h-.73v-5.6Zm.73.64v2.06h1.03c.75,0,1.13-.49,1.13-1.05s-.41-1.01-1.13-1.01h-1.03Z"/><path class="cls-3" d="m119.08,14.74c.08.91.64,1.2,1.39,1.2.41,0,.86-.06,1.3-.19l-.06.6c-.2.08-.67.2-1.26.2-1.37,0-2.07-.67-2.07-1.97s.69-2.16,1.94-2.16c1.02,0,1.64.48,1.64,1.54,0,.22-.03.54-.07.79h-2.8Zm0-.57h2.13c.02-.08.03-.15.03-.24,0-.74-.51-.95-.97-.95-.63,0-1.08.38-1.18,1.18Z"/><path class="cls-3" d="m125.67,15.67c-.38.57-.89.87-1.48.87-1.06,0-1.56-.81-1.56-1.87,0-1.2.53-2.26,2.15-2.26.28,0,.59.04.89.12v-1.94h.69v5.83h-.69v-.75Zm0-.92v-1.57c-.3-.1-.6-.16-.94-.16-1.01,0-1.39.6-1.39,1.6,0,1.11.55,1.32.97,1.32.57,0,1.05-.55,1.36-1.2Z"/><path class="cls-3" d="m129.22,10.72c-.59.6-1.36,1.88-1.36,3.24s.66,2.65,1.39,3.43l-.38.34c-.92-.82-1.62-2.28-1.62-3.78s.85-3,1.6-3.59l.37.36Z"/><path class="cls-3" d="m129.96,13.64l.22-2.82h3.23l-.05.65h-2.55l-.15,1.61c1.46.04,2.84.46,2.84,1.69,0,.92-.66,1.75-2.02,1.75-.56,0-1.19-.1-1.76-.38l.08-.62c.48.24,1.08.39,1.66.39.72,0,1.3-.36,1.3-1.06,0-.85-1.18-1.18-2.8-1.22Z"/><path class="cls-3" d="m134.27,16.42v-.65h1.59v-4.2l-1.59.22v-.67l2.15-.36h.17v5h1.49v.65h-3.81Z"/><path class="cls-3" d="m138.7,10.36c.75.6,1.6,2.14,1.6,3.59s-.71,2.96-1.63,3.78l-.38-.34c.74-.78,1.39-2.12,1.39-3.43s-.77-2.63-1.37-3.24l.38-.36Z"/><path class="cls-3" d="m140.91,17.27l.32-1.98h.81l-.6,1.98h-.53Z"/><path class="cls-3" d="m146.98,13.74l1.79-2.92h.75l-2.18,3.53v2.07h-.73v-2.07l-2.14-3.54h.81l1.7,2.92Z"/><path class="cls-3" d="m149.96,14.74c.08.91.64,1.2,1.39,1.2.41,0,.86-.06,1.3-.19l-.06.6c-.2.08-.67.2-1.26.2-1.37,0-2.07-.67-2.07-1.97s.69-2.16,1.94-2.16c1.02,0,1.64.48,1.64,1.54,0,.22-.03.54-.07.79h-2.8Zm0-.57h2.13c.02-.08.03-.15.03-.24,0-.74-.51-.95-.97-.95-.63,0-1.08.38-1.18,1.18Z"/><path class="cls-3" d="m153.85,10.6h.69v5.83h-.69v-5.83Z"/><path class="cls-3" d="m155.87,10.6h.69v5.83h-.69v-5.83Z"/><path class="cls-3" d="m159.53,12.41c1.37,0,1.98.83,1.98,2.06s-.61,2.07-1.99,2.07-1.99-.84-1.99-2.07.62-2.06,2-2.06Zm0,3.53c.81,0,1.28-.48,1.28-1.47s-.5-1.45-1.28-1.45c-.89,0-1.28.46-1.28,1.44,0,.91.33,1.48,1.28,1.48Z"/><path class="cls-3" d="m163.6,15.8h.02l1.22-3.27h.73l1.16,3.25h.01l.83-3.25h.72l-1.08,3.89h-.92l-1.1-3.12h-.02l-1.18,3.12h-.9l-1.04-3.89h.74l.81,3.27Z"/><path class="cls-3" d="m173.05,10.71c1.54,0,2.19,1.18,2.19,2.91s-.65,2.91-2.19,2.91-2.19-1.18-2.19-2.91.65-2.91,2.19-2.91Zm0,5.18c1.06,0,1.46-1,1.46-2.3s-.4-2.25-1.46-2.25c-.88,0-1.47.76-1.47,2.27s.53,2.28,1.47,2.28Z"/><path class="cls-3" d="m176.06,16.42v-.65h1.59v-4.2l-1.59.22v-.67l2.15-.36h.17v5h1.49v.65h-3.81Z"/><path class="cls-3" d="m180.35,16.42v-.65c1.25-.9,2.88-2.3,2.88-3.39,0-.54-.32-1.04-1.28-1.04-.46,0-1.14.24-1.59.48l-.08-.63c.46-.26,1.04-.48,1.78-.48,1.3,0,1.92.64,1.92,1.6,0,1.34-1.57,2.63-2.73,3.45h0s2.93.01,2.93.01v.65h-3.84Z"/><path class="cls-3" d="m186.81,10.72c-.59.6-1.36,1.88-1.36,3.24s.66,2.65,1.39,3.43l-.38.34c-.92-.82-1.62-2.28-1.62-3.78s.85-3,1.6-3.59l.37.36Z"/><path class="cls-3" d="m190.52,15.24v1.18h-.72v-1.18h-2.74v-.61l1.76-3.81h.74l-1.73,3.77h1.97v-1.49h.72v1.49h.81v.65h-.81Z"/><path class="cls-3" d="m192.16,15.81c.14,0,.3.01.43.01,1.49,0,2.29-.79,2.49-1.98-.39.27-.88.46-1.51.46-.92,0-1.76-.65-1.76-1.68,0-1.13.78-1.91,2.02-1.91,1.42,0,2.06,1.02,2.06,2.49,0,2.14-1.46,3.31-3.18,3.31-.12,0-.23,0-.32-.01l-.23-.69Zm2.96-2.61c-.01-1.15-.44-1.89-1.33-1.89-.81,0-1.25.58-1.25,1.27s.52,1.11,1.2,1.11c.55,0,1.03-.21,1.37-.49Z"/><path class="cls-3" d="m196.66,10.36c.75.6,1.6,2.14,1.6,3.59s-.71,2.96-1.63,3.78l-.38-.34c.74-.78,1.39-2.12,1.39-3.43s-.77-2.63-1.37-3.24l.38-.36Z"/></g><g><path class="cls-3" d="m90.97,36.24c-.37.2-.92.31-1.49.31-1.67,0-2.87-1.18-2.87-2.91s1.18-2.93,2.91-2.93c.49,0,1.05.06,1.44.25l-.04.66c-.36-.2-.91-.27-1.37-.27-1.28,0-2.18.88-2.18,2.27s.9,2.27,2.18,2.27c.5,0,1-.08,1.39-.29l.02.64Z"/><path class="cls-3" d="m92.77,32.32v4.1h-.73v-5.6h.73l2.33,4.76,2.4-4.76h0s0,0,0,0h.73v5.6h-.73v-4.2l-2.13,4.2h-.56l-2.04-4.1Z"/><path class="cls-3" d="m101.48,33.74l1.79-2.92h.75l-2.18,3.53v2.07h-.73v-2.07l-2.14-3.54h.81l1.7,2.92Z"/><path class="cls-3" d="m104.73,30.82h.73v2.53l2.36-2.53h.94l-2.68,2.75,2.68,2.86h-.99l-2.31-2.53v2.53h-.73v-5.6Z"/><path class="cls-3" d="m111.41,30.82h1.78c1.22,0,1.86.6,1.86,1.47,0,.6-.32,1.08-.94,1.3.62.22.94.69.94,1.32,0,.86-.64,1.51-1.86,1.51h-1.79v-5.6Zm.73.63v1.88h1.07c.74,0,1.09-.43,1.09-.94,0-.54-.37-.95-1.09-.95h-1.07Zm0,2.46v1.88h1.07c.74,0,1.09-.43,1.09-.94,0-.55-.36-.95-1.09-.95h-1.07Z"/><path class="cls-3" d="m116.19,32.53l.69-.07v.78c.36-.47.76-.83,1.37-.83.08,0,.15,0,.22.01v.68c-.15-.03-.28-.03-.4-.03-.44,0-.81.34-1.19.76v2.59h-.69v-3.89Z"/><path class="cls-3" d="m119.52,34.74c.08.91.64,1.2,1.39,1.2.41,0,.86-.06,1.3-.19l-.06.6c-.2.08-.67.2-1.26.2-1.37,0-2.07-.67-2.07-1.97s.69-2.16,1.94-2.16c1.02,0,1.64.48,1.64,1.54,0,.22-.03.54-.07.79h-2.8Zm0-.57h2.13c.02-.08.03-.15.03-.24,0-.74-.51-.95-.97-.95-.63,0-1.09.38-1.18,1.18Z"/><path class="cls-3" d="m126.1,36.42v-.74c-.43.61-.92.86-1.51.86-1.1,0-1.53-.86-1.53-1.95,0-1.16.58-2.19,2.19-2.19.31,0,.83.08,1.53.29v3.72h-.69Zm0-1.63v-1.62c-.37-.13-.68-.16-.91-.16-.97,0-1.41.55-1.41,1.53s.36,1.39.95,1.39c.51,0,.98-.41,1.37-1.15Z"/><path class="cls-3" d="m127.93,30.6h.69v5.83h-.69v-5.83Zm2.74,1.93h.85l-1.94,1.84,1.94,2.05h-.88l-1.87-2.02,1.91-1.88Z"/><path class="cls-3" d="m134.86,35.67c-.38.57-.89.87-1.48.87-1.07,0-1.56-.81-1.56-1.87,0-1.2.53-2.26,2.15-2.26.28,0,.59.04.89.12v-1.94h.69v5.83h-.69v-.75Zm0-.92v-1.57c-.3-.1-.6-.16-.94-.16-1.01,0-1.39.6-1.39,1.6,0,1.11.55,1.32.97,1.32.57,0,1.05-.55,1.36-1.2Z"/><path class="cls-3" d="m138.45,32.41c1.37,0,1.98.83,1.98,2.06s-.61,2.07-1.99,2.07-1.99-.84-1.99-2.07.62-2.06,2-2.06Zm0,3.53c.81,0,1.28-.48,1.28-1.47s-.5-1.45-1.28-1.45c-.89,0-1.28.46-1.28,1.44,0,.91.33,1.48,1.28,1.48Z"/><path class="cls-3" d="m142.53,35.8h.02l1.22-3.27h.73l1.16,3.25h.01l.83-3.25h.72l-1.09,3.89h-.92l-1.1-3.12h-.02l-1.18,3.12h-.9l-1.04-3.89h.74l.81,3.27Z"/><path class="cls-3" d="m147.97,32.53l.69-.07v.69c.46-.43.99-.74,1.62-.74.85,0,1.24.39,1.24,1.32v2.7h-.69v-2.61c0-.59-.26-.79-.77-.79-.47,0-.96.34-1.4.74v2.66h-.69v-3.89Z"/><path class="cls-3" d="m152.57,32.41h.76v1.08h-.76v-1.08Zm0,2.93h.76v1.08h-.76v-1.08Z"/></g><g><path class="cls-3" d="m90.97,46.24c-.37.2-.92.31-1.49.31-1.67,0-2.87-1.18-2.87-2.91s1.18-2.93,2.91-2.93c.49,0,1.05.06,1.44.25l-.04.66c-.36-.2-.91-.27-1.37-.27-1.28,0-2.18.88-2.18,2.27s.9,2.27,2.18,2.27c.5,0,1-.08,1.39-.29l.02.64Z"/><path class="cls-3" d="m93.62,40.72c-.59.6-1.36,1.88-1.36,3.24s.66,2.65,1.39,3.43l-.38.34c-.92-.82-1.62-2.28-1.62-3.78s.85-3,1.6-3.59l.37.36Z"/><path class="cls-3" d="m94.36,43.64l.22-2.82h3.23l-.05.65h-2.55l-.15,1.61c1.46.04,2.84.46,2.84,1.69,0,.92-.66,1.75-2.02,1.75-.56,0-1.19-.1-1.76-.38l.08-.62c.48.24,1.08.39,1.66.39.72,0,1.3-.36,1.3-1.06,0-.85-1.18-1.18-2.8-1.22Z"/><path class="cls-3" d="m98.82,40.36c.75.6,1.6,2.14,1.6,3.59s-.71,2.96-1.63,3.78l-.38-.34c.74-.78,1.39-2.12,1.39-3.43s-.77-2.63-1.37-3.24l.38-.36Z"/><path class="cls-3" d="m101.03,47.27l.32-1.98h.81l-.6,1.98h-.53Z"/><path class="cls-3" d="m106.02,42.32v4.1h-.73v-5.6h.73l2.33,4.76,2.4-4.76h0s0,0,0,0h.73v5.6h-.73v-4.2l-2.13,4.2h-.56l-2.04-4.1Z"/><path class="cls-3" d="m114.49,40.72c-.59.6-1.36,1.88-1.36,3.24s.66,2.65,1.39,3.43l-.38.34c-.92-.82-1.62-2.28-1.62-3.78s.85-3,1.6-3.59l.37.36Z"/><path class="cls-3" d="m115.31,45.81c.14,0,.3.01.43.01,1.49,0,2.29-.79,2.49-1.98-.38.27-.88.46-1.51.46-.92,0-1.76-.65-1.76-1.68,0-1.13.78-1.91,2.02-1.91,1.42,0,2.06,1.02,2.06,2.49,0,2.14-1.46,3.31-3.18,3.31-.12,0-.23,0-.32-.01l-.23-.69Zm2.96-2.61c-.01-1.15-.44-1.89-1.33-1.89-.81,0-1.25.58-1.25,1.27s.52,1.11,1.21,1.11c.55,0,1.03-.21,1.37-.49Z"/><path class="cls-3" d="m120.86,43.5c-.51-.24-.9-.57-.9-1.2,0-1.02,1-1.59,2.04-1.59s1.89.55,1.89,1.47c0,.64-.49,1.06-1.07,1.31.6.24,1.1.58,1.1,1.3,0,1.2-1.11,1.75-2.12,1.75-.95,0-1.94-.49-1.94-1.53,0-.73.44-1.25.99-1.51Zm.62.22c-.46.19-.92.62-.92,1.15,0,.71.6,1.07,1.35,1.07s1.28-.38,1.28-1.06-.88-.88-1.71-1.16Zm.74-.43c.54-.22.95-.56.95-1.01,0-.63-.55-.97-1.24-.97s-1.25.32-1.25.89c0,.65.76.85,1.54,1.09Z"/><path class="cls-3" d="m124.91,40.36c.75.6,1.6,2.14,1.6,3.59s-.71,2.96-1.63,3.78l-.38-.34c.74-.78,1.39-2.12,1.39-3.43s-.77-2.63-1.37-3.24l.38-.36Z"/><path class="cls-3" d="m127.12,47.27l.32-1.98h.81l-.6,1.98h-.53Z"/><path class="cls-3" d="m133.19,43.74l1.79-2.92h.75l-2.18,3.53v2.07h-.73v-2.07l-2.14-3.54h.81l1.7,2.92Z"/><path class="cls-3" d="m138.02,40.72c-.59.6-1.36,1.88-1.36,3.24s.66,2.65,1.39,3.43l-.38.34c-.92-.82-1.62-2.28-1.62-3.78s.85-3,1.6-3.59l.37.36Z"/><path class="cls-3" d="m138.57,46.42v-.65h1.59v-4.2l-1.59.22v-.67l2.15-.36h.17v5h1.49v.65h-3.81Z"/><path class="cls-3" d="m145.07,40.71c1.54,0,2.19,1.18,2.19,2.91s-.65,2.91-2.19,2.91-2.19-1.18-2.19-2.91.65-2.91,2.19-2.91Zm0,5.18c1.06,0,1.46-1,1.46-2.3s-.4-2.25-1.46-2.25c-.88,0-1.47.76-1.47,2.27s.53,2.28,1.47,2.28Z"/><path class="cls-3" d="m150.29,40.71c1.54,0,2.19,1.18,2.19,2.91s-.65,2.91-2.19,2.91-2.19-1.18-2.19-2.91.65-2.91,2.19-2.91Zm0,5.18c1.06,0,1.46-1,1.46-2.3s-.4-2.25-1.46-2.25c-.88,0-1.47.76-1.47,2.27s.53,2.28,1.47,2.28Z"/><path class="cls-3" d="m153.18,40.36c.75.6,1.6,2.14,1.6,3.59s-.71,2.96-1.63,3.78l-.38-.34c.74-.78,1.39-2.12,1.39-3.43s-.77-2.63-1.37-3.24l.38-.36Z"/><path class="cls-3" d="m155.39,47.27l.32-1.98h.81l-.6,1.98h-.53Z"/><path class="cls-3" d="m159.65,40.82h.73v2.53l2.36-2.53h.94l-2.68,2.75,2.68,2.86h-.99l-2.31-2.53v2.53h-.73v-5.6Z"/><path class="cls-3" d="m165.95,40.72c-.59.6-1.36,1.88-1.36,3.24s.66,2.65,1.39,3.43l-.38.34c-.92-.82-1.62-2.28-1.62-3.78s.85-3,1.6-3.59l.37.36Z"/><path class="cls-3" d="m168.47,40.71c1.54,0,2.19,1.18,2.19,2.91s-.65,2.91-2.19,2.91-2.19-1.18-2.19-2.91.65-2.91,2.19-2.91Zm0,5.18c1.06,0,1.46-1,1.46-2.3s-.4-2.25-1.46-2.25c-.88,0-1.47.76-1.47,2.27s.53,2.28,1.47,2.28Z"/><path class="cls-3" d="m171.37,40.36c.75.6,1.6,2.14,1.6,3.59s-.71,2.96-1.63,3.78l-.38-.34c.74-.78,1.39-2.12,1.39-3.43s-.77-2.63-1.37-3.24l.38-.36Z"/></g><g><path class="cls-3" d="m86.67,62.36c0-1.04.82-1.65,1.89-1.65.65,0,1.25.15,1.6.36l-.13.64c-.38-.24-.96-.36-1.49-.36-.66,0-1.14.34-1.14.93,0,1.34,2.89.68,2.89,2.58,0,.94-.7,1.68-1.92,1.68-.64,0-1.22-.11-1.67-.32l.04-.7c.5.24,1.03.37,1.66.37.77,0,1.16-.4,1.16-.93,0-1.32-2.88-.69-2.88-2.61Z"/><path class="cls-3" d="m91.67,64.48c0,1.13.69,1.46,1.38,1.46.41,0,.78-.1,1.08-.22v.61c-.3.13-.77.21-1.21.21-1.15,0-1.95-.62-1.95-2.02,0-1.1.57-2.12,2.02-2.12.41,0,.8.06,1.17.15l-.03.64c-.34-.1-.71-.18-1.01-.18-.95,0-1.44.45-1.44,1.46Z"/><path class="cls-3" d="m95.04,62.53l.69-.07v.78c.36-.47.76-.83,1.37-.83.08,0,.15,0,.22.01v.68c-.15-.03-.28-.03-.4-.03-.44,0-.81.34-1.19.76v2.59h-.69v-3.89Z"/><path class="cls-3" d="m98.37,64.74c.08.91.64,1.2,1.39,1.2.41,0,.86-.06,1.3-.19l-.06.6c-.2.08-.67.2-1.26.2-1.37,0-2.07-.67-2.07-1.97s.69-2.16,1.94-2.16c1.02,0,1.64.48,1.64,1.54,0,.22-.03.54-.07.79h-2.8Zm0-.57h2.13c.02-.08.03-.15.03-.24,0-.74-.51-.95-.97-.95-.63,0-1.08.38-1.18,1.18Z"/><path class="cls-3" d="m102.62,64.74c.08.91.64,1.2,1.39,1.2.41,0,.86-.06,1.3-.19l-.06.6c-.2.08-.67.2-1.26.2-1.37,0-2.07-.67-2.07-1.97s.69-2.16,1.94-2.16c1.02,0,1.64.48,1.64,1.54,0,.22-.03.54-.07.79h-2.8Zm0-.57h2.13c.02-.08.03-.15.03-.24,0-.74-.51-.95-.97-.95-.63,0-1.08.38-1.18,1.18Z"/><path class="cls-3" d="m106.39,62.53l.69-.07v.69c.46-.43.99-.74,1.62-.74.85,0,1.24.39,1.24,1.32v2.7h-.69v-2.61c0-.59-.26-.79-.77-.79-.47,0-.96.34-1.4.74v2.66h-.69v-3.89Z"/><path class="cls-3" d="m113.13,60.82h1.78c1.22,0,1.86.6,1.86,1.47,0,.6-.32,1.08-.94,1.3.62.22.94.69.94,1.32,0,.86-.64,1.51-1.86,1.51h-1.79v-5.6Zm.73.63v1.88h1.07c.74,0,1.09-.43,1.09-.94,0-.54-.37-.95-1.09-.95h-1.07Zm0,2.46v1.88h1.07c.74,0,1.09-.43,1.09-.94,0-.55-.36-.95-1.09-.95h-1.07Z"/><path class="cls-3" d="m117.92,62.53l.69-.07v.78c.36-.47.76-.83,1.37-.83.08,0,.15,0,.22.01v.68c-.15-.03-.28-.03-.4-.03-.44,0-.81.34-1.19.76v2.59h-.69v-3.89Z"/><path class="cls-3" d="m121.25,64.74c.08.91.64,1.2,1.39,1.2.41,0,.86-.06,1.3-.19l-.06.6c-.2.08-.67.2-1.26.2-1.37,0-2.07-.67-2.07-1.97s.69-2.16,1.94-2.16c1.02,0,1.64.48,1.64,1.54,0,.22-.03.54-.07.79h-2.8Zm0-.57h2.13c.02-.08.03-.15.03-.24,0-.74-.51-.95-.97-.95-.63,0-1.08.38-1.18,1.18Z"/><path class="cls-3" d="m127.83,66.42v-.74c-.43.61-.92.86-1.51.86-1.1,0-1.53-.86-1.53-1.95,0-1.16.58-2.19,2.18-2.19.31,0,.83.08,1.53.29v3.72h-.69Zm0-1.63v-1.62c-.37-.13-.68-.16-.91-.16-.97,0-1.42.55-1.42,1.53s.36,1.39.95,1.39c.51,0,.98-.41,1.37-1.15Z"/><path class="cls-3" d="m129.66,60.6h.69v5.83h-.69v-5.83Zm2.74,1.93h.85l-1.94,1.84,1.94,2.05h-.88l-1.87-2.02,1.91-1.88Z"/><path class="cls-3" d="m136.59,65.67c-.38.57-.89.87-1.48.87-1.06,0-1.56-.81-1.56-1.87,0-1.2.53-2.26,2.15-2.26.28,0,.59.04.89.12v-1.94h.69v5.83h-.69v-.75Zm0-.92v-1.57c-.3-.1-.6-.16-.94-.16-1.01,0-1.39.6-1.39,1.6,0,1.11.55,1.32.97,1.32.57,0,1.05-.55,1.36-1.2Z"/><path class="cls-3" d="m140.18,62.41c1.37,0,1.98.83,1.98,2.06s-.61,2.07-1.99,2.07-1.99-.84-1.99-2.07.62-2.06,2-2.06Zm0,3.53c.81,0,1.28-.48,1.28-1.47s-.5-1.45-1.28-1.45c-.89,0-1.28.46-1.28,1.44,0,.91.33,1.48,1.28,1.48Z"/><path class="cls-3" d="m144.26,65.8h.02l1.22-3.27h.73l1.16,3.25h.01l.83-3.25h.72l-1.09,3.89h-.92l-1.1-3.12h-.02l-1.18,3.12h-.9l-1.04-3.89h.74l.81,3.27Z"/><path class="cls-3" d="m149.7,62.53l.69-.07v.69c.46-.43.99-.74,1.62-.74.85,0,1.24.39,1.24,1.32v2.7h-.69v-2.61c0-.59-.26-.79-.77-.79-.47,0-.96.34-1.4.74v2.66h-.69v-3.89Z"/><path class="cls-3" d="m154.3,62.41h.76v1.08h-.76v-1.08Zm0,2.93h.76v1.08h-.76v-1.08Z"/></g><g><path class="cls-3" d="m86.98,70.82h1.91c1.08,0,1.73.71,1.73,1.64,0,.77-.48,1.36-1.13,1.58l1.13,2.38h-.81l-1.04-2.28h-1.06v2.28h-.73v-5.6Zm.73.64v2.06h1.03c.75,0,1.13-.49,1.13-1.05s-.41-1.01-1.13-1.01h-1.03Z"/><path class="cls-3" d="m93.38,70.72c-.59.6-1.36,1.88-1.36,3.24s.66,2.65,1.39,3.43l-.38.34c-.92-.82-1.62-2.28-1.62-3.78s.85-3,1.6-3.59l.37.36Z"/><path class="cls-3" d="m93.95,76.42v-.65c1.25-.9,2.88-2.3,2.88-3.39,0-.54-.32-1.04-1.28-1.04-.46,0-1.14.24-1.59.48l-.08-.63c.46-.26,1.04-.48,1.78-.48,1.3,0,1.92.64,1.92,1.6,0,1.34-1.57,2.63-2.73,3.45h0s2.93.01,2.93.01v.65h-3.84Z"/><path class="cls-3" d="m100.75,73.52h0c.9.12,1.36.64,1.36,1.4,0,.94-.84,1.61-2.16,1.61-.62,0-1.07-.13-1.49-.34l.08-.63c.45.22,1,.34,1.46.34.96,0,1.36-.49,1.36-.99,0-.64-.59-1.06-1.66-1.01l-.09-.55c1.11-.22,1.7-.54,1.7-1.16,0-.45-.36-.83-1.22-.83-.46,0-.92.13-1.48.4l-.07-.63c.44-.27.99-.43,1.66-.43,1.16,0,1.91.56,1.91,1.37,0,.67-.43,1.2-1.34,1.44Z"/><path class="cls-3" d="m102.98,76.42v-.65c1.25-.9,2.88-2.3,2.88-3.39,0-.54-.32-1.04-1.28-1.04-.46,0-1.14.24-1.59.48l-.08-.63c.46-.26,1.04-.48,1.78-.48,1.3,0,1.92.64,1.92,1.6,0,1.34-1.57,2.63-2.73,3.45h0s2.93.01,2.93.01v.65h-3.84Z"/><path class="cls-3" d="m107.68,70.36c.75.6,1.6,2.14,1.6,3.59s-.71,2.96-1.63,3.78l-.38-.34c.74-.78,1.39-2.12,1.39-3.43s-.77-2.63-1.37-3.24l.38-.36Z"/><path class="cls-3" d="m109.89,77.27l.32-1.98h.81l-.6,1.98h-.53Z"/><path class="cls-3" d="m116.49,73.42h1.98v2.72c-.41.25-1.02.41-1.74.41-1.67,0-2.97-1.1-2.97-2.91,0-1.69,1.19-2.92,2.98-2.92.66,0,1.36.14,1.73.36l-.05.67c-.43-.25-1.08-.38-1.67-.38-1.34,0-2.23.88-2.23,2.26s.88,2.28,2.23,2.28c.32,0,.66-.04,1-.13v-1.71h-1.27v-.64Z"/><path class="cls-3" d="m121.28,70.72c-.59.6-1.36,1.88-1.36,3.24s.66,2.65,1.39,3.43l-.38.34c-.92-.82-1.62-2.28-1.62-3.78s.85-3,1.6-3.59l.37.36Z"/><path class="cls-3" d="m124.99,75.24v1.18h-.72v-1.18h-2.74v-.61l1.76-3.81h.74l-1.73,3.77h1.98v-1.49h.72v1.49h.81v.65h-.81Z"/><path class="cls-3" d="m130.08,71.4c-.14-.01-.3-.02-.43-.02-1.49,0-2.28.87-2.49,2.06.41-.28.95-.46,1.52-.46.94,0,1.79.54,1.79,1.69,0,1.05-.74,1.86-2.06,1.86-1.41,0-2.04-1.02-2.04-2.43,0-2.14,1.45-3.38,3.17-3.38.13,0,.24.01.32.01l.22.66Zm-2.96,2.71c0,1.15.43,1.83,1.34,1.83s1.25-.58,1.25-1.22c0-.74-.49-1.11-1.16-1.11-.49,0-1.06.21-1.42.5Z"/><path class="cls-3" d="m131.31,70.36c.75.6,1.6,2.14,1.6,3.59s-.71,2.96-1.63,3.78l-.38-.34c.74-.78,1.39-2.12,1.39-3.43s-.77-2.63-1.37-3.24l.38-.36Z"/><path class="cls-3" d="m133.52,77.27l.32-1.98h.81l-.6,1.98h-.53Z"/><path class="cls-3" d="m137.77,70.82h1.78c1.22,0,1.86.6,1.86,1.47,0,.6-.32,1.08-.94,1.3.62.22.94.69.94,1.32,0,.86-.64,1.51-1.86,1.51h-1.79v-5.6Zm.73.63v1.88h1.07c.74,0,1.08-.43,1.08-.94,0-.54-.37-.95-1.08-.95h-1.07Zm0,2.46v1.88h1.07c.74,0,1.08-.43,1.08-.94,0-.55-.36-.95-1.08-.95h-1.07Z"/><path class="cls-3" d="m144.29,70.72c-.59.6-1.36,1.88-1.36,3.24s.66,2.65,1.39,3.43l-.38.34c-.92-.82-1.62-2.28-1.62-3.78s.85-3,1.6-3.59l.37.36Z"/><path class="cls-3" d="m147.09,73.52h0c.9.12,1.36.64,1.36,1.4,0,.94-.84,1.61-2.16,1.61-.62,0-1.07-.13-1.49-.34l.08-.63c.45.22,1,.34,1.46.34.96,0,1.36-.49,1.36-.99,0-.64-.59-1.06-1.66-1.01l-.09-.55c1.11-.22,1.7-.54,1.7-1.16,0-.45-.36-.83-1.22-.83-.46,0-.92.13-1.48.4l-.07-.63c.44-.27.99-.43,1.66-.43,1.16,0,1.91.56,1.91,1.37,0,.67-.43,1.2-1.34,1.44Z"/><path class="cls-3" d="m151.54,73.52h0c.9.12,1.36.64,1.36,1.4,0,.94-.84,1.61-2.16,1.61-.62,0-1.07-.13-1.49-.34l.08-.63c.45.22,1,.34,1.46.34.96,0,1.36-.49,1.36-.99,0-.64-.59-1.06-1.66-1.01l-.09-.55c1.11-.22,1.7-.54,1.7-1.16,0-.45-.36-.83-1.22-.83-.46,0-.92.13-1.48.4l-.07-.63c.44-.27.99-.43,1.66-.43,1.16,0,1.91.56,1.91,1.37,0,.67-.43,1.2-1.34,1.44Z"/><path class="cls-3" d="m153.9,70.36c.75.6,1.6,2.14,1.6,3.59s-.71,2.96-1.63,3.78l-.38-.34c.74-.78,1.39-2.12,1.39-3.43s-.77-2.63-1.37-3.24l.38-.36Z"/></g><g><path class="cls-3" d="m91.23,93.94h-3.52v2.49h-.73v-5.6h.73v2.47h3.52v-2.47h.73v5.6h-.73v-2.49Z"/><path class="cls-3" d="m95.42,91.47v4.96h-.72v-4.96h-2.09v-.64h4.9v.64h-2.09Z"/><path class="cls-3" d="m98.89,92.32v4.1h-.73v-5.6h.73l2.33,4.76,2.4-4.76h0s0,0,0,0h.73v5.6h-.73v-4.2l-2.13,4.2h-.56l-2.04-4.1Z"/><path class="cls-3" d="m105.78,90.82h.73v4.96h2.44v.64h-3.17v-5.6Z"/><path class="cls-3" d="m111.83,90.82h1.78c1.22,0,1.86.6,1.86,1.47,0,.6-.32,1.08-.94,1.3.62.22.94.69.94,1.32,0,.86-.64,1.51-1.86,1.51h-1.79v-5.6Zm.73.63v1.88h1.07c.74,0,1.09-.43,1.09-.94,0-.54-.37-.95-1.09-.95h-1.07Zm0,2.46v1.88h1.07c.74,0,1.09-.43,1.09-.94,0-.55-.36-.95-1.09-.95h-1.07Z"/><path class="cls-3" d="m116.62,92.53l.69-.07v.78c.36-.47.76-.83,1.37-.83.08,0,.15,0,.22.01v.68c-.15-.03-.28-.03-.4-.03-.44,0-.81.34-1.19.76v2.59h-.69v-3.89Z"/><path class="cls-3" d="m119.95,94.74c.08.91.64,1.2,1.39,1.2.41,0,.86-.06,1.3-.19l-.06.59c-.2.08-.67.2-1.26.2-1.37,0-2.07-.67-2.07-1.97s.69-2.16,1.94-2.16c1.02,0,1.64.48,1.64,1.54,0,.22-.03.54-.07.79h-2.8Zm0-.57h2.13c.02-.08.03-.15.03-.24,0-.74-.51-.95-.97-.95-.63,0-1.08.38-1.18,1.18Z"/><path class="cls-3" d="m126.53,96.42v-.74c-.43.61-.92.86-1.51.86-1.1,0-1.53-.86-1.53-1.95,0-1.16.58-2.19,2.18-2.19.31,0,.83.08,1.53.29v3.72h-.69Zm0-1.63v-1.62c-.37-.13-.68-.16-.91-.16-.97,0-1.42.55-1.42,1.53s.36,1.39.95,1.39c.51,0,.98-.41,1.37-1.15Z"/><path class="cls-3" d="m128.37,90.6h.69v5.83h-.69v-5.83Zm2.74,1.93h.85l-1.94,1.84,1.94,2.05h-.88l-1.87-2.02,1.91-1.88Z"/><path class="cls-3" d="m135.29,95.68c-.38.57-.89.87-1.48.87-1.06,0-1.56-.81-1.56-1.87,0-1.2.53-2.25,2.15-2.25.28,0,.59.04.89.12v-1.94h.69v5.83h-.69v-.75Zm0-.92v-1.57c-.3-.1-.6-.16-.94-.16-1.01,0-1.39.6-1.39,1.6,0,1.11.55,1.32.97,1.32.57,0,1.05-.55,1.36-1.2Z"/><path class="cls-3" d="m138.89,92.41c1.37,0,1.98.83,1.98,2.06s-.61,2.07-1.99,2.07-1.99-.84-1.99-2.07.62-2.06,2-2.06Zm0,3.53c.81,0,1.28-.48,1.28-1.47s-.5-1.45-1.28-1.45c-.89,0-1.28.46-1.28,1.44,0,.91.33,1.48,1.28,1.48Z"/><path class="cls-3" d="m142.96,95.8h.02l1.22-3.27h.73l1.16,3.25h.01l.83-3.25h.72l-1.09,3.89h-.92l-1.1-3.12h-.02l-1.18,3.12h-.9l-1.04-3.89h.74l.81,3.27Z"/><path class="cls-3" d="m148.41,92.53l.69-.07v.69c.46-.43.99-.74,1.62-.74.85,0,1.24.39,1.24,1.32v2.7h-.69v-2.61c0-.59-.26-.79-.77-.79-.47,0-.96.34-1.4.74v2.66h-.69v-3.89Z"/><path class="cls-3" d="m153.01,92.41h.76v1.08h-.76v-1.08Zm0,2.93h.76v1.08h-.76v-1.08Z"/></g><g><path class="cls-3" d="m90.03,105.17h-1.77l-.14,1.25h-.7l.14-1.25h-.88v-.57h.95l.22-1.95h-1.16v-.57h1.23l.14-1.25h.7l-.14,1.25h1.76l.14-1.25h.7l-.14,1.25h.89v.57h-.96l-.22,1.95h1.18v.57h-1.25l-.14,1.25h-.7l.14-1.25Zm-1.7-.57h1.76l.22-1.95h-1.77l-.22,1.95Z"/><path class="cls-3" d="m93.12,106.42v-5.6h3.49v.64h-2.76v1.84h1.93v.63h-1.93v1.84h2.76v.64h-3.49Z"/><path class="cls-3" d="m98.26,103.5c-.51-.24-.9-.57-.9-1.2,0-1.02.99-1.59,2.04-1.59s1.89.55,1.89,1.47c0,.64-.49,1.06-1.06,1.31.6.24,1.1.58,1.1,1.3,0,1.2-1.11,1.75-2.12,1.75-.95,0-1.94-.49-1.94-1.53,0-.73.44-1.25,1-1.51Zm.62.22c-.46.19-.92.62-.92,1.15,0,.71.6,1.07,1.35,1.07s1.28-.38,1.28-1.06-.88-.88-1.71-1.16Zm.74-.43c.54-.22.95-.56.95-1.01,0-.63-.55-.97-1.24-.97s-1.25.32-1.25.89c0,.65.76.85,1.54,1.09Z"/><path class="cls-3" d="m102.19,106.42v-.65c1.25-.9,2.88-2.3,2.88-3.39,0-.54-.32-1.04-1.28-1.04-.46,0-1.14.24-1.59.48l-.08-.63c.46-.26,1.04-.48,1.78-.48,1.3,0,1.92.64,1.92,1.6,0,1.34-1.57,2.63-2.73,3.45h0s2.93.01,2.93.01v.65h-3.84Z"/><path class="cls-3" d="m107.07,106.42v-5.6h3.49v.64h-2.76v1.84h1.93v.63h-1.93v1.84h2.76v.64h-3.49Z"/><path class="cls-3" d="m111.19,106.42v-.65c1.25-.9,2.88-2.3,2.88-3.39,0-.54-.32-1.04-1.28-1.04-.46,0-1.14.24-1.59.48l-.08-.63c.46-.26,1.04-.48,1.78-.48,1.3,0,1.92.64,1.92,1.6,0,1.34-1.57,2.63-2.73,3.45h0s2.93.01,2.93.01v.65h-3.84Z"/><path class="cls-3" d="m115.75,106.42v-.65h1.59v-4.2l-1.59.22v-.67l2.15-.36h.17v5h1.49v.65h-3.81Z"/></g></g><g><g><rect class="cls-1" x="393.41" y=".12" width="71.82" height="106.29"/><rect class="cls-4" x="393.41" y=".12" width="71.82" height="106.29"/><g><path d="m421.28,57.2h-2.42l-1.87-6.06-1.93,6.06h-2.42l-2.65-9.19h2.49l1.53,6.39,1.92-6.39h2.26l1.84,6.42,1.76-6.42h2.39l-2.88,9.19Z"/><path d="m424.86,47.64h2.26v4.22c.61-.7,1.31-1.24,2.26-1.24,1.4,0,2.08.55,2.08,2.16v4.42h-2.27v-3.93c0-.51-.28-.62-.71-.62-.48,0-.92.13-1.36.39v4.16h-2.26v-9.56Z"/><path d="m433.26,47.82h2.28v2.03h-2.28v-2.03Zm0,2.99h2.28v6.39h-2.28v-6.39Z"/><path d="m436.54,50.81h.9v-1.93h2.28v1.93h1.62l-.18,1.85h-1.44v2.05c0,.47.31.61.67.61.2,0,.55-.05.75-.11l-.13,2.01c-.49.1-.95.18-1.41.18-1.19,0-2.15-.47-2.15-1.96v-2.77h-.9v-1.85Z"/><path d="m444.22,54.57c.21.72.8.94,1.69.94.67,0,1.49-.09,2.19-.2l-.18,1.8c-.14.03-1,.28-2.26.28-2.83,0-3.71-1.19-3.71-3.22,0-2.24,1.07-3.56,3.55-3.56,1.56,0,2.91.52,2.91,2.64,0,.39-.05.82-.13,1.31h-4.06Zm-.03-1.11h2.06c.02-.09.03-.2.03-.28,0-.54-.39-.85-.92-.85-.57,0-1.03.37-1.17,1.13Z"/></g></g><g><g><path class="cls-3" d="m481.83,6.24c-.37.2-.92.31-1.49.31-1.67,0-2.87-1.18-2.87-2.91s1.18-2.93,2.91-2.93c.49,0,1.05.06,1.44.25l-.04.66c-.36-.2-.91-.27-1.37-.27-1.28,0-2.18.88-2.18,2.27s.9,2.27,2.18,2.27c.5,0,1-.08,1.39-.29l.02.64Z"/><path class="cls-3" d="m483.63,2.32v4.1h-.73V.82h.73l2.33,4.76,2.39-4.76h0s0,0,0,0h.73v5.6h-.73V2.22l-2.13,4.2h-.56l-2.04-4.1Z"/><path class="cls-3" d="m492.34,3.74l1.79-2.92h.75l-2.18,3.53v2.07h-.73v-2.07l-2.14-3.54h.8l1.7,2.92Z"/><path class="cls-3" d="m495.59.82h.73v2.53l2.36-2.53h.94l-2.68,2.75,2.68,2.86h-.99l-2.31-2.53v2.53h-.73V.82Z"/><path class="cls-3" d="m502.26.82h1.78c1.22,0,1.86.6,1.86,1.47,0,.6-.32,1.08-.94,1.3.62.22.94.69.94,1.32,0,.86-.64,1.51-1.86,1.51h-1.79V.82Zm.73.63v1.88h1.07c.74,0,1.08-.43,1.08-.94,0-.54-.37-.95-1.08-.95h-1.07Zm0,2.46v1.88h1.07c.74,0,1.08-.43,1.08-.94,0-.55-.36-.95-1.08-.95h-1.07Z"/><path class="cls-3" d="m507.05,2.53l.69-.07v.78c.36-.47.76-.83,1.37-.83.08,0,.15,0,.22.01v.68c-.15-.03-.28-.03-.4-.03-.44,0-.81.34-1.19.76v2.59h-.69v-3.89Z"/><path class="cls-3" d="m510.37,4.74c.08.91.64,1.2,1.39,1.2.41,0,.86-.06,1.3-.19l-.06.6c-.2.08-.67.2-1.26.2-1.37,0-2.07-.67-2.07-1.97s.69-2.16,1.94-2.16c1.02,0,1.64.48,1.64,1.54,0,.22-.03.54-.07.79h-2.8Zm0-.57h2.13c.02-.08.03-.15.03-.24,0-.74-.51-.95-.97-.95-.63,0-1.09.38-1.18,1.18Z"/><path class="cls-3" d="m516.96,6.42v-.74c-.43.61-.92.86-1.51.86-1.1,0-1.53-.86-1.53-1.95,0-1.16.58-2.19,2.18-2.19.31,0,.83.08,1.53.29v3.72h-.69Zm0-1.63v-1.62c-.37-.13-.68-.16-.91-.16-.97,0-1.42.55-1.42,1.53s.36,1.39.95,1.39c.51,0,.98-.41,1.37-1.15Z"/><path class="cls-3" d="m518.79.6h.69v5.83h-.69V.6Zm2.74,1.93h.85l-1.94,1.84,1.94,2.05h-.88l-1.87-2.02,1.9-1.88Z"/><path class="cls-3" d="m525.71,5.68c-.38.57-.89.87-1.48.87-1.06,0-1.56-.81-1.56-1.87,0-1.2.53-2.26,2.15-2.26.28,0,.59.04.89.12V.6h.69v5.83h-.69v-.75Zm0-.92v-1.57c-.3-.1-.6-.16-.94-.16-1.01,0-1.39.6-1.39,1.6,0,1.11.55,1.32.97,1.32.57,0,1.05-.55,1.36-1.2Z"/><path class="cls-3" d="m529.31,2.41c1.37,0,1.98.83,1.98,2.06s-.61,2.07-1.99,2.07-1.99-.84-1.99-2.07.62-2.06,2-2.06Zm0,3.53c.81,0,1.28-.48,1.28-1.47s-.5-1.45-1.28-1.45c-.89,0-1.28.46-1.28,1.44,0,.91.33,1.48,1.28,1.48Z"/><path class="cls-3" d="m533.38,5.8h.02l1.22-3.27h.73l1.16,3.25h.01l.83-3.25h.72l-1.08,3.89h-.92l-1.1-3.12h-.02l-1.18,3.12h-.9l-1.04-3.89h.74l.81,3.27Z"/><path class="cls-3" d="m538.83,2.53l.69-.07v.69c.46-.43.99-.74,1.62-.74.85,0,1.24.39,1.24,1.32v2.7h-.69v-2.61c0-.59-.26-.79-.77-.79-.47,0-.96.34-1.4.74v2.66h-.69v-3.89Z"/><path class="cls-3" d="m543.43,2.41h.76v1.08h-.76v-1.08Zm0,2.93h.76v1.08h-.76v-1.08Z"/></g><g><path class="cls-3" d="m481.83,16.24c-.37.2-.92.31-1.49.31-1.67,0-2.87-1.18-2.87-2.91s1.18-2.93,2.91-2.93c.49,0,1.05.06,1.44.25l-.04.66c-.36-.2-.91-.27-1.37-.27-1.28,0-2.18.88-2.18,2.27s.9,2.27,2.18,2.27c.5,0,1-.08,1.39-.29l.02.64Z"/><path class="cls-3" d="m484.47,10.72c-.59.6-1.36,1.88-1.36,3.24s.66,2.65,1.39,3.43l-.38.34c-.92-.82-1.62-2.28-1.62-3.78s.85-3,1.6-3.59l.37.36Z"/><path class="cls-3" d="m486.99,10.71c1.54,0,2.19,1.18,2.19,2.91s-.65,2.91-2.19,2.91-2.19-1.18-2.19-2.91.65-2.91,2.19-2.91Zm0,5.18c1.06,0,1.46-1,1.46-2.3s-.4-2.25-1.46-2.25c-.88,0-1.47.76-1.47,2.27s.53,2.28,1.47,2.28Z"/><path class="cls-3" d="m489.89,10.36c.75.6,1.6,2.14,1.6,3.59s-.71,2.96-1.63,3.78l-.38-.34c.74-.78,1.39-2.12,1.39-3.43s-.77-2.63-1.37-3.24l.38-.36Z"/><path class="cls-3" d="m492.1,17.27l.32-1.98h.81l-.6,1.98h-.53Z"/><path class="cls-3" d="m497.09,12.32v4.1h-.73v-5.6h.73l2.33,4.76,2.39-4.76h0s0,0,0,0h.73v5.6h-.73v-4.2l-2.13,4.2h-.56l-2.04-4.1Z"/><path class="cls-3" d="m505.56,10.72c-.59.6-1.36,1.88-1.36,3.24s.66,2.65,1.39,3.43l-.38.34c-.92-.82-1.62-2.28-1.62-3.78s.85-3,1.6-3.59l.37.36Z"/><path class="cls-3" d="m508.08,10.71c1.54,0,2.19,1.18,2.19,2.91s-.65,2.91-2.19,2.91-2.19-1.18-2.19-2.91.65-2.91,2.19-2.91Zm0,5.18c1.06,0,1.46-1,1.46-2.3s-.4-2.25-1.46-2.25c-.88,0-1.47.76-1.47,2.27s.53,2.28,1.47,2.28Z"/><path class="cls-3" d="m510.97,10.36c.75.6,1.6,2.14,1.6,3.59s-.71,2.96-1.63,3.78l-.38-.34c.74-.78,1.39-2.12,1.39-3.43s-.77-2.63-1.37-3.24l.38-.36Z"/><path class="cls-3" d="m513.19,17.27l.32-1.98h.81l-.6,1.98h-.53Z"/><path class="cls-3" d="m519.26,13.74l1.79-2.92h.75l-2.18,3.53v2.07h-.73v-2.07l-2.14-3.54h.8l1.7,2.92Z"/><path class="cls-3" d="m524.09,10.72c-.59.6-1.36,1.88-1.36,3.24s.66,2.65,1.39,3.43l-.38.34c-.92-.82-1.62-2.28-1.62-3.78s.85-3,1.6-3.59l.37.36Z"/><path class="cls-3" d="m526.6,10.71c1.54,0,2.19,1.18,2.19,2.91s-.65,2.91-2.19,2.91-2.19-1.18-2.19-2.91.65-2.91,2.19-2.91Zm0,5.18c1.06,0,1.46-1,1.46-2.3s-.4-2.25-1.46-2.25c-.88,0-1.47.76-1.47,2.27s.53,2.28,1.47,2.28Z"/><path class="cls-3" d="m529.5,10.36c.75.6,1.6,2.14,1.6,3.59s-.71,2.96-1.63,3.78l-.38-.34c.74-.78,1.39-2.12,1.39-3.43s-.77-2.63-1.37-3.24l.38-.36Z"/><path class="cls-3" d="m531.71,17.27l.32-1.98h.81l-.6,1.98h-.53Z"/><path class="cls-3" d="m535.97,10.82h.73v2.53l2.36-2.53h.94l-2.68,2.75,2.68,2.86h-.99l-2.31-2.53v2.53h-.73v-5.6Z"/><path class="cls-3" d="m542.27,10.72c-.59.6-1.36,1.88-1.36,3.24s.66,2.65,1.39,3.43l-.38.34c-.92-.82-1.62-2.28-1.62-3.78s.85-3,1.6-3.59l.37.36Z"/><path class="cls-3" d="m544.79,10.71c1.54,0,2.19,1.18,2.19,2.91s-.65,2.91-2.19,2.91-2.19-1.18-2.19-2.91.65-2.91,2.19-2.91Zm0,5.18c1.06,0,1.46-1,1.46-2.3s-.4-2.25-1.46-2.25c-.88,0-1.47.76-1.47,2.27s.53,2.28,1.47,2.28Z"/><path class="cls-3" d="m547.68,10.36c.75.6,1.6,2.14,1.6,3.59s-.71,2.96-1.63,3.78l-.38-.34c.74-.78,1.39-2.12,1.39-3.43s-.77-2.63-1.37-3.24l.38-.36Z"/></g><g><path class="cls-3" d="m477.52,32.36c0-1.04.82-1.65,1.89-1.65.65,0,1.25.15,1.6.36l-.13.64c-.38-.24-.96-.36-1.48-.36-.66,0-1.14.34-1.14.93,0,1.34,2.89.68,2.89,2.58,0,.94-.7,1.68-1.92,1.68-.64,0-1.22-.11-1.67-.32l.04-.7c.5.24,1.03.37,1.66.37.77,0,1.16-.4,1.16-.93,0-1.32-2.88-.69-2.88-2.61Z"/><path class="cls-3" d="m482.52,34.48c0,1.13.69,1.46,1.38,1.46.41,0,.78-.1,1.08-.22v.61c-.3.13-.77.21-1.21.21-1.15,0-1.95-.62-1.95-2.02,0-1.1.57-2.12,2.02-2.12.41,0,.8.06,1.17.15l-.04.64c-.34-.1-.71-.18-1.01-.18-.95,0-1.44.45-1.44,1.46Z"/><path class="cls-3" d="m485.89,32.53l.69-.07v.78c.36-.47.76-.83,1.37-.83.08,0,.15,0,.22.01v.68c-.15-.03-.28-.03-.4-.03-.44,0-.81.34-1.19.76v2.59h-.69v-3.89Z"/><path class="cls-3" d="m489.23,34.74c.08.91.64,1.2,1.39,1.2.41,0,.86-.06,1.3-.19l-.06.6c-.2.08-.67.2-1.26.2-1.37,0-2.07-.67-2.07-1.97s.69-2.16,1.94-2.16c1.02,0,1.64.48,1.64,1.54,0,.22-.03.54-.07.79h-2.8Zm0-.57h2.13c.02-.08.03-.15.03-.24,0-.74-.51-.95-.97-.95-.63,0-1.09.38-1.18,1.18Z"/><path class="cls-3" d="m493.48,34.74c.08.91.64,1.2,1.39,1.2.41,0,.86-.06,1.3-.19l-.06.6c-.2.08-.67.2-1.26.2-1.37,0-2.07-.67-2.07-1.97s.69-2.16,1.94-2.16c1.02,0,1.64.48,1.64,1.54,0,.22-.03.54-.07.79h-2.8Zm0-.57h2.13c.02-.08.03-.15.03-.24,0-.74-.51-.95-.97-.95-.63,0-1.09.38-1.18,1.18Z"/><path class="cls-3" d="m497.24,32.53l.69-.07v.69c.46-.43.99-.74,1.62-.74.85,0,1.24.39,1.24,1.32v2.7h-.69v-2.61c0-.59-.26-.79-.77-.79-.47,0-.96.34-1.4.74v2.66h-.69v-3.89Z"/><path class="cls-3" d="m503.98,30.82h1.78c1.22,0,1.86.6,1.86,1.47,0,.6-.32,1.08-.94,1.3.62.22.94.69.94,1.32,0,.86-.64,1.51-1.86,1.51h-1.79v-5.6Zm.73.63v1.88h1.07c.74,0,1.08-.43,1.08-.94,0-.54-.37-.95-1.08-.95h-1.07Zm0,2.46v1.88h1.07c.74,0,1.08-.43,1.08-.94,0-.55-.36-.95-1.08-.95h-1.07Z"/><path class="cls-3" d="m508.77,32.53l.69-.07v.78c.36-.47.76-.83,1.37-.83.08,0,.15,0,.22.01v.68c-.15-.03-.28-.03-.4-.03-.44,0-.81.34-1.19.76v2.59h-.69v-3.89Z"/><path class="cls-3" d="m512.1,34.74c.08.91.64,1.2,1.39,1.2.41,0,.86-.06,1.3-.19l-.06.6c-.2.08-.67.2-1.26.2-1.37,0-2.07-.67-2.07-1.97s.69-2.16,1.94-2.16c1.02,0,1.64.48,1.64,1.54,0,.22-.03.54-.07.79h-2.8Zm0-.57h2.13c.02-.08.03-.15.03-.24,0-.74-.51-.95-.97-.95-.63,0-1.09.38-1.18,1.18Z"/><path class="cls-3" d="m518.68,36.42v-.74c-.43.61-.92.86-1.51.86-1.1,0-1.53-.86-1.53-1.95,0-1.16.58-2.19,2.18-2.19.31,0,.83.08,1.53.29v3.72h-.69Zm0-1.63v-1.62c-.37-.13-.68-.16-.91-.16-.97,0-1.42.55-1.42,1.53s.36,1.39.95,1.39c.51,0,.98-.41,1.37-1.15Z"/><path class="cls-3" d="m520.52,30.6h.69v5.83h-.69v-5.83Zm2.74,1.93h.85l-1.94,1.84,1.94,2.05h-.88l-1.87-2.02,1.9-1.88Z"/><path class="cls-3" d="m527.44,35.68c-.38.57-.89.87-1.48.87-1.06,0-1.56-.81-1.56-1.87,0-1.2.53-2.26,2.15-2.26.28,0,.59.04.89.12v-1.94h.69v5.83h-.69v-.75Zm0-.92v-1.57c-.3-.1-.6-.16-.94-.16-1.01,0-1.39.6-1.39,1.6,0,1.11.55,1.32.97,1.32.57,0,1.05-.55,1.36-1.2Z"/><path class="cls-3" d="m531.04,32.41c1.37,0,1.98.83,1.98,2.06s-.61,2.07-1.99,2.07-1.99-.84-1.99-2.07.62-2.06,2-2.06Zm0,3.53c.81,0,1.28-.48,1.28-1.47s-.5-1.45-1.28-1.45c-.89,0-1.28.46-1.28,1.44,0,.91.33,1.48,1.28,1.48Z"/><path class="cls-3" d="m535.11,35.8h.02l1.22-3.27h.73l1.16,3.25h.01l.83-3.25h.72l-1.08,3.89h-.92l-1.1-3.12h-.02l-1.18,3.12h-.9l-1.04-3.89h.74l.81,3.27Z"/><path class="cls-3" d="m540.56,32.53l.69-.07v.69c.46-.43.99-.74,1.62-.74.85,0,1.24.39,1.24,1.32v2.7h-.69v-2.61c0-.59-.26-.79-.77-.79-.47,0-.96.34-1.4.74v2.66h-.69v-3.89Z"/><path class="cls-3" d="m545.16,32.41h.76v1.08h-.76v-1.08Zm0,2.93h.76v1.08h-.76v-1.08Z"/></g><g><path class="cls-3" d="m477.84,40.82h1.91c1.08,0,1.73.71,1.73,1.64,0,.77-.48,1.36-1.13,1.58l1.13,2.38h-.81l-1.04-2.28h-1.06v2.28h-.73v-5.6Zm.73.64v2.06h1.03c.75,0,1.13-.49,1.13-1.05s-.41-1.01-1.13-1.01h-1.03Z"/><path class="cls-3" d="m484.24,40.72c-.59.6-1.36,1.88-1.36,3.24s.66,2.65,1.39,3.43l-.38.34c-.92-.82-1.62-2.28-1.62-3.78s.85-3,1.6-3.59l.37.36Z"/><path class="cls-3" d="m484.81,46.42v-.65c1.25-.9,2.88-2.3,2.88-3.39,0-.54-.32-1.04-1.28-1.04-.46,0-1.14.24-1.59.48l-.08-.63c.46-.26,1.04-.48,1.78-.48,1.3,0,1.92.64,1.92,1.6,0,1.34-1.57,2.63-2.73,3.45h0s2.93.01,2.93.01v.65h-3.84Z"/><path class="cls-3" d="m489.55,43.64l.22-2.82h3.23l-.05.65h-2.55l-.15,1.61c1.46.04,2.84.46,2.84,1.69,0,.92-.66,1.75-2.02,1.75-.56,0-1.19-.1-1.77-.38l.08-.62c.48.24,1.08.39,1.66.39.72,0,1.3-.36,1.3-1.06,0-.85-1.18-1.18-2.8-1.22Z"/><path class="cls-3" d="m494.05,43.64l.22-2.82h3.23l-.05.65h-2.55l-.15,1.61c1.46.04,2.84.46,2.84,1.69,0,.92-.66,1.75-2.02,1.75-.56,0-1.19-.1-1.77-.38l.08-.62c.48.24,1.08.39,1.66.39.72,0,1.3-.36,1.3-1.06,0-.85-1.18-1.18-2.8-1.22Z"/><path class="cls-3" d="m498.51,40.36c.75.6,1.6,2.14,1.6,3.59s-.71,2.96-1.63,3.78l-.38-.34c.74-.78,1.39-2.12,1.39-3.43s-.77-2.63-1.37-3.24l.38-.36Z"/><path class="cls-3" d="m500.72,47.27l.32-1.98h.81l-.6,1.98h-.53Z"/><path class="cls-3" d="m507.32,43.42h1.98v2.72c-.41.25-1.02.41-1.74.41-1.67,0-2.97-1.1-2.97-2.91,0-1.69,1.19-2.92,2.98-2.92.66,0,1.36.14,1.73.36l-.05.67c-.43-.25-1.08-.38-1.67-.38-1.34,0-2.23.88-2.23,2.26s.88,2.28,2.23,2.28c.31,0,.66-.04,1-.13v-1.71h-1.27v-.64Z"/><path class="cls-3" d="m512.11,40.72c-.59.6-1.36,1.88-1.36,3.24s.66,2.65,1.39,3.43l-.38.34c-.92-.82-1.62-2.28-1.62-3.78s.85-3,1.6-3.59l.37.36Z"/><path class="cls-3" d="m512.68,46.42v-.65c1.25-.9,2.88-2.3,2.88-3.39,0-.54-.32-1.04-1.28-1.04-.46,0-1.14.24-1.59.48l-.08-.63c.46-.26,1.04-.48,1.78-.48,1.3,0,1.92.64,1.92,1.6,0,1.34-1.57,2.63-2.73,3.45h0s2.93.01,2.93.01v.65h-3.84Z"/><path class="cls-3" d="m517.42,43.64l.22-2.82h3.23l-.05.65h-2.55l-.15,1.61c1.46.04,2.84.46,2.84,1.69,0,.92-.66,1.75-2.02,1.75-.56,0-1.19-.1-1.77-.38l.08-.62c.48.24,1.08.39,1.66.39.72,0,1.3-.36,1.3-1.06,0-.85-1.18-1.18-2.8-1.22Z"/><path class="cls-3" d="m521.92,43.64l.22-2.82h3.23l-.05.65h-2.55l-.15,1.61c1.46.04,2.84.46,2.84,1.69,0,.92-.66,1.75-2.02,1.75-.56,0-1.19-.1-1.77-.38l.08-.62c.48.24,1.08.39,1.66.39.72,0,1.3-.36,1.3-1.06,0-.85-1.18-1.18-2.8-1.22Z"/><path class="cls-3" d="m526.38,40.36c.75.6,1.6,2.14,1.6,3.59s-.71,2.96-1.63,3.78l-.38-.34c.74-.78,1.39-2.12,1.39-3.43s-.77-2.63-1.37-3.24l.38-.36Z"/><path class="cls-3" d="m528.59,47.27l.32-1.98h.81l-.6,1.98h-.53Z"/><path class="cls-3" d="m532.84,40.82h1.78c1.22,0,1.86.6,1.86,1.47,0,.6-.32,1.08-.94,1.3.62.22.94.69.94,1.32,0,.86-.64,1.51-1.86,1.51h-1.79v-5.6Zm.73.63v1.88h1.07c.74,0,1.08-.43,1.08-.94,0-.54-.37-.95-1.08-.95h-1.07Zm0,2.46v1.88h1.07c.74,0,1.08-.43,1.08-.94,0-.55-.36-.95-1.08-.95h-1.07Z"/><path class="cls-3" d="m539.35,40.72c-.59.6-1.36,1.88-1.36,3.24s.66,2.65,1.39,3.43l-.38.34c-.92-.82-1.62-2.28-1.62-3.78s.85-3,1.6-3.59l.37.36Z"/><path class="cls-3" d="m539.93,46.42v-.65c1.25-.9,2.88-2.3,2.88-3.39,0-.54-.32-1.04-1.28-1.04-.46,0-1.14.24-1.59.48l-.08-.63c.46-.26,1.04-.48,1.78-.48,1.3,0,1.92.64,1.92,1.6,0,1.34-1.57,2.63-2.73,3.45h0s2.93.01,2.93.01v.65h-3.84Z"/><path class="cls-3" d="m544.67,43.64l.22-2.82h3.23l-.05.65h-2.55l-.15,1.61c1.46.04,2.84.46,2.84,1.69,0,.92-.66,1.75-2.02,1.75-.56,0-1.19-.1-1.77-.38l.08-.62c.48.24,1.08.39,1.66.39.72,0,1.3-.36,1.3-1.06,0-.85-1.18-1.18-2.8-1.22Z"/><path class="cls-3" d="m549.17,43.64l.22-2.82h3.23l-.05.65h-2.55l-.15,1.61c1.46.04,2.84.46,2.84,1.69,0,.92-.66,1.75-2.02,1.75-.56,0-1.19-.1-1.77-.38l.08-.62c.48.24,1.08.39,1.66.39.72,0,1.3-.36,1.3-1.06,0-.85-1.18-1.18-2.8-1.22Z"/><path class="cls-3" d="m553.63,40.36c.75.6,1.6,2.14,1.6,3.59s-.71,2.96-1.63,3.78l-.38-.34c.74-.78,1.39-2.12,1.39-3.43s-.77-2.63-1.37-3.24l.38-.36Z"/></g><g><path class="cls-3" d="m482.09,63.94h-3.52v2.49h-.73v-5.6h.73v2.47h3.52v-2.47h.73v5.6h-.73v-2.49Z"/><path class="cls-3" d="m486.27,61.47v4.96h-.72v-4.96h-2.09v-.64h4.9v.64h-2.09Z"/><path class="cls-3" d="m489.75,62.32v4.1h-.73v-5.6h.73l2.33,4.76,2.39-4.76h0s0,0,0,0h.73v5.6h-.73v-4.2l-2.13,4.2h-.56l-2.04-4.1Z"/><path class="cls-3" d="m496.64,60.82h.73v4.96h2.44v.64h-3.17v-5.6Z"/><path class="cls-3" d="m502.69,60.82h1.78c1.22,0,1.86.6,1.86,1.47,0,.6-.32,1.08-.94,1.3.62.22.94.69.94,1.32,0,.86-.64,1.51-1.86,1.51h-1.79v-5.6Zm.73.63v1.88h1.07c.74,0,1.08-.43,1.08-.94,0-.54-.37-.95-1.08-.95h-1.07Zm0,2.46v1.88h1.07c.74,0,1.08-.43,1.08-.94,0-.55-.36-.95-1.08-.95h-1.07Z"/><path class="cls-3" d="m507.48,62.53l.69-.07v.78c.36-.47.76-.83,1.37-.83.08,0,.15,0,.22.01v.68c-.15-.03-.28-.03-.4-.03-.44,0-.81.34-1.19.76v2.59h-.69v-3.89Z"/><path class="cls-3" d="m510.81,64.74c.08.91.64,1.2,1.39,1.2.41,0,.86-.06,1.3-.19l-.06.6c-.2.08-.67.2-1.26.2-1.37,0-2.07-.67-2.07-1.97s.69-2.16,1.94-2.16c1.02,0,1.64.48,1.64,1.54,0,.22-.03.54-.07.79h-2.8Zm0-.57h2.13c.02-.08.03-.15.03-.24,0-.74-.51-.95-.97-.95-.63,0-1.09.38-1.18,1.18Z"/><path class="cls-3" d="m517.39,66.42v-.74c-.43.61-.92.86-1.51.86-1.1,0-1.53-.86-1.53-1.95,0-1.16.58-2.19,2.18-2.19.31,0,.83.08,1.53.29v3.72h-.69Zm0-1.63v-1.62c-.37-.13-.68-.16-.91-.16-.97,0-1.42.55-1.42,1.53s.36,1.39.95,1.39c.51,0,.98-.41,1.37-1.15Z"/><path class="cls-3" d="m519.22,60.6h.69v5.83h-.69v-5.83Zm2.74,1.93h.85l-1.94,1.84,1.94,2.05h-.88l-1.87-2.02,1.9-1.88Z"/><path class="cls-3" d="m526.15,65.68c-.38.57-.89.87-1.48.87-1.06,0-1.56-.81-1.56-1.87,0-1.2.53-2.26,2.15-2.26.28,0,.59.04.89.12v-1.94h.69v5.83h-.69v-.75Zm0-.92v-1.57c-.3-.1-.6-.16-.94-.16-1.01,0-1.39.6-1.39,1.6,0,1.11.55,1.32.97,1.32.57,0,1.05-.55,1.36-1.2Z"/><path class="cls-3" d="m529.74,62.41c1.37,0,1.98.83,1.98,2.06s-.61,2.07-1.99,2.07-1.99-.84-1.99-2.07.62-2.06,2-2.06Zm0,3.53c.81,0,1.28-.48,1.28-1.47s-.5-1.45-1.28-1.45c-.89,0-1.28.46-1.28,1.44,0,.91.33,1.48,1.28,1.48Z"/><path class="cls-3" d="m533.82,65.8h.02l1.22-3.27h.73l1.16,3.25h.01l.83-3.25h.72l-1.08,3.89h-.92l-1.1-3.12h-.02l-1.18,3.12h-.9l-1.04-3.89h.74l.81,3.27Z"/><path class="cls-3" d="m539.26,62.53l.69-.07v.69c.46-.43.99-.74,1.62-.74.85,0,1.24.39,1.24,1.32v2.7h-.69v-2.61c0-.59-.26-.79-.77-.79-.47,0-.96.34-1.4.74v2.66h-.69v-3.89Z"/><path class="cls-3" d="m543.86,62.41h.76v1.08h-.76v-1.08Zm0,2.93h.76v1.08h-.76v-1.08Z"/></g><g><path class="cls-3" d="m480.88,75.17h-1.76l-.14,1.25h-.7l.14-1.25h-.88v-.57h.95l.22-1.95h-1.16v-.57h1.23l.14-1.25h.7l-.14,1.25h1.76l.14-1.25h.7l-.14,1.25h.89v.57h-.96l-.22,1.95h1.18v.57h-1.25l-.14,1.25h-.7l.14-1.25Zm-1.69-.57h1.76l.22-1.95h-1.77l-.22,1.95Z"/><path class="cls-3" d="m484.71,73.96v2.47h-.73v-5.6h3.49v.64h-2.77v1.84h1.94v.65h-1.94Z"/><path class="cls-3" d="m488.91,73.96v2.47h-.73v-5.6h3.49v.64h-2.77v1.84h1.94v.65h-1.94Z"/><path class="cls-3" d="m493.12,73.96v2.47h-.73v-5.6h3.49v.64h-2.77v1.84h1.94v.65h-1.94Z"/><path class="cls-3" d="m497.33,73.96v2.47h-.73v-5.6h3.49v.64h-2.77v1.84h1.94v.65h-1.94Z"/><path class="cls-3" d="m501.53,73.96v2.47h-.73v-5.6h3.49v.64h-2.77v1.84h1.94v.65h-1.94Z"/><path class="cls-3" d="m505.74,73.96v2.47h-.73v-5.6h3.49v.64h-2.77v1.84h1.94v.65h-1.94Z"/></g></g></g><g><g><g><path class="cls-3" d="m301.45,6.24c-.37.2-.92.31-1.49.31-1.67,0-2.87-1.18-2.87-2.91s1.18-2.93,2.91-2.93c.49,0,1.05.06,1.44.25l-.04.66c-.36-.2-.91-.27-1.37-.27-1.28,0-2.18.88-2.18,2.27s.9,2.27,2.18,2.27c.5,0,1-.08,1.39-.29l.02.64Z"/><path class="cls-3" d="m303.24,2.33v4.1h-.73V.83h.73l2.33,4.76,2.39-4.76h0s0,0,0,0h.73v5.6h-.73V2.23l-2.13,4.2h-.56l-2.04-4.1Z"/><path class="cls-3" d="m311.95,3.75l1.79-2.92h.75l-2.18,3.53v2.07h-.73v-2.07l-2.14-3.54h.8l1.7,2.92Z"/><path class="cls-3" d="m315.21.83h.73v2.53l2.36-2.53h.94l-2.68,2.75,2.68,2.86h-.99l-2.31-2.53v2.53h-.73V.83Z"/><path class="cls-3" d="m321.88.83h1.78c1.22,0,1.86.6,1.86,1.47,0,.6-.32,1.08-.94,1.3.62.22.94.69.94,1.32,0,.86-.64,1.51-1.86,1.51h-1.79V.83Zm.73.63v1.88h1.07c.74,0,1.08-.43,1.08-.94,0-.54-.37-.95-1.08-.95h-1.07Zm0,2.46v1.88h1.07c.74,0,1.08-.43,1.08-.94,0-.55-.36-.95-1.08-.95h-1.07Z"/><path class="cls-3" d="m326.66,2.54l.69-.07v.78c.36-.47.76-.83,1.37-.83.08,0,.15,0,.22.01v.68c-.15-.03-.28-.03-.4-.03-.44,0-.81.34-1.19.76v2.59h-.69v-3.89Z"/><path class="cls-3" d="m330,4.75c.08.91.64,1.2,1.39,1.2.41,0,.86-.06,1.3-.19l-.06.6c-.2.08-.67.2-1.26.2-1.37,0-2.07-.67-2.07-1.97s.69-2.16,1.94-2.16c1.02,0,1.64.48,1.64,1.54,0,.22-.03.54-.07.79h-2.8Zm0-.58h2.13c.02-.08.03-.15.03-.24,0-.74-.51-.95-.97-.95-.63,0-1.09.38-1.18,1.18Z"/><path class="cls-3" d="m336.58,6.43v-.74c-.43.61-.92.86-1.51.86-1.1,0-1.53-.86-1.53-1.95,0-1.16.58-2.19,2.18-2.19.31,0,.83.08,1.53.29v3.72h-.69Zm0-1.63v-1.62c-.37-.13-.68-.16-.91-.16-.97,0-1.42.55-1.42,1.53s.36,1.39.95,1.39c.51,0,.98-.41,1.37-1.15Z"/><path class="cls-3" d="m338.41.6h.69v5.83h-.69V.6Zm2.74,1.93h.85l-1.94,1.84,1.94,2.05h-.88l-1.87-2.02,1.9-1.88Z"/><path class="cls-3" d="m345.33,5.68c-.38.57-.89.87-1.48.87-1.06,0-1.56-.81-1.56-1.87,0-1.2.53-2.26,2.15-2.26.28,0,.59.04.89.12V.6h.69v5.83h-.69v-.75Zm0-.92v-1.57c-.3-.1-.6-.16-.94-.16-1.01,0-1.39.6-1.39,1.6,0,1.11.55,1.32.97,1.32.57,0,1.05-.55,1.36-1.2Z"/><path class="cls-3" d="m348.93,2.42c1.37,0,1.98.83,1.98,2.06s-.61,2.07-1.99,2.07-1.99-.84-1.99-2.07.62-2.06,2-2.06Zm0,3.53c.81,0,1.28-.48,1.28-1.47s-.5-1.45-1.28-1.45c-.89,0-1.28.46-1.28,1.44,0,.91.33,1.49,1.28,1.49Z"/><path class="cls-3" d="m353.01,5.81h.02l1.22-3.27h.73l1.16,3.25h.01l.83-3.25h.72l-1.08,3.89h-.92l-1.1-3.12h-.02l-1.18,3.12h-.9l-1.04-3.89h.74l.81,3.27Z"/><path class="cls-3" d="m358.45,2.54l.69-.07v.69c.46-.43.99-.74,1.62-.74.85,0,1.24.39,1.24,1.32v2.7h-.69v-2.61c0-.59-.26-.79-.77-.79-.47,0-.96.34-1.4.74v2.66h-.69v-3.89Z"/><path class="cls-3" d="m363.05,2.42h.76v1.08h-.76v-1.08Zm0,2.93h.76v1.08h-.76v-1.08Z"/></g><g><path class="cls-3" d="m301.45,16.24c-.37.2-.92.31-1.49.31-1.67,0-2.87-1.18-2.87-2.91s1.18-2.93,2.91-2.93c.49,0,1.05.06,1.44.25l-.04.66c-.36-.2-.91-.27-1.37-.27-1.28,0-2.18.88-2.18,2.27s.9,2.27,2.18,2.27c.5,0,1-.08,1.39-.29l.02.64Z"/><path class="cls-3" d="m304.09,10.73c-.59.6-1.36,1.88-1.36,3.24s.66,2.65,1.39,3.43l-.38.34c-.92-.82-1.62-2.28-1.62-3.78s.85-3,1.6-3.59l.37.36Z"/><path class="cls-3" d="m306.61,10.72c1.54,0,2.19,1.18,2.19,2.91s-.65,2.91-2.19,2.91-2.19-1.18-2.19-2.91.65-2.91,2.19-2.91Zm0,5.18c1.06,0,1.46-1,1.46-2.3s-.4-2.25-1.46-2.25c-.88,0-1.47.76-1.47,2.27s.53,2.28,1.47,2.28Z"/><path class="cls-3" d="m309.51,10.37c.75.6,1.6,2.14,1.6,3.59s-.71,2.96-1.63,3.78l-.38-.34c.74-.78,1.39-2.12,1.39-3.43s-.77-2.63-1.37-3.24l.38-.36Z"/><path class="cls-3" d="m311.72,17.28l.32-1.98h.81l-.6,1.98h-.53Z"/><path class="cls-3" d="m316.7,12.33v4.1h-.73v-5.6h.73l2.33,4.76,2.39-4.76h0s0,0,0,0h.73v5.6h-.73v-4.2l-2.13,4.2h-.56l-2.04-4.1Z"/><path class="cls-3" d="m325.17,10.73c-.59.6-1.36,1.88-1.36,3.24s.66,2.65,1.39,3.43l-.38.34c-.92-.82-1.62-2.28-1.62-3.78s.85-3,1.6-3.59l.37.36Z"/><path class="cls-3" d="m327.69,10.72c1.54,0,2.19,1.18,2.19,2.91s-.65,2.91-2.19,2.91-2.19-1.18-2.19-2.91.65-2.91,2.19-2.91Zm0,5.18c1.06,0,1.46-1,1.46-2.3s-.4-2.25-1.46-2.25c-.88,0-1.47.76-1.47,2.27s.53,2.28,1.47,2.28Z"/><path class="cls-3" d="m330.59,10.37c.75.6,1.6,2.14,1.6,3.59s-.71,2.96-1.63,3.78l-.38-.34c.74-.78,1.39-2.12,1.39-3.43s-.77-2.63-1.37-3.24l.38-.36Z"/><path class="cls-3" d="m332.8,17.28l.32-1.98h.81l-.6,1.98h-.53Z"/><path class="cls-3" d="m338.87,13.75l1.79-2.92h.75l-2.18,3.53v2.07h-.73v-2.07l-2.14-3.54h.8l1.7,2.92Z"/><path class="cls-3" d="m343.7,10.73c-.59.6-1.36,1.88-1.36,3.24s.66,2.65,1.39,3.43l-.38.34c-.92-.82-1.62-2.28-1.62-3.78s.85-3,1.6-3.59l.37.36Z"/><path class="cls-3" d="m346.22,10.72c1.54,0,2.19,1.18,2.19,2.91s-.65,2.91-2.19,2.91-2.19-1.18-2.19-2.91.65-2.91,2.19-2.91Zm0,5.18c1.06,0,1.46-1,1.46-2.3s-.4-2.25-1.46-2.25c-.88,0-1.47.76-1.47,2.27s.53,2.28,1.47,2.28Z"/><path class="cls-3" d="m349.11,10.37c.75.6,1.6,2.14,1.6,3.59s-.71,2.96-1.63,3.78l-.38-.34c.74-.78,1.39-2.12,1.39-3.43s-.77-2.63-1.37-3.24l.38-.36Z"/><path class="cls-3" d="m351.32,17.28l.32-1.98h.81l-.6,1.98h-.53Z"/><path class="cls-3" d="m355.58,10.83h.73v2.53l2.36-2.53h.94l-2.68,2.75,2.68,2.86h-.99l-2.31-2.53v2.53h-.73v-5.6Z"/><path class="cls-3" d="m361.88,10.73c-.59.6-1.36,1.88-1.36,3.24s.66,2.65,1.39,3.43l-.38.34c-.92-.82-1.62-2.28-1.62-3.78s.85-3,1.6-3.59l.37.36Z"/><path class="cls-3" d="m362.43,16.43v-.65h1.59v-4.2l-1.59.22v-.67l2.15-.36h.17v5h1.49v.65h-3.81Z"/><path class="cls-3" d="m368.93,10.72c1.54,0,2.19,1.18,2.19,2.91s-.65,2.91-2.19,2.91-2.19-1.18-2.19-2.91.65-2.91,2.19-2.91Zm0,5.18c1.06,0,1.46-1,1.46-2.3s-.4-2.25-1.46-2.25c-.88,0-1.47.76-1.47,2.27s.53,2.28,1.47,2.28Z"/><path class="cls-3" d="m374.15,10.72c1.54,0,2.19,1.18,2.19,2.91s-.65,2.91-2.19,2.91-2.19-1.18-2.19-2.91.65-2.91,2.19-2.91Zm0,5.18c1.06,0,1.46-1,1.46-2.3s-.4-2.25-1.46-2.25c-.88,0-1.47.76-1.47,2.27s.53,2.28,1.47,2.28Z"/><path class="cls-3" d="m377.05,10.37c.75.6,1.6,2.14,1.6,3.59s-.71,2.96-1.63,3.78l-.38-.34c.74-.78,1.39-2.12,1.39-3.43s-.77-2.63-1.37-3.24l.38-.36Z"/></g><g><path class="cls-3" d="m297.14,32.36c0-1.04.82-1.65,1.89-1.65.65,0,1.25.15,1.6.36l-.13.64c-.38-.24-.96-.36-1.48-.36-.66,0-1.14.34-1.14.93,0,1.34,2.89.68,2.89,2.58,0,.94-.7,1.68-1.92,1.68-.64,0-1.22-.11-1.67-.32l.04-.7c.5.24,1.03.37,1.66.37.77,0,1.16-.4,1.16-.93,0-1.32-2.88-.69-2.88-2.61Z"/><path class="cls-3" d="m302.14,34.48c0,1.13.69,1.46,1.38,1.46.41,0,.78-.11,1.08-.22v.61c-.3.13-.77.21-1.21.21-1.15,0-1.95-.62-1.95-2.02,0-1.1.57-2.12,2.02-2.12.41,0,.8.06,1.17.15l-.04.64c-.34-.11-.71-.18-1.01-.18-.95,0-1.44.45-1.44,1.46Z"/><path class="cls-3" d="m305.51,32.54l.69-.07v.78c.36-.47.76-.83,1.37-.83.08,0,.15,0,.22.01v.68c-.15-.03-.28-.03-.4-.03-.44,0-.81.34-1.19.76v2.59h-.69v-3.89Z"/><path class="cls-3" d="m308.84,34.75c.08.91.64,1.2,1.39,1.2.41,0,.86-.06,1.3-.19l-.06.6c-.2.08-.67.2-1.26.2-1.37,0-2.07-.67-2.07-1.97s.69-2.16,1.94-2.16c1.02,0,1.64.48,1.64,1.54,0,.22-.03.54-.07.79h-2.8Zm0-.58h2.13c.02-.08.03-.15.03-.24,0-.74-.51-.95-.97-.95-.63,0-1.09.38-1.18,1.18Z"/><path class="cls-3" d="m313.08,34.75c.08.91.64,1.2,1.39,1.2.41,0,.86-.06,1.3-.19l-.06.6c-.2.08-.67.2-1.26.2-1.37,0-2.07-.67-2.07-1.97s.69-2.16,1.94-2.16c1.02,0,1.64.48,1.64,1.54,0,.22-.03.54-.07.79h-2.8Zm0-.58h2.13c.02-.08.03-.15.03-.24,0-.74-.51-.95-.97-.95-.63,0-1.09.38-1.18,1.18Z"/><path class="cls-3" d="m316.85,32.54l.69-.07v.69c.46-.43.99-.74,1.62-.74.85,0,1.24.39,1.24,1.32v2.7h-.69v-2.61c0-.59-.26-.79-.77-.79-.47,0-.96.34-1.4.74v2.66h-.69v-3.89Z"/><path class="cls-3" d="m323.59,30.83h1.78c1.22,0,1.86.6,1.86,1.47,0,.6-.32,1.08-.94,1.3.62.22.94.69.94,1.32,0,.86-.64,1.51-1.86,1.51h-1.79v-5.6Zm.73.63v1.88h1.07c.74,0,1.08-.43,1.08-.94,0-.54-.37-.95-1.08-.95h-1.07Zm0,2.46v1.88h1.07c.74,0,1.08-.43,1.08-.94,0-.55-.36-.95-1.08-.95h-1.07Z"/><path class="cls-3" d="m328.38,32.54l.69-.07v.78c.36-.47.76-.83,1.37-.83.08,0,.15,0,.22.01v.68c-.15-.03-.28-.03-.4-.03-.44,0-.81.34-1.19.76v2.59h-.69v-3.89Z"/><path class="cls-3" d="m331.7,34.75c.08.91.64,1.2,1.39,1.2.41,0,.86-.06,1.3-.19l-.06.6c-.2.08-.67.2-1.26.2-1.37,0-2.07-.67-2.07-1.97s.69-2.16,1.94-2.16c1.02,0,1.64.48,1.64,1.54,0,.22-.03.54-.07.79h-2.8Zm0-.58h2.13c.02-.08.03-.15.03-.24,0-.74-.51-.95-.97-.95-.63,0-1.09.38-1.18,1.18Z"/><path class="cls-3" d="m338.29,36.43v-.74c-.43.61-.92.86-1.51.86-1.1,0-1.53-.86-1.53-1.95,0-1.16.58-2.19,2.18-2.19.31,0,.83.08,1.53.29v3.72h-.69Zm0-1.63v-1.62c-.37-.13-.68-.16-.91-.16-.97,0-1.42.55-1.42,1.53s.36,1.39.95,1.39c.51,0,.98-.41,1.37-1.15Z"/><path class="cls-3" d="m340.12,30.6h.69v5.83h-.69v-5.83Zm2.74,1.93h.85l-1.94,1.84,1.94,2.05h-.88l-1.87-2.02,1.9-1.88Z"/><path class="cls-3" d="m347.04,35.68c-.38.57-.89.87-1.48.87-1.06,0-1.56-.81-1.56-1.87,0-1.2.53-2.26,2.15-2.26.28,0,.59.04.89.12v-1.94h.69v5.83h-.69v-.75Zm0-.92v-1.57c-.3-.1-.6-.16-.94-.16-1.01,0-1.39.6-1.39,1.6,0,1.11.55,1.32.97,1.32.57,0,1.05-.55,1.36-1.2Z"/><path class="cls-3" d="m350.64,32.42c1.37,0,1.98.83,1.98,2.06s-.61,2.07-1.99,2.07-1.99-.84-1.99-2.07.62-2.06,2-2.06Zm0,3.53c.81,0,1.28-.48,1.28-1.47s-.5-1.45-1.28-1.45c-.89,0-1.28.46-1.28,1.44,0,.91.33,1.49,1.28,1.49Z"/><path class="cls-3" d="m354.71,35.81h.02l1.22-3.27h.73l1.16,3.25h.01l.83-3.25h.72l-1.08,3.89h-.92l-1.1-3.12h-.02l-1.18,3.12h-.9l-1.04-3.89h.74l.81,3.27Z"/><path class="cls-3" d="m360.16,32.54l.69-.07v.69c.46-.43.99-.74,1.62-.74.85,0,1.24.39,1.24,1.32v2.7h-.69v-2.61c0-.59-.26-.79-.77-.79-.47,0-.96.34-1.4.74v2.66h-.69v-3.89Z"/><path class="cls-3" d="m364.76,32.42h.76v1.08h-.76v-1.08Zm0,2.93h.76v1.08h-.76v-1.08Z"/></g><g><path class="cls-3" d="m297.45,40.83h1.91c1.08,0,1.73.71,1.73,1.64,0,.77-.48,1.36-1.13,1.58l1.13,2.38h-.81l-1.04-2.28h-1.06v2.28h-.73v-5.6Zm.73.64v2.06h1.03c.75,0,1.13-.49,1.13-1.05s-.41-1.01-1.13-1.01h-1.03Z"/><path class="cls-3" d="m303.85,40.73c-.59.6-1.36,1.88-1.36,3.24s.66,2.65,1.39,3.43l-.38.34c-.92-.82-1.62-2.28-1.62-3.78s.85-3,1.6-3.59l.37.36Z"/><path class="cls-3" d="m306.37,40.72c1.54,0,2.19,1.18,2.19,2.91s-.65,2.91-2.19,2.91-2.19-1.18-2.19-2.91.65-2.91,2.19-2.91Zm0,5.18c1.06,0,1.46-1,1.46-2.3s-.4-2.25-1.46-2.25c-.88,0-1.47.76-1.47,2.27s.53,2.28,1.47,2.28Z"/><path class="cls-3" d="m309.27,40.37c.75.6,1.6,2.14,1.6,3.59s-.71,2.96-1.63,3.78l-.38-.34c.74-.78,1.39-2.12,1.39-3.43s-.77-2.63-1.37-3.24l.38-.36Z"/><path class="cls-3" d="m311.48,47.28l.32-1.98h.81l-.6,1.98h-.53Z"/><path class="cls-3" d="m318.08,43.43h1.98v2.72c-.41.25-1.02.41-1.74.41-1.67,0-2.97-1.1-2.97-2.91,0-1.69,1.19-2.92,2.98-2.92.66,0,1.36.14,1.73.36l-.05.67c-.43-.25-1.08-.38-1.67-.38-1.34,0-2.23.88-2.23,2.26s.88,2.28,2.23,2.28c.31,0,.66-.04,1-.13v-1.71h-1.27v-.64Z"/><path class="cls-3" d="m322.87,40.73c-.59.6-1.36,1.88-1.36,3.24s.66,2.65,1.39,3.43l-.38.34c-.92-.82-1.62-2.28-1.62-3.78s.85-3,1.6-3.59l.37.36Z"/><path class="cls-3" d="m325.39,40.72c1.54,0,2.19,1.18,2.19,2.91s-.65,2.91-2.19,2.91-2.19-1.18-2.19-2.91.65-2.91,2.19-2.91Zm0,5.18c1.06,0,1.46-1,1.46-2.3s-.4-2.25-1.46-2.25c-.88,0-1.47.76-1.47,2.27s.53,2.28,1.47,2.28Z"/><path class="cls-3" d="m328.29,40.37c.75.6,1.6,2.14,1.6,3.59s-.71,2.96-1.63,3.78l-.38-.34c.74-.78,1.39-2.12,1.39-3.43s-.77-2.63-1.37-3.24l.38-.36Z"/><path class="cls-3" d="m330.5,47.28l.32-1.98h.81l-.6,1.98h-.53Z"/><path class="cls-3" d="m334.74,40.83h1.78c1.22,0,1.86.6,1.86,1.47,0,.6-.32,1.08-.94,1.3.62.22.94.69.94,1.32,0,.86-.64,1.51-1.86,1.51h-1.79v-5.6Zm.73.63v1.88h1.07c.74,0,1.08-.43,1.08-.94,0-.54-.37-.95-1.08-.95h-1.07Zm0,2.46v1.88h1.07c.74,0,1.08-.43,1.08-.94,0-.55-.36-.95-1.08-.95h-1.07Z"/><path class="cls-3" d="m341.26,40.73c-.59.6-1.36,1.88-1.36,3.24s.66,2.65,1.39,3.43l-.38.34c-.92-.82-1.62-2.28-1.62-3.78s.85-3,1.6-3.59l.37.36Z"/><path class="cls-3" d="m343.77,40.72c1.54,0,2.19,1.18,2.19,2.91s-.65,2.91-2.19,2.91-2.19-1.18-2.19-2.91.65-2.91,2.19-2.91Zm0,5.18c1.06,0,1.46-1,1.46-2.3s-.4-2.25-1.46-2.25c-.88,0-1.47.76-1.47,2.27s.53,2.28,1.47,2.28Z"/><path class="cls-3" d="m346.67,40.37c.75.6,1.6,2.14,1.6,3.59s-.71,2.96-1.63,3.78l-.38-.34c.74-.78,1.39-2.12,1.39-3.43s-.77-2.63-1.37-3.24l.38-.36Z"/></g><g><path class="cls-3" d="m301.7,63.95h-3.52v2.49h-.73v-5.6h.73v2.47h3.52v-2.47h.73v5.6h-.73v-2.49Z"/><path class="cls-3" d="m305.89,61.47v4.96h-.72v-4.96h-2.09v-.64h4.9v.64h-2.09Z"/><path class="cls-3" d="m309.36,62.33v4.1h-.73v-5.6h.73l2.33,4.76,2.39-4.76h0s0,0,0,0h.73v5.6h-.73v-4.2l-2.13,4.2h-.56l-2.04-4.1Z"/><path class="cls-3" d="m316.26,60.83h.73v4.96h2.44v.64h-3.17v-5.6Z"/><path class="cls-3" d="m322.3,60.83h1.78c1.22,0,1.86.6,1.86,1.47,0,.6-.32,1.08-.94,1.3.62.22.94.69.94,1.32,0,.86-.64,1.51-1.86,1.51h-1.79v-5.6Zm.73.63v1.88h1.07c.74,0,1.08-.43,1.08-.94,0-.54-.37-.95-1.08-.95h-1.07Zm0,2.46v1.88h1.07c.74,0,1.08-.43,1.08-.94,0-.55-.36-.95-1.08-.95h-1.07Z"/><path class="cls-3" d="m327.09,62.54l.69-.07v.78c.36-.47.76-.83,1.37-.83.08,0,.15,0,.22.01v.68c-.15-.03-.28-.03-.4-.03-.44,0-.81.34-1.19.76v2.59h-.69v-3.89Z"/><path class="cls-3" d="m330.42,64.75c.08.91.64,1.2,1.39,1.2.41,0,.86-.06,1.3-.19l-.06.6c-.2.08-.67.2-1.26.2-1.37,0-2.07-.67-2.07-1.97s.69-2.16,1.94-2.16c1.02,0,1.64.48,1.64,1.54,0,.22-.03.54-.07.79h-2.8Zm0-.58h2.13c.02-.08.03-.15.03-.24,0-.74-.51-.95-.97-.95-.63,0-1.09.38-1.18,1.18Z"/><path class="cls-3" d="m337,66.43v-.74c-.43.61-.92.86-1.51.86-1.1,0-1.53-.86-1.53-1.95,0-1.16.58-2.19,2.18-2.19.31,0,.83.08,1.53.29v3.72h-.69Zm0-1.63v-1.62c-.37-.13-.68-.16-.91-.16-.97,0-1.42.55-1.42,1.53s.36,1.39.95,1.39c.51,0,.98-.41,1.37-1.15Z"/><path class="cls-3" d="m338.83,60.6h.69v5.83h-.69v-5.83Zm2.74,1.93h.85l-1.94,1.84,1.94,2.05h-.88l-1.87-2.02,1.9-1.88Z"/><path class="cls-3" d="m345.75,65.68c-.38.57-.89.87-1.48.87-1.06,0-1.56-.81-1.56-1.87,0-1.2.53-2.26,2.15-2.26.28,0,.59.04.89.12v-1.94h.69v5.83h-.69v-.75Zm0-.92v-1.57c-.3-.1-.6-.16-.94-.16-1.01,0-1.39.6-1.39,1.6,0,1.11.55,1.32.97,1.32.57,0,1.05-.55,1.36-1.2Z"/><path class="cls-3" d="m349.35,62.42c1.37,0,1.98.83,1.98,2.06s-.61,2.07-1.99,2.07-1.99-.84-1.99-2.07.62-2.06,2-2.06Zm0,3.53c.81,0,1.28-.48,1.28-1.47s-.5-1.45-1.28-1.45c-.89,0-1.28.46-1.28,1.44,0,.91.33,1.49,1.28,1.49Z"/><path class="cls-3" d="m353.42,65.81h.02l1.22-3.27h.73l1.16,3.25h.01l.83-3.25h.72l-1.08,3.89h-.92l-1.1-3.12h-.02l-1.18,3.12h-.9l-1.04-3.89h.74l.81,3.27Z"/><path class="cls-3" d="m358.87,62.54l.69-.07v.69c.46-.43.99-.74,1.62-.74.85,0,1.24.39,1.24,1.32v2.7h-.69v-2.61c0-.59-.26-.79-.77-.79-.47,0-.96.34-1.4.74v2.66h-.69v-3.89Z"/><path class="cls-3" d="m363.47,62.42h.76v1.08h-.76v-1.08Zm0,2.93h.76v1.08h-.76v-1.08Z"/></g><g><path class="cls-3" d="m300.5,75.18h-1.76l-.14,1.25h-.7l.14-1.25h-.88v-.57h.95l.22-1.95h-1.16v-.57h1.23l.14-1.25h.7l-.14,1.25h1.76l.14-1.25h.7l-.14,1.25h.89v.57h-.96l-.22,1.95h1.18v.57h-1.25l-.14,1.25h-.7l.14-1.25Zm-1.69-.57h1.76l.22-1.95h-1.77l-.22,1.95Z"/><path class="cls-3" d="m305.48,70.72c1.54,0,2.19,1.18,2.19,2.91s-.65,2.91-2.19,2.91-2.19-1.18-2.19-2.91.65-2.91,2.19-2.91Zm0,5.18c1.06,0,1.46-1,1.46-2.3s-.4-2.25-1.46-2.25c-.88,0-1.47.76-1.47,2.27s.53,2.28,1.47,2.28Z"/><path class="cls-3" d="m310.71,70.72c1.54,0,2.19,1.18,2.19,2.91s-.65,2.91-2.19,2.91-2.19-1.18-2.19-2.91.65-2.91,2.19-2.91Zm0,5.18c1.06,0,1.46-1,1.46-2.3s-.4-2.25-1.46-2.25c-.88,0-1.47.76-1.47,2.27s.53,2.28,1.47,2.28Z"/><path class="cls-3" d="m315.93,70.72c1.54,0,2.19,1.18,2.19,2.91s-.65,2.91-2.19,2.91-2.19-1.18-2.19-2.91.65-2.91,2.19-2.91Zm0,5.18c1.06,0,1.46-1,1.46-2.3s-.4-2.25-1.46-2.25c-.88,0-1.47.76-1.47,2.27s.53,2.28,1.47,2.28Z"/><path class="cls-3" d="m321.15,70.72c1.54,0,2.19,1.18,2.19,2.91s-.65,2.91-2.19,2.91-2.19-1.18-2.19-2.91.65-2.91,2.19-2.91Zm0,5.18c1.06,0,1.46-1,1.46-2.3s-.4-2.25-1.46-2.25c-.88,0-1.47.76-1.47,2.27s.53,2.28,1.47,2.28Z"/><path class="cls-3" d="m326.37,70.72c1.54,0,2.19,1.18,2.19,2.91s-.65,2.91-2.19,2.91-2.19-1.18-2.19-2.91.65-2.91,2.19-2.91Zm0,5.18c1.06,0,1.46-1,1.46-2.3s-.4-2.25-1.46-2.25c-.88,0-1.47.76-1.47,2.27s.53,2.28,1.47,2.28Z"/><path class="cls-3" d="m331.59,70.72c1.54,0,2.19,1.18,2.19,2.91s-.65,2.91-2.19,2.91-2.19-1.18-2.19-2.91.65-2.91,2.19-2.91Zm0,5.18c1.06,0,1.46-1,1.46-2.3s-.4-2.25-1.46-2.25c-.88,0-1.47.76-1.47,2.27s.53,2.28,1.47,2.28Z"/></g></g><rect x="213.03" y=".12" width="71.82" height="106.3"/><g><path class="cls-1" d="m232.45,48.01h3.87c2.56,0,3.56,1.01,3.56,2.52,0,.88-.32,1.56-1.1,1.98.78.41,1.1,1.1,1.1,2.01,0,1.54-.99,2.69-3.55,2.69h-3.88v-9.19Zm2.3,1.95v1.87h1.66c.84,0,1.09-.54,1.09-.92,0-.36-.25-.95-1.09-.95h-1.66Zm0,3.41v1.87h1.66c.85,0,1.09-.55,1.09-.94,0-.37-.23-.93-1.09-.93h-1.66Z"/><path class="cls-1" d="m241.21,47.64h2.28v9.56h-2.28v-9.56Z"/><path class="cls-1" d="m249.36,57.2v-1.01c-.65.87-1.31,1.21-2.22,1.21-1.91,0-2.47-1.4-2.47-3.32s.9-3.46,3.83-3.46c.26,0,1.45.01,3.12.2v6.39h-2.26Zm-.01-2.31v-2.47c-.3-.06-.61-.08-1.02-.08-1.17,0-1.46.94-1.46,1.76,0,.92.31,1.52,1.03,1.52.53,0,.94-.22,1.45-.72Z"/><path class="cls-1" d="m254.92,53.95c0,1.19.79,1.52,1.61,1.52.67,0,1.21-.05,1.75-.2v1.77c-.5.21-1.49.36-2.23.36-1.94,0-3.33-1.01-3.33-3.3,0-1.76.82-3.48,3.48-3.48.76,0,1.49.08,2.16.23l-.1,1.94c-.64-.15-1.08-.25-1.61-.25-1.24,0-1.72.47-1.72,1.41Z"/><path class="cls-1" d="m259.5,47.64h2.26v6.01l1.96-2.84h2.61l-2.47,3,2.47,3.39h-2.73l-1.84-2.92v2.92h-2.26v-9.56Z"/></g></g><g><rect class="cls-2" y=".12" width="71.82" height="106.3"/><g><path class="cls-1" d="m10.45,34.22h4.35c2.06,0,3.08,1.46,3.08,3.14,0,2.01-1.53,3.24-3.08,3.24h-2.06v2.81h-2.3v-9.19Zm2.3,2.07v2.36h1.49c.9,0,1.26-.64,1.26-1.23,0-.48-.37-1.13-1.26-1.13h-1.49Z"/><path class="cls-1" d="m23.15,43.41v-1.01c-.65.87-1.31,1.21-2.22,1.21-1.91,0-2.47-1.4-2.47-3.32s.9-3.46,3.83-3.46c.26,0,1.45.01,3.12.2v6.39h-2.26Zm-.01-2.31v-2.47c-.3-.06-.61-.08-1.02-.08-1.17,0-1.46.94-1.46,1.76,0,.92.31,1.52,1.03,1.52.53,0,.94-.22,1.45-.72Z"/><path class="cls-1" d="m26.86,37.02l2.26-.2v1.24c.61-.7,1.31-1.24,2.26-1.24,1.4,0,2.08.55,2.08,2.16v4.42h-2.28v-3.93c0-.51-.28-.62-.71-.62-.48,0-.92.13-1.36.39v4.16h-2.26v-6.39Z"/><path class="cls-1" d="m34.41,37.02h.9v-1.93h2.28v1.93h1.62l-.18,1.85h-1.44v2.05c0,.47.31.61.67.61.2,0,.55-.05.75-.11l-.13,2.01c-.49.1-.95.18-1.41.18-1.19,0-2.15-.47-2.15-1.96v-2.77h-.9v-1.85Z"/><path class="cls-1" d="m43.29,36.82c2.52,0,3.47,1.41,3.47,3.39s-.94,3.39-3.46,3.39-3.48-1.38-3.48-3.39.98-3.39,3.47-3.39Zm0,5c.91,0,1.26-.53,1.26-1.64s-.37-1.62-1.28-1.62-1.25.48-1.25,1.6.36,1.67,1.26,1.67Z"/><path class="cls-1" d="m47.84,37.02l2.26-.2v1.24c.61-.7,1.31-1.24,2.26-1.24,1.4,0,2.08.55,2.08,2.16v4.42h-2.28v-3.93c0-.51-.28-.62-.71-.62-.48,0-.92.13-1.36.39v4.16h-2.26v-6.39Z"/><path class="cls-1" d="m57.76,40.78c.21.72.8.94,1.69.94.67,0,1.49-.09,2.19-.2l-.18,1.8c-.14.03-1,.28-2.26.28-2.83,0-3.71-1.19-3.71-3.22,0-2.24,1.07-3.56,3.55-3.56,1.56,0,2.91.52,2.91,2.64,0,.39-.05.82-.13,1.31h-4.06Zm-.03-1.11h2.06c.02-.09.03-.2.03-.28,0-.54-.39-.85-.92-.85-.57,0-1.03.37-1.17,1.13Z"/><path class="cls-1" d="m10.45,48.01h4.35c2.06,0,3.08,1.46,3.08,3.14,0,2.01-1.53,3.24-3.08,3.24h-2.06v2.81h-2.3v-9.19Zm2.3,2.07v2.36h1.49c.9,0,1.26-.64,1.26-1.23,0-.48-.37-1.13-1.26-1.13h-1.49Z"/><path class="cls-1" d="m23.15,57.2v-1.01c-.65.87-1.31,1.21-2.22,1.21-1.91,0-2.47-1.4-2.47-3.32s.9-3.46,3.83-3.46c.26,0,1.45.01,3.12.2v6.39h-2.26Zm-.01-2.31v-2.47c-.3-.06-.61-.08-1.02-.08-1.17,0-1.46.94-1.46,1.76,0,.92.31,1.52,1.03,1.52.53,0,.94-.22,1.45-.72Z"/><path class="cls-1" d="m26.86,50.81l2.26-.2v1.28c.53-.7,1.15-1.28,2.08-1.28.17,0,.32.01.47.02l-.02,2.33c-.33-.08-.69-.09-.94-.09-.6,0-1.07.09-1.59.32v4h-2.26v-6.39Z"/><path class="cls-1" d="m34.89,54.82c-1.09-.13-2.6-.36-2.6-2.08,0-1.51,1.31-2.13,2.86-2.13,1,0,1.93.14,2.6.33l-.07,1.93c-.93-.28-1.68-.45-2.37-.45s-1.07.09-1.07.36c0,.32.51.39,1.15.46,1.13.13,2.65.31,2.65,1.94,0,1.24-.96,2.21-3.01,2.21-1.08,0-1.93-.16-2.53-.3l-.14-1.79c1.13.22,1.79.32,2.53.32s1.14-.13,1.14-.41-.5-.32-1.15-.39Z"/><path class="cls-1" d="m42.24,50.62c2.52,0,3.47,1.41,3.47,3.39s-.94,3.39-3.46,3.39-3.48-1.38-3.48-3.39.98-3.39,3.47-3.39Zm0,5c.91,0,1.26-.53,1.26-1.64s-.37-1.62-1.28-1.62-1.25.48-1.25,1.6.36,1.67,1.26,1.67Z"/><path class="cls-1" d="m46.79,50.81l2.26-.2v1.24c.61-.7,1.31-1.24,2.26-1.24,1.4,0,2.08.55,2.08,2.16v4.42h-2.28v-3.93c0-.51-.28-.62-.71-.62-.48,0-.92.13-1.36.39v4.16h-2.26v-6.39Z"/><path class="cls-1" d="m57.07,54.82c-1.09-.13-2.6-.36-2.6-2.08,0-1.51,1.31-2.13,2.86-2.13,1,0,1.93.14,2.6.33l-.07,1.93c-.93-.28-1.68-.45-2.37-.45s-1.07.09-1.07.36c0,.32.51.39,1.15.46,1.13.13,2.65.31,2.65,1.94,0,1.24-.96,2.21-3.01,2.21-1.08,0-1.93-.16-2.53-.3l-.14-1.79c1.13.22,1.79.32,2.53.32s1.14-.13,1.14-.41-.5-.32-1.15-.39Z"/><path class="cls-1" d="m10.46,61.8h4.35c2.06,0,3.08,1.46,3.08,3.14,0,1.36-.69,2.36-1.61,2.86l1.61,3.19h-2.58l-1.28-2.81h-1.28v2.81h-2.3v-9.19Zm2.3,2.07v2.36h1.49c.9,0,1.26-.64,1.26-1.23,0-.48-.37-1.13-1.26-1.13h-1.49Z"/><path class="cls-1" d="m21.01,68.36c.21.72.8.94,1.69.94.67,0,1.49-.09,2.19-.2l-.18,1.8c-.14.03-1,.28-2.26.28-2.83,0-3.71-1.19-3.71-3.22,0-2.24,1.07-3.56,3.55-3.56,1.56,0,2.91.52,2.91,2.64,0,.39-.05.82-.13,1.31h-4.06Zm-.03-1.11h2.06c.02-.09.03-.2.03-.28,0-.54-.39-.85-.92-.85-.57,0-1.03.37-1.17,1.13Z"/><path class="cls-1" d="m30.62,69.98c-.65.87-1.31,1.21-2.22,1.21-1.76,0-2.48-1.29-2.48-3.11s.75-3.67,3.84-3.67c.22,0,.53.02.86.08v-3.06h2.28v9.56h-2.28v-1.01Zm0-1.31v-2.45c-.36-.06-.69-.09-1.04-.09-1.17,0-1.45.79-1.45,1.76,0,1.21.44,1.52,1.03,1.52.51,0,.94-.22,1.46-.74Z"/></g></g></svg>