<?xml version="1.0" encoding="UTF-8"?><svg id="Layer_1" xmlns="http://www.w3.org/2000/svg" viewBox="0 0 460.77 401.47"><defs><style>.cls-1{fill:#d7d7d7;stroke-width:2px;}.cls-1,.cls-2,.cls-3{stroke:#000;stroke-miterlimit:10;}.cls-4{font-family:Indivisible-Regular, Indivisible;font-size:21.59px;}.cls-2{fill:#fff;}.cls-5{letter-spacing:0em;}.cls-3{fill:none;}</style></defs><text class="cls-4" transform="translate(0 231.21)"><tspan x="0" y="0">1080 </tspan><tspan class="cls-5" x="55.19" y="0">p</tspan><tspan x="68.4" y="0">x</tspan></text><line class="cls-2" x1="89.49" y1="400.47" x2="89.49" y2="54.81"/><polyline class="cls-3" points="93.04 60.97 89.51 54.81 85.95 60.95"/><polyline class="cls-3" points="85.95 394.32 89.49 400.47 93.04 394.32"/><rect class="cls-1" x="114.12" y="54.81" width="345.65" height="345.65" rx="17.78" ry="17.78"/><text class="cls-4" transform="translate(247.09 18.35)"><tspan x="0" y="0">1080 </tspan><tspan class="cls-5" x="55.19" y="0">p</tspan><tspan x="68.4" y="0">x</tspan></text><line class="cls-2" x1="114.12" y1="33.01" x2="459.77" y2="33.01"/><polyline class="cls-3" points="453.62 36.56 459.77 33.03 453.64 29.46"/><polyline class="cls-3" points="120.27 29.46 114.12 33.01 120.27 36.56"/><line class="cls-3" x1="120.27" y1="59.15" x2="454.56" y2="395.27"/><line class="cls-3" x1="119.36" y1="394.36" x2="455.47" y2="60.06"/></svg>