<?xml version="1.0" encoding="UTF-8"?><svg id="Layer_1" xmlns="http://www.w3.org/2000/svg" viewBox="0 0 1579.91 331.07"><defs><style>.cls-1,.cls-2,.cls-3,.cls-4,.cls-5,.cls-6,.cls-7{fill:#231f20;}.cls-8{letter-spacing:0em;}.cls-2{font-family:Neue-Regular, Neue;}.cls-2,.cls-3,.cls-5,.cls-6{font-size:30.49px;}.cls-3{font-family:NeueDisplay-Random, 'Neue Display';}.cls-9{letter-spacing:0em;}.cls-4{font-size:15.25px;}.cls-4,.cls-5{font-family:Neue-Bold, Neue;font-weight:700;}.cls-10{letter-spacing:-.02em;}.cls-11{letter-spacing:0em;}.cls-12{letter-spacing:0em;}.cls-13{letter-spacing:0em;}.cls-14{letter-spacing:0em;}.cls-15{letter-spacing:0em;}.cls-16{letter-spacing:0em;}.cls-17{letter-spacing:0em;}.cls-18{letter-spacing:-.02em;}.cls-6{font-family:Neue-Black, Neue;}.cls-6,.cls-7{font-weight:800;}.cls-7{font-family:NeueDisplay-Black, 'Neue Display';font-size:28.8px;}</style></defs><g><text class="cls-4" transform="translate(.24 13.72)"><tspan class="cls-10" x="0" y="0">N</tspan><tspan x="14.41" y="0">eue </tspan><tspan class="cls-18" x="47.74" y="0">R</tspan><tspan x="58.87" y="0">egular </tspan></text><text class="cls-2" transform="translate(.24 49.3)"><tspan x="0" y="0">ABCDEFGHIJKLMNOPQRSTUVWXYZ</tspan></text><text class="cls-2" transform="translate(.24 85.3)"><tspan x="0" y="0">ab</tspan><tspan class="cls-9" x="40.34" y="0">c</tspan><tspan x="56.93" y="0">de</tspan><tspan class="cls-12" x="95.66" y="0">f</tspan><tspan class="cls-14" x="106.79" y="0">ghijklmnopqrstuvwxyz 1234567890</tspan></text></g><g><text class="cls-4" transform="translate(.24 133.3)"><tspan class="cls-10" x="0" y="0">N</tspan><tspan x="14.41" y="0">eue Bold</tspan></text><text class="cls-5" transform="translate(.24 168.88)"><tspan x="0" y="0">ABCDEFGHIJKLMNOPQRSTUVWXYZ</tspan></text><text class="cls-5" transform="translate(.24 204.88)"><tspan x="0" y="0">ab</tspan><tspan class="cls-16" x="41.29" y="0">c</tspan><tspan x="58.03" y="0">de</tspan><tspan class="cls-13" x="97.55" y="0">f</tspan><tspan class="cls-8" x="109.53" y="0">ghijklmnopqrstuvwxyz 1234567890</tspan></text></g><g><text class="cls-4" transform="translate(.24 252.88)"><tspan class="cls-10" x="0" y="0">N</tspan><tspan x="14.41" y="0">eue Black</tspan></text><text class="cls-6" transform="translate(.24 288.45)"><tspan x="0" y="0">ABCDEFGHIJKLMNOPQRSTUVWXYZ</tspan></text><text class="cls-6" transform="translate(.24 324.45)"><tspan x="0" y="0">ab</tspan><tspan class="cls-11" x="42.45" y="0">c</tspan><tspan x="59.34" y="0">defghijklmnopqrstuvwxyz 1234567890</tspan></text></g><g><text class="cls-4" transform="translate(852.97 13.72)"><tspan class="cls-10" x="0" y="0">N</tspan><tspan x="14.41" y="0">eue Display Black</tspan></text><text class="cls-7" transform="translate(852.97 49.3)"><tspan x="0" y="0">ABCDEFGHIJKLMNOPQRSTUVWXYZ</tspan></text><text class="cls-7" transform="translate(852.97 85.3)"><tspan x="0" y="0">1234567890</tspan></text></g><g><text class="cls-4" transform="translate(852.97 133.3)"><tspan class="cls-10" x="0" y="0">N</tspan><tspan x="14.41" y="0">eue Display </tspan><tspan class="cls-17" x="113.95" y="0">R</tspan><tspan class="cls-15" x="125.22" y="0">andom</tspan></text><path class="cls-1" d="m876.94,163.93h-15.22l-2.26,4.94h-6.5l11.93-24.4h9.33l11.62,24.4h-6.62l-2.29-4.94Zm-12.93-4.97h10.68l-4.36-9.52h-1.92l-4.39,9.52Z"/><text class="cls-3" transform="translate(885.84 168.88)"><tspan x="0" y="0">B</tspan></text><path class="cls-1" d="m933.6,168.3c-1.95.76-4.88,1.07-8.14,1.07-9.61,0-15.04-5.61-15.04-12.72s5.64-12.63,15.59-12.63c2.38,0,5.86.15,7.99.76l-.58,5.46c-2.44-.61-5.03-.85-7.47-.85-6.31,0-9.24,2.75-9.24,7.2s3.26,7.32,9.15,7.32c3.05,0,5.86-.43,7.75-1.04v5.43Z"/><text class="cls-3" transform="translate(934.45 168.88)"><tspan x="0" y="0">D</tspan></text><path class="cls-1" d="m962.05,168.88v-24.4h25.29v5.49h-19.19v4.12h17.05v5.19h-17.05v4.12h19.19v5.49h-25.29Zm35.34-9.3v9.3h-6.1v-24.4h22.24v5.49h-16.14v4.12h14v5.49h-14Zm32.51-5.49h13.39v13.82c-1.95.73-7.11,1.46-10.89,1.46-11.65,0-17.33-5.25-17.33-12.72s5.95-12.63,17.87-12.63c4.42,0,8.33.49,10.74,1.07l-.58,5.15c-2.75-.52-5.61-.95-10.43-.95-8.14,0-11.32,2.84-11.32,7.23,0,4.64,3.48,7.5,10.95,7.5,1.4,0,3.23-.09,5-.24v-4.51h-7.41v-5.19Z"/><text class="cls-3" transform="translate(1045.51 168.88)"><tspan x="0" y="0">H</tspan></text><rect class="cls-1" x="1077.46" y="144.47" width="6.1" height="24.4"/><text class="cls-3" transform="translate(1086.12 168.88)"><tspan x="0" y="0">J</tspan></text><path class="cls-1" d="m1115.8,156.28l17.02,12.6h-9.27l-12.54-9.3h-1.13v9.3h-6.1v-24.4h6.1v9.3h1.1l13.02-9.3h8.85l-17.05,11.8Zm19.48-11.8h6.1v18.61h14.92v5.8h-21.02v-24.4Zm31.44,4.97h-1.19v19.43h-6.1v-24.4h11.99l6.1,19.43h1.34l6.5-19.43h12.14v24.4h-6.1v-19.43h-1.46l-7.08,19.25-.03.18h-9.67l-6.44-19.43Z"/><text class="cls-3" transform="translate(1200.05 168.88)"><tspan x="0" y="0">N</tspan></text><path class="cls-1" d="m1245.18,143.99c8.39,0,14.43,4.33,14.43,12.57s-6.53,12.81-14.46,12.81-14.52-4.3-14.52-12.78c0-7.99,5.95-12.6,14.55-12.6Zm-.09,20.25c4.79,0,8.24-2.44,8.24-7.81,0-4.88-3.45-7.32-8.21-7.32s-8.21,2.38-8.21,7.5,3.45,7.63,8.17,7.63Z"/><text class="cls-3" transform="translate(1260.67 168.88)"><tspan x="0" y="0">P</tspan></text><path class="cls-1" d="m1301.23,143.99c9.61,0,16.41,4.33,16.41,12.57,0,3.66-1.34,6.53-3.57,8.6l4.27,3.72h-6.62l-1.43-1.25c-2.59,1.16-5.73,1.74-9.09,1.74-9.21,0-16.5-4.3-16.5-12.78,0-7.99,6.71-12.6,16.53-12.6Zm-.09,20.25c1.68,0,3.23-.18,4.58-.58l-5.98-5.25h6.65l3.29,2.9c1.07-1.22,1.68-2.84,1.68-4.88,0-4.88-4.21-7.32-10.19-7.32s-10.19,2.38-10.19,7.5,4.21,7.63,10.16,7.63Zm20.03-19.77h15.22c5.77,0,8.63,3.87,8.63,8.33,0,3.54-1.86,6.16-4.36,7.53l4.3,8.54h-6.86l-3.39-7.47h-7.44v7.47h-6.1v-24.4Zm6.1,5.49v6.25h7.93c2.68,0,3.51-1.71,3.51-3.26,0-1.28-.82-2.99-3.51-2.99h-7.93Zm20.09,1.95c0-5.15,5.64-7.93,13.39-7.93,5.22,0,10.43.79,12.35,1.89l-1.16,5.19c-2.04-1.22-7.23-1.86-11.41-1.86-5.15,0-7.14.73-7.14,2.01,0,4.48,20.44.18,20.44,9.94,0,4.36-4.33,8.21-13.57,8.21-4.3,0-9.88-.37-12.41-1.56l.24-5.58c2.53,1.22,7.14,1.92,12.35,1.92s7.32-.95,7.32-2.07c0-4.18-20.41-.06-20.41-10.16Z"/><text class="cls-3" transform="translate(1375.02 168.88)"><tspan x="0" y="0">T</tspan></text><path class="cls-1" d="m1426.17,144.47v12.69c0,6.74-5.61,12.2-13.57,12.2s-13.73-4-13.73-12.2v-12.69h6.1v12.69c0,4.36,2.87,6.62,7.63,6.62s7.47-3.08,7.47-6.62v-12.69h6.1Z"/><text class="cls-3" transform="translate(1428.35 168.88)"><tspan x="0" y="0">V</tspan></text><path class="cls-1" d="m1453.3,144.47h6.8l5.28,19.43h1.43l4.82-19.43h11.47l5.52,19.43h1.43l4.58-19.43h6.92l-6.74,24.4h-10.86l-5.61-19.43h-1.71l-5.12,19.43h-10.86l-7.35-24.4Zm66.79,12.23l10.55,12.17h-7.75l-6.92-8.78-6.92,8.78h-7.81l10.55-12.2-10.55-12.2h7.81l6.89,8.82,6.95-8.82h7.75l-10.55,12.23Zm21.19,4.42l-12.78-16.65h7.11l7.99,10.68h1.22l7.66-10.68h7.23l-12.32,16.38v8.02h-6.1v-7.75Z"/><text class="cls-3" transform="translate(1558.16 168.88)"><tspan x="0" y="0">Z</tspan></text><text class="cls-3" transform="translate(852.97 204.88)"><tspan x="0" y="0">1234567890</tspan></text></g></svg>