<?xml version="1.0" encoding="UTF-8"?><svg id="Layer_1" xmlns="http://www.w3.org/2000/svg" viewBox="0 0 359 87.25"><defs><style>.cls-1{fill:#060606;}.cls-2{fill:#da1716;}</style></defs><path class="cls-1" d="m3.75,20.59v-3.05h355.25v3.05H3.75Z"/><path class="cls-1" d="m3.75,27.4v-3.05h89.07v3.05H3.75Z"/><g><path class="cls-1" d="m7.62,3.32v10.5h-3.39V3.32H0V.27h11.85v3.05h-4.23Z"/><path class="cls-1" d="m25.66,8.65h-8.89v5.17h-3.39V.27h3.39v5.17h8.89V.27h3.39v13.55h-3.39v-5.17Z"/><path class="cls-1" d="m31.14,13.82V.27h9.64v3.05h-6.25v2.29h5.06v2.88h-5.06v2.29h6.25v3.05h-9.64Z"/><path class="cls-1" d="m50.92,5.15h-.51v8.67h-3.39V.27h3.96l7.89,8.47h.51V.27h3.39v13.55h-3.83l-8.03-8.67Z"/><path class="cls-1" d="m64.87,13.82V.27h9.63v3.05h-6.25v2.29h5.06v2.88h-5.06v2.29h6.25v3.05h-9.63Z"/><path class="cls-1" d="m75.33.27h3.78l2.93,10.79h.8l2.68-10.79h6.37l3.07,10.79h.8l2.54-10.79h3.84l-3.74,13.55h-6.03l-3.12-10.79h-.95l-2.85,10.79h-6.03L75.33.27Z"/><path class="cls-1" d="m107.06,4.4c0-2.86,2.29-4.4,5.23-4.4,1.71,0,3.59.44,4.66,1.05l-.64,2.88c-1.13-.68-2.83-1.03-4.13-1.03-1.05,0-1.76.41-1.76,1.12,0,2.2,6.94.97,6.94,5.52,0,2.42-1.73,4.56-5.33,4.56-1.54,0-3.29-.2-4.69-.86l.14-3.1c1.41.68,2.95,1.07,4.66,1.07,1.49,0,1.86-.52,1.86-1.15,0-2.03-6.93-.85-6.93-5.64Z"/><path class="cls-1" d="m129.12,13.63c-1.08.41-2,.46-3.52.46-4.2,0-7.06-3.3-7.06-7.06S121.5.02,125.9.02c1.13,0,2.39.03,3.44.39l-.32,3.08c-1.18-.39-2.03-.44-3.01-.44-2.51,0-3.98,1.47-3.98,3.98s1.68,3.96,4.06,3.96c1.52,0,2-.15,3.03-.49v3.13Z"/><path class="cls-1" d="m143.48,8.65h-8.89v5.17h-3.39V.27h3.39v5.17h8.89V.27h3.39v13.55h-3.39v-5.17Z"/><path class="cls-1" d="m156.31,0c4.66,0,8.01,2.4,8.01,6.98s-3.62,7.11-8.03,7.11-8.06-2.39-8.06-7.1c0-4.44,3.3-6.99,8.08-6.99Zm-.05,11.24c2.66,0,4.57-1.35,4.57-4.34,0-2.71-1.91-4.06-4.56-4.06s-4.56,1.32-4.56,4.17,1.91,4.23,4.54,4.23Z"/><path class="cls-1" d="m173.52,0c4.66,0,8.01,2.4,8.01,6.98s-3.62,7.11-8.03,7.11-8.06-2.39-8.06-7.1c0-4.44,3.3-6.99,8.08-6.99Zm-.05,11.24c2.66,0,4.57-1.35,4.57-4.34,0-2.71-1.91-4.06-4.56-4.06s-4.56,1.32-4.56,4.17,1.91,4.23,4.54,4.23Z"/><path class="cls-1" d="m182.99.27h3.39v10.33h10.48v3.22h-13.87V.27Z"/></g><g><path class="cls-2" d="m96.64,24.33h15.42v47.03h27.68v14.65h-43.1V24.33Z"/><path class="cls-2" d="m184.14,74.22h-22.59l-4.24,11.8h-16.42l24.75-61.68h15.88l23.21,61.68h-16.73l-3.85-11.8Zm-18.12-12.57h14.11l-6.63-20.59-7.48,20.59Z"/><path class="cls-2" d="m226.78,42.76h-3.85v43.25h-15.42V24.33h21.67l40.79,38.94h3.85V24.33h15.42v61.68h-18.66l-43.79-43.25Z"/><path class="cls-2" d="m329.32,49.78h29.22v33.23c-4.78,2.31-14.65,4.24-24.52,4.24-24.13,0-39.17-12.03-39.17-32,0-18.81,14.11-32.15,39.94-32.15,10.1,0,19.28,1.62,24.21,3.55l-1.23,13.42c-6.25-2.31-13.11-3.39-23.13-3.39-16.34,0-23.9,6.48-23.9,18.2s7.79,18.89,23.52,18.89c2.77,0,5.94-.15,9.17-.46v-10.41h-14.11v-13.11Z"/></g></svg>