<svg width="359" height="88" viewBox="0 0 359 88" fill="none" xmlns="http://www.w3.org/2000/svg">
<g clip-path="url(#clip0_60_457)">
<path d="M3.75 20.59V17.54H359V20.59H3.75Z" fill="#060606"/>
<path d="M3.75 27.4001V24.3501H92.82V27.4001H3.75Z" fill="#060606"/>
<path d="M7.62 3.32002V13.82H4.23V3.32002H0V0.27002H11.85V3.32002H7.62Z" fill="#060606"/>
<path d="M25.6599 8.65002H16.7699V13.82H13.3799V0.27002H16.7699V5.44002H25.6599V0.27002H29.0499V13.82H25.6599V8.65002Z" fill="#060606"/>
<path d="M31.1401 13.82V0.27002H40.7801V3.32002H34.5301V5.61002H39.5901V8.49002H34.5301V10.78H40.7801V13.83H31.1401V13.82Z" fill="#060606"/>
<path d="M50.92 5.15002H50.41V13.82H47.02V0.27002H50.98L58.87 8.74002H59.38V0.27002H62.77V13.82H58.94L50.91 5.15002H50.92Z" fill="#060606"/>
<path d="M64.8701 13.82V0.27002H74.5001V3.32002H68.2501V5.61002H73.3101V8.49002H68.2501V10.78H74.5001V13.83H64.8701V13.82Z" fill="#060606"/>
<path d="M75.3301 0.27002H79.1101L82.0401 11.06H82.8401L85.5201 0.27002H91.8901L94.9601 11.06H95.7601L98.3001 0.27002H102.14L98.4001 13.82H92.3701L89.2501 3.03002H88.3001L85.4501 13.82H79.4201L75.3301 0.27002Z" fill="#060606"/>
<path d="M107.06 4.4C107.06 1.54 109.35 0 112.29 0C114 0 115.88 0.44 116.95 1.05L116.31 3.93C115.18 3.25 113.48 2.9 112.18 2.9C111.13 2.9 110.42 3.31 110.42 4.02C110.42 6.22 117.36 4.99 117.36 9.54C117.36 11.96 115.63 14.1 112.03 14.1C110.49 14.1 108.74 13.9 107.34 13.24L107.48 10.14C108.89 10.82 110.43 11.21 112.14 11.21C113.63 11.21 114 10.69 114 10.06C114 8.03 107.07 9.21 107.07 4.42L107.06 4.4Z" fill="#060606"/>
<path d="M129.12 13.63C128.04 14.04 127.12 14.09 125.6 14.09C121.4 14.09 118.54 10.79 118.54 7.03002C118.54 3.27002 121.5 0.0200195 125.9 0.0200195C127.03 0.0200195 128.29 0.0500195 129.34 0.41002L129.02 3.49002C127.84 3.10002 126.99 3.05002 126.01 3.05002C123.5 3.05002 122.03 4.52002 122.03 7.03002C122.03 9.54002 123.71 10.99 126.09 10.99C127.61 10.99 128.09 10.84 129.12 10.5V13.63Z" fill="#060606"/>
<path d="M143.48 8.65002H134.59V13.82H131.2V0.27002H134.59V5.44002H143.48V0.27002H146.87V13.82H143.48V8.65002Z" fill="#060606"/>
<path d="M156.31 0C160.97 0 164.32 2.4 164.32 6.98C164.32 11.56 160.7 14.09 156.29 14.09C151.88 14.09 148.23 11.7 148.23 6.99C148.23 2.55 151.53 0 156.31 0ZM156.26 11.24C158.92 11.24 160.83 9.89 160.83 6.9C160.83 4.19 158.92 2.84 156.27 2.84C153.62 2.84 151.71 4.16 151.71 7.01C151.71 9.86 153.62 11.24 156.25 11.24H156.26Z" fill="#060606"/>
<path d="M173.52 0C178.18 0 181.53 2.4 181.53 6.98C181.53 11.56 177.91 14.09 173.5 14.09C169.09 14.09 165.44 11.7 165.44 6.99C165.44 2.55 168.74 0 173.52 0ZM173.47 11.24C176.13 11.24 178.04 9.89 178.04 6.9C178.04 4.19 176.13 2.84 173.48 2.84C170.83 2.84 168.92 4.16 168.92 7.01C168.92 9.86 170.83 11.24 173.46 11.24H173.47Z" fill="#060606"/>
<path d="M182.99 0.27002H186.38V10.6H196.86V13.82H182.99V0.27002Z" fill="#060606"/>
<path d="M96.6401 24.3301H112.06V71.3601H139.74V86.0101H96.6401V24.3301Z" fill="#E82E21"/>
<path d="M184.14 74.2201H161.55L157.31 86.0201H140.89L165.64 24.3401H181.52L204.73 86.0201H188L184.15 74.2201H184.14ZM166.02 61.6501H180.13L173.5 41.0601L166.02 61.6501Z" fill="#E82E21"/>
<path d="M226.78 42.7601H222.93V86.0101H207.51V24.3301H229.18L269.97 63.2701H273.82V24.3301H289.24V86.0101H270.58L226.79 42.7601H226.78Z" fill="#E82E21"/>
<path d="M329.32 49.7801H358.54V83.0101C353.76 85.3201 343.89 87.2501 334.02 87.2501C309.89 87.2501 294.85 75.2201 294.85 55.2501C294.85 36.4401 308.96 23.1001 334.79 23.1001C344.89 23.1001 354.07 24.7201 359 26.6501L357.77 40.0701C351.52 37.7601 344.66 36.6801 334.64 36.6801C318.3 36.6801 310.74 43.1601 310.74 54.8801C310.74 66.6001 318.53 73.7701 334.26 73.7701C337.03 73.7701 340.2 73.6201 343.43 73.3101V62.9001H329.32V49.7901V49.7801Z" fill="#E82E21"/>
</g>
<defs>
<clipPath id="clip0_60_457">
<rect width="359" height="87.25" fill="white"/>
</clipPath>
</defs>
</svg>
