<svg width="948" height="93" viewBox="0 0 948 93" fill="none" xmlns="http://www.w3.org/2000/svg">
<g clip-path="url(#clip0_52_224)">
<path d="M36 82.5C55.8792 82.5 72 66.3846 72 46.5C72 26.6154 55.8792 10.5 36 10.5C16.1208 10.5 0 26.6154 0 46.5C0 66.3846 16.1154 82.5 36 82.5Z" fill="#E02926"/>
<path d="M13.1384 47.6939C13.0849 47.8277 12.951 47.8812 12.7476 47.8812C12.1104 49.3268 10.8362 51.2757 9.46558 52.5124C9.20324 52.2876 8.7535 51.9503 8.4751 51.7789C9.82429 50.6332 11.0236 48.7968 11.5857 47.2816L13.1437 47.6939H13.1384ZM25.6774 45.7986H20.2806V53.9687C20.2806 55.4303 19.6434 55.5642 16.6238 55.5642C16.5703 55.1894 16.3615 54.6647 16.1741 54.2899C16.6452 54.3113 17.0896 54.3113 17.4858 54.3113C18.4745 54.3113 18.9689 54.1989 18.9689 53.974V45.8039H15.9332V46.9871C15.9332 49.6855 15.537 53.1335 11.7357 55.7034C11.5269 55.4196 11.0985 54.9913 10.7773 54.7879C14.3591 52.4428 14.675 49.3322 14.675 46.9711V45.8093H8.86594V44.5886H16.5703V41.7403H10.7398V40.5249H16.5703V38.2013L18.2193 38.2923C18.2032 38.4262 18.1069 38.5172 17.8606 38.5547V40.5249H24.1783V41.7403H17.8606V44.5886H25.6774V45.8093V45.7986ZM22.8291 47.2977C24.0444 48.7807 25.4525 50.8045 26.0736 52.0948C25.7898 52.2287 25.5114 52.3572 24.8528 52.6945C24.2746 51.3988 22.9201 49.3215 21.7047 47.8009L22.8291 47.2923V47.2977Z" fill="white"/>
<path d="M30.0944 40.7017C30.057 40.873 29.8482 40.9854 29.5858 41.0015C29.361 42.4042 29.2271 44.0961 29.2271 45.6701C29.2271 46.3608 29.2646 47.0354 29.3021 47.635C29.5269 50.8206 30.8172 52.7534 32.2628 52.732C33.0124 52.732 33.9868 50.8206 34.6614 48.7219C34.9237 48.9842 35.4323 49.3429 35.7482 49.525C34.8862 52.0574 33.7994 54.1187 32.2414 54.1562C29.8589 54.1936 28.2099 51.3079 27.9475 47.71C27.894 46.9979 27.8726 46.2109 27.8726 45.365C27.8726 43.7159 27.9636 41.917 28.151 40.3215L30.0837 40.6963L30.0944 40.7017ZM42.521 49.4179C41.9963 46.1413 40.3259 43.7748 37.7988 42.3721L38.6233 41.3602C41.3592 42.8218 43.3669 45.5202 43.9077 48.9896L42.521 49.4179Z" fill="white"/>
<path d="M51.4783 52.3625C51.232 51.538 50.9322 50.7135 50.6323 49.98L51.6068 49.6963C52.2653 51.1954 52.8649 53.1281 53.0684 54.4024L52.019 54.7183C51.9655 54.3221 51.8691 53.8563 51.7406 53.353C49.5455 53.7653 47.3557 54.1186 45.9101 54.3435C45.8727 54.4934 45.7763 54.5898 45.6478 54.6272L45.1445 53.2245L48.5015 52.7908V48.4809H47.0184V49.5142H46.0065V41.7189H48.5015V38.3459L49.9845 38.4369C49.9684 38.5493 49.8721 38.6403 49.6258 38.6832V41.7189H52.1957V48.4863H49.6258V52.6302L51.4836 52.3679L51.4783 52.3625ZM47.0184 42.7843V47.4315H48.5764V42.7843H47.0184ZM51.1624 47.4315V42.7843H49.5294V47.4315H51.1624ZM61.0779 44.4708V42.2382H54.1606V44.4708H52.9988V41.1139H56.859V38.1692L58.4545 38.2816C58.4331 38.4155 58.342 38.5065 58.0958 38.5279V41.1139H62.2772V44.4708H61.0779ZM55.6062 52.9782C55.6062 53.6903 55.7935 53.8402 56.768 53.8402H60.2373C61.1207 53.8402 61.2706 53.3905 61.3617 51.0508C61.6615 51.2543 62.1487 51.4631 62.486 51.538C62.32 54.215 61.9613 54.986 60.3123 54.986H56.693C54.9101 54.986 54.4229 54.5737 54.4229 52.9622V44.0425L55.9809 44.1549C55.9649 44.2888 55.8685 44.3798 55.6062 44.4012V48.3203C57.5175 47.5333 59.5627 46.5374 60.762 45.6594L61.7364 46.7302C61.6829 46.7837 61.5491 46.8212 61.3777 46.7837C60.0071 47.6671 57.6835 48.6415 55.6062 49.4286V52.9889V52.9782Z" fill="white"/>
</g>
<path d="M95.5 10.668V14H93.26V4.2C93.6893 4.2 94.1607 4.19533 94.674 4.186C95.1967 4.17667 95.724 4.172 96.256 4.172C97.6373 4.172 98.6453 4.48 99.28 5.096C99.9053 5.69333 100.218 6.468 100.218 7.42C100.218 8.33467 99.8867 9.114 99.224 9.758C98.5613 10.3927 97.684 10.71 96.592 10.71C96.1067 10.71 95.7427 10.696 95.5 10.668ZM96.48 6.272C96.4707 6.272 96.4287 6.27667 96.354 6.286C96.2793 6.286 96.1627 6.29067 96.004 6.3C95.8453 6.3 95.6773 6.3 95.5 6.3V8.54C95.892 8.58667 96.2327 8.61 96.522 8.61C96.9047 8.61 97.2173 8.512 97.46 8.316C97.712 8.11067 97.838 7.80733 97.838 7.406C97.838 6.65 97.3853 6.272 96.48 6.272ZM101.713 9.674L101.195 8.148C101.867 7.73733 102.647 7.532 103.533 7.532C104.448 7.532 105.111 7.75133 105.521 8.19C105.941 8.62867 106.151 9.30067 106.151 10.206V14H104.331V13.426C104.023 13.8647 103.473 14.084 102.679 14.084C102.082 14.084 101.601 13.9067 101.237 13.552C100.873 13.1973 100.691 12.712 100.691 12.096C100.691 11.4333 100.897 10.92 101.307 10.556C101.727 10.192 102.278 10.01 102.959 10.01C103.491 10.01 103.902 10.1267 104.191 10.36C104.238 9.64133 103.949 9.282 103.323 9.282C102.894 9.282 102.357 9.41267 101.713 9.674ZM103.393 12.334C103.767 12.334 104.033 12.2267 104.191 12.012V11.62C103.995 11.48 103.729 11.41 103.393 11.41C103.216 11.41 103.071 11.452 102.959 11.536C102.847 11.62 102.791 11.7367 102.791 11.886C102.791 12.026 102.847 12.138 102.959 12.222C103.071 12.2967 103.216 12.334 103.393 12.334ZM109.649 14H107.549V7.7H109.649V8.19C110.06 7.78867 110.578 7.588 111.203 7.588C112.911 7.588 113.765 8.47467 113.765 10.248V14H111.665V10.612C111.665 10.2667 111.572 10.0053 111.385 9.828C111.208 9.64133 110.956 9.548 110.629 9.548C110.265 9.548 109.939 9.69267 109.649 9.982V14ZM115.025 11.606V5.95H117.125V7.7H118.875V9.66H117.125V11.508C117.125 11.9747 117.26 12.208 117.531 12.208C117.829 12.208 118.142 12.0867 118.469 11.844L119.099 13.454C118.557 13.93 117.853 14.168 116.985 14.168C116.303 14.168 115.804 13.958 115.487 13.538C115.179 13.1087 115.025 12.4647 115.025 11.606ZM120.647 13.23C120.013 12.5953 119.695 11.802 119.695 10.85C119.695 9.898 120.013 9.10467 120.647 8.47C121.282 7.84467 122.131 7.532 123.195 7.532C124.259 7.532 125.104 7.84467 125.729 8.47C126.373 9.09533 126.695 9.88867 126.695 10.85C126.695 11.8113 126.373 12.6047 125.729 13.23C125.104 13.8553 124.259 14.168 123.195 14.168C122.131 14.168 121.282 13.8553 120.647 13.23ZM121.935 10.85C121.935 11.242 122.052 11.5687 122.285 11.83C122.528 12.082 122.831 12.208 123.195 12.208C123.569 12.208 123.872 12.0867 124.105 11.844C124.339 11.592 124.455 11.2607 124.455 10.85C124.455 10.458 124.334 10.136 124.091 9.884C123.858 9.62267 123.559 9.492 123.195 9.492C122.831 9.492 122.528 9.618 122.285 9.87C122.052 10.1127 121.935 10.4393 121.935 10.85ZM129.979 14H127.879V7.7H129.979V8.19C130.39 7.78867 130.908 7.588 131.533 7.588C133.241 7.588 134.095 8.47467 134.095 10.248V14H131.995V10.612C131.995 10.2667 131.902 10.0053 131.715 9.828C131.538 9.64133 131.286 9.548 130.959 9.548C130.595 9.548 130.269 9.69267 129.979 9.982V14ZM140.437 11.97L141.011 13.454C140.376 13.93 139.559 14.168 138.561 14.168C137.534 14.168 136.703 13.8647 136.069 13.258C135.453 12.6513 135.145 11.8487 135.145 10.85C135.145 9.898 135.457 9.10933 136.083 8.484C136.717 7.84933 137.543 7.532 138.561 7.532C139.391 7.532 140.11 7.812 140.717 8.372C141.314 8.91333 141.613 9.62267 141.613 10.5C141.613 10.92 141.571 11.27 141.487 11.55H137.315C137.501 12.1287 137.991 12.418 138.785 12.418C139.401 12.418 139.951 12.2687 140.437 11.97ZM138.491 9.282C137.875 9.282 137.459 9.57133 137.245 10.15H139.513C139.513 9.90733 139.419 9.702 139.233 9.534C139.046 9.366 138.799 9.282 138.491 9.282ZM149.835 14V11.55H145.313V10.752L149.373 4.2H150.661L146.783 10.43H149.835V7.7H150.955V10.43H152.313V11.55H150.955V14H149.835ZM156.72 8.4H157.084C157.91 8.4 158.652 7.686 158.652 6.79C158.652 5.768 157.826 5.18 156.874 5.18C155.908 5.18 155.138 5.81 155.138 6.79C155.138 7.686 155.88 8.4 156.72 8.4ZM157.07 9.52H156.762C155.726 9.52 154.83 10.234 154.83 11.256C154.83 12.278 155.698 13.02 156.888 13.02C158.148 13.02 158.96 12.306 158.96 11.256C158.946 10.15 158.092 9.52 157.07 9.52ZM156.902 14.14C155.138 14.14 153.64 13.132 153.64 11.466C153.64 10.248 154.396 9.296 155.488 8.988V8.946C154.634 8.652 153.948 7.714 153.948 6.622C153.948 5.082 155.264 4.06 156.888 4.06C158.512 4.06 159.842 5.082 159.842 6.622C159.842 7.574 159.24 8.54 158.232 8.932V8.974C159.31 9.156 160.15 10.08 160.15 11.382C160.15 13.132 158.666 14.14 156.902 14.14ZM162.443 9.128L163.059 4.2H167.483V5.32H164.039L163.675 7.966C163.885 7.91 164.179 7.868 164.459 7.868C166.237 7.868 167.553 9.044 167.553 10.906C167.553 12.936 166.097 14.14 164.361 14.14C163.311 14.14 162.135 13.678 161.547 12.656L162.191 11.83C162.667 12.6 163.591 13.02 164.389 13.02C165.509 13.02 166.363 12.152 166.363 10.948C166.363 9.772 165.439 8.876 163.983 8.876C163.395 8.876 162.765 9.002 162.443 9.128ZM179.708 12.152L180.184 13.048C179.526 13.72 178.308 14.14 177.09 14.14C174.15 14.14 172.12 12.152 172.12 9.1C172.12 6.286 173.94 4.06 177.006 4.06C178.266 4.06 179.288 4.41 179.988 5.012L179.442 5.908C178.798 5.432 178.042 5.18 177.02 5.18C174.892 5.18 173.38 6.776 173.38 9.1C173.38 11.438 174.934 13.02 177.202 13.02C178.14 13.02 179.036 12.698 179.708 12.152Z" fill="#E02926"/>
<path d="M100.036 35.354L100.89 37.034C100.591 37.37 100.148 37.6453 99.56 37.86C98.9813 38.0653 98.3607 38.168 97.698 38.168C96.1767 38.168 94.94 37.706 93.988 36.782C93.036 35.8393 92.56 34.612 92.56 33.1C92.56 31.6253 93.008 30.412 93.904 29.46C94.8 28.508 96.06 28.032 97.684 28.032C98.3 28.032 98.874 28.1253 99.406 28.312C99.938 28.4987 100.363 28.746 100.68 29.054L99.686 30.734C99.0327 30.3327 98.3653 30.132 97.684 30.132C96.8907 30.132 96.2327 30.3933 95.71 30.916C95.1967 31.4293 94.94 32.1573 94.94 33.1C94.94 33.9587 95.2153 34.6727 95.766 35.242C96.3167 35.7927 97.0307 36.068 97.908 36.068C98.692 36.068 99.4013 35.83 100.036 35.354ZM104.674 38H102.434V28.2H104.688L107.712 32.33L110.568 28.2H112.682V38H110.442V31.756L107.712 35.578H107.39L104.674 31.798V38ZM120.677 28.2H123.099L119.627 34.01V38H117.387V34.01L113.943 28.2H116.505L118.605 31.91L120.677 28.2ZM126.604 38H124.364V28.2H126.604V32.47L129.81 28.2H132.498L128.816 32.722L132.792 38H129.95L126.604 33.338V38ZM136.711 33.1C136.711 30.16 137.677 28.088 139.889 28.088C142.101 28.088 143.067 30.16 143.067 33.1C143.067 36.054 142.129 38.112 139.917 38.112C137.705 38.112 136.711 36.054 136.711 33.1ZM137.901 33.1C137.901 35.62 138.531 37.062 139.917 37.062C141.345 37.062 141.877 35.634 141.877 33.1C141.877 30.566 141.317 29.138 139.889 29.138C138.461 29.138 137.901 30.594 137.901 33.1ZM154.002 31.742C154.002 35.452 151.86 37.79 149.102 38.14L148.724 37.258C150.908 36.838 152.378 35.34 152.686 33.016C152.294 33.744 151.538 34.234 150.474 34.234C148.766 34.234 147.548 32.918 147.548 31.224C147.548 29.292 149.144 28.06 150.67 28.06C152.854 28.06 154.002 29.656 154.002 31.742ZM152.812 31.742C152.812 30.412 152.154 29.18 150.684 29.18C149.606 29.18 148.738 30.09 148.738 31.14C148.738 32.204 149.438 33.184 150.754 33.184C151.902 33.184 152.588 32.442 152.812 31.742ZM156.085 33.128L156.701 28.2H161.125V29.32H157.681L157.317 31.966C157.527 31.91 157.821 31.868 158.101 31.868C159.879 31.868 161.195 33.044 161.195 34.906C161.195 36.936 159.739 38.14 158.003 38.14C156.953 38.14 155.777 37.678 155.189 36.656L155.833 35.83C156.309 36.6 157.233 37.02 158.031 37.02C159.151 37.02 160.005 36.152 160.005 34.948C160.005 33.772 159.081 32.876 157.625 32.876C157.037 32.876 156.407 33.002 156.085 33.128ZM165.553 29.964L167.905 28.144H168.689V38H167.569V29.754L166.141 30.874L165.553 29.964ZM171.137 33.1C171.137 30.16 172.103 28.088 174.315 28.088C176.527 28.088 177.493 30.16 177.493 33.1C177.493 36.054 176.555 38.112 174.343 38.112C172.131 38.112 171.137 36.054 171.137 33.1ZM172.327 33.1C172.327 35.62 172.957 37.062 174.343 37.062C175.771 37.062 176.303 35.634 176.303 33.1C176.303 30.566 175.743 29.138 174.315 29.138C172.887 29.138 172.327 30.594 172.327 33.1ZM179.04 33.1C179.04 30.16 180.006 28.088 182.218 28.088C184.43 28.088 185.396 30.16 185.396 33.1C185.396 36.054 184.458 38.112 182.246 38.112C180.034 38.112 179.04 36.054 179.04 33.1ZM180.23 33.1C180.23 35.62 180.86 37.062 182.246 37.062C183.674 37.062 184.206 35.634 184.206 33.1C184.206 30.566 183.646 29.138 182.218 29.138C180.79 29.138 180.23 30.594 180.23 33.1ZM190.086 33.1C190.086 30.16 191.052 28.088 193.264 28.088C195.476 28.088 196.442 30.16 196.442 33.1C196.442 36.054 195.504 38.112 193.292 38.112C191.08 38.112 190.086 36.054 190.086 33.1ZM191.276 33.1C191.276 35.62 191.906 37.062 193.292 37.062C194.72 37.062 195.252 35.634 195.252 33.1C195.252 30.566 194.692 29.138 193.264 29.138C191.836 29.138 191.276 30.594 191.276 33.1Z" fill="#E02926"/>
<path d="M95.5 58.57V62H93.26V52.2C93.792 52.2 94.38 52.1953 95.024 52.186C95.668 52.1767 96.1907 52.172 96.592 52.172C99.0093 52.172 100.218 53.2173 100.218 55.308C100.218 56.652 99.6673 57.5947 98.566 58.136L101.422 62H98.706L96.326 58.57H95.5ZM96.48 54.272C96.4707 54.272 96.4287 54.2767 96.354 54.286C96.2793 54.286 96.1627 54.2907 96.004 54.3C95.8453 54.3 95.6773 54.3 95.5 54.3V56.47H96.312C97.3293 56.47 97.838 56.092 97.838 55.336C97.838 54.6267 97.3853 54.272 96.48 54.272ZM108.374 58.514H106.288V56.414H110.474V60.782C110.054 61.202 109.494 61.538 108.794 61.79C108.113 62.042 107.45 62.168 106.806 62.168C105.163 62.168 103.875 61.7107 102.942 60.796C102.018 59.8813 101.556 58.6493 101.556 57.1C101.556 55.6533 102.009 54.4493 102.914 53.488C103.829 52.5173 105.033 52.032 106.526 52.032C107.814 52.032 108.883 52.3727 109.732 53.054L108.794 54.86C108.598 54.6547 108.309 54.482 107.926 54.342C107.553 54.202 107.175 54.132 106.792 54.132C105.924 54.132 105.229 54.3887 104.706 54.902C104.193 55.4153 103.936 56.148 103.936 57.1C103.936 58.0053 104.197 58.7287 104.72 59.27C105.252 59.802 105.957 60.068 106.834 60.068C107.095 60.068 107.389 60.0167 107.716 59.914C108.024 59.8113 108.243 59.6993 108.374 59.578V58.514ZM112.428 61.972V52.228C113.52 52.172 114.509 52.144 115.396 52.144C116.479 52.144 117.295 52.3633 117.846 52.802C118.406 53.2313 118.686 53.824 118.686 54.58C118.686 55.5413 118.313 56.2693 117.566 56.764V56.792C117.986 56.9507 118.322 57.2213 118.574 57.604C118.835 57.9867 118.966 58.4627 118.966 59.032C118.966 60.012 118.621 60.7633 117.93 61.286C117.249 61.7993 116.353 62.056 115.242 62.056C113.945 62.056 113.007 62.028 112.428 61.972ZM115.536 58.038H114.668V59.872C114.873 59.928 115.125 59.956 115.424 59.956C116.292 59.956 116.726 59.6107 116.726 58.92C116.726 58.332 116.329 58.038 115.536 58.038ZM115.368 54.244C115.2 54.244 114.967 54.2627 114.668 54.3V56.078H115.41C116.101 56.078 116.446 55.7607 116.446 55.126C116.446 54.8553 116.343 54.6407 116.138 54.482C115.933 54.3233 115.676 54.244 115.368 54.244ZM123.583 62V61.09C125.179 59.522 127.965 56.876 127.965 54.79C127.965 53.922 127.433 53.208 126.369 53.208C125.585 53.208 124.815 53.726 124.619 54.776L123.667 54.384C123.905 52.928 125.095 52.088 126.467 52.088C128.301 52.088 129.155 53.348 129.155 54.566C129.155 57.31 125.823 60.264 125.039 60.95H129.561V62H123.583ZM130.826 53.964L133.178 52.144H133.962V62H132.842V53.754L131.414 54.874L130.826 53.964ZM139.631 56.4H139.995C140.821 56.4 141.563 55.686 141.563 54.79C141.563 53.768 140.737 53.18 139.785 53.18C138.819 53.18 138.049 53.81 138.049 54.79C138.049 55.686 138.791 56.4 139.631 56.4ZM139.981 57.52H139.673C138.637 57.52 137.741 58.234 137.741 59.256C137.741 60.278 138.609 61.02 139.799 61.02C141.059 61.02 141.871 60.306 141.871 59.256C141.857 58.15 141.003 57.52 139.981 57.52ZM139.813 62.14C138.049 62.14 136.551 61.132 136.551 59.466C136.551 58.248 137.307 57.296 138.399 56.988V56.946C137.545 56.652 136.859 55.714 136.859 54.622C136.859 53.082 138.175 52.06 139.799 52.06C141.423 52.06 142.753 53.082 142.753 54.622C142.753 55.574 142.151 56.54 141.143 56.932V56.974C142.221 57.156 143.061 58.08 143.061 59.382C143.061 61.132 141.577 62.14 139.813 62.14ZM151.913 62V59.55H147.391V58.752L151.451 52.2H152.739L148.861 58.43H151.913V55.7H153.033V58.43H154.391V59.55H153.033V62H151.913ZM155.299 53.964L157.651 52.144H158.435V62H157.315V53.754L155.887 54.874L155.299 53.964ZM163.888 62V61.09C165.484 59.522 168.27 56.876 168.27 54.79C168.27 53.922 167.738 53.208 166.674 53.208C165.89 53.208 165.12 53.726 164.924 54.776L163.972 54.384C164.21 52.928 165.4 52.088 166.772 52.088C168.606 52.088 169.46 53.348 169.46 54.566C169.46 57.31 166.128 60.264 165.344 60.95H169.866V62H163.888ZM174.631 56.4H174.995C175.821 56.4 176.563 55.686 176.563 54.79C176.563 53.768 175.737 53.18 174.785 53.18C173.819 53.18 173.049 53.81 173.049 54.79C173.049 55.686 173.791 56.4 174.631 56.4ZM174.981 57.52H174.673C173.637 57.52 172.741 58.234 172.741 59.256C172.741 60.278 173.609 61.02 174.799 61.02C176.059 61.02 176.871 60.306 176.871 59.256C176.857 58.15 176.003 57.52 174.981 57.52ZM174.813 62.14C173.049 62.14 171.551 61.132 171.551 59.466C171.551 58.248 172.307 57.296 173.399 56.988V56.946C172.545 56.652 171.859 55.714 171.859 54.622C171.859 53.082 173.175 52.06 174.799 52.06C176.423 52.06 177.753 53.082 177.753 54.622C177.753 55.574 177.151 56.54 176.143 56.932V56.974C177.221 57.156 178.061 58.08 178.061 59.382C178.061 61.132 176.577 62.14 174.813 62.14Z" fill="#E02926"/>
<path d="M97.936 86.168L96.326 85.594L97.026 83.69H95.346L94.422 86.168L92.798 85.608L93.512 83.69H92.56V81.87H94.184L94.758 80.33H92.56V78.51H95.43L96.354 76.032L97.978 76.62L97.278 78.51H98.93L99.854 76.032L101.478 76.592L100.764 78.51H101.856V80.33H100.092L99.518 81.87H101.856V83.69H98.846L97.936 86.168ZM98.258 80.33H96.592L96.018 81.87H97.698L98.258 80.33ZM103.916 86H103.678V76.2H103.874C104.294 76.2 104.761 76.1953 105.274 76.186C105.47 76.186 105.685 76.186 105.918 76.186C106.161 76.1767 106.347 76.172 106.478 76.172C106.609 76.1627 106.707 76.158 106.772 76.158C108.611 76.158 109.987 76.6153 110.902 77.53C111.817 78.4447 112.274 79.6067 112.274 81.016C112.274 82.4627 111.784 83.662 110.804 84.614C109.833 85.5567 108.452 86.028 106.66 86.028C106.296 86.028 105.89 86.0233 105.442 86.014C104.994 86.0047 104.485 86 103.916 86ZM106.744 78.258C106.38 78.258 106.105 78.272 105.918 78.3V83.9C106.179 83.9187 106.45 83.928 106.73 83.928C107.719 83.928 108.494 83.6713 109.054 83.158C109.614 82.6447 109.894 81.9307 109.894 81.016C109.894 80.148 109.609 79.4713 109.04 78.986C108.471 78.5007 107.705 78.258 106.744 78.258ZM114.748 86H112.494L116.568 76.2H118.57L122.644 86H120.25L119.438 83.942H115.56L114.748 86ZM118.598 81.842L117.506 79.07L116.4 81.842H118.598ZM129.387 86H123.059V84.32C123.068 84.3107 123.297 84.0913 123.745 83.662L124.515 82.892C124.683 82.7053 124.907 82.472 125.187 82.192C125.504 81.856 125.728 81.59 125.859 81.394L126.321 80.68C126.647 80.1853 126.811 79.6767 126.811 79.154C126.811 78.51 126.512 78.188 125.915 78.188C125.644 78.188 125.429 78.2767 125.271 78.454C125.112 78.622 124.967 78.8833 124.837 79.238L123.087 78.44C123.255 77.7027 123.6 77.1287 124.123 76.718C124.655 76.298 125.336 76.088 126.167 76.088C127.072 76.088 127.777 76.3447 128.281 76.858C128.794 77.3713 129.051 77.9967 129.051 78.734C129.051 80.5913 127.959 82.36 125.775 84.04H129.387V86ZM137.219 79.812C137.219 81.6413 136.734 83.1207 135.763 84.25C134.792 85.3793 133.56 86.0187 132.067 86.168L131.381 84.502C133.145 84.1193 134.26 83.256 134.727 81.912C134.344 82.2667 133.836 82.444 133.201 82.444C132.398 82.444 131.698 82.1547 131.101 81.576C130.522 80.9973 130.233 80.2693 130.233 79.392C130.233 78.356 130.574 77.5393 131.255 76.942C131.946 76.3353 132.73 76.032 133.607 76.032C134.69 76.032 135.562 76.3773 136.225 77.068C136.888 77.7587 137.219 78.6733 137.219 79.812ZM134.979 79.798C134.979 79.3127 134.853 78.916 134.601 78.608C134.349 78.2907 134.013 78.132 133.593 78.132C133.266 78.132 132.996 78.244 132.781 78.468C132.576 78.6827 132.473 78.9393 132.473 79.238C132.473 79.5927 132.59 79.8913 132.823 80.134C133.056 80.3673 133.36 80.484 133.733 80.484C134.246 80.484 134.662 80.2553 134.979 79.798ZM139.005 79.868L137.913 78.132L140.573 76.2H142.085V86H139.985V79.182L139.005 79.868ZM151.388 83.354L152.242 85.034C151.943 85.37 151.5 85.6453 150.912 85.86C150.333 86.0653 149.712 86.168 149.05 86.168C147.528 86.168 146.292 85.706 145.34 84.782C144.388 83.8393 143.912 82.612 143.912 81.1C143.912 79.6253 144.36 78.412 145.256 77.46C146.152 76.508 147.412 76.032 149.036 76.032C149.652 76.032 150.226 76.1253 150.758 76.312C151.29 76.4987 151.714 76.746 152.032 77.054L151.038 78.734C150.384 78.3327 149.717 78.132 149.036 78.132C148.242 78.132 147.584 78.3933 147.062 78.916C146.548 79.4293 146.292 80.1573 146.292 81.1C146.292 81.9587 146.567 82.6727 147.118 83.242C147.668 83.7927 148.382 84.068 149.26 84.068C150.044 84.068 150.753 83.83 151.388 83.354Z" fill="#E02926"/>
<g clip-path="url(#clip1_52_224)">
<path d="M249 82.5C268.879 82.5 285 66.3846 285 46.5C285 26.6154 268.879 10.5 249 10.5C229.121 10.5 213 26.6154 213 46.5C213 66.3846 229.115 82.5 249 82.5Z" fill="#00AEEF"/>
<path d="M229.988 42.0722C229.951 42.2061 229.822 42.2971 229.597 42.3185C229.089 45.0383 228.061 47.0407 223.826 48.074C223.692 47.7582 223.376 47.2709 223.135 47.0247C226.995 46.1787 227.991 44.4922 228.345 41.9063L229.994 42.0776L229.988 42.0722ZM232.2 49.7766V53.6957H239.979V54.8789H223.242V53.6957H230.909V49.7766H225.266V48.6148H238.067V49.7766H232.2ZM224.929 41.4726V44.0425H223.676V40.3108H230.909V38.0247L232.58 38.1371C232.558 38.2709 232.446 38.362 232.205 38.3994V40.3108H239.513V44.0425H238.217V41.4726H224.929ZM233.083 41.7564L234.694 41.8474C234.673 41.9812 234.582 42.0722 234.32 42.1097V45.5416C234.32 45.9913 234.454 46.0877 235.278 46.0877H238.11C238.71 46.0877 238.822 45.9164 238.876 44.8135C239.138 45.0009 239.647 45.1722 240 45.2471C239.85 46.8051 239.476 47.196 238.255 47.196H235.16C233.49 47.196 233.083 46.8587 233.083 45.5684V41.7617V41.7564Z" fill="#FCFBE4"/>
<path d="M251.169 41.4566C251.094 41.6279 250.944 41.7564 250.698 41.7564C250.023 47.5868 248.074 52.6624 244.964 52.6624C243.389 52.6624 241.965 51.0883 241.965 48.1276C241.965 43.6303 245.467 39.8611 250.398 39.8611C255.816 39.8611 258.156 43.293 258.156 46.9444C258.156 51.4042 255.57 53.5619 251.035 54.6112C250.864 54.3114 250.548 53.8081 250.248 53.4708C254.558 52.6463 256.769 50.5476 256.769 47.0033C256.769 43.9087 254.783 41.0978 250.398 41.0978C250.21 41.0978 250.007 41.1193 249.836 41.1353L251.169 41.4512V41.4566ZM249.37 41.2103C245.585 41.6814 243.24 44.8081 243.24 48.0901C243.24 50.0978 244.102 51.3507 245.001 51.3507C247.271 51.3507 248.899 46.3447 249.37 41.2103Z" fill="#FCFBE4"/>
<path d="M263.344 52.5499C263.344 53.7492 263.74 54.049 265.855 54.049H273.559C275.417 54.049 275.717 53.5244 275.942 51.1419C276.263 51.3667 276.803 51.5541 277.178 51.6291C276.878 54.4024 276.332 55.2269 273.559 55.2269H265.967C262.985 55.2269 262.069 54.7236 262.069 52.5285V43.9836C261.598 44.3959 261.111 44.8081 260.586 45.1829C260.383 44.8991 259.965 44.4922 259.649 44.2834C262.31 42.447 264.281 39.936 265.33 37.9872L267 38.2709C266.963 38.4048 266.829 38.4958 266.588 38.5172C266.438 38.7796 266.272 39.0419 266.085 39.3203H271.053L271.257 39.2454L272.253 39.8611C272.199 39.936 272.087 39.9949 271.953 40.011C271.519 40.8569 270.882 41.8688 270.229 42.7308H275.701V49.5892H274.426V48.7112H263.349V52.5553L263.344 52.5499ZM263.344 43.8926V47.5493H268.066V43.8926H263.344ZM268.724 42.7308C269.27 42.0937 269.833 41.2317 270.245 40.4446H265.298C264.736 41.1942 264.099 41.9598 263.386 42.7308H268.73H268.724ZM274.421 47.5493V43.8926H269.34V47.5493H274.421Z" fill="#FCFBE4"/>
</g>
<path d="M308.5 10.668V14H306.26V4.2C306.689 4.2 307.161 4.19533 307.674 4.186C308.197 4.17667 308.724 4.172 309.256 4.172C310.637 4.172 311.645 4.48 312.28 5.096C312.905 5.69333 313.218 6.468 313.218 7.42C313.218 8.33467 312.887 9.114 312.224 9.758C311.561 10.3927 310.684 10.71 309.592 10.71C309.107 10.71 308.743 10.696 308.5 10.668ZM309.48 6.272C309.471 6.272 309.429 6.27667 309.354 6.286C309.279 6.286 309.163 6.29067 309.004 6.3C308.845 6.3 308.677 6.3 308.5 6.3V8.54C308.892 8.58667 309.233 8.61 309.522 8.61C309.905 8.61 310.217 8.512 310.46 8.316C310.712 8.11067 310.838 7.80733 310.838 7.406C310.838 6.65 310.385 6.272 309.48 6.272ZM314.713 9.674L314.195 8.148C314.867 7.73733 315.647 7.532 316.533 7.532C317.448 7.532 318.111 7.75133 318.521 8.19C318.941 8.62867 319.151 9.30067 319.151 10.206V14H317.331V13.426C317.023 13.8647 316.473 14.084 315.679 14.084C315.082 14.084 314.601 13.9067 314.237 13.552C313.873 13.1973 313.691 12.712 313.691 12.096C313.691 11.4333 313.897 10.92 314.307 10.556C314.727 10.192 315.278 10.01 315.959 10.01C316.491 10.01 316.902 10.1267 317.191 10.36C317.238 9.64133 316.949 9.282 316.323 9.282C315.894 9.282 315.357 9.41267 314.713 9.674ZM316.393 12.334C316.767 12.334 317.033 12.2267 317.191 12.012V11.62C316.995 11.48 316.729 11.41 316.393 11.41C316.216 11.41 316.071 11.452 315.959 11.536C315.847 11.62 315.791 11.7367 315.791 11.886C315.791 12.026 315.847 12.138 315.959 12.222C316.071 12.2967 316.216 12.334 316.393 12.334ZM322.649 14H320.549V7.7H322.649V8.19C323.06 7.78867 323.578 7.588 324.203 7.588C325.911 7.588 326.765 8.47467 326.765 10.248V14H324.665V10.612C324.665 10.2667 324.572 10.0053 324.385 9.828C324.208 9.64133 323.956 9.548 323.629 9.548C323.265 9.548 322.939 9.69267 322.649 9.982V14ZM328.025 11.606V5.95H330.125V7.7H331.875V9.66H330.125V11.508C330.125 11.9747 330.26 12.208 330.531 12.208C330.829 12.208 331.142 12.0867 331.469 11.844L332.099 13.454C331.557 13.93 330.853 14.168 329.985 14.168C329.303 14.168 328.804 13.958 328.487 13.538C328.179 13.1087 328.025 12.4647 328.025 11.606ZM333.647 13.23C333.013 12.5953 332.695 11.802 332.695 10.85C332.695 9.898 333.013 9.10467 333.647 8.47C334.282 7.84467 335.131 7.532 336.195 7.532C337.259 7.532 338.104 7.84467 338.729 8.47C339.373 9.09533 339.695 9.88867 339.695 10.85C339.695 11.8113 339.373 12.6047 338.729 13.23C338.104 13.8553 337.259 14.168 336.195 14.168C335.131 14.168 334.282 13.8553 333.647 13.23ZM334.935 10.85C334.935 11.242 335.052 11.5687 335.285 11.83C335.528 12.082 335.831 12.208 336.195 12.208C336.569 12.208 336.872 12.0867 337.105 11.844C337.339 11.592 337.455 11.2607 337.455 10.85C337.455 10.458 337.334 10.136 337.091 9.884C336.858 9.62267 336.559 9.492 336.195 9.492C335.831 9.492 335.528 9.618 335.285 9.87C335.052 10.1127 334.935 10.4393 334.935 10.85ZM342.979 14H340.879V7.7H342.979V8.19C343.39 7.78867 343.908 7.588 344.533 7.588C346.241 7.588 347.095 8.47467 347.095 10.248V14H344.995V10.612C344.995 10.2667 344.902 10.0053 344.715 9.828C344.538 9.64133 344.286 9.548 343.959 9.548C343.595 9.548 343.269 9.69267 342.979 9.982V14ZM353.437 11.97L354.011 13.454C353.376 13.93 352.559 14.168 351.561 14.168C350.534 14.168 349.703 13.8647 349.069 13.258C348.453 12.6513 348.145 11.8487 348.145 10.85C348.145 9.898 348.457 9.10933 349.083 8.484C349.717 7.84933 350.543 7.532 351.561 7.532C352.391 7.532 353.11 7.812 353.717 8.372C354.314 8.91333 354.613 9.62267 354.613 10.5C354.613 10.92 354.571 11.27 354.487 11.55H350.315C350.501 12.1287 350.991 12.418 351.785 12.418C352.401 12.418 352.951 12.2687 353.437 11.97ZM351.491 9.282C350.875 9.282 350.459 9.57133 350.245 10.15H352.513C352.513 9.90733 352.419 9.702 352.233 9.534C352.046 9.366 351.799 9.282 351.491 9.282ZM360.693 14H359.503V4.2C360.049 4.2 361.449 4.172 362.065 4.172C364.865 4.172 365.691 5.684 365.691 7.21C365.691 8.806 364.557 10.29 362.163 10.29C361.771 10.29 361.183 10.276 360.693 10.234V14ZM362.177 5.292C361.785 5.292 361.155 5.306 360.693 5.32V9.1C361.169 9.142 361.631 9.17 362.121 9.17C363.563 9.17 364.431 8.428 364.431 7.196C364.431 6.034 363.731 5.292 362.177 5.292ZM366.93 14V7.7H368.05V8.442C368.372 7.966 368.834 7.588 369.632 7.588C370.15 7.588 370.402 7.672 370.612 7.826L370.22 8.876C369.912 8.694 369.744 8.638 369.366 8.638C368.638 8.638 368.288 9.072 368.05 9.534V14H366.93ZM371.268 10.85C371.268 8.96 372.612 7.56 374.628 7.56C376.644 7.56 377.988 8.96 377.988 10.85C377.988 12.74 376.644 14.14 374.628 14.14C372.612 14.14 371.268 12.74 371.268 10.85ZM372.458 10.85C372.458 12.166 373.368 13.09 374.628 13.09C375.888 13.09 376.798 12.194 376.798 10.85C376.798 9.534 375.888 8.61 374.628 8.61C373.396 8.61 372.458 9.52 372.458 10.85ZM384.448 12.278L384.98 13.09C384.448 13.776 383.524 14.14 382.558 14.14C380.556 14.14 379.184 12.838 379.184 10.85C379.184 9.016 380.528 7.56 382.376 7.56C383.384 7.56 384.266 7.798 384.854 8.386L384.336 9.268C383.804 8.778 383.188 8.61 382.53 8.61C381.396 8.61 380.374 9.52 380.374 10.85C380.374 12.236 381.396 13.09 382.642 13.09C383.398 13.09 384.028 12.754 384.448 12.278ZM391.068 12.432L391.418 13.314C390.802 13.874 389.892 14.14 389.052 14.14C387.008 14.14 385.678 12.838 385.678 10.85C385.678 9.016 386.854 7.56 388.926 7.56C390.55 7.56 391.852 8.708 391.852 10.444C391.852 10.752 391.824 11.004 391.782 11.2H386.938C387.036 12.39 387.904 13.09 389.136 13.09C389.948 13.09 390.662 12.81 391.068 12.432ZM388.87 8.61C387.722 8.61 386.994 9.324 386.868 10.29H390.69C390.634 9.254 389.962 8.61 388.87 8.61ZM396.563 12.292C396.563 11.018 393.161 11.648 393.161 9.338C393.161 8.232 394.057 7.56 395.303 7.56C396.339 7.56 397.095 7.938 397.473 8.302L396.941 9.156C396.563 8.82 396.017 8.54 395.359 8.54C394.729 8.54 394.351 8.904 394.351 9.324C394.351 10.654 397.753 10.024 397.753 12.236C397.753 13.566 396.577 14.14 395.317 14.14C394.295 14.14 393.287 13.608 392.993 13.16L393.623 12.362C393.987 12.782 394.813 13.16 395.443 13.16C396.031 13.16 396.563 12.866 396.563 12.292ZM402.579 12.292C402.579 11.018 399.177 11.648 399.177 9.338C399.177 8.232 400.073 7.56 401.319 7.56C402.355 7.56 403.111 7.938 403.489 8.302L402.957 9.156C402.579 8.82 402.033 8.54 401.375 8.54C400.745 8.54 400.367 8.904 400.367 9.324C400.367 10.654 403.769 10.024 403.769 12.236C403.769 13.566 402.593 14.14 401.333 14.14C400.311 14.14 399.303 13.608 399.009 13.16L399.639 12.362C400.003 12.782 400.829 13.16 401.459 13.16C402.047 13.16 402.579 12.866 402.579 12.292ZM415.827 12.152L416.303 13.048C415.645 13.72 414.427 14.14 413.209 14.14C410.269 14.14 408.239 12.152 408.239 9.1C408.239 6.286 410.059 4.06 413.125 4.06C414.385 4.06 415.407 4.41 416.107 5.012L415.561 5.908C414.917 5.432 414.161 5.18 413.139 5.18C411.011 5.18 409.499 6.776 409.499 9.1C409.499 11.438 411.053 13.02 413.321 13.02C414.259 13.02 415.155 12.698 415.827 12.152ZM422.968 7.7L420.448 14C419.524 16.254 418.936 16.8 418.04 16.8C417.564 16.8 417.186 16.632 416.85 16.408L417.214 15.554C417.424 15.652 417.662 15.764 417.914 15.764C418.446 15.764 418.838 15.344 419.258 14.336L419.398 14L416.374 7.7H417.718L419.566 11.704C419.706 12.026 419.818 12.334 419.944 12.656C420.028 12.348 420.126 12.026 420.238 11.69L421.694 7.7H422.968ZM424.455 9.03L424.161 8.134C424.721 7.784 425.477 7.56 426.261 7.56C428.053 7.56 428.683 8.498 428.683 10.136V14H427.619V13.188C427.241 13.664 426.639 14.098 425.603 14.098C424.455 14.098 423.671 13.37 423.671 12.152C423.671 10.864 424.693 10.15 426.051 10.15C426.541 10.15 427.199 10.248 427.619 10.556C427.619 9.38 427.437 8.568 426.191 8.568C425.421 8.568 424.959 8.764 424.455 9.03ZM425.995 13.09C426.821 13.09 427.297 12.656 427.619 12.278V11.48C427.227 11.2 426.751 11.06 426.205 11.06C425.533 11.06 424.861 11.368 424.861 12.096C424.861 12.698 425.267 13.09 425.995 13.09ZM430.559 14V7.7H431.679V8.47C432.113 7.994 432.911 7.588 433.737 7.588C435.375 7.588 436.355 8.386 436.355 10.36V14H435.235V10.57C435.235 9.254 434.633 8.638 433.457 8.638C432.743 8.638 432.085 8.988 431.679 9.45V14H430.559ZM448.667 12.152L449.143 13.048C448.485 13.72 447.267 14.14 446.049 14.14C443.109 14.14 441.079 12.152 441.079 9.1C441.079 6.286 442.899 4.06 445.965 4.06C447.225 4.06 448.247 4.41 448.947 5.012L448.401 5.908C447.757 5.432 447.001 5.18 445.979 5.18C443.851 5.18 442.339 6.776 442.339 9.1C442.339 11.438 443.893 13.02 446.161 13.02C447.099 13.02 447.995 12.698 448.667 12.152Z" fill="#00AEEF"/>
<path d="M313.036 35.354L313.89 37.034C313.591 37.37 313.148 37.6453 312.56 37.86C311.981 38.0653 311.361 38.168 310.698 38.168C309.177 38.168 307.94 37.706 306.988 36.782C306.036 35.8393 305.56 34.612 305.56 33.1C305.56 31.6253 306.008 30.412 306.904 29.46C307.8 28.508 309.06 28.032 310.684 28.032C311.3 28.032 311.874 28.1253 312.406 28.312C312.938 28.4987 313.363 28.746 313.68 29.054L312.686 30.734C312.033 30.3327 311.365 30.132 310.684 30.132C309.891 30.132 309.233 30.3933 308.71 30.916C308.197 31.4293 307.94 32.1573 307.94 33.1C307.94 33.9587 308.215 34.6727 308.766 35.242C309.317 35.7927 310.031 36.068 310.908 36.068C311.692 36.068 312.401 35.83 313.036 35.354ZM317.674 38H315.434V28.2H317.688L320.712 32.33L323.568 28.2H325.682V38H323.442V31.756L320.712 35.578H320.39L317.674 31.798V38ZM333.677 28.2H336.099L332.627 34.01V38H330.387V34.01L326.943 28.2H329.505L331.605 31.91L333.677 28.2ZM339.604 38H337.364V28.2H339.604V32.47L342.81 28.2H345.498L341.816 32.722L345.792 38H342.95L339.604 33.338V38ZM349.431 29.964L351.783 28.144H352.567V38H351.447V29.754L350.019 30.874L349.431 29.964ZM355.016 33.1C355.016 30.16 355.982 28.088 358.194 28.088C360.406 28.088 361.372 30.16 361.372 33.1C361.372 36.054 360.434 38.112 358.222 38.112C356.01 38.112 355.016 36.054 355.016 33.1ZM356.206 33.1C356.206 35.62 356.836 37.062 358.222 37.062C359.65 37.062 360.182 35.634 360.182 33.1C360.182 30.566 359.622 29.138 358.194 29.138C356.766 29.138 356.206 30.594 356.206 33.1ZM362.918 33.1C362.918 30.16 363.884 28.088 366.096 28.088C368.308 28.088 369.274 30.16 369.274 33.1C369.274 36.054 368.336 38.112 366.124 38.112C363.912 38.112 362.918 36.054 362.918 33.1ZM364.108 33.1C364.108 35.62 364.738 37.062 366.124 37.062C367.552 37.062 368.084 35.634 368.084 33.1C368.084 30.566 367.524 29.138 366.096 29.138C364.668 29.138 364.108 30.594 364.108 33.1ZM373.965 33.1C373.965 30.16 374.931 28.088 377.143 28.088C379.355 28.088 380.321 30.16 380.321 33.1C380.321 36.054 379.383 38.112 377.171 38.112C374.959 38.112 373.965 36.054 373.965 33.1ZM375.155 33.1C375.155 35.62 375.785 37.062 377.171 37.062C378.599 37.062 379.131 35.634 379.131 33.1C379.131 30.566 378.571 29.138 377.143 29.138C375.715 29.138 375.155 30.594 375.155 33.1ZM385.012 33.1C385.012 30.16 385.978 28.088 388.19 28.088C390.402 28.088 391.368 30.16 391.368 33.1C391.368 36.054 390.43 38.112 388.218 38.112C386.006 38.112 385.012 36.054 385.012 33.1ZM386.202 33.1C386.202 35.62 386.832 37.062 388.218 37.062C389.646 37.062 390.178 35.634 390.178 33.1C390.178 30.566 389.618 29.138 388.19 29.138C386.762 29.138 386.202 30.594 386.202 33.1ZM396.059 33.1C396.059 30.16 397.025 28.088 399.237 28.088C401.449 28.088 402.415 30.16 402.415 33.1C402.415 36.054 401.477 38.112 399.265 38.112C397.053 38.112 396.059 36.054 396.059 33.1ZM397.249 33.1C397.249 35.62 397.879 37.062 399.265 37.062C400.693 37.062 401.225 35.634 401.225 33.1C401.225 30.566 400.665 29.138 399.237 29.138C397.809 29.138 397.249 30.594 397.249 33.1Z" fill="#00AEEF"/>
<path d="M308.5 58.57V62H306.26V52.2C306.792 52.2 307.38 52.1953 308.024 52.186C308.668 52.1767 309.191 52.172 309.592 52.172C312.009 52.172 313.218 53.2173 313.218 55.308C313.218 56.652 312.667 57.5947 311.566 58.136L314.422 62H311.706L309.326 58.57H308.5ZM309.48 54.272C309.471 54.272 309.429 54.2767 309.354 54.286C309.279 54.286 309.163 54.2907 309.004 54.3C308.845 54.3 308.677 54.3 308.5 54.3V56.47H309.312C310.329 56.47 310.838 56.092 310.838 55.336C310.838 54.6267 310.385 54.272 309.48 54.272ZM321.374 58.514H319.288V56.414H323.474V60.782C323.054 61.202 322.494 61.538 321.794 61.79C321.113 62.042 320.45 62.168 319.806 62.168C318.163 62.168 316.875 61.7107 315.942 60.796C315.018 59.8813 314.556 58.6493 314.556 57.1C314.556 55.6533 315.009 54.4493 315.914 53.488C316.829 52.5173 318.033 52.032 319.526 52.032C320.814 52.032 321.883 52.3727 322.732 53.054L321.794 54.86C321.598 54.6547 321.309 54.482 320.926 54.342C320.553 54.202 320.175 54.132 319.792 54.132C318.924 54.132 318.229 54.3887 317.706 54.902C317.193 55.4153 316.936 56.148 316.936 57.1C316.936 58.0053 317.197 58.7287 317.72 59.27C318.252 59.802 318.957 60.068 319.834 60.068C320.095 60.068 320.389 60.0167 320.716 59.914C321.024 59.8113 321.243 59.6993 321.374 59.578V58.514ZM325.428 61.972V52.228C326.52 52.172 327.509 52.144 328.396 52.144C329.479 52.144 330.295 52.3633 330.846 52.802C331.406 53.2313 331.686 53.824 331.686 54.58C331.686 55.5413 331.313 56.2693 330.566 56.764V56.792C330.986 56.9507 331.322 57.2213 331.574 57.604C331.835 57.9867 331.966 58.4627 331.966 59.032C331.966 60.012 331.621 60.7633 330.93 61.286C330.249 61.7993 329.353 62.056 328.242 62.056C326.945 62.056 326.007 62.028 325.428 61.972ZM328.536 58.038H327.668V59.872C327.873 59.928 328.125 59.956 328.424 59.956C329.292 59.956 329.726 59.6107 329.726 58.92C329.726 58.332 329.329 58.038 328.536 58.038ZM328.368 54.244C328.2 54.244 327.967 54.2627 327.668 54.3V56.078H328.41C329.101 56.078 329.446 55.7607 329.446 55.126C329.446 54.8553 329.343 54.6407 329.138 54.482C328.933 54.3233 328.676 54.244 328.368 54.244ZM336.723 57.1C336.723 54.16 337.689 52.088 339.901 52.088C342.113 52.088 343.079 54.16 343.079 57.1C343.079 60.054 342.141 62.112 339.929 62.112C337.717 62.112 336.723 60.054 336.723 57.1ZM337.913 57.1C337.913 59.62 338.543 61.062 339.929 61.062C341.357 61.062 341.889 59.634 341.889 57.1C341.889 54.566 341.329 53.138 339.901 53.138C338.473 53.138 337.913 54.594 337.913 57.1ZM347.49 53.964L349.842 52.144H350.626V62H349.506V53.754L348.078 54.874L347.49 53.964ZM353.691 57.128L354.307 52.2H358.731V53.32H355.287L354.923 55.966C355.133 55.91 355.427 55.868 355.707 55.868C357.485 55.868 358.801 57.044 358.801 58.906C358.801 60.936 357.345 62.14 355.609 62.14C354.559 62.14 353.383 61.678 352.795 60.656L353.439 59.83C353.915 60.6 354.839 61.02 355.637 61.02C356.757 61.02 357.611 60.152 357.611 58.948C357.611 57.772 356.687 56.876 355.231 56.876C354.643 56.876 354.013 57.002 353.691 57.128ZM366.537 55.742C366.537 59.452 364.395 61.79 361.637 62.14L361.259 61.258C363.443 60.838 364.913 59.34 365.221 57.016C364.829 57.744 364.073 58.234 363.009 58.234C361.301 58.234 360.083 56.918 360.083 55.224C360.083 53.292 361.679 52.06 363.205 52.06C365.389 52.06 366.537 53.656 366.537 55.742ZM365.347 55.742C365.347 54.412 364.689 53.18 363.219 53.18C362.141 53.18 361.273 54.09 361.273 55.14C361.273 56.204 361.973 57.184 363.289 57.184C364.437 57.184 365.123 56.442 365.347 55.742ZM371.009 62V61.09C372.605 59.522 375.391 56.876 375.391 54.79C375.391 53.922 374.859 53.208 373.795 53.208C373.011 53.208 372.241 53.726 372.045 54.776L371.093 54.384C371.331 52.928 372.521 52.088 373.893 52.088C375.727 52.088 376.581 53.348 376.581 54.566C376.581 57.31 373.249 60.264 372.465 60.95H376.987V62H371.009ZM378.392 62V61.09C379.988 59.522 382.774 56.876 382.774 54.79C382.774 53.922 382.242 53.208 381.178 53.208C380.394 53.208 379.624 53.726 379.428 54.776L378.476 54.384C378.714 52.928 379.904 52.088 381.276 52.088C383.11 52.088 383.964 53.348 383.964 54.566C383.964 57.31 380.632 60.264 379.848 60.95H384.37V62H378.392ZM388.603 62.14C387.245 62.14 386.139 61.552 385.635 60.46L386.279 59.662C386.769 60.572 387.651 61.02 388.561 61.02C389.779 61.02 390.493 60.25 390.493 59.256C390.493 58.206 389.667 57.548 388.491 57.548H387.721V56.428H388.421C389.289 56.428 390.115 55.742 390.115 54.734C390.115 53.768 389.513 53.18 388.519 53.18C387.553 53.18 386.937 53.642 386.503 54.398L385.873 53.628C386.321 52.634 387.329 52.06 388.603 52.06C390.241 52.06 391.305 52.998 391.305 54.538C391.305 55.602 390.773 56.47 389.779 56.89V56.932C390.997 57.128 391.683 58.15 391.683 59.298C391.683 61.048 390.353 62.14 388.603 62.14Z" fill="#00AEEF"/>
<path d="M310.936 86.168L309.326 85.594L310.026 83.69H308.346L307.422 86.168L305.798 85.608L306.512 83.69H305.56V81.87H307.184L307.758 80.33H305.56V78.51H308.43L309.354 76.032L310.978 76.62L310.278 78.51H311.93L312.854 76.032L314.478 76.592L313.764 78.51H314.856V80.33H313.092L312.518 81.87H314.856V83.69H311.846L310.936 86.168ZM311.258 80.33H309.592L309.018 81.87H310.698L311.258 80.33ZM316.706 84.796C316.127 83.9093 315.838 82.6773 315.838 81.1C315.838 79.5227 316.123 78.2953 316.692 77.418C317.271 76.5313 318.115 76.088 319.226 76.088C320.327 76.088 321.167 76.5313 321.746 77.418C322.325 78.3047 322.614 79.532 322.614 81.1C322.614 82.6867 322.329 83.9187 321.76 84.796C321.191 85.6733 320.355 86.112 319.254 86.112C318.143 86.112 317.294 85.6733 316.706 84.796ZM318.078 81.1C318.078 83.1347 318.47 84.152 319.254 84.152C319.655 84.152 319.94 83.9233 320.108 83.466C320.285 83.0087 320.374 82.22 320.374 81.1C320.374 79.98 320.285 79.1913 320.108 78.734C319.94 78.2767 319.646 78.048 319.226 78.048C318.825 78.048 318.531 78.286 318.344 78.762C318.167 79.2287 318.078 80.008 318.078 81.1ZM324.321 84.796C323.743 83.9093 323.453 82.6773 323.453 81.1C323.453 79.5227 323.738 78.2953 324.307 77.418C324.886 76.5313 325.731 76.088 326.841 76.088C327.943 76.088 328.783 76.5313 329.361 77.418C329.94 78.3047 330.229 79.532 330.229 81.1C330.229 82.6867 329.945 83.9187 329.375 84.796C328.806 85.6733 327.971 86.112 326.869 86.112C325.759 86.112 324.909 85.6733 324.321 84.796ZM325.693 81.1C325.693 83.1347 326.085 84.152 326.869 84.152C327.271 84.152 327.555 83.9233 327.723 83.466C327.901 83.0087 327.989 82.22 327.989 81.1C327.989 79.98 327.901 79.1913 327.723 78.734C327.555 78.2767 327.261 78.048 326.841 78.048C326.44 78.048 326.146 78.286 325.959 78.762C325.782 79.2287 325.693 80.008 325.693 81.1ZM337.914 79.812C337.914 81.6413 337.429 83.1207 336.458 84.25C335.488 85.3793 334.256 86.0187 332.762 86.168L332.076 84.502C333.84 84.1193 334.956 83.256 335.422 81.912C335.04 82.2667 334.531 82.444 333.896 82.444C333.094 82.444 332.394 82.1547 331.796 81.576C331.218 80.9973 330.928 80.2693 330.928 79.392C330.928 78.356 331.269 77.5393 331.95 76.942C332.641 76.3353 333.425 76.032 334.302 76.032C335.385 76.032 336.258 76.3773 336.92 77.068C337.583 77.7587 337.914 78.6733 337.914 79.812ZM335.674 79.798C335.674 79.3127 335.548 78.916 335.296 78.608C335.044 78.2907 334.708 78.132 334.288 78.132C333.962 78.132 333.691 78.244 333.476 78.468C333.271 78.6827 333.168 78.9393 333.168 79.238C333.168 79.5927 333.285 79.8913 333.518 80.134C333.752 80.3673 334.055 80.484 334.428 80.484C334.942 80.484 335.357 80.2553 335.674 79.798ZM341.969 86H339.729V76.2H345.399V78.3H341.969V80.372H344.979V82.472H341.969V86ZM347.459 86H347.221V76.2H347.417C347.837 76.2 348.304 76.1953 348.817 76.186C349.013 76.186 349.228 76.186 349.461 76.186C349.704 76.1767 349.89 76.172 350.021 76.172C350.152 76.1627 350.25 76.158 350.315 76.158C352.154 76.158 353.53 76.6153 354.445 77.53C355.36 78.4447 355.817 79.6067 355.817 81.016C355.817 82.4627 355.327 83.662 354.347 84.614C353.376 85.5567 351.995 86.028 350.203 86.028C349.839 86.028 349.433 86.0233 348.985 86.014C348.537 86.0047 348.028 86 347.459 86ZM350.287 78.258C349.923 78.258 349.648 78.272 349.461 78.3V83.9C349.722 83.9187 349.993 83.928 350.273 83.928C351.262 83.928 352.037 83.6713 352.597 83.158C353.157 82.6447 353.437 81.9307 353.437 81.016C353.437 80.148 353.152 79.4713 352.583 78.986C352.014 78.5007 351.248 78.258 350.287 78.258ZM359.879 86H357.639V76.2H363.309V78.3H359.879V80.372H362.889V82.472H359.879V86Z" fill="#00AEEF"/>
<g clip-path="url(#clip2_52_224)">
<path d="M501 82.5C520.879 82.5 537 66.3846 537 46.5C537 26.6154 520.879 10.5 501 10.5C481.121 10.5 465 26.6154 465 46.5C465 66.3846 481.115 82.5 501 82.5Z" fill="black"/>
<path d="M486.78 51.6934C486.309 52.9891 485.484 54.3758 484.435 55.1628L483.327 54.6006C484.301 53.91 485.147 52.6518 485.597 51.3936L486.78 51.6934ZM500.293 49.6697V50.7779H483.391V49.6697H491.149V47.9457H485.019V46.8963H491.149V45.4186H485.468V38.3728H498.286V45.4186H492.402V46.8963H498.869V47.9457H492.402V49.6697H500.293ZM486.689 39.4008V41.3871H491.149V39.4008H486.689ZM486.689 44.3853H491.149V42.3615H486.689V44.3853ZM489.237 54.9915C489.216 54.2044 489.088 52.8927 488.879 51.8808L490.024 51.7845C490.271 52.7803 490.458 54.0706 490.458 54.8202L489.237 54.9915ZM497.033 41.3871V39.4008H492.402V41.3871H497.033ZM497.033 44.3853V42.3615H492.402V44.3853H497.033ZM493.81 54.9754C493.638 54.1884 493.189 52.8927 492.76 51.9183L493.944 51.672C494.377 52.6304 494.843 53.9046 495.03 54.6917L493.815 54.9754H493.81ZM499.153 55.1093C498.666 54.2473 497.595 52.8606 496.658 51.8487L497.804 51.4204C498.741 52.3788 499.865 53.7226 500.374 54.6274L499.158 55.1146L499.153 55.1093Z" fill="white"/>
<path d="M504.304 44.3103C503.591 45.4935 502.804 46.5429 502.017 47.4424C501.884 47.1425 501.568 46.5589 501.359 46.2591C503.158 44.3103 504.957 41.0658 506.044 37.8266L507.543 38.3353C507.468 38.4638 507.339 38.5227 507.114 38.5012C506.627 39.813 506.044 41.1247 505.39 42.3829L505.899 42.5167C505.862 42.6291 505.765 42.7202 505.524 42.7416V55.1681H504.309V44.3156L504.304 44.3103ZM513.523 43.9141H519.22V45.0973H506.531V43.9141H512.265V41.3656H507.768V40.2038H512.265V37.7838L513.898 37.8748C513.876 38.0087 513.764 38.0997 513.523 38.1372V40.1984H518.267V41.3603H513.523V43.9087V43.9141ZM516.693 45.2472C516.671 45.3811 516.58 45.4721 516.318 45.5096V47.4049H519.091V48.5667H516.318V53.5512C516.318 54.3382 516.13 54.6916 515.547 54.9004C514.969 55.0878 513.973 55.1092 512.399 55.1092C512.34 54.7505 512.152 54.2472 511.965 53.9099C512.602 53.9313 513.202 53.9313 513.673 53.9313C515.06 53.9313 515.06 53.8939 515.06 53.5566V48.572H506.793V47.4102H515.06V45.1616L516.693 45.2526V45.2472ZM510.809 53.1175C510.396 52.202 509.384 50.7725 508.448 49.7446L509.497 49.1663C510.434 50.1782 511.483 51.5488 511.933 52.4644L510.809 53.1175Z" fill="white"/>
</g>
<path d="M560.5 10.668V14H558.26V4.2C558.689 4.2 559.161 4.19533 559.674 4.186C560.197 4.17667 560.724 4.172 561.256 4.172C562.637 4.172 563.645 4.48 564.28 5.096C564.905 5.69333 565.218 6.468 565.218 7.42C565.218 8.33467 564.887 9.114 564.224 9.758C563.561 10.3927 562.684 10.71 561.592 10.71C561.107 10.71 560.743 10.696 560.5 10.668ZM561.48 6.272C561.471 6.272 561.429 6.27667 561.354 6.286C561.279 6.286 561.163 6.29067 561.004 6.3C560.845 6.3 560.677 6.3 560.5 6.3V8.54C560.892 8.58667 561.233 8.61 561.522 8.61C561.905 8.61 562.217 8.512 562.46 8.316C562.712 8.11067 562.838 7.80733 562.838 7.406C562.838 6.65 562.385 6.272 561.48 6.272ZM566.713 9.674L566.195 8.148C566.867 7.73733 567.647 7.532 568.533 7.532C569.448 7.532 570.111 7.75133 570.521 8.19C570.941 8.62867 571.151 9.30067 571.151 10.206V14H569.331V13.426C569.023 13.8647 568.473 14.084 567.679 14.084C567.082 14.084 566.601 13.9067 566.237 13.552C565.873 13.1973 565.691 12.712 565.691 12.096C565.691 11.4333 565.897 10.92 566.307 10.556C566.727 10.192 567.278 10.01 567.959 10.01C568.491 10.01 568.902 10.1267 569.191 10.36C569.238 9.64133 568.949 9.282 568.323 9.282C567.894 9.282 567.357 9.41267 566.713 9.674ZM568.393 12.334C568.767 12.334 569.033 12.2267 569.191 12.012V11.62C568.995 11.48 568.729 11.41 568.393 11.41C568.216 11.41 568.071 11.452 567.959 11.536C567.847 11.62 567.791 11.7367 567.791 11.886C567.791 12.026 567.847 12.138 567.959 12.222C568.071 12.2967 568.216 12.334 568.393 12.334ZM574.649 14H572.549V7.7H574.649V8.19C575.06 7.78867 575.578 7.588 576.203 7.588C577.911 7.588 578.765 8.47467 578.765 10.248V14H576.665V10.612C576.665 10.2667 576.572 10.0053 576.385 9.828C576.208 9.64133 575.956 9.548 575.629 9.548C575.265 9.548 574.939 9.69267 574.649 9.982V14ZM580.025 11.606V5.95H582.125V7.7H583.875V9.66H582.125V11.508C582.125 11.9747 582.26 12.208 582.531 12.208C582.829 12.208 583.142 12.0867 583.469 11.844L584.099 13.454C583.557 13.93 582.853 14.168 581.985 14.168C581.303 14.168 580.804 13.958 580.487 13.538C580.179 13.1087 580.025 12.4647 580.025 11.606ZM585.647 13.23C585.013 12.5953 584.695 11.802 584.695 10.85C584.695 9.898 585.013 9.10467 585.647 8.47C586.282 7.84467 587.131 7.532 588.195 7.532C589.259 7.532 590.104 7.84467 590.729 8.47C591.373 9.09533 591.695 9.88867 591.695 10.85C591.695 11.8113 591.373 12.6047 590.729 13.23C590.104 13.8553 589.259 14.168 588.195 14.168C587.131 14.168 586.282 13.8553 585.647 13.23ZM586.935 10.85C586.935 11.242 587.052 11.5687 587.285 11.83C587.528 12.082 587.831 12.208 588.195 12.208C588.569 12.208 588.872 12.0867 589.105 11.844C589.339 11.592 589.455 11.2607 589.455 10.85C589.455 10.458 589.334 10.136 589.091 9.884C588.858 9.62267 588.559 9.492 588.195 9.492C587.831 9.492 587.528 9.618 587.285 9.87C587.052 10.1127 586.935 10.4393 586.935 10.85ZM594.979 14H592.879V7.7H594.979V8.19C595.39 7.78867 595.908 7.588 596.533 7.588C598.241 7.588 599.095 8.47467 599.095 10.248V14H596.995V10.612C596.995 10.2667 596.902 10.0053 596.715 9.828C596.538 9.64133 596.286 9.548 595.959 9.548C595.595 9.548 595.269 9.69267 594.979 9.982V14ZM605.437 11.97L606.011 13.454C605.376 13.93 604.559 14.168 603.561 14.168C602.534 14.168 601.703 13.8647 601.069 13.258C600.453 12.6513 600.145 11.8487 600.145 10.85C600.145 9.898 600.457 9.10933 601.083 8.484C601.717 7.84933 602.543 7.532 603.561 7.532C604.391 7.532 605.11 7.812 605.717 8.372C606.314 8.91333 606.613 9.62267 606.613 10.5C606.613 10.92 606.571 11.27 606.487 11.55H602.315C602.501 12.1287 602.991 12.418 603.785 12.418C604.401 12.418 604.951 12.2687 605.437 11.97ZM603.491 9.282C602.875 9.282 602.459 9.57133 602.245 10.15H604.513C604.513 9.90733 604.419 9.702 604.233 9.534C604.046 9.366 603.799 9.282 603.491 9.282ZM612.693 14H611.503V4.2C612.049 4.2 613.449 4.172 614.065 4.172C616.865 4.172 617.691 5.684 617.691 7.21C617.691 8.806 616.557 10.29 614.163 10.29C613.771 10.29 613.183 10.276 612.693 10.234V14ZM614.177 5.292C613.785 5.292 613.155 5.306 612.693 5.32V9.1C613.169 9.142 613.631 9.17 614.121 9.17C615.563 9.17 616.431 8.428 616.431 7.196C616.431 6.034 615.731 5.292 614.177 5.292ZM618.93 14V7.7H620.05V8.442C620.372 7.966 620.834 7.588 621.632 7.588C622.15 7.588 622.402 7.672 622.612 7.826L622.22 8.876C621.912 8.694 621.744 8.638 621.366 8.638C620.638 8.638 620.288 9.072 620.05 9.534V14H618.93ZM623.268 10.85C623.268 8.96 624.612 7.56 626.628 7.56C628.644 7.56 629.988 8.96 629.988 10.85C629.988 12.74 628.644 14.14 626.628 14.14C624.612 14.14 623.268 12.74 623.268 10.85ZM624.458 10.85C624.458 12.166 625.368 13.09 626.628 13.09C627.888 13.09 628.798 12.194 628.798 10.85C628.798 9.534 627.888 8.61 626.628 8.61C625.396 8.61 624.458 9.52 624.458 10.85ZM636.448 12.278L636.98 13.09C636.448 13.776 635.524 14.14 634.558 14.14C632.556 14.14 631.184 12.838 631.184 10.85C631.184 9.016 632.528 7.56 634.376 7.56C635.384 7.56 636.266 7.798 636.854 8.386L636.336 9.268C635.804 8.778 635.188 8.61 634.53 8.61C633.396 8.61 632.374 9.52 632.374 10.85C632.374 12.236 633.396 13.09 634.642 13.09C635.398 13.09 636.028 12.754 636.448 12.278ZM643.068 12.432L643.418 13.314C642.802 13.874 641.892 14.14 641.052 14.14C639.008 14.14 637.678 12.838 637.678 10.85C637.678 9.016 638.854 7.56 640.926 7.56C642.55 7.56 643.852 8.708 643.852 10.444C643.852 10.752 643.824 11.004 643.782 11.2H638.938C639.036 12.39 639.904 13.09 641.136 13.09C641.948 13.09 642.662 12.81 643.068 12.432ZM640.87 8.61C639.722 8.61 638.994 9.324 638.868 10.29H642.69C642.634 9.254 641.962 8.61 640.87 8.61ZM648.563 12.292C648.563 11.018 645.161 11.648 645.161 9.338C645.161 8.232 646.057 7.56 647.303 7.56C648.339 7.56 649.095 7.938 649.473 8.302L648.941 9.156C648.563 8.82 648.017 8.54 647.359 8.54C646.729 8.54 646.351 8.904 646.351 9.324C646.351 10.654 649.753 10.024 649.753 12.236C649.753 13.566 648.577 14.14 647.317 14.14C646.295 14.14 645.287 13.608 644.993 13.16L645.623 12.362C645.987 12.782 646.813 13.16 647.443 13.16C648.031 13.16 648.563 12.866 648.563 12.292ZM654.579 12.292C654.579 11.018 651.177 11.648 651.177 9.338C651.177 8.232 652.073 7.56 653.319 7.56C654.355 7.56 655.111 7.938 655.489 8.302L654.957 9.156C654.579 8.82 654.033 8.54 653.375 8.54C652.745 8.54 652.367 8.904 652.367 9.324C652.367 10.654 655.769 10.024 655.769 12.236C655.769 13.566 654.593 14.14 653.333 14.14C652.311 14.14 651.303 13.608 651.009 13.16L651.639 12.362C652.003 12.782 652.829 13.16 653.459 13.16C654.047 13.16 654.579 12.866 654.579 12.292ZM661.009 13.986V4.214C661.555 4.2 662.787 4.158 663.697 4.158C666.035 4.158 666.847 5.222 666.847 6.58C666.847 7.812 666.105 8.54 665.167 8.848V8.876C666.385 9.072 667.197 9.856 667.197 11.2C667.197 13.188 665.671 14.042 663.641 14.042C662.773 14.042 661.583 14.014 661.009 13.986ZM663.781 9.534H662.199V12.866C662.521 12.894 663.151 12.922 663.711 12.922C665.153 12.922 666.007 12.334 666.007 11.13C666.007 10.094 665.195 9.534 663.781 9.534ZM663.669 5.278C663.151 5.278 662.549 5.306 662.199 5.32V8.484H663.767C664.803 8.484 665.657 7.91 665.657 6.846C665.657 5.824 664.971 5.278 663.669 5.278ZM669.188 12.32V4.2H670.308V11.816C670.308 12.67 670.518 13.062 671.05 13.062C671.358 13.062 671.638 12.922 671.848 12.782L672.1 13.636C671.764 13.902 671.274 14.112 670.616 14.112C669.664 14.112 669.188 13.538 669.188 12.32ZM673.584 9.03L673.29 8.134C673.85 7.784 674.606 7.56 675.39 7.56C677.182 7.56 677.812 8.498 677.812 10.136V14H676.748V13.188C676.37 13.664 675.768 14.098 674.732 14.098C673.584 14.098 672.8 13.37 672.8 12.152C672.8 10.864 673.822 10.15 675.18 10.15C675.67 10.15 676.328 10.248 676.748 10.556C676.748 9.38 676.566 8.568 675.32 8.568C674.55 8.568 674.088 8.764 673.584 9.03ZM675.124 13.09C675.95 13.09 676.426 12.656 676.748 12.278V11.48C676.356 11.2 675.88 11.06 675.334 11.06C674.662 11.06 673.99 11.368 673.99 12.096C673.99 12.698 674.396 13.09 675.124 13.09ZM684.532 12.278L685.064 13.09C684.532 13.776 683.608 14.14 682.642 14.14C680.64 14.14 679.268 12.838 679.268 10.85C679.268 9.016 680.612 7.56 682.46 7.56C683.468 7.56 684.35 7.798 684.938 8.386L684.42 9.268C683.888 8.778 683.272 8.61 682.614 8.61C681.48 8.61 680.458 9.52 680.458 10.85C680.458 12.236 681.48 13.09 682.726 13.09C683.482 13.09 684.112 12.754 684.532 12.278ZM691.914 7.7L689.24 10.626L692.25 14H690.724L687.882 10.71L690.486 7.7H691.914ZM686.524 14V4.2H687.644V14H686.524ZM703.825 12.152L704.301 13.048C703.643 13.72 702.425 14.14 701.207 14.14C698.267 14.14 696.237 12.152 696.237 9.1C696.237 6.286 698.057 4.06 701.123 4.06C702.383 4.06 703.405 4.41 704.105 5.012L703.559 5.908C702.915 5.432 702.159 5.18 701.137 5.18C699.009 5.18 697.497 6.776 697.497 9.1C697.497 11.438 699.051 13.02 701.319 13.02C702.257 13.02 703.153 12.698 703.825 12.152Z" fill="black"/>
<path d="M565.036 35.354L565.89 37.034C565.591 37.37 565.148 37.6453 564.56 37.86C563.981 38.0653 563.361 38.168 562.698 38.168C561.177 38.168 559.94 37.706 558.988 36.782C558.036 35.8393 557.56 34.612 557.56 33.1C557.56 31.6253 558.008 30.412 558.904 29.46C559.8 28.508 561.06 28.032 562.684 28.032C563.3 28.032 563.874 28.1253 564.406 28.312C564.938 28.4987 565.363 28.746 565.68 29.054L564.686 30.734C564.033 30.3327 563.365 30.132 562.684 30.132C561.891 30.132 561.233 30.3933 560.71 30.916C560.197 31.4293 559.94 32.1573 559.94 33.1C559.94 33.9587 560.215 34.6727 560.766 35.242C561.317 35.7927 562.031 36.068 562.908 36.068C563.692 36.068 564.401 35.83 565.036 35.354ZM569.674 38H567.434V28.2H569.688L572.712 32.33L575.568 28.2H577.682V38H575.442V31.756L572.712 35.578H572.39L569.674 31.798V38ZM585.677 28.2H588.099L584.627 34.01V38H582.387V34.01L578.943 28.2H581.505L583.605 31.91L585.677 28.2ZM591.604 38H589.364V28.2H591.604V32.47L594.81 28.2H597.498L593.816 32.722L597.792 38H594.95L591.604 33.338V38ZM601.711 33.1C601.711 30.16 602.677 28.088 604.889 28.088C607.101 28.088 608.067 30.16 608.067 33.1C608.067 36.054 607.129 38.112 604.917 38.112C602.705 38.112 601.711 36.054 601.711 33.1ZM602.901 33.1C602.901 35.62 603.531 37.062 604.917 37.062C606.345 37.062 606.877 35.634 606.877 33.1C606.877 30.566 606.317 29.138 604.889 29.138C603.461 29.138 602.901 30.594 602.901 33.1ZM612.758 33.1C612.758 30.16 613.724 28.088 615.936 28.088C618.148 28.088 619.114 30.16 619.114 33.1C619.114 36.054 618.176 38.112 615.964 38.112C613.752 38.112 612.758 36.054 612.758 33.1ZM613.948 33.1C613.948 35.62 614.578 37.062 615.964 37.062C617.392 37.062 617.924 35.634 617.924 33.1C617.924 30.566 617.364 29.138 615.936 29.138C614.508 29.138 613.948 30.594 613.948 33.1ZM623.805 33.1C623.805 30.16 624.771 28.088 626.983 28.088C629.195 28.088 630.161 30.16 630.161 33.1C630.161 36.054 629.223 38.112 627.011 38.112C624.799 38.112 623.805 36.054 623.805 33.1ZM624.995 33.1C624.995 35.62 625.625 37.062 627.011 37.062C628.439 37.062 628.971 35.634 628.971 33.1C628.971 30.566 628.411 29.138 626.983 29.138C625.555 29.138 624.995 30.594 624.995 33.1ZM634.572 29.964L636.924 28.144H637.708V38H636.588V29.754L635.16 30.874L634.572 29.964ZM640.157 33.1C640.157 30.16 641.123 28.088 643.335 28.088C645.547 28.088 646.513 30.16 646.513 33.1C646.513 36.054 645.575 38.112 643.363 38.112C641.151 38.112 640.157 36.054 640.157 33.1ZM641.347 33.1C641.347 35.62 641.977 37.062 643.363 37.062C644.791 37.062 645.323 35.634 645.323 33.1C645.323 30.566 644.763 29.138 643.335 29.138C641.907 29.138 641.347 30.594 641.347 33.1ZM648.059 33.1C648.059 30.16 649.025 28.088 651.237 28.088C653.449 28.088 654.415 30.16 654.415 33.1C654.415 36.054 653.477 38.112 651.265 38.112C649.053 38.112 648.059 36.054 648.059 33.1ZM649.249 33.1C649.249 35.62 649.879 37.062 651.265 37.062C652.693 37.062 653.225 35.634 653.225 33.1C653.225 30.566 652.665 29.138 651.237 29.138C649.809 29.138 649.249 30.594 649.249 33.1Z" fill="black"/>
<path d="M560.5 58.57V62H558.26V52.2C558.792 52.2 559.38 52.1953 560.024 52.186C560.668 52.1767 561.191 52.172 561.592 52.172C564.009 52.172 565.218 53.2173 565.218 55.308C565.218 56.652 564.667 57.5947 563.566 58.136L566.422 62H563.706L561.326 58.57H560.5ZM561.48 54.272C561.471 54.272 561.429 54.2767 561.354 54.286C561.279 54.286 561.163 54.2907 561.004 54.3C560.845 54.3 560.677 54.3 560.5 54.3V56.47H561.312C562.329 56.47 562.838 56.092 562.838 55.336C562.838 54.6267 562.385 54.272 561.48 54.272ZM573.374 58.514H571.288V56.414H575.474V60.782C575.054 61.202 574.494 61.538 573.794 61.79C573.113 62.042 572.45 62.168 571.806 62.168C570.163 62.168 568.875 61.7107 567.942 60.796C567.018 59.8813 566.556 58.6493 566.556 57.1C566.556 55.6533 567.009 54.4493 567.914 53.488C568.829 52.5173 570.033 52.032 571.526 52.032C572.814 52.032 573.883 52.3727 574.732 53.054L573.794 54.86C573.598 54.6547 573.309 54.482 572.926 54.342C572.553 54.202 572.175 54.132 571.792 54.132C570.924 54.132 570.229 54.3887 569.706 54.902C569.193 55.4153 568.936 56.148 568.936 57.1C568.936 58.0053 569.197 58.7287 569.72 59.27C570.252 59.802 570.957 60.068 571.834 60.068C572.095 60.068 572.389 60.0167 572.716 59.914C573.024 59.8113 573.243 59.6993 573.374 59.578V58.514ZM577.428 61.972V52.228C578.52 52.172 579.509 52.144 580.396 52.144C581.479 52.144 582.295 52.3633 582.846 52.802C583.406 53.2313 583.686 53.824 583.686 54.58C583.686 55.5413 583.313 56.2693 582.566 56.764V56.792C582.986 56.9507 583.322 57.2213 583.574 57.604C583.835 57.9867 583.966 58.4627 583.966 59.032C583.966 60.012 583.621 60.7633 582.93 61.286C582.249 61.7993 581.353 62.056 580.242 62.056C578.945 62.056 578.007 62.028 577.428 61.972ZM580.536 58.038H579.668V59.872C579.873 59.928 580.125 59.956 580.424 59.956C581.292 59.956 581.726 59.6107 581.726 58.92C581.726 58.332 581.329 58.038 580.536 58.038ZM580.368 54.244C580.2 54.244 579.967 54.2627 579.668 54.3V56.078H580.41C581.101 56.078 581.446 55.7607 581.446 55.126C581.446 54.8553 581.343 54.6407 581.138 54.482C580.933 54.3233 580.676 54.244 580.368 54.244ZM588.723 57.1C588.723 54.16 589.689 52.088 591.901 52.088C594.113 52.088 595.079 54.16 595.079 57.1C595.079 60.054 594.141 62.112 591.929 62.112C589.717 62.112 588.723 60.054 588.723 57.1ZM589.913 57.1C589.913 59.62 590.543 61.062 591.929 61.062C593.357 61.062 593.889 59.634 593.889 57.1C593.889 54.566 593.329 53.138 591.901 53.138C590.473 53.138 589.913 54.594 589.913 57.1ZM599.77 57.1C599.77 54.16 600.736 52.088 602.948 52.088C605.16 52.088 606.126 54.16 606.126 57.1C606.126 60.054 605.188 62.112 602.976 62.112C600.764 62.112 599.77 60.054 599.77 57.1ZM600.96 57.1C600.96 59.62 601.59 61.062 602.976 61.062C604.404 61.062 604.936 59.634 604.936 57.1C604.936 54.566 604.376 53.138 602.948 53.138C601.52 53.138 600.96 54.594 600.96 57.1ZM610.817 57.1C610.817 54.16 611.783 52.088 613.995 52.088C616.207 52.088 617.173 54.16 617.173 57.1C617.173 60.054 616.235 62.112 614.023 62.112C611.811 62.112 610.817 60.054 610.817 57.1ZM612.007 57.1C612.007 59.62 612.637 61.062 614.023 61.062C615.451 61.062 615.983 59.634 615.983 57.1C615.983 54.566 615.423 53.138 613.995 53.138C612.567 53.138 612.007 54.594 612.007 57.1Z" fill="black"/>
<path d="M562.936 86.168L561.326 85.594L562.026 83.69H560.346L559.422 86.168L557.798 85.608L558.512 83.69H557.56V81.87H559.184L559.758 80.33H557.56V78.51H560.43L561.354 76.032L562.978 76.62L562.278 78.51H563.93L564.854 76.032L566.478 76.592L565.764 78.51H566.856V80.33H565.092L564.518 81.87H566.856V83.69H563.846L562.936 86.168ZM563.258 80.33H561.592L561.018 81.87H562.698L563.258 80.33ZM568.706 84.796C568.127 83.9093 567.838 82.6773 567.838 81.1C567.838 79.5227 568.123 78.2953 568.692 77.418C569.271 76.5313 570.115 76.088 571.226 76.088C572.327 76.088 573.167 76.5313 573.746 77.418C574.325 78.3047 574.614 79.532 574.614 81.1C574.614 82.6867 574.329 83.9187 573.76 84.796C573.191 85.6733 572.355 86.112 571.254 86.112C570.143 86.112 569.294 85.6733 568.706 84.796ZM570.078 81.1C570.078 83.1347 570.47 84.152 571.254 84.152C571.655 84.152 571.94 83.9233 572.108 83.466C572.285 83.0087 572.374 82.22 572.374 81.1C572.374 79.98 572.285 79.1913 572.108 78.734C571.94 78.2767 571.646 78.048 571.226 78.048C570.825 78.048 570.531 78.286 570.344 78.762C570.167 79.2287 570.078 80.008 570.078 81.1ZM576.321 84.796C575.743 83.9093 575.453 82.6773 575.453 81.1C575.453 79.5227 575.738 78.2953 576.307 77.418C576.886 76.5313 577.731 76.088 578.841 76.088C579.943 76.088 580.783 76.5313 581.361 77.418C581.94 78.3047 582.229 79.532 582.229 81.1C582.229 82.6867 581.945 83.9187 581.375 84.796C580.806 85.6733 579.971 86.112 578.869 86.112C577.759 86.112 576.909 85.6733 576.321 84.796ZM577.693 81.1C577.693 83.1347 578.085 84.152 578.869 84.152C579.271 84.152 579.555 83.9233 579.723 83.466C579.901 83.0087 579.989 82.22 579.989 81.1C579.989 79.98 579.901 79.1913 579.723 78.734C579.555 78.2767 579.261 78.048 578.841 78.048C578.44 78.048 578.146 78.286 577.959 78.762C577.782 79.2287 577.693 80.008 577.693 81.1ZM583.936 84.796C583.358 83.9093 583.068 82.6773 583.068 81.1C583.068 79.5227 583.353 78.2953 583.922 77.418C584.501 76.5313 585.346 76.088 586.456 76.088C587.558 76.088 588.398 76.5313 588.976 77.418C589.555 78.3047 589.844 79.532 589.844 81.1C589.844 82.6867 589.56 83.9187 588.99 84.796C588.421 85.6733 587.586 86.112 586.484 86.112C585.374 86.112 584.524 85.6733 583.936 84.796ZM585.308 81.1C585.308 83.1347 585.7 84.152 586.484 84.152C586.886 84.152 587.17 83.9233 587.338 83.466C587.516 83.0087 587.604 82.22 587.604 81.1C587.604 79.98 587.516 79.1913 587.338 78.734C587.17 78.2767 586.876 78.048 586.456 78.048C586.055 78.048 585.761 78.286 585.574 78.762C585.397 79.2287 585.308 80.008 585.308 81.1ZM591.552 84.796C590.973 83.9093 590.684 82.6773 590.684 81.1C590.684 79.5227 590.968 78.2953 591.538 77.418C592.116 76.5313 592.961 76.088 594.072 76.088C595.173 76.088 596.013 76.5313 596.592 77.418C597.17 78.3047 597.46 79.532 597.46 81.1C597.46 82.6867 597.175 83.9187 596.606 84.796C596.036 85.6733 595.201 86.112 594.1 86.112C592.989 86.112 592.14 85.6733 591.552 84.796ZM592.924 81.1C592.924 83.1347 593.316 84.152 594.1 84.152C594.501 84.152 594.786 83.9233 594.954 83.466C595.131 83.0087 595.22 82.22 595.22 81.1C595.22 79.98 595.131 79.1913 594.954 78.734C594.786 78.2767 594.492 78.048 594.072 78.048C593.67 78.048 593.376 78.286 593.19 78.762C593.012 79.2287 592.924 80.008 592.924 81.1ZM599.167 84.796C598.588 83.9093 598.299 82.6773 598.299 81.1C598.299 79.5227 598.584 78.2953 599.153 77.418C599.732 76.5313 600.576 76.088 601.687 76.088C602.788 76.088 603.628 76.5313 604.207 77.418C604.786 78.3047 605.075 79.532 605.075 81.1C605.075 82.6867 604.79 83.9187 604.221 84.796C603.652 85.6733 602.816 86.112 601.715 86.112C600.604 86.112 599.755 85.6733 599.167 84.796ZM600.539 81.1C600.539 83.1347 600.931 84.152 601.715 84.152C602.116 84.152 602.401 83.9233 602.569 83.466C602.746 83.0087 602.835 82.22 602.835 81.1C602.835 79.98 602.746 79.1913 602.569 78.734C602.401 78.2767 602.107 78.048 601.687 78.048C601.286 78.048 600.992 78.286 600.805 78.762C600.628 79.2287 600.539 80.008 600.539 81.1ZM606.782 84.796C606.203 83.9093 605.914 82.6773 605.914 81.1C605.914 79.5227 606.199 78.2953 606.768 77.418C607.347 76.5313 608.191 76.088 609.302 76.088C610.403 76.088 611.243 76.5313 611.822 77.418C612.401 78.3047 612.69 79.532 612.69 81.1C612.69 82.6867 612.405 83.9187 611.836 84.796C611.267 85.6733 610.431 86.112 609.33 86.112C608.219 86.112 607.37 85.6733 606.782 84.796ZM608.154 81.1C608.154 83.1347 608.546 84.152 609.33 84.152C609.731 84.152 610.016 83.9233 610.184 83.466C610.361 83.0087 610.45 82.22 610.45 81.1C610.45 79.98 610.361 79.1913 610.184 78.734C610.016 78.2767 609.722 78.048 609.302 78.048C608.901 78.048 608.607 78.286 608.42 78.762C608.243 79.2287 608.154 80.008 608.154 81.1Z" fill="black"/>
<g clip-path="url(#clip3_52_224)">
<path d="M756 82.5C775.879 82.5 792 66.3846 792 46.5C792 26.6154 775.879 10.5 756 10.5C736.121 10.5 720 26.6154 720 46.5C720 66.3846 736.115 82.5 756 82.5Z" fill="#D7D8D6"/>
<path d="M746.475 41.8314C746.438 41.9653 746.309 42.0563 746.084 42.0777C745.576 44.7975 744.548 46.7999 740.313 47.8332C740.179 47.5173 739.863 47.0301 739.622 46.7838C743.482 45.9379 744.478 44.2514 744.831 41.6654L746.48 41.8314H746.475ZM748.686 49.5357V53.4548H756.466V54.6381H739.729V53.4548H747.396V49.5357H741.753V48.3739H754.554V49.5357H748.686ZM741.416 41.2318V43.8017H740.163V40.07H747.396V37.7838L749.066 37.8962C749.045 38.0301 748.933 38.1211 748.692 38.1586V40.07H756V43.8017H754.704V41.2318H741.416ZM749.57 41.5155L751.181 41.6065C751.16 41.7404 751.069 41.8314 750.806 41.8689V45.3008C750.806 45.7505 750.94 45.8469 751.765 45.8469H754.597C755.197 45.8469 755.309 45.6755 755.363 44.5726C755.625 44.76 756.134 44.9313 756.487 45.0063C756.337 46.5643 755.962 46.9551 754.742 46.9551H751.647C749.977 46.9551 749.57 46.6178 749.57 45.3222V41.5155Z" fill="white"/>
<path d="M774.83 40.9533H762.237C761.375 42.6559 760.288 44.1764 759.105 45.2472C758.864 45.0223 758.377 44.6689 758.056 44.4762C759.801 43.0146 761.279 40.4661 762.125 37.7677L763.72 38.2014C763.683 38.3352 763.533 38.4048 763.308 38.4048C763.142 38.892 762.949 39.3792 762.767 39.8504H774.835V40.9587L774.83 40.9533ZM761.263 47.5494C762.462 48.2026 763.758 49.011 764.989 49.8516C765.889 48.8932 766.676 47.8438 767.297 46.7409L768.758 47.3031C768.699 47.453 768.496 47.4905 768.308 47.4691C767.671 48.5773 766.884 49.6053 765.985 50.5637C767.409 51.597 768.667 52.6463 769.492 53.5458L768.48 54.5042C767.693 53.6047 766.472 52.5178 765.091 51.4685C763.42 53.0425 761.455 54.3543 759.41 55.3287C759.223 55.0663 758.811 54.6166 758.527 54.3917C760.535 53.5083 762.462 52.2716 764.095 50.735C762.874 49.873 761.584 49.0485 760.363 48.3739L761.263 47.5494ZM759.817 45.2632H772.169C772.185 50.2692 772.469 53.9795 773.968 53.9795C774.358 53.9795 774.455 52.8926 774.492 51.2436C774.755 51.5274 775.129 51.8218 775.392 51.9771C775.258 54.3757 774.996 55.2216 773.893 55.2216C771.419 55.2216 771.007 51.6773 770.894 46.3769H759.817V45.2739V45.2632ZM772.993 43.6303H761.991V42.5434H772.993V43.6303Z" fill="white"/>
</g>
<path d="M815.5 10.668V14H813.26V4.2C813.689 4.2 814.161 4.19533 814.674 4.186C815.197 4.17667 815.724 4.172 816.256 4.172C817.637 4.172 818.645 4.48 819.28 5.096C819.905 5.69333 820.218 6.468 820.218 7.42C820.218 8.33467 819.887 9.114 819.224 9.758C818.561 10.3927 817.684 10.71 816.592 10.71C816.107 10.71 815.743 10.696 815.5 10.668ZM816.48 6.272C816.471 6.272 816.429 6.27667 816.354 6.286C816.279 6.286 816.163 6.29067 816.004 6.3C815.845 6.3 815.677 6.3 815.5 6.3V8.54C815.892 8.58667 816.233 8.61 816.522 8.61C816.905 8.61 817.217 8.512 817.46 8.316C817.712 8.11067 817.838 7.80733 817.838 7.406C817.838 6.65 817.385 6.272 816.48 6.272ZM821.713 9.674L821.195 8.148C821.867 7.73733 822.647 7.532 823.533 7.532C824.448 7.532 825.111 7.75133 825.521 8.19C825.941 8.62867 826.151 9.30067 826.151 10.206V14H824.331V13.426C824.023 13.8647 823.473 14.084 822.679 14.084C822.082 14.084 821.601 13.9067 821.237 13.552C820.873 13.1973 820.691 12.712 820.691 12.096C820.691 11.4333 820.897 10.92 821.307 10.556C821.727 10.192 822.278 10.01 822.959 10.01C823.491 10.01 823.902 10.1267 824.191 10.36C824.238 9.64133 823.949 9.282 823.323 9.282C822.894 9.282 822.357 9.41267 821.713 9.674ZM823.393 12.334C823.767 12.334 824.033 12.2267 824.191 12.012V11.62C823.995 11.48 823.729 11.41 823.393 11.41C823.216 11.41 823.071 11.452 822.959 11.536C822.847 11.62 822.791 11.7367 822.791 11.886C822.791 12.026 822.847 12.138 822.959 12.222C823.071 12.2967 823.216 12.334 823.393 12.334ZM829.649 14H827.549V7.7H829.649V8.19C830.06 7.78867 830.578 7.588 831.203 7.588C832.911 7.588 833.765 8.47467 833.765 10.248V14H831.665V10.612C831.665 10.2667 831.572 10.0053 831.385 9.828C831.208 9.64133 830.956 9.548 830.629 9.548C830.265 9.548 829.939 9.69267 829.649 9.982V14ZM835.025 11.606V5.95H837.125V7.7H838.875V9.66H837.125V11.508C837.125 11.9747 837.26 12.208 837.531 12.208C837.829 12.208 838.142 12.0867 838.469 11.844L839.099 13.454C838.557 13.93 837.853 14.168 836.985 14.168C836.303 14.168 835.804 13.958 835.487 13.538C835.179 13.1087 835.025 12.4647 835.025 11.606ZM840.647 13.23C840.013 12.5953 839.695 11.802 839.695 10.85C839.695 9.898 840.013 9.10467 840.647 8.47C841.282 7.84467 842.131 7.532 843.195 7.532C844.259 7.532 845.104 7.84467 845.729 8.47C846.373 9.09533 846.695 9.88867 846.695 10.85C846.695 11.8113 846.373 12.6047 845.729 13.23C845.104 13.8553 844.259 14.168 843.195 14.168C842.131 14.168 841.282 13.8553 840.647 13.23ZM841.935 10.85C841.935 11.242 842.052 11.5687 842.285 11.83C842.528 12.082 842.831 12.208 843.195 12.208C843.569 12.208 843.872 12.0867 844.105 11.844C844.339 11.592 844.455 11.2607 844.455 10.85C844.455 10.458 844.334 10.136 844.091 9.884C843.858 9.62267 843.559 9.492 843.195 9.492C842.831 9.492 842.528 9.618 842.285 9.87C842.052 10.1127 841.935 10.4393 841.935 10.85ZM849.979 14H847.879V7.7H849.979V8.19C850.39 7.78867 850.908 7.588 851.533 7.588C853.241 7.588 854.095 8.47467 854.095 10.248V14H851.995V10.612C851.995 10.2667 851.902 10.0053 851.715 9.828C851.538 9.64133 851.286 9.548 850.959 9.548C850.595 9.548 850.269 9.69267 849.979 9.982V14ZM860.437 11.97L861.011 13.454C860.376 13.93 859.559 14.168 858.561 14.168C857.534 14.168 856.703 13.8647 856.069 13.258C855.453 12.6513 855.145 11.8487 855.145 10.85C855.145 9.898 855.457 9.10933 856.083 8.484C856.717 7.84933 857.543 7.532 858.561 7.532C859.391 7.532 860.11 7.812 860.717 8.372C861.314 8.91333 861.613 9.62267 861.613 10.5C861.613 10.92 861.571 11.27 861.487 11.55H857.315C857.501 12.1287 857.991 12.418 858.785 12.418C859.401 12.418 859.951 12.2687 860.437 11.97ZM858.491 9.282C857.875 9.282 857.459 9.57133 857.245 10.15H859.513C859.513 9.90733 859.419 9.702 859.233 9.534C859.046 9.366 858.799 9.282 858.491 9.282ZM873.321 12.152L873.797 13.048C873.139 13.72 871.921 14.14 870.703 14.14C867.763 14.14 865.733 12.152 865.733 9.1C865.733 6.286 867.553 4.06 870.619 4.06C871.879 4.06 872.901 4.41 873.601 5.012L873.055 5.908C872.411 5.432 871.655 5.18 870.633 5.18C868.505 5.18 866.993 6.776 866.993 9.1C866.993 11.438 868.547 13.02 870.815 13.02C871.753 13.02 872.649 12.698 873.321 12.152ZM874.426 10.85C874.426 8.96 875.77 7.56 877.786 7.56C879.802 7.56 881.146 8.96 881.146 10.85C881.146 12.74 879.802 14.14 877.786 14.14C875.77 14.14 874.426 12.74 874.426 10.85ZM875.616 10.85C875.616 12.166 876.526 13.09 877.786 13.09C879.046 13.09 879.956 12.194 879.956 10.85C879.956 9.534 879.046 8.61 877.786 8.61C876.554 8.61 875.616 9.52 875.616 10.85ZM882.342 10.85C882.342 8.96 883.686 7.56 885.702 7.56C887.718 7.56 889.062 8.96 889.062 10.85C889.062 12.74 887.718 14.14 885.702 14.14C883.686 14.14 882.342 12.74 882.342 10.85ZM883.532 10.85C883.532 12.166 884.442 13.09 885.702 13.09C886.962 13.09 887.872 12.194 887.872 10.85C887.872 9.534 886.962 8.61 885.702 8.61C884.47 8.61 883.532 9.52 883.532 10.85ZM890.678 12.32V4.2H891.798V11.816C891.798 12.67 892.008 13.062 892.54 13.062C892.848 13.062 893.128 12.922 893.338 12.782L893.59 13.636C893.254 13.902 892.764 14.112 892.106 14.112C891.154 14.112 890.678 13.538 890.678 12.32ZM902.447 10.136V9.016H906.213V12.782C905.345 13.65 903.763 14.14 902.545 14.14C899.493 14.14 897.575 12.152 897.575 9.1C897.575 6.286 899.465 4.06 902.391 4.06C903.721 4.06 904.673 4.382 905.471 5.012L904.953 5.964C904.379 5.446 903.469 5.18 902.531 5.18C900.347 5.18 898.835 6.734 898.835 9.1C898.835 11.48 900.347 13.02 902.573 13.02C903.497 13.02 904.575 12.656 905.093 12.152V10.136H902.447ZM908.055 14V7.7H909.175V8.442C909.497 7.966 909.959 7.588 910.757 7.588C911.275 7.588 911.527 7.672 911.737 7.826L911.345 8.876C911.037 8.694 910.869 8.638 910.491 8.638C909.763 8.638 909.413 9.072 909.175 9.534V14H908.055ZM913.149 9.03L912.855 8.134C913.415 7.784 914.171 7.56 914.955 7.56C916.747 7.56 917.377 8.498 917.377 10.136V14H916.313V13.188C915.935 13.664 915.333 14.098 914.297 14.098C913.149 14.098 912.365 13.37 912.365 12.152C912.365 10.864 913.387 10.15 914.745 10.15C915.235 10.15 915.893 10.248 916.313 10.556C916.313 9.38 916.131 8.568 914.885 8.568C914.115 8.568 913.653 8.764 913.149 9.03ZM914.689 13.09C915.515 13.09 915.991 12.656 916.313 12.278V11.48C915.921 11.2 915.445 11.06 914.899 11.06C914.227 11.06 913.555 11.368 913.555 12.096C913.555 12.698 913.961 13.09 914.689 13.09ZM924.978 7.7L922.458 14C921.534 16.254 920.946 16.8 920.05 16.8C919.574 16.8 919.196 16.632 918.86 16.408L919.224 15.554C919.434 15.652 919.672 15.764 919.924 15.764C920.456 15.764 920.848 15.344 921.268 14.336L921.408 14L918.384 7.7H919.728L921.576 11.704C921.716 12.026 921.828 12.334 921.954 12.656C922.038 12.348 922.136 12.026 922.248 11.69L923.704 7.7H924.978ZM928.896 14V13.09C930.492 11.522 933.278 8.876 933.278 6.79C933.278 5.922 932.746 5.208 931.682 5.208C930.898 5.208 930.128 5.726 929.932 6.776L928.98 6.384C929.218 4.928 930.408 4.088 931.78 4.088C933.614 4.088 934.468 5.348 934.468 6.566C934.468 9.31 931.136 12.264 930.352 12.95H934.874V14H928.896ZM947.081 12.152L947.557 13.048C946.899 13.72 945.681 14.14 944.463 14.14C941.523 14.14 939.493 12.152 939.493 9.1C939.493 6.286 941.313 4.06 944.379 4.06C945.639 4.06 946.661 4.41 947.361 5.012L946.815 5.908C946.171 5.432 945.415 5.18 944.393 5.18C942.265 5.18 940.753 6.776 940.753 9.1C940.753 11.438 942.307 13.02 944.575 13.02C945.513 13.02 946.409 12.698 947.081 12.152Z" fill="#585957"/>
<path d="M820.036 35.354L820.89 37.034C820.591 37.37 820.148 37.6453 819.56 37.86C818.981 38.0653 818.361 38.168 817.698 38.168C816.177 38.168 814.94 37.706 813.988 36.782C813.036 35.8393 812.56 34.612 812.56 33.1C812.56 31.6253 813.008 30.412 813.904 29.46C814.8 28.508 816.06 28.032 817.684 28.032C818.3 28.032 818.874 28.1253 819.406 28.312C819.938 28.4987 820.363 28.746 820.68 29.054L819.686 30.734C819.033 30.3327 818.365 30.132 817.684 30.132C816.891 30.132 816.233 30.3933 815.71 30.916C815.197 31.4293 814.94 32.1573 814.94 33.1C814.94 33.9587 815.215 34.6727 815.766 35.242C816.317 35.7927 817.031 36.068 817.908 36.068C818.692 36.068 819.401 35.83 820.036 35.354ZM824.674 38H822.434V28.2H824.688L827.712 32.33L830.568 28.2H832.682V38H830.442V31.756L827.712 35.578H827.39L824.674 31.798V38ZM840.677 28.2H843.099L839.627 34.01V38H837.387V34.01L833.943 28.2H836.505L838.605 31.91L840.677 28.2ZM846.604 38H844.364V28.2H846.604V32.47L849.81 28.2H852.498L848.816 32.722L852.792 38H849.95L846.604 33.338V38ZM857.327 33.128L857.943 28.2H862.367V29.32H858.923L858.559 31.966C858.769 31.91 859.063 31.868 859.343 31.868C861.121 31.868 862.437 33.044 862.437 34.906C862.437 36.936 860.981 38.14 859.245 38.14C858.195 38.14 857.019 37.678 856.431 36.656L857.075 35.83C857.551 36.6 858.475 37.02 859.273 37.02C860.393 37.02 861.247 36.152 861.247 34.948C861.247 33.772 860.323 32.876 858.867 32.876C858.279 32.876 857.649 33.002 857.327 33.128ZM869.763 38.14C868.405 38.14 867.299 37.552 866.795 36.46L867.439 35.662C867.929 36.572 868.811 37.02 869.721 37.02C870.939 37.02 871.653 36.25 871.653 35.256C871.653 34.206 870.827 33.548 869.651 33.548H868.881V32.428H869.581C870.449 32.428 871.275 31.742 871.275 30.734C871.275 29.768 870.673 29.18 869.679 29.18C868.713 29.18 868.097 29.642 867.663 30.398L867.033 29.628C867.481 28.634 868.489 28.06 869.763 28.06C871.401 28.06 872.465 28.998 872.465 30.538C872.465 31.602 871.933 32.47 870.939 32.89V32.932C872.157 33.128 872.843 34.15 872.843 35.298C872.843 37.048 871.513 38.14 869.763 38.14ZM878.286 33.128L878.902 28.2H883.326V29.32H879.882L879.518 31.966C879.728 31.91 880.022 31.868 880.302 31.868C882.08 31.868 883.396 33.044 883.396 34.906C883.396 36.936 881.94 38.14 880.204 38.14C879.154 38.14 877.978 37.678 877.39 36.656L878.034 35.83C878.51 36.6 879.434 37.02 880.232 37.02C881.352 37.02 882.206 36.152 882.206 34.948C882.206 33.772 881.282 32.876 879.826 32.876C879.238 32.876 878.608 33.002 878.286 33.128ZM887.754 29.964L890.106 28.144H890.89V38H889.77V29.754L888.342 30.874L887.754 29.964ZM893.058 29.964L895.41 28.144H896.194V38H895.074V29.754L893.646 30.874L893.058 29.964Z" fill="#585957"/>
<path d="M815.5 58.57V62H813.26V52.2C813.792 52.2 814.38 52.1953 815.024 52.186C815.668 52.1767 816.191 52.172 816.592 52.172C819.009 52.172 820.218 53.2173 820.218 55.308C820.218 56.652 819.667 57.5947 818.566 58.136L821.422 62H818.706L816.326 58.57H815.5ZM816.48 54.272C816.471 54.272 816.429 54.2767 816.354 54.286C816.279 54.286 816.163 54.2907 816.004 54.3C815.845 54.3 815.677 54.3 815.5 54.3V56.47H816.312C817.329 56.47 817.838 56.092 817.838 55.336C817.838 54.6267 817.385 54.272 816.48 54.272ZM828.374 58.514H826.288V56.414H830.474V60.782C830.054 61.202 829.494 61.538 828.794 61.79C828.113 62.042 827.45 62.168 826.806 62.168C825.163 62.168 823.875 61.7107 822.942 60.796C822.018 59.8813 821.556 58.6493 821.556 57.1C821.556 55.6533 822.009 54.4493 822.914 53.488C823.829 52.5173 825.033 52.032 826.526 52.032C827.814 52.032 828.883 52.3727 829.732 53.054L828.794 54.86C828.598 54.6547 828.309 54.482 827.926 54.342C827.553 54.202 827.175 54.132 826.792 54.132C825.924 54.132 825.229 54.3887 824.706 54.902C824.193 55.4153 823.936 56.148 823.936 57.1C823.936 58.0053 824.197 58.7287 824.72 59.27C825.252 59.802 825.957 60.068 826.834 60.068C827.095 60.068 827.389 60.0167 827.716 59.914C828.024 59.8113 828.243 59.6993 828.374 59.578V58.514ZM832.428 61.972V52.228C833.52 52.172 834.509 52.144 835.396 52.144C836.479 52.144 837.295 52.3633 837.846 52.802C838.406 53.2313 838.686 53.824 838.686 54.58C838.686 55.5413 838.313 56.2693 837.566 56.764V56.792C837.986 56.9507 838.322 57.2213 838.574 57.604C838.835 57.9867 838.966 58.4627 838.966 59.032C838.966 60.012 838.621 60.7633 837.93 61.286C837.249 61.7993 836.353 62.056 835.242 62.056C833.945 62.056 833.007 62.028 832.428 61.972ZM835.536 58.038H834.668V59.872C834.873 59.928 835.125 59.956 835.424 59.956C836.292 59.956 836.726 59.6107 836.726 58.92C836.726 58.332 836.329 58.038 835.536 58.038ZM835.368 54.244C835.2 54.244 834.967 54.2627 834.668 54.3V56.078H835.41C836.101 56.078 836.446 55.7607 836.446 55.126C836.446 54.8553 836.343 54.6407 836.138 54.482C835.933 54.3233 835.676 54.244 835.368 54.244ZM843.583 62V61.09C845.179 59.522 847.965 56.876 847.965 54.79C847.965 53.922 847.433 53.208 846.369 53.208C845.585 53.208 844.815 53.726 844.619 54.776L843.667 54.384C843.905 52.928 845.095 52.088 846.467 52.088C848.301 52.088 849.155 53.348 849.155 54.566C849.155 57.31 845.823 60.264 845.039 60.95H849.561V62H843.583ZM851.106 57.1C851.106 54.16 852.072 52.088 854.284 52.088C856.496 52.088 857.462 54.16 857.462 57.1C857.462 60.054 856.524 62.112 854.312 62.112C852.1 62.112 851.106 60.054 851.106 57.1ZM852.296 57.1C852.296 59.62 852.926 61.062 854.312 61.062C855.74 61.062 856.272 59.634 856.272 57.1C856.272 54.566 855.712 53.138 854.284 53.138C852.856 53.138 852.296 54.594 852.296 57.1ZM862.228 56.4H862.592C863.418 56.4 864.16 55.686 864.16 54.79C864.16 53.768 863.334 53.18 862.382 53.18C861.416 53.18 860.646 53.81 860.646 54.79C860.646 55.686 861.388 56.4 862.228 56.4ZM862.578 57.52H862.27C861.234 57.52 860.338 58.234 860.338 59.256C860.338 60.278 861.206 61.02 862.396 61.02C863.656 61.02 864.468 60.306 864.468 59.256C864.454 58.15 863.6 57.52 862.578 57.52ZM862.41 62.14C860.646 62.14 859.148 61.132 859.148 59.466C859.148 58.248 859.904 57.296 860.996 56.988V56.946C860.142 56.652 859.456 55.714 859.456 54.622C859.456 53.082 860.772 52.06 862.396 52.06C864.02 52.06 865.35 53.082 865.35 54.622C865.35 55.574 864.748 56.54 863.74 56.932V56.974C864.818 57.156 865.658 58.08 865.658 59.382C865.658 61.132 864.174 62.14 862.41 62.14ZM870.339 62V61.09C871.935 59.522 874.721 56.876 874.721 54.79C874.721 53.922 874.189 53.208 873.125 53.208C872.341 53.208 871.571 53.726 871.375 54.776L870.423 54.384C870.661 52.928 871.851 52.088 873.223 52.088C875.057 52.088 875.911 53.348 875.911 54.566C875.911 57.31 872.579 60.264 871.795 60.95H876.317V62H870.339ZM877.862 57.1C877.862 54.16 878.828 52.088 881.04 52.088C883.252 52.088 884.218 54.16 884.218 57.1C884.218 60.054 883.28 62.112 881.068 62.112C878.856 62.112 877.862 60.054 877.862 57.1ZM879.052 57.1C879.052 59.62 879.682 61.062 881.068 61.062C882.496 61.062 883.028 59.634 883.028 57.1C883.028 54.566 882.468 53.138 881.04 53.138C879.612 53.138 879.052 54.594 879.052 57.1ZM888.984 56.4H889.348C890.174 56.4 890.916 55.686 890.916 54.79C890.916 53.768 890.09 53.18 889.138 53.18C888.172 53.18 887.402 53.81 887.402 54.79C887.402 55.686 888.144 56.4 888.984 56.4ZM889.334 57.52H889.026C887.99 57.52 887.094 58.234 887.094 59.256C887.094 60.278 887.962 61.02 889.152 61.02C890.412 61.02 891.224 60.306 891.224 59.256C891.21 58.15 890.356 57.52 889.334 57.52ZM889.166 62.14C887.402 62.14 885.904 61.132 885.904 59.466C885.904 58.248 886.66 57.296 887.752 56.988V56.946C886.898 56.652 886.212 55.714 886.212 54.622C886.212 53.082 887.528 52.06 889.152 52.06C890.776 52.06 892.106 53.082 892.106 54.622C892.106 55.574 891.504 56.54 890.496 56.932V56.974C891.574 57.156 892.414 58.08 892.414 59.382C892.414 61.132 890.93 62.14 889.166 62.14ZM897.095 62V61.09C898.691 59.522 901.477 56.876 901.477 54.79C901.477 53.922 900.945 53.208 899.881 53.208C899.097 53.208 898.327 53.726 898.131 54.776L897.179 54.384C897.417 52.928 898.607 52.088 899.979 52.088C901.813 52.088 902.667 53.348 902.667 54.566C902.667 57.31 899.335 60.264 898.551 60.95H903.073V62H897.095ZM904.618 57.1C904.618 54.16 905.584 52.088 907.796 52.088C910.008 52.088 910.974 54.16 910.974 57.1C910.974 60.054 910.036 62.112 907.824 62.112C905.612 62.112 904.618 60.054 904.618 57.1ZM905.808 57.1C905.808 59.62 906.438 61.062 907.824 61.062C909.252 61.062 909.784 59.634 909.784 57.1C909.784 54.566 909.224 53.138 907.796 53.138C906.368 53.138 905.808 54.594 905.808 57.1ZM912.45 58.528C912.45 54.93 915.054 52.564 917.21 52.06L917.672 52.914C915.936 53.362 914.2 54.846 913.766 57.268C914.158 56.526 914.914 55.966 916.076 55.966C917.686 55.966 918.876 57.198 918.876 58.976C918.876 60.908 917.378 62.14 915.852 62.14C913.668 62.14 912.45 60.474 912.45 58.528ZM913.64 58.528C913.64 59.858 914.368 61.02 915.838 61.02C916.916 61.02 917.686 60.11 917.686 59.06C917.686 57.926 917.014 57.016 915.698 57.016C914.55 57.016 913.864 57.842 913.64 58.528Z" fill="#585957"/>
<path d="M817.936 86.168L816.326 85.594L817.026 83.69H815.346L814.422 86.168L812.798 85.608L813.512 83.69H812.56V81.87H814.184L814.758 80.33H812.56V78.51H815.43L816.354 76.032L817.978 76.62L817.278 78.51H818.93L819.854 76.032L821.478 76.592L820.764 78.51H821.856V80.33H820.092L819.518 81.87H821.856V83.69H818.846L817.936 86.168ZM818.258 80.33H816.592L816.018 81.87H817.698L818.258 80.33ZM823.916 86H823.678V76.2H823.874C824.294 76.2 824.761 76.1953 825.274 76.186C825.47 76.186 825.685 76.186 825.918 76.186C826.161 76.1767 826.347 76.172 826.478 76.172C826.609 76.1627 826.707 76.158 826.772 76.158C828.611 76.158 829.987 76.6153 830.902 77.53C831.817 78.4447 832.274 79.6067 832.274 81.016C832.274 82.4627 831.784 83.662 830.804 84.614C829.833 85.5567 828.452 86.028 826.66 86.028C826.296 86.028 825.89 86.0233 825.442 86.014C824.994 86.0047 824.485 86 823.916 86ZM826.744 78.258C826.38 78.258 826.105 78.272 825.918 78.3V83.9C826.179 83.9187 826.45 83.928 826.73 83.928C827.719 83.928 828.494 83.6713 829.054 83.158C829.614 82.6447 829.894 81.9307 829.894 81.016C829.894 80.148 829.609 79.4713 829.04 78.986C828.471 78.5007 827.705 78.258 826.744 78.258ZM834.124 84.796C833.545 83.9093 833.256 82.6773 833.256 81.1C833.256 79.5227 833.541 78.2953 834.11 77.418C834.689 76.5313 835.533 76.088 836.644 76.088C837.745 76.088 838.585 76.5313 839.164 77.418C839.743 78.3047 840.032 79.532 840.032 81.1C840.032 82.6867 839.747 83.9187 839.178 84.796C838.609 85.6733 837.773 86.112 836.672 86.112C835.561 86.112 834.712 85.6733 834.124 84.796ZM835.496 81.1C835.496 83.1347 835.888 84.152 836.672 84.152C837.073 84.152 837.358 83.9233 837.526 83.466C837.703 83.0087 837.792 82.22 837.792 81.1C837.792 79.98 837.703 79.1913 837.526 78.734C837.358 78.2767 837.064 78.048 836.644 78.048C836.243 78.048 835.949 78.286 835.762 78.762C835.585 79.2287 835.496 80.008 835.496 81.1ZM841.949 86H841.711V76.2H841.907C842.327 76.2 842.794 76.1953 843.307 76.186C843.503 76.186 843.718 76.186 843.951 76.186C844.194 76.1767 844.381 76.172 844.511 76.172C844.642 76.1627 844.74 76.158 844.805 76.158C846.644 76.158 848.021 76.6153 848.935 77.53C849.85 78.4447 850.307 79.6067 850.307 81.016C850.307 82.4627 849.817 83.662 848.837 84.614C847.867 85.5567 846.485 86.028 844.693 86.028C844.329 86.028 843.923 86.0233 843.475 86.014C843.027 86.0047 842.519 86 841.949 86ZM844.777 78.258C844.413 78.258 844.138 78.272 843.951 78.3V83.9C844.213 83.9187 844.483 83.928 844.763 83.928C845.753 83.928 846.527 83.6713 847.087 83.158C847.647 82.6447 847.927 81.9307 847.927 81.016C847.927 80.148 847.643 79.4713 847.073 78.986C846.504 78.5007 845.739 78.258 844.777 78.258ZM852.157 84.796C851.578 83.9093 851.289 82.6773 851.289 81.1C851.289 79.5227 851.574 78.2953 852.143 77.418C852.722 76.5313 853.566 76.088 854.677 76.088C855.778 76.088 856.618 76.5313 857.197 77.418C857.776 78.3047 858.065 79.532 858.065 81.1C858.065 82.6867 857.78 83.9187 857.211 84.796C856.642 85.6733 855.806 86.112 854.705 86.112C853.594 86.112 852.745 85.6733 852.157 84.796ZM853.529 81.1C853.529 83.1347 853.921 84.152 854.705 84.152C855.106 84.152 855.391 83.9233 855.559 83.466C855.736 83.0087 855.825 82.22 855.825 81.1C855.825 79.98 855.736 79.1913 855.559 78.734C855.391 78.2767 855.097 78.048 854.677 78.048C854.276 78.048 853.982 78.286 853.795 78.762C853.618 79.2287 853.529 80.008 853.529 81.1ZM866.52 83.354L867.374 85.034C867.076 85.37 866.632 85.6453 866.044 85.86C865.466 86.0653 864.845 86.168 864.182 86.168C862.661 86.168 861.424 85.706 860.472 84.782C859.52 83.8393 859.044 82.612 859.044 81.1C859.044 79.6253 859.492 78.412 860.388 77.46C861.284 76.508 862.544 76.032 864.168 76.032C864.784 76.032 865.358 76.1253 865.89 76.312C866.422 76.4987 866.847 76.746 867.164 77.054L866.17 78.734C865.517 78.3327 864.85 78.132 864.168 78.132C863.375 78.132 862.717 78.3933 862.194 78.916C861.681 79.4293 861.424 80.1573 861.424 81.1C861.424 81.9587 861.7 82.6727 862.25 83.242C862.801 83.7927 863.515 84.068 864.392 84.068C865.176 84.068 865.886 83.83 866.52 83.354ZM874.868 86H868.918V76.2H874.728V78.3H871.158V80.022H874.308V82.122H871.158V83.9H874.868V86Z" fill="#585957"/>
<defs>
<clipPath id="clip0_52_224">
<rect width="72" height="72" fill="white" transform="translate(0 10.5)"/>
</clipPath>
<clipPath id="clip1_52_224">
<rect width="72" height="72" fill="white" transform="translate(213 10.5)"/>
</clipPath>
<clipPath id="clip2_52_224">
<rect width="72" height="72" fill="white" transform="translate(465 10.5)"/>
</clipPath>
<clipPath id="clip3_52_224">
<rect width="72" height="72" fill="white" transform="translate(720 10.5)"/>
</clipPath>
</defs>
</svg>
