<svg width="682" height="306" viewBox="0 0 682 306" fill="none" xmlns="http://www.w3.org/2000/svg">
<g clip-path="url(#clip0_54_225)">
<path d="M15.4299 7.53C15.4299 8.58 15.2799 9.56 14.9699 10.47C14.6699 11.38 14.2199 12.17 13.6199 12.85C13.0299 13.53 12.2699 14.06 11.3599 14.44C10.4499 14.83 9.38988 15.02 8.16988 15.02H4.59988V24.36H0.629883V0H7.97988C9.11988 0 10.1499 0.15 11.0599 0.46C11.9699 0.76 12.7499 1.22 13.4099 1.84C14.0599 2.46 14.5599 3.24 14.9099 4.18C15.2599 5.13 15.4299 6.24 15.4299 7.52V7.53ZM11.4699 7.44C11.4699 6.23 11.1799 5.31 10.5899 4.67C10.0099 4.03 9.11988 3.71 7.92988 3.71H4.60988V11.24H7.96988C9.15988 11.24 10.0399 10.9 10.6099 10.21C11.1799 9.52 11.4699 8.6 11.4699 7.44Z" fill="black"/>
<path d="M22.1897 3.71V10.33H30.4097V13.97H22.1897V24.36H18.1997V0H31.7397V3.71H22.1897Z" fill="black"/>
<path d="M49.8397 0C51.4697 0 52.8697 0.3 54.0397 0.91C55.2097 1.52 56.0597 2.52 56.5997 3.92C56.9297 4.78 57.1197 5.85 57.1797 7.12C57.2397 8.39 57.2697 9.83 57.2697 11.44C57.2697 13.42 57.2597 15.12 57.2397 16.53C57.2197 17.94 57.0197 19.15 56.6497 20.15C56.3497 20.97 55.9497 21.64 55.4597 22.18C54.9697 22.72 54.4097 23.14 53.7797 23.46C53.1497 23.78 52.4597 24 51.7197 24.14C50.9697 24.28 50.1997 24.35 49.4097 24.35H42.4097V0H49.8697H49.8397ZM53.2397 9.07C53.2397 7.41 52.9497 6.11 52.3597 5.15C51.7697 4.19 50.7397 3.71 49.2397 3.71H46.4097V20.65H49.2797C50.7697 20.65 51.8097 20.26 52.3797 19.48C52.9497 18.7 53.2397 17.61 53.2397 16.21V9.07Z" fill="black"/>
<path d="M61 3.64V0H64.85V3.64H61ZM61 24.36V7.04H64.85V24.37H61V24.36Z" fill="black"/>
<path d="M77.3801 24.36V13.23C77.3801 12.37 77.1501 11.71 76.6801 11.25C76.2101 10.79 75.6301 10.57 74.9301 10.57C74.1801 10.57 73.5801 10.81 73.1101 11.29C72.6401 11.77 72.4101 12.44 72.4101 13.3V24.36H68.5601V7.04H72.4401V8.72H72.5501C73.0201 8.16 73.5801 7.71 74.2301 7.37C74.8801 7.03 75.5701 6.86 76.3001 6.86C77.8601 6.86 79.0801 7.33 79.9401 8.28C80.8001 9.22 81.2301 10.51 81.2301 12.15V24.36H77.3801Z" fill="black"/>
<path d="M100.45 3.64V24.36H96.4601V3.64H91.1001V0H105.84V3.64H100.45Z" fill="black"/>
<path d="M116.72 19.32C117.26 19.6 117.79 19.88 118.31 20.16C118.83 20.44 119.37 20.73 119.9 21.04C119.36 22.2 118.57 23.07 117.52 23.66C116.47 24.25 115.3 24.54 114.02 24.54C111.57 24.54 109.84 23.82 108.82 22.37C107.8 20.92 107.3 18.71 107.3 15.72C107.3 14.48 107.4 13.33 107.6 12.25C107.8 11.18 108.15 10.24 108.65 9.43001C109.15 8.63001 109.82 7.99001 110.66 7.52001C111.5 7.05001 112.56 6.82001 113.84 6.82001C115.03 6.82001 116.03 7.02001 116.85 7.41001C117.67 7.81001 118.33 8.36001 118.85 9.06001C119.36 9.76001 119.73 10.59 119.95 11.55C120.17 12.51 120.28 13.56 120.28 14.7V16.73H111.21C111.21 17.29 111.25 17.84 111.32 18.37C111.39 18.9 111.53 19.36 111.74 19.76C111.95 20.16 112.23 20.48 112.58 20.71C112.93 20.95 113.39 21.06 113.95 21.06C114.51 21.06 115.02 20.9 115.49 20.59C115.96 20.28 116.37 19.85 116.72 19.31V19.32ZM116.33 14.03C116.33 12.93 116.14 12.05 115.75 11.39C115.36 10.73 114.71 10.39 113.77 10.39C112.83 10.39 112.19 10.74 111.85 11.44C111.5 12.14 111.3 13 111.25 14.03H116.33Z" fill="black"/>
<path d="M132.02 24.36L129.11 18.55L126.21 24.36H121.8L127.01 15.5C126.17 14.1 125.34 12.7 124.51 11.28C123.68 9.87 122.85 8.45 122.01 7.03H126.45L129.11 12.56H129.15L131.81 7.03H136.19L131.19 15.53L136.44 24.35H132.03L132.02 24.36Z" fill="black"/>
<path d="M143.57 24.36C142.12 24.36 141.04 23.95 140.32 23.14C139.6 22.32 139.24 21.32 139.24 20.13V10.12H137.42V7.04001H139.24V2.49001H143.02V7.04001H145.4V10.12H143.02V18.98C143.02 19.59 143.15 20.06 143.41 20.4C143.67 20.74 144.1 20.91 144.7 20.91H145.54V24.37H143.58L143.57 24.36Z" fill="black"/>
<path d="M14.7398 55.18C14.3398 56.88 13.4998 58.21 12.2198 59.15C10.9398 60.09 9.38982 60.57 7.55982 60.57C6.29982 60.57 5.19982 60.37 4.26982 59.98C3.33982 59.59 2.55982 59.03 1.92982 58.33C1.29982 57.63 0.829824 56.81 0.529824 55.86C0.229824 54.91 0.0698242 53.89 0.0698242 52.8V43.35C0.0698242 42.39 0.219824 41.46 0.529824 40.55C0.829824 39.64 1.28982 38.83 1.90982 38.13C2.52982 37.43 3.29982 36.87 4.23982 36.45C5.16982 36.03 6.27982 35.82 7.55982 35.82C9.51982 35.82 11.1098 36.33 12.3398 37.36C13.5698 38.39 14.3798 39.67 14.7698 41.21L10.9598 42.47C10.8898 42.12 10.7698 41.78 10.6098 41.45C10.4498 41.12 10.2298 40.83 9.93982 40.56C9.65982 40.29 9.31982 40.08 8.92982 39.91C8.52982 39.75 8.07982 39.67 7.55982 39.67C6.94982 39.67 6.42982 39.77 5.99982 39.98C5.56982 40.19 5.20982 40.46 4.92982 40.8C4.64982 41.14 4.43982 41.52 4.29982 41.94C4.15982 42.36 4.08982 42.78 4.08982 43.2V52.9C4.08982 53.41 4.15982 53.9 4.29982 54.37C4.43982 54.84 4.65982 55.25 4.94982 55.6C5.23982 55.95 5.59982 56.22 6.02982 56.42C6.45982 56.62 6.96982 56.72 7.54982 56.72C8.40982 56.72 9.14982 56.47 9.75982 55.98C10.3698 55.49 10.7498 54.81 10.9198 53.95L14.7398 55.18Z" fill="black"/>
<path d="M23.62 42.79C25.11 42.79 26.29 43.09 27.16 43.68C28.02 44.28 28.68 45.02 29.12 45.9C29.45 46.55 29.67 47.41 29.78 48.47C29.9 49.53 29.96 50.62 29.96 51.74C29.96 52.67 29.9 53.65 29.78 54.68C29.66 55.71 29.48 56.53 29.22 57.17C28.96 57.82 28.63 58.37 28.22 58.8C27.81 59.23 27.34 59.58 26.82 59.85C26.29 60.12 25.73 60.31 25.12 60.43C24.51 60.55 23.89 60.6 23.26 60.6C22 60.6 20.94 60.37 20.09 59.9C19.24 59.43 18.58 58.82 18.11 58.05C17.69 57.37 17.39 56.5 17.22 55.43C17.04 54.36 16.96 53.14 16.96 51.79C16.96 50.74 17.01 49.72 17.12 48.73C17.23 47.74 17.41 46.94 17.66 46.33C18.13 45.23 18.85 44.37 19.83 43.74C20.81 43.11 22.07 42.79 23.61 42.79H23.62ZM23.55 46.36C23.04 46.36 22.57 46.49 22.15 46.74C21.73 47 21.43 47.39 21.24 47.93C21.08 48.35 20.96 48.9 20.91 49.59C20.85 50.28 20.82 51.07 20.82 51.95C20.82 52.63 20.84 53.27 20.87 53.88C20.9 54.49 21 55.01 21.17 55.45C21.57 56.5 22.32 57.03 23.44 57.03C23.98 57.03 24.47 56.9 24.91 56.63C25.35 56.36 25.67 55.83 25.86 55.04C25.95 54.71 26.02 54.24 26.05 53.61C26.08 52.98 26.1 52.27 26.1 51.48C26.1 50.78 26.08 50.13 26.03 49.54C25.98 48.94 25.89 48.45 25.75 48.05C25.35 46.93 24.62 46.37 23.54 46.37L23.55 46.36Z" fill="black"/>
<path d="M41.86 60.36V49.23C41.86 48.37 41.63 47.71 41.16 47.25C40.69 46.79 40.11 46.57 39.41 46.57C38.66 46.57 38.06 46.81 37.59 47.29C37.12 47.77 36.89 48.44 36.89 49.3V60.36H33.04V43.03H36.92V44.71H37.03C37.5 44.15 38.06 43.7 38.71 43.36C39.36 43.02 40.05 42.85 40.78 42.85C42.34 42.85 43.56 43.32 44.42 44.27C45.28 45.21 45.71 46.5 45.71 48.14V60.35H41.86V60.36Z" fill="black"/>
<path d="M57.6098 58.89C57.1398 59.47 56.6098 59.89 55.9998 60.15C55.3898 60.41 54.7498 60.53 54.0798 60.53C52.8698 60.53 51.8998 60.28 51.1898 59.78C50.4798 59.28 49.9398 58.61 49.5798 57.78C49.2198 56.95 48.9898 56.01 48.8998 54.95C48.8098 53.89 48.7598 52.8 48.7598 51.68C48.7598 50.56 48.8198 49.54 48.9498 48.49C49.0798 47.44 49.3298 46.49 49.7198 45.66C50.0998 44.82 50.6598 44.14 51.3798 43.63C52.0998 43.12 53.0598 42.86 54.2498 42.86C54.8298 42.86 55.4298 42.99 56.0398 43.24C56.6498 43.5 57.1598 43.88 57.5798 44.4H57.6798V34.95H61.5298V60.36H57.6798V58.96L57.6098 58.89ZM55.2298 46.53C54.6698 46.53 54.2198 46.67 53.8798 46.95C53.5398 47.23 53.2798 47.61 53.1098 48.09C52.9398 48.57 52.8198 49.11 52.7798 49.72C52.7298 50.33 52.7098 50.94 52.7098 51.57C52.7098 52.32 52.7398 53.01 52.7998 53.65C52.8598 54.29 52.9698 54.86 53.1498 55.35C53.3298 55.84 53.5798 56.23 53.8998 56.51C54.2298 56.79 54.6698 56.93 55.2298 56.93C55.8398 56.93 56.3098 56.77 56.6498 56.44C56.9898 56.11 57.2298 55.69 57.3898 55.16C57.5398 54.63 57.6298 54.06 57.6698 53.43C57.7098 52.8 57.7198 52.17 57.7198 51.54C57.7198 50.96 57.6998 50.36 57.6498 49.75C57.5998 49.14 57.4898 48.61 57.3198 48.14C57.1498 47.67 56.8898 47.29 56.5698 46.98C56.2398 46.68 55.7998 46.52 55.2398 46.52L55.2298 46.53Z" fill="black"/>
<path d="M88.1999 43.53C88.1999 44.58 88.0499 45.56 87.7399 46.47C87.4399 47.38 86.9899 48.17 86.3899 48.85C85.7999 49.53 85.0399 50.06 84.1299 50.44C83.2199 50.83 82.1599 51.02 80.9399 51.02H77.3699V60.36H73.3799V36H80.7299C81.8699 36 82.8999 36.15 83.8099 36.46C84.7199 36.76 85.4999 37.22 86.1599 37.84C86.8099 38.46 87.3099 39.24 87.6599 40.18C88.0099 41.13 88.1799 42.24 88.1799 43.52L88.1999 43.53ZM84.2399 43.44C84.2399 42.23 83.9499 41.31 83.3599 40.67C82.7799 40.03 81.8899 39.71 80.6999 39.71H77.3799V47.24H80.7399C81.9299 47.24 82.8099 46.9 83.3799 46.21C83.9499 45.52 84.2399 44.6 84.2399 43.44Z" fill="black"/>
<path d="M97.79 46.64C96.81 46.64 96.03 46.9 95.46 47.43C94.89 47.96 94.6 48.81 94.6 49.97V60.39H90.75V43.03H94.56V45.01L94.67 45.04C95.14 44.21 95.71 43.64 96.38 43.32C97.06 43.01 97.81 42.85 98.65 42.85C99 42.85 99.33 42.88 99.63 42.94C99.93 43 100.21 43.12 100.47 43.31L99.7 47.09C99.37 46.91 99.05 46.79 98.74 46.73C98.43 46.67 98.1 46.64 97.78 46.64H97.79Z" fill="black"/>
<path d="M108.57 42.79C110.06 42.79 111.24 43.09 112.11 43.68C112.97 44.28 113.63 45.02 114.07 45.9C114.4 46.55 114.62 47.41 114.74 48.47C114.86 49.53 114.91 50.62 114.91 51.74C114.91 52.67 114.85 53.65 114.74 54.68C114.62 55.71 114.44 56.53 114.18 57.17C113.92 57.82 113.59 58.37 113.18 58.8C112.77 59.23 112.3 59.58 111.78 59.85C111.26 60.12 110.69 60.31 110.08 60.43C109.47 60.55 108.86 60.6 108.22 60.6C106.96 60.6 105.9 60.37 105.05 59.9C104.2 59.43 103.54 58.82 103.07 58.05C102.65 57.37 102.35 56.5 102.18 55.43C102.01 54.36 101.92 53.14 101.92 51.79C101.92 50.74 101.97 49.72 102.08 48.73C102.18 47.74 102.37 46.94 102.62 46.33C103.09 45.23 103.81 44.37 104.79 43.74C105.77 43.11 107.03 42.79 108.57 42.79ZM108.5 46.36C107.99 46.36 107.52 46.49 107.1 46.74C106.68 47 106.38 47.39 106.19 47.93C106.03 48.35 105.92 48.9 105.86 49.59C105.8 50.28 105.77 51.07 105.77 51.95C105.77 52.63 105.79 53.27 105.82 53.88C105.85 54.49 105.95 55.01 106.12 55.45C106.52 56.5 107.28 57.03 108.4 57.03C108.94 57.03 109.43 56.9 109.87 56.63C110.31 56.36 110.63 55.83 110.82 55.04C110.91 54.71 110.98 54.24 111.01 53.61C111.04 52.98 111.06 52.27 111.06 51.48C111.06 50.78 111.04 50.13 110.99 49.54C110.94 48.94 110.85 48.45 110.71 48.05C110.31 46.93 109.58 46.37 108.5 46.37V46.36Z" fill="black"/>
<path d="M15.4299 108.18C15.4299 109.23 15.2799 110.21 14.9699 111.12C14.6699 112.03 14.2199 112.82 13.6199 113.5C13.0299 114.18 12.2699 114.71 11.3599 115.09C10.4499 115.48 9.38988 115.67 8.16988 115.67H4.59988V125.01H0.629883V100.65H7.97988C9.11988 100.65 10.1499 100.8 11.0599 101.11C11.9699 101.41 12.7499 101.87 13.4099 102.49C14.0599 103.11 14.5599 103.89 14.9099 104.83C15.2599 105.78 15.4299 106.89 15.4299 108.17V108.18ZM11.4699 108.09C11.4699 106.88 11.1799 105.96 10.5899 105.32C10.0099 104.68 9.11988 104.36 7.92988 104.36H4.60988V111.89H7.96988C9.15988 111.89 10.0399 111.55 10.6099 110.86C11.1799 110.17 11.4699 109.25 11.4699 108.09Z" fill="black"/>
<path d="M22.1897 104.37V110.99H30.4097V114.63H22.1897V125.02H18.1997V100.66H31.7397V104.37H22.1897Z" fill="black"/>
<path d="M49.8397 100.66C51.4697 100.66 52.8697 100.96 54.0397 101.57C55.2097 102.18 56.0597 103.18 56.5997 104.58C56.9297 105.44 57.1197 106.51 57.1797 107.78C57.2397 109.05 57.2697 110.49 57.2697 112.1C57.2697 114.08 57.2597 115.78 57.2397 117.19C57.2197 118.6 57.0197 119.81 56.6497 120.81C56.3497 121.63 55.9497 122.3 55.4597 122.84C54.9697 123.38 54.4097 123.8 53.7797 124.12C53.1497 124.44 52.4597 124.66 51.7197 124.8C50.9697 124.94 50.1997 125.01 49.4097 125.01H42.4097V100.65H49.8697L49.8397 100.66ZM53.2397 109.73C53.2397 108.07 52.9497 106.77 52.3597 105.81C51.7697 104.85 50.7397 104.37 49.2397 104.37H46.4097V121.31H49.2797C50.7697 121.31 51.8097 120.92 52.3797 120.14C52.9497 119.36 53.2397 118.27 53.2397 116.87V109.73Z" fill="black"/>
<path d="M61 104.3V100.66H64.85V104.3H61ZM61 125.02V107.69H64.85V125.02H61Z" fill="black"/>
<path d="M77.3801 125.02V113.89C77.3801 113.03 77.1501 112.37 76.6801 111.91C76.2101 111.45 75.6301 111.23 74.9301 111.23C74.1801 111.23 73.5801 111.47 73.1101 111.95C72.6401 112.43 72.4101 113.1 72.4101 113.96V125.02H68.5601V107.69H72.4401V109.37H72.5501C73.0201 108.81 73.5801 108.36 74.2301 108.02C74.8801 107.68 75.5701 107.51 76.3001 107.51C77.8601 107.51 79.0801 107.98 79.9401 108.93C80.8001 109.87 81.2301 111.16 81.2301 112.8V125.01H77.3801V125.02Z" fill="black"/>
<path d="M8.04984 136.66C9.67984 136.66 11.0798 136.96 12.2498 137.57C13.4198 138.18 14.2698 139.18 14.7998 140.58C15.1298 141.44 15.3198 142.51 15.3798 143.78C15.4398 145.05 15.4698 146.49 15.4698 148.1C15.4698 150.08 15.4598 151.78 15.4298 153.19C15.3998 154.6 15.2098 155.81 14.8398 156.81C14.5398 157.63 14.1398 158.3 13.6498 158.84C13.1598 159.38 12.5998 159.8 11.9698 160.12C11.3398 160.44 10.6498 160.66 9.90984 160.8C9.15984 160.94 8.38984 161.01 7.59984 161.01H0.589844V136.65H8.04984V136.66ZM11.4398 145.73C11.4398 144.07 11.1498 142.77 10.5598 141.81C9.97984 140.85 8.93984 140.37 7.44984 140.37H4.61984V157.31H7.48984C8.97984 157.31 10.0198 156.92 10.5898 156.14C11.1598 155.36 11.4498 154.27 11.4498 152.87V145.73H11.4398Z" fill="black"/>
<path d="M19.21 140.3V136.66H23.06V140.3H19.21ZM19.21 161.02V143.69H23.06V161.02H19.21Z" fill="black"/>
<path d="M38.9198 155.87C38.9198 157.48 38.3498 158.77 37.2098 159.75C36.0698 160.73 34.4898 161.22 32.4898 161.22C30.9498 161.22 29.6498 160.94 28.5998 160.39C27.5498 159.84 26.6898 158.97 26.0098 157.79L28.8798 155.69C29.6698 157.07 30.8598 157.76 32.4498 157.76C33.2398 157.76 33.8698 157.59 34.3198 157.24C34.7698 156.89 34.9998 156.41 34.9998 155.81C34.9998 155.21 34.7798 154.74 34.3498 154.48C33.9198 154.22 33.3198 154 32.5498 153.82C31.7298 153.63 30.9598 153.42 30.2198 153.17C29.4798 152.92 28.8398 152.61 28.2798 152.23C27.7198 151.85 27.2698 151.36 26.9298 150.78C26.5898 150.2 26.4198 149.49 26.4198 148.65C26.4198 147.86 26.5798 147.14 26.8898 146.5C27.1998 145.86 27.6198 145.32 28.1598 144.88C28.6898 144.44 29.3298 144.1 30.0698 143.87C30.8098 143.64 31.6098 143.52 32.4798 143.52C34.0398 143.52 35.2998 143.78 36.2398 144.31C37.1898 144.84 37.9498 145.55 38.5298 146.46L35.9398 148.7C35.1698 147.51 34.0498 146.91 32.5798 146.91C31.7198 146.91 31.1198 147.09 30.7798 147.45C30.4398 147.81 30.2698 148.2 30.2698 148.62C30.2698 148.9 30.3598 149.14 30.5298 149.34C30.6998 149.54 30.9498 149.71 31.2498 149.85C31.5498 149.99 31.8898 150.11 32.2698 150.22C32.6398 150.33 33.0298 150.43 33.4298 150.52C34.2298 150.71 34.9698 150.92 35.6398 151.17C36.3098 151.42 36.8998 151.74 37.3798 152.15C37.8598 152.56 38.2398 153.07 38.4998 153.67C38.7598 154.27 38.8998 155.01 38.8998 155.88L38.9198 155.87Z" fill="black"/>
<path d="M45.5001 145.16C45.9401 144.58 46.4701 144.16 47.0901 143.9C47.7101 143.64 48.3401 143.52 49.0001 143.52C50.2101 143.52 51.1701 143.78 51.8701 144.31C52.5701 144.84 53.1101 145.52 53.4801 146.38C53.8501 147.24 54.0901 148.19 54.2001 149.25C54.3101 150.31 54.3601 151.37 54.3601 152.42C54.3601 153.47 54.3001 154.52 54.1701 155.57C54.0401 156.62 53.7901 157.57 53.4001 158.4C53.0101 159.23 52.4601 159.92 51.7401 160.43C51.0201 160.94 50.0601 161.2 48.8701 161.2C48.2901 161.2 47.6901 161.07 47.0701 160.82C46.4501 160.56 45.9301 160.17 45.5101 159.63C45.4901 159.63 45.4701 159.63 45.4601 159.65C45.4501 159.66 45.4301 159.67 45.4101 159.67V168.04H41.5601V143.71H45.4101V145.15C45.4101 145.15 45.4501 145.15 45.4601 145.17C45.4701 145.19 45.4901 145.19 45.5101 145.19L45.5001 145.16ZM47.8801 157.52C48.4401 157.52 48.8901 157.37 49.2301 157.08C49.5701 156.79 49.8201 156.4 50.0001 155.91C50.1701 155.42 50.2901 154.87 50.3501 154.27C50.4101 153.66 50.4401 153.04 50.4401 152.41C50.4401 151.69 50.4101 151 50.3501 150.36C50.2901 149.72 50.1701 149.16 50.0001 148.68C49.8301 148.2 49.5701 147.83 49.2501 147.56C48.9201 147.29 48.4801 147.16 47.9201 147.16C47.3101 147.16 46.8401 147.31 46.5001 147.62C46.1601 147.92 45.9101 148.33 45.7501 148.85C45.5901 149.36 45.4901 149.94 45.4501 150.58C45.4101 151.22 45.4001 151.88 45.4001 152.56C45.4001 153.12 45.4201 153.69 45.4701 154.27C45.5201 154.85 45.6201 155.38 45.7801 155.86C45.9401 156.34 46.1901 156.74 46.5201 157.05C46.8501 157.37 47.3001 157.52 47.8901 157.52H47.8801Z" fill="black"/>
<path d="M62.3298 161.09C60.8098 161.09 59.6298 160.76 58.7898 160.11C57.9498 159.46 57.5298 158.28 57.5298 156.57V135.61H61.3798V155.81C61.3798 156.49 61.5098 156.96 61.7698 157.23C62.0298 157.5 62.4498 157.63 63.0098 157.63H63.5798V161.09H62.3198H62.3298Z" fill="black"/>
<path d="M74.3697 161.02V159.69L74.2297 159.62C73.8097 160.18 73.2497 160.58 72.5497 160.83C71.8497 161.08 71.1397 161.2 70.4197 161.2C68.7197 161.2 67.4597 160.72 66.6397 159.77C65.8197 158.81 65.4097 157.55 65.4097 155.99C65.4097 155.24 65.5297 154.55 65.7597 153.91C65.9897 153.27 66.3497 152.71 66.8397 152.23C67.3297 151.75 67.9497 151.37 68.6897 151.09C69.4397 150.81 70.3197 150.67 71.3497 150.67H74.3597V149.1C74.3597 148.52 74.1597 148.02 73.7697 147.61C73.3697 147.2 72.7197 147 71.8097 147C71.1797 147 70.5997 147.11 70.0597 147.33C69.5197 147.55 69.0997 147.95 68.7997 148.54C68.7097 148.49 68.5197 148.38 68.2397 148.21C67.9597 148.03 67.6597 147.85 67.3497 147.67C67.0297 147.48 66.7397 147.3 66.4697 147.13C66.1997 146.95 66.0197 146.83 65.9297 146.76C66.4697 145.64 67.2597 144.82 68.3097 144.31C69.3597 143.8 70.5497 143.54 71.8797 143.54C72.7897 143.54 73.6297 143.63 74.3897 143.8C75.1597 143.97 75.8197 144.27 76.3897 144.69C76.9597 145.11 77.3997 145.66 77.7197 146.35C78.0397 147.04 78.2097 147.9 78.2097 148.92V161.03H74.3597L74.3697 161.02ZM74.3697 153.6H71.6097C70.8397 153.6 70.2397 153.78 69.8097 154.14C69.3797 154.5 69.1597 155.03 69.1597 155.73C69.1597 156.27 69.3497 156.73 69.7397 157.13C70.1297 157.53 70.7597 157.72 71.6497 157.72C72.3997 157.72 73.0397 157.53 73.5697 157.14C74.1097 156.75 74.3697 156.13 74.3697 155.27V153.59V153.6Z" fill="black"/>
<path d="M87.8101 164.27C87.4101 165.58 86.7901 166.53 85.9401 167.14C85.0901 167.75 84.0701 168.05 82.8801 168.05H81.5901V164.72H82.5001C83.5301 164.72 84.2301 164.01 84.6001 162.59L85.2301 160.35L79.8101 143.69H83.9401L85.6201 149.96L86.9801 155.28H87.1201L88.4501 149.96L90.1301 143.69H94.1901L87.8201 164.27H87.8101Z" fill="black"/>
<path d="M119.24 144.18C119.24 145.23 119.09 146.21 118.78 147.12C118.48 148.03 118.03 148.82 117.43 149.5C116.83 150.18 116.08 150.71 115.17 151.09C114.26 151.48 113.2 151.67 111.98 151.67H108.41V161.01H104.42V136.65H111.77C112.91 136.65 113.94 136.8 114.85 137.11C115.76 137.41 116.54 137.87 117.19 138.49C117.84 139.11 118.35 139.89 118.7 140.83C119.05 141.78 119.22 142.89 119.22 144.17L119.24 144.18ZM115.28 144.09C115.28 142.88 114.99 141.96 114.4 141.32C113.82 140.68 112.93 140.36 111.74 140.36H108.41V147.89H111.77C112.96 147.89 113.84 147.55 114.41 146.86C114.98 146.17 115.27 145.25 115.27 144.09H115.28Z" fill="black"/>
<path d="M128.83 147.3C127.85 147.3 127.07 147.56 126.5 148.09C125.93 148.62 125.64 149.47 125.64 150.63V161.05H121.79V143.69H125.6V145.67L125.71 145.7C126.18 144.87 126.75 144.3 127.42 143.98C128.1 143.67 128.85 143.51 129.69 143.51C130.04 143.51 130.37 143.54 130.67 143.6C130.97 143.66 131.25 143.78 131.51 143.97L130.74 147.75C130.41 147.57 130.09 147.45 129.78 147.39C129.47 147.33 129.14 147.3 128.82 147.3H128.83Z" fill="black"/>
<path d="M139.61 143.45C141.1 143.45 142.28 143.75 143.15 144.34C144.01 144.94 144.67 145.68 145.11 146.56C145.44 147.21 145.66 148.07 145.78 149.13C145.9 150.19 145.95 151.28 145.95 152.4C145.95 153.33 145.89 154.31 145.78 155.34C145.66 156.37 145.48 157.19 145.22 157.83C144.96 158.48 144.63 159.03 144.22 159.46C143.81 159.89 143.34 160.24 142.82 160.51C142.3 160.78 141.73 160.97 141.12 161.09C140.51 161.21 139.89 161.26 139.26 161.26C138 161.26 136.94 161.03 136.09 160.56C135.24 160.09 134.58 159.48 134.11 158.71C133.69 158.03 133.39 157.16 133.22 156.09C133.05 155.02 132.96 153.8 132.96 152.45C132.96 151.4 133.01 150.38 133.12 149.39C133.22 148.4 133.41 147.6 133.66 146.99C134.13 145.89 134.85 145.03 135.83 144.4C136.81 143.77 138.07 143.45 139.61 143.45ZM139.54 147.02C139.03 147.02 138.56 147.15 138.14 147.4C137.72 147.66 137.42 148.05 137.23 148.59C137.07 149.01 136.96 149.56 136.9 150.25C136.84 150.94 136.81 151.73 136.81 152.61C136.81 153.29 136.83 153.93 136.86 154.54C136.89 155.15 136.99 155.67 137.16 156.11C137.56 157.16 138.32 157.69 139.43 157.69C139.97 157.69 140.46 157.56 140.9 157.29C141.34 157.02 141.66 156.49 141.85 155.7C141.94 155.37 142.01 154.9 142.04 154.27C142.07 153.64 142.09 152.93 142.09 152.14C142.09 151.44 142.07 150.79 142.02 150.2C141.97 149.6 141.88 149.11 141.74 148.71C141.34 147.59 140.61 147.03 139.53 147.03L139.54 147.02Z" fill="black"/>
<path d="M20.48 217.47C18.94 219.11 15.82 220.23 12.64 220.23C5.15 220.23 0 215.23 0 207.59C0 200.55 4.45 194.95 12.53 194.95C15.72 194.95 18.38 195.97 19.99 197.44L18.06 200.63C16.59 199.65 14.98 198.98 12.53 198.98C7.98 198.98 4.55 202.27 4.55 207.59C4.55 212.91 8.01 216.2 13.02 216.2C15.09 216.2 17.15 215.53 18.83 214.24L20.48 217.46V217.47Z" fill="black"/>
<path d="M26.29 196.08C27.45 196.08 28.6 196.99 28.6 198.43C28.6 200.04 27.44 200.95 26.29 200.95C24.92 200.95 23.77 200.04 23.77 198.43C23.77 196.99 24.93 196.08 26.29 196.08ZM24.19 204.1H28.22V219.85H24.19V204.1Z" fill="black"/>
<path d="M33.2798 204.1H37.3098V205.64C38.0498 204.63 39.0298 203.82 40.9198 203.82C42.2198 203.82 42.8498 204.03 43.3698 204.41L41.9298 208.19C41.1598 207.73 40.7398 207.6 39.8998 207.6C38.4998 207.6 37.7598 208.37 37.3098 209.28V219.85H33.2798V204.1Z" fill="black"/>
<path d="M59.4999 217.5C58.1699 219.29 55.7899 220.23 53.2299 220.23C48.1199 220.23 44.6899 216.94 44.6899 211.97C44.6899 207.39 48.0499 203.71 52.8499 203.71C55.4399 203.71 57.7199 204.38 59.1799 205.84L57.2899 209.03C56.0999 207.87 54.7999 207.49 53.3699 207.49C51.1299 207.49 48.9899 209.21 48.9899 211.97C48.9899 214.73 51.1599 216.49 53.5399 216.49C55.2599 216.49 56.5899 215.69 57.5999 214.57L59.4899 217.51L59.4999 217.5Z" fill="black"/>
<path d="M75.3899 218.27C73.8099 219.6 71.5699 220.23 69.3699 220.23C64.2899 220.23 60.8999 216.94 60.8999 211.97C60.8999 207.39 64.0499 203.71 69.2299 203.71C73.2899 203.71 76.6899 206.62 76.6899 211.03C76.6899 212.01 76.6199 212.61 76.4399 213.2H65.0599C65.4099 215.58 67.2999 216.87 69.7899 216.87C71.7199 216.87 73.3299 216.17 74.2399 215.44L75.3999 218.27H75.3899ZM64.9199 210.5H72.6599C72.6899 208.57 71.3599 207.07 69.0499 207.07C66.7399 207.07 65.3399 208.44 64.9199 210.5Z" fill="black"/>
<path d="M229.8 44.53C229.28 42.69 228.76 40.84 228.24 38.98C227.72 37.12 227.18 35.27 226.62 33.43H209.52L206.34 44.53H204.72L216.96 2.77H219.18L231.48 44.53H229.8ZM214.92 14.97C214.12 17.82 213.29 20.65 212.43 23.48C211.57 26.31 210.74 29.16 209.94 32.05H226.2L221.16 14.91L218.1 4.27H217.98L214.92 14.97ZM251.82 41.41C251.3 42.21 250.69 42.84 249.99 43.3C249.29 43.76 248.55 44.11 247.77 44.35C246.99 44.59 246.18 44.75 245.34 44.83C244.5 44.91 243.7 44.95 242.94 44.95C240.26 44.95 238.11 44.25 236.49 42.85C234.87 41.45 234.06 39.45 234.06 36.85C234.06 35.69 234.23 34.58 234.57 33.52C234.91 32.46 235.44 31.52 236.16 30.7C236.88 29.88 237.8 29.23 238.92 28.75C240.04 28.27 241.38 28.03 242.94 28.03H251.94V22.99C251.94 20.83 251.37 19.13 250.23 17.89C249.09 16.65 247.24 16.03 244.68 16.03C242.88 16.03 241.33 16.32 240.03 16.9C238.73 17.48 237.64 18.27 236.76 19.27L235.56 18.31C236.64 17.15 237.83 16.25 239.15 15.61C240.47 14.97 242.28 14.65 244.59 14.65C245.87 14.65 247.04 14.78 248.12 15.04C249.2 15.3 250.13 15.75 250.93 16.39C251.73 17.03 252.34 17.89 252.78 18.97C253.22 20.05 253.44 21.41 253.44 23.05V44.53H251.94V41.41H251.82ZM243.3 29.41C241.1 29.41 239.26 29.99 237.78 31.14C236.3 32.29 235.56 34.15 235.56 36.7C235.56 38.73 236.21 40.38 237.51 41.66C238.81 42.93 240.74 43.57 243.3 43.57C244.26 43.57 245.25 43.46 246.27 43.24C247.29 43.02 248.22 42.66 249.06 42.16C249.9 41.66 250.59 41.01 251.13 40.19C251.67 39.37 251.94 38.37 251.94 37.17V29.4H243.3V29.41Z" fill="black"/>
<path d="M293.46 44.53C293.3 43.93 293.09 43.15 292.83 42.19C292.57 41.23 292.29 40.25 291.99 39.25C291.69 38.25 291.4 37.27 291.12 36.31C290.84 35.35 290.62 34.57 290.46 33.97H274.62L271.62 44.53H268.86L281.04 2.77H284.04L296.28 44.53H293.46ZM285.42 16.53L282.6 6.31H282.42C280.18 14.37 277.78 22.79 275.22 31.57H289.8L285.42 16.53ZM315.9 41.71C314.98 43.03 313.76 43.9 312.24 44.32C310.72 44.74 309.18 44.95 307.62 44.95C304.86 44.95 302.71 44.19 301.17 42.66C299.63 41.13 298.86 39.11 298.86 36.58C298.86 35.38 299.04 34.22 299.4 33.12C299.76 32.02 300.32 31.06 301.08 30.26C301.84 29.46 302.81 28.82 303.99 28.33C305.17 27.85 306.58 27.61 308.22 27.61H316.08V23.05C316.08 21.17 315.54 19.69 314.46 18.61C313.38 17.53 311.7 16.99 309.42 16.99C307.86 16.99 306.47 17.25 305.25 17.77C304.03 18.29 303.06 19.05 302.34 20.05C302.14 19.93 301.8 19.7 301.32 19.36C300.84 19.02 300.5 18.79 300.3 18.67C301.26 17.39 302.46 16.39 303.9 15.67C305.34 14.95 307.18 14.59 309.42 14.59C310.74 14.59 311.97 14.72 313.11 14.98C314.25 15.24 315.23 15.7 316.05 16.36C316.87 17.02 317.52 17.9 318 19C318.48 20.1 318.72 21.49 318.72 23.17V44.53H316.08V41.71H315.9ZM316.08 30.01H308.34C306.34 30.01 304.68 30.52 303.36 31.54C302.04 32.56 301.38 34.19 301.38 36.43C301.38 38.23 301.97 39.7 303.15 40.84C304.33 41.98 306.06 42.55 308.34 42.55C309.26 42.55 310.18 42.45 311.1 42.25C312.02 42.05 312.85 41.71 313.59 41.23C314.33 40.75 314.93 40.13 315.39 39.37C315.85 38.61 316.08 37.67 316.08 36.55V30.01Z" fill="black"/>
<path d="M358.07 44.53L355.25 34.51H340.73L337.91 44.53H333.95L346.13 2.77H349.91L362.09 44.53H358.07ZM350.69 18.13L348.11 8.41H347.87C347.79 8.73 347.63 9.35 347.39 10.27C347.15 11.19 346.89 12.19 346.61 13.27C346.33 14.35 346.06 15.36 345.8 16.3C345.54 17.24 345.37 17.85 345.29 18.13C345.17 18.61 344.93 19.46 344.57 20.68C344.21 21.9 343.84 23.2 343.46 24.58C343.08 25.96 342.71 27.26 342.35 28.48C341.99 29.7 341.73 30.55 341.57 31.03H354.35L350.69 18.13ZM380.99 42.01C380.19 43.09 379.11 43.84 377.75 44.26C376.39 44.68 374.93 44.89 373.37 44.89C370.53 44.89 368.38 44.08 366.92 42.46C365.46 40.84 364.73 38.81 364.73 36.37C364.73 35.13 364.92 33.95 365.3 32.83C365.68 31.71 366.27 30.75 367.07 29.95C367.87 29.15 368.89 28.51 370.13 28.03C371.37 27.55 372.85 27.31 374.57 27.31H381.17V23.2C381.17 21.59 380.68 20.32 379.7 19.4C378.72 18.47 377.23 18.01 375.23 18.01C373.87 18.01 372.63 18.24 371.51 18.7C370.39 19.16 369.53 19.91 368.93 20.95C368.49 20.71 368.01 20.41 367.49 20.05C366.97 19.69 366.49 19.37 366.05 19.09C366.89 17.66 368.09 16.55 369.65 15.74C371.21 14.93 373.07 14.53 375.23 14.53C376.59 14.53 377.87 14.67 379.07 14.95C380.27 15.23 381.3 15.71 382.17 16.39C383.04 17.07 383.72 17.97 384.21 19.09C384.7 20.21 384.95 21.61 384.95 23.29V44.53H381.17V42.07L380.99 42.01ZM381.17 30.61H374.45C372.65 30.61 371.17 31.05 370.01 31.93C368.85 32.81 368.27 34.21 368.27 36.13C368.27 37.69 368.79 38.96 369.83 39.94C370.87 40.92 372.41 41.41 374.45 41.41C375.33 41.41 376.17 41.31 376.97 41.11C377.77 40.91 378.48 40.6 379.1 40.18C379.72 39.76 380.22 39.2 380.6 38.5C380.98 37.8 381.17 36.93 381.17 35.89V30.61Z" fill="black"/>
<path d="M424.19 44.53L421.55 35.05H408.23L405.65 44.53H400.55L412.67 2.77H417.17L429.35 44.53H424.19ZM417.35 19.75L415.01 10.51H414.77L412.43 19.69L409.37 30.55H420.41L417.35 19.75ZM447.53 42.25C446.85 43.13 445.9 43.79 444.68 44.23C443.46 44.67 442.07 44.89 440.51 44.89C439.07 44.89 437.81 44.66 436.73 44.2C435.65 43.74 434.76 43.11 434.06 42.31C433.36 41.51 432.84 40.58 432.5 39.52C432.16 38.46 431.99 37.35 431.99 36.19C431.99 33.55 432.81 31.36 434.45 29.62C436.09 27.88 438.71 27.01 442.31 27.01H447.77V23.32C447.77 21.95 447.32 20.88 446.42 20.12C445.52 19.35 444.19 18.97 442.43 18.97C441.27 18.97 440.18 19.18 439.16 19.6C438.14 20.02 437.41 20.75 436.97 21.79C436.33 21.43 435.7 21.06 435.08 20.68C434.46 20.3 433.83 19.91 433.19 19.51C433.99 17.89 435.22 16.64 436.88 15.77C438.54 14.9 440.38 14.47 442.41 14.47C443.8 14.47 445.12 14.62 446.35 14.92C447.59 15.22 448.67 15.71 449.61 16.39C450.55 17.07 451.28 17.98 451.82 19.12C452.36 20.26 452.63 21.69 452.63 23.41V44.53H447.77V42.37L447.53 42.25ZM447.77 31.15H441.95C440.39 31.15 439.11 31.52 438.11 32.27C437.11 33.01 436.61 34.23 436.61 35.92C436.61 37.25 437.05 38.33 437.93 39.15C438.81 39.98 440.15 40.39 441.95 40.39C443.63 40.39 445.02 40.01 446.12 39.24C447.22 38.48 447.77 37.15 447.77 35.25V31.14V31.15Z" fill="black"/>
<path d="M489.53 35.53H477.95C477.87 35.89 477.71 36.49 477.47 37.33C477.23 38.17 476.98 39.07 476.72 40.03C476.46 40.99 476.22 41.89 476 42.73C475.78 43.57 475.61 44.17 475.49 44.53H468.35L480.41 2.77H487.01L499.13 44.53H491.87L489.53 35.53ZM481.61 21.01L479.45 29.41H487.97L485.87 21.07C485.79 20.71 485.66 20.11 485.48 19.27C485.3 18.43 485.1 17.55 484.88 16.63C484.66 15.71 484.45 14.84 484.25 14.02C484.05 13.2 483.93 12.61 483.89 12.25H483.59L481.61 21.01ZM516.95 44.53V42.25L516.71 42.13C515.99 43.09 515.03 43.78 513.83 44.2C512.63 44.62 511.41 44.83 510.17 44.83C507.25 44.83 505.09 44.01 503.69 42.37C502.29 40.73 501.59 38.57 501.59 35.89C501.59 34.61 501.79 33.42 502.19 32.32C502.59 31.22 503.21 30.26 504.05 29.44C504.89 28.62 505.95 27.97 507.23 27.49C508.51 27.01 510.03 26.77 511.79 26.77H516.95V24.07C516.95 23.07 516.61 22.22 515.93 21.52C515.25 20.82 514.13 20.47 512.57 20.47C511.49 20.47 510.49 20.66 509.57 21.04C508.65 21.42 507.93 22.11 507.41 23.11C507.25 23.03 506.93 22.84 506.45 22.54C505.97 22.24 505.46 21.93 504.92 21.61C504.38 21.29 503.88 20.98 503.42 20.68C502.96 20.38 502.65 20.17 502.49 20.05C503.41 18.13 504.77 16.73 506.57 15.85C508.37 14.97 510.41 14.53 512.69 14.53C514.25 14.53 515.69 14.68 517 14.98C518.31 15.28 519.46 15.79 520.43 16.51C521.4 17.23 522.16 18.18 522.72 19.36C523.27 20.54 523.55 22.01 523.55 23.77V44.53H516.95ZM516.95 31.81H512.21C510.89 31.81 509.86 32.12 509.12 32.74C508.38 33.36 508.01 34.27 508.01 35.47C508.01 36.39 508.34 37.19 509 37.87C509.66 38.55 510.75 38.89 512.27 38.89C513.55 38.89 514.65 38.56 515.57 37.9C516.49 37.24 516.95 36.17 516.95 34.69V31.81Z" fill="black"/>
<path d="M561.47 36.01H551.57C551.21 37.41 550.84 38.83 550.46 40.27C550.08 41.71 549.69 43.13 549.29 44.53H540.11L552.17 2.77H560.81L572.87 44.53H563.51L561.47 36.01ZM554.69 22.27L553.49 28.27H559.49L558.35 22.33L556.67 13.99H556.37L554.69 22.27ZM590.09 44.53V42.11L589.85 42.05C589.09 43.06 588.13 43.77 586.97 44.2C585.81 44.62 584.77 44.83 583.85 44.83C580.93 44.83 578.75 44.05 577.31 42.49C575.87 40.93 575.15 38.65 575.15 35.65C575.15 34.41 575.36 33.24 575.78 32.14C576.2 31.04 576.83 30.07 577.67 29.23C578.51 28.39 579.56 27.73 580.82 27.25C582.08 26.77 583.57 26.53 585.29 26.53H590.09V24.79C590.09 24.15 589.85 23.51 589.37 22.87C588.89 22.23 587.97 21.91 586.61 21.91C585.57 21.91 584.65 22.08 583.85 22.42C583.05 22.76 582.37 23.41 581.81 24.37L575.75 20.53C576.87 18.33 578.38 16.78 580.28 15.88C582.18 14.98 584.37 14.53 586.85 14.53C588.53 14.53 590.09 14.69 591.53 15.01C592.97 15.33 594.2 15.86 595.22 16.6C596.24 17.34 597.04 18.32 597.62 19.54C598.2 20.76 598.49 22.29 598.49 24.13V44.53H590.09ZM590.09 32.41H586.43C585.31 32.41 584.51 32.65 584.03 33.12C583.55 33.59 583.31 34.23 583.31 35.02C583.31 35.57 583.54 36.12 584 36.65C584.46 37.18 585.29 37.45 586.49 37.45C587.45 37.45 588.29 37.17 589.01 36.62C589.73 36.07 590.09 35.26 590.09 34.19V32.41Z" fill="black"/>
<path d="M228.33 132.65H208.23L204.75 142.97H203.01L217.23 101.63H219.33L233.67 142.97H231.99L228.33 132.65ZM208.77 131.27H227.85L218.25 103.19L208.77 131.27ZM257.67 138.89C256.11 139.93 254.72 140.74 253.5 141.32C252.28 141.9 251.19 142.35 250.23 142.67C249.27 142.99 248.42 143.19 247.68 143.27C246.94 143.35 246.29 143.39 245.73 143.39C243.05 143.39 240.86 142.72 239.16 141.38C237.46 140.04 236.61 138.01 236.61 135.29C236.61 133.77 236.9 132.49 237.48 131.45C238.06 130.41 238.8 129.56 239.7 128.9C240.6 128.24 241.62 127.76 242.76 127.46C243.9 127.16 245.01 127.01 246.09 127.01H257.67V123.69C257.67 120.35 256.89 118.01 255.33 116.67C253.77 115.33 251.53 114.65 248.61 114.65C246.97 114.65 245.42 114.86 243.96 115.28C242.5 115.7 241.01 116.39 239.49 117.35L238.59 116.09C240.11 115.17 241.67 114.47 243.25 113.99C244.83 113.51 246.65 113.27 248.7 113.27C250.75 113.27 252.5 113.52 253.84 114.02C255.18 114.52 256.26 115.2 257.06 116.06C257.86 116.92 258.42 117.95 258.74 119.15C259.06 120.35 259.22 121.65 259.22 123.05V142.97H258.1L257.66 138.89H257.67ZM247.17 128.39C246.29 128.39 245.32 128.46 244.26 128.6C243.2 128.74 242.22 129.05 241.32 129.53C240.42 130.01 239.67 130.7 239.07 131.6C238.47 132.5 238.17 133.73 238.17 135.29C238.17 136.49 238.38 137.51 238.8 138.35C239.22 139.19 239.77 139.88 240.45 140.42C241.13 140.96 241.93 141.36 242.85 141.62C243.77 141.88 244.75 142.01 245.79 142.01C246.71 142.01 247.68 141.87 248.7 141.59C249.72 141.31 250.75 140.95 251.79 140.51C252.83 140.07 253.85 139.57 254.85 139.01C255.85 138.45 256.79 137.89 257.67 137.33V128.39H247.17Z" fill="black"/>
<path d="M307.59 142.97C307.03 141.29 306.45 139.63 305.85 137.99C305.25 136.35 304.65 134.69 304.05 133.01H285.15C284.59 134.69 284.03 136.35 283.47 137.99C282.91 139.63 282.35 141.29 281.79 142.97H278.73L293.01 101.63H296.25L310.65 142.97H307.59ZM294.57 105.17C294.41 105.65 294.12 106.54 293.7 107.84C293.28 109.14 292.78 110.64 292.2 112.34C291.62 114.04 291.01 115.85 290.37 117.77C289.73 119.69 289.12 121.5 288.54 123.2C287.96 124.9 287.45 126.4 287.01 127.7C286.57 129 286.27 129.89 286.11 130.37H303.15C302.99 129.89 302.7 129 302.28 127.7C301.86 126.4 301.36 124.9 300.78 123.2C300.2 121.5 299.58 119.69 298.92 117.77C298.26 115.85 297.64 114.03 297.06 112.31C296.48 110.59 295.97 109.09 295.53 107.81C295.09 106.53 294.79 105.65 294.63 105.17H294.57ZM334.11 139.31H334.05C332.61 140.23 331.32 140.95 330.18 141.47C329.04 141.99 328.02 142.39 327.12 142.67C326.22 142.95 325.41 143.13 324.69 143.21C323.97 143.29 323.33 143.33 322.77 143.33C320.01 143.33 317.78 142.63 316.08 141.23C314.38 139.83 313.53 137.75 313.53 134.99C313.53 133.43 313.85 132.11 314.49 131.03C315.13 129.95 315.93 129.08 316.89 128.42C317.85 127.76 318.91 127.28 320.07 126.98C321.23 126.68 322.35 126.53 323.43 126.53H334.11V123.59C334.11 118.31 331.33 115.67 325.77 115.67C324.37 115.67 322.93 115.87 321.45 116.27C319.97 116.67 318.47 117.39 316.95 118.43L315.51 116.27C317.19 115.15 318.87 114.36 320.55 113.9C322.23 113.44 324.03 113.21 325.95 113.21C327.99 113.21 329.7 113.44 331.08 113.9C332.46 114.36 333.58 115.03 334.43 115.91C335.28 116.79 335.89 117.84 336.26 119.06C336.63 120.28 336.81 121.65 336.81 123.17V142.97H334.6L334.11 139.31ZM324.45 128.87C323.65 128.87 322.78 128.93 321.84 129.05C320.9 129.17 320.02 129.44 319.2 129.86C318.38 130.28 317.7 130.9 317.16 131.71C316.62 132.53 316.35 133.61 316.35 134.96C316.35 136 316.53 136.88 316.89 137.62C317.25 138.36 317.74 138.96 318.36 139.44C318.98 139.92 319.7 140.28 320.52 140.51C321.34 140.75 322.21 140.87 323.13 140.87C324.05 140.87 324.92 140.74 325.86 140.48C326.8 140.22 327.75 139.89 328.71 139.5C329.67 139.11 330.61 138.65 331.53 138.16C332.45 137.66 333.31 137.17 334.11 136.7V128.88H324.45V128.87Z" fill="black"/>
<path d="M384.81 142.97C384.25 141.37 383.71 139.77 383.19 138.17C382.67 136.57 382.13 134.97 381.57 133.37H363.87L360.63 142.97H356.19C358.59 136.01 360.98 129.12 363.36 122.3C365.74 115.48 368.13 108.59 370.53 101.63H374.97L389.37 142.97H384.81ZM372.63 107.09C372.27 108.25 371.76 109.85 371.1 111.89C370.44 113.93 369.74 116.06 369 118.28C368.26 120.5 367.55 122.63 366.87 124.67C366.19 126.71 365.65 128.33 365.25 129.53H380.25C379.89 128.33 379.37 126.71 378.69 124.67C378.01 122.63 377.29 120.5 376.53 118.28C375.77 116.06 375.05 113.93 374.37 111.89C373.69 109.85 373.17 108.25 372.81 107.09H372.63ZM412.23 139.73C409.63 141.25 407.51 142.22 405.87 142.64C404.23 143.06 402.83 143.27 401.67 143.27C398.87 143.27 396.61 142.52 394.89 141.02C393.17 139.52 392.31 137.39 392.31 134.63C392.31 133.03 392.66 131.68 393.36 130.58C394.06 129.48 394.93 128.59 395.97 127.91C397.01 127.23 398.13 126.74 399.33 126.44C400.53 126.14 401.65 125.99 402.69 125.99H412.35V123.37C412.35 121.07 411.72 119.38 410.46 118.3C409.2 117.23 407.33 116.69 404.85 116.69C403.61 116.69 402.25 116.86 400.77 117.2C399.29 117.54 397.79 118.29 396.27 119.45L394.29 116.45C396.09 115.11 397.9 114.2 399.72 113.74C401.54 113.27 403.35 113.04 405.15 113.04C409.11 113.04 411.95 113.92 413.67 115.68C415.39 117.44 416.25 119.96 416.25 123.24V142.98H412.89L412.35 139.8L412.23 139.74V139.73ZM412.35 129.29H403.59C402.87 129.29 402.09 129.34 401.25 129.44C400.41 129.54 399.63 129.78 398.91 130.16C398.19 130.54 397.59 131.08 397.11 131.78C396.63 132.48 396.39 133.43 396.39 134.63C396.39 136.39 396.97 137.68 398.13 138.5C399.29 139.32 400.71 139.73 402.39 139.73C403.19 139.73 404.03 139.61 404.91 139.37C405.79 139.13 406.67 138.83 407.55 138.47C408.43 138.11 409.28 137.71 410.1 137.27C410.92 136.83 411.67 136.41 412.35 136.01V129.29Z" fill="black"/>
<path d="M464.13 142.97L460.89 133.67H444.45L441.27 142.97H435.51L449.91 101.63H455.49L469.95 142.97H464.13ZM452.55 109.19L449.55 118.79L446.25 128.63H459.15L455.85 118.79L452.79 109.19H452.55ZM492.15 140.09C489.79 141.41 487.86 142.26 486.36 142.64C484.86 143.02 483.51 143.21 482.31 143.21C479.43 143.21 477.13 142.41 475.41 140.81C473.69 139.21 472.83 137.03 472.83 134.27C472.83 132.63 473.2 131.25 473.94 130.13C474.68 129.01 475.6 128.1 476.7 127.4C477.8 126.7 478.98 126.2 480.24 125.9C481.5 125.6 482.63 125.45 483.63 125.45H492.33V123.17C492.33 121.09 491.75 119.64 490.59 118.82C489.43 118 487.77 117.59 485.61 117.59C484.57 117.59 483.3 117.74 481.8 118.04C480.3 118.34 478.79 119.11 477.27 120.35L474.75 116.45C476.67 114.97 478.61 114.01 480.57 113.57C482.53 113.13 484.35 112.91 486.03 112.91C489.91 112.91 492.79 113.76 494.67 115.46C496.55 117.16 497.49 119.77 497.49 123.29V142.97H492.94L492.33 140.21L492.15 140.09ZM492.33 129.71H484.47C483.83 129.71 483.14 129.76 482.4 129.86C481.66 129.96 480.97 130.16 480.33 130.46C479.69 130.76 479.16 131.22 478.74 131.84C478.32 132.46 478.11 133.27 478.11 134.27C478.11 135.71 478.6 136.79 479.58 137.51C480.56 138.23 481.81 138.59 483.33 138.59C484.09 138.59 484.88 138.48 485.7 138.26C486.52 138.04 487.32 137.77 488.1 137.45C488.88 137.13 489.63 136.78 490.35 136.4C491.07 136.02 491.73 135.67 492.33 135.35V129.71Z" fill="black"/>
<path d="M542.19 134.03H526.77L523.83 142.97H516.57L531.03 101.63H537.99L552.45 142.97H545.01L542.19 134.03ZM528.75 128.09H540.21L537.75 120.35L534.57 109.85H534.33L531.27 119.93L528.75 128.09ZM574.23 140.27C572.11 141.47 570.32 142.26 568.86 142.64C567.4 143.02 566.05 143.21 564.81 143.21C561.85 143.21 559.53 142.41 557.85 140.81C556.17 139.21 555.33 137.01 555.33 134.21C555.33 132.57 555.69 131.19 556.41 130.07C557.13 128.95 558.03 128.04 559.11 127.34C560.19 126.64 561.36 126.13 562.62 125.81C563.88 125.49 565.05 125.33 566.13 125.33H574.35V123.53C574.35 121.77 573.85 120.51 572.85 119.75C571.85 118.99 570.31 118.61 568.23 118.61C567.23 118.61 566 118.76 564.54 119.06C563.08 119.36 561.61 120.11 560.13 121.31L557.19 116.57C559.19 115.05 561.2 114.06 563.22 113.6C565.24 113.14 567.11 112.91 568.83 112.91C572.91 112.91 575.91 113.81 577.83 115.61C579.75 117.41 580.71 120.15 580.71 123.83V142.97H574.95L574.41 140.39L574.23 140.27ZM574.35 130.25H567.21C566.65 130.25 566.07 130.29 565.47 130.37C564.87 130.45 564.32 130.62 563.82 130.88C563.32 131.14 562.9 131.51 562.56 131.99C562.22 132.47 562.05 133.13 562.05 133.97C562.05 135.09 562.45 135.96 563.25 136.58C564.05 137.2 565.11 137.51 566.43 137.51C567.15 137.51 567.87 137.42 568.59 137.24C569.31 137.06 570.02 136.84 570.72 136.58C571.42 136.32 572.08 136.03 572.7 135.71C573.32 135.39 573.87 135.09 574.35 134.81V130.25Z" fill="black"/>
<path d="M625.52 134.45H611.12L608.42 142.97H599.66L614.18 101.63H622.58L636.98 142.97H628.04L625.52 134.45ZM613.34 127.55H623.3L621.68 122.27L618.44 111.35H618.2L615.02 122.09L613.34 127.55ZM658.34 140.51C656.54 141.55 654.92 142.26 653.48 142.64C652.04 143.02 650.7 143.21 649.46 143.21C646.42 143.21 644.07 142.4 642.41 140.78C640.75 139.16 639.92 136.95 639.92 134.15C639.92 132.51 640.26 131.12 640.94 129.98C641.62 128.84 642.49 127.91 643.55 127.19C644.61 126.47 645.78 125.95 647.06 125.63C648.34 125.31 649.56 125.15 650.72 125.15H658.4V123.89C658.4 122.49 658 121.44 657.2 120.74C656.4 120.04 654.98 119.69 652.94 119.69C651.98 119.69 650.79 119.83 649.37 120.11C647.95 120.39 646.52 121.11 645.08 122.27L641.66 116.69C643.74 115.09 645.83 114.05 647.93 113.57C650.03 113.09 651.96 112.85 653.72 112.85C657.95 112.85 661.06 113.81 663.04 115.73C665.02 117.65 666.02 120.55 666.02 124.43V142.97H659.05L658.51 140.57L658.33 140.51H658.34ZM658.46 130.79H652.1C651.62 130.79 651.15 130.82 650.69 130.88C650.23 130.94 649.81 131.08 649.43 131.3C649.05 131.52 648.74 131.82 648.5 132.2C648.26 132.58 648.14 133.07 648.14 133.67C648.14 134.47 648.43 135.12 649.01 135.62C649.59 136.12 650.46 136.37 651.62 136.37C652.9 136.37 654.16 136.12 655.4 135.62C656.64 135.12 657.66 134.65 658.46 134.21V130.79Z" fill="black"/>
<path d="M204.03 246.4H203.37L222.03 203.92H222.21L240.87 246.4H240.21L232.89 229.78H211.29L204.03 246.4ZM232.65 229.18L222.09 205.12L211.53 229.18H232.65ZM255.63 219.52C253.15 219.52 250.61 220.3 248.01 221.86L247.71 221.38C250.39 219.74 253.07 218.92 255.75 218.92C259.11 218.92 261.53 219.78 263.01 221.5C264.49 223.22 265.23 225.88 265.23 229.48V246.4H264.63V241.3C262.03 244.86 258.51 246.64 254.07 246.64C251.51 246.64 249.47 245.95 247.95 244.57C246.43 243.19 245.67 241.38 245.67 239.14C245.67 236.58 246.61 234.59 248.49 233.17C250.37 231.75 252.85 231.04 255.93 231.04C259.53 231.04 262.43 231.84 264.63 233.44C264.63 231.68 264.61 230.54 264.57 230.02C264.57 227.5 264.33 225.64 263.85 224.44C263.13 222.56 262.27 221.34 261.27 220.78C259.79 219.94 257.91 219.52 255.63 219.52ZM254.01 246.04C256.49 246.04 258.55 245.56 260.19 244.6C261.83 243.64 263.31 242.22 264.63 240.34V234.22C262.19 232.5 259.25 231.64 255.81 231.64C253.29 231.64 251.05 232.28 249.09 233.56C247.21 234.84 246.27 236.68 246.27 239.08C246.27 241.2 246.99 242.89 248.43 244.15C249.87 245.41 251.73 246.04 254.01 246.04Z" fill="black"/>
<path d="M286.17 246.4H284.31L302.79 203.98H304.11L322.59 246.4H320.67L313.89 230.8H292.89L286.17 246.4ZM313.17 229.12L303.39 206.62L293.61 229.12H313.17ZM337.17 220.48C334.73 220.48 332.21 221.24 329.61 222.76L329.07 221.32C331.67 219.68 334.43 218.86 337.35 218.86C340.75 218.86 343.22 219.74 344.76 221.5C346.3 223.26 347.07 225.94 347.07 229.54V246.4H345.39V241.72C342.91 245.04 339.57 246.7 335.37 246.7C332.85 246.7 330.82 245.99 329.28 244.57C327.74 243.15 326.97 241.28 326.97 238.96C326.97 236.4 327.91 234.39 329.79 232.93C331.67 231.47 334.15 230.74 337.23 230.74C340.59 230.74 343.31 231.48 345.39 232.96C345.39 231.2 345.37 230.02 345.33 229.42C345.25 226.78 344.89 224.94 344.25 223.9C342.97 221.62 340.61 220.48 337.17 220.48ZM335.73 245.08C337.33 245.08 338.85 244.8 340.29 244.24C341.53 243.68 342.47 243.12 343.11 242.56C343.75 242 344.51 241.14 345.39 239.98V234.58C343.19 232.98 340.51 232.18 337.35 232.18C335.03 232.18 333.01 232.74 331.29 233.86C329.61 235.02 328.77 236.68 328.77 238.84C328.77 240.72 329.42 242.23 330.72 243.37C332.02 244.51 333.69 245.08 335.73 245.08Z" fill="black"/>
<path d="M368.91 246.4H365.55L383.85 204.04H386.55L404.85 246.4H401.31L395.19 232.12H375.03L368.91 246.4ZM393.81 229L385.11 208.6L376.35 229H393.81ZM419.25 221.8C416.81 221.8 414.29 222.5 411.69 223.9L410.85 221.32C413.53 219.68 416.39 218.86 419.43 218.86C422.95 218.86 425.5 219.74 427.08 221.5C428.66 223.26 429.45 225.98 429.45 229.66V246.4H426.33V242.26C424.13 245.26 421.05 246.76 417.09 246.76C414.57 246.76 412.55 246.03 411.03 244.57C409.51 243.11 408.75 241.16 408.75 238.72C408.75 236.08 409.71 234.02 411.63 232.54C413.51 231.06 415.97 230.32 419.01 230.32C422.05 230.32 424.49 231 426.33 232.36C426.33 229.56 426.13 227.42 425.73 225.94C425.41 224.5 424.76 223.48 423.78 222.88C422.8 222.28 421.29 221.92 419.25 221.8ZM418.05 243.82C421.41 243.82 424.17 242.4 426.33 239.56V235.06C424.37 233.62 422.03 232.9 419.31 232.9C417.27 232.9 415.55 233.4 414.15 234.4C412.75 235.4 412.05 236.78 412.05 238.54C412.05 240.14 412.61 241.42 413.73 242.38C414.85 243.34 416.29 243.82 418.05 243.82Z" fill="black"/>
<path d="M453.21 246.4H448.05L466.11 204.16H470.49L488.55 246.4H483.09L477.69 233.68H458.55L453.21 246.4ZM475.71 228.88L468.15 210.94L460.59 228.88H475.71ZM502.65 223.12C500.21 223.12 497.73 223.78 495.21 225.1L493.95 221.26C496.63 219.62 499.63 218.8 502.95 218.8C506.59 218.8 509.23 219.7 510.87 221.5C512.51 223.3 513.33 226.08 513.33 229.84V246.4H508.77V242.92C506.65 245.52 503.77 246.82 500.13 246.82C497.65 246.82 495.65 246.07 494.13 244.57C492.61 243.07 491.85 241.04 491.85 238.48C491.85 235.92 492.79 233.75 494.67 232.21C496.55 230.67 499.01 229.9 502.05 229.9C504.89 229.9 507.13 230.48 508.77 231.64C508.77 228.6 508.35 226.42 507.51 225.1C506.67 223.78 505.05 223.12 502.65 223.12ZM501.81 242.5C504.49 242.5 506.81 241.34 508.77 239.02V235.6C507.09 234.4 505.07 233.8 502.71 233.8C501.07 233.8 499.7 234.19 498.6 234.97C497.5 235.75 496.95 236.84 496.95 238.24C496.95 239.56 497.38 240.6 498.24 241.36C499.1 242.12 500.29 242.5 501.81 242.5Z" fill="black"/>
<path d="M547.95 204.28H554.43L572.19 246.4H564.33L559.95 235.66H542.01L537.63 246.4H530.19L547.95 204.28ZM544.83 228.76H557.13L551.01 213.82L544.83 228.76Z" fill="black"/>
<path d="M576.87 221.32C579.21 219.94 582.87 218.74 586.41 218.74C594.39 218.74 597.21 222.82 597.21 229.96V246.4H591.21V243.28C589.77 245.32 586.89 246.76 583.23 246.76C578.31 246.76 574.77 243.7 574.77 238.48C574.77 232.54 579.15 229.72 584.61 229.72C587.01 229.72 589.41 230.5 590.73 231.46C590.91 226.96 589.71 224.5 585.69 224.5C582.57 224.5 580.59 225.46 578.61 226.36L576.87 221.32ZM590.73 238.48V235.72C589.53 234.82 587.97 234.4 585.99 234.4C583.71 234.4 581.67 235.48 581.67 237.76C581.67 239.8 583.35 240.94 585.51 240.94C588.39 240.94 589.89 239.68 590.73 238.48Z" fill="black"/>
<path d="M622.83 246.4H613.17L630.63 204.4H639.21L656.67 246.4H646.41L642.93 237.58H626.31L622.83 246.4ZM639.33 228.58L634.65 216.7L629.91 228.58H639.33ZM669.75 226.18C667.91 226.18 665.61 226.74 662.85 227.86L660.63 221.32C663.51 219.56 666.85 218.68 670.65 218.68C674.45 218.68 677.42 219.62 679.2 221.5C680.98 223.38 681.87 226.26 681.87 230.14V246.4H674.07V243.94C672.75 245.82 670.39 246.76 666.99 246.76C664.43 246.76 662.37 246 660.81 244.48C659.25 242.96 658.47 240.88 658.47 238.24C658.47 235.4 659.36 233.2 661.14 231.64C662.92 230.08 665.27 229.3 668.19 229.3C670.47 229.3 672.23 229.8 673.47 230.8C673.67 227.72 672.43 226.18 669.75 226.18ZM670.05 239.26C671.65 239.26 672.79 238.8 673.47 237.88V236.2C672.63 235.6 671.49 235.3 670.05 235.3C669.29 235.3 668.67 235.48 668.19 235.84C667.71 236.2 667.47 236.7 667.47 237.34C667.47 237.94 667.71 238.41 668.19 238.75C668.67 239.09 669.29 239.26 670.05 239.26Z" fill="black"/>
<path d="M224.81 262.37H224.99L236.15 304.85H235.55L231.17 288.23H209.57L199.31 304.85H198.65L224.81 262.37ZM209.93 287.63H230.99L224.69 263.57L209.93 287.63Z" fill="black"/>
<path d="M261.95 304.85H261.35L263.39 292.43C260.75 296.87 256.19 305.09 250.01 305.09C245.45 305.09 243.35 301.07 243.35 295.97C243.35 284.87 250.67 277.37 259.49 277.37C262.25 277.37 264.17 277.97 266.21 278.93L261.95 304.85ZM263.57 291.23L265.55 279.29C263.39 278.39 262.01 277.97 259.43 277.97C251.27 277.97 243.95 284.87 243.95 295.85C243.95 300.71 245.75 304.49 250.07 304.49C256.13 304.49 260.69 295.91 263.57 291.23Z" fill="black"/>
<path d="M305.81 262.43H307.07L318.11 304.85H316.31L312.29 289.25H291.29L281.75 304.85H279.83L305.81 262.43ZM292.31 287.57H311.81L306.05 265.07L292.31 287.57Z" fill="black"/>
<path d="M342.59 304.85L344.51 293.21C341.87 297.65 337.43 305.21 331.37 305.21C326.81 305.21 324.65 301.19 324.65 295.97C324.65 285.05 332.15 277.31 341.27 277.31C344.33 277.31 346.55 278.03 348.53 278.99L344.27 304.85H342.59ZM345.05 290.15L346.73 280.07C344.75 279.29 343.49 278.93 341.27 278.93C333.17 278.93 326.39 285.59 326.39 295.67C326.39 300.17 328.07 303.59 332.03 303.59C337.07 303.59 342.23 294.95 345.05 290.15Z" fill="black"/>
<path d="M385.85 262.73H392.27L402.35 304.85H394.97L392.39 294.11H375.11L368.87 304.85H360.95L385.85 262.73ZM379.07 287.21H390.77L387.47 272.27L379.07 287.21Z" fill="black"/>
<path d="M423.23 304.85L424.55 297.23C422.27 300.89 418.43 305.51 413.33 305.51C408.23 305.51 406.13 301.55 406.13 296.21C406.13 285.35 413.93 277.19 424.49 277.19C428.69 277.19 432.53 278.39 434.15 279.35L430.01 304.85H423.23ZM425.99 288.05L426.83 283.79C425.69 283.49 424.91 283.43 423.83 283.43C417.47 283.43 413.21 288.41 413.21 294.59C413.21 297.53 414.35 299.33 416.63 299.33C420.05 299.33 424.73 292.13 425.99 288.05Z" fill="black"/>
<path d="M470.14 262.85H478.6L488.2 304.85H478.54L476.56 296.03H461.2L456.28 304.85H445.9L470.14 262.85ZM466.24 287.03H474.52L472.24 275.15L466.24 287.03Z" fill="black"/>
<path d="M507.88 304.85L508.9 299.09C507.04 301.97 503.44 305.57 498.94 305.57C493.6 305.57 491.38 301.61 491.38 296.39C491.38 285.23 499.12 277.13 510.28 277.13C514.54 277.13 519.28 278.51 520.84 279.59L516.7 304.85H507.88ZM510.4 288.95L511.06 285.29C510.22 285.11 509.62 285.05 508.72 285.05C503.92 285.05 500.62 289.01 500.62 293.93C500.62 296.33 501.46 297.65 503.26 297.65C506.14 297.65 509.02 292.31 510.4 288.95Z" fill="black"/>
</g>
<defs>
<clipPath id="clip0_54_225">
<rect width="681.87" height="305.57" fill="white"/>
</clipPath>
</defs>
</svg>
