<svg width="413" height="78" viewBox="0 0 413 78" fill="none" xmlns="http://www.w3.org/2000/svg">
<g clip-path="url(#clip0_51_140)">
<path d="M59.5065 20.4177C61.3456 22.2641 61.3456 25.2446 59.5065 27.091L44.6889 41.9673V62.9631C44.6889 65.5743 42.5609 67.6845 39.9599 67.6845C37.359 67.6845 35.2309 65.5743 35.2309 62.9631V41.8618L20.5185 27.1174C18.6794 25.271 18.6794 22.2905 20.5185 20.4441C22.3575 18.5977 25.3263 18.5977 27.1653 20.4441L39.5396 32.8674H40.4854L52.8596 20.4441C54.6987 18.5977 57.6674 18.5977 59.5065 20.4441" fill="white"/>
<path d="M59.5067 27.091C61.3457 25.2446 61.3457 22.2641 59.5067 20.4177C57.6676 18.5714 54.6989 18.5714 52.8598 20.4177L40.4856 32.8411H39.5398L27.1655 20.4177C25.3265 18.5714 22.3577 18.5714 20.5186 20.4177C18.6796 22.2641 18.6796 25.2446 20.5186 27.091L35.2311 41.8355V62.9367C35.2311 65.548 37.3592 67.6581 39.9601 67.6581C42.5611 67.6581 44.6891 65.548 44.6891 62.9367V41.941L59.5067 27.0646V27.091ZM39.8288 -1C61.8449 -1 79.6838 16.9097 79.6838 38.9868C79.6838 61.064 61.8449 78.9736 39.8288 78.9736C17.8126 78.9736 0 61.0903 0 38.9868C0 16.8833 17.8389 -1 39.8288 -1Z" fill="#E02926"/>
<path d="M150.198 44.4468H145.942L147.781 25.0337C147.781 25.0337 150.356 44.3413 150.198 44.4468ZM156.688 14.5886H138.849L132.543 61.5388H145.286L145.916 52.9928H150.225L150.855 61.5125H163.729L156.661 14.5886H156.688Z" fill="#231F20"/>
<path d="M289.468 52.9401C289.678 54.5227 290.309 56.0262 291.386 57.4769C292.463 58.9276 294.066 60.0881 296.246 61.0113C298.401 61.9081 300.923 62.3565 303.76 62.3565C306.309 62.3565 308.542 61.9345 310.433 61.196C312.299 60.431 313.822 59.3496 314.952 57.8725C316.134 56.3954 316.817 53.5995 317.028 52.2279C317.29 50.8564 317.395 48.9836 317.395 45.5547V14.5623H305.021V49.4584C305.021 51.7268 304.942 53.1775 304.68 53.7578C304.443 54.3644 303.944 54.681 303.182 54.681C302.499 54.681 302.026 54.4172 301.79 53.8633C301.58 53.3094 301.474 52.0697 301.474 50.0651V14.5623H289.126V42.073C289.126 47.2164 289.232 51.3839 289.415 52.9665" fill="#231F20"/>
<path d="M413 14.5359H400.652V61.5125H413V14.5359Z" fill="#231F20"/>
<path d="M375.982 41.4927H379.687V61.5125H392.035V14.5623H379.687V31.2586H375.982V14.5623H363.634V61.5125H375.982V41.4927Z" fill="#231F20"/>
<path d="M331.845 60.51C334.183 61.7497 337.152 62.3563 340.778 62.3563C344.403 62.3563 347.188 61.6178 349.579 60.1671C351.944 58.7164 353.467 57.0283 354.177 55.0764C354.86 53.1509 355.228 48.5086 355.228 43.8928V42.0728H342.88V49.1153C342.88 51.5683 342.722 53.1245 342.459 53.784C342.17 54.4434 341.566 54.7599 340.646 54.7599C339.674 54.7599 339.07 54.4434 338.807 53.784C338.518 53.1245 338.44 51.7266 338.44 49.5637V27.5129C338.44 25.2446 338.518 23.0025 338.807 22.3168C339.07 21.631 339.648 21.3144 340.673 21.3144C341.592 21.3144 342.223 21.5782 342.486 22.1321C342.748 22.686 342.88 24.9017 342.88 27.1173V34.872H355.228V30.6254C355.228 26.4579 354.833 22.6333 354.098 20.655C353.362 18.6768 351.786 17.0151 349.448 15.7226C347.057 14.4038 344.298 13.7444 340.673 13.7444C337.993 13.7444 335.392 14.1664 333.343 15.0105C331.267 15.8545 329.665 17.0151 328.482 18.5185C327.353 19.9956 326.617 21.5518 326.407 23.1608C326.144 24.7698 326.039 27.935 326.039 31.1529V44.1565C326.039 48.535 326.433 53.1509 327.195 55.3402C327.957 57.503 329.507 59.2175 331.845 60.4572" fill="#231F20"/>
<path d="M180.832 61.4861V30.5728L185.193 61.4861H192.655L197.279 30.7047V61.4861H208.155L208.076 14.5623H192.103L189.055 36.4284L186.008 14.5623H170.034L170.06 61.4861H180.832Z" fill="#231F20"/>
<path d="M110.291 61.5388H121.693V44.4468L130.731 14.5886H119.381L116.202 33.0258L112.944 14.5886H101.621L110.291 44.4468V61.5388Z" fill="#231F20"/>
<path d="M229.961 25.0337C229.961 25.0337 232.536 44.3413 232.378 44.4468H228.122L229.961 25.0337ZM228.122 52.9928H232.431L233.061 61.5125H245.935L238.867 14.5886H221.028L214.723 61.5388H227.465L228.096 52.9928H228.122Z" fill="#231F20"/>
<path d="M253.843 57.2393C254.762 58.6372 255.997 59.9297 257.81 60.8792C259.622 61.8288 261.514 62.2772 263.616 62.2772C265.376 62.2772 267.215 62.0134 268.397 61.1694C269.658 60.2462 270.709 59.4285 271.629 57.5558L272.759 61.5123H280.614V36.6392H266.348V42.8641H268.555V49.2999C268.555 51.3837 268.397 52.808 268.056 53.5202C267.741 54.2587 267.11 54.6016 266.217 54.6016C265.376 54.6016 264.851 54.2851 264.535 53.6521C264.273 52.9926 264.141 51.6738 264.141 49.6692V26.7216C264.141 24.4269 264.299 22.9762 264.562 22.4486C264.851 21.8947 265.56 21.631 266.322 21.631C267.215 21.631 267.924 21.8156 268.161 22.4486C268.345 22.9234 268.45 23.873 268.502 25.4556C268.502 25.9831 268.502 26.7744 268.502 27.4074V31.1793H280.588V30.1506C280.588 26.4579 280.194 23.0553 279.458 21.1034C278.722 19.1779 277.172 17.4898 274.781 16.0655C272.364 14.6676 269.369 13.7708 265.744 13.7708C262.118 13.7708 259.044 14.7731 256.706 16.4084C254.368 18.0174 252.949 19.811 252.476 21.7628C251.977 23.7147 251.741 27.4074 251.741 31.7332V45.3434C251.741 48.4559 251.846 51.2518 252.109 52.808C252.345 54.3378 252.923 55.8149 253.869 57.2393" fill="#231F20"/>
</g>
<defs>
<clipPath id="clip0_51_140">
<rect width="413" height="78" fill="white"/>
</clipPath>
</defs>
</svg>
