<svg width="271" height="246" viewBox="0 0 271 246" fill="none" xmlns="http://www.w3.org/2000/svg">
<path d="M15.3652 18H12.2207L10.9707 14.748H5.24805L4.06641 18H1L6.57617 3.68359H9.63281L15.3652 18ZM10.043 12.3359L8.07031 7.02344L6.13672 12.3359H10.043ZM19.5156 18H16.7715V7.62891H19.3203V9.10352C19.7565 8.4069 20.1471 7.94792 20.4922 7.72656C20.8438 7.50521 21.2409 7.39453 21.6836 7.39453C22.3086 7.39453 22.9108 7.56706 23.4902 7.91211L22.6406 10.3047C22.1784 10.0052 21.7487 9.85547 21.3516 9.85547C20.9674 9.85547 20.6419 9.96289 20.375 10.1777C20.1081 10.3861 19.8965 10.7669 19.7402 11.3203C19.5905 11.8737 19.5156 13.0326 19.5156 14.7969V18ZM24.6816 6.22266V3.68359H27.4258V6.22266H24.6816ZM24.6816 18V7.62891H27.4258V18H24.6816ZM32.2988 10.793L29.8086 10.3438C30.0885 9.34115 30.5703 8.59896 31.2539 8.11719C31.9375 7.63542 32.9531 7.39453 34.3008 7.39453C35.5247 7.39453 36.4362 7.54102 37.0352 7.83398C37.6341 8.12044 38.054 8.48828 38.2949 8.9375C38.5423 9.38021 38.666 10.1973 38.666 11.3887L38.6367 14.5918C38.6367 15.5033 38.679 16.1771 38.7637 16.6133C38.8548 17.043 39.0208 17.5052 39.2617 18H36.5469C36.4753 17.8177 36.3874 17.5475 36.2832 17.1895C36.2376 17.0267 36.2051 16.9193 36.1855 16.8672C35.7168 17.3229 35.2155 17.6647 34.6816 17.8926C34.1478 18.1204 33.5781 18.2344 32.9727 18.2344C31.9049 18.2344 31.0618 17.9447 30.4434 17.3652C29.8314 16.7858 29.5254 16.0534 29.5254 15.168C29.5254 14.582 29.6654 14.0612 29.9453 13.6055C30.2253 13.1432 30.6159 12.7917 31.1172 12.5508C31.625 12.3034 32.3542 12.0885 33.3047 11.9062C34.5872 11.6654 35.4759 11.4408 35.9707 11.2324V10.959C35.9707 10.4316 35.8405 10.0573 35.5801 9.83594C35.3197 9.60807 34.8281 9.49414 34.1055 9.49414C33.6172 9.49414 33.2363 9.5918 32.9629 9.78711C32.6895 9.97591 32.4681 10.3112 32.2988 10.793ZM35.9707 13.0195C35.6191 13.1367 35.0625 13.2767 34.3008 13.4395C33.5391 13.6022 33.041 13.7617 32.8066 13.918C32.4486 14.1719 32.2695 14.4941 32.2695 14.8848C32.2695 15.2689 32.4128 15.6009 32.6992 15.8809C32.9857 16.1608 33.3503 16.3008 33.793 16.3008C34.2878 16.3008 34.7598 16.138 35.209 15.8125C35.541 15.5651 35.7591 15.2624 35.8633 14.9043C35.9349 14.6699 35.9707 14.224 35.9707 13.5664V13.0195ZM41.3809 18V3.68359H44.125V18H41.3809ZM52.543 3.68359H58.2656C59.3984 3.68359 60.2415 3.73242 60.7949 3.83008C61.3548 3.92122 61.8529 4.11654 62.2891 4.41602C62.7318 4.71549 63.0996 5.11589 63.3926 5.61719C63.6855 6.11198 63.832 6.66862 63.832 7.28711C63.832 7.95768 63.6497 8.57292 63.2852 9.13281C62.9271 9.69271 62.4388 10.1126 61.8203 10.3926C62.6927 10.6465 63.3633 11.0794 63.832 11.6914C64.3008 12.3034 64.5352 13.0228 64.5352 13.8496C64.5352 14.5007 64.3822 15.1354 64.0762 15.7539C63.7767 16.3659 63.3633 16.8574 62.8359 17.2285C62.3151 17.5931 61.6706 17.8177 60.9023 17.9023C60.4206 17.9544 59.2585 17.987 57.416 18H52.543V3.68359ZM55.4336 6.06641V9.37695H57.3281C58.4544 9.37695 59.1543 9.36068 59.4277 9.32812C59.9225 9.26953 60.3099 9.10026 60.5898 8.82031C60.8763 8.53385 61.0195 8.15951 61.0195 7.69727C61.0195 7.25456 60.8958 6.89648 60.6484 6.62305C60.4076 6.3431 60.0462 6.17383 59.5645 6.11523C59.278 6.08268 58.4544 6.06641 57.0938 6.06641H55.4336ZM55.4336 11.7598V15.5879H58.1094C59.151 15.5879 59.8118 15.5586 60.0918 15.5C60.5215 15.4219 60.8698 15.2331 61.1367 14.9336C61.4102 14.6276 61.5469 14.2207 61.5469 13.7129C61.5469 13.2832 61.4427 12.9186 61.2344 12.6191C61.026 12.3197 60.7233 12.1016 60.3262 11.9648C59.9355 11.8281 59.0827 11.7598 57.7676 11.7598H55.4336ZM66.332 12.668C66.332 11.7565 66.5566 10.8743 67.0059 10.0215C67.4551 9.16862 68.0898 8.51758 68.9102 8.06836C69.737 7.61914 70.6582 7.39453 71.6738 7.39453C73.2428 7.39453 74.5286 7.9056 75.5312 8.92773C76.5339 9.94336 77.0352 11.2292 77.0352 12.7852C77.0352 14.3542 76.5273 15.6562 75.5117 16.6914C74.5026 17.7201 73.2298 18.2344 71.6934 18.2344C70.7428 18.2344 69.8346 18.0195 68.9688 17.5898C68.1094 17.1602 67.4551 16.5319 67.0059 15.7051C66.5566 14.8717 66.332 13.8594 66.332 12.668ZM69.1445 12.8145C69.1445 13.8431 69.3887 14.6309 69.877 15.1777C70.3652 15.7246 70.9674 15.998 71.6836 15.998C72.3997 15.998 72.9987 15.7246 73.4805 15.1777C73.9688 14.6309 74.2129 13.8366 74.2129 12.7949C74.2129 11.7793 73.9688 10.998 73.4805 10.4512C72.9987 9.9043 72.3997 9.63086 71.6836 9.63086C70.9674 9.63086 70.3652 9.9043 69.877 10.4512C69.3887 10.998 69.1445 11.7858 69.1445 12.8145ZM79.1934 18V3.68359H81.9375V18H79.1934ZM94.2715 18H91.7227V16.4766C91.2995 17.069 90.7982 17.5117 90.2188 17.8047C89.6458 18.0911 89.0664 18.2344 88.4805 18.2344C87.2891 18.2344 86.2669 17.7559 85.4141 16.7988C84.5677 15.8353 84.1445 14.4941 84.1445 12.7754C84.1445 11.0176 84.5579 9.68294 85.3848 8.77148C86.2116 7.85352 87.2565 7.39453 88.5195 7.39453C89.6784 7.39453 90.681 7.8763 91.5273 8.83984V3.68359H94.2715V18ZM86.9473 12.5898C86.9473 13.6966 87.1003 14.4974 87.4062 14.9922C87.849 15.7083 88.4674 16.0664 89.2617 16.0664C89.8932 16.0664 90.4303 15.7995 90.873 15.2656C91.3158 14.7253 91.5371 13.9212 91.5371 12.8535C91.5371 11.6621 91.3223 10.806 90.8926 10.2852C90.4629 9.75781 89.9128 9.49414 89.2422 9.49414C88.5911 9.49414 88.0443 9.75456 87.6016 10.2754C87.1654 10.7897 86.9473 11.5612 86.9473 12.5898Z" fill="black"/>
<path d="M1 31H270" stroke="black"/>
<path d="M15.3652 57H12.2207L10.9707 53.748H5.24805L4.06641 57H1L6.57617 42.6836H9.63281L15.3652 57ZM10.043 51.3359L8.07031 46.0234L6.13672 51.3359H10.043ZM18.9395 49.793L16.4492 49.3438C16.7292 48.3411 17.2109 47.599 17.8945 47.1172C18.5781 46.6354 19.5938 46.3945 20.9414 46.3945C22.1654 46.3945 23.0768 46.541 23.6758 46.834C24.2747 47.1204 24.6947 47.4883 24.9355 47.9375C25.1829 48.3802 25.3066 49.1973 25.3066 50.3887L25.2773 53.5918C25.2773 54.5033 25.3197 55.1771 25.4043 55.6133C25.4954 56.043 25.6615 56.5052 25.9023 57H23.1875C23.1159 56.8177 23.028 56.5475 22.9238 56.1895C22.8783 56.0267 22.8457 55.9193 22.8262 55.8672C22.3574 56.3229 21.8561 56.6647 21.3223 56.8926C20.7884 57.1204 20.2188 57.2344 19.6133 57.2344C18.5456 57.2344 17.7025 56.9447 17.084 56.3652C16.472 55.7858 16.166 55.0534 16.166 54.168C16.166 53.582 16.306 53.0612 16.5859 52.6055C16.8659 52.1432 17.2565 51.7917 17.7578 51.5508C18.2656 51.3034 18.9948 51.0885 19.9453 50.9062C21.2279 50.6654 22.1165 50.4408 22.6113 50.2324V49.959C22.6113 49.4316 22.4811 49.0573 22.2207 48.8359C21.9603 48.6081 21.4688 48.4941 20.7461 48.4941C20.2578 48.4941 19.877 48.5918 19.6035 48.7871C19.3301 48.9759 19.1087 49.3112 18.9395 49.793ZM22.6113 52.0195C22.2598 52.1367 21.7031 52.2767 20.9414 52.4395C20.1797 52.6022 19.6816 52.7617 19.4473 52.918C19.0892 53.1719 18.9102 53.4941 18.9102 53.8848C18.9102 54.2689 19.0534 54.6009 19.3398 54.8809C19.6263 55.1608 19.9909 55.3008 20.4336 55.3008C20.9284 55.3008 21.4004 55.138 21.8496 54.8125C22.1816 54.5651 22.3997 54.2624 22.5039 53.9043C22.5755 53.6699 22.6113 53.224 22.6113 52.5664V52.0195ZM33.6172 42.6836H39.3398C40.4727 42.6836 41.3158 42.7324 41.8691 42.8301C42.429 42.9212 42.9271 43.1165 43.3633 43.416C43.806 43.7155 44.1738 44.1159 44.4668 44.6172C44.7598 45.112 44.9062 45.6686 44.9062 46.2871C44.9062 46.9577 44.724 47.5729 44.3594 48.1328C44.0013 48.6927 43.513 49.1126 42.8945 49.3926C43.7669 49.6465 44.4375 50.0794 44.9062 50.6914C45.375 51.3034 45.6094 52.0228 45.6094 52.8496C45.6094 53.5007 45.4564 54.1354 45.1504 54.7539C44.8509 55.3659 44.4375 55.8574 43.9102 56.2285C43.3893 56.5931 42.7448 56.8177 41.9766 56.9023C41.4948 56.9544 40.3327 56.987 38.4902 57H33.6172V42.6836ZM36.5078 45.0664V48.377H38.4023C39.5286 48.377 40.2285 48.3607 40.502 48.3281C40.9967 48.2695 41.3841 48.1003 41.6641 47.8203C41.9505 47.5339 42.0938 47.1595 42.0938 46.6973C42.0938 46.2546 41.9701 45.8965 41.7227 45.623C41.4818 45.3431 41.1204 45.1738 40.6387 45.1152C40.3522 45.0827 39.5286 45.0664 38.168 45.0664H36.5078ZM36.5078 50.7598V54.5879H39.1836C40.2253 54.5879 40.8861 54.5586 41.166 54.5C41.5957 54.4219 41.944 54.2331 42.2109 53.9336C42.4844 53.6276 42.6211 53.2207 42.6211 52.7129C42.6211 52.2832 42.5169 51.9186 42.3086 51.6191C42.1003 51.3197 41.7975 51.1016 41.4004 50.9648C41.0098 50.8281 40.1569 50.7598 38.8418 50.7598H36.5078ZM47.9238 57V42.6836H50.668V47.8398C51.5143 46.8763 52.5169 46.3945 53.6758 46.3945C54.9388 46.3945 55.9837 46.8535 56.8105 47.7715C57.6374 48.6829 58.0508 49.9948 58.0508 51.707C58.0508 53.4779 57.6276 54.8418 56.7812 55.7988C55.9414 56.7559 54.9193 57.2344 53.7148 57.2344C53.1224 57.2344 52.5365 57.0879 51.957 56.7949C51.3841 56.4954 50.8893 56.056 50.4727 55.4766V57H47.9238ZM50.6484 51.5898C50.6484 52.6641 50.8177 53.4583 51.1562 53.9727C51.6315 54.7018 52.263 55.0664 53.0508 55.0664C53.6562 55.0664 54.1706 54.8092 54.5938 54.2949C55.0234 53.7741 55.2383 52.957 55.2383 51.8438C55.2383 50.6589 55.0234 49.806 54.5938 49.2852C54.1641 48.7578 53.6139 48.4941 52.9434 48.4941C52.2858 48.4941 51.7389 48.7513 51.3027 49.2656C50.8665 49.7734 50.6484 50.5482 50.6484 51.5898ZM75.0137 51.7363L77.8164 52.625C77.3867 54.1875 76.6706 55.3496 75.668 56.1113C74.6719 56.8665 73.4056 57.2441 71.8691 57.2441C69.9681 57.2441 68.4056 56.5964 67.1816 55.3008C65.9577 53.9987 65.3457 52.2214 65.3457 49.9688C65.3457 47.5859 65.9609 45.737 67.1914 44.4219C68.4219 43.1003 70.0397 42.4395 72.0449 42.4395C73.7962 42.4395 75.2188 42.957 76.3125 43.9922C76.9635 44.6042 77.4518 45.4831 77.7773 46.6289L74.916 47.3125C74.7467 46.5703 74.3919 45.9844 73.8516 45.5547C73.3177 45.125 72.6667 44.9102 71.8984 44.9102C70.8372 44.9102 69.9746 45.291 69.3105 46.0527C68.653 46.8145 68.3242 48.0482 68.3242 49.7539C68.3242 51.5638 68.6497 52.8529 69.3008 53.6211C69.9518 54.3893 70.7982 54.7734 71.8398 54.7734C72.6081 54.7734 73.2689 54.5293 73.8223 54.041C74.3757 53.5527 74.7728 52.7845 75.0137 51.7363ZM89.3301 49.6953L86.625 50.1836C86.5339 49.6432 86.3255 49.2363 86 48.9629C85.681 48.6895 85.2643 48.5527 84.75 48.5527C84.0664 48.5527 83.5195 48.7904 83.1094 49.2656C82.7057 49.7344 82.5039 50.5221 82.5039 51.6289C82.5039 52.8594 82.709 53.7285 83.1191 54.2363C83.5358 54.7441 84.0924 54.998 84.7891 54.998C85.3099 54.998 85.7363 54.8516 86.0684 54.5586C86.4004 54.2591 86.6348 53.748 86.7715 53.0254L89.4668 53.4844C89.1868 54.7214 88.6497 55.6556 87.8555 56.2871C87.0612 56.9186 85.9967 57.2344 84.6621 57.2344C83.1452 57.2344 81.9342 56.7559 81.0293 55.7988C80.1309 54.8418 79.6816 53.5169 79.6816 51.8242C79.6816 50.112 80.1341 48.7806 81.0391 47.8301C81.944 46.873 83.168 46.3945 84.7109 46.3945C85.974 46.3945 86.9766 46.668 87.7188 47.2148C88.4674 47.7552 89.0046 48.582 89.3301 49.6953ZM96.9961 42.6836H102.279C103.471 42.6836 104.379 42.7747 105.004 42.957C105.844 43.2044 106.563 43.6439 107.162 44.2754C107.761 44.9069 108.217 45.6816 108.529 46.5996C108.842 47.5111 108.998 48.6374 108.998 49.9785C108.998 51.1569 108.852 52.1725 108.559 53.0254C108.201 54.0671 107.689 54.9102 107.025 55.5547C106.524 56.043 105.847 56.4238 104.994 56.6973C104.356 56.8991 103.503 57 102.436 57H96.9961V42.6836ZM99.8867 45.1055V54.5879H102.045C102.852 54.5879 103.435 54.5423 103.793 54.4512C104.262 54.334 104.649 54.1354 104.955 53.8555C105.268 53.5755 105.521 53.1165 105.717 52.4785C105.912 51.834 106.01 50.9583 106.01 49.8516C106.01 48.7448 105.912 47.8952 105.717 47.3027C105.521 46.7103 105.248 46.248 104.896 45.916C104.545 45.584 104.099 45.3594 103.559 45.2422C103.155 45.151 102.364 45.1055 101.186 45.1055H99.8867ZM120.951 57H118.402V55.4766C117.979 56.069 117.478 56.5117 116.898 56.8047C116.326 57.0911 115.746 57.2344 115.16 57.2344C113.969 57.2344 112.947 56.7559 112.094 55.7988C111.247 54.8353 110.824 53.4941 110.824 51.7754C110.824 50.0176 111.238 48.6829 112.064 47.7715C112.891 46.8535 113.936 46.3945 115.199 46.3945C116.358 46.3945 117.361 46.8763 118.207 47.8398V42.6836H120.951V57ZM113.627 51.5898C113.627 52.6966 113.78 53.4974 114.086 53.9922C114.529 54.7083 115.147 55.0664 115.941 55.0664C116.573 55.0664 117.11 54.7995 117.553 54.2656C117.995 53.7253 118.217 52.9212 118.217 51.8535C118.217 50.6621 118.002 49.806 117.572 49.2852C117.143 48.7578 116.592 48.4941 115.922 48.4941C115.271 48.4941 114.724 48.7546 114.281 49.2754C113.845 49.7897 113.627 50.5612 113.627 51.5898ZM129.252 57V42.6836H139.867V45.1055H132.143V48.2793H139.33V50.6914H132.143V54.5879H140.141V57H129.252ZM148.578 53.6992L151.312 54.1582C150.961 55.1608 150.404 55.9258 149.643 56.4531C148.887 56.974 147.94 57.2344 146.801 57.2344C144.997 57.2344 143.663 56.6452 142.797 55.4668C142.113 54.5228 141.771 53.3314 141.771 51.8926C141.771 50.1738 142.221 48.8294 143.119 47.8594C144.018 46.8828 145.154 46.3945 146.527 46.3945C148.07 46.3945 149.288 46.9056 150.18 47.9277C151.072 48.9434 151.498 50.5026 151.459 52.6055H144.584C144.604 53.4193 144.825 54.054 145.248 54.5098C145.671 54.959 146.199 55.1836 146.83 55.1836C147.26 55.1836 147.621 55.0664 147.914 54.832C148.207 54.5977 148.428 54.2201 148.578 53.6992ZM148.734 50.9258C148.715 50.1315 148.51 49.5293 148.119 49.1191C147.729 48.7025 147.253 48.4941 146.693 48.4941C146.094 48.4941 145.6 48.7122 145.209 49.1484C144.818 49.5846 144.626 50.1771 144.633 50.9258H148.734ZM159.311 57V42.6836H169.125V45.1055H162.201V48.4941H168.178V50.916H162.201V57H159.311ZM170.297 46.6289H171.82V45.8477C171.82 44.9753 171.911 44.3242 172.094 43.8945C172.283 43.4648 172.624 43.1165 173.119 42.8496C173.62 42.5762 174.252 42.4395 175.014 42.4395C175.795 42.4395 176.56 42.5566 177.309 42.791L176.938 44.7051C176.501 44.6009 176.081 44.5488 175.678 44.5488C175.281 44.5488 174.994 44.6432 174.818 44.832C174.649 45.0143 174.564 45.3691 174.564 45.8965V46.6289H176.615V48.7871H174.564V57H171.82V48.7871H170.297V46.6289ZM190.404 51.7363V49.3242H196.635V55.0273C196.029 55.6133 195.15 56.1309 193.998 56.5801C192.852 57.0228 191.69 57.2441 190.512 57.2441C189.014 57.2441 187.709 56.9316 186.596 56.3066C185.482 55.6751 184.646 54.7767 184.086 53.6113C183.526 52.4395 183.246 51.1667 183.246 49.793C183.246 48.3021 183.559 46.9772 184.184 45.8184C184.809 44.6595 185.723 43.7708 186.928 43.1523C187.846 42.6771 188.988 42.4395 190.355 42.4395C192.133 42.4395 193.52 42.8138 194.516 43.5625C195.518 44.3047 196.163 45.3333 196.449 46.6484L193.578 47.1855C193.376 46.4824 192.995 45.929 192.436 45.5254C191.882 45.1152 191.189 44.9102 190.355 44.9102C189.092 44.9102 188.087 45.3105 187.338 46.1113C186.596 46.9121 186.225 48.1003 186.225 49.6758C186.225 51.375 186.602 52.651 187.357 53.5039C188.113 54.3503 189.102 54.7734 190.326 54.7734C190.932 54.7734 191.537 54.6562 192.143 54.4219C192.755 54.181 193.279 53.8913 193.715 53.5527V51.7363H190.404ZM199.037 57.6836L202.172 58.0645C202.224 58.429 202.344 58.6797 202.533 58.8164C202.794 59.0117 203.204 59.1094 203.764 59.1094C204.48 59.1094 205.017 59.002 205.375 58.7871C205.616 58.6439 205.798 58.4128 205.922 58.0938C206.007 57.8659 206.049 57.446 206.049 56.834V55.3203C205.229 56.4401 204.193 57 202.943 57C201.55 57 200.447 56.4108 199.633 55.2324C198.995 54.3014 198.676 53.1426 198.676 51.7559C198.676 50.0176 199.092 48.6895 199.926 47.7715C200.766 46.8535 201.807 46.3945 203.051 46.3945C204.333 46.3945 205.391 46.9577 206.225 48.084V46.6289H208.793V55.9355C208.793 57.1595 208.692 58.0742 208.49 58.6797C208.288 59.2852 208.005 59.7604 207.641 60.1055C207.276 60.4505 206.788 60.7207 206.176 60.916C205.57 61.1113 204.802 61.209 203.871 61.209C202.113 61.209 200.867 60.9062 200.131 60.3008C199.395 59.7018 199.027 58.9401 199.027 58.0156C199.027 57.9245 199.031 57.8138 199.037 57.6836ZM201.488 51.5996C201.488 52.6999 201.7 53.5072 202.123 54.0215C202.553 54.5293 203.08 54.7832 203.705 54.7832C204.376 54.7832 204.942 54.5228 205.404 54.002C205.867 53.4746 206.098 52.6966 206.098 51.668C206.098 50.5938 205.876 49.7962 205.434 49.2754C204.991 48.7546 204.431 48.4941 203.754 48.4941C203.096 48.4941 202.553 48.7513 202.123 49.2656C201.7 49.7734 201.488 50.5514 201.488 51.5996ZM217.113 57V42.6836H220.004V48.3184H225.668V42.6836H228.559V57H225.668V50.7402H220.004V57H217.113ZM234.271 42.6836V47.9473C235.157 46.9121 236.215 46.3945 237.445 46.3945C238.077 46.3945 238.646 46.5117 239.154 46.7461C239.662 46.9805 240.043 47.2799 240.297 47.6445C240.557 48.0091 240.733 48.4128 240.824 48.8555C240.922 49.2982 240.971 49.985 240.971 50.916V57H238.227V51.5215C238.227 50.4342 238.174 49.7441 238.07 49.4512C237.966 49.1582 237.781 48.9271 237.514 48.7578C237.253 48.582 236.924 48.4941 236.527 48.4941C236.072 48.4941 235.665 48.6048 235.307 48.8262C234.949 49.0475 234.685 49.3828 234.516 49.832C234.353 50.2747 234.271 50.9323 234.271 51.8047V57H231.527V42.6836H234.271ZM249.262 57V42.6836H252.152V57H249.262ZM254.896 45.2227V42.6836H257.641V45.2227H254.896ZM254.896 57V46.6289H257.641V57H254.896ZM7.62109 65.6836H10.502V74.7461C10.502 75.931 10.3978 76.8424 10.1895 77.4805C9.90951 78.3138 9.40169 78.9844 8.66602 79.4922C7.93034 79.9935 6.96029 80.2441 5.75586 80.2441C4.3431 80.2441 3.25586 79.8503 2.49414 79.0625C1.73242 78.2682 1.34831 77.1061 1.3418 75.5762L4.06641 75.2637C4.09896 76.084 4.2194 76.6634 4.42773 77.002C4.74023 77.5163 5.21549 77.7734 5.85352 77.7734C6.49805 77.7734 6.95378 77.5911 7.2207 77.2266C7.48763 76.8555 7.62109 76.0905 7.62109 74.9316V65.6836ZM13.5098 68.2227V65.6836H16.2539V68.2227H13.5098ZM16.2539 69.6289V79.6777C16.2539 80.9993 16.166 81.9303 15.9902 82.4707C15.821 83.0176 15.4889 83.444 14.9941 83.75C14.5059 84.056 13.8809 84.209 13.1191 84.209C12.8457 84.209 12.5495 84.1829 12.2305 84.1309C11.918 84.0853 11.5794 84.0137 11.2148 83.916L11.6934 81.5723C11.8236 81.5983 11.9473 81.6178 12.0645 81.6309C12.1751 81.6504 12.2793 81.6602 12.377 81.6602C12.6569 81.6602 12.8848 81.5983 13.0605 81.4746C13.2428 81.3574 13.3633 81.2142 13.4219 81.0449C13.4805 80.8757 13.5098 80.3678 13.5098 79.5215V69.6289H16.2539ZM24.7598 80V65.6836H27.6504V72.041L33.4902 65.6836H37.377L31.9863 71.2598L37.6699 80H33.9297L29.9941 73.2812L27.6504 75.6738V80H24.7598ZM39.0566 80V65.6836H41.8008V73.2812L45.0137 69.6289H48.3926L44.8477 73.418L48.6465 80H45.6875L43.0801 75.3418L41.8008 76.6797V80H39.0566ZM55.9512 80V65.8008H58.8418V77.5879H66.0293V80H55.9512ZM68.0801 80V65.6836H70.8242V80H68.0801ZM79.1934 80V65.6836H83.5195L86.1172 75.4492L88.6855 65.6836H93.0215V80H90.3359V68.7305L87.4941 80H84.7109L81.8789 68.7305V80H79.1934ZM95.668 69.6289H98.1973V71.0449C99.1022 69.9447 100.18 69.3945 101.43 69.3945C102.094 69.3945 102.67 69.5312 103.158 69.8047C103.646 70.0781 104.047 70.4915 104.359 71.0449C104.815 70.4915 105.307 70.0781 105.834 69.8047C106.361 69.5312 106.924 69.3945 107.523 69.3945C108.285 69.3945 108.93 69.5508 109.457 69.8633C109.984 70.1693 110.378 70.6217 110.639 71.2207C110.827 71.6634 110.922 72.3796 110.922 73.3691V80H108.178V74.0723C108.178 73.0436 108.083 72.3796 107.895 72.0801C107.641 71.6895 107.25 71.4941 106.723 71.4941C106.339 71.4941 105.977 71.6113 105.639 71.8457C105.3 72.0801 105.056 72.4251 104.906 72.8809C104.757 73.3301 104.682 74.043 104.682 75.0195V80H101.938V74.3164C101.938 73.3073 101.889 72.6562 101.791 72.3633C101.693 72.0703 101.54 71.8522 101.332 71.709C101.13 71.5658 100.854 71.4941 100.502 71.4941C100.079 71.4941 99.6979 71.6081 99.3594 71.8359C99.0208 72.0638 98.7767 72.3926 98.627 72.8223C98.4837 73.252 98.4121 73.9648 98.4121 74.9609V80H95.668V69.6289ZM119.281 80V65.6836H122.094L127.953 75.2441V65.6836H130.639V80H127.738L121.967 70.6641V80H119.281ZM143.119 80H140.375V74.707C140.375 73.5872 140.316 72.8646 140.199 72.5391C140.082 72.207 139.89 71.9499 139.623 71.7676C139.363 71.5853 139.047 71.4941 138.676 71.4941C138.201 71.4941 137.774 71.6243 137.396 71.8848C137.019 72.1452 136.758 72.4902 136.615 72.9199C136.479 73.3496 136.41 74.1439 136.41 75.3027V80H133.666V69.6289H136.215V71.1523C137.12 69.9805 138.259 69.3945 139.633 69.3945C140.238 69.3945 140.792 69.5052 141.293 69.7266C141.794 69.9414 142.172 70.2181 142.426 70.5566C142.686 70.8952 142.865 71.2793 142.963 71.709C143.067 72.1387 143.119 72.7539 143.119 73.5547V80ZM150.912 72.9297C150.912 71.4714 151.13 70.2474 151.566 69.2578C151.892 68.5286 152.335 67.8743 152.895 67.2949C153.461 66.7155 154.079 66.2858 154.75 66.0059C155.642 65.6283 156.671 65.4395 157.836 65.4395C159.945 65.4395 161.632 66.0938 162.895 67.4023C164.164 68.7109 164.799 70.5306 164.799 72.8613C164.799 75.1725 164.171 76.9824 162.914 78.291C161.658 79.5931 159.978 80.2441 157.875 80.2441C155.746 80.2441 154.053 79.5964 152.797 78.3008C151.54 76.9987 150.912 75.2083 150.912 72.9297ZM153.891 72.832C153.891 74.4531 154.265 75.6836 155.014 76.5234C155.762 77.3568 156.713 77.7734 157.865 77.7734C159.018 77.7734 159.962 77.36 160.697 76.5332C161.439 75.6999 161.811 74.4531 161.811 72.793C161.811 71.1523 161.449 69.9284 160.727 69.1211C160.01 68.3138 159.057 67.9102 157.865 67.9102C156.674 67.9102 155.714 68.3203 154.984 69.1406C154.255 69.9544 153.891 71.1849 153.891 72.832ZM166.41 74.668C166.41 73.7565 166.635 72.8743 167.084 72.0215C167.533 71.1686 168.168 70.5176 168.988 70.0684C169.815 69.6191 170.736 69.3945 171.752 69.3945C173.321 69.3945 174.607 69.9056 175.609 70.9277C176.612 71.9434 177.113 73.2292 177.113 74.7852C177.113 76.3542 176.605 77.6562 175.59 78.6914C174.581 79.7201 173.308 80.2344 171.771 80.2344C170.821 80.2344 169.913 80.0195 169.047 79.5898C168.188 79.1602 167.533 78.5319 167.084 77.7051C166.635 76.8717 166.41 75.8594 166.41 74.668ZM169.223 74.8145C169.223 75.8431 169.467 76.6309 169.955 77.1777C170.443 77.7246 171.046 77.998 171.762 77.998C172.478 77.998 173.077 77.7246 173.559 77.1777C174.047 76.6309 174.291 75.8366 174.291 74.7949C174.291 73.7793 174.047 72.998 173.559 72.4512C173.077 71.9043 172.478 71.6309 171.762 71.6309C171.046 71.6309 170.443 71.9043 169.955 72.4512C169.467 72.998 169.223 73.7858 169.223 74.8145ZM184.857 80V65.6836H189.496C191.254 65.6836 192.4 65.7552 192.934 65.8984C193.754 66.1133 194.441 66.582 194.994 67.3047C195.548 68.0208 195.824 68.9486 195.824 70.0879C195.824 70.9668 195.665 71.7057 195.346 72.3047C195.027 72.9036 194.62 73.3757 194.125 73.7207C193.637 74.0592 193.139 74.2839 192.631 74.3945C191.941 74.5312 190.941 74.5996 189.633 74.5996H187.748V80H184.857ZM187.748 68.1055V72.168H189.33C190.469 72.168 191.231 72.0931 191.615 71.9434C191.999 71.7936 192.299 71.5592 192.514 71.2402C192.735 70.9212 192.846 70.5501 192.846 70.127C192.846 69.6061 192.693 69.1764 192.387 68.8379C192.081 68.4993 191.693 68.2878 191.225 68.2031C190.88 68.138 190.186 68.1055 189.145 68.1055H187.748ZM198.1 69.6289H200.658V71.1523C200.99 70.6315 201.439 70.2083 202.006 69.8828C202.572 69.5573 203.201 69.3945 203.891 69.3945C205.095 69.3945 206.117 69.8665 206.957 70.8105C207.797 71.7546 208.217 73.0697 208.217 74.7559C208.217 76.4876 207.794 77.8353 206.947 78.7988C206.101 79.7559 205.076 80.2344 203.871 80.2344C203.298 80.2344 202.777 80.1204 202.309 79.8926C201.846 79.6647 201.358 79.2741 200.844 78.7207V83.9453H198.1V69.6289ZM200.814 74.6387C200.814 75.804 201.046 76.6667 201.508 77.2266C201.97 77.7799 202.533 78.0566 203.197 78.0566C203.835 78.0566 204.366 77.8027 204.789 77.2949C205.212 76.7806 205.424 75.9408 205.424 74.7754C205.424 73.6882 205.206 72.8809 204.77 72.3535C204.333 71.8262 203.793 71.5625 203.148 71.5625C202.478 71.5625 201.921 71.8229 201.479 72.3438C201.036 72.8581 200.814 73.623 200.814 74.6387ZM227.514 78.1836C228.223 78.6914 228.995 79.0951 229.828 79.3945L228.764 81.4355C228.327 81.3053 227.901 81.1263 227.484 80.8984C227.393 80.8529 226.752 80.4297 225.561 79.6289C224.623 80.0391 223.585 80.2441 222.445 80.2441C220.245 80.2441 218.52 79.5964 217.27 78.3008C216.026 77.0052 215.404 75.1855 215.404 72.8418C215.404 70.5046 216.029 68.6882 217.279 67.3926C218.529 66.0905 220.225 65.4395 222.367 65.4395C224.49 65.4395 226.173 66.0905 227.416 67.3926C228.66 68.6882 229.281 70.5046 229.281 72.8418C229.281 74.0788 229.109 75.166 228.764 76.1035C228.503 76.8197 228.087 77.513 227.514 78.1836ZM225.189 76.5527C225.561 76.1165 225.837 75.5892 226.02 74.9707C226.208 74.3522 226.303 73.6426 226.303 72.8418C226.303 71.1882 225.938 69.9544 225.209 69.1406C224.48 68.3203 223.526 67.9102 222.348 67.9102C221.169 67.9102 220.212 68.3203 219.477 69.1406C218.747 69.9609 218.383 71.1947 218.383 72.8418C218.383 74.515 218.747 75.7682 219.477 76.6016C220.212 77.4284 221.14 77.8418 222.26 77.8418C222.676 77.8418 223.07 77.7734 223.441 77.6367C222.855 77.2526 222.26 76.9531 221.654 76.7383L222.465 75.0879C223.415 75.4134 224.324 75.9017 225.189 76.5527ZM238.314 83.9453V78.7305C237.956 79.1927 237.51 79.5605 236.977 79.834C236.443 80.1009 235.867 80.2344 235.248 80.2344C234.07 80.2344 233.1 79.7917 232.338 78.9062C231.439 77.8711 230.99 76.4681 230.99 74.6973C230.99 73.0306 231.41 71.7318 232.25 70.8008C233.096 69.8633 234.145 69.3945 235.395 69.3945C236.085 69.3945 236.68 69.541 237.182 69.834C237.689 70.127 238.139 70.5697 238.529 71.1621V69.6289H241.059V83.9453H238.314ZM238.402 74.6875C238.402 73.6263 238.184 72.8385 237.748 72.3242C237.318 71.8034 236.778 71.543 236.127 71.543C235.463 71.543 234.906 71.8066 234.457 72.334C234.014 72.8613 233.793 73.6979 233.793 74.8438C233.793 75.9831 234.008 76.8066 234.438 77.3145C234.867 77.8158 235.398 78.0664 236.029 78.0664C236.661 78.0664 237.214 77.7832 237.689 77.2168C238.165 76.6504 238.402 75.8073 238.402 74.6875ZM249.359 80V65.6836H255.443C256.973 65.6836 258.083 65.8138 258.773 66.0742C259.47 66.3281 260.027 66.7839 260.443 67.4414C260.86 68.099 261.068 68.8509 261.068 69.6973C261.068 70.7715 260.753 71.6602 260.121 72.3633C259.49 73.0599 258.546 73.4993 257.289 73.6816C257.914 74.0462 258.428 74.4466 258.832 74.8828C259.242 75.319 259.792 76.0938 260.482 77.207L262.23 80H258.773L256.684 76.8848C255.941 75.7715 255.434 75.0716 255.16 74.7852C254.887 74.4922 254.597 74.2936 254.291 74.1895C253.985 74.0788 253.5 74.0234 252.836 74.0234H252.25V80H249.359ZM252.25 71.7383H254.389C255.775 71.7383 256.641 71.6797 256.986 71.5625C257.331 71.4453 257.602 71.2435 257.797 70.957C257.992 70.6706 258.09 70.3125 258.09 69.8828C258.09 69.401 257.96 69.0137 257.699 68.7207C257.445 68.4212 257.084 68.2324 256.615 68.1543C256.381 68.1217 255.678 68.1055 254.506 68.1055H252.25V71.7383ZM266.41 80H263.666V69.6289H266.215V71.1035C266.651 70.4069 267.042 69.9479 267.387 69.7266C267.738 69.5052 268.135 69.3945 268.578 69.3945C269.203 69.3945 269.805 69.5671 270.385 69.9121L269.535 72.3047C269.073 72.0052 268.643 71.8555 268.246 71.8555C267.862 71.8555 267.536 71.9629 267.27 72.1777C267.003 72.3861 266.791 72.7669 266.635 73.3203C266.485 73.8737 266.41 75.0326 266.41 76.7969V80ZM1.72266 98.3418L4.53516 98.0684C4.70443 99.0124 5.04622 99.7057 5.56055 100.148C6.08138 100.591 6.78125 100.812 7.66016 100.812C8.59115 100.812 9.29102 100.617 9.75977 100.227C10.235 99.8294 10.4727 99.3672 10.4727 98.8398C10.4727 98.5013 10.3717 98.2148 10.1699 97.9805C9.97461 97.7396 9.62956 97.5312 9.13477 97.3555C8.79622 97.2383 8.02474 97.0299 6.82031 96.7305C5.27083 96.3464 4.18359 95.8743 3.55859 95.3145C2.67969 94.5267 2.24023 93.5664 2.24023 92.4336C2.24023 91.7044 2.44531 91.0241 2.85547 90.3926C3.27214 89.7546 3.86784 89.2695 4.64258 88.9375C5.42383 88.6055 6.36458 88.4395 7.46484 88.4395C9.26172 88.4395 10.6126 88.8333 11.5176 89.6211C12.429 90.4089 12.9076 91.4603 12.9531 92.7754L10.0625 92.9023C9.9388 92.1667 9.67188 91.6393 9.26172 91.3203C8.85807 90.9948 8.24935 90.832 7.43555 90.832C6.5957 90.832 5.93815 91.0046 5.46289 91.3496C5.1569 91.571 5.00391 91.8672 5.00391 92.2383C5.00391 92.5768 5.14714 92.8665 5.43359 93.1074C5.79818 93.4134 6.68359 93.7324 8.08984 94.0645C9.49609 94.3965 10.5345 94.7415 11.2051 95.0996C11.8822 95.4512 12.4095 95.9362 12.7871 96.5547C13.1712 97.1667 13.3633 97.9251 13.3633 98.8301C13.3633 99.6504 13.1354 100.419 12.6797 101.135C12.224 101.851 11.5794 102.385 10.7461 102.736C9.91276 103.081 8.87435 103.254 7.63086 103.254C5.82096 103.254 4.43099 102.837 3.46094 102.004C2.49089 101.164 1.91146 99.9434 1.72266 98.3418ZM14.8086 100.041L17.5625 99.6211C17.6797 100.155 17.9173 100.562 18.2754 100.842C18.6335 101.115 19.1348 101.252 19.7793 101.252C20.4889 101.252 21.0228 101.122 21.3809 100.861C21.6217 100.679 21.7422 100.435 21.7422 100.129C21.7422 99.9206 21.6771 99.748 21.5469 99.6113C21.4102 99.4811 21.1042 99.3607 20.6289 99.25C18.4154 98.7617 17.0124 98.3158 16.4199 97.9121C15.5996 97.3522 15.1895 96.5742 15.1895 95.5781C15.1895 94.6797 15.5443 93.9245 16.2539 93.3125C16.9635 92.7005 18.0638 92.3945 19.5547 92.3945C20.974 92.3945 22.0286 92.6257 22.7188 93.0879C23.4089 93.5501 23.8841 94.2337 24.1445 95.1387L21.5566 95.6172C21.446 95.2135 21.2344 94.9043 20.9219 94.6895C20.6159 94.4746 20.1764 94.3672 19.6035 94.3672C18.8809 94.3672 18.3633 94.4681 18.0508 94.6699C17.8424 94.8132 17.7383 94.9987 17.7383 95.2266C17.7383 95.4219 17.8294 95.5879 18.0117 95.7246C18.2591 95.9069 19.112 96.1641 20.5703 96.4961C22.0352 96.8281 23.0573 97.235 23.6367 97.7168C24.2096 98.2051 24.4961 98.8854 24.4961 99.7578C24.4961 100.708 24.099 101.525 23.3047 102.209C22.5104 102.893 21.3353 103.234 19.7793 103.234C18.3665 103.234 17.2467 102.948 16.4199 102.375C15.5996 101.802 15.0625 101.024 14.8086 100.041ZM35.7168 103V91.1055H31.4688V88.6836H42.8457V91.1055H38.6074V103H35.7168ZM49.457 92.6289V94.8164H47.582V98.9961C47.582 99.8424 47.5983 100.337 47.6309 100.48C47.6699 100.617 47.7513 100.731 47.875 100.822C48.0052 100.913 48.1615 100.959 48.3438 100.959C48.5977 100.959 48.9655 100.871 49.4473 100.695L49.6816 102.824C49.0436 103.098 48.321 103.234 47.5137 103.234C47.0189 103.234 46.5729 103.153 46.1758 102.99C45.7786 102.821 45.4857 102.606 45.2969 102.346C45.1146 102.079 44.9876 101.721 44.916 101.271C44.8574 100.952 44.8281 100.308 44.8281 99.3379V94.8164H43.5684V92.6289H44.8281V90.5684L47.582 88.9668V92.6289H49.457ZM56.9277 88.6836H59.8184V96.4375C59.8184 97.668 59.8542 98.4655 59.9258 98.8301C60.0495 99.416 60.3424 99.888 60.8047 100.246C61.2734 100.598 61.9115 100.773 62.7188 100.773C63.5391 100.773 64.1576 100.607 64.5742 100.275C64.9909 99.9368 65.2415 99.5234 65.3262 99.0352C65.4108 98.5469 65.4531 97.7363 65.4531 96.6035V88.6836H68.3438V96.2031C68.3438 97.9219 68.2656 99.1361 68.1094 99.8457C67.9531 100.555 67.6634 101.154 67.2402 101.643C66.8236 102.131 66.2637 102.521 65.5605 102.814C64.8574 103.101 63.9395 103.244 62.8066 103.244C61.4395 103.244 60.401 103.088 59.6914 102.775C58.9883 102.456 58.4316 102.046 58.0215 101.545C57.6113 101.037 57.3411 100.507 57.2109 99.9531C57.0221 99.1328 56.9277 97.9219 56.9277 96.3203V88.6836ZM78.207 103V101.447C77.8294 102.001 77.3314 102.437 76.7129 102.756C76.1009 103.075 75.4531 103.234 74.7695 103.234C74.0729 103.234 73.4479 103.081 72.8945 102.775C72.3411 102.469 71.9408 102.04 71.6934 101.486C71.446 100.933 71.3223 100.168 71.3223 99.1914V92.6289H74.0664V97.3945C74.0664 98.8529 74.1152 99.748 74.2129 100.08C74.3171 100.406 74.5026 100.666 74.7695 100.861C75.0365 101.05 75.375 101.145 75.7852 101.145C76.2539 101.145 76.6738 101.018 77.0449 100.764C77.416 100.503 77.6699 100.184 77.8066 99.8066C77.9434 99.4225 78.0117 98.4883 78.0117 97.0039V92.6289H80.7559V103H78.207ZM92.8457 103L87.7285 88.6836H90.8633L94.4863 99.2793L97.9922 88.6836H101.059L95.9316 103H92.8457ZM105.365 103L101.186 92.6289H104.066L106.02 97.9219L106.586 99.6895C106.736 99.2402 106.83 98.944 106.869 98.8008C106.96 98.5078 107.058 98.2148 107.162 97.9219L109.135 92.6289H111.957L107.836 103H105.365ZM121.264 103L117.846 88.6836H120.805L122.963 98.5176L125.58 88.6836H129.018L131.527 98.6836L133.725 88.6836H136.635L133.158 103H130.092L127.24 92.2969L124.398 103H121.264ZM140.033 103L136.752 92.6289H139.418L141.361 99.4258L143.148 92.6289H145.795L147.523 99.4258L149.506 92.6289H152.211L148.881 103H146.244L144.457 96.3301L142.699 103H140.033ZM157.797 103L162.689 95.5293L158.256 88.6836H161.635L164.506 93.2832L167.318 88.6836H170.668L166.215 95.6367L171.107 103H167.621L164.447 98.0488L161.264 103H157.797ZM171.254 103L174.994 97.6582L171.41 92.6289H174.76L176.596 95.4805L178.529 92.6289H181.752L178.236 97.541L182.074 103H178.705L176.596 99.7871L174.467 103H171.254ZM192.68 103V96.9746L187.436 88.6836H190.824L194.193 94.3477L197.494 88.6836H200.824L195.561 96.9941V103H192.68ZM200.941 92.6289H203.861L206.342 99.9922L208.764 92.6289H211.605L207.943 102.609L207.289 104.416C207.048 105.021 206.817 105.484 206.596 105.803C206.381 106.122 206.13 106.379 205.844 106.574C205.564 106.776 205.215 106.932 204.799 107.043C204.389 107.154 203.923 107.209 203.402 107.209C202.875 107.209 202.357 107.154 201.85 107.043L201.605 104.895C202.035 104.979 202.423 105.021 202.768 105.021C203.406 105.021 203.878 104.833 204.184 104.455C204.49 104.084 204.724 103.609 204.887 103.029L200.941 92.6289ZM217.719 103V100.393L225.238 91.1055H218.568V88.6836H229.047V90.9297L221.205 100.588H229.35V103H217.719ZM230.062 103V100.861L233.949 96.3984C234.587 95.6693 235.059 95.1517 235.365 94.8457C235.046 94.8652 234.626 94.8783 234.105 94.8848L230.443 94.9043V92.6289H239.018V94.5723L235.053 99.1426L233.656 100.656C234.418 100.611 234.89 100.588 235.072 100.588H239.32V103H230.062Z" fill="black"/>
<path d="M0.970703 156L6.46875 141.684H8.50977L14.3691 156H12.2109L10.541 151.664H4.55469L2.98242 156H0.970703ZM5.10156 150.121H9.95508L8.46094 146.156C8.00521 144.952 7.66667 143.962 7.44531 143.188C7.26302 144.105 7.00586 145.017 6.67383 145.922L5.10156 150.121ZM15.6387 156V145.629H17.2207V147.201C17.6243 146.465 17.9954 145.98 18.334 145.746C18.679 145.512 19.0566 145.395 19.4668 145.395C20.0592 145.395 20.6615 145.583 21.2734 145.961L20.668 147.592C20.2383 147.338 19.8086 147.211 19.3789 147.211C18.9948 147.211 18.6497 147.328 18.3438 147.562C18.0378 147.79 17.8197 148.109 17.6895 148.52C17.4941 149.145 17.3965 149.828 17.3965 150.57V156H15.6387ZM22.3281 143.705V141.684H24.0859V143.705H22.3281ZM22.3281 156V145.629H24.0859V156H22.3281ZM33.5391 154.721C32.888 155.274 32.2598 155.665 31.6543 155.893C31.0553 156.12 30.4108 156.234 29.7207 156.234C28.5814 156.234 27.7057 155.958 27.0938 155.404C26.4818 154.844 26.1758 154.132 26.1758 153.266C26.1758 152.758 26.2897 152.296 26.5176 151.879C26.752 151.456 27.0547 151.117 27.4258 150.863C27.8034 150.609 28.2266 150.417 28.6953 150.287C29.0404 150.196 29.5612 150.108 30.2578 150.023C31.6771 149.854 32.722 149.652 33.3926 149.418C33.3991 149.177 33.4023 149.024 33.4023 148.959C33.4023 148.243 33.2363 147.738 32.9043 147.445C32.4551 147.048 31.7878 146.85 30.9023 146.85C30.0755 146.85 29.4635 146.996 29.0664 147.289C28.6758 147.576 28.3861 148.087 28.1973 148.822L26.4785 148.588C26.6348 147.852 26.8919 147.26 27.25 146.811C27.6081 146.355 28.1257 146.007 28.8027 145.766C29.4798 145.518 30.2643 145.395 31.1562 145.395C32.0417 145.395 32.7611 145.499 33.3145 145.707C33.8678 145.915 34.2747 146.179 34.5352 146.498C34.7956 146.811 34.9779 147.208 35.082 147.689C35.1406 147.989 35.1699 148.529 35.1699 149.311V151.654C35.1699 153.288 35.2057 154.324 35.2773 154.76C35.3555 155.189 35.5052 155.603 35.7266 156H33.8906C33.7083 155.635 33.5911 155.209 33.5391 154.721ZM33.3926 150.795C32.7546 151.055 31.7975 151.277 30.5215 151.459C29.7988 151.563 29.2878 151.68 28.9883 151.811C28.6888 151.941 28.4577 152.133 28.2949 152.387C28.1322 152.634 28.0508 152.911 28.0508 153.217C28.0508 153.686 28.2266 154.076 28.5781 154.389C28.9362 154.701 29.457 154.857 30.1406 154.857C30.8177 154.857 31.4199 154.711 31.9473 154.418C32.4746 154.118 32.862 153.712 33.1094 153.197C33.2982 152.8 33.3926 152.214 33.3926 151.439V150.795ZM37.8652 156V141.684H39.623V156H37.8652ZM48.1777 156V141.684H54.5254C55.8014 141.684 56.7715 141.814 57.4355 142.074C58.0996 142.328 58.6302 142.781 59.0273 143.432C59.4245 144.083 59.623 144.802 59.623 145.59C59.623 146.605 59.2943 147.462 58.6367 148.158C57.9792 148.855 56.9635 149.298 55.5898 149.486C56.0911 149.727 56.472 149.965 56.7324 150.199C57.2858 150.707 57.8099 151.342 58.3047 152.104L60.7949 156H58.4121L56.5176 153.021C55.9642 152.162 55.5085 151.505 55.1504 151.049C54.7923 150.593 54.4701 150.274 54.1836 150.092C53.9036 149.91 53.6172 149.783 53.3242 149.711C53.1094 149.665 52.7578 149.643 52.2695 149.643H50.0723V156H48.1777ZM50.0723 148.002H54.1445C55.0104 148.002 55.6875 147.914 56.1758 147.738C56.6641 147.556 57.0352 147.27 57.2891 146.879C57.543 146.482 57.6699 146.052 57.6699 145.59C57.6699 144.913 57.4225 144.356 56.9277 143.92C56.4395 143.484 55.6647 143.266 54.6035 143.266H50.0723V148.002ZM69.4766 152.66L71.293 152.885C71.0065 153.946 70.4759 154.77 69.7012 155.355C68.9264 155.941 67.9368 156.234 66.7324 156.234C65.2155 156.234 64.0111 155.769 63.1191 154.838C62.2337 153.9 61.791 152.589 61.791 150.902C61.791 149.158 62.2402 147.803 63.1387 146.84C64.0371 145.876 65.2025 145.395 66.6348 145.395C68.0215 145.395 69.1543 145.867 70.0332 146.811C70.9121 147.755 71.3516 149.083 71.3516 150.795C71.3516 150.899 71.3483 151.055 71.3418 151.264H63.6074C63.6725 152.403 63.9948 153.275 64.5742 153.881C65.1536 154.486 65.8763 154.789 66.7422 154.789C67.3867 154.789 67.9368 154.62 68.3926 154.281C68.8483 153.943 69.2096 153.402 69.4766 152.66ZM63.7051 149.818H69.4961C69.418 148.946 69.1966 148.292 68.832 147.855C68.2721 147.178 67.5462 146.84 66.6543 146.84C65.847 146.84 65.1667 147.11 64.6133 147.65C64.0664 148.191 63.7637 148.913 63.7051 149.818ZM73.1875 156.859L74.8965 157.113C74.9681 157.641 75.1667 158.025 75.4922 158.266C75.9284 158.591 76.5241 158.754 77.2793 158.754C78.0931 158.754 78.7214 158.591 79.1641 158.266C79.6068 157.94 79.9062 157.484 80.0625 156.898C80.1536 156.54 80.196 155.788 80.1895 154.643C79.4212 155.548 78.4642 156 77.3184 156C75.8926 156 74.7891 155.486 74.0078 154.457C73.2266 153.428 72.8359 152.195 72.8359 150.756C72.8359 149.766 73.015 148.855 73.373 148.021C73.7311 147.182 74.2487 146.534 74.9258 146.078C75.6094 145.622 76.4102 145.395 77.3281 145.395C78.5521 145.395 79.5612 145.889 80.3555 146.879V145.629H81.9766V154.594C81.9766 156.208 81.8105 157.351 81.4785 158.021C81.153 158.699 80.6322 159.232 79.916 159.623C79.2064 160.014 78.3307 160.209 77.2891 160.209C76.0521 160.209 75.0527 159.929 74.291 159.369C73.5293 158.816 73.1615 157.979 73.1875 156.859ZM74.6426 150.629C74.6426 151.99 74.9128 152.982 75.4531 153.607C75.9935 154.232 76.6706 154.545 77.4844 154.545C78.2917 154.545 78.9688 154.236 79.5156 153.617C80.0625 152.992 80.3359 152.016 80.3359 150.688C80.3359 149.418 80.0527 148.461 79.4863 147.816C78.9264 147.172 78.2493 146.85 77.4551 146.85C76.6738 146.85 76.0098 147.169 75.4629 147.807C74.916 148.438 74.6426 149.379 74.6426 150.629ZM91.4395 156V154.477C90.6322 155.648 89.5352 156.234 88.1484 156.234C87.5365 156.234 86.9635 156.117 86.4297 155.883C85.9023 155.648 85.5085 155.355 85.248 155.004C84.9941 154.646 84.8151 154.21 84.7109 153.695C84.6393 153.35 84.6035 152.803 84.6035 152.055V145.629H86.3613V151.381C86.3613 152.299 86.3971 152.917 86.4688 153.236C86.5794 153.699 86.8138 154.063 87.1719 154.33C87.5299 154.59 87.9727 154.721 88.5 154.721C89.0273 154.721 89.5221 154.587 89.9844 154.32C90.4466 154.047 90.7721 153.679 90.9609 153.217C91.1562 152.748 91.2539 152.071 91.2539 151.186V145.629H93.0117V156H91.4395ZM95.7363 156V141.684H97.4941V156H95.7363ZM106.996 154.721C106.345 155.274 105.717 155.665 105.111 155.893C104.512 156.12 103.868 156.234 103.178 156.234C102.038 156.234 101.163 155.958 100.551 155.404C99.9388 154.844 99.6328 154.132 99.6328 153.266C99.6328 152.758 99.7467 152.296 99.9746 151.879C100.209 151.456 100.512 151.117 100.883 150.863C101.26 150.609 101.684 150.417 102.152 150.287C102.497 150.196 103.018 150.108 103.715 150.023C105.134 149.854 106.179 149.652 106.85 149.418C106.856 149.177 106.859 149.024 106.859 148.959C106.859 148.243 106.693 147.738 106.361 147.445C105.912 147.048 105.245 146.85 104.359 146.85C103.533 146.85 102.921 146.996 102.523 147.289C102.133 147.576 101.843 148.087 101.654 148.822L99.9355 148.588C100.092 147.852 100.349 147.26 100.707 146.811C101.065 146.355 101.583 146.007 102.26 145.766C102.937 145.518 103.721 145.395 104.613 145.395C105.499 145.395 106.218 145.499 106.771 145.707C107.325 145.915 107.732 146.179 107.992 146.498C108.253 146.811 108.435 147.208 108.539 147.689C108.598 147.989 108.627 148.529 108.627 149.311V151.654C108.627 153.288 108.663 154.324 108.734 154.76C108.812 155.189 108.962 155.603 109.184 156H107.348C107.165 155.635 107.048 155.209 106.996 154.721ZM106.85 150.795C106.212 151.055 105.255 151.277 103.979 151.459C103.256 151.563 102.745 151.68 102.445 151.811C102.146 151.941 101.915 152.133 101.752 152.387C101.589 152.634 101.508 152.911 101.508 153.217C101.508 153.686 101.684 154.076 102.035 154.389C102.393 154.701 102.914 154.857 103.598 154.857C104.275 154.857 104.877 154.711 105.404 154.418C105.932 154.118 106.319 153.712 106.566 153.197C106.755 152.8 106.85 152.214 106.85 151.439V150.795ZM111.342 156V145.629H112.924V147.201C113.327 146.465 113.699 145.98 114.037 145.746C114.382 145.512 114.76 145.395 115.17 145.395C115.762 145.395 116.365 145.583 116.977 145.961L116.371 147.592C115.941 147.338 115.512 147.211 115.082 147.211C114.698 147.211 114.353 147.328 114.047 147.562C113.741 147.79 113.523 148.109 113.393 148.52C113.197 149.145 113.1 149.828 113.1 150.57V156H111.342Z" fill="black"/>
<path d="M1 169H270" stroke="black"/>
<path d="M0.970703 195L6.46875 180.684H8.50977L14.3691 195H12.2109L10.541 190.664H4.55469L2.98242 195H0.970703ZM5.10156 189.121H9.95508L8.46094 185.156C8.00521 183.952 7.66667 182.962 7.44531 182.188C7.26302 183.105 7.00586 184.017 6.67383 184.922L5.10156 189.121ZM22.4258 193.721C21.7747 194.274 21.1465 194.665 20.541 194.893C19.9421 195.12 19.2975 195.234 18.6074 195.234C17.4681 195.234 16.5924 194.958 15.9805 194.404C15.3685 193.844 15.0625 193.132 15.0625 192.266C15.0625 191.758 15.1764 191.296 15.4043 190.879C15.6387 190.456 15.9414 190.117 16.3125 189.863C16.6901 189.609 17.1133 189.417 17.582 189.287C17.9271 189.196 18.4479 189.108 19.1445 189.023C20.5638 188.854 21.6087 188.652 22.2793 188.418C22.2858 188.177 22.2891 188.024 22.2891 187.959C22.2891 187.243 22.123 186.738 21.791 186.445C21.3418 186.048 20.6745 185.85 19.7891 185.85C18.9622 185.85 18.3503 185.996 17.9531 186.289C17.5625 186.576 17.2728 187.087 17.084 187.822L15.3652 187.588C15.5215 186.852 15.7786 186.26 16.1367 185.811C16.4948 185.355 17.0124 185.007 17.6895 184.766C18.3665 184.518 19.151 184.395 20.043 184.395C20.9284 184.395 21.6478 184.499 22.2012 184.707C22.7546 184.915 23.1615 185.179 23.4219 185.498C23.6823 185.811 23.8646 186.208 23.9688 186.689C24.0273 186.989 24.0566 187.529 24.0566 188.311V190.654C24.0566 192.288 24.0924 193.324 24.1641 193.76C24.2422 194.189 24.3919 194.603 24.6133 195H22.7773C22.5951 194.635 22.4779 194.209 22.4258 193.721ZM22.2793 189.795C21.6413 190.055 20.6842 190.277 19.4082 190.459C18.6855 190.563 18.1745 190.68 17.875 190.811C17.5755 190.941 17.3444 191.133 17.1816 191.387C17.0189 191.634 16.9375 191.911 16.9375 192.217C16.9375 192.686 17.1133 193.076 17.4648 193.389C17.8229 193.701 18.3438 193.857 19.0273 193.857C19.7044 193.857 20.3066 193.711 20.834 193.418C21.3613 193.118 21.7487 192.712 21.9961 192.197C22.1849 191.8 22.2793 191.214 22.2793 190.439V189.795ZM32.5039 195V180.684H37.875C38.9688 180.684 39.8444 180.83 40.502 181.123C41.166 181.41 41.6836 181.855 42.0547 182.461C42.4323 183.06 42.6211 183.688 42.6211 184.346C42.6211 184.958 42.4551 185.534 42.123 186.074C41.791 186.615 41.2897 187.051 40.6191 187.383C41.485 187.637 42.1491 188.07 42.6113 188.682C43.0801 189.294 43.3145 190.016 43.3145 190.85C43.3145 191.52 43.1712 192.145 42.8848 192.725C42.6048 193.298 42.2565 193.74 41.8398 194.053C41.4232 194.365 40.8991 194.603 40.2676 194.766C39.6426 194.922 38.8743 195 37.9629 195H32.5039ZM34.3984 186.699H37.4941C38.334 186.699 38.9362 186.644 39.3008 186.533C39.7826 186.39 40.1439 186.152 40.3848 185.82C40.6322 185.488 40.7559 185.072 40.7559 184.57C40.7559 184.095 40.6419 183.678 40.4141 183.32C40.1862 182.956 39.8607 182.708 39.4375 182.578C39.0143 182.441 38.2884 182.373 37.2598 182.373H34.3984V186.699ZM34.3984 193.311H37.9629C38.5749 193.311 39.0046 193.288 39.252 193.242C39.6882 193.164 40.0527 193.034 40.3457 192.852C40.6387 192.669 40.8796 192.406 41.0684 192.061C41.2572 191.709 41.3516 191.305 41.3516 190.85C41.3516 190.316 41.2148 189.854 40.9414 189.463C40.668 189.066 40.2871 188.789 39.7988 188.633C39.3171 188.47 38.6204 188.389 37.709 188.389H34.3984V193.311ZM47.3184 195H45.6875V180.684H47.4453V185.791C48.1875 184.86 49.1348 184.395 50.2871 184.395C50.9251 184.395 51.5273 184.525 52.0938 184.785C52.6667 185.039 53.1354 185.4 53.5 185.869C53.8711 186.331 54.1608 186.891 54.3691 187.549C54.5775 188.206 54.6816 188.91 54.6816 189.658C54.6816 191.436 54.2422 192.809 53.3633 193.779C52.4844 194.749 51.4297 195.234 50.1992 195.234C48.9753 195.234 48.015 194.723 47.3184 193.701V195ZM47.2988 189.736C47.2988 190.98 47.4681 191.878 47.8066 192.432C48.36 193.337 49.1087 193.789 50.0527 193.789C50.821 193.789 51.485 193.457 52.0449 192.793C52.6048 192.122 52.8848 191.126 52.8848 189.805C52.8848 188.451 52.6146 187.451 52.0742 186.807C51.5404 186.162 50.8926 185.84 50.1309 185.84C49.3626 185.84 48.6986 186.175 48.1387 186.846C47.5788 187.51 47.2988 188.473 47.2988 189.736ZM72.8359 189.98L74.7305 190.459C74.3333 192.015 73.6172 193.203 72.582 194.023C71.5534 194.837 70.2936 195.244 68.8027 195.244C67.2598 195.244 66.0033 194.932 65.0332 194.307C64.0697 193.675 63.334 192.764 62.8262 191.572C62.3249 190.381 62.0742 189.102 62.0742 187.734C62.0742 186.243 62.3574 184.945 62.9238 183.838C63.4967 182.725 64.3073 181.882 65.3555 181.309C66.4102 180.729 67.569 180.439 68.832 180.439C70.2643 180.439 71.4688 180.804 72.4453 181.533C73.4219 182.262 74.1022 183.288 74.4863 184.609L72.6211 185.049C72.2891 184.007 71.8073 183.249 71.1758 182.773C70.5443 182.298 69.75 182.061 68.793 182.061C67.6927 182.061 66.7715 182.324 66.0293 182.852C65.2936 183.379 64.776 184.089 64.4766 184.98C64.1771 185.866 64.0273 186.781 64.0273 187.725C64.0273 188.942 64.2031 190.007 64.5547 190.918C64.9128 191.823 65.4661 192.5 66.2148 192.949C66.9635 193.398 67.7741 193.623 68.6465 193.623C69.7077 193.623 70.6061 193.317 71.3418 192.705C72.0775 192.093 72.5755 191.185 72.8359 189.98ZM83.6172 191.201L85.3457 191.426C85.1569 192.617 84.6719 193.551 83.8906 194.229C83.1159 194.899 82.1621 195.234 81.0293 195.234C79.61 195.234 78.4674 194.772 77.6016 193.848C76.7422 192.917 76.3125 191.585 76.3125 189.854C76.3125 188.734 76.498 187.754 76.8691 186.914C77.2402 186.074 77.8034 185.446 78.5586 185.029C79.3203 184.606 80.1471 184.395 81.0391 184.395C82.1654 184.395 83.0866 184.681 83.8027 185.254C84.5189 185.82 84.9779 186.628 85.1797 187.676L83.4707 187.939C83.3079 187.243 83.0182 186.719 82.6016 186.367C82.1914 186.016 81.6934 185.84 81.1074 185.84C80.222 185.84 79.5026 186.159 78.9492 186.797C78.3958 187.428 78.1191 188.431 78.1191 189.805C78.1191 191.198 78.3861 192.21 78.9199 192.842C79.4538 193.473 80.1504 193.789 81.0098 193.789C81.6999 193.789 82.276 193.577 82.7383 193.154C83.2005 192.731 83.4935 192.08 83.6172 191.201ZM92.6406 195V180.684H97.5723C98.6855 180.684 99.5352 180.752 100.121 180.889C100.941 181.077 101.641 181.419 102.221 181.914C102.976 182.552 103.539 183.369 103.91 184.365C104.288 185.355 104.477 186.488 104.477 187.764C104.477 188.851 104.35 189.814 104.096 190.654C103.842 191.494 103.516 192.191 103.119 192.744C102.722 193.291 102.286 193.724 101.811 194.043C101.342 194.355 100.772 194.593 100.102 194.756C99.4375 194.919 98.6725 195 97.8066 195H92.6406ZM94.5352 193.311H97.5918C98.5358 193.311 99.2747 193.223 99.8086 193.047C100.349 192.871 100.779 192.624 101.098 192.305C101.547 191.855 101.895 191.253 102.143 190.498C102.396 189.736 102.523 188.815 102.523 187.734C102.523 186.237 102.276 185.088 101.781 184.287C101.293 183.48 100.697 182.939 99.9941 182.666C99.4863 182.471 98.6693 182.373 97.543 182.373H94.5352V193.311ZM113.598 195V193.691C112.94 194.72 111.973 195.234 110.697 195.234C109.87 195.234 109.109 195.007 108.412 194.551C107.722 194.095 107.185 193.46 106.801 192.646C106.423 191.826 106.234 190.885 106.234 189.824C106.234 188.789 106.407 187.852 106.752 187.012C107.097 186.165 107.615 185.518 108.305 185.068C108.995 184.619 109.766 184.395 110.619 184.395C111.244 184.395 111.801 184.528 112.289 184.795C112.777 185.055 113.174 185.397 113.48 185.82V180.684H115.229V195H113.598ZM108.041 189.824C108.041 191.152 108.321 192.145 108.881 192.803C109.441 193.46 110.102 193.789 110.863 193.789C111.632 193.789 112.283 193.477 112.816 192.852C113.357 192.22 113.627 191.26 113.627 189.971C113.627 188.551 113.354 187.51 112.807 186.846C112.26 186.182 111.586 185.85 110.785 185.85C110.004 185.85 109.35 186.169 108.822 186.807C108.301 187.445 108.041 188.451 108.041 189.824ZM123.832 195V180.684H134.184V182.373H125.727V186.758H133.646V188.438H125.727V193.311H134.516V195H123.832ZM144.008 191.66L145.824 191.885C145.538 192.946 145.007 193.77 144.232 194.355C143.458 194.941 142.468 195.234 141.264 195.234C139.747 195.234 138.542 194.769 137.65 193.838C136.765 192.9 136.322 191.589 136.322 189.902C136.322 188.158 136.771 186.803 137.67 185.84C138.568 184.876 139.734 184.395 141.166 184.395C142.553 184.395 143.686 184.867 144.564 185.811C145.443 186.755 145.883 188.083 145.883 189.795C145.883 189.899 145.88 190.055 145.873 190.264H138.139C138.204 191.403 138.526 192.275 139.105 192.881C139.685 193.486 140.408 193.789 141.273 193.789C141.918 193.789 142.468 193.62 142.924 193.281C143.38 192.943 143.741 192.402 144.008 191.66ZM138.236 188.818H144.027C143.949 187.946 143.728 187.292 143.363 186.855C142.803 186.178 142.077 185.84 141.186 185.84C140.378 185.84 139.698 186.11 139.145 186.65C138.598 187.191 138.295 187.913 138.236 188.818ZM153.93 195V180.684H163.588V182.373H155.824V186.807H162.543V188.496H155.824V195H153.93ZM166.254 195V185.996H164.701V184.629H166.254V183.525C166.254 182.829 166.316 182.311 166.439 181.973C166.609 181.517 166.905 181.149 167.328 180.869C167.758 180.583 168.357 180.439 169.125 180.439C169.62 180.439 170.167 180.498 170.766 180.615L170.502 182.148C170.137 182.083 169.792 182.051 169.467 182.051C168.933 182.051 168.555 182.165 168.334 182.393C168.113 182.62 168.002 183.047 168.002 183.672V184.629H170.023V185.996H168.002V195H166.254ZM183.891 189.385V187.705L189.955 187.695V193.008C189.024 193.75 188.064 194.31 187.074 194.688C186.085 195.059 185.069 195.244 184.027 195.244C182.621 195.244 181.342 194.945 180.189 194.346C179.044 193.74 178.178 192.868 177.592 191.729C177.006 190.589 176.713 189.316 176.713 187.91C176.713 186.517 177.003 185.218 177.582 184.014C178.168 182.803 179.008 181.904 180.102 181.318C181.195 180.732 182.455 180.439 183.881 180.439C184.916 180.439 185.85 180.609 186.684 180.947C187.523 181.279 188.181 181.745 188.656 182.344C189.132 182.943 189.493 183.724 189.74 184.688L188.031 185.156C187.816 184.427 187.549 183.854 187.23 183.438C186.911 183.021 186.456 182.689 185.863 182.441C185.271 182.188 184.613 182.061 183.891 182.061C183.025 182.061 182.276 182.194 181.645 182.461C181.013 182.721 180.502 183.066 180.111 183.496C179.727 183.926 179.428 184.398 179.213 184.912C178.848 185.798 178.666 186.758 178.666 187.793C178.666 189.069 178.884 190.137 179.32 190.996C179.763 191.855 180.404 192.493 181.244 192.91C182.084 193.327 182.976 193.535 183.92 193.535C184.74 193.535 185.541 193.379 186.322 193.066C187.104 192.747 187.696 192.409 188.1 192.051V189.385H183.891ZM192.211 195.859L193.92 196.113C193.992 196.641 194.19 197.025 194.516 197.266C194.952 197.591 195.548 197.754 196.303 197.754C197.117 197.754 197.745 197.591 198.188 197.266C198.63 196.94 198.93 196.484 199.086 195.898C199.177 195.54 199.219 194.788 199.213 193.643C198.445 194.548 197.488 195 196.342 195C194.916 195 193.812 194.486 193.031 193.457C192.25 192.428 191.859 191.195 191.859 189.756C191.859 188.766 192.038 187.855 192.396 187.021C192.755 186.182 193.272 185.534 193.949 185.078C194.633 184.622 195.434 184.395 196.352 184.395C197.576 184.395 198.585 184.889 199.379 185.879V184.629H201V193.594C201 195.208 200.834 196.351 200.502 197.021C200.176 197.699 199.656 198.232 198.939 198.623C198.23 199.014 197.354 199.209 196.312 199.209C195.076 199.209 194.076 198.929 193.314 198.369C192.553 197.816 192.185 196.979 192.211 195.859ZM193.666 189.629C193.666 190.99 193.936 191.982 194.477 192.607C195.017 193.232 195.694 193.545 196.508 193.545C197.315 193.545 197.992 193.236 198.539 192.617C199.086 191.992 199.359 191.016 199.359 189.688C199.359 188.418 199.076 187.461 198.51 186.816C197.95 186.172 197.273 185.85 196.479 185.85C195.697 185.85 195.033 186.169 194.486 186.807C193.939 187.438 193.666 188.379 193.666 189.629ZM209.516 195V180.684H211.41V186.562H218.852V180.684H220.746V195H218.852V188.252H211.41V195H209.516ZM223.686 195V180.684H225.443V185.82C226.264 184.87 227.299 184.395 228.549 184.395C229.317 184.395 229.984 184.548 230.551 184.854C231.117 185.153 231.521 185.57 231.762 186.104C232.009 186.637 232.133 187.412 232.133 188.428V195H230.375V188.428C230.375 187.549 230.183 186.911 229.799 186.514C229.421 186.11 228.884 185.908 228.188 185.908C227.667 185.908 227.175 186.045 226.713 186.318C226.257 186.585 225.932 186.95 225.736 187.412C225.541 187.874 225.443 188.512 225.443 189.326V195H223.686ZM240.932 195V180.684H242.826V195H240.932ZM245.961 182.705V180.684H247.719V182.705H245.961ZM245.961 195V184.629H247.719V195H245.961ZM255.229 190.938L256.938 190.703C256.983 191.797 257.188 192.546 257.553 192.949C257.917 193.353 258.422 193.555 259.066 193.555C259.542 193.555 259.952 193.447 260.297 193.232C260.642 193.011 260.88 192.715 261.01 192.344C261.14 191.966 261.205 191.367 261.205 190.547V180.684H263.1V190.439C263.1 191.637 262.953 192.565 262.66 193.223C262.374 193.88 261.915 194.382 261.283 194.727C260.658 195.072 259.923 195.244 259.076 195.244C257.82 195.244 256.856 194.883 256.186 194.16C255.521 193.438 255.202 192.363 255.229 190.938ZM265.961 182.725V180.684H267.719V182.725H265.961ZM263.734 199.023L264.066 197.529C264.418 197.62 264.695 197.666 264.896 197.666C265.255 197.666 265.521 197.546 265.697 197.305C265.873 197.07 265.961 196.478 265.961 195.527V184.629H267.719V195.566C267.719 196.842 267.553 197.731 267.221 198.232C266.798 198.883 266.094 199.209 265.111 199.209C264.636 199.209 264.177 199.147 263.734 199.023ZM2.46484 218V203.684H4.35938V210.783L11.4688 203.684H14.0371L8.03125 209.484L14.3008 218H11.8008L6.70312 210.754L4.35938 213.039V218H2.46484ZM15.668 218V203.684H17.4258V211.848L21.5859 207.629H23.8613L19.8965 211.477L24.2617 218H22.0938L18.666 212.697L17.4258 213.889V218H15.668ZM31.3711 218V203.684H33.2656V216.311H40.3164V218H31.3711ZM42.3184 218V203.684H44.0762V218H42.3184ZM52.543 218V203.684H55.3945L58.7832 213.82C59.0957 214.764 59.3236 215.471 59.4668 215.939C59.6296 215.419 59.8835 214.654 60.2285 213.645L63.6562 203.684H66.2051V218H64.3789V206.018L60.2188 218H58.5098L54.3691 205.812V218H52.543ZM69.0371 218V207.629H70.6094V209.084C70.9349 208.576 71.3678 208.169 71.9082 207.863C72.4486 207.551 73.0638 207.395 73.7539 207.395C74.5221 207.395 75.1504 207.554 75.6387 207.873C76.1335 208.192 76.4818 208.638 76.6836 209.211C77.5039 208 78.5716 207.395 79.8867 207.395C80.9154 207.395 81.7064 207.681 82.2598 208.254C82.8132 208.82 83.0898 209.696 83.0898 210.881V218H81.3418V211.467C81.3418 210.764 81.2832 210.259 81.166 209.953C81.0553 209.641 80.8503 209.39 80.5508 209.201C80.2513 209.012 79.8997 208.918 79.4961 208.918C78.7669 208.918 78.1615 209.162 77.6797 209.65C77.1979 210.132 76.957 210.907 76.957 211.975V218H75.1992V211.262C75.1992 210.48 75.056 209.895 74.7695 209.504C74.4831 209.113 74.0143 208.918 73.3633 208.918C72.8685 208.918 72.4095 209.048 71.9863 209.309C71.5697 209.569 71.2669 209.95 71.0781 210.451C70.8893 210.952 70.7949 211.675 70.7949 212.619V218H69.0371ZM91.4688 218V203.684H93.4121L100.932 214.924V203.684H102.748V218H100.805L93.2852 206.75V218H91.4688ZM105.717 218V207.629H107.299V209.104C108.061 207.964 109.161 207.395 110.6 207.395C111.225 207.395 111.798 207.508 112.318 207.736C112.846 207.958 113.24 208.251 113.5 208.615C113.76 208.98 113.943 209.413 114.047 209.914C114.112 210.24 114.145 210.809 114.145 211.623V218H112.387V211.691C112.387 210.975 112.318 210.441 112.182 210.09C112.045 209.732 111.801 209.449 111.449 209.24C111.104 209.025 110.697 208.918 110.229 208.918C109.48 208.918 108.832 209.156 108.285 209.631C107.745 210.106 107.475 211.008 107.475 212.336V218H105.717ZM122.064 211.027C122.064 208.651 122.702 206.792 123.979 205.451C125.255 204.104 126.902 203.43 128.92 203.43C130.242 203.43 131.433 203.745 132.494 204.377C133.555 205.008 134.363 205.891 134.916 207.023C135.476 208.15 135.756 209.429 135.756 210.861C135.756 212.313 135.463 213.612 134.877 214.758C134.291 215.904 133.461 216.773 132.387 217.365C131.312 217.951 130.154 218.244 128.91 218.244C127.562 218.244 126.358 217.919 125.297 217.268C124.236 216.617 123.432 215.728 122.885 214.602C122.338 213.475 122.064 212.284 122.064 211.027ZM124.018 211.057C124.018 212.782 124.48 214.143 125.404 215.139C126.335 216.128 127.501 216.623 128.9 216.623C130.326 216.623 131.498 216.122 132.416 215.119C133.34 214.117 133.803 212.694 133.803 210.852C133.803 209.686 133.604 208.671 133.207 207.805C132.816 206.932 132.24 206.258 131.479 205.783C130.723 205.301 129.874 205.061 128.93 205.061C127.589 205.061 126.433 205.523 125.463 206.447C124.499 207.365 124.018 208.902 124.018 211.057ZM137.328 212.814C137.328 210.894 137.862 209.471 138.93 208.547C139.822 207.779 140.909 207.395 142.191 207.395C143.617 207.395 144.783 207.863 145.688 208.801C146.592 209.732 147.045 211.021 147.045 212.668C147.045 214.003 146.843 215.054 146.439 215.822C146.042 216.584 145.46 217.176 144.691 217.6C143.93 218.023 143.096 218.234 142.191 218.234C140.74 218.234 139.564 217.769 138.666 216.838C137.774 215.907 137.328 214.566 137.328 212.814ZM139.135 212.814C139.135 214.143 139.424 215.139 140.004 215.803C140.583 216.46 141.312 216.789 142.191 216.789C143.064 216.789 143.79 216.457 144.369 215.793C144.949 215.129 145.238 214.117 145.238 212.756C145.238 211.473 144.945 210.503 144.359 209.846C143.78 209.182 143.057 208.85 142.191 208.85C141.312 208.85 140.583 209.178 140.004 209.836C139.424 210.493 139.135 211.486 139.135 212.814ZM154.906 218V203.684H160.307C161.257 203.684 161.983 203.729 162.484 203.82C163.188 203.938 163.777 204.162 164.252 204.494C164.727 204.82 165.108 205.279 165.395 205.871C165.688 206.464 165.834 207.115 165.834 207.824C165.834 209.042 165.447 210.074 164.672 210.92C163.897 211.76 162.497 212.18 160.473 212.18H156.801V218H154.906ZM156.801 210.49H160.502C161.726 210.49 162.595 210.262 163.109 209.807C163.624 209.351 163.881 208.71 163.881 207.883C163.881 207.284 163.728 206.773 163.422 206.35C163.122 205.92 162.725 205.637 162.23 205.5C161.911 205.415 161.322 205.373 160.463 205.373H156.801V210.49ZM168.021 221.975V207.629H169.623V208.977C170.001 208.449 170.427 208.055 170.902 207.795C171.378 207.528 171.954 207.395 172.631 207.395C173.516 207.395 174.298 207.622 174.975 208.078C175.652 208.534 176.163 209.178 176.508 210.012C176.853 210.839 177.025 211.747 177.025 212.736C177.025 213.798 176.833 214.755 176.449 215.607C176.072 216.454 175.518 217.105 174.789 217.561C174.066 218.01 173.305 218.234 172.504 218.234C171.918 218.234 171.391 218.111 170.922 217.863C170.46 217.616 170.079 217.303 169.779 216.926V221.975H168.021ZM169.613 212.873C169.613 214.208 169.883 215.194 170.424 215.832C170.964 216.47 171.618 216.789 172.387 216.789C173.168 216.789 173.835 216.46 174.389 215.803C174.949 215.139 175.229 214.113 175.229 212.727C175.229 211.405 174.955 210.415 174.408 209.758C173.868 209.1 173.22 208.771 172.465 208.771C171.716 208.771 171.052 209.123 170.473 209.826C169.9 210.523 169.613 211.538 169.613 212.873ZM195.795 216.467C196.674 217.072 197.484 217.515 198.227 217.795L197.67 219.113C196.641 218.742 195.616 218.156 194.594 217.355C193.533 217.948 192.361 218.244 191.078 218.244C189.783 218.244 188.607 217.932 187.553 217.307C186.498 216.682 185.684 215.803 185.111 214.67C184.545 213.537 184.262 212.261 184.262 210.842C184.262 209.429 184.548 208.143 185.121 206.984C185.694 205.826 186.508 204.943 187.562 204.338C188.624 203.732 189.809 203.43 191.117 203.43C192.439 203.43 193.63 203.745 194.691 204.377C195.753 205.002 196.56 205.881 197.113 207.014C197.673 208.14 197.953 209.413 197.953 210.832C197.953 212.01 197.774 213.072 197.416 214.016C197.058 214.953 196.518 215.77 195.795 216.467ZM191.625 214.045C192.719 214.351 193.62 214.807 194.33 215.412C195.443 214.396 196 212.87 196 210.832C196 209.673 195.801 208.661 195.404 207.795C195.014 206.929 194.438 206.258 193.676 205.783C192.921 205.301 192.071 205.061 191.127 205.061C189.714 205.061 188.542 205.546 187.611 206.516C186.68 207.479 186.215 208.921 186.215 210.842C186.215 212.704 186.674 214.133 187.592 215.129C188.516 216.125 189.695 216.623 191.127 216.623C191.804 216.623 192.442 216.496 193.041 216.242C192.449 215.858 191.824 215.585 191.166 215.422L191.625 214.045ZM206.898 221.975V216.896C206.625 217.281 206.241 217.6 205.746 217.854C205.258 218.107 204.737 218.234 204.184 218.234C202.953 218.234 201.892 217.743 201 216.76C200.115 215.777 199.672 214.429 199.672 212.717C199.672 211.675 199.851 210.741 200.209 209.914C200.574 209.087 201.098 208.462 201.781 208.039C202.471 207.609 203.227 207.395 204.047 207.395C205.329 207.395 206.339 207.935 207.074 209.016V207.629H208.656V221.975H206.898ZM201.479 212.785C201.479 214.12 201.758 215.122 202.318 215.793C202.878 216.457 203.549 216.789 204.33 216.789C205.079 216.789 205.723 216.473 206.264 215.842C206.804 215.204 207.074 214.237 207.074 212.941C207.074 211.561 206.788 210.523 206.215 209.826C205.648 209.13 204.981 208.781 204.213 208.781C203.451 208.781 202.803 209.107 202.27 209.758C201.742 210.402 201.479 211.411 201.479 212.785ZM217.24 218V203.684H223.588C224.864 203.684 225.834 203.814 226.498 204.074C227.162 204.328 227.693 204.781 228.09 205.432C228.487 206.083 228.686 206.802 228.686 207.59C228.686 208.605 228.357 209.462 227.699 210.158C227.042 210.855 226.026 211.298 224.652 211.486C225.154 211.727 225.535 211.965 225.795 212.199C226.348 212.707 226.872 213.342 227.367 214.104L229.857 218H227.475L225.58 215.021C225.027 214.162 224.571 213.505 224.213 213.049C223.855 212.593 223.533 212.274 223.246 212.092C222.966 211.91 222.68 211.783 222.387 211.711C222.172 211.665 221.82 211.643 221.332 211.643H219.135V218H217.24ZM219.135 210.002H223.207C224.073 210.002 224.75 209.914 225.238 209.738C225.727 209.556 226.098 209.27 226.352 208.879C226.605 208.482 226.732 208.052 226.732 207.59C226.732 206.913 226.485 206.356 225.99 205.92C225.502 205.484 224.727 205.266 223.666 205.266H219.135V210.002ZM231.42 218V207.629H233.002V209.201C233.406 208.465 233.777 207.98 234.115 207.746C234.46 207.512 234.838 207.395 235.248 207.395C235.84 207.395 236.443 207.583 237.055 207.961L236.449 209.592C236.02 209.338 235.59 209.211 235.16 209.211C234.776 209.211 234.431 209.328 234.125 209.562C233.819 209.79 233.601 210.109 233.471 210.52C233.275 211.145 233.178 211.828 233.178 212.57V218H231.42ZM243.246 213.4L245.033 213.244C245.118 213.96 245.313 214.549 245.619 215.012C245.932 215.467 246.413 215.839 247.064 216.125C247.715 216.405 248.448 216.545 249.262 216.545C249.984 216.545 250.622 216.438 251.176 216.223C251.729 216.008 252.139 215.715 252.406 215.344C252.68 214.966 252.816 214.556 252.816 214.113C252.816 213.664 252.686 213.273 252.426 212.941C252.165 212.603 251.736 212.32 251.137 212.092C250.753 211.942 249.903 211.711 248.588 211.398C247.273 211.079 246.352 210.78 245.824 210.5C245.141 210.142 244.63 209.699 244.291 209.172C243.959 208.638 243.793 208.042 243.793 207.385C243.793 206.662 243.998 205.988 244.408 205.363C244.818 204.732 245.417 204.253 246.205 203.928C246.993 203.602 247.868 203.439 248.832 203.439C249.893 203.439 250.827 203.612 251.635 203.957C252.449 204.296 253.074 204.797 253.51 205.461C253.946 206.125 254.18 206.877 254.213 207.717L252.396 207.854C252.299 206.949 251.967 206.265 251.4 205.803C250.84 205.34 250.01 205.109 248.91 205.109C247.764 205.109 246.928 205.321 246.4 205.744C245.88 206.161 245.619 206.665 245.619 207.258C245.619 207.772 245.805 208.195 246.176 208.527C246.54 208.859 247.491 209.201 249.027 209.553C250.57 209.898 251.628 210.201 252.201 210.461C253.035 210.845 253.65 211.333 254.047 211.926C254.444 212.512 254.643 213.189 254.643 213.957C254.643 214.719 254.424 215.438 253.988 216.115C253.552 216.786 252.924 217.31 252.104 217.688C251.29 218.059 250.372 218.244 249.35 218.244C248.054 218.244 246.967 218.055 246.088 217.678C245.215 217.3 244.529 216.734 244.027 215.979C243.533 215.217 243.272 214.357 243.246 213.4ZM256.303 214.904L258.041 214.631C258.139 215.327 258.409 215.861 258.852 216.232C259.301 216.604 259.926 216.789 260.727 216.789C261.534 216.789 262.133 216.626 262.523 216.301C262.914 215.969 263.109 215.581 263.109 215.139C263.109 214.742 262.937 214.429 262.592 214.201C262.351 214.045 261.752 213.846 260.795 213.605C259.506 213.28 258.611 213 258.109 212.766C257.615 212.525 257.237 212.196 256.977 211.779C256.723 211.356 256.596 210.891 256.596 210.383C256.596 209.921 256.7 209.494 256.908 209.104C257.123 208.706 257.413 208.378 257.777 208.117C258.051 207.915 258.422 207.746 258.891 207.609C259.366 207.466 259.874 207.395 260.414 207.395C261.228 207.395 261.941 207.512 262.553 207.746C263.171 207.98 263.627 208.299 263.92 208.703C264.213 209.1 264.415 209.634 264.525 210.305L262.807 210.539C262.729 210.005 262.501 209.589 262.123 209.289C261.752 208.99 261.225 208.84 260.541 208.84C259.734 208.84 259.158 208.973 258.812 209.24C258.467 209.507 258.295 209.82 258.295 210.178C258.295 210.406 258.367 210.611 258.51 210.793C258.653 210.982 258.878 211.138 259.184 211.262C259.359 211.327 259.877 211.477 260.736 211.711C261.98 212.043 262.846 212.316 263.334 212.531C263.829 212.74 264.216 213.046 264.496 213.449C264.776 213.853 264.916 214.354 264.916 214.953C264.916 215.539 264.743 216.092 264.398 216.613C264.06 217.128 263.568 217.528 262.924 217.814C262.279 218.094 261.55 218.234 260.736 218.234C259.389 218.234 258.36 217.954 257.65 217.395C256.947 216.835 256.498 216.005 256.303 214.904ZM6.18555 241V228.373H1.46875V226.684H12.8164V228.373H8.08008V241H6.18555ZM18.3828 239.428L18.6367 240.98C18.1419 241.085 17.6992 241.137 17.3086 241.137C16.6706 241.137 16.1758 241.036 15.8242 240.834C15.4727 240.632 15.2253 240.368 15.082 240.043C14.9388 239.711 14.8672 239.018 14.8672 237.963V231.996H13.5781V230.629H14.8672V228.061L16.6152 227.006V230.629H18.3828V231.996H16.6152V238.061C16.6152 238.562 16.6445 238.884 16.7031 239.027C16.7682 239.171 16.8691 239.285 17.0059 239.369C17.1491 239.454 17.3509 239.496 17.6113 239.496C17.8066 239.496 18.0638 239.473 18.3828 239.428ZM35.2969 226.684H37.1914V234.955C37.1914 236.394 37.0286 237.536 36.7031 238.383C36.3776 239.229 35.7884 239.919 34.9355 240.453C34.0892 240.98 32.9759 241.244 31.5957 241.244C30.2546 241.244 29.1576 241.013 28.3047 240.551C27.4518 240.089 26.8431 239.421 26.4785 238.549C26.1139 237.67 25.9316 236.472 25.9316 234.955V226.684H27.8262V234.945C27.8262 236.189 27.9401 237.107 28.168 237.699C28.4023 238.285 28.7995 238.738 29.3594 239.057C29.9258 239.376 30.6159 239.535 31.4297 239.535C32.8229 239.535 33.8158 239.219 34.4082 238.588C35.0007 237.956 35.2969 236.742 35.2969 234.945V226.684ZM46.9277 241V239.477C46.1204 240.648 45.0234 241.234 43.6367 241.234C43.0247 241.234 42.4518 241.117 41.918 240.883C41.3906 240.648 40.9967 240.355 40.7363 240.004C40.4824 239.646 40.3034 239.21 40.1992 238.695C40.1276 238.35 40.0918 237.803 40.0918 237.055V230.629H41.8496V236.381C41.8496 237.299 41.8854 237.917 41.957 238.236C42.0677 238.699 42.3021 239.063 42.6602 239.33C43.0182 239.59 43.4609 239.721 43.9883 239.721C44.5156 239.721 45.0104 239.587 45.4727 239.32C45.9349 239.047 46.2604 238.679 46.4492 238.217C46.6445 237.748 46.7422 237.071 46.7422 236.186V230.629H48.5V241H46.9277ZM61.1465 241L55.5996 226.684H57.6504L61.3711 237.084C61.6706 237.917 61.9212 238.699 62.123 239.428C62.3444 238.646 62.6016 237.865 62.8945 237.084L66.7617 226.684H68.6953L63.0898 241H61.1465ZM73.0508 241L69.1055 230.629H70.9609L73.1875 236.84C73.4284 237.51 73.6497 238.207 73.8516 238.93C74.0078 238.383 74.2259 237.725 74.5059 236.957L76.8105 230.629H78.6172L74.6914 241H73.0508ZM88.4609 241L84.6621 226.684H86.6055L88.7832 236.068C89.0176 237.051 89.2194 238.028 89.3887 238.998C89.7533 237.468 89.9681 236.586 90.0332 236.352L92.7578 226.684H95.043L97.0938 233.93C97.6081 235.727 97.9792 237.416 98.207 238.998C98.3893 238.093 98.627 237.055 98.9199 235.883L101.166 226.684H103.07L99.1445 241H97.3184L94.3008 230.092C94.0469 229.18 93.8971 228.62 93.8516 228.412C93.7018 229.07 93.5618 229.63 93.4316 230.092L90.3945 241H88.4609ZM106.537 241L103.363 230.629H105.18L106.83 236.615L107.445 238.842C107.471 238.731 107.65 238.018 107.982 236.703L109.633 230.629H111.439L112.992 236.645L113.51 238.627L114.105 236.625L115.883 230.629H117.592L114.35 241H112.523L110.873 234.789L110.473 233.021L108.373 241H106.537ZM123.412 241L128.949 233.539L124.066 226.684H126.322L128.92 230.355C129.46 231.117 129.844 231.703 130.072 232.113C130.391 231.592 130.769 231.049 131.205 230.482L134.086 226.684H136.146L131.117 233.432L136.537 241H134.193L130.59 235.893C130.388 235.6 130.18 235.281 129.965 234.936C129.646 235.456 129.418 235.814 129.281 236.01L125.688 241H123.412ZM136.811 241L140.6 235.609L137.094 230.629H139.291L140.883 233.061C141.182 233.523 141.423 233.91 141.605 234.223C141.892 233.793 142.156 233.412 142.396 233.08L144.145 230.629H146.244L142.66 235.512L146.518 241H144.359L142.23 237.777L141.664 236.908L138.939 241H136.811ZM157.436 241V234.936L151.918 226.684H154.223L157.045 231C157.566 231.807 158.051 232.615 158.5 233.422C158.93 232.673 159.451 231.83 160.062 230.893L162.836 226.684H165.043L159.33 234.936V241H157.436ZM166.439 244.994L166.244 243.344C166.628 243.448 166.964 243.5 167.25 243.5C167.641 243.5 167.953 243.435 168.188 243.305C168.422 243.174 168.614 242.992 168.764 242.758C168.874 242.582 169.053 242.146 169.301 241.449C169.333 241.352 169.385 241.208 169.457 241.02L165.521 230.629H167.416L169.574 236.635C169.854 237.396 170.105 238.197 170.326 239.037C170.528 238.23 170.769 237.442 171.049 236.674L173.266 230.629H175.023L171.078 241.176C170.655 242.315 170.326 243.1 170.092 243.529C169.779 244.109 169.421 244.532 169.018 244.799C168.614 245.072 168.132 245.209 167.572 245.209C167.234 245.209 166.856 245.137 166.439 244.994ZM181.166 241V239.242L188.5 230.072C189.021 229.421 189.516 228.855 189.984 228.373H181.996V226.684H192.25V228.373L184.213 238.305L183.344 239.311H192.484V241H181.166ZM193.383 241V239.574L199.984 231.996C199.236 232.035 198.575 232.055 198.002 232.055H193.773V230.629H202.25V231.791L196.635 238.373L195.551 239.574C196.339 239.516 197.077 239.486 197.768 239.486H202.562V241H193.383Z" fill="black"/>
</svg>
