<svg width="493" height="173" viewBox="0 0 493 173" fill="none" xmlns="http://www.w3.org/2000/svg">
<path d="M393.952 70.8296H389.956V68.441C389.293 69.3699 388.507 70.064 387.598 70.5234C386.7 70.9725 385.791 71.1971 384.873 71.1971C383.005 71.1971 381.402 70.4468 380.065 68.9463C378.738 67.4356 378.074 65.3328 378.074 62.6379C378.074 59.8818 378.722 57.7892 380.019 56.3602C381.315 54.9209 382.954 54.2012 384.934 54.2012C386.751 54.2012 388.323 54.9566 389.65 56.4673V48.3828H393.952V70.8296ZM382.469 62.347C382.469 64.0823 382.709 65.3379 383.188 66.1136C383.882 67.2365 384.852 67.7979 386.097 67.7979C387.088 67.7979 387.93 67.3794 388.624 66.5424C389.318 65.6951 389.665 64.4345 389.665 62.7604C389.665 60.8924 389.328 59.5501 388.655 58.7335C387.981 57.9066 387.118 57.4932 386.067 57.4932C385.046 57.4932 384.189 57.9015 383.495 58.7181C382.811 59.5246 382.469 60.7342 382.469 62.347Z" fill="black"/>
<path d="M370.311 70.8296V48.3828H374.613V70.8296H370.311Z" fill="black"/>
<path d="M350.146 62.4694C350.146 61.0404 350.499 59.6572 351.203 58.32C351.907 56.9828 352.903 55.962 354.189 55.2577C355.485 54.5533 356.93 54.2012 358.522 54.2012C360.982 54.2012 362.998 55.0025 364.57 56.6051C366.142 58.1975 366.928 60.2135 366.928 62.6532C366.928 65.1132 366.132 67.1548 364.539 68.7778C362.957 70.3906 360.962 71.1971 358.553 71.1971C357.062 71.1971 355.638 70.8602 354.281 70.1865C352.933 69.5128 351.907 68.5277 351.203 67.2313C350.499 65.9248 350.146 64.3375 350.146 62.4694ZM354.556 62.6991C354.556 64.3119 354.939 65.5471 355.705 66.4045C356.47 67.262 357.414 67.6907 358.537 67.6907C359.66 67.6907 360.599 67.262 361.355 66.4045C362.12 65.5471 362.503 64.3017 362.503 62.6685C362.503 61.0761 362.12 59.8512 361.355 58.9937C360.599 58.1363 359.66 57.7075 358.537 57.7075C357.414 57.7075 356.47 58.1363 355.705 58.9937C354.939 59.8512 354.556 61.0863 354.556 62.6991Z" fill="black"/>
<path d="M328.525 48.3828H337.498C339.274 48.3828 340.596 48.4594 341.464 48.6125C342.342 48.7554 343.122 49.0616 343.806 49.5312C344.5 50.0007 345.077 50.6285 345.537 51.4145C345.996 52.1903 346.226 53.0631 346.226 54.0328C346.226 55.0842 345.94 56.0488 345.368 56.9267C344.807 57.8046 344.041 58.463 343.071 58.9019C344.439 59.3 345.491 59.9788 346.226 60.9383C346.961 61.8979 347.328 63.0258 347.328 64.3222C347.328 65.343 347.088 66.3382 346.608 67.308C346.139 68.2675 345.491 69.0382 344.664 69.62C343.847 70.1916 342.837 70.5438 341.632 70.6765C340.877 70.7582 339.055 70.8092 336.166 70.8296H328.525V48.3828ZM333.058 52.1188V57.3095H336.028C337.794 57.3095 338.891 57.284 339.32 57.2329C340.096 57.141 340.703 56.8756 341.142 56.4367C341.591 55.9876 341.816 55.4006 341.816 54.6759C341.816 53.9818 341.622 53.4203 341.234 52.9916C340.856 52.5527 340.29 52.2873 339.534 52.1954C339.085 52.1444 337.794 52.1188 335.661 52.1188H333.058ZM333.058 61.0455V67.0477H337.253C338.886 67.0477 339.922 67.0017 340.361 66.9099C341.035 66.7874 341.581 66.4913 342 66.0218C342.428 65.542 342.643 64.904 342.643 64.1078C342.643 63.4341 342.479 62.8625 342.153 62.3929C341.826 61.9234 341.351 61.5814 340.729 61.3671C340.116 61.1527 338.779 61.0455 336.717 61.0455H333.058Z" fill="black"/>
<path d="M311.025 70.8296V48.3828H315.328V70.8296H311.025Z" fill="black"/>
<path d="M296.784 59.5296L292.88 58.8253C293.319 57.2533 294.074 56.0896 295.146 55.3342C296.218 54.5789 297.81 54.2012 299.923 54.2012C301.842 54.2012 303.271 54.4308 304.21 54.8902C305.149 55.3393 305.808 55.9161 306.185 56.6204C306.573 57.3145 306.767 58.5956 306.767 60.4636L306.721 65.4858C306.721 66.9149 306.788 67.9714 306.92 68.6553C307.063 69.329 307.324 70.0538 307.701 70.8296H303.445C303.332 70.5438 303.195 70.1201 303.031 69.5587C302.96 69.3035 302.909 69.1351 302.878 69.0534C302.143 69.768 301.357 70.3039 300.52 70.6611C299.683 71.0184 298.79 71.1971 297.841 71.1971C296.166 71.1971 294.845 70.7428 293.875 69.8343C292.915 68.9258 292.436 67.7775 292.436 66.3892C292.436 65.4705 292.655 64.6539 293.094 63.9394C293.533 63.2146 294.145 62.6634 294.931 62.2857C295.728 61.8978 296.871 61.5609 298.361 61.2751C300.372 60.8974 301.765 60.5453 302.541 60.2186V59.7899C302.541 58.9631 302.337 58.3761 301.929 58.0291C301.52 57.6718 300.75 57.4932 299.617 57.4932C298.851 57.4932 298.254 57.6463 297.825 57.9525C297.397 58.2485 297.049 58.7742 296.784 59.5296ZM302.541 63.0207C301.99 63.2044 301.117 63.4239 299.923 63.6791C298.729 63.9342 297.948 64.1843 297.58 64.4293C297.019 64.8274 296.738 65.3327 296.738 65.9452C296.738 66.5474 296.963 67.068 297.412 67.507C297.861 67.9459 298.433 68.1654 299.127 68.1654C299.903 68.1654 300.643 67.9102 301.347 67.3998C301.867 67.0119 302.209 66.5372 302.373 65.9758C302.485 65.6083 302.541 64.9091 302.541 63.8781V63.0207Z" fill="black"/>
<path d="M284.842 52.3638V48.3828H289.144V52.3638H284.842ZM284.842 70.8296V54.5687H289.144V70.8296H284.842Z" fill="black"/>
<path d="M276.742 70.8296H272.439V54.5687H276.436V56.8807C277.12 55.7885 277.732 55.0688 278.273 54.7218C278.824 54.3747 279.447 54.2012 280.141 54.2012C281.121 54.2012 282.065 54.4717 282.974 55.0127L281.642 58.764C280.917 58.2945 280.243 58.0597 279.621 58.0597C279.018 58.0597 278.508 58.2281 278.089 58.565C277.671 58.8916 277.339 59.4888 277.094 60.3564C276.859 61.2241 276.742 63.0411 276.742 65.8074V70.8296Z" fill="black"/>
<path d="M270.234 70.8296H265.304L263.344 65.7309H254.371L252.519 70.8296H247.711L256.454 48.3828H261.246L270.234 70.8296ZM261.889 61.9489L258.797 53.6194L255.765 61.9489H261.889Z" fill="black"/>
<path d="M231.465 64.8426V60.54H239.917V64.8426H231.465Z" fill="black"/>
<path d="M214.5 70.8296V48.3828H218.803V70.8296H214.5Z" fill="black"/>
<path d="M205.773 70.8296V48.3828H210.076V70.8296H205.773Z" fill="black"/>
<path d="M191.532 59.5296L187.628 58.8253C188.067 57.2533 188.822 56.0896 189.894 55.3342C190.966 54.5789 192.558 54.2012 194.671 54.2012C196.59 54.2012 198.019 54.4308 198.958 54.8902C199.897 55.3393 200.556 55.9161 200.933 56.6204C201.321 57.3145 201.515 58.5956 201.515 60.4636L201.469 65.4858C201.469 66.9149 201.536 67.9714 201.668 68.6553C201.811 69.329 202.072 70.0538 202.449 70.8296H198.193C198.08 70.5438 197.943 70.1201 197.779 69.5587C197.708 69.3035 197.657 69.1351 197.626 69.0534C196.891 69.768 196.105 70.3039 195.268 70.6611C194.431 71.0184 193.538 71.1971 192.589 71.1971C190.915 71.1971 189.593 70.7428 188.623 69.8343C187.663 68.9258 187.184 67.7775 187.184 66.3892C187.184 65.4705 187.403 64.6539 187.842 63.9394C188.281 63.2146 188.893 62.6634 189.679 62.2857C190.476 61.8978 191.619 61.5609 193.109 61.2751C195.12 60.8974 196.513 60.5453 197.289 60.2186V59.7899C197.289 58.9631 197.085 58.3761 196.677 58.0291C196.268 57.6718 195.498 57.4932 194.365 57.4932C193.599 57.4932 193.002 57.6463 192.573 57.9525C192.145 58.2485 191.797 58.7742 191.532 59.5296ZM197.289 63.0207C196.738 63.2044 195.865 63.4239 194.671 63.6791C193.477 63.9342 192.696 64.1843 192.328 64.4293C191.767 64.8274 191.486 65.3327 191.486 65.9452C191.486 66.5474 191.711 67.068 192.16 67.507C192.609 67.9459 193.181 68.1654 193.875 68.1654C194.651 68.1654 195.391 67.9102 196.095 67.3998C196.616 67.0119 196.958 66.5372 197.121 65.9758C197.233 65.6083 197.289 64.9091 197.289 63.8781V63.0207Z" fill="black"/>
<path d="M160.098 54.5687H164.063V56.7888C165.482 55.0637 167.172 54.2012 169.132 54.2012C170.173 54.2012 171.076 54.4155 171.842 54.8443C172.607 55.273 173.235 55.9212 173.725 56.7888C174.44 55.9212 175.21 55.273 176.037 54.8443C176.864 54.4155 177.747 54.2012 178.686 54.2012C179.88 54.2012 180.891 54.4462 181.718 54.9361C182.544 55.4159 183.162 56.1253 183.57 57.0644C183.866 57.7586 184.014 58.8814 184.014 60.433V70.8296H179.712V61.5354C179.712 59.9226 179.564 58.8814 179.268 58.4119C178.87 57.7994 178.257 57.4932 177.43 57.4932C176.828 57.4932 176.262 57.6769 175.731 58.0444C175.2 58.4119 174.817 58.9529 174.582 59.6674C174.348 60.3717 174.23 61.4895 174.23 63.0207V70.8296H169.928V61.9182C169.928 60.336 169.851 59.3152 169.698 58.8559C169.545 58.3966 169.305 58.0546 168.978 57.83C168.662 57.6055 168.228 57.4932 167.677 57.4932C167.013 57.4932 166.416 57.6718 165.885 58.0291C165.355 58.3863 164.972 58.9018 164.737 59.5755C164.513 60.2493 164.4 61.367 164.4 62.9288V70.8296H160.098V54.5687Z" fill="black"/>
<path d="M138.387 63.526L142.796 63.0972C143.062 64.5774 143.598 65.6645 144.404 66.3586C145.221 67.0527 146.318 67.3998 147.696 67.3998C149.156 67.3998 150.253 67.0936 150.988 66.4811C151.733 65.8584 152.106 65.1337 152.106 64.3069C152.106 63.7761 151.948 63.3269 151.631 62.9594C151.325 62.5818 150.784 62.2551 150.008 61.9795C149.477 61.7958 148.268 61.4691 146.379 60.9996C143.95 60.3973 142.245 59.6572 141.265 58.7794C139.887 57.5442 139.198 56.0386 139.198 54.2624C139.198 53.1192 139.52 52.0525 140.163 51.0623C140.816 50.062 141.75 49.3015 142.965 48.7809C144.19 48.2603 145.665 48 147.39 48C150.207 48 152.325 48.6176 153.744 49.8527C155.173 51.0878 155.924 52.7364 155.995 54.7984L151.463 54.9974C151.269 53.8439 150.85 53.0171 150.207 52.5169C149.574 52.0065 148.62 51.7513 147.344 51.7513C146.027 51.7513 144.996 52.0218 144.251 52.5629C143.771 52.9099 143.531 53.3744 143.531 53.9562C143.531 54.487 143.756 54.9413 144.205 55.3189C144.777 55.7987 146.165 56.2989 148.37 56.8195C150.575 57.3401 152.203 57.8811 153.254 58.4425C154.316 58.9937 155.143 59.7542 155.735 60.7239C156.337 61.6835 156.638 62.8727 156.638 64.2915C156.638 65.5777 156.281 66.7822 155.566 67.9051C154.852 69.0279 153.841 69.865 152.535 70.4162C151.228 70.9572 149.6 71.2277 147.65 71.2277C144.812 71.2277 142.633 70.5744 141.112 69.2678C139.591 67.951 138.683 66.0371 138.387 63.526Z" fill="black"/>
<path d="M122.739 65.6543L127.026 66.3739C126.475 67.9459 125.602 69.1453 124.408 69.9721C123.223 70.7887 121.738 71.1971 119.952 71.1971C117.124 71.1971 115.032 70.2733 113.674 68.4257C112.602 66.9455 112.066 65.0775 112.066 62.8216C112.066 60.1268 112.771 58.0189 114.179 56.4979C115.588 54.9668 117.369 54.2012 119.523 54.2012C121.942 54.2012 123.851 55.0025 125.25 56.6051C126.648 58.1975 127.317 60.6423 127.256 63.9394H116.476C116.507 65.2153 116.854 66.2106 117.517 66.9251C118.181 67.6294 119.008 67.9816 119.998 67.9816C120.672 67.9816 121.238 67.7979 121.697 67.4304C122.157 67.0629 122.504 66.4709 122.739 65.6543ZM122.984 61.3058C122.953 60.0604 122.631 59.1162 122.019 58.4731C121.406 57.8198 120.661 57.4932 119.783 57.4932C118.844 57.4932 118.069 57.8351 117.456 58.519C116.844 59.203 116.542 60.1319 116.553 61.3058H122.984Z" fill="black"/>
<path d="M108.943 70.8296H104.64V62.5307C104.64 60.775 104.548 59.6419 104.365 59.1315C104.181 58.6109 103.88 58.2077 103.461 57.9219C103.053 57.6361 102.558 57.4932 101.976 57.4932C101.231 57.4932 100.562 57.6973 99.9701 58.1056C99.3781 58.5139 98.9698 59.055 98.7452 59.7287C98.5308 60.4024 98.4237 61.6477 98.4237 63.4647V70.8296H94.1211V54.5687H98.1174V56.9573C99.5363 55.1199 101.323 54.2012 103.476 54.2012C104.426 54.2012 105.293 54.3747 106.079 54.7218C106.865 55.0586 107.458 55.4925 107.856 56.0233C108.264 56.5541 108.545 57.1563 108.698 57.83C108.861 58.5037 108.943 59.4684 108.943 60.7239V70.8296Z" fill="black"/>
<path d="M85.4238 52.3638V48.3828H89.7264V52.3638H85.4238ZM85.4238 70.8296V54.5687H89.7264V70.8296H85.4238Z" fill="black"/>
<path d="M76.6953 70.8296V48.3828H80.9979V70.8296H76.6953Z" fill="black"/>
<path d="M72.4387 70.8296H68.4424V68.441C67.7788 69.3699 66.9929 70.064 66.0844 70.5234C65.1861 70.9725 64.2776 71.1971 63.3589 71.1971C61.4909 71.1971 59.8883 70.4468 58.5511 68.9463C57.224 67.4356 56.5605 65.3328 56.5605 62.6379C56.5605 59.8818 57.2087 57.7892 58.5051 56.3602C59.8015 54.9209 61.4398 54.2012 63.4201 54.2012C65.2371 54.2012 66.8091 54.9566 68.1361 56.4673V48.3828H72.4387V70.8296ZM60.955 62.347C60.955 64.0823 61.1949 65.3379 61.6746 66.1136C62.3687 67.2365 63.3385 67.7979 64.5838 67.7979C65.574 67.7979 66.4161 67.3794 67.1102 66.5424C67.8044 65.6951 68.1514 64.4345 68.1514 62.7604C68.1514 60.8924 67.8146 59.5501 67.1409 58.7335C66.4672 57.9066 65.6046 57.4932 64.5532 57.4932C63.5324 57.4932 62.675 57.9015 61.9809 58.7181C61.2969 59.5246 60.955 60.7342 60.955 62.347Z" fill="black"/>
<path d="M43.286 59.5296L39.3815 58.8253C39.8205 57.2533 40.5758 56.0896 41.6477 55.3342C42.7195 54.5789 44.3119 54.2012 46.4249 54.2012C48.3439 54.2012 49.773 54.4308 50.7121 54.8902C51.6512 55.3393 52.3096 55.9161 52.6873 56.6204C53.0752 57.3145 53.2692 58.5956 53.2692 60.4636L53.2232 65.4858C53.2232 66.9149 53.2896 67.9714 53.4223 68.6553C53.5652 69.329 53.8255 70.0538 54.2032 70.8296H49.9465C49.8343 70.5438 49.6965 70.1201 49.5331 69.5587C49.4617 69.3035 49.4106 69.1351 49.38 69.0534C48.6451 69.768 47.8591 70.3039 47.022 70.6611C46.185 71.0184 45.2918 71.1971 44.3425 71.1971C42.6684 71.1971 41.3465 70.7428 40.3768 69.8343C39.4173 68.9258 38.9375 67.7775 38.9375 66.3892C38.9375 65.4705 39.157 64.6539 39.5959 63.9394C40.0348 63.2146 40.6473 62.6634 41.4333 62.2857C42.2295 61.8978 43.3728 61.5609 44.8631 61.2751C46.874 60.8974 48.2674 60.5453 49.0432 60.2186V59.7899C49.0432 58.9631 48.839 58.3761 48.4307 58.0291C48.0224 57.6718 47.2517 57.4932 46.1186 57.4932C45.3531 57.4932 44.7559 57.6463 44.3272 57.9525C43.8985 58.2485 43.5514 58.7742 43.286 59.5296ZM49.0432 63.0207C48.4919 63.2044 47.6192 63.4239 46.4249 63.6791C45.2306 63.9342 44.4497 64.1843 44.0822 64.4293C43.5208 64.8274 43.2401 65.3327 43.2401 65.9452C43.2401 66.5474 43.4646 67.068 43.9138 67.507C44.3629 67.9459 44.9345 68.1654 45.6287 68.1654C46.4045 68.1654 47.1445 67.9102 47.8489 67.3998C48.3694 67.0119 48.7114 66.5372 48.8747 65.9758C48.987 65.6083 49.0432 64.9091 49.0432 63.8781V63.0207Z" fill="black"/>
<path d="M32.0316 65.6543L36.3188 66.3739C35.7676 67.9459 34.8948 69.1453 33.7005 69.9721C32.5164 70.7887 31.0312 71.1971 29.2449 71.1971C26.4173 71.1971 24.3247 70.2733 22.9671 68.4257C21.8953 66.9455 21.3594 65.0775 21.3594 62.8216C21.3594 60.1268 22.0637 58.0189 23.4724 56.4979C24.881 54.9668 26.6623 54.2012 28.8161 54.2012C31.2354 54.2012 33.1442 55.0025 34.5427 56.6051C35.9411 58.1975 36.6097 60.6423 36.5485 63.9394H25.7691C25.7997 65.2153 26.1468 66.2106 26.8103 66.9251C27.4738 67.6294 28.3006 67.9816 29.2908 67.9816C29.9645 67.9816 30.531 67.7979 30.9904 67.4304C31.4497 67.0629 31.7968 66.4709 32.0316 65.6543ZM32.2765 61.3058C32.2459 60.0604 31.9244 59.1162 31.3119 58.4731C30.6995 57.8198 29.9543 57.4932 29.0764 57.4932C28.1373 57.4932 27.3615 57.8351 26.7491 58.519C26.1366 59.203 25.8355 60.1319 25.8457 61.3058H32.2765Z" fill="black"/>
<path d="M0 70.8296V48.3828H4.53223V57.2176H13.413V48.3828H17.9452V70.8296H13.413V61.0149H4.53223V70.8296H0Z" fill="black"/>
<path d="M473.527 0.382812H481.811C483.679 0.382812 485.103 0.525721 486.083 0.811537C487.4 1.19943 488.528 1.88845 489.467 2.8786C490.406 3.86875 491.12 5.08347 491.61 6.52277C492.1 7.95185 492.345 9.71779 492.345 11.8206C492.345 13.6682 492.116 15.2606 491.656 16.5978C491.095 18.231 490.294 19.5529 489.252 20.5635C488.466 21.3291 487.405 21.9262 486.068 22.355C485.067 22.6714 483.73 22.8296 482.056 22.8296H473.527V0.382812ZM478.06 4.18009V19.0477H481.443C482.709 19.0477 483.623 18.9762 484.184 18.8333C484.919 18.6496 485.527 18.3382 486.006 17.8993C486.496 17.4604 486.894 16.7407 487.201 15.7404C487.507 14.7298 487.66 13.3568 487.66 11.6215C487.66 9.88621 487.507 8.5541 487.201 7.6252C486.894 6.6963 486.466 5.97155 485.914 5.45095C485.363 4.93036 484.664 4.57819 483.817 4.39445C483.184 4.25154 481.944 4.18009 480.096 4.18009H478.06Z" fill="black"/>
<path d="M454.494 22.8295V0.566406H459.026V19.0475H470.296V22.8295H454.494Z" fill="black"/>
<path d="M429.047 11.744C429.047 9.45747 429.389 7.53841 430.073 5.98684C430.583 4.84357 431.277 3.81769 432.155 2.9092C433.043 2.00072 434.013 1.32701 435.064 0.888073C436.463 0.296024 438.076 0 439.903 0C443.21 0 445.854 1.02588 447.834 3.07763C449.825 5.12939 450.82 7.98245 450.82 11.6368C450.82 15.2606 449.835 18.0983 447.865 20.1501C445.895 22.1916 443.261 23.2124 439.964 23.2124C436.626 23.2124 433.972 22.1967 432.002 20.1654C430.032 18.1238 429.047 15.3167 429.047 11.744ZM433.717 11.5909C433.717 14.1326 434.304 16.0619 435.478 17.3787C436.652 18.6853 438.142 19.3386 439.949 19.3386C441.756 19.3386 443.236 18.6904 444.389 17.394C445.553 16.0874 446.135 14.1326 446.135 11.5296C446.135 8.95729 445.568 7.03823 444.435 5.77247C443.312 4.50671 441.817 3.87384 439.949 3.87384C438.081 3.87384 436.575 4.51692 435.432 5.8031C434.289 7.07906 433.717 9.00833 433.717 11.5909Z" fill="black"/>
<path d="M407.318 0.382812H416.291C418.067 0.382812 419.389 0.459371 420.257 0.612487C421.135 0.755395 421.915 1.06163 422.599 1.53118C423.293 2.00074 423.87 2.62851 424.33 3.41451C424.789 4.1903 425.019 5.06306 425.019 6.03279C425.019 7.08419 424.733 8.04882 424.161 8.92669C423.6 9.80455 422.834 10.463 421.864 10.9019C423.232 11.3 424.284 11.9788 425.019 12.9383C425.754 13.8979 426.121 15.0258 426.121 16.3222C426.121 17.343 425.881 18.3382 425.401 19.308C424.932 20.2675 424.284 21.0382 423.457 21.62C422.64 22.1916 421.63 22.5438 420.425 22.6765C419.67 22.7582 417.848 22.8092 414.959 22.8296H407.318V0.382812ZM411.851 4.11884V9.30948H414.821C416.587 9.30948 417.684 9.28396 418.113 9.23292C418.889 9.14105 419.496 8.87565 419.935 8.43672C420.384 7.98758 420.609 7.40063 420.609 6.67588C420.609 5.98176 420.415 5.42033 420.027 4.99161C419.649 4.55267 419.083 4.28727 418.327 4.1954C417.878 4.14436 416.587 4.11884 414.454 4.11884H411.851ZM411.851 13.0455V19.0477H416.046C417.679 19.0477 418.715 19.0017 419.154 18.9099C419.828 18.7874 420.374 18.4913 420.793 18.0218C421.221 17.542 421.436 16.904 421.436 16.1078C421.436 15.4341 421.272 14.8625 420.946 14.3929C420.619 13.9234 420.144 13.5814 419.522 13.3671C418.909 13.1527 417.572 13.0455 415.51 13.0455H411.851Z" fill="black"/>
<path d="M380.111 22.8295V0.566406H384.644V19.0475H395.913V22.8295H380.111Z" fill="black"/>
<path d="M377.568 22.8296H372.638L370.678 17.7309H361.705L359.853 22.8296H355.045L363.788 0.382812H368.58L377.568 22.8296ZM369.223 13.9489L366.131 5.61938L363.099 13.9489H369.223Z" fill="black"/>
<path d="M348.461 22.8296V0.382812H352.993V22.8296H348.461Z" fill="black"/>
<path d="M325.953 22.8296V0.382812H335.492C337.891 0.382812 339.631 0.586967 340.714 0.995277C341.806 1.39338 342.678 2.10792 343.332 3.1389C343.985 4.16988 344.312 5.34888 344.312 6.67588C344.312 8.36016 343.817 9.75351 342.827 10.8559C341.836 11.9482 340.356 12.6372 338.386 12.923C339.366 13.4946 340.173 14.1224 340.805 14.8063C341.448 15.4903 342.311 16.705 343.393 18.4505L346.134 22.8296H340.714L337.437 17.9452C336.273 16.1997 335.477 15.1024 335.048 14.6532C334.619 14.1939 334.165 13.8825 333.685 13.7192C333.206 13.5457 332.445 13.4589 331.404 13.4589H330.485V22.8296H325.953ZM330.485 9.87601H333.839C336.013 9.87601 337.37 9.78414 337.911 9.6004C338.452 9.41666 338.876 9.10022 339.182 8.65108C339.489 8.20194 339.642 7.64051 339.642 6.9668C339.642 6.21143 339.438 5.60407 339.029 5.14472C338.631 4.67517 338.065 4.37914 337.33 4.25665C336.962 4.20561 335.86 4.18009 334.022 4.18009H330.485V9.87601Z" fill="black"/>
<path d="M323.519 22.8296H318.589L316.629 17.7309H307.657L305.804 22.8296H300.996L309.739 0.382812H314.532L323.519 22.8296ZM315.175 13.9489L312.082 5.61938L309.05 13.9489H315.175Z" fill="black"/>
<path d="M284.75 16.8426V12.54H293.202V16.8426H284.75Z" fill="black"/>
<path d="M258.076 22.8295V0.566406H262.608V19.0475H273.878V22.8295H258.076Z" fill="black"/>
<path d="M238.906 22.8295V0.566406H243.438V19.0475H254.708V22.8295H238.906Z" fill="black"/>
<path d="M236.365 22.8296H231.435L229.475 17.7309H220.502L218.65 22.8296H213.842L222.585 0.382812H227.377L236.365 22.8296ZM228.02 13.9489L224.927 5.61938L221.896 13.9489H228.02Z" fill="black"/>
<path d="M189.941 22.8296V0.382812H196.724L200.797 15.6944L204.824 0.382812H211.623V22.8296H207.412V5.16003L202.956 22.8296H198.592L194.152 5.16003V22.8296H189.941Z" fill="black"/>
<path d="M167.938 15.526L172.347 15.0972C172.613 16.5774 173.149 17.6645 173.955 18.3586C174.772 19.0527 175.869 19.3998 177.247 19.3998C178.707 19.3998 179.804 19.0936 180.539 18.4811C181.284 17.8584 181.657 17.1337 181.657 16.3069C181.657 15.7761 181.498 15.3269 181.182 14.9594C180.876 14.5818 180.335 14.2551 179.559 13.9795C179.028 13.7958 177.819 13.4691 175.93 12.9996C173.501 12.3973 171.796 11.6572 170.816 10.7794C169.438 9.54423 168.749 8.03859 168.749 6.26245C168.749 5.11918 169.071 4.05247 169.714 3.06232C170.367 2.06196 171.301 1.30149 172.516 0.780892C173.741 0.260297 175.216 0 176.941 0C179.758 0 181.876 0.617568 183.295 1.8527C184.724 3.08784 185.474 4.73639 185.546 6.79835L181.014 6.9974C180.82 5.84393 180.401 5.0171 179.758 4.51692C179.125 4.00654 178.171 3.75134 176.895 3.75134C175.578 3.75134 174.547 4.02185 173.802 4.56286C173.322 4.90992 173.082 5.37437 173.082 5.95621C173.082 6.48702 173.307 6.94126 173.756 7.31895C174.328 7.79871 175.716 8.29889 177.921 8.81948C180.126 9.34008 181.754 9.88109 182.805 10.4425C183.867 10.9937 184.693 11.7542 185.286 12.7239C185.888 13.6835 186.189 14.8727 186.189 16.2915C186.189 17.5777 185.832 18.7822 185.117 19.9051C184.403 21.0279 183.392 21.865 182.085 22.4162C180.779 22.9572 179.151 23.2277 177.201 23.2277C174.363 23.2277 172.184 22.5744 170.663 21.2678C169.142 19.951 168.234 18.0371 167.938 15.526Z" fill="black"/>
<path d="M139.443 22.8296V0.382812H156.087V4.18009H143.976V9.15636H155.245V12.9383H143.976V19.0477H156.516V22.8296H139.443Z" fill="black"/>
<path d="M116.828 22.8296V0.382812H121.238L130.425 15.3729V0.382812H134.636V22.8296H130.088L121.039 8.19173V22.8296H116.828Z" fill="black"/>
<path d="M107.916 22.8296V0.382812H112.448V22.8296H107.916Z" fill="black"/>
<path d="M89.0059 22.8295V0.566406H93.5381V19.0475H104.807V22.8295H89.0059Z" fill="black"/>
<path d="M66.207 0.382812H74.4906C76.3586 0.382812 77.7826 0.525721 78.7625 0.811537C80.0793 1.19943 81.2073 1.88845 82.1464 2.8786C83.0855 3.86875 83.8001 5.08347 84.29 6.52277C84.78 7.95185 85.025 9.71779 85.025 11.8206C85.025 13.6682 84.7953 15.2606 84.336 16.5978C83.7745 18.231 82.9732 19.5529 81.932 20.5635C81.1461 21.3291 80.0844 21.9262 78.7472 22.355C77.7469 22.6714 76.4097 22.8296 74.7356 22.8296H66.207V0.382812ZM70.7393 4.18009V19.0477H74.1231C75.3889 19.0477 76.3025 18.9762 76.8639 18.8333C77.5989 18.6496 78.2062 18.3382 78.686 17.8993C79.176 17.4604 79.5741 16.7407 79.8803 15.7404C80.1865 14.7298 80.3396 13.3568 80.3396 11.6215C80.3396 9.88621 80.1865 8.5541 79.8803 7.6252C79.5741 6.6963 79.1453 5.97155 78.5941 5.45095C78.0429 4.93036 77.3437 4.57819 76.4964 4.39445C75.8635 4.25154 74.6233 4.18009 72.7757 4.18009H70.7393Z" fill="black"/>
<path d="M63.8027 22.8296H58.8723L56.9124 17.7309H47.9398L46.0871 22.8296H41.2793L50.0222 0.382812H54.8148L63.8027 22.8296ZM55.4578 13.9489L52.3649 5.61938L49.3332 13.9489H55.4578Z" fill="black"/>
<path d="M22.6465 22.8296V0.382812H39.2902V4.18009H27.1787V9.15636H38.4481V12.9383H27.1787V19.0477H39.7189V22.8296H22.6465Z" fill="black"/>
<path d="M0 22.8296V0.382812H4.53223V9.21761H13.413V0.382812H17.9452V22.8296H13.413V13.0149H4.53223V22.8296H0Z" fill="black"/>
<path d="M334.053 118.447V102.186H336.533V104.651C337.166 103.498 337.748 102.737 338.279 102.37C338.82 102.002 339.412 101.818 340.055 101.818C340.984 101.818 341.928 102.114 342.888 102.706L341.938 105.263C341.264 104.865 340.591 104.666 339.917 104.666C339.315 104.666 338.774 104.85 338.294 105.218C337.814 105.575 337.472 106.075 337.268 106.718C336.962 107.698 336.809 108.77 336.809 109.934V118.447H334.053Z" fill="black"/>
<path d="M327.24 116.441C326.219 117.309 325.234 117.921 324.285 118.278C323.346 118.636 322.335 118.814 321.253 118.814C319.467 118.814 318.094 118.38 317.135 117.513C316.175 116.635 315.695 115.517 315.695 114.16C315.695 113.363 315.874 112.639 316.231 111.985C316.599 111.322 317.073 110.791 317.655 110.393C318.247 109.995 318.911 109.694 319.646 109.489C320.187 109.347 321.003 109.209 322.096 109.076C324.321 108.811 325.959 108.494 327.011 108.127C327.021 107.749 327.026 107.509 327.026 107.407C327.026 106.284 326.766 105.493 326.245 105.034C325.541 104.411 324.494 104.1 323.106 104.1C321.81 104.1 320.85 104.329 320.228 104.789C319.615 105.238 319.161 106.039 318.865 107.193L316.17 106.825C316.415 105.672 316.818 104.743 317.38 104.039C317.941 103.324 318.753 102.778 319.814 102.4C320.876 102.012 322.106 101.818 323.504 101.818C324.892 101.818 326.02 101.982 326.888 102.308C327.756 102.635 328.394 103.048 328.802 103.549C329.21 104.039 329.496 104.661 329.659 105.417C329.751 105.886 329.797 106.733 329.797 107.958V111.633C329.797 114.195 329.853 115.818 329.966 116.502C330.088 117.176 330.323 117.824 330.67 118.447H327.791C327.506 117.875 327.322 117.207 327.24 116.441ZM327.011 110.286C326.01 110.694 324.51 111.041 322.509 111.327C321.376 111.49 320.575 111.674 320.105 111.878C319.635 112.082 319.273 112.383 319.018 112.781C318.763 113.169 318.635 113.603 318.635 114.083C318.635 114.818 318.911 115.43 319.462 115.92C320.023 116.41 320.84 116.655 321.912 116.655C322.973 116.655 323.918 116.426 324.744 115.966C325.571 115.497 326.179 114.859 326.567 114.052C326.863 113.43 327.011 112.511 327.011 111.296V110.286Z" fill="black"/>
<path d="M309.586 118.447V96H312.342V118.447H309.586Z" fill="black"/>
<path d="M302.849 118.446V116.058C301.583 117.895 299.863 118.814 297.689 118.814C296.729 118.814 295.831 118.63 294.994 118.263C294.167 117.895 293.55 117.436 293.141 116.885C292.743 116.323 292.463 115.639 292.299 114.833C292.187 114.292 292.131 113.434 292.131 112.261V102.186H294.887V111.204C294.887 112.643 294.943 113.613 295.055 114.113C295.229 114.838 295.596 115.41 296.158 115.828C296.719 116.236 297.413 116.441 298.24 116.441C299.067 116.441 299.843 116.231 300.568 115.813C301.292 115.384 301.803 114.807 302.099 114.083C302.405 113.348 302.558 112.286 302.558 110.898V102.186H305.314V118.446H302.849Z" fill="black"/>
<path d="M274.231 119.794L276.91 120.192C277.023 121.019 277.334 121.621 277.844 121.999C278.528 122.509 279.462 122.765 280.646 122.765C281.922 122.765 282.907 122.509 283.602 121.999C284.296 121.489 284.765 120.774 285.01 119.855C285.153 119.294 285.22 118.115 285.209 116.318C284.005 117.737 282.504 118.447 280.708 118.447C278.472 118.447 276.742 117.64 275.517 116.028C274.292 114.415 273.68 112.48 273.68 110.224C273.68 108.673 273.96 107.244 274.522 105.937C275.083 104.62 275.895 103.605 276.956 102.89C278.028 102.176 279.284 101.818 280.723 101.818C282.642 101.818 284.224 102.594 285.47 104.146V102.186H288.011V116.242C288.011 118.773 287.751 120.565 287.23 121.616C286.72 122.678 285.903 123.515 284.781 124.127C283.668 124.74 282.295 125.046 280.662 125.046C278.722 125.046 277.155 124.607 275.961 123.729C274.767 122.862 274.19 121.55 274.231 119.794ZM276.512 110.025C276.512 112.159 276.936 113.715 277.783 114.695C278.63 115.675 279.692 116.165 280.968 116.165C282.234 116.165 283.295 115.68 284.153 114.711C285.01 113.731 285.439 112.2 285.439 110.117C285.439 108.127 284.995 106.626 284.107 105.616C283.229 104.605 282.167 104.1 280.922 104.1C279.697 104.1 278.656 104.6 277.799 105.6C276.941 106.59 276.512 108.065 276.512 110.025Z" fill="black"/>
<path d="M268.412 113.21L271.26 113.562C270.81 115.226 269.978 116.517 268.764 117.436C267.549 118.355 265.997 118.814 264.109 118.814C261.731 118.814 259.842 118.084 258.444 116.625C257.055 115.155 256.361 113.098 256.361 110.454C256.361 107.718 257.066 105.595 258.474 104.084C259.883 102.574 261.71 101.818 263.956 101.818C266.13 101.818 267.906 102.558 269.284 104.039C270.662 105.519 271.351 107.601 271.351 110.286C271.351 110.449 271.346 110.694 271.336 111.021H259.209C259.311 112.807 259.817 114.175 260.725 115.124C261.634 116.073 262.767 116.548 264.124 116.548C265.135 116.548 265.997 116.283 266.712 115.752C267.427 115.221 267.993 114.374 268.412 113.21ZM259.362 108.755H268.442C268.32 107.387 267.973 106.361 267.401 105.677C266.523 104.615 265.385 104.084 263.987 104.084C262.721 104.084 261.654 104.508 260.786 105.355C259.929 106.203 259.454 107.336 259.362 108.755Z" fill="black"/>
<path d="M235.018 118.447V96H244.97C246.971 96 248.492 96.2042 249.533 96.6125C250.574 97.0106 251.406 97.72 252.029 98.7408C252.651 99.7616 252.963 100.89 252.963 102.125C252.963 103.717 252.447 105.059 251.416 106.152C250.385 107.244 248.793 107.938 246.639 108.234C247.425 108.612 248.022 108.984 248.431 109.352C249.298 110.148 250.12 111.143 250.896 112.337L254.8 118.447H251.064L248.094 113.777C247.226 112.429 246.511 111.398 245.95 110.684C245.389 109.969 244.883 109.469 244.434 109.183C243.995 108.897 243.546 108.698 243.087 108.586C242.75 108.515 242.199 108.479 241.433 108.479H237.988V118.447H235.018ZM237.988 105.907H244.373C245.731 105.907 246.792 105.769 247.558 105.493C248.323 105.207 248.905 104.758 249.303 104.146C249.701 103.523 249.9 102.849 249.9 102.125C249.9 101.063 249.513 100.19 248.737 99.5064C247.971 98.8224 246.756 98.4805 245.093 98.4805H237.988V105.907Z" fill="black"/>
<path d="M218.85 118.447V96H221.606V118.447H218.85Z" fill="black"/>
<path d="M212.066 116.441C211.046 117.309 210.061 117.921 209.111 118.278C208.172 118.636 207.162 118.814 206.08 118.814C204.293 118.814 202.92 118.38 201.961 117.513C201.001 116.635 200.521 115.517 200.521 114.16C200.521 113.363 200.7 112.639 201.057 111.985C201.425 111.322 201.9 110.791 202.481 110.393C203.073 109.995 203.737 109.694 204.472 109.489C205.013 109.347 205.83 109.209 206.922 109.076C209.147 108.811 210.785 108.494 211.837 108.127C211.847 107.749 211.852 107.509 211.852 107.407C211.852 106.284 211.592 105.493 211.071 105.034C210.367 104.411 209.321 104.1 207.932 104.1C206.636 104.1 205.676 104.329 205.054 104.789C204.441 105.238 203.987 106.039 203.691 107.193L200.996 106.825C201.241 105.672 201.644 104.743 202.206 104.039C202.767 103.324 203.579 102.778 204.64 102.4C205.702 102.012 206.932 101.818 208.33 101.818C209.719 101.818 210.847 101.982 211.714 102.308C212.582 102.635 213.22 103.048 213.628 103.549C214.037 104.039 214.322 104.661 214.486 105.417C214.578 105.886 214.623 106.733 214.623 107.958V111.633C214.623 114.195 214.68 115.818 214.792 116.502C214.914 117.176 215.149 117.824 215.496 118.447H212.618C212.332 117.875 212.148 117.207 212.066 116.441ZM211.837 110.286C210.836 110.694 209.336 111.041 207.335 111.327C206.202 111.49 205.401 111.674 204.931 111.878C204.462 112.082 204.099 112.383 203.844 112.781C203.589 113.169 203.461 113.603 203.461 114.083C203.461 114.818 203.737 115.43 204.288 115.92C204.85 116.41 205.666 116.655 206.738 116.655C207.8 116.655 208.744 116.426 209.571 115.966C210.397 115.497 211.005 114.859 211.393 114.052C211.689 113.43 211.837 112.511 211.837 111.296V110.286Z" fill="black"/>
<path d="M194.488 99.1695V96H197.244V99.1695H194.488ZM194.488 118.447V102.186H197.244V118.447H194.488Z" fill="black"/>
<path d="M184 118.447V102.186H186.48V104.651C187.113 103.498 187.695 102.737 188.226 102.37C188.767 102.002 189.359 101.818 190.002 101.818C190.931 101.818 191.875 102.114 192.835 102.706L191.885 105.263C191.212 104.865 190.538 104.666 189.864 104.666C189.262 104.666 188.721 104.85 188.241 105.218C187.762 105.575 187.42 106.075 187.215 106.718C186.909 107.698 186.756 108.77 186.756 109.934V118.447H184Z" fill="black"/>
<path d="M161.002 118.447L169.622 96H172.823L182.009 118.447H178.626L176.007 111.648H166.621L164.156 118.447H161.002ZM167.479 109.229H175.089L172.746 103.013C172.031 101.124 171.501 99.5727 171.154 98.358C170.868 99.7973 170.465 101.226 169.944 102.645L167.479 109.229Z" fill="black"/>
<path d="M144.617 111.71V108.938H153.085V111.71H144.617Z" fill="black"/>
<path d="M134.252 115.981L134.65 118.416C133.874 118.579 133.18 118.661 132.568 118.661C131.567 118.661 130.792 118.503 130.24 118.186C129.689 117.87 129.301 117.456 129.077 116.946C128.852 116.425 128.74 115.338 128.74 113.685V104.329H126.719V102.185H128.74V98.1585L131.481 96.5049V102.185H134.252V104.329H131.481V113.838C131.481 114.624 131.527 115.129 131.618 115.353C131.721 115.578 131.879 115.757 132.093 115.889C132.318 116.022 132.634 116.088 133.042 116.088C133.349 116.088 133.752 116.053 134.252 115.981Z" fill="black"/>
<path d="M110.719 118.446L116.66 109.994L111.163 102.186H114.608L117.104 105.998C117.573 106.723 117.951 107.33 118.237 107.82C118.686 107.147 119.099 106.549 119.477 106.029L122.218 102.186H125.51L119.89 109.841L125.938 118.446H122.555L119.217 113.394L118.329 112.031L114.057 118.446H110.719Z" fill="black"/>
<path d="M106.232 113.21L109.08 113.562C108.631 115.226 107.799 116.517 106.584 117.436C105.369 118.355 103.818 118.814 101.929 118.814C99.5509 118.814 97.6625 118.084 96.264 116.625C94.8758 115.155 94.1816 113.098 94.1816 110.454C94.1816 107.718 94.886 105.595 96.2946 104.084C97.7033 102.574 99.5305 101.818 101.776 101.818C103.95 101.818 105.727 102.558 107.105 104.039C108.483 105.519 109.172 107.601 109.172 110.286C109.172 110.449 109.167 110.694 109.156 111.021H97.0296C97.1317 112.807 97.637 114.175 98.5454 115.124C99.4539 116.073 100.587 116.548 101.945 116.548C102.955 116.548 103.818 116.283 104.532 115.752C105.247 115.221 105.813 114.374 106.232 113.21ZM97.1827 108.755H106.262C106.14 107.387 105.793 106.361 105.221 105.677C104.343 104.615 103.205 104.084 101.807 104.084C100.541 104.084 99.4744 104.508 98.6067 105.355C97.7492 106.203 97.2746 107.336 97.1827 108.755Z" fill="black"/>
<path d="M85.4853 118.447V98.6489H78.0898V96H95.8819V98.6489H88.4558V118.447H85.4853Z" fill="black"/>
<path d="M55.4744 124.709L55.1682 122.121C55.7705 122.285 56.2962 122.366 56.7453 122.366C57.3578 122.366 57.8477 122.264 58.2152 122.06C58.5827 121.856 58.8838 121.57 59.1186 121.203C59.2921 120.927 59.5729 120.243 59.9607 119.151C60.0118 118.998 60.0934 118.773 60.2057 118.477L54.0352 102.186H57.0056L60.3895 111.602C60.8284 112.796 61.2214 114.052 61.5685 115.369C61.8849 114.103 62.2626 112.868 62.7015 111.663L66.1773 102.186H68.9333L62.7475 118.722C62.084 120.508 61.5685 121.738 61.201 122.412C60.711 123.321 60.1496 123.984 59.5167 124.403C58.8838 124.831 58.1285 125.046 57.2506 125.046C56.7198 125.046 56.1277 124.933 55.4744 124.709Z" fill="black"/>
<path d="M48.6914 118.447V116.395C47.6605 118.008 46.1446 118.814 44.1439 118.814C42.8475 118.814 41.6532 118.457 40.561 117.742C39.479 117.028 38.6368 116.033 38.0346 114.757C37.4425 113.471 37.1465 111.996 37.1465 110.332C37.1465 108.709 37.417 107.239 37.958 105.922C38.499 104.595 39.3105 103.579 40.3925 102.875C41.4746 102.171 42.6842 101.818 44.0214 101.818C45.0013 101.818 45.8741 102.028 46.6397 102.446C47.4053 102.854 48.0279 103.39 48.5077 104.054V96H51.2485V118.447H48.6914ZM39.9791 110.332C39.9791 112.414 40.4181 113.971 41.2959 115.002C42.1738 116.033 43.2099 116.548 44.4042 116.548C45.6087 116.548 46.6295 116.058 47.4665 115.078C48.3137 114.088 48.7374 112.582 48.7374 110.561C48.7374 108.336 48.3086 106.703 47.4512 105.662C46.5937 104.62 45.5372 104.1 44.2817 104.1C43.0568 104.1 42.0309 104.6 41.2041 105.6C40.3874 106.601 39.9791 108.178 39.9791 110.332Z" fill="black"/>
<path d="M19.6602 110.316C19.6602 107.305 20.4972 105.075 22.1713 103.625C23.5697 102.421 25.2744 101.818 27.2853 101.818C29.5208 101.818 31.348 102.553 32.7669 104.023C34.1858 105.483 34.8952 107.504 34.8952 110.087C34.8952 112.179 34.5788 113.828 33.9459 115.032C33.3232 116.227 32.4096 117.155 31.2051 117.819C30.0108 118.482 28.7042 118.814 27.2853 118.814C25.009 118.814 23.1665 118.084 21.7578 116.625C20.3594 115.165 19.6602 113.062 19.6602 110.316ZM22.4928 110.316C22.4928 112.399 22.947 113.96 23.8555 115.002C24.764 116.033 25.9073 116.548 27.2853 116.548C28.6532 116.548 29.7913 116.028 30.6998 114.986C31.6083 113.945 32.0626 112.358 32.0626 110.224C32.0626 108.214 31.6032 106.693 30.6845 105.662C29.776 104.62 28.643 104.1 27.2853 104.1C25.9073 104.1 24.764 104.615 23.8555 105.646C22.947 106.677 22.4928 108.234 22.4928 110.316Z" fill="black"/>
<path d="M0 118.447V96H8.42138C10.1363 96 11.5092 96.2297 12.5402 96.689C13.5814 97.1382 14.3929 97.8374 14.9747 98.7867C15.5668 99.7258 15.8628 100.711 15.8628 101.742C15.8628 102.701 15.6025 103.605 15.0819 104.452C14.5613 105.299 13.7753 105.983 12.7239 106.504C14.0816 106.902 15.1228 107.581 15.8475 108.54C16.5825 109.5 16.9499 110.633 16.9499 111.939C16.9499 112.991 16.7254 113.971 16.2762 114.879C15.8373 115.777 15.2912 116.472 14.6379 116.962C13.9846 117.452 13.1629 117.824 12.1727 118.079C11.1928 118.324 9.98827 118.447 8.55919 118.447H0ZM2.97045 105.432H7.82423C9.14103 105.432 10.0852 105.345 10.6569 105.172C11.4122 104.947 11.9788 104.574 12.3565 104.054C12.7444 103.533 12.9383 102.88 12.9383 102.094C12.9383 101.349 12.7597 100.696 12.4024 100.134C12.0451 99.5625 11.5347 99.1746 10.8712 98.9705C10.2077 98.7561 9.06957 98.6489 7.45675 98.6489H2.97045V105.432ZM2.97045 115.798H8.55919C9.51871 115.798 10.1924 115.762 10.5803 115.691C11.2642 115.568 11.8359 115.364 12.2952 115.078C12.7546 114.792 13.1323 114.379 13.4283 113.838C13.7243 113.287 13.8723 112.654 13.8723 111.939C13.8723 111.102 13.6579 110.378 13.2292 109.765C12.8005 109.142 12.2033 108.709 11.4378 108.464C10.6824 108.208 9.59017 108.081 8.16108 108.081H2.97045V115.798Z" fill="black"/>
<path d="M236.06 167.348L238.709 167.103C238.933 168.348 239.362 169.252 239.995 169.813C240.628 170.375 241.439 170.655 242.43 170.655C243.277 170.655 244.017 170.461 244.65 170.074C245.293 169.686 245.818 169.17 246.227 168.527C246.635 167.874 246.977 166.996 247.253 165.893C247.528 164.791 247.666 163.668 247.666 162.525C247.666 162.402 247.661 162.219 247.651 161.974C247.1 162.852 246.344 163.566 245.385 164.117C244.435 164.658 243.404 164.929 242.292 164.929C240.434 164.929 238.862 164.255 237.576 162.908C236.29 161.56 235.646 159.784 235.646 157.579C235.646 155.303 236.315 153.471 237.652 152.082C239 150.694 240.684 150 242.705 150C244.165 150 245.497 150.393 246.701 151.179C247.916 151.965 248.835 153.088 249.458 154.548C250.09 155.997 250.407 158.1 250.407 160.856C250.407 163.724 250.096 166.011 249.473 167.716C248.85 169.41 247.921 170.701 246.686 171.589C245.461 172.477 244.022 172.921 242.368 172.921C240.613 172.921 239.178 172.437 238.066 171.467C236.953 170.487 236.284 169.114 236.06 167.348ZM247.345 157.441C247.345 155.859 246.921 154.604 246.074 153.675C245.237 152.746 244.226 152.281 243.042 152.281C241.817 152.281 240.75 152.782 239.842 153.782C238.933 154.782 238.479 156.079 238.479 157.671C238.479 159.1 238.908 160.264 239.765 161.162C240.633 162.05 241.7 162.494 242.965 162.494C244.241 162.494 245.288 162.05 246.104 161.162C246.931 160.264 247.345 159.024 247.345 157.441Z" fill="black"/>
<path d="M213.704 160.366C212.56 159.947 211.713 159.35 211.162 158.574C210.611 157.799 210.335 156.87 210.335 155.788C210.335 154.155 210.922 152.782 212.096 151.669C213.27 150.556 214.832 150 216.781 150C218.741 150 220.318 150.572 221.512 151.715C222.707 152.848 223.304 154.231 223.304 155.864C223.304 156.906 223.028 157.814 222.477 158.59C221.936 159.355 221.109 159.947 219.997 160.366C221.375 160.815 222.421 161.54 223.136 162.54C223.86 163.541 224.223 164.735 224.223 166.123C224.223 168.042 223.544 169.655 222.186 170.962C220.829 172.268 219.042 172.921 216.827 172.921C214.612 172.921 212.826 172.268 211.468 170.962C210.11 169.645 209.432 168.006 209.432 166.047C209.432 164.587 209.799 163.367 210.534 162.387C211.279 161.397 212.336 160.723 213.704 160.366ZM213.152 155.696C213.152 156.758 213.494 157.625 214.178 158.299C214.862 158.973 215.75 159.309 216.842 159.309C217.904 159.309 218.772 158.978 219.445 158.314C220.129 157.64 220.471 156.819 220.471 155.849C220.471 154.838 220.119 153.991 219.415 153.307C218.721 152.613 217.853 152.266 216.812 152.266C215.76 152.266 214.888 152.603 214.194 153.277C213.499 153.95 213.152 154.757 213.152 155.696ZM212.264 166.062C212.264 166.848 212.448 167.608 212.816 168.343C213.193 169.078 213.75 169.65 214.484 170.058C215.219 170.456 216.011 170.655 216.858 170.655C218.175 170.655 219.262 170.232 220.119 169.384C220.977 168.537 221.405 167.46 221.405 166.154C221.405 164.827 220.961 163.729 220.073 162.862C219.195 161.994 218.093 161.56 216.766 161.56C215.47 161.56 214.393 161.989 213.535 162.846C212.688 163.704 212.264 164.776 212.264 166.062Z" fill="black"/>
<path d="M183.463 153.032V150.383H197.994V152.526C196.565 154.047 195.146 156.069 193.737 158.59C192.339 161.111 191.256 163.704 190.491 166.368C189.94 168.246 189.588 170.303 189.434 172.539H186.602C186.632 170.773 186.979 168.639 187.643 166.138C188.306 163.638 189.256 161.229 190.491 158.911C191.736 156.584 193.058 154.624 194.457 153.032H183.463Z" fill="black"/>
<path d="M171.398 155.589L168.657 155.803C168.412 154.721 168.065 153.935 167.616 153.445C166.871 152.659 165.952 152.266 164.86 152.266C163.982 152.266 163.212 152.511 162.548 153.001C161.68 153.634 160.996 154.558 160.496 155.772C159.996 156.987 159.736 158.717 159.715 160.963C160.379 159.953 161.19 159.202 162.15 158.712C163.109 158.222 164.115 157.977 165.166 157.977C167.004 157.977 168.565 158.656 169.852 160.014C171.148 161.361 171.796 163.107 171.796 165.25C171.796 166.659 171.49 167.971 170.878 169.185C170.275 170.39 169.443 171.314 168.382 171.957C167.32 172.6 166.116 172.921 164.768 172.921C162.471 172.921 160.598 172.079 159.149 170.395C157.699 168.701 156.975 165.914 156.975 162.035C156.975 157.697 157.776 154.542 159.379 152.572C160.777 150.857 162.66 150 165.029 150C166.794 150 168.239 150.495 169.362 151.485C170.495 152.475 171.174 153.843 171.398 155.589ZM160.144 165.266C160.144 166.215 160.343 167.123 160.741 167.991C161.15 168.859 161.716 169.522 162.441 169.982C163.166 170.431 163.926 170.655 164.722 170.655C165.886 170.655 166.886 170.186 167.723 169.247C168.56 168.308 168.979 167.032 168.979 165.419C168.979 163.867 168.565 162.647 167.739 161.759C166.912 160.861 165.871 160.412 164.615 160.412C163.37 160.412 162.313 160.861 161.446 161.759C160.578 162.647 160.144 163.816 160.144 165.266Z" fill="black"/>
<path d="M130.914 166.659L133.808 166.414C134.022 167.823 134.517 168.885 135.293 169.599C136.079 170.304 137.023 170.656 138.126 170.656C139.453 170.656 140.576 170.156 141.494 169.155C142.413 168.155 142.872 166.828 142.872 165.174C142.872 163.602 142.428 162.362 141.54 161.453C140.662 160.545 139.509 160.091 138.08 160.091C137.192 160.091 136.391 160.295 135.676 160.703C134.961 161.101 134.4 161.622 133.992 162.265L131.404 161.928L133.578 150.398H144.74V153.032H135.783L134.574 159.065C135.921 158.126 137.335 157.656 138.815 157.656C140.775 157.656 142.428 158.335 143.776 159.693C145.123 161.05 145.797 162.796 145.797 164.929C145.797 166.96 145.205 168.716 144.021 170.196C142.582 172.013 140.617 172.922 138.126 172.922C136.084 172.922 134.415 172.35 133.119 171.207C131.833 170.064 131.098 168.548 130.914 166.659Z" fill="black"/>
<path d="M113.566 172.539V167.164H103.828V164.638L114.072 150.092H116.322V164.638H119.354V167.164H116.322V172.539H113.566ZM113.566 164.638V154.517L106.538 164.638H113.566Z" fill="black"/>
<path d="M78.5645 166.613L81.3205 166.246C81.637 167.807 82.1729 168.935 82.9283 169.629C83.6938 170.313 84.6227 170.655 85.715 170.655C87.0114 170.655 88.1036 170.206 88.9917 169.308C89.8899 168.41 90.3391 167.297 90.3391 165.97C90.3391 164.704 89.9257 163.663 89.0988 162.846C88.272 162.02 87.2206 161.606 85.9446 161.606C85.4241 161.606 84.7759 161.708 84.0001 161.912L84.3063 159.493C84.49 159.514 84.6381 159.524 84.7503 159.524C85.9242 159.524 86.9807 159.218 87.9198 158.605C88.859 157.993 89.3285 157.048 89.3285 155.772C89.3285 154.762 88.9866 153.925 88.3026 153.261C87.6187 152.598 86.7357 152.266 85.6537 152.266C84.5819 152.266 83.6887 152.603 82.9742 153.277C82.2597 153.95 81.8003 154.961 81.5962 156.308L78.8401 155.818C79.1769 153.971 79.9425 152.542 81.1368 151.531C82.3311 150.51 83.8163 150 85.5925 150C86.8174 150 87.9454 150.265 88.9763 150.796C90.0073 151.317 90.7933 152.031 91.3343 152.94C91.8855 153.848 92.1612 154.813 92.1612 155.834C92.1612 156.803 91.9009 157.686 91.3803 158.483C90.8597 159.279 90.089 159.912 89.0682 160.381C90.3952 160.687 91.4262 161.325 92.1612 162.295C92.8961 163.255 93.2636 164.459 93.2636 165.909C93.2636 167.869 92.5491 169.533 91.12 170.9C89.6909 172.258 87.8841 172.937 85.6997 172.937C83.7296 172.937 82.0912 172.35 80.7846 171.176C79.4883 170.002 78.7482 168.481 78.5645 166.613Z" fill="black"/>
<path d="M66.8492 169.89V172.539H52.0122C51.9918 171.875 52.099 171.237 52.3338 170.625C52.7114 169.614 53.3137 168.619 54.1405 167.639C54.9776 166.659 56.1821 165.526 57.7541 164.24C60.1937 162.239 61.8423 160.657 62.6997 159.493C63.5572 158.319 63.9859 157.212 63.9859 156.171C63.9859 155.078 63.5929 154.16 62.8069 153.414C62.0311 152.659 61.0154 152.281 59.7599 152.281C58.4329 152.281 57.3713 152.68 56.5751 153.476C55.7789 154.272 55.3757 155.374 55.3655 156.783L52.5328 156.492C52.7268 154.379 53.4566 152.771 54.7224 151.669C55.9881 150.556 57.6877 150 59.8211 150C61.975 150 63.6797 150.597 64.9352 151.791C66.1908 152.986 66.8185 154.466 66.8185 156.232C66.8185 157.13 66.6348 158.013 66.2673 158.881C65.8998 159.748 65.2874 160.662 64.4299 161.622C63.5827 162.581 62.1689 163.898 60.1886 165.572C58.535 166.96 57.4734 167.904 57.0038 168.405C56.5342 168.895 56.1463 169.39 55.8401 169.89H66.8492Z" fill="black"/>
<path d="M36.5632 172.539H33.8071V154.976C33.1436 155.609 32.2708 156.242 31.1888 156.875C30.117 157.508 29.1524 157.982 28.2949 158.299V155.635C29.8363 154.91 31.1837 154.032 32.3372 153.001C33.4907 151.97 34.3073 150.97 34.787 150H36.5632V172.539Z" fill="black"/>
<path d="M0 161.468C0 158.814 0.270505 156.681 0.811515 155.068C1.36273 153.445 2.17425 152.195 3.24606 151.317C4.32808 150.439 5.68571 150 7.31895 150C8.52346 150 9.57996 150.245 10.4884 150.735C11.3969 151.215 12.1472 151.914 12.7393 152.833C13.3313 153.741 13.7958 154.854 14.1326 156.171C14.4695 157.477 14.6379 159.243 14.6379 161.468C14.6379 164.102 14.3674 166.23 13.8264 167.853C13.2854 169.466 12.4739 170.717 11.3918 171.605C10.32 172.483 8.96239 172.921 7.31895 172.921C5.15491 172.921 3.45532 172.146 2.22018 170.594C0.740061 168.726 0 165.684 0 161.468ZM2.83265 161.468C2.83265 165.153 3.26137 167.608 4.11882 168.833C4.98648 170.048 6.05319 170.655 7.31895 170.655C8.58471 170.655 9.64631 170.043 10.5038 168.818C11.3714 167.593 11.8052 165.143 11.8052 161.468C11.8052 157.773 11.3714 155.318 10.5038 154.104C9.64631 152.889 8.5745 152.281 7.28832 152.281C6.02256 152.281 5.012 152.817 4.25663 153.889C3.30731 155.257 2.83265 157.783 2.83265 161.468Z" fill="black"/>
</svg>
