<svg width="527" height="68" viewBox="0 0 527 68" fill="none" xmlns="http://www.w3.org/2000/svg">
<rect width="25" height="68" fill="#4AA045"/>
<path d="M54.1792 22.5V11.7627H58.9399C59.897 11.7627 60.6245 11.8604 61.1226 12.0557C61.6206 12.2461 62.0186 12.5854 62.3164 13.0737C62.6143 13.562 62.7632 14.1016 62.7632 14.6924C62.7632 15.4541 62.5166 16.0962 62.0234 16.6187C61.5303 17.1411 60.7686 17.4731 59.7383 17.6147C60.1143 17.7954 60.3999 17.9736 60.5952 18.1494C61.0103 18.5303 61.4033 19.0063 61.7744 19.5776L63.6421 22.5H61.855L60.4341 20.2661C60.019 19.6216 59.6772 19.1284 59.4087 18.7866C59.1401 18.4448 58.8984 18.2056 58.6836 18.0688C58.4736 17.9321 58.2588 17.8369 58.0391 17.7832C57.8779 17.749 57.6143 17.7319 57.248 17.7319H55.6001V22.5H54.1792ZM55.6001 16.5015H58.6543C59.3037 16.5015 59.8115 16.4355 60.1777 16.3037C60.5439 16.167 60.8223 15.9521 61.0127 15.6592C61.2031 15.3613 61.2983 15.0391 61.2983 14.6924C61.2983 14.1846 61.1128 13.7671 60.7417 13.4399C60.3755 13.1128 59.7944 12.9492 58.9985 12.9492H55.6001V16.5015ZM70.3215 18.2886V17.0288L74.8698 17.0215V21.0059C74.1716 21.5625 73.4514 21.9824 72.7092 22.2656C71.967 22.5439 71.2053 22.6831 70.424 22.6831C69.3693 22.6831 68.4099 22.4585 67.5456 22.0093C66.6862 21.5552 66.0368 20.9009 65.5974 20.0464C65.1579 19.1919 64.9382 18.2373 64.9382 17.1826C64.9382 16.1377 65.1555 15.1636 65.59 14.2603C66.0295 13.3521 66.6594 12.6782 67.4797 12.2388C68.3 11.7993 69.2448 11.5796 70.3142 11.5796C71.0905 11.5796 71.7912 11.7065 72.4162 11.9604C73.0461 12.2095 73.5393 12.5586 73.8957 13.0078C74.2521 13.457 74.5231 14.043 74.7087 14.7656L73.427 15.1172C73.2658 14.5703 73.0656 14.1406 72.8264 13.8281C72.5871 13.5156 72.2453 13.2666 71.801 13.0811C71.3566 12.8906 70.8635 12.7954 70.3215 12.7954C69.6721 12.7954 69.1105 12.8955 68.6369 13.0957C68.1633 13.291 67.78 13.5498 67.487 13.8721C67.1989 14.1943 66.9743 14.5483 66.8132 14.9341C66.5397 15.5981 66.403 16.3184 66.403 17.0947C66.403 18.0518 66.5666 18.8525 66.8938 19.4971C67.2258 20.1416 67.7067 20.6201 68.3366 20.9326C68.9665 21.2451 69.6354 21.4014 70.3435 21.4014C70.9587 21.4014 71.5593 21.2842 72.1452 21.0498C72.7312 20.8105 73.1755 20.5566 73.4782 20.2881V18.2886H70.3215ZM77.2133 22.5V11.7627H81.2416C82.0619 11.7627 82.7187 11.8726 83.2118 12.0923C83.7099 12.3071 84.098 12.6416 84.3764 13.0957C84.6596 13.5449 84.8012 14.0161 84.8012 14.5093C84.8012 14.9683 84.6767 15.4004 84.4276 15.8057C84.1786 16.2109 83.8026 16.5381 83.2997 16.7871C83.9491 16.9775 84.4472 17.3022 84.7938 17.7612C85.1454 18.2202 85.3212 18.7622 85.3212 19.3872C85.3212 19.8901 85.2138 20.3589 84.9989 20.7935C84.789 21.2231 84.5277 21.5552 84.2152 21.7896C83.9027 22.0239 83.5097 22.2021 83.036 22.3242C82.5673 22.4414 81.9911 22.5 81.3075 22.5H77.2133ZM78.6342 16.2744H80.956C81.5858 16.2744 82.0375 16.2329 82.3109 16.1499C82.6723 16.0425 82.9433 15.8643 83.1239 15.6152C83.3095 15.3662 83.4022 15.0537 83.4022 14.6777C83.4022 14.3213 83.3168 14.0088 83.1459 13.7402C82.975 13.4668 82.7309 13.2812 82.4135 13.1836C82.0961 13.0811 81.5517 13.0298 80.7802 13.0298H78.6342V16.2744ZM78.6342 21.2329H81.3075C81.7665 21.2329 82.0888 21.2158 82.2743 21.1816C82.6015 21.123 82.8749 21.0254 83.0946 20.8887C83.3144 20.752 83.495 20.5542 83.6366 20.2954C83.7782 20.0317 83.849 19.729 83.849 19.3872C83.849 18.9868 83.7465 18.6401 83.5414 18.3472C83.3363 18.0493 83.0507 17.8418 82.6845 17.7246C82.3231 17.6025 81.8007 17.5415 81.1171 17.5415H78.6342V21.2329ZM94.4026 25.6567C93.6751 24.7388 93.0599 23.6646 92.5569 22.4341C92.054 21.2036 91.8025 19.9292 91.8025 18.6108C91.8025 17.4487 91.9905 16.3354 92.3665 15.271C92.806 14.0356 93.4847 12.8052 94.4026 11.5796H95.3475C94.7566 12.5952 94.366 13.3203 94.1756 13.7549C93.8777 14.4287 93.6434 15.1318 93.4725 15.8643C93.2625 16.7773 93.1575 17.6953 93.1575 18.6182C93.1575 20.9668 93.8875 23.313 95.3475 25.6567H94.4026ZM98.6138 22.5L96.2334 14.7217H97.5957L98.8335 19.2114L99.2949 20.8813C99.3145 20.7983 99.4487 20.2637 99.6978 19.2773L100.936 14.7217H102.291L103.455 19.2334L103.843 20.7202L104.29 19.2188L105.623 14.7217H106.905L104.473 22.5H103.104L101.866 17.8418L101.565 16.5161L99.9907 22.5H98.6138ZM113.643 19.9951L115.005 20.1636C114.79 20.9595 114.392 21.5771 113.811 22.0166C113.23 22.4561 112.488 22.6758 111.585 22.6758C110.447 22.6758 109.544 22.3267 108.875 21.6284C108.211 20.9253 107.879 19.9414 107.879 18.6768C107.879 17.3682 108.216 16.3525 108.889 15.6299C109.563 14.9072 110.437 14.5459 111.511 14.5459C112.551 14.5459 113.401 14.8999 114.06 15.6079C114.719 16.3159 115.049 17.312 115.049 18.5962C115.049 18.6743 115.047 18.7915 115.042 18.9478H109.241C109.29 19.8022 109.531 20.4565 109.966 20.9106C110.401 21.3647 110.943 21.5918 111.592 21.5918C112.075 21.5918 112.488 21.4648 112.83 21.2109C113.172 20.957 113.443 20.5518 113.643 19.9951ZM109.314 17.8638H113.657C113.599 17.2095 113.433 16.7188 113.159 16.3916C112.739 15.8838 112.195 15.6299 111.526 15.6299C110.921 15.6299 110.41 15.8325 109.995 16.2378C109.585 16.6431 109.358 17.1851 109.314 17.8638ZM118.183 22.5H116.96V11.7627H118.279V15.5933C118.835 14.895 119.546 14.5459 120.41 14.5459C120.889 14.5459 121.34 14.6436 121.765 14.8389C122.195 15.0293 122.546 15.3003 122.82 15.6519C123.098 15.9985 123.315 16.4185 123.472 16.9116C123.628 17.4048 123.706 17.9321 123.706 18.4937C123.706 19.8267 123.376 20.8569 122.717 21.5845C122.058 22.312 121.267 22.6758 120.344 22.6758C119.426 22.6758 118.706 22.2925 118.183 21.5259V22.5ZM118.169 18.5522C118.169 19.4849 118.296 20.1587 118.55 20.5737C118.965 21.2524 119.526 21.5918 120.234 21.5918C120.81 21.5918 121.308 21.3428 121.728 20.8447C122.148 20.3418 122.358 19.5947 122.358 18.6035C122.358 17.5879 122.156 16.8384 121.75 16.355C121.35 15.8716 120.864 15.6299 120.293 15.6299C119.717 15.6299 119.219 15.8813 118.799 16.3843C118.379 16.8823 118.169 17.605 118.169 18.5522ZM126.482 25.6567H125.537C126.997 23.313 127.727 20.9668 127.727 18.6182C127.727 17.7002 127.622 16.7896 127.412 15.8862C127.246 15.1538 127.014 14.4507 126.716 13.7769C126.525 13.3374 126.132 12.605 125.537 11.5796H126.482C127.4 12.8052 128.078 14.0356 128.518 15.271C128.894 16.3354 129.082 17.4487 129.082 18.6108C129.082 19.9292 128.828 21.2036 128.32 22.4341C127.817 23.6646 127.204 24.7388 126.482 25.6567ZM131.279 16.2231V14.7217H132.78V16.2231H131.279ZM131.279 22.5V20.9985H132.78V22.5H131.279ZM139.584 13.1689V11.9019H146.534V12.9272C145.851 13.6548 145.172 14.6216 144.498 15.8276C143.829 17.0337 143.312 18.2739 142.946 19.5483C142.682 20.4468 142.513 21.4307 142.44 22.5H141.085C141.1 21.6553 141.266 20.6348 141.583 19.4385C141.901 18.2422 142.355 17.0898 142.946 15.9814C143.541 14.8682 144.174 13.9307 144.842 13.1689H139.584ZM154.986 14.3921L153.675 14.4946C153.558 13.9771 153.392 13.6011 153.177 13.3667C152.821 12.9907 152.381 12.8027 151.859 12.8027C151.439 12.8027 151.07 12.9199 150.753 13.1543C150.338 13.457 150.011 13.8989 149.771 14.48C149.532 15.061 149.408 15.8887 149.398 16.9629C149.715 16.4795 150.103 16.1206 150.562 15.8862C151.021 15.6519 151.502 15.5347 152.005 15.5347C152.884 15.5347 153.631 15.8594 154.246 16.5088C154.867 17.1533 155.177 17.9883 155.177 19.0137C155.177 19.6875 155.03 20.3149 154.737 20.896C154.449 21.4722 154.051 21.9141 153.543 22.2217C153.036 22.5293 152.459 22.6831 151.815 22.6831C150.716 22.6831 149.82 22.2803 149.127 21.4746C148.433 20.6641 148.087 19.3311 148.087 17.4756C148.087 15.4004 148.47 13.8916 149.237 12.9492C149.906 12.1289 150.807 11.7188 151.939 11.7188C152.784 11.7188 153.475 11.9556 154.012 12.4292C154.554 12.9028 154.879 13.5571 154.986 14.3921ZM149.603 19.021C149.603 19.4751 149.698 19.9097 149.889 20.3247C150.084 20.7397 150.355 21.0571 150.702 21.2769C151.048 21.4917 151.412 21.5991 151.793 21.5991C152.35 21.5991 152.828 21.3745 153.228 20.9253C153.629 20.4761 153.829 19.8657 153.829 19.0942C153.829 18.3521 153.631 17.7686 153.236 17.3438C152.84 16.9141 152.342 16.6992 151.742 16.6992C151.146 16.6992 150.641 16.9141 150.225 17.3438C149.81 17.7686 149.603 18.3276 149.603 19.021ZM157.505 22.5V20.9985H159.007V22.5C159.007 23.0518 158.909 23.4961 158.714 23.833C158.519 24.1748 158.209 24.4385 157.784 24.624L157.418 24.0601C157.696 23.938 157.901 23.7573 158.033 23.5181C158.165 23.2837 158.238 22.9443 158.253 22.5H157.505ZM170.71 22.5H169.392V14.0991C169.075 14.4019 168.657 14.7046 168.14 15.0073C167.627 15.3101 167.166 15.5371 166.755 15.6885V14.4141C167.493 14.0674 168.137 13.6475 168.689 13.1543C169.241 12.6611 169.631 12.1826 169.861 11.7188H170.71V22.5ZM181.235 14.3921L179.924 14.4946C179.807 13.9771 179.641 13.6011 179.426 13.3667C179.07 12.9907 178.63 12.8027 178.108 12.8027C177.688 12.8027 177.319 12.9199 177.002 13.1543C176.587 13.457 176.259 13.8989 176.02 14.48C175.781 15.061 175.656 15.8887 175.647 16.9629C175.964 16.4795 176.352 16.1206 176.811 15.8862C177.27 15.6519 177.751 15.5347 178.254 15.5347C179.133 15.5347 179.88 15.8594 180.495 16.5088C181.115 17.1533 181.425 17.9883 181.425 19.0137C181.425 19.6875 181.279 20.3149 180.986 20.896C180.698 21.4722 180.3 21.9141 179.792 22.2217C179.284 22.5293 178.708 22.6831 178.064 22.6831C176.965 22.6831 176.069 22.2803 175.376 21.4746C174.682 20.6641 174.336 19.3311 174.336 17.4756C174.336 15.4004 174.719 13.8916 175.486 12.9492C176.154 12.1289 177.055 11.7188 178.188 11.7188C179.033 11.7188 179.724 11.9556 180.261 12.4292C180.803 12.9028 181.128 13.5571 181.235 14.3921ZM175.852 19.021C175.852 19.4751 175.947 19.9097 176.137 20.3247C176.333 20.7397 176.604 21.0571 176.95 21.2769C177.297 21.4917 177.661 21.5991 178.042 21.5991C178.598 21.5991 179.077 21.3745 179.477 20.9253C179.878 20.4761 180.078 19.8657 180.078 19.0942C180.078 18.3521 179.88 17.7686 179.485 17.3438C179.089 16.9141 178.591 16.6992 177.99 16.6992C177.395 16.6992 176.889 16.9141 176.474 17.3438C176.059 17.7686 175.852 18.3276 175.852 19.021ZM183.044 17.2046C183.044 15.9351 183.173 14.9146 183.432 14.1431C183.696 13.3667 184.084 12.7686 184.597 12.3486C185.114 11.9287 185.764 11.7188 186.545 11.7188C187.121 11.7188 187.626 11.8359 188.061 12.0703C188.496 12.2998 188.854 12.6343 189.138 13.0737C189.421 13.5083 189.643 14.0405 189.804 14.6704C189.965 15.2954 190.046 16.1401 190.046 17.2046C190.046 18.4644 189.916 19.4824 189.658 20.2588C189.399 21.0303 189.011 21.6284 188.493 22.0532C187.98 22.4731 187.331 22.6831 186.545 22.6831C185.51 22.6831 184.697 22.312 184.106 21.5698C183.398 20.6763 183.044 19.2212 183.044 17.2046ZM184.399 17.2046C184.399 18.9673 184.604 20.1416 185.014 20.7275C185.429 21.3086 185.939 21.5991 186.545 21.5991C187.15 21.5991 187.658 21.3062 188.068 20.7202C188.483 20.1343 188.691 18.9624 188.691 17.2046C188.691 15.437 188.483 14.2627 188.068 13.6816C187.658 13.1006 187.145 12.8101 186.53 12.8101C185.925 12.8101 185.441 13.0664 185.08 13.5791C184.626 14.2334 184.399 15.4419 184.399 17.2046ZM192.404 22.5V20.9985H193.905V22.5C193.905 23.0518 193.808 23.4961 193.612 23.833C193.417 24.1748 193.107 24.4385 192.682 24.624L192.316 24.0601C192.594 23.938 192.799 23.7573 192.931 23.5181C193.063 23.2837 193.136 22.9443 193.151 22.5H192.404ZM207.484 14.3921L206.173 14.4946C206.056 13.9771 205.89 13.6011 205.675 13.3667C205.318 12.9907 204.879 12.8027 204.356 12.8027C203.937 12.8027 203.568 12.9199 203.25 13.1543C202.835 13.457 202.508 13.8989 202.269 14.48C202.03 15.061 201.905 15.8887 201.896 16.9629C202.213 16.4795 202.601 16.1206 203.06 15.8862C203.519 15.6519 204 15.5347 204.503 15.5347C205.382 15.5347 206.129 15.8594 206.744 16.5088C207.364 17.1533 207.674 17.9883 207.674 19.0137C207.674 19.6875 207.528 20.3149 207.235 20.896C206.947 21.4722 206.549 21.9141 206.041 22.2217C205.533 22.5293 204.957 22.6831 204.312 22.6831C203.214 22.6831 202.318 22.2803 201.625 21.4746C200.931 20.6641 200.584 19.3311 200.584 17.4756C200.584 15.4004 200.968 13.8916 201.734 12.9492C202.403 12.1289 203.304 11.7188 204.437 11.7188C205.282 11.7188 205.973 11.9556 206.51 12.4292C207.052 12.9028 207.376 13.5571 207.484 14.3921ZM202.101 19.021C202.101 19.4751 202.196 19.9097 202.386 20.3247C202.582 20.7397 202.853 21.0571 203.199 21.2769C203.546 21.4917 203.91 21.5991 204.291 21.5991C204.847 21.5991 205.326 21.3745 205.726 20.9253C206.126 20.4761 206.327 19.8657 206.327 19.0942C206.327 18.3521 206.129 17.7686 205.733 17.3438C205.338 16.9141 204.84 16.6992 204.239 16.6992C203.644 16.6992 203.138 16.9141 202.723 17.3438C202.308 17.7686 202.101 18.3276 202.101 19.021ZM209.49 20.0171L210.758 19.8999C210.865 20.4956 211.07 20.9277 211.373 21.1963C211.675 21.4648 212.064 21.5991 212.537 21.5991C212.943 21.5991 213.297 21.5063 213.599 21.3208C213.907 21.1353 214.158 20.8887 214.354 20.5811C214.549 20.2686 214.713 19.8486 214.844 19.3213C214.976 18.7939 215.042 18.2568 215.042 17.71C215.042 17.6514 215.04 17.5635 215.035 17.4463C214.771 17.8662 214.41 18.208 213.951 18.4717C213.497 18.7305 213.004 18.8599 212.471 18.8599C211.583 18.8599 210.831 18.5376 210.216 17.8931C209.6 17.2485 209.293 16.3989 209.293 15.3442C209.293 14.2554 209.613 13.3789 210.252 12.7148C210.897 12.0508 211.702 11.7188 212.669 11.7188C213.367 11.7188 214.005 11.9067 214.581 12.2827C215.162 12.6587 215.601 13.1958 215.899 13.894C216.202 14.5874 216.353 15.5933 216.353 16.9116C216.353 18.2837 216.204 19.3774 215.906 20.1929C215.609 21.0034 215.164 21.6211 214.573 22.0459C213.988 22.4707 213.299 22.6831 212.508 22.6831C211.668 22.6831 210.982 22.4512 210.45 21.9873C209.918 21.5186 209.598 20.8618 209.49 20.0171ZM214.888 15.2783C214.888 14.5215 214.686 13.9209 214.28 13.4766C213.88 13.0322 213.397 12.8101 212.83 12.8101C212.244 12.8101 211.734 13.0493 211.3 13.5278C210.865 14.0063 210.648 14.6265 210.648 15.3882C210.648 16.0718 210.853 16.6284 211.263 17.0581C211.678 17.4829 212.188 17.6953 212.794 17.6953C213.404 17.6953 213.904 17.4829 214.295 17.0581C214.691 16.6284 214.888 16.0352 214.888 15.2783ZM61.8184 35.7354L63.2393 36.0942C62.9414 37.2612 62.4043 38.1523 61.6279 38.7676C60.8564 39.3779 59.9116 39.6831 58.7935 39.6831C57.6362 39.6831 56.6938 39.4487 55.9663 38.98C55.2437 38.5063 54.6919 37.8228 54.311 36.9292C53.9351 36.0356 53.7471 35.0762 53.7471 34.0508C53.7471 32.9326 53.9595 31.9585 54.3843 31.1284C54.814 30.2935 55.4219 29.6611 56.208 29.2314C56.999 28.7969 57.8682 28.5796 58.8154 28.5796C59.8896 28.5796 60.793 28.853 61.5254 29.3999C62.2578 29.9468 62.7681 30.7158 63.0562 31.707L61.6572 32.0366C61.4082 31.2554 61.0469 30.6865 60.5732 30.3301C60.0996 29.9736 59.5039 29.7954 58.7861 29.7954C57.9609 29.7954 57.27 29.9932 56.7134 30.3887C56.1616 30.7842 55.7734 31.3164 55.5488 31.9854C55.3242 32.6494 55.2119 33.3354 55.2119 34.0435C55.2119 34.9565 55.3438 35.7549 55.6074 36.4385C55.876 37.1172 56.291 37.625 56.8525 37.9619C57.4141 38.2988 58.022 38.4673 58.6763 38.4673C59.4722 38.4673 60.146 38.2378 60.6978 37.7788C61.2495 37.3198 61.623 36.6387 61.8184 35.7354ZM65.2531 39.5V28.7627H67.3918L69.9333 36.3652C70.1677 37.0732 70.3386 37.603 70.446 37.9546C70.5681 37.564 70.7585 36.9902 71.0173 36.2334L73.5881 28.7627H75.4997V39.5H74.1301V30.5132L71.01 39.5H69.7282L66.6228 30.3594V39.5H65.2531ZM81.1171 39.5V34.9517L76.9789 28.7627H78.7074L80.8241 32C81.2147 32.6055 81.5785 33.2109 81.9154 33.8164C82.2377 33.2549 82.6283 32.6226 83.0873 31.9194L85.1674 28.7627H86.8227L82.538 34.9517V39.5H81.1171ZM88.3385 39.5V28.7627H89.7594V34.0874L95.0914 28.7627H97.0177L92.5133 33.1133L97.2154 39.5H95.3404L91.5172 34.0654L89.7594 35.7793V39.5H88.3385ZM105.528 42.6567C104.8 41.7388 104.185 40.6646 103.682 39.4341C103.179 38.2036 102.928 36.9292 102.928 35.6108C102.928 34.4487 103.116 33.3354 103.492 32.271C103.931 31.0356 104.61 29.8052 105.528 28.5796H106.473C105.882 29.5952 105.491 30.3203 105.301 30.7549C105.003 31.4287 104.769 32.1318 104.598 32.8643C104.388 33.7773 104.283 34.6953 104.283 35.6182C104.283 37.9668 105.013 40.313 106.473 42.6567H105.528ZM108.303 42.481V31.7217H109.505V32.7324C109.788 32.3369 110.108 32.0415 110.464 31.8462C110.821 31.646 111.253 31.5459 111.76 31.5459C112.425 31.5459 113.01 31.7168 113.518 32.0586C114.026 32.4004 114.409 32.8838 114.668 33.5088C114.927 34.1289 115.056 34.8101 115.056 35.5522C115.056 36.3481 114.912 37.0659 114.624 37.7056C114.341 38.3403 113.926 38.8286 113.379 39.1704C112.837 39.5073 112.266 39.6758 111.665 39.6758C111.226 39.6758 110.83 39.583 110.479 39.3975C110.132 39.2119 109.846 38.9775 109.622 38.6943V42.481H108.303ZM109.497 35.6548C109.497 36.6558 109.7 37.3955 110.105 37.874C110.51 38.3525 111.001 38.5918 111.577 38.5918C112.163 38.5918 112.664 38.3452 113.079 37.8521C113.499 37.354 113.709 36.585 113.709 35.5449C113.709 34.5537 113.504 33.8115 113.093 33.3184C112.688 32.8252 112.202 32.5786 111.636 32.5786C111.074 32.5786 110.576 32.8423 110.142 33.3696C109.712 33.8921 109.497 34.6538 109.497 35.6548ZM116.938 39.5V31.7217H118.125V32.9009C118.428 32.3491 118.706 31.9854 118.96 31.8096C119.219 31.6338 119.502 31.5459 119.809 31.5459C120.254 31.5459 120.705 31.6875 121.164 31.9707L120.71 33.1938C120.388 33.0034 120.066 32.9082 119.744 32.9082C119.455 32.9082 119.197 32.9961 118.967 33.1719C118.738 33.3428 118.574 33.582 118.476 33.8896C118.33 34.3584 118.257 34.8711 118.257 35.4277V39.5H116.938ZM122.255 30.2788V28.7627H123.574V30.2788H122.255ZM122.255 39.5V31.7217H123.574V39.5H122.255ZM125.888 39.5V31.7217H127.075V32.8276C127.646 31.9731 128.471 31.5459 129.55 31.5459C130.019 31.5459 130.449 31.6313 130.839 31.8022C131.235 31.9683 131.53 32.188 131.725 32.4614C131.921 32.7349 132.057 33.0596 132.136 33.4355C132.184 33.6797 132.209 34.1069 132.209 34.7173V39.5H130.89V34.7686C130.89 34.2314 130.839 33.8311 130.737 33.5674C130.634 33.2988 130.451 33.0864 130.187 32.9302C129.929 32.769 129.623 32.6885 129.272 32.6885C128.71 32.6885 128.224 32.8667 127.814 33.2231C127.409 33.5796 127.206 34.2559 127.206 35.252V39.5H125.888ZM137.416 38.3208L137.606 39.4854C137.235 39.5635 136.903 39.6025 136.61 39.6025C136.132 39.6025 135.761 39.5269 135.497 39.3755C135.233 39.2241 135.048 39.0264 134.94 38.7822C134.833 38.5332 134.779 38.0132 134.779 37.2222V32.7471H133.812V31.7217H134.779V29.7954L136.09 29.0044V31.7217H137.416V32.7471H136.09V37.2954C136.09 37.6714 136.112 37.9131 136.156 38.0205C136.205 38.1279 136.281 38.2134 136.383 38.2769C136.491 38.3403 136.642 38.3721 136.837 38.3721C136.984 38.3721 137.177 38.355 137.416 38.3208ZM139.877 42.6567H138.932C140.392 40.313 141.122 37.9668 141.122 35.6182C141.122 34.7002 141.017 33.7896 140.807 32.8862C140.641 32.1538 140.409 31.4507 140.111 30.7769C139.921 30.3374 139.528 29.605 138.932 28.5796H139.877C140.795 29.8052 141.473 31.0356 141.913 32.271C142.289 33.3354 142.477 34.4487 142.477 35.6108C142.477 36.9292 142.223 38.2036 141.715 39.4341C141.212 40.6646 140.599 41.7388 139.877 42.6567ZM144.674 33.2231V31.7217H146.175V33.2231H144.674ZM144.674 39.5V37.9985H146.175V39.5H144.674ZM152.979 30.1689V28.9019H159.929V29.9272C159.246 30.6548 158.567 31.6216 157.893 32.8276C157.224 34.0337 156.707 35.2739 156.341 36.5483C156.077 37.4468 155.908 38.4307 155.835 39.5H154.48C154.495 38.6553 154.661 37.6348 154.978 36.4385C155.296 35.2422 155.75 34.0898 156.341 32.9814C156.936 31.8682 157.569 30.9307 158.238 30.1689H152.979ZM161.548 36.6655L162.866 36.4897C163.018 37.2368 163.274 37.7764 163.635 38.1084C164.001 38.4355 164.446 38.5991 164.968 38.5991C165.588 38.5991 166.111 38.3843 166.536 37.9546C166.965 37.5249 167.18 36.9927 167.18 36.3579C167.18 35.7524 166.982 35.2544 166.587 34.8638C166.191 34.4683 165.688 34.2705 165.078 34.2705C164.829 34.2705 164.519 34.3193 164.148 34.417L164.294 33.2598C164.382 33.2695 164.453 33.2744 164.507 33.2744C165.068 33.2744 165.574 33.1279 166.023 32.835C166.472 32.542 166.697 32.0903 166.697 31.48C166.697 30.9966 166.533 30.5962 166.206 30.2788C165.879 29.9614 165.457 29.8027 164.939 29.8027C164.426 29.8027 163.999 29.9639 163.657 30.2861C163.315 30.6084 163.096 31.0918 162.998 31.7363L161.68 31.502C161.841 30.6182 162.207 29.9346 162.778 29.4512C163.35 28.9629 164.06 28.7188 164.91 28.7188C165.496 28.7188 166.035 28.8457 166.528 29.0996C167.021 29.3486 167.397 29.6904 167.656 30.125C167.92 30.5596 168.052 31.021 168.052 31.5093C168.052 31.9731 167.927 32.3955 167.678 32.7764C167.429 33.1572 167.061 33.46 166.572 33.6846C167.207 33.8311 167.7 34.1362 168.052 34.6001C168.403 35.0591 168.579 35.6353 168.579 36.3286C168.579 37.2661 168.237 38.062 167.554 38.7163C166.87 39.3657 166.006 39.6904 164.961 39.6904C164.019 39.6904 163.235 39.4097 162.61 38.8481C161.99 38.2866 161.636 37.5591 161.548 36.6655ZM170.901 39.5V37.9985H172.402V39.5C172.402 40.0518 172.304 40.4961 172.109 40.833C171.914 41.1748 171.604 41.4385 171.179 41.624L170.813 41.0601C171.091 40.938 171.296 40.7573 171.428 40.5181C171.56 40.2837 171.633 39.9443 171.648 39.5H170.901ZM184.106 39.5H182.787V31.0991C182.47 31.4019 182.052 31.7046 181.535 32.0073C181.022 32.3101 180.561 32.5371 180.15 32.6885V31.4141C180.888 31.0674 181.532 30.6475 182.084 30.1543C182.636 29.6611 183.026 29.1826 183.256 28.7188H184.106V39.5ZM191.642 39.5H190.324V31.0991C190.006 31.4019 189.589 31.7046 189.071 32.0073C188.558 32.3101 188.097 32.5371 187.687 32.6885V31.4141C188.424 31.0674 189.069 30.6475 189.62 30.1543C190.172 29.6611 190.563 29.1826 190.792 28.7188H191.642V39.5ZM196.036 39.5V37.9985H197.538V39.5C197.538 40.0518 197.44 40.4961 197.245 40.833C197.049 41.1748 196.739 41.4385 196.314 41.624L195.948 41.0601C196.227 40.938 196.432 40.7573 196.563 40.5181C196.695 40.2837 196.769 39.9443 196.783 39.5H196.036ZM204.473 37.0171L205.74 36.8999C205.848 37.4956 206.053 37.9277 206.355 38.1963C206.658 38.4648 207.046 38.5991 207.52 38.5991C207.925 38.5991 208.279 38.5063 208.582 38.3208C208.89 38.1353 209.141 37.8887 209.336 37.5811C209.532 37.2686 209.695 36.8486 209.827 36.3213C209.959 35.7939 210.025 35.2568 210.025 34.71C210.025 34.6514 210.022 34.5635 210.017 34.4463C209.754 34.8662 209.392 35.208 208.934 35.4717C208.479 35.7305 207.986 35.8599 207.454 35.8599C206.565 35.8599 205.813 35.5376 205.198 34.8931C204.583 34.2485 204.275 33.3989 204.275 32.3442C204.275 31.2554 204.595 30.3789 205.235 29.7148C205.879 29.0508 206.685 28.7188 207.652 28.7188C208.35 28.7188 208.987 28.9067 209.563 29.2827C210.144 29.6587 210.584 30.1958 210.882 30.894C211.184 31.5874 211.336 32.5933 211.336 33.9116C211.336 35.2837 211.187 36.3774 210.889 37.1929C210.591 38.0034 210.147 38.6211 209.556 39.0459C208.97 39.4707 208.282 39.6831 207.491 39.6831C206.651 39.6831 205.965 39.4512 205.433 38.9873C204.9 38.5186 204.58 37.8618 204.473 37.0171ZM209.871 32.2783C209.871 31.5215 209.668 30.9209 209.263 30.4766C208.863 30.0322 208.379 29.8101 207.813 29.8101C207.227 29.8101 206.717 30.0493 206.282 30.5278C205.848 31.0063 205.63 31.6265 205.63 32.3882C205.63 33.0718 205.835 33.6284 206.246 34.0581C206.661 34.4829 207.171 34.6953 207.776 34.6953C208.387 34.6953 208.887 34.4829 209.278 34.0581C209.673 33.6284 209.871 33.0352 209.871 32.2783ZM219.854 38.2329V39.5H212.756C212.747 39.1826 212.798 38.8774 212.91 38.5845C213.091 38.1011 213.379 37.625 213.775 37.1562C214.175 36.6875 214.751 36.1455 215.503 35.5303C216.67 34.5732 217.459 33.8164 217.869 33.2598C218.279 32.6982 218.484 32.1685 218.484 31.6704C218.484 31.1479 218.296 30.7085 217.92 30.3521C217.549 29.9907 217.063 29.8101 216.462 29.8101C215.828 29.8101 215.32 30.0005 214.939 30.3813C214.558 30.7622 214.365 31.2896 214.36 31.9634L213.005 31.8242C213.098 30.8135 213.447 30.0444 214.053 29.5171C214.658 28.9849 215.471 28.7188 216.492 28.7188C217.522 28.7188 218.337 29.0044 218.938 29.5757C219.539 30.147 219.839 30.855 219.839 31.6997C219.839 32.1294 219.751 32.5518 219.575 32.9668C219.4 33.3818 219.107 33.8188 218.696 34.2778C218.291 34.7368 217.615 35.3667 216.668 36.1675C215.877 36.8315 215.369 37.2832 215.144 37.5225C214.92 37.7568 214.734 37.9937 214.587 38.2329H219.854ZM222.285 39.5V37.9985H223.786V39.5C223.786 40.0518 223.689 40.4961 223.493 40.833C223.298 41.1748 222.988 41.4385 222.563 41.624L222.197 41.0601C222.475 40.938 222.68 40.7573 222.812 40.5181C222.944 40.2837 223.017 39.9443 223.032 39.5H222.285ZM235.49 39.5H234.172V31.0991C233.854 31.4019 233.437 31.7046 232.919 32.0073C232.406 32.3101 231.945 32.5371 231.535 32.6885V31.4141C232.272 31.0674 232.917 30.6475 233.468 30.1543C234.02 29.6611 234.411 29.1826 234.64 28.7188H235.49V39.5ZM54.2012 56.5V45.7627H55.6221V50.1719H61.2031V45.7627H62.624V56.5H61.2031V51.439H55.6221V56.5H54.2012ZM65.3264 56.5V45.7627H73.09V47.0298H66.7473V50.3184H72.6872V51.5781H66.7473V55.2329H73.3391V56.5H65.3264ZM74.5106 56.5L78.6635 50.9043L75.0014 45.7627H76.6933L78.6415 48.5166C79.0468 49.0879 79.3349 49.5273 79.5058 49.835C79.745 49.4443 80.0282 49.0366 80.3554 48.6118L82.516 45.7627H84.0614L80.2895 50.8237L84.3544 56.5H82.5966L79.8939 52.6694C79.7426 52.4497 79.5863 52.2104 79.4252 51.9517C79.1859 52.3423 79.015 52.6108 78.9125 52.7573L76.2172 56.5H74.5106ZM86.1046 50.2231V48.7217H87.6061V50.2231H86.1046ZM86.1046 56.5V54.9985H87.6061V56.5H86.1046ZM98.5479 56.5V53.9292H93.8896V52.7207L98.7896 45.7627H99.8662V52.7207H101.316V53.9292H99.8662V56.5H98.5479ZM98.5479 52.7207V47.8794L95.186 52.7207H98.5479ZM108.413 53.6509L109.71 53.8193C109.568 54.7129 109.204 55.4136 108.618 55.9214C108.037 56.4243 107.322 56.6758 106.472 56.6758C105.408 56.6758 104.551 56.3291 103.902 55.6357C103.257 54.9375 102.935 53.939 102.935 52.6401C102.935 51.8003 103.074 51.0654 103.352 50.4355C103.631 49.8057 104.053 49.3345 104.619 49.022C105.191 48.7046 105.811 48.5459 106.48 48.5459C107.324 48.5459 108.015 48.7607 108.552 49.1904C109.09 49.6152 109.434 50.2207 109.585 51.0068L108.303 51.2046C108.181 50.6821 107.964 50.2891 107.652 50.0254C107.344 49.7617 106.97 49.6299 106.531 49.6299C105.867 49.6299 105.327 49.8691 104.912 50.3477C104.497 50.8213 104.29 51.5732 104.29 52.6035C104.29 53.6484 104.49 54.4077 104.89 54.8813C105.291 55.355 105.813 55.5918 106.458 55.5918C106.975 55.5918 107.407 55.4331 107.754 55.1157C108.101 54.7983 108.321 54.3101 108.413 53.6509ZM116.213 55.5405C115.725 55.9556 115.254 56.2485 114.8 56.4194C114.35 56.5903 113.867 56.6758 113.35 56.6758C112.495 56.6758 111.838 56.4683 111.379 56.0532C110.92 55.6333 110.691 55.0986 110.691 54.4492C110.691 54.0684 110.776 53.7217 110.947 53.4092C111.123 53.0918 111.35 52.8379 111.628 52.6475C111.912 52.457 112.229 52.313 112.58 52.2153C112.839 52.147 113.23 52.0811 113.752 52.0176C114.817 51.8906 115.6 51.7393 116.103 51.5635C116.108 51.3828 116.111 51.2681 116.111 51.2192C116.111 50.6821 115.986 50.3037 115.737 50.084C115.4 49.7861 114.9 49.6372 114.236 49.6372C113.616 49.6372 113.157 49.7471 112.859 49.9668C112.566 50.1816 112.349 50.5649 112.207 51.1167L110.918 50.9409C111.035 50.3892 111.228 49.9448 111.496 49.6079C111.765 49.2661 112.153 49.0049 112.661 48.8242C113.169 48.6387 113.757 48.5459 114.426 48.5459C115.09 48.5459 115.63 48.624 116.045 48.7803C116.46 48.9365 116.765 49.1343 116.96 49.3735C117.156 49.6079 117.292 49.9058 117.371 50.2671C117.414 50.4917 117.436 50.897 117.436 51.4829V53.2407C117.436 54.4663 117.463 55.2427 117.517 55.5698C117.576 55.8921 117.688 56.2021 117.854 56.5H116.477C116.34 56.2266 116.252 55.9067 116.213 55.5405ZM116.103 52.5962C115.625 52.7915 114.907 52.9575 113.95 53.0942C113.408 53.1724 113.025 53.2603 112.8 53.3579C112.576 53.4556 112.402 53.5996 112.28 53.79C112.158 53.9756 112.097 54.1831 112.097 54.4126C112.097 54.7642 112.229 55.0571 112.493 55.2915C112.761 55.5259 113.152 55.6431 113.664 55.6431C114.172 55.6431 114.624 55.5332 115.019 55.3135C115.415 55.0889 115.705 54.7837 115.891 54.3979C116.033 54.1001 116.103 53.6606 116.103 53.0796V52.5962ZM119.421 51.2046C119.421 49.9351 119.55 48.9146 119.809 48.1431C120.073 47.3667 120.461 46.7686 120.974 46.3486C121.491 45.9287 122.141 45.7188 122.922 45.7188C123.498 45.7188 124.004 45.8359 124.438 46.0703C124.873 46.2998 125.232 46.6343 125.515 47.0737C125.798 47.5083 126.02 48.0405 126.181 48.6704C126.342 49.2954 126.423 50.1401 126.423 51.2046C126.423 52.4644 126.294 53.4824 126.035 54.2588C125.776 55.0303 125.388 55.6284 124.87 56.0532C124.358 56.4731 123.708 56.6831 122.922 56.6831C121.887 56.6831 121.074 56.312 120.483 55.5698C119.775 54.6763 119.421 53.2212 119.421 51.2046ZM120.776 51.2046C120.776 52.9673 120.981 54.1416 121.391 54.7275C121.806 55.3086 122.317 55.5991 122.922 55.5991C123.527 55.5991 124.035 55.3062 124.445 54.7202C124.86 54.1343 125.068 52.9624 125.068 51.2046C125.068 49.437 124.86 48.2627 124.445 47.6816C124.035 47.1006 123.523 46.8101 122.907 46.8101C122.302 46.8101 121.818 47.0664 121.457 47.5791C121.003 48.2334 120.776 49.4419 120.776 51.2046ZM132.297 56.5V53.9292H127.638V52.7207L132.538 45.7627H133.615V52.7207H135.065V53.9292H133.615V56.5H132.297ZM132.297 52.7207V47.8794L128.935 52.7207H132.297ZM136.72 53.6875L138.104 53.5703C138.207 54.2441 138.444 54.752 138.815 55.0938C139.191 55.4307 139.643 55.5991 140.17 55.5991C140.805 55.5991 141.342 55.3599 141.781 54.8813C142.221 54.4028 142.44 53.7681 142.44 52.9771C142.44 52.2251 142.228 51.6318 141.803 51.1973C141.383 50.7627 140.832 50.5454 140.148 50.5454C139.723 50.5454 139.34 50.6431 138.998 50.8384C138.656 51.0288 138.388 51.2778 138.192 51.5854L136.955 51.4243L137.995 45.9092H143.334V47.1689H139.049L138.471 50.0547C139.115 49.6055 139.792 49.3809 140.5 49.3809C141.437 49.3809 142.228 49.7056 142.873 50.355C143.517 51.0044 143.839 51.8394 143.839 52.8599C143.839 53.8315 143.556 54.6714 142.99 55.3794C142.301 56.2485 141.361 56.6831 140.17 56.6831C139.193 56.6831 138.395 56.4097 137.775 55.8628C137.16 55.3159 136.808 54.5908 136.72 53.6875Z" fill="black"/>
<rect x="288" width="25" height="68" fill="#8BB540"/>
<path d="M342.179 22.5V11.7627H346.94C347.897 11.7627 348.625 11.8604 349.123 12.0557C349.621 12.2461 350.019 12.5854 350.316 13.0737C350.614 13.562 350.763 14.1016 350.763 14.6924C350.763 15.4541 350.517 16.0962 350.023 16.6187C349.53 17.1411 348.769 17.4731 347.738 17.6147C348.114 17.7954 348.4 17.9736 348.595 18.1494C349.01 18.5303 349.403 19.0063 349.774 19.5776L351.642 22.5H349.855L348.434 20.2661C348.019 19.6216 347.677 19.1284 347.409 18.7866C347.14 18.4448 346.898 18.2056 346.684 18.0688C346.474 17.9321 346.259 17.8369 346.039 17.7832C345.878 17.749 345.614 17.7319 345.248 17.7319H343.6V22.5H342.179ZM343.6 16.5015H346.654C347.304 16.5015 347.812 16.4355 348.178 16.3037C348.544 16.167 348.822 15.9521 349.013 15.6592C349.203 15.3613 349.298 15.0391 349.298 14.6924C349.298 14.1846 349.113 13.7671 348.742 13.4399C348.375 13.1128 347.794 12.9492 346.999 12.9492H343.6V16.5015ZM358.321 18.2886V17.0288L362.87 17.0215V21.0059C362.172 21.5625 361.451 21.9824 360.709 22.2656C359.967 22.5439 359.205 22.6831 358.424 22.6831C357.369 22.6831 356.41 22.4585 355.546 22.0093C354.686 21.5552 354.037 20.9009 353.597 20.0464C353.158 19.1919 352.938 18.2373 352.938 17.1826C352.938 16.1377 353.155 15.1636 353.59 14.2603C354.029 13.3521 354.659 12.6782 355.48 12.2388C356.3 11.7993 357.245 11.5796 358.314 11.5796C359.091 11.5796 359.791 11.7065 360.416 11.9604C361.046 12.2095 361.539 12.5586 361.896 13.0078C362.252 13.457 362.523 14.043 362.709 14.7656L361.427 15.1172C361.266 14.5703 361.066 14.1406 360.826 13.8281C360.587 13.5156 360.245 13.2666 359.801 13.0811C359.357 12.8906 358.863 12.7954 358.321 12.7954C357.672 12.7954 357.111 12.8955 356.637 13.0957C356.163 13.291 355.78 13.5498 355.487 13.8721C355.199 14.1943 354.974 14.5483 354.813 14.9341C354.54 15.5981 354.403 16.3184 354.403 17.0947C354.403 18.0518 354.567 18.8525 354.894 19.4971C355.226 20.1416 355.707 20.6201 356.337 20.9326C356.967 21.2451 357.635 21.4014 358.343 21.4014C358.959 21.4014 359.559 21.2842 360.145 21.0498C360.731 20.8105 361.175 20.5566 361.478 20.2881V18.2886H358.321ZM365.213 22.5V11.7627H369.242C370.062 11.7627 370.719 11.8726 371.212 12.0923C371.71 12.3071 372.098 12.6416 372.376 13.0957C372.66 13.5449 372.801 14.0161 372.801 14.5093C372.801 14.9683 372.677 15.4004 372.428 15.8057C372.179 16.2109 371.803 16.5381 371.3 16.7871C371.949 16.9775 372.447 17.3022 372.794 17.7612C373.145 18.2202 373.321 18.7622 373.321 19.3872C373.321 19.8901 373.214 20.3589 372.999 20.7935C372.789 21.2231 372.528 21.5552 372.215 21.7896C371.903 22.0239 371.51 22.2021 371.036 22.3242C370.567 22.4414 369.991 22.5 369.308 22.5H365.213ZM366.634 16.2744H368.956C369.586 16.2744 370.038 16.2329 370.311 16.1499C370.672 16.0425 370.943 15.8643 371.124 15.6152C371.309 15.3662 371.402 15.0537 371.402 14.6777C371.402 14.3213 371.317 14.0088 371.146 13.7402C370.975 13.4668 370.731 13.2812 370.413 13.1836C370.096 13.0811 369.552 13.0298 368.78 13.0298H366.634V16.2744ZM366.634 21.2329H369.308C369.767 21.2329 370.089 21.2158 370.274 21.1816C370.601 21.123 370.875 21.0254 371.095 20.8887C371.314 20.752 371.495 20.5542 371.637 20.2954C371.778 20.0317 371.849 19.729 371.849 19.3872C371.849 18.9868 371.746 18.6401 371.541 18.3472C371.336 18.0493 371.051 17.8418 370.684 17.7246C370.323 17.6025 369.801 17.5415 369.117 17.5415H366.634V21.2329ZM382.403 25.6567C381.675 24.7388 381.06 23.6646 380.557 22.4341C380.054 21.2036 379.803 19.9292 379.803 18.6108C379.803 17.4487 379.991 16.3354 380.367 15.271C380.806 14.0356 381.485 12.8052 382.403 11.5796H383.347C382.757 12.5952 382.366 13.3203 382.176 13.7549C381.878 14.4287 381.643 15.1318 381.472 15.8643C381.263 16.7773 381.158 17.6953 381.158 18.6182C381.158 20.9668 381.888 23.313 383.347 25.6567H382.403ZM386.614 22.5L384.233 14.7217H385.596L386.833 19.2114L387.295 20.8813C387.314 20.7983 387.449 20.2637 387.698 19.2773L388.936 14.7217H390.291L391.455 19.2334L391.843 20.7202L392.29 19.2188L393.623 14.7217H394.905L392.473 22.5H391.104L389.866 17.8418L389.565 16.5161L387.991 22.5H386.614ZM401.643 19.9951L403.005 20.1636C402.79 20.9595 402.392 21.5771 401.811 22.0166C401.23 22.4561 400.488 22.6758 399.585 22.6758C398.447 22.6758 397.544 22.3267 396.875 21.6284C396.211 20.9253 395.879 19.9414 395.879 18.6768C395.879 17.3682 396.216 16.3525 396.889 15.6299C397.563 14.9072 398.437 14.5459 399.511 14.5459C400.551 14.5459 401.401 14.8999 402.06 15.6079C402.719 16.3159 403.049 17.312 403.049 18.5962C403.049 18.6743 403.047 18.7915 403.042 18.9478H397.241C397.29 19.8022 397.531 20.4565 397.966 20.9106C398.401 21.3647 398.943 21.5918 399.592 21.5918C400.075 21.5918 400.488 21.4648 400.83 21.2109C401.172 20.957 401.443 20.5518 401.643 19.9951ZM397.314 17.8638H401.657C401.599 17.2095 401.433 16.7188 401.159 16.3916C400.739 15.8838 400.195 15.6299 399.526 15.6299C398.921 15.6299 398.41 15.8325 397.995 16.2378C397.585 16.6431 397.358 17.1851 397.314 17.8638ZM406.183 22.5H404.96V11.7627H406.279V15.5933C406.835 14.895 407.546 14.5459 408.41 14.5459C408.889 14.5459 409.34 14.6436 409.765 14.8389C410.195 15.0293 410.546 15.3003 410.82 15.6519C411.098 15.9985 411.315 16.4185 411.472 16.9116C411.628 17.4048 411.706 17.9321 411.706 18.4937C411.706 19.8267 411.376 20.8569 410.717 21.5845C410.058 22.312 409.267 22.6758 408.344 22.6758C407.426 22.6758 406.706 22.2925 406.183 21.5259V22.5ZM406.169 18.5522C406.169 19.4849 406.296 20.1587 406.55 20.5737C406.965 21.2524 407.526 21.5918 408.234 21.5918C408.81 21.5918 409.308 21.3428 409.728 20.8447C410.148 20.3418 410.358 19.5947 410.358 18.6035C410.358 17.5879 410.156 16.8384 409.75 16.355C409.35 15.8716 408.864 15.6299 408.293 15.6299C407.717 15.6299 407.219 15.8813 406.799 16.3843C406.379 16.8823 406.169 17.605 406.169 18.5522ZM414.482 25.6567H413.537C414.997 23.313 415.727 20.9668 415.727 18.6182C415.727 17.7002 415.622 16.7896 415.412 15.8862C415.246 15.1538 415.014 14.4507 414.716 13.7769C414.525 13.3374 414.132 12.605 413.537 11.5796H414.482C415.4 12.8052 416.078 14.0356 416.518 15.271C416.894 16.3354 417.082 17.4487 417.082 18.6108C417.082 19.9292 416.828 21.2036 416.32 22.4341C415.817 23.6646 415.204 24.7388 414.482 25.6567ZM419.279 16.2231V14.7217H420.78V16.2231H419.279ZM419.279 22.5V20.9985H420.78V22.5H419.279ZM432.462 22.5H431.143V14.0991C430.826 14.4019 430.408 14.7046 429.891 15.0073C429.378 15.3101 428.917 15.5371 428.507 15.6885V14.4141C429.244 14.0674 429.888 13.6475 430.44 13.1543C430.992 12.6611 431.383 12.1826 431.612 11.7188H432.462V22.5ZM436.153 19.6655L437.471 19.4897C437.622 20.2368 437.879 20.7764 438.24 21.1084C438.606 21.4355 439.051 21.5991 439.573 21.5991C440.193 21.5991 440.716 21.3843 441.141 20.9546C441.57 20.5249 441.785 19.9927 441.785 19.3579C441.785 18.7524 441.587 18.2544 441.192 17.8638C440.796 17.4683 440.293 17.2705 439.683 17.2705C439.434 17.2705 439.124 17.3193 438.753 17.417L438.899 16.2598C438.987 16.2695 439.058 16.2744 439.112 16.2744C439.673 16.2744 440.179 16.1279 440.628 15.835C441.077 15.542 441.302 15.0903 441.302 14.48C441.302 13.9966 441.138 13.5962 440.811 13.2788C440.484 12.9614 440.061 12.8027 439.544 12.8027C439.031 12.8027 438.604 12.9639 438.262 13.2861C437.92 13.6084 437.701 14.0918 437.603 14.7363L436.285 14.502C436.446 13.6182 436.812 12.9346 437.383 12.4512C437.954 11.9629 438.665 11.7188 439.515 11.7188C440.1 11.7188 440.64 11.8457 441.133 12.0996C441.626 12.3486 442.002 12.6904 442.261 13.125C442.525 13.5596 442.657 14.021 442.657 14.5093C442.657 14.9731 442.532 15.3955 442.283 15.7764C442.034 16.1572 441.665 16.46 441.177 16.6846C441.812 16.8311 442.305 17.1362 442.657 17.6001C443.008 18.0591 443.184 18.6353 443.184 19.3286C443.184 20.2661 442.842 21.062 442.159 21.7163C441.475 22.3657 440.611 22.6904 439.566 22.6904C438.623 22.6904 437.84 22.4097 437.215 21.8481C436.595 21.2866 436.241 20.5591 436.153 19.6655ZM444.993 20.0171L446.26 19.8999C446.367 20.4956 446.572 20.9277 446.875 21.1963C447.178 21.4648 447.566 21.5991 448.04 21.5991C448.445 21.5991 448.799 21.5063 449.102 21.3208C449.409 21.1353 449.661 20.8887 449.856 20.5811C450.051 20.2686 450.215 19.8486 450.347 19.3213C450.479 18.7939 450.545 18.2568 450.545 17.71C450.545 17.6514 450.542 17.5635 450.537 17.4463C450.274 17.8662 449.912 18.208 449.453 18.4717C448.999 18.7305 448.506 18.8599 447.974 18.8599C447.085 18.8599 446.333 18.5376 445.718 17.8931C445.103 17.2485 444.795 16.3989 444.795 15.3442C444.795 14.2554 445.115 13.3789 445.754 12.7148C446.399 12.0508 447.205 11.7188 448.171 11.7188C448.87 11.7188 449.507 11.9067 450.083 12.2827C450.664 12.6587 451.104 13.1958 451.401 13.894C451.704 14.5874 451.856 15.5933 451.856 16.9116C451.856 18.2837 451.707 19.3774 451.409 20.1929C451.111 21.0034 450.667 21.6211 450.076 22.0459C449.49 22.4707 448.801 22.6831 448.01 22.6831C447.171 22.6831 446.484 22.4512 445.952 21.9873C445.42 21.5186 445.1 20.8618 444.993 20.0171ZM450.391 15.2783C450.391 14.5215 450.188 13.9209 449.783 13.4766C449.382 13.0322 448.899 12.8101 448.333 12.8101C447.747 12.8101 447.236 13.0493 446.802 13.5278C446.367 14.0063 446.15 14.6265 446.15 15.3882C446.15 16.0718 446.355 16.6284 446.765 17.0581C447.18 17.4829 447.691 17.6953 448.296 17.6953C448.906 17.6953 449.407 17.4829 449.797 17.0581C450.193 16.6284 450.391 16.0352 450.391 15.2783ZM454.155 22.5V20.9985H455.657V22.5C455.657 23.0518 455.559 23.4961 455.364 23.833C455.168 24.1748 454.858 24.4385 454.433 24.624L454.067 24.0601C454.346 23.938 454.551 23.7573 454.682 23.5181C454.814 23.2837 454.887 22.9443 454.902 22.5H454.155ZM467.36 22.5H466.042V14.0991C465.724 14.4019 465.307 14.7046 464.789 15.0073C464.277 15.3101 463.815 15.5371 463.405 15.6885V14.4141C464.142 14.0674 464.787 13.6475 465.339 13.1543C465.89 12.6611 466.281 12.1826 466.51 11.7188H467.36V22.5ZM473.073 16.6772C472.526 16.4771 472.121 16.1914 471.857 15.8203C471.593 15.4492 471.461 15.0049 471.461 14.4873C471.461 13.7061 471.742 13.0493 472.304 12.5171C472.865 11.9849 473.612 11.7188 474.545 11.7188C475.482 11.7188 476.237 11.9922 476.808 12.5391C477.379 13.0811 477.665 13.7427 477.665 14.5239C477.665 15.022 477.533 15.4565 477.269 15.8276C477.011 16.1938 476.615 16.4771 476.083 16.6772C476.742 16.8921 477.243 17.2388 477.584 17.7173C477.931 18.1958 478.104 18.7671 478.104 19.4312C478.104 20.3491 477.78 21.1206 477.13 21.7456C476.481 22.3706 475.626 22.6831 474.567 22.6831C473.507 22.6831 472.653 22.3706 472.003 21.7456C471.354 21.1157 471.029 20.332 471.029 19.3945C471.029 18.6963 471.205 18.1128 471.557 17.644C471.913 17.1704 472.418 16.8481 473.073 16.6772ZM472.809 14.4434C472.809 14.9512 472.973 15.3662 473.3 15.6885C473.627 16.0107 474.052 16.1719 474.574 16.1719C475.082 16.1719 475.497 16.0132 475.819 15.6958C476.146 15.3735 476.31 14.9805 476.31 14.5166C476.31 14.0332 476.142 13.6279 475.805 13.3008C475.473 12.9688 475.058 12.8027 474.559 12.8027C474.057 12.8027 473.639 12.9639 473.307 13.2861C472.975 13.6084 472.809 13.9941 472.809 14.4434ZM472.384 19.4019C472.384 19.7778 472.472 20.1416 472.648 20.4932C472.829 20.8447 473.095 21.1182 473.446 21.3135C473.798 21.5039 474.176 21.5991 474.581 21.5991C475.211 21.5991 475.731 21.3965 476.142 20.9912C476.552 20.5859 476.757 20.0708 476.757 19.4458C476.757 18.811 476.544 18.2861 476.12 17.8711C475.7 17.4561 475.172 17.2485 474.538 17.2485C473.917 17.2485 473.402 17.4536 472.992 17.8638C472.587 18.2739 472.384 18.7866 472.384 19.4019ZM484.659 22.5H483.341V14.0991C483.024 14.4019 482.606 14.7046 482.088 15.0073C481.576 15.3101 481.114 15.5371 480.704 15.6885V14.4141C481.441 14.0674 482.086 13.6475 482.638 13.1543C483.19 12.6611 483.58 12.1826 483.81 11.7188H484.659V22.5ZM489.054 22.5V20.9985H490.555V22.5C490.555 23.0518 490.457 23.4961 490.262 23.833C490.067 24.1748 489.757 24.4385 489.332 24.624L488.966 24.0601C489.244 23.938 489.449 23.7573 489.581 23.5181C489.713 23.2837 489.786 22.9443 489.801 22.5H489.054ZM504.133 14.3921L502.822 14.4946C502.705 13.9771 502.539 13.6011 502.324 13.3667C501.968 12.9907 501.529 12.8027 501.006 12.8027C500.586 12.8027 500.217 12.9199 499.9 13.1543C499.485 13.457 499.158 13.8989 498.919 14.48C498.679 15.061 498.555 15.8887 498.545 16.9629C498.863 16.4795 499.251 16.1206 499.71 15.8862C500.169 15.6519 500.65 15.5347 501.153 15.5347C502.031 15.5347 502.779 15.8594 503.394 16.5088C504.014 17.1533 504.324 17.9883 504.324 19.0137C504.324 19.6875 504.177 20.3149 503.884 20.896C503.596 21.4722 503.198 21.9141 502.691 22.2217C502.183 22.5293 501.607 22.6831 500.962 22.6831C499.863 22.6831 498.967 22.2803 498.274 21.4746C497.581 20.6641 497.234 19.3311 497.234 17.4756C497.234 15.4004 497.617 13.8916 498.384 12.9492C499.053 12.1289 499.954 11.7188 501.087 11.7188C501.931 11.7188 502.622 11.9556 503.159 12.4292C503.701 12.9028 504.026 13.5571 504.133 14.3921ZM498.75 19.021C498.75 19.4751 498.845 19.9097 499.036 20.3247C499.231 20.7397 499.502 21.0571 499.849 21.2769C500.196 21.4917 500.559 21.5991 500.94 21.5991C501.497 21.5991 501.975 21.3745 502.376 20.9253C502.776 20.4761 502.976 19.8657 502.976 19.0942C502.976 18.3521 502.779 17.7686 502.383 17.3438C501.988 16.9141 501.489 16.6992 500.889 16.6992C500.293 16.6992 499.788 16.9141 499.373 17.3438C498.958 17.7686 498.75 18.3276 498.75 19.021ZM510.168 22.5V19.9292H505.51V18.7207L510.41 11.7627H511.487V18.7207H512.937V19.9292H511.487V22.5H510.168ZM510.168 18.7207V13.8794L506.807 18.7207H510.168ZM349.818 35.7354L351.239 36.0942C350.941 37.2612 350.404 38.1523 349.628 38.7676C348.856 39.3779 347.912 39.6831 346.793 39.6831C345.636 39.6831 344.694 39.4487 343.966 38.98C343.244 38.5063 342.692 37.8228 342.311 36.9292C341.935 36.0356 341.747 35.0762 341.747 34.0508C341.747 32.9326 341.959 31.9585 342.384 31.1284C342.814 30.2935 343.422 29.6611 344.208 29.2314C344.999 28.7969 345.868 28.5796 346.815 28.5796C347.89 28.5796 348.793 28.853 349.525 29.3999C350.258 29.9468 350.768 30.7158 351.056 31.707L349.657 32.0366C349.408 31.2554 349.047 30.6865 348.573 30.3301C348.1 29.9736 347.504 29.7954 346.786 29.7954C345.961 29.7954 345.27 29.9932 344.713 30.3887C344.162 30.7842 343.773 31.3164 343.549 31.9854C343.324 32.6494 343.212 33.3354 343.212 34.0435C343.212 34.9565 343.344 35.7549 343.607 36.4385C343.876 37.1172 344.291 37.625 344.853 37.9619C345.414 38.2988 346.022 38.4673 346.676 38.4673C347.472 38.4673 348.146 38.2378 348.698 37.7788C349.25 37.3198 349.623 36.6387 349.818 35.7354ZM353.253 39.5V28.7627H355.392L357.933 36.3652C358.168 37.0732 358.339 37.603 358.446 37.9546C358.568 37.564 358.758 36.9902 359.017 36.2334L361.588 28.7627H363.5V39.5H362.13V30.5132L359.01 39.5H357.728L354.623 30.3594V39.5H353.253ZM369.117 39.5V34.9517L364.979 28.7627H366.707L368.824 32C369.215 32.6055 369.579 33.2109 369.915 33.8164C370.238 33.2549 370.628 32.6226 371.087 31.9194L373.167 28.7627H374.823L370.538 34.9517V39.5H369.117ZM376.338 39.5V28.7627H377.759V34.0874L383.091 28.7627H385.018L380.513 33.1133L385.215 39.5H383.34L379.517 34.0654L377.759 35.7793V39.5H376.338ZM393.528 42.6567C392.8 41.7388 392.185 40.6646 391.682 39.4341C391.179 38.2036 390.928 36.9292 390.928 35.6108C390.928 34.4487 391.116 33.3354 391.492 32.271C391.931 31.0356 392.61 29.8052 393.528 28.5796H394.473C393.882 29.5952 393.491 30.3203 393.301 30.7549C393.003 31.4287 392.769 32.1318 392.598 32.8643C392.388 33.7773 392.283 34.6953 392.283 35.6182C392.283 37.9668 393.013 40.313 394.473 42.6567H393.528ZM396.303 42.481V31.7217H397.505V32.7324C397.788 32.3369 398.108 32.0415 398.464 31.8462C398.821 31.646 399.253 31.5459 399.76 31.5459C400.425 31.5459 401.01 31.7168 401.518 32.0586C402.026 32.4004 402.409 32.8838 402.668 33.5088C402.927 34.1289 403.056 34.8101 403.056 35.5522C403.056 36.3481 402.912 37.0659 402.624 37.7056C402.341 38.3403 401.926 38.8286 401.379 39.1704C400.837 39.5073 400.266 39.6758 399.665 39.6758C399.226 39.6758 398.83 39.583 398.479 39.3975C398.132 39.2119 397.846 38.9775 397.622 38.6943V42.481H396.303ZM397.497 35.6548C397.497 36.6558 397.7 37.3955 398.105 37.874C398.51 38.3525 399.001 38.5918 399.577 38.5918C400.163 38.5918 400.664 38.3452 401.079 37.8521C401.499 37.354 401.709 36.585 401.709 35.5449C401.709 34.5537 401.504 33.8115 401.093 33.3184C400.688 32.8252 400.202 32.5786 399.636 32.5786C399.074 32.5786 398.576 32.8423 398.142 33.3696C397.712 33.8921 397.497 34.6538 397.497 35.6548ZM404.938 39.5V31.7217H406.125V32.9009C406.428 32.3491 406.706 31.9854 406.96 31.8096C407.219 31.6338 407.502 31.5459 407.809 31.5459C408.254 31.5459 408.705 31.6875 409.164 31.9707L408.71 33.1938C408.388 33.0034 408.066 32.9082 407.744 32.9082C407.455 32.9082 407.197 32.9961 406.967 33.1719C406.738 33.3428 406.574 33.582 406.476 33.8896C406.33 34.3584 406.257 34.8711 406.257 35.4277V39.5H404.938ZM410.255 30.2788V28.7627H411.574V30.2788H410.255ZM410.255 39.5V31.7217H411.574V39.5H410.255ZM413.888 39.5V31.7217H415.075V32.8276C415.646 31.9731 416.471 31.5459 417.55 31.5459C418.019 31.5459 418.449 31.6313 418.839 31.8022C419.235 31.9683 419.53 32.188 419.725 32.4614C419.921 32.7349 420.057 33.0596 420.136 33.4355C420.184 33.6797 420.209 34.1069 420.209 34.7173V39.5H418.89V34.7686C418.89 34.2314 418.839 33.8311 418.737 33.5674C418.634 33.2988 418.451 33.0864 418.187 32.9302C417.929 32.769 417.623 32.6885 417.272 32.6885C416.71 32.6885 416.224 32.8667 415.814 33.2231C415.409 33.5796 415.206 34.2559 415.206 35.252V39.5H413.888ZM425.416 38.3208L425.606 39.4854C425.235 39.5635 424.903 39.6025 424.61 39.6025C424.132 39.6025 423.761 39.5269 423.497 39.3755C423.233 39.2241 423.048 39.0264 422.94 38.7822C422.833 38.5332 422.779 38.0132 422.779 37.2222V32.7471H421.812V31.7217H422.779V29.7954L424.09 29.0044V31.7217H425.416V32.7471H424.09V37.2954C424.09 37.6714 424.112 37.9131 424.156 38.0205C424.205 38.1279 424.281 38.2134 424.383 38.2769C424.491 38.3403 424.642 38.3721 424.837 38.3721C424.984 38.3721 425.177 38.355 425.416 38.3208ZM427.877 42.6567H426.932C428.392 40.313 429.122 37.9668 429.122 35.6182C429.122 34.7002 429.017 33.7896 428.807 32.8862C428.641 32.1538 428.409 31.4507 428.111 30.7769C427.921 30.3374 427.528 29.605 426.932 28.5796H427.877C428.795 29.8052 429.473 31.0356 429.913 32.271C430.289 33.3354 430.477 34.4487 430.477 35.6108C430.477 36.9292 430.223 38.2036 429.715 39.4341C429.212 40.6646 428.599 41.7388 427.877 42.6567ZM432.674 33.2231V31.7217H434.175V33.2231H432.674ZM432.674 39.5V37.9985H434.175V39.5H432.674ZM440.891 36.6875L442.275 36.5703C442.378 37.2441 442.615 37.752 442.986 38.0938C443.362 38.4307 443.813 38.5991 444.341 38.5991C444.975 38.5991 445.512 38.3599 445.952 37.8813C446.391 37.4028 446.611 36.7681 446.611 35.9771C446.611 35.2251 446.399 34.6318 445.974 34.1973C445.554 33.7627 445.002 33.5454 444.319 33.5454C443.894 33.5454 443.511 33.6431 443.169 33.8384C442.827 34.0288 442.558 34.2778 442.363 34.5854L441.125 34.4243L442.165 28.9092H447.505V30.1689H443.22L442.641 33.0547C443.286 32.6055 443.962 32.3809 444.67 32.3809C445.608 32.3809 446.399 32.7056 447.043 33.355C447.688 34.0044 448.01 34.8394 448.01 35.8599C448.01 36.8315 447.727 37.6714 447.16 38.3794C446.472 39.2485 445.532 39.6831 444.341 39.6831C443.364 39.6831 442.566 39.4097 441.946 38.8628C441.33 38.3159 440.979 37.5908 440.891 36.6875ZM453.767 39.5V36.9292H449.108V35.7207L454.008 28.7627H455.085V35.7207H456.535V36.9292H455.085V39.5H453.767ZM453.767 35.7207V30.8794L450.405 35.7207H453.767ZM458.901 39.5V37.9985H460.402V39.5C460.402 40.0518 460.304 40.4961 460.109 40.833C459.914 41.1748 459.604 41.4385 459.179 41.624L458.813 41.0601C459.091 40.938 459.296 40.7573 459.428 40.5181C459.56 40.2837 459.633 39.9443 459.648 39.5H458.901ZM469.169 33.6772C468.622 33.4771 468.216 33.1914 467.953 32.8203C467.689 32.4492 467.557 32.0049 467.557 31.4873C467.557 30.7061 467.838 30.0493 468.4 29.5171C468.961 28.9849 469.708 28.7188 470.641 28.7188C471.578 28.7188 472.333 28.9922 472.904 29.5391C473.475 30.0811 473.761 30.7427 473.761 31.5239C473.761 32.022 473.629 32.4565 473.365 32.8276C473.107 33.1938 472.711 33.4771 472.179 33.6772C472.838 33.8921 473.338 34.2388 473.68 34.7173C474.027 35.1958 474.2 35.7671 474.2 36.4312C474.2 37.3491 473.876 38.1206 473.226 38.7456C472.577 39.3706 471.722 39.6831 470.663 39.6831C469.603 39.6831 468.749 39.3706 468.099 38.7456C467.45 38.1157 467.125 37.332 467.125 36.3945C467.125 35.6963 467.301 35.1128 467.652 34.644C468.009 34.1704 468.514 33.8481 469.169 33.6772ZM468.905 31.4434C468.905 31.9512 469.068 32.3662 469.396 32.6885C469.723 33.0107 470.148 33.1719 470.67 33.1719C471.178 33.1719 471.593 33.0132 471.915 32.6958C472.242 32.3735 472.406 31.9805 472.406 31.5166C472.406 31.0332 472.237 30.6279 471.9 30.3008C471.568 29.9688 471.153 29.8027 470.655 29.8027C470.152 29.8027 469.735 29.9639 469.403 30.2861C469.071 30.6084 468.905 30.9941 468.905 31.4434ZM468.48 36.4019C468.48 36.7778 468.568 37.1416 468.744 37.4932C468.924 37.8447 469.191 38.1182 469.542 38.3135C469.894 38.5039 470.272 38.5991 470.677 38.5991C471.307 38.5991 471.827 38.3965 472.237 37.9912C472.648 37.5859 472.853 37.0708 472.853 36.4458C472.853 35.811 472.64 35.2861 472.215 34.8711C471.796 34.4561 471.268 34.2485 470.633 34.2485C470.013 34.2485 469.498 34.4536 469.088 34.8638C468.683 35.2739 468.48 35.7866 468.48 36.4019ZM476.5 39.5V37.9985H478.001V39.5C478.001 40.0518 477.904 40.4961 477.708 40.833C477.513 41.1748 477.203 41.4385 476.778 41.624L476.412 41.0601C476.69 40.938 476.895 40.7573 477.027 40.5181C477.159 40.2837 477.232 39.9443 477.247 39.5H476.5ZM484.937 37.0171L486.204 36.8999C486.311 37.4956 486.516 37.9277 486.819 38.1963C487.122 38.4648 487.51 38.5991 487.984 38.5991C488.389 38.5991 488.743 38.5063 489.046 38.3208C489.353 38.1353 489.605 37.8887 489.8 37.5811C489.995 37.2686 490.159 36.8486 490.291 36.3213C490.423 35.7939 490.488 35.2568 490.488 34.71C490.488 34.6514 490.486 34.5635 490.481 34.4463C490.217 34.8662 489.856 35.208 489.397 35.4717C488.943 35.7305 488.45 35.8599 487.918 35.8599C487.029 35.8599 486.277 35.5376 485.662 34.8931C485.047 34.2485 484.739 33.3989 484.739 32.3442C484.739 31.2554 485.059 30.3789 485.698 29.7148C486.343 29.0508 487.149 28.7188 488.115 28.7188C488.814 28.7188 489.451 28.9067 490.027 29.2827C490.608 29.6587 491.048 30.1958 491.345 30.894C491.648 31.5874 491.8 32.5933 491.8 33.9116C491.8 35.2837 491.651 36.3774 491.353 37.1929C491.055 38.0034 490.611 38.6211 490.02 39.0459C489.434 39.4707 488.745 39.6831 487.954 39.6831C487.114 39.6831 486.428 39.4512 485.896 38.9873C485.364 38.5186 485.044 37.8618 484.937 37.0171ZM490.335 32.2783C490.335 31.5215 490.132 30.9209 489.727 30.4766C489.326 30.0322 488.843 29.8101 488.277 29.8101C487.691 29.8101 487.18 30.0493 486.746 30.5278C486.311 31.0063 486.094 31.6265 486.094 32.3882C486.094 33.0718 486.299 33.6284 486.709 34.0581C487.124 34.4829 487.634 34.6953 488.24 34.6953C488.85 34.6953 489.351 34.4829 489.741 34.0581C490.137 33.6284 490.335 33.0352 490.335 32.2783ZM493.389 34.2046C493.389 32.9351 493.518 31.9146 493.777 31.1431C494.04 30.3667 494.429 29.7686 494.941 29.3486C495.459 28.9287 496.108 28.7188 496.89 28.7188C497.466 28.7188 497.971 28.8359 498.406 29.0703C498.84 29.2998 499.199 29.6343 499.482 30.0737C499.766 30.5083 499.988 31.0405 500.149 31.6704C500.31 32.2954 500.391 33.1401 500.391 34.2046C500.391 35.4644 500.261 36.4824 500.002 37.2588C499.744 38.0303 499.355 38.6284 498.838 39.0532C498.325 39.4731 497.676 39.6831 496.89 39.6831C495.854 39.6831 495.041 39.312 494.451 38.5698C493.743 37.6763 493.389 36.2212 493.389 34.2046ZM494.744 34.2046C494.744 35.9673 494.949 37.1416 495.359 37.7275C495.774 38.3086 496.284 38.5991 496.89 38.5991C497.495 38.5991 498.003 38.3062 498.413 37.7202C498.828 37.1343 499.036 35.9624 499.036 34.2046C499.036 32.437 498.828 31.2627 498.413 30.6816C498.003 30.1006 497.49 29.8101 496.875 29.8101C496.269 29.8101 495.786 30.0664 495.425 30.5791C494.971 31.2334 494.744 32.4419 494.744 34.2046ZM502.749 39.5V37.9985H504.25V39.5C504.25 40.0518 504.152 40.4961 503.957 40.833C503.762 41.1748 503.452 41.4385 503.027 41.624L502.661 41.0601C502.939 40.938 503.144 40.7573 503.276 40.5181C503.408 40.2837 503.481 39.9443 503.496 39.5H502.749ZM510.988 34.2046C510.988 32.9351 511.117 31.9146 511.376 31.1431C511.64 30.3667 512.028 29.7686 512.541 29.3486C513.058 28.9287 513.708 28.7188 514.489 28.7188C515.065 28.7188 515.57 28.8359 516.005 29.0703C516.439 29.2998 516.798 29.6343 517.082 30.0737C517.365 30.5083 517.587 31.0405 517.748 31.6704C517.909 32.2954 517.99 33.1401 517.99 34.2046C517.99 35.4644 517.86 36.4824 517.602 37.2588C517.343 38.0303 516.955 38.6284 516.437 39.0532C515.924 39.4731 515.275 39.6831 514.489 39.6831C513.454 39.6831 512.641 39.312 512.05 38.5698C511.342 37.6763 510.988 36.2212 510.988 34.2046ZM512.343 34.2046C512.343 35.9673 512.548 37.1416 512.958 37.7275C513.373 38.3086 513.883 38.5991 514.489 38.5991C515.094 38.5991 515.602 38.3062 516.012 37.7202C516.427 37.1343 516.635 35.9624 516.635 34.2046C516.635 32.437 516.427 31.2627 516.012 30.6816C515.602 30.1006 515.089 29.8101 514.474 29.8101C513.869 29.8101 513.385 30.0664 513.024 30.5791C512.57 31.2334 512.343 32.4419 512.343 34.2046ZM342.201 56.5V45.7627H343.622V50.1719H349.203V45.7627H350.624V56.5H349.203V51.439H343.622V56.5H342.201ZM353.326 56.5V45.7627H361.09V47.0298H354.747V50.3184H360.687V51.5781H354.747V55.2329H361.339V56.5H353.326ZM362.511 56.5L366.663 50.9043L363.001 45.7627H364.693L366.642 48.5166C367.047 49.0879 367.335 49.5273 367.506 49.835C367.745 49.4443 368.028 49.0366 368.355 48.6118L370.516 45.7627H372.061L368.289 50.8237L372.354 56.5H370.597L367.894 52.6694C367.743 52.4497 367.586 52.2104 367.425 51.9517C367.186 52.3423 367.015 52.6108 366.913 52.7573L364.217 56.5H362.511ZM374.105 50.2231V48.7217H375.606V50.2231H374.105ZM374.105 56.5V54.9985H375.606V56.5H374.105ZM384.351 50.6772C383.804 50.4771 383.398 50.1914 383.135 49.8203C382.871 49.4492 382.739 49.0049 382.739 48.4873C382.739 47.7061 383.02 47.0493 383.582 46.5171C384.143 45.9849 384.89 45.7188 385.823 45.7188C386.76 45.7188 387.515 45.9922 388.086 46.5391C388.657 47.0811 388.943 47.7427 388.943 48.5239C388.943 49.022 388.811 49.4565 388.547 49.8276C388.289 50.1938 387.893 50.4771 387.361 50.6772C388.02 50.8921 388.521 51.2388 388.862 51.7173C389.209 52.1958 389.382 52.7671 389.382 53.4312C389.382 54.3491 389.058 55.1206 388.408 55.7456C387.759 56.3706 386.904 56.6831 385.845 56.6831C384.785 56.6831 383.931 56.3706 383.281 55.7456C382.632 55.1157 382.307 54.332 382.307 53.3945C382.307 52.6963 382.483 52.1128 382.834 51.644C383.191 51.1704 383.696 50.8481 384.351 50.6772ZM384.087 48.4434C384.087 48.9512 384.25 49.3662 384.578 49.6885C384.905 50.0107 385.33 50.1719 385.852 50.1719C386.36 50.1719 386.775 50.0132 387.097 49.6958C387.424 49.3735 387.588 48.9805 387.588 48.5166C387.588 48.0332 387.419 47.6279 387.083 47.3008C386.75 46.9688 386.335 46.8027 385.837 46.8027C385.334 46.8027 384.917 46.9639 384.585 47.2861C384.253 47.6084 384.087 47.9941 384.087 48.4434ZM383.662 53.4019C383.662 53.7778 383.75 54.1416 383.926 54.4932C384.106 54.8447 384.373 55.1182 384.724 55.3135C385.076 55.5039 385.454 55.5991 385.859 55.5991C386.489 55.5991 387.009 55.3965 387.419 54.9912C387.83 54.5859 388.035 54.0708 388.035 53.4458C388.035 52.811 387.822 52.2861 387.397 51.8711C386.978 51.4561 386.45 51.2485 385.815 51.2485C385.195 51.2485 384.68 51.4536 384.27 51.8638C383.865 52.2739 383.662 52.7866 383.662 53.4019ZM392.553 56.5H391.33V45.7627H392.649V49.5933C393.205 48.895 393.916 48.5459 394.78 48.5459C395.258 48.5459 395.71 48.6436 396.135 48.8389C396.565 49.0293 396.916 49.3003 397.19 49.6519C397.468 49.9985 397.685 50.4185 397.842 50.9116C397.998 51.4048 398.076 51.9321 398.076 52.4937C398.076 53.8267 397.746 54.8569 397.087 55.5845C396.428 56.312 395.637 56.6758 394.714 56.6758C393.796 56.6758 393.076 56.2925 392.553 55.5259V56.5ZM392.539 52.5522C392.539 53.4849 392.666 54.1587 392.92 54.5737C393.335 55.2524 393.896 55.5918 394.604 55.5918C395.18 55.5918 395.678 55.3428 396.098 54.8447C396.518 54.3418 396.728 53.5947 396.728 52.6035C396.728 51.5879 396.526 50.8384 396.12 50.355C395.72 49.8716 395.234 49.6299 394.663 49.6299C394.087 49.6299 393.589 49.8813 393.169 50.3843C392.749 50.8823 392.539 51.605 392.539 52.5522ZM401.203 56.5H399.98V45.7627H401.298V49.5933C401.855 48.895 402.565 48.5459 403.43 48.5459C403.908 48.5459 404.36 48.6436 404.785 48.8389C405.214 49.0293 405.566 49.3003 405.839 49.6519C406.118 49.9985 406.335 50.4185 406.491 50.9116C406.647 51.4048 406.725 51.9321 406.725 52.4937C406.725 53.8267 406.396 54.8569 405.737 55.5845C405.078 56.312 404.287 56.6758 403.364 56.6758C402.446 56.6758 401.725 56.2925 401.203 55.5259V56.5ZM401.188 52.5522C401.188 53.4849 401.315 54.1587 401.569 54.5737C401.984 55.2524 402.546 55.5918 403.254 55.5918C403.83 55.5918 404.328 55.3428 404.748 54.8447C405.168 54.3418 405.378 53.5947 405.378 52.6035C405.378 51.5879 405.175 50.8384 404.77 50.355C404.37 49.8716 403.884 49.6299 403.312 49.6299C402.736 49.6299 402.238 49.8813 401.818 50.3843C401.398 50.8823 401.188 51.605 401.188 52.5522ZM408.271 53.6875L409.655 53.5703C409.757 54.2441 409.994 54.752 410.365 55.0938C410.741 55.4307 411.193 55.5991 411.72 55.5991C412.355 55.5991 412.892 55.3599 413.332 54.8813C413.771 54.4028 413.991 53.7681 413.991 52.9771C413.991 52.2251 413.778 51.6318 413.354 51.1973C412.934 50.7627 412.382 50.5454 411.698 50.5454C411.274 50.5454 410.89 50.6431 410.548 50.8384C410.207 51.0288 409.938 51.2778 409.743 51.5854L408.505 51.4243L409.545 45.9092H414.884V47.1689H410.6L410.021 50.0547C410.666 49.6055 411.342 49.3809 412.05 49.3809C412.987 49.3809 413.778 49.7056 414.423 50.355C415.067 51.0044 415.39 51.8394 415.39 52.8599C415.39 53.8315 415.107 54.6714 414.54 55.3794C413.852 56.2485 412.912 56.6831 411.72 56.6831C410.744 56.6831 409.945 56.4097 409.325 55.8628C408.71 55.3159 408.358 54.5908 408.271 53.6875ZM421.146 56.5V53.9292H416.488V52.7207L421.388 45.7627H422.465V52.7207H423.915V53.9292H422.465V56.5H421.146ZM421.146 52.7207V47.8794L417.784 52.7207H421.146ZM425.57 51.2046C425.57 49.9351 425.699 48.9146 425.958 48.1431C426.222 47.3667 426.61 46.7686 427.123 46.3486C427.64 45.9287 428.29 45.7188 429.071 45.7188C429.647 45.7188 430.152 45.8359 430.587 46.0703C431.021 46.2998 431.38 46.6343 431.664 47.0737C431.947 47.5083 432.169 48.0405 432.33 48.6704C432.491 49.2954 432.572 50.1401 432.572 51.2046C432.572 52.4644 432.442 53.4824 432.184 54.2588C431.925 55.0303 431.537 55.6284 431.019 56.0532C430.506 56.4731 429.857 56.6831 429.071 56.6831C428.036 56.6831 427.223 56.312 426.632 55.5698C425.924 54.6763 425.57 53.2212 425.57 51.2046ZM426.925 51.2046C426.925 52.9673 427.13 54.1416 427.54 54.7275C427.955 55.3086 428.465 55.5991 429.071 55.5991C429.676 55.5991 430.184 55.3062 430.594 54.7202C431.009 54.1343 431.217 52.9624 431.217 51.2046C431.217 49.437 431.009 48.2627 430.594 47.6816C430.184 47.1006 429.671 46.8101 429.056 46.8101C428.451 46.8101 427.967 47.0664 427.606 47.5791C427.152 48.2334 426.925 49.4419 426.925 51.2046Z" fill="black"/>
</svg>
