<svg width="320" height="229" viewBox="0 0 320 229" fill="none" xmlns="http://www.w3.org/2000/svg">
<g clip-path="url(#clip0_43_444)">
<path fill-rule="evenodd" clip-rule="evenodd" d="M92.5723 211.175H96.3149V214.925H92.5723V211.175ZM92.5723 216.807H96.3149V229.007H92.5723V216.807ZM99.1252 217.087H102.8L102.909 218.383C103.317 217.905 103.855 217.53 104.521 217.237C105.188 216.944 105.882 216.807 106.61 216.807C108.046 216.807 109.189 217.217 110.033 218.028C110.877 218.84 111.299 220.046 111.299 221.635V229.007H107.461V222.147C107.461 221.485 107.291 220.96 106.944 220.572C106.597 220.183 106.114 219.985 105.494 219.985C105.066 219.985 104.698 220.06 104.379 220.203C104.059 220.347 103.793 220.537 103.582 220.776C103.371 221.015 103.208 221.288 103.106 221.601C103.004 221.915 102.95 222.249 102.95 222.604V229.007H99.1389V217.087H99.1252ZM115.082 224.786C115.497 225.154 116.035 225.461 116.709 225.706C117.382 225.952 118.029 226.075 118.655 226.075C119.226 226.075 119.703 226.006 120.077 225.863C120.451 225.72 120.642 225.454 120.642 225.052C120.642 224.895 120.601 224.752 120.519 224.622C120.438 224.493 120.288 224.37 120.077 224.254C119.866 224.138 119.56 224.022 119.179 223.899C118.791 223.777 118.308 223.64 117.716 223.477C117.233 223.354 116.75 223.19 116.28 222.992C115.804 222.795 115.382 222.542 115.014 222.242C114.647 221.942 114.354 221.588 114.13 221.165C113.905 220.742 113.796 220.258 113.796 219.699C113.796 219.14 113.932 218.601 114.198 218.137C114.463 217.673 114.837 217.271 115.314 216.93C115.79 216.589 116.355 216.33 117.008 216.146C117.661 215.962 118.369 215.873 119.118 215.873C120.193 215.873 121.132 215.989 121.942 216.228C122.751 216.466 123.493 216.807 124.174 217.264L122.534 219.753C122.118 219.494 121.649 219.255 121.125 219.044C120.594 218.833 120.002 218.73 119.335 218.73C118.743 218.73 118.315 218.812 118.042 218.983C117.77 219.146 117.641 219.371 117.641 219.651C117.641 220.053 117.92 220.353 118.471 220.544C119.029 220.735 119.778 220.953 120.73 221.199C122.023 221.547 122.955 222.031 123.541 222.645C124.126 223.258 124.412 224.07 124.412 225.086C124.412 225.768 124.255 226.354 123.942 226.845C123.629 227.336 123.207 227.738 122.676 228.066C122.146 228.386 121.547 228.632 120.873 228.789C120.2 228.945 119.512 229.027 118.818 229.027C117.689 229.027 116.62 228.877 115.62 228.584C114.62 228.284 113.803 227.834 113.17 227.22L115.082 224.806V224.786ZM126.283 211.175H130.026V214.925H126.283V211.175ZM126.283 216.807H130.026V229.007H126.283V216.807ZM132.836 211.175H136.579V229.007H132.836V211.175ZM139.389 211.175H143.132V214.925H139.389V211.175ZM139.389 216.807H143.132V229.007H139.389V216.807ZM157.156 226.961C156.625 227.52 155.924 228.004 155.053 228.407C154.182 228.809 153.155 229.007 151.964 229.007C150.923 229.007 149.97 228.843 149.12 228.523C148.269 228.202 147.541 227.745 146.935 227.159C146.33 226.572 145.86 225.877 145.52 225.072C145.18 224.268 145.01 223.388 145.01 222.426C145.01 221.519 145.187 220.667 145.534 219.869C145.881 219.071 146.364 218.376 146.976 217.783C147.589 217.189 148.324 216.719 149.174 216.378C150.025 216.037 150.957 215.866 151.964 215.866C153.135 215.866 154.155 216.05 155.013 216.419C155.87 216.787 156.598 217.278 157.183 217.885L154.795 220.347C154.502 220.033 154.142 219.753 153.72 219.508C153.298 219.262 152.74 219.14 152.046 219.14C151.569 219.14 151.141 219.228 150.766 219.412C150.392 219.596 150.072 219.835 149.807 220.135C149.542 220.435 149.337 220.776 149.201 221.172C149.065 221.567 148.997 221.983 148.997 222.42C148.997 222.822 149.065 223.217 149.201 223.613C149.337 224.008 149.542 224.356 149.807 224.663C150.072 224.97 150.392 225.215 150.766 225.413C151.141 225.604 151.569 225.7 152.046 225.7C152.726 225.7 153.291 225.57 153.747 225.318C154.203 225.065 154.57 224.786 154.849 224.493L157.156 226.954V226.961ZM164.689 225.72C165.138 225.72 165.54 225.631 165.887 225.447C166.234 225.263 166.533 225.018 166.771 224.704C167.009 224.39 167.193 224.036 167.309 223.647C167.424 223.251 167.486 222.849 167.486 222.433C167.486 222.017 167.424 221.608 167.309 221.219C167.193 220.824 167.016 220.476 166.771 220.169C166.533 219.862 166.234 219.617 165.887 219.44C165.54 219.262 165.138 219.167 164.689 219.167C164.24 219.167 163.838 219.255 163.478 219.44C163.117 219.624 162.824 219.869 162.593 220.169C162.362 220.476 162.178 220.824 162.056 221.219C161.933 221.615 161.865 222.017 161.865 222.433C161.865 222.849 161.926 223.258 162.056 223.647C162.185 224.036 162.362 224.39 162.593 224.704C162.824 225.018 163.124 225.27 163.478 225.447C163.838 225.631 164.24 225.72 164.689 225.72ZM158.122 222.42C158.122 221.513 158.286 220.66 158.606 219.862C158.925 219.065 159.374 218.369 159.946 217.776C160.518 217.182 161.212 216.712 162.022 216.371C162.831 216.03 163.723 215.86 164.696 215.86C165.669 215.86 166.553 216.03 167.356 216.371C168.153 216.712 168.84 217.182 169.418 217.776C169.997 218.369 170.439 219.065 170.759 219.862C171.079 220.66 171.242 221.513 171.242 222.42C171.242 223.327 171.079 224.179 170.759 224.977C170.439 225.775 169.99 226.47 169.418 227.063C168.847 227.657 168.159 228.127 167.356 228.482C166.56 228.83 165.669 229.007 164.696 229.007C163.723 229.007 162.831 228.83 162.022 228.482C161.212 228.134 160.524 227.663 159.946 227.063C159.374 226.47 158.925 225.775 158.606 224.977C158.286 224.179 158.122 223.327 158.122 222.42ZM172.637 224.779H177.319V228.529H172.637V224.779ZM190.874 226.954C190.343 227.513 189.642 227.998 188.771 228.4C187.9 228.802 186.872 229 185.682 229C184.64 229 183.688 228.836 182.837 228.516C181.987 228.195 181.259 227.738 180.653 227.152C180.047 226.566 179.578 225.87 179.238 225.065C178.897 224.261 178.727 223.381 178.727 222.42C178.727 221.513 178.904 220.66 179.251 219.862C179.598 219.065 180.081 218.369 180.694 217.776C181.306 217.182 182.041 216.712 182.892 216.371C183.742 216.03 184.675 215.86 185.682 215.86C186.852 215.86 187.873 216.044 188.73 216.412C189.594 216.78 190.316 217.271 190.901 217.878L188.512 220.34C188.22 220.026 187.859 219.746 187.437 219.501C187.015 219.255 186.457 219.133 185.763 219.133C185.287 219.133 184.858 219.221 184.484 219.405C184.11 219.59 183.79 219.828 183.525 220.128C183.259 220.428 183.055 220.769 182.919 221.165C182.783 221.56 182.715 221.976 182.715 222.413C182.715 222.815 182.783 223.211 182.919 223.606C183.055 224.002 183.259 224.349 183.525 224.656C183.79 224.963 184.11 225.209 184.484 225.406C184.858 225.604 185.287 225.693 185.763 225.693C186.444 225.693 187.009 225.563 187.464 225.311C187.92 225.059 188.288 224.779 188.567 224.486L190.874 226.947V226.954ZM197.937 225.713C198.386 225.713 198.788 225.625 199.135 225.44C199.482 225.256 199.781 225.011 200.019 224.697C200.257 224.383 200.441 224.029 200.557 223.64C200.672 223.251 200.734 222.842 200.734 222.426C200.734 222.01 200.672 221.601 200.557 221.213C200.441 220.817 200.264 220.469 200.019 220.162C199.781 219.856 199.482 219.61 199.135 219.433C198.788 219.249 198.386 219.16 197.937 219.16C197.488 219.16 197.086 219.249 196.726 219.433C196.365 219.617 196.072 219.862 195.841 220.162C195.61 220.469 195.426 220.817 195.304 221.213C195.181 221.608 195.113 222.01 195.113 222.426C195.113 222.842 195.174 223.251 195.304 223.64C195.433 224.029 195.61 224.383 195.841 224.697C196.072 225.011 196.372 225.263 196.726 225.44C197.08 225.618 197.488 225.713 197.937 225.713ZM191.37 222.413C191.37 221.506 191.534 220.653 191.854 219.856C192.173 219.058 192.622 218.362 193.194 217.769C193.766 217.176 194.46 216.705 195.269 216.364C196.079 216.023 196.971 215.853 197.944 215.853C198.917 215.853 199.801 216.023 200.604 216.364C201.401 216.705 202.088 217.176 202.666 217.769C203.245 218.362 203.687 219.058 204.007 219.856C204.327 220.653 204.49 221.506 204.49 222.413C204.49 223.32 204.327 224.172 204.007 224.97C203.687 225.768 203.238 226.463 202.666 227.057C202.095 227.65 201.407 228.12 200.604 228.475C199.801 228.83 198.917 229 197.944 229C196.971 229 196.079 228.823 195.269 228.475C194.46 228.127 193.772 227.657 193.194 227.057C192.622 226.463 192.173 225.768 191.854 224.97C191.534 224.172 191.37 223.32 191.37 222.413ZM206.824 217.073H210.567L210.703 218.396C211.104 217.939 211.608 217.558 212.22 217.251C212.833 216.944 213.561 216.794 214.391 216.794C214.894 216.794 215.35 216.842 215.745 216.944C216.146 217.046 216.494 217.176 216.793 217.339C217.092 217.503 217.351 217.68 217.582 217.871C217.814 218.062 217.991 218.26 218.14 218.444C218.664 217.919 219.304 217.51 220.052 217.223C220.801 216.937 221.583 216.794 222.4 216.794C224.026 216.794 225.272 217.223 226.129 218.089C226.986 218.955 227.415 220.128 227.415 221.622V228.993H223.509V222.208C223.509 221.499 223.339 220.947 223.006 220.558C222.672 220.169 222.169 219.971 221.502 219.971C220.74 219.971 220.134 220.217 219.685 220.708C219.236 221.199 219.004 221.826 219.004 222.59V228.993H215.235V222.208C215.235 221.499 215.065 220.947 214.731 220.558C214.398 220.169 213.894 219.971 213.227 219.971C212.486 219.971 211.887 220.217 211.424 220.708C210.961 221.199 210.73 221.826 210.73 222.59V228.993H206.824V217.073Z" fill="black"/>
<path fill-rule="evenodd" clip-rule="evenodd" d="M160.001 149.98C158.239 149.98 156.585 149.298 155.346 148.057L87.7209 80.3905C85.1555 77.8196 85.1555 73.6395 87.7209 71.0755L155.346 3.40249C156.585 2.1614 158.239 1.47949 160.001 1.47949C161.763 1.47949 163.417 2.1614 164.655 3.40249L232.281 71.0687C234.846 73.6395 234.846 77.8196 232.281 80.3836L164.655 148.05C163.417 149.291 161.763 149.973 160.001 149.973" fill="#4AA045"/>
<path fill-rule="evenodd" clip-rule="evenodd" d="M160.001 2.9595C161.307 2.9595 162.621 3.4573 163.607 4.44607L231.233 72.1123C233.22 74.0967 233.22 77.3494 231.233 79.3338L163.607 147C162.614 147.996 161.307 148.487 160.001 148.487C158.694 148.487 157.381 147.989 156.394 147L88.7687 79.3338C86.7817 77.3494 86.7817 74.0967 88.7687 72.1123L156.394 4.45289C157.388 3.4573 158.694 2.96632 160.001 2.96632M160.001 0.00681913C157.844 0.00681913 155.816 0.845572 154.298 2.36624L86.6728 70.0325C85.1553 71.5531 84.3184 73.5784 84.3184 75.7401C84.3184 77.9017 85.1553 79.927 86.6728 81.4477L154.298 149.114C155.816 150.635 157.844 151.473 160.001 151.473C162.158 151.473 164.186 150.635 165.703 149.114L233.329 81.4477C234.846 79.927 235.683 77.9017 235.683 75.7401C235.683 73.5784 234.846 71.5531 233.329 70.0325L165.703 2.35942C164.186 0.838753 162.158 0 160.001 0" fill="white"/>
<path fill-rule="evenodd" clip-rule="evenodd" d="M227.538 75.7328L226.599 74.7918L160.94 9.09631L160.001 8.15527L159.062 9.09631L93.4098 74.7918L92.4707 75.7328L93.4098 76.6739L159.062 142.369L160.001 143.31L160.94 142.369L226.592 76.6739L227.531 75.7328H227.538ZM209.621 63.6493C209.682 62.9129 210.302 62.3264 211.057 62.3264C211.853 62.3264 212.5 62.9742 212.5 63.7721C212.5 64.5699 211.853 65.2177 211.057 65.2177C210.302 65.2177 209.682 64.6381 209.621 63.8948C209.635 63.8539 209.642 63.813 209.642 63.7721C209.642 63.7312 209.642 63.6903 209.621 63.6493ZM205.661 55.7323C205.62 56.4961 204.994 57.103 204.218 57.103C203.442 57.103 202.776 56.4552 202.776 55.6573C202.776 54.8595 203.381 54.2526 204.143 54.2185L205.654 55.7323H205.661ZM181.504 31.5585C181.463 32.3223 180.837 32.9292 180.061 32.9292C179.286 32.9292 178.619 32.2814 178.619 31.4835C178.619 30.6857 179.224 30.0788 179.987 30.0447L181.497 31.5585H181.504ZM173.4 24.6439C173.4 25.4009 172.814 26.0214 172.079 26.0828C172.039 26.0759 171.998 26.0691 171.957 26.0691C171.916 26.0691 171.875 26.0759 171.834 26.0828C171.1 26.0214 170.514 25.4009 170.514 24.6439C170.514 23.8461 171.161 23.1983 171.957 23.1983C172.753 23.1983 173.4 23.8461 173.4 24.6439ZM148.045 23.1983C148.841 23.1983 149.488 23.8461 149.488 24.6439C149.488 25.4418 148.909 26.0214 148.168 26.0828C148.127 26.0759 148.086 26.0691 148.045 26.0691C148.004 26.0691 147.963 26.0759 147.923 26.0828C147.181 26.0214 146.602 25.4009 146.602 24.6439C146.602 23.8461 147.249 23.1983 148.045 23.1983ZM140.009 30.0447C140.771 30.0856 141.376 30.713 141.376 31.4835C141.376 32.2541 140.73 32.9292 139.934 32.9292C139.138 32.9292 138.532 32.3223 138.498 31.5585L140.009 30.0447ZM115.852 54.2117C116.614 54.2526 117.22 54.8799 117.22 55.6505C117.22 56.4211 116.573 57.0962 115.777 57.0962C114.981 57.0962 114.375 56.4893 114.341 55.7255L115.852 54.2117ZM110.374 63.888C110.313 64.6245 109.694 65.2109 108.938 65.2109C108.142 65.2109 107.496 64.5631 107.496 63.7653C107.496 62.9674 108.142 62.3196 108.938 62.3196C109.694 62.3196 110.313 62.8992 110.374 63.6425C110.36 63.6834 110.36 63.7244 110.36 63.7653C110.36 63.8062 110.36 63.8471 110.374 63.888ZM110.374 87.8163C110.313 88.5528 109.694 89.1393 108.938 89.1393C108.142 89.1393 107.496 88.4914 107.496 87.6936C107.496 86.8958 108.142 86.2479 108.938 86.2479C109.694 86.2479 110.313 86.8344 110.374 87.5708C110.36 87.6118 110.36 87.6527 110.36 87.6936C110.36 87.7345 110.36 87.7754 110.374 87.8163ZM114.334 95.7402C114.375 94.9764 115.001 94.3695 115.77 94.3695C116.539 94.3695 117.213 95.0173 117.213 95.8152C117.213 96.613 116.607 97.2199 115.845 97.254L114.334 95.7402ZM138.491 119.907C138.532 119.143 139.158 118.537 139.927 118.537C140.696 118.537 141.37 119.184 141.37 119.982C141.37 120.78 140.764 121.387 140.002 121.421L138.491 119.907ZM146.596 126.822C146.596 126.065 147.181 125.444 147.916 125.383C147.957 125.397 147.997 125.403 148.038 125.403C148.079 125.403 148.12 125.403 148.161 125.383C148.902 125.444 149.481 126.065 149.481 126.822C149.481 127.62 148.834 128.267 148.038 128.267C147.242 128.267 146.596 127.62 146.596 126.822ZM159.994 141.428L147.95 129.372C147.95 129.372 148.011 129.372 148.038 129.372C149.447 129.372 150.59 128.226 150.59 126.815C150.59 125.581 149.705 124.544 148.535 124.312V114.677L157.939 105.266C158.034 105.171 158.089 105.048 158.089 104.912V100.657H159.035V89.4393C159.463 89.4393 159.783 89.4393 159.94 89.4393C160.11 89.4393 160.471 89.4393 160.954 89.4393V100.657H161.9V104.912C161.9 105.041 161.954 105.171 162.042 105.266L171.447 114.677V124.312C170.276 124.544 169.392 125.581 169.392 126.815C169.392 128.226 170.535 129.372 171.943 129.372C171.977 129.372 172.005 129.372 172.032 129.372L159.987 141.428H159.994ZM171.95 128.267C171.154 128.267 170.508 127.62 170.508 126.822C170.508 126.065 171.093 125.444 171.828 125.383C171.868 125.397 171.909 125.403 171.95 125.403C171.991 125.403 172.032 125.403 172.073 125.383C172.814 125.444 173.393 126.065 173.393 126.822C173.393 127.62 172.746 128.267 171.95 128.267ZM179.987 121.421C179.224 121.38 178.619 120.753 178.619 119.982C178.619 119.212 179.265 118.537 180.061 118.537C180.858 118.537 181.463 119.143 181.504 119.907L179.993 121.421H179.987ZM204.143 97.2472C203.381 97.2063 202.776 96.5789 202.776 95.8084C202.776 95.0378 203.422 94.3627 204.218 94.3627C205.014 94.3627 205.62 94.9696 205.661 95.7333L204.15 97.2472H204.143ZM209.621 87.5708C209.682 86.8344 210.302 86.2479 211.057 86.2479C211.853 86.2479 212.5 86.8958 212.5 87.6936C212.5 88.4914 211.853 89.1393 211.057 89.1393C210.302 89.1393 209.682 88.5596 209.621 87.8163C209.635 87.7754 209.642 87.7345 209.642 87.6936C209.642 87.6527 209.642 87.6118 209.621 87.5708ZM213.609 87.7822C213.609 87.7822 213.609 87.7209 213.609 87.6936C213.609 86.282 212.466 85.1432 211.057 85.1432C209.819 85.1432 208.791 86.0297 208.553 87.1958H198.924L189.52 77.7854C189.425 77.6899 189.302 77.6422 189.166 77.6422H184.913V76.6943H178.034V79.5856H184.913V78.6378H188.962L198.366 88.0482C198.461 88.1437 198.591 88.1982 198.72 88.1982H208.56C208.791 89.3643 209.825 90.2508 211.064 90.2508C211.098 90.2508 211.125 90.2508 211.152 90.2508L206.579 94.8264C206.226 93.9808 205.423 93.3603 204.47 93.2716V90.8781C204.47 90.6054 204.245 90.3803 203.973 90.3803H197.754L189.602 82.2247C189.506 82.1292 189.384 82.0746 189.248 82.0746H184.92V81.1336H178.04V84.0181H184.92V83.077H189.044L197.189 91.2327C197.284 91.3282 197.407 91.3759 197.543 91.3759H203.47V93.3671C202.429 93.6944 201.673 94.6627 201.673 95.8084C201.673 96.8653 202.32 97.7723 203.238 98.161L198.448 102.955V95.7606C198.448 95.6311 198.393 95.5015 198.305 95.406L189.568 86.6639C189.472 86.5684 189.35 86.5139 189.214 86.5139H184.92V85.5728H178.04V88.4573H184.92V87.5163H189.003L197.448 95.9652V103.957L193.671 107.735V95.7197C193.671 95.5901 193.616 95.4606 193.528 95.3651L189.268 91.1032C189.173 91.0077 189.05 90.9531 188.914 90.9531H184.92V90.0121H178.04V92.8966H184.92V91.9556H188.71L192.677 95.9243V108.417H180.197L176.23 104.448V100.657H177.176V93.7694H174.291V100.657H175.237V104.653C175.237 104.782 175.291 104.912 175.387 105.007L179.646 109.269C179.742 109.365 179.864 109.413 180 109.413H192.011L188.234 113.19H180.252L171.807 104.741V100.657H172.753V93.7694H169.868V100.657H170.807V104.953C170.807 105.089 170.861 105.212 170.957 105.307L179.694 114.05C179.789 114.145 179.912 114.2 180.048 114.2H187.24L182.45 118.993C182.062 118.073 181.157 117.425 180.095 117.425C178.952 117.425 177.979 118.182 177.659 119.218H175.666V113.286C175.666 113.149 175.611 113.027 175.516 112.931L167.371 104.776V100.65H168.31V93.7626H165.424V100.65H166.37V104.98C166.37 105.116 166.425 105.239 166.513 105.335L174.658 113.49V119.716C174.658 119.989 174.883 120.214 175.155 120.214H177.544C177.632 121.169 178.251 121.973 179.095 122.328L174.522 126.904C174.522 126.904 174.522 126.842 174.522 126.815C174.522 125.581 173.638 124.544 172.467 124.312V114.472C172.467 114.336 172.413 114.213 172.324 114.118L162.92 104.707V100.657H163.866V89.4529C166.384 89.4529 169.283 89.4529 169.97 89.4393C171.249 89.4052 172.726 88.4028 172.767 86.9571C172.801 85.5115 172.358 83.9567 171.249 82.5929C170.14 81.2222 163.519 72.1937 163.519 72.1937C163.519 72.1937 163.594 64.9041 163.594 63.8676C163.594 62.8311 164.962 61.7127 164.962 61.7127H155.197C155.197 61.7127 156.565 62.8311 156.565 63.8676C156.565 64.9041 156.639 72.1937 156.639 72.1937C156.639 72.1937 150.018 81.2222 148.909 82.5929C147.8 83.9635 147.358 85.5183 147.392 86.9571C147.426 88.4028 148.909 89.3984 150.182 89.4393C150.876 89.4598 153.713 89.4597 156.177 89.4529V100.657H157.123V104.707L147.718 114.118C147.623 114.213 147.569 114.336 147.569 114.472V124.312C146.398 124.544 145.514 125.581 145.514 126.815C145.514 126.849 145.514 126.876 145.514 126.904L140.941 122.321C141.792 121.967 142.404 121.162 142.492 120.207H144.881C145.153 120.207 145.378 119.982 145.378 119.709V113.484L153.523 105.328C153.618 105.232 153.673 105.11 153.673 104.973V100.643H154.618V93.7558H151.733V100.643H152.679V104.769L144.534 112.924C144.439 113.02 144.384 113.143 144.384 113.279V119.212H142.39C142.064 118.175 141.097 117.418 139.954 117.418C138.899 117.418 137.988 118.066 137.6 118.987L132.809 114.193H140.002C140.138 114.193 140.26 114.138 140.356 114.043L149.093 105.301C149.188 105.205 149.243 105.082 149.243 104.946V100.65H150.189V93.7626H147.303V100.65H148.249V104.735L139.805 113.183H131.823L128.046 109.406H140.056C140.186 109.406 140.315 109.351 140.41 109.262L144.67 105.001C144.765 104.905 144.813 104.782 144.813 104.646V100.65H145.759V93.7626H142.873V100.65H143.819V104.441L139.852 108.41H127.372V95.9175L131.339 91.9487H135.13V92.8898H142.009V90.0053H135.13V90.9463H131.135C131.006 90.9463 130.877 91.0009 130.781 91.0963L126.522 95.3583C126.426 95.4538 126.379 95.5765 126.379 95.7129V107.728L122.602 103.95V95.9584L131.047 87.5095H135.13V88.4505H142.009V85.566H135.13V86.5071H130.836C130.707 86.5071 130.577 86.5616 130.482 86.6571L121.745 95.3992C121.649 95.4947 121.602 95.6174 121.602 95.7538V102.948L116.811 98.1541C117.73 97.7654 118.376 96.8585 118.376 95.8015C118.376 94.6559 117.621 93.6876 116.58 93.3603V91.3691H122.507C122.643 91.3691 122.765 91.3146 122.861 91.2259L131.006 83.0702H135.13V84.0113H142.009V81.1268H135.13V82.0746H130.802C130.673 82.0746 130.543 82.1292 130.448 82.2178L122.296 90.3735H116.076C115.804 90.3735 115.58 90.5985 115.58 90.8713V93.2648C114.627 93.3535 113.824 93.974 113.47 94.8196L108.891 90.2439C108.891 90.2439 108.952 90.2439 108.979 90.2439C110.217 90.2439 111.252 89.3575 111.483 88.1914H121.323C121.452 88.1914 121.581 88.1368 121.677 88.0414L131.081 78.631H135.13V79.5788H142.009V76.6875H135.13V77.6286H130.877C130.747 77.6286 130.618 77.6831 130.523 77.7718L121.119 87.1822H111.49C111.259 86.0161 110.224 85.1296 108.986 85.1296C107.577 85.1296 106.434 86.2752 106.434 87.68C106.434 87.7141 106.434 87.7413 106.434 87.7686L94.3896 75.7124L106.434 63.6562C106.434 63.6562 106.434 63.7175 106.434 63.7448C106.434 65.1496 107.577 66.302 108.986 66.302C110.224 66.302 111.259 65.4155 111.49 64.2494H121.119L130.523 73.6598C130.618 73.7553 130.741 73.803 130.877 73.803H135.13V74.7509H142.009V71.8664H135.13V72.8074H131.081L121.677 63.397C121.581 63.3016 121.459 63.247 121.323 63.247H111.483C111.252 62.0809 110.217 61.1945 108.979 61.1945C108.952 61.1945 108.918 61.1945 108.891 61.1945L113.47 56.6188C113.824 57.4644 114.627 58.0849 115.58 58.1736V60.5603C115.58 60.8399 115.804 61.0581 116.076 61.0581H122.296L130.448 69.2138C130.543 69.3092 130.666 69.3638 130.802 69.3638H135.13V70.3048H142.009V67.4203H135.13V68.3614H131.006L122.861 60.2057C122.765 60.1102 122.643 60.0625 122.507 60.0625H116.58V58.0713C117.621 57.744 118.376 56.7757 118.376 55.6301C118.376 54.5731 117.73 53.6661 116.811 53.2774L121.602 48.4836V55.6778C121.602 55.8073 121.656 55.9369 121.745 56.0324L130.482 64.7745C130.577 64.87 130.707 64.9245 130.836 64.9245H135.13V65.8656H142.009V62.9811H135.13V63.9289H131.047L122.602 55.48V47.4948L126.379 43.717V55.7323C126.379 55.8619 126.433 55.9915 126.522 56.0869L130.781 60.3489C130.877 60.4444 130.999 60.4921 131.135 60.4921H135.13V61.4399H142.009V58.5486H135.13V59.4897H131.339L127.372 55.5209V43.0283H139.852L143.819 46.997V50.7885H142.873V57.6758H145.759V50.7885H144.813V46.7925C144.813 46.6629 144.758 46.5333 144.67 46.4379L140.41 42.1759C140.315 42.0804 140.192 42.0327 140.056 42.0327H128.046L131.823 38.2549H139.805L148.249 46.7038V50.7885H147.303V57.6758H150.189V50.7885H149.243V46.4924C149.243 46.3629 149.188 46.2333 149.093 46.1378L140.356 37.3957C140.26 37.3002 140.138 37.2525 140.002 37.2525H132.809L137.6 32.4586C137.988 33.3792 138.893 34.0271 139.954 34.0271C141.097 34.0271 142.07 33.2701 142.39 32.2336H144.384V38.1663C144.384 38.2958 144.439 38.4254 144.534 38.5209L152.679 46.6765V50.8021H151.733V57.6894H154.618V50.8021H153.673V46.472C153.673 46.3424 153.618 46.2128 153.53 46.1174L145.384 37.9617V31.7358C145.384 31.4562 145.16 31.238 144.888 31.238H142.499C142.411 30.2833 141.792 29.4855 140.948 29.1241L145.521 24.5416C145.521 24.5416 145.521 24.603 145.521 24.6303C145.521 25.8646 146.405 26.9011 147.576 27.1329V36.9797C147.576 37.1093 147.63 37.2389 147.725 37.3343L157.129 46.7447V50.7953H156.184V57.6826H159.069V50.7953H158.123V46.5402C158.123 46.4106 158.068 46.281 157.98 46.1856L148.576 36.7752V27.1397C149.746 26.9079 150.631 25.8714 150.631 24.6371C150.631 23.2324 149.488 22.0868 148.079 22.0868C148.052 22.0868 148.018 22.0868 147.991 22.0868L160.035 10.0305L172.079 22.0868C172.079 22.0868 172.018 22.0868 171.991 22.0868C170.582 22.0868 169.439 23.2324 169.439 24.6371C169.439 25.8714 170.324 26.9079 171.494 27.1397V36.7752L162.09 46.1856C161.995 46.281 161.947 46.4038 161.947 46.5402V50.7953H161.001V57.6826H163.887V50.7953H162.941V46.7447L172.345 37.3343C172.44 37.2389 172.495 37.1161 172.495 36.9797V27.1329C173.665 26.9011 174.55 25.8646 174.55 24.6303C174.55 24.603 174.55 24.5689 174.55 24.5416L179.122 29.1241C178.272 29.4787 177.659 30.2833 177.571 31.238H175.182C174.91 31.238 174.686 31.4631 174.686 31.7358V37.9617L166.54 46.1174C166.445 46.2128 166.397 46.3356 166.397 46.472V50.8021H165.452V57.6894H168.337V50.8021H167.398V46.6765L175.543 38.5209C175.638 38.4254 175.693 38.3026 175.693 38.1663V32.2336H177.687C178.013 33.2701 178.979 34.0271 180.123 34.0271C181.184 34.0271 182.089 33.3792 182.477 32.4586L187.268 37.2525H180.075C179.946 37.2525 179.816 37.3071 179.721 37.3957L170.984 46.1378C170.889 46.2333 170.834 46.356 170.834 46.4924V50.7885H169.895V57.6758H172.78V50.7885H171.834V46.7038L180.279 38.2549H188.261L192.038 42.0327H180.027C179.898 42.0327 179.769 42.0873 179.674 42.1759L175.414 46.4379C175.318 46.5333 175.264 46.6561 175.264 46.7925V50.7885H174.318V57.6758H177.203V50.7885H176.258V46.997L180.225 43.0283H192.705V55.5209L188.737 59.4897H184.947V58.5486H178.068V61.4399H184.947V60.4921H188.942C189.078 60.4921 189.2 60.4375 189.295 60.3489L193.555 56.0869C193.65 55.9915 193.698 55.8687 193.698 55.7323V43.717L197.475 47.4948V55.48L189.03 63.9289H184.947V62.9811H178.068V65.8656H184.947V64.9245H189.241C189.37 64.9245 189.5 64.87 189.595 64.7745L198.332 56.0324C198.427 55.9369 198.475 55.8142 198.475 55.6778V48.4836L203.266 53.2774C202.347 53.6661 201.7 54.5731 201.7 55.6301C201.7 56.7757 202.456 57.744 203.497 58.0713V60.0625H197.57C197.441 60.0625 197.311 60.117 197.216 60.2125L189.071 68.3682H184.947V67.4271H178.068V70.3116H184.947V69.3706H189.275C189.404 69.3706 189.534 69.316 189.629 69.2206L197.781 61.0649H204.001C204.279 61.0649 204.497 60.8399 204.497 60.5671V58.1804C205.45 58.0918 206.253 57.4712 206.607 56.6256L211.18 61.2081C211.18 61.2081 211.118 61.2081 211.091 61.2081C209.853 61.2081 208.825 62.0946 208.587 63.2607H198.747C198.618 63.2607 198.489 63.3152 198.393 63.4107L188.989 72.8211H184.94V71.88H178.061V74.7645H184.94V73.8167H189.193C189.323 73.8167 189.452 73.7621 189.547 73.6735L198.951 64.2631H208.58C208.811 65.4291 209.846 66.3156 211.084 66.3156C212.493 66.3156 213.636 65.17 213.636 63.7653C213.636 63.7312 213.636 63.7039 213.636 63.6766L225.68 75.7328L213.636 87.7891L213.609 87.7822Z" fill="white"/>
<path fill-rule="evenodd" clip-rule="evenodd" d="M164.145 27.1945C165.553 27.1945 166.696 26.0488 166.696 24.6441C166.696 23.2394 165.553 22.0938 164.145 22.0938C163.015 22.0938 162.062 22.8302 161.722 23.8463H158.279C157.946 22.8302 156.986 22.0938 155.856 22.0938C154.448 22.0938 153.305 23.2394 153.305 24.6441C153.305 26.0488 154.448 27.1945 155.856 27.1945C157.163 27.1945 158.245 26.2057 158.388 24.9305H161.6C161.743 26.1989 162.825 27.1945 164.131 27.1945M164.131 23.1984C164.927 23.1984 165.574 23.8463 165.574 24.6441C165.574 25.4419 164.927 26.0898 164.131 26.0898C163.335 26.0898 162.688 25.4419 162.688 24.6441C162.688 23.8463 163.335 23.1984 164.131 23.1984ZM155.85 26.0829C155.054 26.0829 154.407 25.4351 154.407 24.6373C154.407 23.8394 155.054 23.1916 155.85 23.1916C156.646 23.1916 157.292 23.8394 157.292 24.6373C157.292 25.4351 156.646 26.0829 155.85 26.0829Z" fill="white"/>
<path fill-rule="evenodd" clip-rule="evenodd" d="M164.145 124.271C162.838 124.271 161.756 125.26 161.613 126.535H158.402C158.259 125.267 157.177 124.271 155.87 124.271C154.462 124.271 153.318 125.417 153.318 126.829C153.318 128.24 154.462 129.379 155.87 129.379C157 129.379 157.952 128.643 158.293 127.626H161.736C162.076 128.643 163.029 129.379 164.158 129.379C165.567 129.379 166.71 128.233 166.71 126.829C166.71 125.424 165.567 124.271 164.158 124.271M155.877 128.267C155.081 128.267 154.434 127.62 154.434 126.822C154.434 126.024 155.081 125.376 155.877 125.376C156.673 125.376 157.32 126.024 157.32 126.822C157.32 127.62 156.673 128.267 155.877 128.267ZM164.158 128.267C163.362 128.267 162.716 127.62 162.716 126.822C162.716 126.024 163.362 125.376 164.158 125.376C164.954 125.376 165.601 126.024 165.601 126.822C165.601 127.62 164.954 128.267 164.158 128.267Z" fill="white"/>
<path fill-rule="evenodd" clip-rule="evenodd" d="M111.49 71.5874C111.49 70.1759 110.347 69.0303 108.938 69.0303C107.53 69.0303 106.387 70.1759 106.387 71.5874C106.387 72.7126 107.122 73.6741 108.136 74.0082V77.4519C107.122 77.786 106.387 78.7475 106.387 79.8727C106.387 81.2842 107.53 82.4299 108.938 82.4299C110.347 82.4299 111.49 81.2842 111.49 79.8727C111.49 78.5634 110.497 77.4792 109.231 77.336V74.1173C110.504 73.9741 111.49 72.8899 111.49 71.5806M110.381 79.8659C110.381 80.6637 109.735 81.3115 108.938 81.3115C108.142 81.3115 107.496 80.6637 107.496 79.8659C107.496 79.068 108.142 78.4202 108.938 78.4202C109.735 78.4202 110.381 79.068 110.381 79.8659ZM108.938 73.0195C108.142 73.0195 107.496 72.3716 107.496 71.5738C107.496 70.776 108.142 70.1281 108.938 70.1281C109.735 70.1281 110.381 70.776 110.381 71.5738C110.381 72.3716 109.735 73.0195 108.938 73.0195Z" fill="white"/>
<path fill-rule="evenodd" clip-rule="evenodd" d="M213.615 71.5874C213.615 70.1759 212.472 69.0303 211.063 69.0303C209.655 69.0303 208.512 70.1759 208.512 71.5874C208.512 72.8967 209.505 73.9741 210.771 74.1242V77.3428C209.498 77.486 208.512 78.5702 208.512 79.8795C208.512 81.2911 209.655 82.4367 211.063 82.4367C212.472 82.4367 213.615 81.2911 213.615 79.8795C213.615 78.7543 212.88 77.7928 211.866 77.4587V74.0151C212.88 73.6741 213.615 72.7194 213.615 71.5943M212.506 79.8795C212.506 80.6773 211.86 81.3252 211.063 81.3252C210.267 81.3252 209.621 80.6773 209.621 79.8795C209.621 79.0817 210.267 78.4338 211.063 78.4338C211.86 78.4338 212.506 79.0817 212.506 79.8795ZM211.063 73.0331C210.267 73.0331 209.621 72.3853 209.621 71.5874C209.621 70.7896 210.267 70.1418 211.063 70.1418C211.86 70.1418 212.506 70.7896 212.506 71.5874C212.506 72.3853 211.86 73.0331 211.063 73.0331Z" fill="white"/>
<path fill-rule="evenodd" clip-rule="evenodd" d="M314.162 185.944C314.162 185.514 314.073 185.078 313.903 184.628C313.733 184.184 313.474 183.775 313.127 183.4C312.787 183.025 312.351 182.718 311.841 182.473C311.324 182.227 310.712 182.105 309.997 182.105C309.283 182.105 308.65 182.227 308.105 182.473C307.561 182.718 307.112 183.025 306.751 183.4C306.391 183.775 306.118 184.184 305.935 184.628C305.751 185.071 305.656 185.507 305.656 185.944H314.162ZM319.571 195.975C319.34 196.118 319 196.357 318.544 196.684C318.088 197.011 317.489 197.339 316.761 197.652C316.033 197.966 315.162 198.245 314.162 198.491C313.161 198.736 312.011 198.859 310.725 198.859C309.01 198.859 307.459 198.593 306.084 198.061C304.71 197.529 303.546 196.793 302.587 195.845C301.627 194.897 300.899 193.758 300.396 192.422C299.892 191.085 299.647 189.619 299.647 188.01C299.647 186.605 299.885 185.248 300.355 183.946C300.824 182.643 301.505 181.498 302.396 180.523C303.281 179.547 304.37 178.763 305.662 178.177C306.949 177.59 308.412 177.297 310.045 177.297C311.678 177.297 313.107 177.583 314.338 178.156C315.57 178.729 316.604 179.527 317.455 180.543C318.299 181.559 318.938 182.78 319.367 184.205C319.796 185.623 320.014 187.185 320.014 188.876V189.906H305.669C305.696 190.997 306.18 191.951 307.105 192.77C308.03 193.588 309.317 193.997 310.95 193.997C312.583 193.997 313.855 193.758 314.856 193.288C315.856 192.817 316.591 192.408 317.047 192.06L319.578 195.975H319.571ZM275.824 177.986H281.751L281.921 180.182C282.581 179.377 283.445 178.729 284.52 178.245C285.595 177.754 286.718 177.515 287.895 177.515C290.216 177.515 292.053 178.204 293.414 179.581C294.775 180.959 295.455 182.998 295.455 185.691V198.177H289.27V186.557C289.27 185.439 288.991 184.546 288.433 183.891C287.875 183.23 287.092 182.902 286.092 182.902C285.405 182.902 284.806 183.025 284.289 183.271C283.772 183.516 283.343 183.837 283.003 184.239C282.656 184.641 282.404 185.105 282.227 185.637C282.057 186.169 281.968 186.735 281.968 187.335V198.184H275.824V177.999V177.986ZM264.249 177.986H270.434V198.17H264.249V177.986ZM264.031 169.462H270.645V175.013H264.031V169.462ZM260.622 195.504C259.792 196.425 258.696 197.209 257.335 197.87C255.974 198.532 254.361 198.859 252.504 198.859C250.871 198.859 249.387 198.593 248.06 198.061C246.727 197.529 245.59 196.786 244.644 195.825C243.698 194.863 242.963 193.724 242.433 192.401C241.902 191.079 241.637 189.633 241.637 188.051C241.637 186.557 241.909 185.16 242.453 183.857C242.997 182.555 243.746 181.409 244.705 180.434C245.665 179.459 246.808 178.688 248.142 178.129C249.476 177.57 250.925 177.29 252.504 177.29C254.334 177.29 255.927 177.59 257.274 178.197C258.621 178.797 259.751 179.602 260.669 180.604L256.934 184.648C256.478 184.13 255.92 183.673 255.26 183.271C254.6 182.868 253.729 182.671 252.64 182.671C251.898 182.671 251.231 182.821 250.639 183.121C250.047 183.421 249.55 183.816 249.135 184.307C248.72 184.798 248.407 185.364 248.19 186.005C247.972 186.653 247.87 187.335 247.87 188.051C247.87 188.712 247.979 189.367 248.19 190.008C248.407 190.656 248.72 191.229 249.135 191.726C249.55 192.231 250.054 192.64 250.639 192.954C251.224 193.267 251.891 193.424 252.64 193.424C253.701 193.424 254.586 193.213 255.3 192.797C256.015 192.381 256.587 191.931 257.015 191.44L260.622 195.484V195.504ZM231.008 177.986H237.193V198.17H231.008V177.986ZM230.79 169.462H237.404V175.013H230.79V169.462ZM219.514 183.537C219.086 183.277 218.616 183.093 218.119 182.977C217.616 182.861 216.997 182.807 216.248 182.807C214.676 182.807 213.451 183.339 212.573 184.403C211.702 185.466 211.26 186.83 211.26 188.494C211.26 189.96 211.621 191.154 212.335 192.088C213.05 193.022 214.125 193.486 215.554 193.486C216.241 193.486 216.833 193.363 217.337 193.117C217.84 192.872 218.255 192.551 218.582 192.149C218.909 191.747 219.147 191.276 219.29 190.731C219.433 190.185 219.507 189.626 219.507 189.053V183.543L219.514 183.537ZM219.644 196.145C219.011 196.888 218.208 197.516 217.214 198.02C216.228 198.525 215.105 198.771 213.839 198.771C212.573 198.771 211.458 198.525 210.382 198.041C209.307 197.55 208.375 196.854 207.592 195.954C206.803 195.047 206.184 193.963 205.721 192.681C205.258 191.399 205.034 189.96 205.034 188.358C205.034 186.551 205.354 184.962 206 183.605C206.647 182.241 207.477 181.116 208.491 180.222C209.505 179.336 210.641 178.668 211.886 178.218C213.131 177.774 214.356 177.549 215.561 177.549C216.534 177.549 217.296 177.611 217.84 177.74C218.385 177.87 218.943 178.034 219.514 178.238V169.455H225.659V198.164H219.902L219.644 196.138V196.145ZM195.956 185.944C195.956 185.514 195.868 185.078 195.698 184.628C195.528 184.184 195.269 183.775 194.922 183.4C194.582 183.025 194.146 182.718 193.636 182.473C193.119 182.227 192.506 182.105 191.792 182.105C191.077 182.105 190.444 182.227 189.9 182.473C189.356 182.718 188.907 183.025 188.546 183.4C188.185 183.775 187.913 184.184 187.729 184.628C187.546 185.071 187.45 185.507 187.45 185.944H195.956ZM201.366 195.975C201.135 196.118 200.794 196.357 200.339 196.684C199.883 197.011 199.284 197.339 198.556 197.652C197.828 197.966 196.957 198.245 195.956 198.491C194.956 198.736 193.806 198.859 192.52 198.859C190.805 198.859 189.254 198.593 187.879 198.061C186.504 197.529 185.341 196.793 184.381 195.845C183.422 194.897 182.694 193.758 182.19 192.422C181.687 191.085 181.442 189.619 181.442 188.01C181.442 186.605 181.68 185.248 182.149 183.946C182.619 182.643 183.299 181.498 184.191 180.523C185.075 179.547 186.164 178.763 187.457 178.177C188.743 177.59 190.206 177.297 191.839 177.297C193.473 177.297 194.902 177.583 196.133 178.156C197.365 178.729 198.399 179.527 199.25 180.543C200.094 181.559 200.733 182.78 201.162 184.205C201.591 185.623 201.808 187.185 201.808 188.876V189.906H187.464C187.491 190.997 187.974 191.951 188.9 192.77C189.832 193.588 191.111 193.997 192.744 193.997C194.378 193.997 195.65 193.758 196.65 193.288C197.651 192.817 198.386 192.408 198.841 192.06L201.373 195.975H201.366ZM148.691 169.462H154.835L162.307 182.936L169.608 169.462H175.794L177.128 198.17H170.643L169.826 179.404L163.899 190.594H160.551L154.277 179.534L153.549 198.17H147.364L148.697 169.462H148.691ZM113 188.058C113 186.564 113.265 185.166 113.796 183.864C114.327 182.561 115.061 181.416 116.007 180.441C116.953 179.466 118.09 178.695 119.423 178.136C120.757 177.577 122.22 177.297 123.826 177.297C125.432 177.297 126.888 177.577 128.208 178.136C129.528 178.695 130.658 179.466 131.604 180.441C132.55 181.416 133.285 182.555 133.815 183.864C134.346 185.166 134.611 186.571 134.611 188.058C134.611 189.544 134.346 190.949 133.815 192.251C133.285 193.554 132.55 194.7 131.604 195.675C130.658 196.65 129.528 197.427 128.208 198C126.888 198.573 125.432 198.859 123.826 198.859C122.22 198.859 120.757 198.573 119.423 198C118.09 197.427 116.953 196.65 116.007 195.675C115.061 194.7 114.327 193.561 113.796 192.251C113.265 190.949 113 189.544 113 188.058ZM123.826 193.479C124.602 193.479 125.289 193.329 125.888 193.029C126.487 192.729 126.997 192.32 127.412 191.801C127.827 191.283 128.133 190.703 128.338 190.056C128.535 189.408 128.637 188.74 128.637 188.051C128.637 187.362 128.535 186.694 128.338 186.046C128.14 185.398 127.827 184.825 127.412 184.328C126.997 183.823 126.487 183.421 125.888 183.121C125.289 182.821 124.602 182.671 123.826 182.671C123.05 182.671 122.356 182.821 121.744 183.121C121.131 183.421 120.621 183.823 120.219 184.328C119.818 184.832 119.512 185.405 119.294 186.046C119.076 186.694 118.974 187.362 118.974 188.051C118.974 188.74 119.083 189.408 119.294 190.056C119.512 190.703 119.818 191.283 120.219 191.801C120.621 192.32 121.131 192.729 121.744 193.029C122.356 193.329 123.057 193.479 123.826 193.479ZM111.094 195.504C110.264 196.425 109.169 197.209 107.808 197.87C106.447 198.532 104.834 198.859 102.976 198.859C101.343 198.859 99.8597 198.593 98.5327 198.061C97.199 197.529 96.0626 196.786 95.1167 195.825C94.1709 194.863 93.436 193.724 92.9052 192.401C92.3744 191.079 92.109 189.633 92.109 188.051C92.109 186.557 92.3812 185.16 92.9256 183.857C93.47 182.555 94.2185 181.409 95.178 180.434C96.1375 179.459 97.2807 178.688 98.6144 178.129C99.9481 177.57 101.398 177.29 102.976 177.29C104.807 177.29 106.399 177.59 107.746 178.197C109.094 178.797 110.223 179.602 111.142 180.604L107.406 184.648C106.95 184.13 106.392 183.673 105.732 183.271C105.072 182.868 104.201 182.671 103.112 182.671C102.371 182.671 101.704 182.821 101.112 183.121C100.527 183.421 100.023 183.816 99.6079 184.307C99.1928 184.798 98.8798 185.364 98.662 186.005C98.4443 186.653 98.3422 187.335 98.3422 188.051C98.3422 188.712 98.4511 189.367 98.662 190.008C98.8798 190.656 99.1928 191.229 99.6079 191.726C100.023 192.231 100.527 192.64 101.112 192.954C101.697 193.267 102.364 193.424 103.112 193.424C104.174 193.424 105.058 193.213 105.773 192.797C106.487 192.381 107.059 191.931 107.488 191.44L111.094 195.484V195.504ZM81.48 177.986H87.6655V198.17H81.48V177.986ZM81.2623 169.462H87.8765V175.013H81.2623V169.462ZM69.946 169.462H76.1315V198.17H69.946V169.462ZM58.4187 177.986H64.6043V198.17H58.4187V177.986ZM58.201 169.462H64.8152V175.013H58.201V169.462ZM38.9844 191.931C39.6445 192.531 40.5087 193.036 41.5838 193.438C42.659 193.84 43.6933 194.038 44.7004 194.038C45.619 194.038 46.3743 193.922 46.98 193.697C47.5788 193.465 47.885 193.022 47.885 192.361C47.885 192.101 47.8238 191.863 47.6945 191.651C47.5652 191.433 47.327 191.235 46.9868 191.051C46.6465 190.867 46.1634 190.669 45.551 190.472C44.9385 190.274 44.156 190.042 43.2101 189.783C42.4344 189.585 41.6723 189.319 40.9101 188.985C40.148 188.651 39.4811 188.249 38.8891 187.758C38.3039 187.267 37.8276 186.68 37.4737 185.991C37.1131 185.303 36.9362 184.498 36.9362 183.584C36.9362 182.671 37.1539 181.784 37.5826 181.02C38.0113 180.257 38.6033 179.602 39.3655 179.043C40.1276 178.484 41.0258 178.054 42.0737 177.754C43.1217 177.454 44.2445 177.304 45.4489 177.304C47.1637 177.304 48.6675 177.495 49.9604 177.884C51.2465 178.272 52.4374 178.838 53.5261 179.581L50.9063 183.673C50.2462 183.243 49.4977 182.855 48.6539 182.514C47.8101 182.173 46.8575 181.995 45.7959 181.995C44.8501 181.995 44.1628 182.132 43.7341 182.405C43.3054 182.677 43.0877 183.046 43.0877 183.502C43.0877 184.164 43.53 184.648 44.4214 184.969C45.306 185.282 46.5104 185.644 48.0279 186.046C50.0897 186.619 51.5868 187.41 52.519 188.412C53.4513 189.415 53.914 190.751 53.914 192.415C53.914 193.533 53.6622 194.495 53.1655 195.3C52.6619 196.104 51.9883 196.773 51.1445 197.304C50.3007 197.836 49.3412 198.232 48.2661 198.491C47.1909 198.75 46.0954 198.88 44.9794 198.88C43.1761 198.88 41.4749 198.634 39.869 198.15C38.2631 197.659 36.9634 196.916 35.9631 195.913L39.0116 191.951L38.9844 191.931ZM12.2077 177.986H18.1346L18.3048 180.182C18.9648 179.377 19.829 178.729 20.9042 178.245C21.9793 177.754 23.1021 177.515 24.2793 177.515C26.5998 177.515 28.437 178.204 29.798 179.581C31.1589 180.959 31.8394 182.998 31.8394 185.691V198.177H25.6539V186.557C25.6539 185.439 25.3749 184.546 24.8169 183.891C24.2589 183.23 23.4764 182.902 22.4761 182.902C21.7888 182.902 21.19 183.025 20.6728 183.271C20.1557 183.516 19.727 183.837 19.3867 184.239C19.0465 184.641 18.7879 185.105 18.611 185.637C18.4409 186.169 18.3524 186.735 18.3524 187.335V198.184H12.2077V177.999V177.986ZM0 169.462H6.48492V198.17H0V169.462Z" fill="black"/>
</g>
<defs>
<clipPath id="clip0_43_444">
<rect width="320" height="229" fill="white"/>
</clipPath>
</defs>
</svg>
