<svg width="515" height="68" viewBox="0 0 515 68" fill="none" xmlns="http://www.w3.org/2000/svg">
<rect width="25" height="68" fill="#BDC84B"/>
<path d="M54.1792 22.5V11.7627H58.9399C59.897 11.7627 60.6245 11.8604 61.1226 12.0557C61.6206 12.2461 62.0186 12.5854 62.3164 13.0737C62.6143 13.562 62.7632 14.1016 62.7632 14.6924C62.7632 15.4541 62.5166 16.0962 62.0234 16.6187C61.5303 17.1411 60.7686 17.4731 59.7383 17.6147C60.1143 17.7954 60.3999 17.9736 60.5952 18.1494C61.0103 18.5303 61.4033 19.0063 61.7744 19.5776L63.6421 22.5H61.855L60.4341 20.2661C60.019 19.6216 59.6772 19.1284 59.4087 18.7866C59.1401 18.4448 58.8984 18.2056 58.6836 18.0688C58.4736 17.9321 58.2588 17.8369 58.0391 17.7832C57.8779 17.749 57.6143 17.7319 57.248 17.7319H55.6001V22.5H54.1792ZM55.6001 16.5015H58.6543C59.3037 16.5015 59.8115 16.4355 60.1777 16.3037C60.5439 16.167 60.8223 15.9521 61.0127 15.6592C61.2031 15.3613 61.2983 15.0391 61.2983 14.6924C61.2983 14.1846 61.1128 13.7671 60.7417 13.4399C60.3755 13.1128 59.7944 12.9492 58.9985 12.9492H55.6001V16.5015ZM70.3215 18.2886V17.0288L74.8698 17.0215V21.0059C74.1716 21.5625 73.4514 21.9824 72.7092 22.2656C71.967 22.5439 71.2053 22.6831 70.424 22.6831C69.3693 22.6831 68.4099 22.4585 67.5456 22.0093C66.6862 21.5552 66.0368 20.9009 65.5974 20.0464C65.1579 19.1919 64.9382 18.2373 64.9382 17.1826C64.9382 16.1377 65.1555 15.1636 65.59 14.2603C66.0295 13.3521 66.6594 12.6782 67.4797 12.2388C68.3 11.7993 69.2448 11.5796 70.3142 11.5796C71.0905 11.5796 71.7912 11.7065 72.4162 11.9604C73.0461 12.2095 73.5393 12.5586 73.8957 13.0078C74.2521 13.457 74.5231 14.043 74.7087 14.7656L73.427 15.1172C73.2658 14.5703 73.0656 14.1406 72.8264 13.8281C72.5871 13.5156 72.2453 13.2666 71.801 13.0811C71.3566 12.8906 70.8635 12.7954 70.3215 12.7954C69.6721 12.7954 69.1105 12.8955 68.6369 13.0957C68.1633 13.291 67.78 13.5498 67.487 13.8721C67.1989 14.1943 66.9743 14.5483 66.8132 14.9341C66.5397 15.5981 66.403 16.3184 66.403 17.0947C66.403 18.0518 66.5666 18.8525 66.8938 19.4971C67.2258 20.1416 67.7067 20.6201 68.3366 20.9326C68.9665 21.2451 69.6354 21.4014 70.3435 21.4014C70.9587 21.4014 71.5593 21.2842 72.1452 21.0498C72.7312 20.8105 73.1755 20.5566 73.4782 20.2881V18.2886H70.3215ZM77.2133 22.5V11.7627H81.2416C82.0619 11.7627 82.7187 11.8726 83.2118 12.0923C83.7099 12.3071 84.098 12.6416 84.3764 13.0957C84.6596 13.5449 84.8012 14.0161 84.8012 14.5093C84.8012 14.9683 84.6767 15.4004 84.4276 15.8057C84.1786 16.2109 83.8026 16.5381 83.2997 16.7871C83.9491 16.9775 84.4472 17.3022 84.7938 17.7612C85.1454 18.2202 85.3212 18.7622 85.3212 19.3872C85.3212 19.8901 85.2138 20.3589 84.9989 20.7935C84.789 21.2231 84.5277 21.5552 84.2152 21.7896C83.9027 22.0239 83.5097 22.2021 83.036 22.3242C82.5673 22.4414 81.9911 22.5 81.3075 22.5H77.2133ZM78.6342 16.2744H80.956C81.5858 16.2744 82.0375 16.2329 82.3109 16.1499C82.6723 16.0425 82.9433 15.8643 83.1239 15.6152C83.3095 15.3662 83.4022 15.0537 83.4022 14.6777C83.4022 14.3213 83.3168 14.0088 83.1459 13.7402C82.975 13.4668 82.7309 13.2812 82.4135 13.1836C82.0961 13.0811 81.5517 13.0298 80.7802 13.0298H78.6342V16.2744ZM78.6342 21.2329H81.3075C81.7665 21.2329 82.0888 21.2158 82.2743 21.1816C82.6015 21.123 82.8749 21.0254 83.0946 20.8887C83.3144 20.752 83.495 20.5542 83.6366 20.2954C83.7782 20.0317 83.849 19.729 83.849 19.3872C83.849 18.9868 83.7465 18.6401 83.5414 18.3472C83.3363 18.0493 83.0507 17.8418 82.6845 17.7246C82.3231 17.6025 81.8007 17.5415 81.1171 17.5415H78.6342V21.2329ZM94.4026 25.6567C93.6751 24.7388 93.0599 23.6646 92.5569 22.4341C92.054 21.2036 91.8025 19.9292 91.8025 18.6108C91.8025 17.4487 91.9905 16.3354 92.3665 15.271C92.806 14.0356 93.4847 12.8052 94.4026 11.5796H95.3475C94.7566 12.5952 94.366 13.3203 94.1756 13.7549C93.8777 14.4287 93.6434 15.1318 93.4725 15.8643C93.2625 16.7773 93.1575 17.6953 93.1575 18.6182C93.1575 20.9668 93.8875 23.313 95.3475 25.6567H94.4026ZM98.6138 22.5L96.2334 14.7217H97.5957L98.8335 19.2114L99.2949 20.8813C99.3145 20.7983 99.4487 20.2637 99.6978 19.2773L100.936 14.7217H102.291L103.455 19.2334L103.843 20.7202L104.29 19.2188L105.623 14.7217H106.905L104.473 22.5H103.104L101.866 17.8418L101.565 16.5161L99.9907 22.5H98.6138ZM113.643 19.9951L115.005 20.1636C114.79 20.9595 114.392 21.5771 113.811 22.0166C113.23 22.4561 112.488 22.6758 111.585 22.6758C110.447 22.6758 109.544 22.3267 108.875 21.6284C108.211 20.9253 107.879 19.9414 107.879 18.6768C107.879 17.3682 108.216 16.3525 108.889 15.6299C109.563 14.9072 110.437 14.5459 111.511 14.5459C112.551 14.5459 113.401 14.8999 114.06 15.6079C114.719 16.3159 115.049 17.312 115.049 18.5962C115.049 18.6743 115.047 18.7915 115.042 18.9478H109.241C109.29 19.8022 109.531 20.4565 109.966 20.9106C110.401 21.3647 110.943 21.5918 111.592 21.5918C112.075 21.5918 112.488 21.4648 112.83 21.2109C113.172 20.957 113.443 20.5518 113.643 19.9951ZM109.314 17.8638H113.657C113.599 17.2095 113.433 16.7188 113.159 16.3916C112.739 15.8838 112.195 15.6299 111.526 15.6299C110.921 15.6299 110.41 15.8325 109.995 16.2378C109.585 16.6431 109.358 17.1851 109.314 17.8638ZM118.183 22.5H116.96V11.7627H118.279V15.5933C118.835 14.895 119.546 14.5459 120.41 14.5459C120.889 14.5459 121.34 14.6436 121.765 14.8389C122.195 15.0293 122.546 15.3003 122.82 15.6519C123.098 15.9985 123.315 16.4185 123.472 16.9116C123.628 17.4048 123.706 17.9321 123.706 18.4937C123.706 19.8267 123.376 20.8569 122.717 21.5845C122.058 22.312 121.267 22.6758 120.344 22.6758C119.426 22.6758 118.706 22.2925 118.183 21.5259V22.5ZM118.169 18.5522C118.169 19.4849 118.296 20.1587 118.55 20.5737C118.965 21.2524 119.526 21.5918 120.234 21.5918C120.81 21.5918 121.308 21.3428 121.728 20.8447C122.148 20.3418 122.358 19.5947 122.358 18.6035C122.358 17.5879 122.156 16.8384 121.75 16.355C121.35 15.8716 120.864 15.6299 120.293 15.6299C119.717 15.6299 119.219 15.8813 118.799 16.3843C118.379 16.8823 118.169 17.605 118.169 18.5522ZM126.482 25.6567H125.537C126.997 23.313 127.727 20.9668 127.727 18.6182C127.727 17.7002 127.622 16.7896 127.412 15.8862C127.246 15.1538 127.014 14.4507 126.716 13.7769C126.525 13.3374 126.132 12.605 125.537 11.5796H126.482C127.4 12.8052 128.078 14.0356 128.518 15.271C128.894 16.3354 129.082 17.4487 129.082 18.6108C129.082 19.9292 128.828 21.2036 128.32 22.4341C127.817 23.6646 127.204 24.7388 126.482 25.6567ZM131.279 16.2231V14.7217H132.78V16.2231H131.279ZM131.279 22.5V20.9985H132.78V22.5H131.279ZM144.462 22.5H143.143V14.0991C142.826 14.4019 142.408 14.7046 141.891 15.0073C141.378 15.3101 140.917 15.5371 140.507 15.6885V14.4141C141.244 14.0674 141.888 13.6475 142.44 13.1543C142.992 12.6611 143.383 12.1826 143.612 11.7188H144.462V22.5ZM150.174 16.6772C149.627 16.4771 149.222 16.1914 148.958 15.8203C148.695 15.4492 148.563 15.0049 148.563 14.4873C148.563 13.7061 148.844 13.0493 149.405 12.5171C149.967 11.9849 150.714 11.7188 151.646 11.7188C152.584 11.7188 153.338 11.9922 153.91 12.5391C154.481 13.0811 154.767 13.7427 154.767 14.5239C154.767 15.022 154.635 15.4565 154.371 15.8276C154.112 16.1938 153.717 16.4771 153.184 16.6772C153.844 16.8921 154.344 17.2388 154.686 17.7173C155.033 18.1958 155.206 18.7671 155.206 19.4312C155.206 20.3491 154.881 21.1206 154.232 21.7456C153.582 22.3706 152.728 22.6831 151.668 22.6831C150.609 22.6831 149.754 22.3706 149.105 21.7456C148.455 21.1157 148.131 20.332 148.131 19.3945C148.131 18.6963 148.307 18.1128 148.658 17.644C149.015 17.1704 149.52 16.8481 150.174 16.6772ZM149.911 14.4434C149.911 14.9512 150.074 15.3662 150.401 15.6885C150.728 16.0107 151.153 16.1719 151.676 16.1719C152.183 16.1719 152.599 16.0132 152.921 15.6958C153.248 15.3735 153.412 14.9805 153.412 14.5166C153.412 14.0332 153.243 13.6279 152.906 13.3008C152.574 12.9688 152.159 12.8027 151.661 12.8027C151.158 12.8027 150.741 12.9639 150.409 13.2861C150.077 13.6084 149.911 13.9941 149.911 14.4434ZM149.486 19.4019C149.486 19.7778 149.574 20.1416 149.749 20.4932C149.93 20.8447 150.196 21.1182 150.548 21.3135C150.899 21.5039 151.278 21.5991 151.683 21.5991C152.313 21.5991 152.833 21.3965 153.243 20.9912C153.653 20.5859 153.858 20.0708 153.858 19.4458C153.858 18.811 153.646 18.2861 153.221 17.8711C152.801 17.4561 152.274 17.2485 151.639 17.2485C151.019 17.2485 150.504 17.4536 150.094 17.8638C149.688 18.2739 149.486 18.7866 149.486 19.4019ZM156.795 19.6875L158.179 19.5703C158.282 20.2441 158.519 20.752 158.89 21.0938C159.266 21.4307 159.717 21.5991 160.245 21.5991C160.879 21.5991 161.417 21.3599 161.856 20.8813C162.296 20.4028 162.515 19.7681 162.515 18.9771C162.515 18.2251 162.303 17.6318 161.878 17.1973C161.458 16.7627 160.906 16.5454 160.223 16.5454C159.798 16.5454 159.415 16.6431 159.073 16.8384C158.731 17.0288 158.463 17.2778 158.267 17.5854L157.029 17.4243L158.069 11.9092H163.409V13.1689H159.124L158.546 16.0547C159.19 15.6055 159.866 15.3809 160.574 15.3809C161.512 15.3809 162.303 15.7056 162.947 16.355C163.592 17.0044 163.914 17.8394 163.914 18.8599C163.914 19.8315 163.631 20.6714 163.065 21.3794C162.376 22.2485 161.436 22.6831 160.245 22.6831C159.268 22.6831 158.47 22.4097 157.85 21.8628C157.234 21.3159 156.883 20.5908 156.795 19.6875ZM166.155 22.5V20.9985H167.657V22.5C167.657 23.0518 167.559 23.4961 167.364 23.833C167.168 24.1748 166.858 24.4385 166.433 24.624L166.067 24.0601C166.346 23.938 166.551 23.7573 166.682 23.5181C166.814 23.2837 166.887 22.9443 166.902 22.5H166.155ZM181.323 21.2329V22.5H174.226C174.216 22.1826 174.267 21.8774 174.38 21.5845C174.56 21.1011 174.848 20.625 175.244 20.1562C175.644 19.6875 176.22 19.1455 176.972 18.5303C178.139 17.5732 178.928 16.8164 179.338 16.2598C179.748 15.6982 179.953 15.1685 179.953 14.6704C179.953 14.1479 179.765 13.7085 179.389 13.3521C179.018 12.9907 178.532 12.8101 177.932 12.8101C177.297 12.8101 176.789 13.0005 176.408 13.3813C176.028 13.7622 175.835 14.2896 175.83 14.9634L174.475 14.8242C174.568 13.8135 174.917 13.0444 175.522 12.5171C176.128 11.9849 176.941 11.7188 177.961 11.7188C178.991 11.7188 179.807 12.0044 180.407 12.5757C181.008 13.147 181.308 13.855 181.308 14.6997C181.308 15.1294 181.22 15.5518 181.045 15.9668C180.869 16.3818 180.576 16.8188 180.166 17.2778C179.76 17.7368 179.084 18.3667 178.137 19.1675C177.346 19.8315 176.838 20.2832 176.613 20.5225C176.389 20.7568 176.203 20.9937 176.057 21.2329H181.323ZM183.044 17.2046C183.044 15.9351 183.173 14.9146 183.432 14.1431C183.696 13.3667 184.084 12.7686 184.597 12.3486C185.114 11.9287 185.764 11.7188 186.545 11.7188C187.121 11.7188 187.626 11.8359 188.061 12.0703C188.496 12.2998 188.854 12.6343 189.138 13.0737C189.421 13.5083 189.643 14.0405 189.804 14.6704C189.965 15.2954 190.046 16.1401 190.046 17.2046C190.046 18.4644 189.916 19.4824 189.658 20.2588C189.399 21.0303 189.011 21.6284 188.493 22.0532C187.98 22.4731 187.331 22.6831 186.545 22.6831C185.51 22.6831 184.697 22.312 184.106 21.5698C183.398 20.6763 183.044 19.2212 183.044 17.2046ZM184.399 17.2046C184.399 18.9673 184.604 20.1416 185.014 20.7275C185.429 21.3086 185.939 21.5991 186.545 21.5991C187.15 21.5991 187.658 21.3062 188.068 20.7202C188.483 20.1343 188.691 18.9624 188.691 17.2046C188.691 15.437 188.483 14.2627 188.068 13.6816C187.658 13.1006 187.145 12.8101 186.53 12.8101C185.925 12.8101 185.441 13.0664 185.08 13.5791C184.626 14.2334 184.399 15.4419 184.399 17.2046ZM196.659 22.5H195.341V14.0991C195.024 14.4019 194.606 14.7046 194.088 15.0073C193.576 15.3101 193.114 15.5371 192.704 15.6885V14.4141C193.441 14.0674 194.086 13.6475 194.638 13.1543C195.19 12.6611 195.58 12.1826 195.81 11.7188H196.659V22.5ZM201.054 22.5V20.9985H202.555V22.5C202.555 23.0518 202.457 23.4961 202.262 23.833C202.067 24.1748 201.757 24.4385 201.332 24.624L200.966 24.0601C201.244 23.938 201.449 23.7573 201.581 23.5181C201.713 23.2837 201.786 22.9443 201.801 22.5H201.054ZM209.381 13.1689V11.9019H216.331V12.9272C215.648 13.6548 214.969 14.6216 214.295 15.8276C213.626 17.0337 213.109 18.2739 212.742 19.5483C212.479 20.4468 212.31 21.4307 212.237 22.5H210.882C210.897 21.6553 211.063 20.6348 211.38 19.4385C211.697 18.2422 212.152 17.0898 212.742 15.9814C213.338 14.8682 213.97 13.9307 214.639 13.1689H209.381ZM217.942 19.6875L219.327 19.5703C219.429 20.2441 219.666 20.752 220.037 21.0938C220.413 21.4307 220.865 21.5991 221.392 21.5991C222.027 21.5991 222.564 21.3599 223.003 20.8813C223.443 20.4028 223.663 19.7681 223.663 18.9771C223.663 18.2251 223.45 17.6318 223.025 17.1973C222.605 16.7627 222.054 16.5454 221.37 16.5454C220.945 16.5454 220.562 16.6431 220.22 16.8384C219.878 17.0288 219.61 17.2778 219.414 17.5854L218.177 17.4243L219.217 11.9092H224.556V13.1689H220.271L219.693 16.0547C220.337 15.6055 221.014 15.3809 221.722 15.3809C222.659 15.3809 223.45 15.7056 224.095 16.355C224.739 17.0044 225.061 17.8394 225.061 18.8599C225.061 19.8315 224.778 20.6714 224.212 21.3794C223.523 22.2485 222.583 22.6831 221.392 22.6831C220.415 22.6831 219.617 22.4097 218.997 21.8628C218.382 21.3159 218.03 20.5908 217.942 19.6875ZM61.8184 35.7354L63.2393 36.0942C62.9414 37.2612 62.4043 38.1523 61.6279 38.7676C60.8564 39.3779 59.9116 39.6831 58.7935 39.6831C57.6362 39.6831 56.6938 39.4487 55.9663 38.98C55.2437 38.5063 54.6919 37.8228 54.311 36.9292C53.9351 36.0356 53.7471 35.0762 53.7471 34.0508C53.7471 32.9326 53.9595 31.9585 54.3843 31.1284C54.814 30.2935 55.4219 29.6611 56.208 29.2314C56.999 28.7969 57.8682 28.5796 58.8154 28.5796C59.8896 28.5796 60.793 28.853 61.5254 29.3999C62.2578 29.9468 62.7681 30.7158 63.0562 31.707L61.6572 32.0366C61.4082 31.2554 61.0469 30.6865 60.5732 30.3301C60.0996 29.9736 59.5039 29.7954 58.7861 29.7954C57.9609 29.7954 57.27 29.9932 56.7134 30.3887C56.1616 30.7842 55.7734 31.3164 55.5488 31.9854C55.3242 32.6494 55.2119 33.3354 55.2119 34.0435C55.2119 34.9565 55.3438 35.7549 55.6074 36.4385C55.876 37.1172 56.291 37.625 56.8525 37.9619C57.4141 38.2988 58.022 38.4673 58.6763 38.4673C59.4722 38.4673 60.146 38.2378 60.6978 37.7788C61.2495 37.3198 61.623 36.6387 61.8184 35.7354ZM65.2531 39.5V28.7627H67.3918L69.9333 36.3652C70.1677 37.0732 70.3386 37.603 70.446 37.9546C70.5681 37.564 70.7585 36.9902 71.0173 36.2334L73.5881 28.7627H75.4997V39.5H74.1301V30.5132L71.01 39.5H69.7282L66.6228 30.3594V39.5H65.2531ZM81.1171 39.5V34.9517L76.9789 28.7627H78.7074L80.8241 32C81.2147 32.6055 81.5785 33.2109 81.9154 33.8164C82.2377 33.2549 82.6283 32.6226 83.0873 31.9194L85.1674 28.7627H86.8227L82.538 34.9517V39.5H81.1171ZM88.3385 39.5V28.7627H89.7594V34.0874L95.0914 28.7627H97.0177L92.5133 33.1133L97.2154 39.5H95.3404L91.5172 34.0654L89.7594 35.7793V39.5H88.3385ZM105.528 42.6567C104.8 41.7388 104.185 40.6646 103.682 39.4341C103.179 38.2036 102.928 36.9292 102.928 35.6108C102.928 34.4487 103.116 33.3354 103.492 32.271C103.931 31.0356 104.61 29.8052 105.528 28.5796H106.473C105.882 29.5952 105.491 30.3203 105.301 30.7549C105.003 31.4287 104.769 32.1318 104.598 32.8643C104.388 33.7773 104.283 34.6953 104.283 35.6182C104.283 37.9668 105.013 40.313 106.473 42.6567H105.528ZM108.303 42.481V31.7217H109.505V32.7324C109.788 32.3369 110.108 32.0415 110.464 31.8462C110.821 31.646 111.253 31.5459 111.76 31.5459C112.425 31.5459 113.01 31.7168 113.518 32.0586C114.026 32.4004 114.409 32.8838 114.668 33.5088C114.927 34.1289 115.056 34.8101 115.056 35.5522C115.056 36.3481 114.912 37.0659 114.624 37.7056C114.341 38.3403 113.926 38.8286 113.379 39.1704C112.837 39.5073 112.266 39.6758 111.665 39.6758C111.226 39.6758 110.83 39.583 110.479 39.3975C110.132 39.2119 109.846 38.9775 109.622 38.6943V42.481H108.303ZM109.497 35.6548C109.497 36.6558 109.7 37.3955 110.105 37.874C110.51 38.3525 111.001 38.5918 111.577 38.5918C112.163 38.5918 112.664 38.3452 113.079 37.8521C113.499 37.354 113.709 36.585 113.709 35.5449C113.709 34.5537 113.504 33.8115 113.093 33.3184C112.688 32.8252 112.202 32.5786 111.636 32.5786C111.074 32.5786 110.576 32.8423 110.142 33.3696C109.712 33.8921 109.497 34.6538 109.497 35.6548ZM116.938 39.5V31.7217H118.125V32.9009C118.428 32.3491 118.706 31.9854 118.96 31.8096C119.219 31.6338 119.502 31.5459 119.809 31.5459C120.254 31.5459 120.705 31.6875 121.164 31.9707L120.71 33.1938C120.388 33.0034 120.066 32.9082 119.744 32.9082C119.455 32.9082 119.197 32.9961 118.967 33.1719C118.738 33.3428 118.574 33.582 118.476 33.8896C118.33 34.3584 118.257 34.8711 118.257 35.4277V39.5H116.938ZM122.255 30.2788V28.7627H123.574V30.2788H122.255ZM122.255 39.5V31.7217H123.574V39.5H122.255ZM125.888 39.5V31.7217H127.075V32.8276C127.646 31.9731 128.471 31.5459 129.55 31.5459C130.019 31.5459 130.449 31.6313 130.839 31.8022C131.235 31.9683 131.53 32.188 131.725 32.4614C131.921 32.7349 132.057 33.0596 132.136 33.4355C132.184 33.6797 132.209 34.1069 132.209 34.7173V39.5H130.89V34.7686C130.89 34.2314 130.839 33.8311 130.737 33.5674C130.634 33.2988 130.451 33.0864 130.187 32.9302C129.929 32.769 129.623 32.6885 129.272 32.6885C128.71 32.6885 128.224 32.8667 127.814 33.2231C127.409 33.5796 127.206 34.2559 127.206 35.252V39.5H125.888ZM137.416 38.3208L137.606 39.4854C137.235 39.5635 136.903 39.6025 136.61 39.6025C136.132 39.6025 135.761 39.5269 135.497 39.3755C135.233 39.2241 135.048 39.0264 134.94 38.7822C134.833 38.5332 134.779 38.0132 134.779 37.2222V32.7471H133.812V31.7217H134.779V29.7954L136.09 29.0044V31.7217H137.416V32.7471H136.09V37.2954C136.09 37.6714 136.112 37.9131 136.156 38.0205C136.205 38.1279 136.281 38.2134 136.383 38.2769C136.491 38.3403 136.642 38.3721 136.837 38.3721C136.984 38.3721 137.177 38.355 137.416 38.3208ZM139.877 42.6567H138.932C140.392 40.313 141.122 37.9668 141.122 35.6182C141.122 34.7002 141.017 33.7896 140.807 32.8862C140.641 32.1538 140.409 31.4507 140.111 30.7769C139.921 30.3374 139.528 29.605 138.932 28.5796H139.877C140.795 29.8052 141.473 31.0356 141.913 32.271C142.289 33.3354 142.477 34.4487 142.477 35.6108C142.477 36.9292 142.223 38.2036 141.715 39.4341C141.212 40.6646 140.599 41.7388 139.877 42.6567ZM144.674 33.2231V31.7217H146.175V33.2231H144.674ZM144.674 39.5V37.9985H146.175V39.5H144.674ZM152.898 36.6655L154.217 36.4897C154.368 37.2368 154.624 37.7764 154.986 38.1084C155.352 38.4355 155.796 38.5991 156.319 38.5991C156.939 38.5991 157.461 38.3843 157.886 37.9546C158.316 37.5249 158.531 36.9927 158.531 36.3579C158.531 35.7524 158.333 35.2544 157.937 34.8638C157.542 34.4683 157.039 34.2705 156.429 34.2705C156.179 34.2705 155.869 34.3193 155.498 34.417L155.645 33.2598C155.733 33.2695 155.804 33.2744 155.857 33.2744C156.419 33.2744 156.924 33.1279 157.373 32.835C157.823 32.542 158.047 32.0903 158.047 31.48C158.047 30.9966 157.884 30.5962 157.556 30.2788C157.229 29.9614 156.807 29.8027 156.289 29.8027C155.777 29.8027 155.349 29.9639 155.008 30.2861C154.666 30.6084 154.446 31.0918 154.348 31.7363L153.03 31.502C153.191 30.6182 153.557 29.9346 154.129 29.4512C154.7 28.9629 155.41 28.7188 156.26 28.7188C156.846 28.7188 157.386 28.8457 157.879 29.0996C158.372 29.3486 158.748 29.6904 159.007 30.125C159.27 30.5596 159.402 31.021 159.402 31.5093C159.402 31.9731 159.278 32.3955 159.029 32.7764C158.78 33.1572 158.411 33.46 157.923 33.6846C158.557 33.8311 159.051 34.1362 159.402 34.6001C159.754 35.0591 159.929 35.6353 159.929 36.3286C159.929 37.2661 159.588 38.062 158.904 38.7163C158.221 39.3657 157.356 39.6904 156.311 39.6904C155.369 39.6904 154.585 39.4097 153.96 38.8481C153.34 38.2866 152.986 37.5591 152.898 36.6655ZM168.381 31.3921L167.07 31.4946C166.953 30.9771 166.787 30.6011 166.572 30.3667C166.216 29.9907 165.776 29.8027 165.254 29.8027C164.834 29.8027 164.465 29.9199 164.148 30.1543C163.733 30.457 163.406 30.8989 163.167 31.48C162.927 32.061 162.803 32.8887 162.793 33.9629C163.11 33.4795 163.499 33.1206 163.958 32.8862C164.417 32.6519 164.897 32.5347 165.4 32.5347C166.279 32.5347 167.026 32.8594 167.642 33.5088C168.262 34.1533 168.572 34.9883 168.572 36.0137C168.572 36.6875 168.425 37.3149 168.132 37.896C167.844 38.4722 167.446 38.9141 166.938 39.2217C166.431 39.5293 165.854 39.6831 165.21 39.6831C164.111 39.6831 163.215 39.2803 162.522 38.4746C161.829 37.6641 161.482 36.3311 161.482 34.4756C161.482 32.4004 161.865 30.8916 162.632 29.9492C163.301 29.1289 164.202 28.7188 165.334 28.7188C166.179 28.7188 166.87 28.9556 167.407 29.4292C167.949 29.9028 168.274 30.5571 168.381 31.3921ZM162.998 36.021C162.998 36.4751 163.093 36.9097 163.284 37.3247C163.479 37.7397 163.75 38.0571 164.097 38.2769C164.443 38.4917 164.807 38.5991 165.188 38.5991C165.745 38.5991 166.223 38.3745 166.624 37.9253C167.024 37.4761 167.224 36.8657 167.224 36.0942C167.224 35.3521 167.026 34.7686 166.631 34.3438C166.235 33.9141 165.737 33.6992 165.137 33.6992C164.541 33.6992 164.036 33.9141 163.621 34.3438C163.206 34.7686 162.998 35.3276 162.998 36.021ZM170.901 39.5V37.9985H172.402V39.5C172.402 40.0518 172.304 40.4961 172.109 40.833C171.914 41.1748 171.604 41.4385 171.179 41.624L170.813 41.0601C171.091 40.938 171.296 40.7573 171.428 40.5181C171.56 40.2837 171.633 39.9443 171.648 39.5H170.901ZM179.14 36.6875L180.524 36.5703C180.627 37.2441 180.863 37.752 181.234 38.0938C181.61 38.4307 182.062 38.5991 182.589 38.5991C183.224 38.5991 183.761 38.3599 184.201 37.8813C184.64 37.4028 184.86 36.7681 184.86 35.9771C184.86 35.2251 184.648 34.6318 184.223 34.1973C183.803 33.7627 183.251 33.5454 182.567 33.5454C182.143 33.5454 181.759 33.6431 181.418 33.8384C181.076 34.0288 180.807 34.2778 180.612 34.5854L179.374 34.4243L180.414 28.9092H185.754V30.1689H181.469L180.89 33.0547C181.535 32.6055 182.211 32.3809 182.919 32.3809C183.857 32.3809 184.648 32.7056 185.292 33.355C185.937 34.0044 186.259 34.8394 186.259 35.8599C186.259 36.8315 185.976 37.6714 185.409 38.3794C184.721 39.2485 183.781 39.6831 182.589 39.6831C181.613 39.6831 180.815 39.4097 180.194 38.8628C179.579 38.3159 179.228 37.5908 179.14 36.6875ZM188.5 39.5V37.9985H190.001V39.5C190.001 40.0518 189.904 40.4961 189.708 40.833C189.513 41.1748 189.203 41.4385 188.778 41.624L188.412 41.0601C188.69 40.938 188.895 40.7573 189.027 40.5181C189.159 40.2837 189.232 39.9443 189.247 39.5H188.5ZM198.768 33.6772C198.221 33.4771 197.816 33.1914 197.552 32.8203C197.288 32.4492 197.156 32.0049 197.156 31.4873C197.156 30.7061 197.437 30.0493 197.999 29.5171C198.56 28.9849 199.307 28.7188 200.24 28.7188C201.177 28.7188 201.932 28.9922 202.503 29.5391C203.074 30.0811 203.36 30.7427 203.36 31.5239C203.36 32.022 203.228 32.4565 202.965 32.8276C202.706 33.1938 202.31 33.4771 201.778 33.6772C202.437 33.8921 202.938 34.2388 203.279 34.7173C203.626 35.1958 203.8 35.7671 203.8 36.4312C203.8 37.3491 203.475 38.1206 202.825 38.7456C202.176 39.3706 201.321 39.6831 200.262 39.6831C199.202 39.6831 198.348 39.3706 197.698 38.7456C197.049 38.1157 196.724 37.332 196.724 36.3945C196.724 35.6963 196.9 35.1128 197.252 34.644C197.608 34.1704 198.113 33.8481 198.768 33.6772ZM198.504 31.4434C198.504 31.9512 198.668 32.3662 198.995 32.6885C199.322 33.0107 199.747 33.1719 200.269 33.1719C200.777 33.1719 201.192 33.0132 201.514 32.6958C201.842 32.3735 202.005 31.9805 202.005 31.5166C202.005 31.0332 201.837 30.6279 201.5 30.3008C201.168 29.9688 200.753 29.8027 200.255 29.8027C199.752 29.8027 199.334 29.9639 199.002 30.2861C198.67 30.6084 198.504 30.9941 198.504 31.4434ZM198.079 36.4019C198.079 36.7778 198.167 37.1416 198.343 37.4932C198.524 37.8447 198.79 38.1182 199.141 38.3135C199.493 38.5039 199.871 38.5991 200.277 38.5991C200.906 38.5991 201.426 38.3965 201.837 37.9912C202.247 37.5859 202.452 37.0708 202.452 36.4458C202.452 35.811 202.239 35.2861 201.815 34.8711C201.395 34.4561 200.867 34.2485 200.233 34.2485C199.613 34.2485 199.097 34.4536 198.687 34.8638C198.282 35.2739 198.079 35.7866 198.079 36.4019ZM212.317 38.2329V39.5H205.22C205.21 39.1826 205.262 38.8774 205.374 38.5845C205.555 38.1011 205.843 37.625 206.238 37.1562C206.639 36.6875 207.215 36.1455 207.967 35.5303C209.134 34.5732 209.922 33.8164 210.332 33.2598C210.743 32.6982 210.948 32.1685 210.948 31.6704C210.948 31.1479 210.76 30.7085 210.384 30.3521C210.013 29.9907 209.527 29.8101 208.926 29.8101C208.291 29.8101 207.784 30.0005 207.403 30.3813C207.022 30.7622 206.829 31.2896 206.824 31.9634L205.469 31.8242C205.562 30.8135 205.911 30.0444 206.517 29.5171C207.122 28.9849 207.935 28.7188 208.955 28.7188C209.986 28.7188 210.801 29.0044 211.402 29.5757C212.002 30.147 212.303 30.855 212.303 31.6997C212.303 32.1294 212.215 32.5518 212.039 32.9668C211.863 33.3818 211.57 33.8188 211.16 34.2778C210.755 34.7368 210.079 35.3667 209.131 36.1675C208.34 36.8315 207.832 37.2832 207.608 37.5225C207.383 37.7568 207.198 37.9937 207.051 38.2329H212.317ZM214.749 39.5V37.9985H216.25V39.5C216.25 40.0518 216.152 40.4961 215.957 40.833C215.762 41.1748 215.452 41.4385 215.027 41.624L214.661 41.0601C214.939 40.938 215.144 40.7573 215.276 40.5181C215.408 40.2837 215.481 39.9443 215.496 39.5H214.749ZM222.988 34.2046C222.988 32.9351 223.117 31.9146 223.376 31.1431C223.64 30.3667 224.028 29.7686 224.541 29.3486C225.058 28.9287 225.708 28.7188 226.489 28.7188C227.065 28.7188 227.57 28.8359 228.005 29.0703C228.439 29.2998 228.798 29.6343 229.082 30.0737C229.365 30.5083 229.587 31.0405 229.748 31.6704C229.909 32.2954 229.99 33.1401 229.99 34.2046C229.99 35.4644 229.86 36.4824 229.602 37.2588C229.343 38.0303 228.955 38.6284 228.437 39.0532C227.924 39.4731 227.275 39.6831 226.489 39.6831C225.454 39.6831 224.641 39.312 224.05 38.5698C223.342 37.6763 222.988 36.2212 222.988 34.2046ZM224.343 34.2046C224.343 35.9673 224.548 37.1416 224.958 37.7275C225.373 38.3086 225.883 38.5991 226.489 38.5991C227.094 38.5991 227.602 38.3062 228.012 37.7202C228.427 37.1343 228.635 35.9624 228.635 34.2046C228.635 32.437 228.427 31.2627 228.012 30.6816C227.602 30.1006 227.089 29.8101 226.474 29.8101C225.869 29.8101 225.385 30.0664 225.024 30.5791C224.57 31.2334 224.343 32.4419 224.343 34.2046ZM54.2012 56.5V45.7627H55.6221V50.1719H61.2031V45.7627H62.624V56.5H61.2031V51.439H55.6221V56.5H54.2012ZM65.3264 56.5V45.7627H73.09V47.0298H66.7473V50.3184H72.6872V51.5781H66.7473V55.2329H73.3391V56.5H65.3264ZM74.5106 56.5L78.6635 50.9043L75.0014 45.7627H76.6933L78.6415 48.5166C79.0468 49.0879 79.3349 49.5273 79.5058 49.835C79.745 49.4443 80.0282 49.0366 80.3554 48.6118L82.516 45.7627H84.0614L80.2895 50.8237L84.3544 56.5H82.5966L79.8939 52.6694C79.7426 52.4497 79.5863 52.2104 79.4252 51.9517C79.1859 52.3423 79.015 52.6108 78.9125 52.7573L76.2172 56.5H74.5106ZM86.1046 50.2231V48.7217H87.6061V50.2231H86.1046ZM86.1046 56.5V54.9985H87.6061V56.5H86.1046ZM95.9038 56.5H94.6807V45.7627H95.999V49.5933C96.5557 48.895 97.2661 48.5459 98.1304 48.5459C98.6089 48.5459 99.0605 48.6436 99.4854 48.8389C99.915 49.0293 100.267 49.3003 100.54 49.6519C100.818 49.9985 101.036 50.4185 101.192 50.9116C101.348 51.4048 101.426 51.9321 101.426 52.4937C101.426 53.8267 101.097 54.8569 100.438 55.5845C99.7783 56.312 98.9873 56.6758 98.0645 56.6758C97.1465 56.6758 96.4263 56.2925 95.9038 55.5259V56.5ZM95.8892 52.5522C95.8892 53.4849 96.0161 54.1587 96.27 54.5737C96.6851 55.2524 97.2466 55.5918 97.9546 55.5918C98.5308 55.5918 99.0288 55.3428 99.4487 54.8447C99.8687 54.3418 100.079 53.5947 100.079 52.6035C100.079 51.5879 99.876 50.8384 99.4707 50.355C99.0703 49.8716 98.5845 49.6299 98.0132 49.6299C97.437 49.6299 96.939 49.8813 96.519 50.3843C96.0991 50.8823 95.8892 51.605 95.8892 52.5522ZM103.169 54.0171L104.436 53.8999C104.544 54.4956 104.749 54.9277 105.051 55.1963C105.354 55.4648 105.742 55.5991 106.216 55.5991C106.621 55.5991 106.975 55.5063 107.278 55.3208C107.586 55.1353 107.837 54.8887 108.032 54.5811C108.228 54.2686 108.391 53.8486 108.523 53.3213C108.655 52.7939 108.721 52.2568 108.721 51.71C108.721 51.6514 108.718 51.5635 108.714 51.4463C108.45 51.8662 108.089 52.208 107.63 52.4717C107.175 52.7305 106.682 52.8599 106.15 52.8599C105.261 52.8599 104.509 52.5376 103.894 51.8931C103.279 51.2485 102.971 50.3989 102.971 49.3442C102.971 48.2554 103.291 47.3789 103.931 46.7148C104.575 46.0508 105.381 45.7188 106.348 45.7188C107.046 45.7188 107.683 45.9067 108.259 46.2827C108.841 46.6587 109.28 47.1958 109.578 47.894C109.881 48.5874 110.032 49.5933 110.032 50.9116C110.032 52.2837 109.883 53.3774 109.585 54.1929C109.287 55.0034 108.843 55.6211 108.252 56.0459C107.666 56.4707 106.978 56.6831 106.187 56.6831C105.347 56.6831 104.661 56.4512 104.129 55.9873C103.596 55.5186 103.277 54.8618 103.169 54.0171ZM108.567 49.2783C108.567 48.5215 108.364 47.9209 107.959 47.4766C107.559 47.0322 107.075 46.8101 106.509 46.8101C105.923 46.8101 105.413 47.0493 104.978 47.5278C104.544 48.0063 104.326 48.6265 104.326 49.3882C104.326 50.0718 104.531 50.6284 104.942 51.0581C105.357 51.4829 105.867 51.6953 106.472 51.6953C107.083 51.6953 107.583 51.4829 107.974 51.0581C108.369 50.6284 108.567 50.0352 108.567 49.2783ZM117.063 53.6509L118.359 53.8193C118.218 54.7129 117.854 55.4136 117.268 55.9214C116.687 56.4243 115.972 56.6758 115.122 56.6758C114.058 56.6758 113.201 56.3291 112.551 55.6357C111.907 54.9375 111.584 53.939 111.584 52.6401C111.584 51.8003 111.724 51.0654 112.002 50.4355C112.28 49.8057 112.703 49.3345 113.269 49.022C113.84 48.7046 114.46 48.5459 115.129 48.5459C115.974 48.5459 116.665 48.7607 117.202 49.1904C117.739 49.6152 118.083 50.2207 118.235 51.0068L116.953 51.2046C116.831 50.6821 116.614 50.2891 116.301 50.0254C115.994 49.7617 115.62 49.6299 115.181 49.6299C114.517 49.6299 113.977 49.8691 113.562 50.3477C113.147 50.8213 112.939 51.5732 112.939 52.6035C112.939 53.6484 113.14 54.4077 113.54 54.8813C113.94 55.355 114.463 55.5918 115.107 55.5918C115.625 55.5918 116.057 55.4331 116.404 55.1157C116.75 54.7983 116.97 54.3101 117.063 53.6509ZM119.619 54.0171L120.886 53.8999C120.993 54.4956 121.198 54.9277 121.501 55.1963C121.804 55.4648 122.192 55.5991 122.666 55.5991C123.071 55.5991 123.425 55.5063 123.728 55.3208C124.035 55.1353 124.287 54.8887 124.482 54.5811C124.677 54.2686 124.841 53.8486 124.973 53.3213C125.105 52.7939 125.171 52.2568 125.171 51.71C125.171 51.6514 125.168 51.5635 125.163 51.4463C124.9 51.8662 124.538 52.208 124.079 52.4717C123.625 52.7305 123.132 52.8599 122.6 52.8599C121.711 52.8599 120.959 52.5376 120.344 51.8931C119.729 51.2485 119.421 50.3989 119.421 49.3442C119.421 48.2554 119.741 47.3789 120.38 46.7148C121.025 46.0508 121.831 45.7188 122.797 45.7188C123.496 45.7188 124.133 45.9067 124.709 46.2827C125.29 46.6587 125.73 47.1958 126.027 47.894C126.33 48.5874 126.482 49.5933 126.482 50.9116C126.482 52.2837 126.333 53.3774 126.035 54.1929C125.737 55.0034 125.293 55.6211 124.702 56.0459C124.116 56.4707 123.427 56.6831 122.636 56.6831C121.796 56.6831 121.11 56.4512 120.578 55.9873C120.046 55.5186 119.726 54.8618 119.619 54.0171ZM125.017 49.2783C125.017 48.5215 124.814 47.9209 124.409 47.4766C124.008 47.0322 123.525 46.8101 122.959 46.8101C122.373 46.8101 121.862 47.0493 121.428 47.5278C120.993 48.0063 120.776 48.6265 120.776 49.3882C120.776 50.0718 120.981 50.6284 121.391 51.0581C121.806 51.4829 122.317 51.6953 122.922 51.6953C123.532 51.6953 124.033 51.4829 124.423 51.0581C124.819 50.6284 125.017 50.0352 125.017 49.2783ZM132.297 56.5V53.9292H127.638V52.7207L132.538 45.7627H133.615V52.7207H135.065V53.9292H133.615V56.5H132.297ZM132.297 52.7207V47.8794L128.935 52.7207H132.297ZM138.302 56.5H137.079V45.7627H138.397V49.5933C138.954 48.895 139.665 48.5459 140.529 48.5459C141.007 48.5459 141.459 48.6436 141.884 48.8389C142.313 49.0293 142.665 49.3003 142.938 49.6519C143.217 49.9985 143.434 50.4185 143.59 50.9116C143.747 51.4048 143.825 51.9321 143.825 52.4937C143.825 53.8267 143.495 54.8569 142.836 55.5845C142.177 56.312 141.386 56.6758 140.463 56.6758C139.545 56.6758 138.825 56.2925 138.302 55.5259V56.5ZM138.288 52.5522C138.288 53.4849 138.415 54.1587 138.668 54.5737C139.083 55.2524 139.645 55.5918 140.353 55.5918C140.929 55.5918 141.427 55.3428 141.847 54.8447C142.267 54.3418 142.477 53.5947 142.477 52.6035C142.477 51.5879 142.274 50.8384 141.869 50.355C141.469 49.8716 140.983 49.6299 140.412 49.6299C139.835 49.6299 139.337 49.8813 138.917 50.3843C138.498 50.8823 138.288 51.605 138.288 52.5522Z" fill="black"/>
<rect x="280" width="25" height="68" fill="#61E5D5"/>
<path d="M334.179 22.5V11.7627H338.94C339.897 11.7627 340.625 11.8604 341.123 12.0557C341.621 12.2461 342.019 12.5854 342.316 13.0737C342.614 13.562 342.763 14.1016 342.763 14.6924C342.763 15.4541 342.517 16.0962 342.023 16.6187C341.53 17.1411 340.769 17.4731 339.738 17.6147C340.114 17.7954 340.4 17.9736 340.595 18.1494C341.01 18.5303 341.403 19.0063 341.774 19.5776L343.642 22.5H341.855L340.434 20.2661C340.019 19.6216 339.677 19.1284 339.409 18.7866C339.14 18.4448 338.898 18.2056 338.684 18.0688C338.474 17.9321 338.259 17.8369 338.039 17.7832C337.878 17.749 337.614 17.7319 337.248 17.7319H335.6V22.5H334.179ZM335.6 16.5015H338.654C339.304 16.5015 339.812 16.4355 340.178 16.3037C340.544 16.167 340.822 15.9521 341.013 15.6592C341.203 15.3613 341.298 15.0391 341.298 14.6924C341.298 14.1846 341.113 13.7671 340.742 13.4399C340.375 13.1128 339.794 12.9492 338.999 12.9492H335.6V16.5015ZM350.321 18.2886V17.0288L354.87 17.0215V21.0059C354.172 21.5625 353.451 21.9824 352.709 22.2656C351.967 22.5439 351.205 22.6831 350.424 22.6831C349.369 22.6831 348.41 22.4585 347.546 22.0093C346.686 21.5552 346.037 20.9009 345.597 20.0464C345.158 19.1919 344.938 18.2373 344.938 17.1826C344.938 16.1377 345.155 15.1636 345.59 14.2603C346.029 13.3521 346.659 12.6782 347.48 12.2388C348.3 11.7993 349.245 11.5796 350.314 11.5796C351.091 11.5796 351.791 11.7065 352.416 11.9604C353.046 12.2095 353.539 12.5586 353.896 13.0078C354.252 13.457 354.523 14.043 354.709 14.7656L353.427 15.1172C353.266 14.5703 353.066 14.1406 352.826 13.8281C352.587 13.5156 352.245 13.2666 351.801 13.0811C351.357 12.8906 350.863 12.7954 350.321 12.7954C349.672 12.7954 349.111 12.8955 348.637 13.0957C348.163 13.291 347.78 13.5498 347.487 13.8721C347.199 14.1943 346.974 14.5483 346.813 14.9341C346.54 15.5981 346.403 16.3184 346.403 17.0947C346.403 18.0518 346.567 18.8525 346.894 19.4971C347.226 20.1416 347.707 20.6201 348.337 20.9326C348.967 21.2451 349.635 21.4014 350.343 21.4014C350.959 21.4014 351.559 21.2842 352.145 21.0498C352.731 20.8105 353.175 20.5566 353.478 20.2881V18.2886H350.321ZM357.213 22.5V11.7627H361.242C362.062 11.7627 362.719 11.8726 363.212 12.0923C363.71 12.3071 364.098 12.6416 364.376 13.0957C364.66 13.5449 364.801 14.0161 364.801 14.5093C364.801 14.9683 364.677 15.4004 364.428 15.8057C364.179 16.2109 363.803 16.5381 363.3 16.7871C363.949 16.9775 364.447 17.3022 364.794 17.7612C365.145 18.2202 365.321 18.7622 365.321 19.3872C365.321 19.8901 365.214 20.3589 364.999 20.7935C364.789 21.2231 364.528 21.5552 364.215 21.7896C363.903 22.0239 363.51 22.2021 363.036 22.3242C362.567 22.4414 361.991 22.5 361.308 22.5H357.213ZM358.634 16.2744H360.956C361.586 16.2744 362.038 16.2329 362.311 16.1499C362.672 16.0425 362.943 15.8643 363.124 15.6152C363.309 15.3662 363.402 15.0537 363.402 14.6777C363.402 14.3213 363.317 14.0088 363.146 13.7402C362.975 13.4668 362.731 13.2812 362.413 13.1836C362.096 13.0811 361.552 13.0298 360.78 13.0298H358.634V16.2744ZM358.634 21.2329H361.308C361.767 21.2329 362.089 21.2158 362.274 21.1816C362.601 21.123 362.875 21.0254 363.095 20.8887C363.314 20.752 363.495 20.5542 363.637 20.2954C363.778 20.0317 363.849 19.729 363.849 19.3872C363.849 18.9868 363.746 18.6401 363.541 18.3472C363.336 18.0493 363.051 17.8418 362.684 17.7246C362.323 17.6025 361.801 17.5415 361.117 17.5415H358.634V21.2329ZM374.403 25.6567C373.675 24.7388 373.06 23.6646 372.557 22.4341C372.054 21.2036 371.803 19.9292 371.803 18.6108C371.803 17.4487 371.991 16.3354 372.367 15.271C372.806 14.0356 373.485 12.8052 374.403 11.5796H375.347C374.757 12.5952 374.366 13.3203 374.176 13.7549C373.878 14.4287 373.643 15.1318 373.472 15.8643C373.263 16.7773 373.158 17.6953 373.158 18.6182C373.158 20.9668 373.888 23.313 375.347 25.6567H374.403ZM378.614 22.5L376.233 14.7217H377.596L378.833 19.2114L379.295 20.8813C379.314 20.7983 379.449 20.2637 379.698 19.2773L380.936 14.7217H382.291L383.455 19.2334L383.843 20.7202L384.29 19.2188L385.623 14.7217H386.905L384.473 22.5H383.104L381.866 17.8418L381.565 16.5161L379.991 22.5H378.614ZM393.643 19.9951L395.005 20.1636C394.79 20.9595 394.392 21.5771 393.811 22.0166C393.23 22.4561 392.488 22.6758 391.585 22.6758C390.447 22.6758 389.544 22.3267 388.875 21.6284C388.211 20.9253 387.879 19.9414 387.879 18.6768C387.879 17.3682 388.216 16.3525 388.889 15.6299C389.563 14.9072 390.437 14.5459 391.511 14.5459C392.551 14.5459 393.401 14.8999 394.06 15.6079C394.719 16.3159 395.049 17.312 395.049 18.5962C395.049 18.6743 395.047 18.7915 395.042 18.9478H389.241C389.29 19.8022 389.531 20.4565 389.966 20.9106C390.401 21.3647 390.943 21.5918 391.592 21.5918C392.075 21.5918 392.488 21.4648 392.83 21.2109C393.172 20.957 393.443 20.5518 393.643 19.9951ZM389.314 17.8638H393.657C393.599 17.2095 393.433 16.7188 393.159 16.3916C392.739 15.8838 392.195 15.6299 391.526 15.6299C390.921 15.6299 390.41 15.8325 389.995 16.2378C389.585 16.6431 389.358 17.1851 389.314 17.8638ZM398.183 22.5H396.96V11.7627H398.279V15.5933C398.835 14.895 399.546 14.5459 400.41 14.5459C400.889 14.5459 401.34 14.6436 401.765 14.8389C402.195 15.0293 402.546 15.3003 402.82 15.6519C403.098 15.9985 403.315 16.4185 403.472 16.9116C403.628 17.4048 403.706 17.9321 403.706 18.4937C403.706 19.8267 403.376 20.8569 402.717 21.5845C402.058 22.312 401.267 22.6758 400.344 22.6758C399.426 22.6758 398.706 22.2925 398.183 21.5259V22.5ZM398.169 18.5522C398.169 19.4849 398.296 20.1587 398.55 20.5737C398.965 21.2524 399.526 21.5918 400.234 21.5918C400.81 21.5918 401.308 21.3428 401.728 20.8447C402.148 20.3418 402.358 19.5947 402.358 18.6035C402.358 17.5879 402.156 16.8384 401.75 16.355C401.35 15.8716 400.864 15.6299 400.293 15.6299C399.717 15.6299 399.219 15.8813 398.799 16.3843C398.379 16.8823 398.169 17.605 398.169 18.5522ZM406.482 25.6567H405.537C406.997 23.313 407.727 20.9668 407.727 18.6182C407.727 17.7002 407.622 16.7896 407.412 15.8862C407.246 15.1538 407.014 14.4507 406.716 13.7769C406.525 13.3374 406.132 12.605 405.537 11.5796H406.482C407.4 12.8052 408.078 14.0356 408.518 15.271C408.894 16.3354 409.082 17.4487 409.082 18.6108C409.082 19.9292 408.828 21.2036 408.32 22.4341C407.817 23.6646 407.204 24.7388 406.482 25.6567ZM411.279 16.2231V14.7217H412.78V16.2231H411.279ZM411.279 22.5V20.9985H412.78V22.5H411.279ZM424.462 22.5H423.143V14.0991C422.826 14.4019 422.408 14.7046 421.891 15.0073C421.378 15.3101 420.917 15.5371 420.507 15.6885V14.4141C421.244 14.0674 421.888 13.6475 422.44 13.1543C422.992 12.6611 423.383 12.1826 423.612 11.7188H424.462V22.5ZM428.153 19.6655L429.471 19.4897C429.622 20.2368 429.879 20.7764 430.24 21.1084C430.606 21.4355 431.051 21.5991 431.573 21.5991C432.193 21.5991 432.716 21.3843 433.141 20.9546C433.57 20.5249 433.785 19.9927 433.785 19.3579C433.785 18.7524 433.587 18.2544 433.192 17.8638C432.796 17.4683 432.293 17.2705 431.683 17.2705C431.434 17.2705 431.124 17.3193 430.753 17.417L430.899 16.2598C430.987 16.2695 431.058 16.2744 431.112 16.2744C431.673 16.2744 432.179 16.1279 432.628 15.835C433.077 15.542 433.302 15.0903 433.302 14.48C433.302 13.9966 433.138 13.5962 432.811 13.2788C432.484 12.9614 432.061 12.8027 431.544 12.8027C431.031 12.8027 430.604 12.9639 430.262 13.2861C429.92 13.6084 429.701 14.0918 429.603 14.7363L428.285 14.502C428.446 13.6182 428.812 12.9346 429.383 12.4512C429.954 11.9629 430.665 11.7188 431.515 11.7188C432.1 11.7188 432.64 11.8457 433.133 12.0996C433.626 12.3486 434.002 12.6904 434.261 13.125C434.525 13.5596 434.657 14.021 434.657 14.5093C434.657 14.9731 434.532 15.3955 434.283 15.7764C434.034 16.1572 433.665 16.46 433.177 16.6846C433.812 16.8311 434.305 17.1362 434.657 17.6001C435.008 18.0591 435.184 18.6353 435.184 19.3286C435.184 20.2661 434.842 21.062 434.159 21.7163C433.475 22.3657 432.611 22.6904 431.566 22.6904C430.623 22.6904 429.84 22.4097 429.215 21.8481C428.595 21.2866 428.241 20.5591 428.153 19.6655ZM441.021 22.5V19.9292H436.363V18.7207L441.263 11.7627H442.339V18.7207H443.79V19.9292H442.339V22.5H441.021ZM441.021 18.7207V13.8794L437.659 18.7207H441.021ZM446.155 22.5V20.9985H447.657V22.5C447.657 23.0518 447.559 23.4961 447.364 23.833C447.168 24.1748 446.858 24.4385 446.433 24.624L446.067 24.0601C446.346 23.938 446.551 23.7573 446.682 23.5181C446.814 23.2837 446.887 22.9443 446.902 22.5H446.155ZM461.323 21.2329V22.5H454.226C454.216 22.1826 454.267 21.8774 454.38 21.5845C454.56 21.1011 454.848 20.625 455.244 20.1562C455.644 19.6875 456.22 19.1455 456.972 18.5303C458.139 17.5732 458.928 16.8164 459.338 16.2598C459.748 15.6982 459.953 15.1685 459.953 14.6704C459.953 14.1479 459.765 13.7085 459.389 13.3521C459.018 12.9907 458.532 12.8101 457.932 12.8101C457.297 12.8101 456.789 13.0005 456.408 13.3813C456.028 13.7622 455.835 14.2896 455.83 14.9634L454.475 14.8242C454.568 13.8135 454.917 13.0444 455.522 12.5171C456.128 11.9849 456.941 11.7188 457.961 11.7188C458.991 11.7188 459.807 12.0044 460.407 12.5757C461.008 13.147 461.308 13.855 461.308 14.6997C461.308 15.1294 461.22 15.5518 461.045 15.9668C460.869 16.3818 460.576 16.8188 460.166 17.2778C459.76 17.7368 459.084 18.3667 458.137 19.1675C457.346 19.8315 456.838 20.2832 456.613 20.5225C456.389 20.7568 456.203 20.9937 456.057 21.2329H461.323ZM469.973 21.2329V22.5H462.875C462.866 22.1826 462.917 21.8774 463.029 21.5845C463.21 21.1011 463.498 20.625 463.893 20.1562C464.294 19.6875 464.87 19.1455 465.622 18.5303C466.789 17.5732 467.578 16.8164 467.988 16.2598C468.398 15.6982 468.603 15.1685 468.603 14.6704C468.603 14.1479 468.415 13.7085 468.039 13.3521C467.668 12.9907 467.182 12.8101 466.581 12.8101C465.947 12.8101 465.439 13.0005 465.058 13.3813C464.677 13.7622 464.484 14.2896 464.479 14.9634L463.124 14.8242C463.217 13.8135 463.566 13.0444 464.172 12.5171C464.777 11.9849 465.59 11.7188 466.611 11.7188C467.641 11.7188 468.456 12.0044 469.057 12.5757C469.658 13.147 469.958 13.855 469.958 14.6997C469.958 15.1294 469.87 15.5518 469.694 15.9668C469.518 16.3818 469.225 16.8188 468.815 17.2778C468.41 17.7368 467.734 18.3667 466.787 19.1675C465.996 19.8315 465.488 20.2832 465.263 20.5225C465.038 20.7568 464.853 20.9937 464.706 21.2329H469.973ZM478.534 14.3921L477.223 14.4946C477.106 13.9771 476.94 13.6011 476.725 13.3667C476.369 12.9907 475.929 12.8027 475.407 12.8027C474.987 12.8027 474.618 12.9199 474.301 13.1543C473.886 13.457 473.559 13.8989 473.319 14.48C473.08 15.061 472.956 15.8887 472.946 16.9629C473.263 16.4795 473.651 16.1206 474.11 15.8862C474.569 15.6519 475.05 15.5347 475.553 15.5347C476.432 15.5347 477.179 15.8594 477.795 16.5088C478.415 17.1533 478.725 17.9883 478.725 19.0137C478.725 19.6875 478.578 20.3149 478.285 20.896C477.997 21.4722 477.599 21.9141 477.091 22.2217C476.584 22.5293 476.007 22.6831 475.363 22.6831C474.264 22.6831 473.368 22.2803 472.675 21.4746C471.982 20.6641 471.635 19.3311 471.635 17.4756C471.635 15.4004 472.018 13.8916 472.785 12.9492C473.454 12.1289 474.355 11.7188 475.487 11.7188C476.332 11.7188 477.023 11.9556 477.56 12.4292C478.102 12.9028 478.427 13.5571 478.534 14.3921ZM473.151 19.021C473.151 19.4751 473.246 19.9097 473.437 20.3247C473.632 20.7397 473.903 21.0571 474.25 21.2769C474.596 21.4917 474.96 21.5991 475.341 21.5991C475.898 21.5991 476.376 21.3745 476.776 20.9253C477.177 20.4761 477.377 19.8657 477.377 19.0942C477.377 18.3521 477.179 17.7686 476.784 17.3438C476.388 16.9141 475.89 16.6992 475.29 16.6992C474.694 16.6992 474.189 16.9141 473.774 17.3438C473.358 17.7686 473.151 18.3276 473.151 19.021ZM481.054 22.5V20.9985H482.555V22.5C482.555 23.0518 482.457 23.4961 482.262 23.833C482.067 24.1748 481.757 24.4385 481.332 24.624L480.966 24.0601C481.244 23.938 481.449 23.7573 481.581 23.5181C481.713 23.2837 481.786 22.9443 481.801 22.5H481.054ZM496.221 21.2329V22.5H489.124C489.114 22.1826 489.166 21.8774 489.278 21.5845C489.459 21.1011 489.747 20.625 490.142 20.1562C490.543 19.6875 491.119 19.1455 491.871 18.5303C493.038 17.5732 493.826 16.8164 494.237 16.2598C494.647 15.6982 494.852 15.1685 494.852 14.6704C494.852 14.1479 494.664 13.7085 494.288 13.3521C493.917 12.9907 493.431 12.8101 492.83 12.8101C492.196 12.8101 491.688 13.0005 491.307 13.3813C490.926 13.7622 490.733 14.2896 490.728 14.9634L489.373 14.8242C489.466 13.8135 489.815 13.0444 490.421 12.5171C491.026 11.9849 491.839 11.7188 492.86 11.7188C493.89 11.7188 494.705 12.0044 495.306 12.5757C495.906 13.147 496.207 13.855 496.207 14.6997C496.207 15.1294 496.119 15.5518 495.943 15.9668C495.767 16.3818 495.474 16.8188 495.064 17.2778C494.659 17.7368 493.983 18.3667 493.035 19.1675C492.244 19.8315 491.737 20.2832 491.512 20.5225C491.287 20.7568 491.102 20.9937 490.955 21.2329H496.221ZM502.908 22.5H501.59V14.0991C501.272 14.4019 500.855 14.7046 500.337 15.0073C499.825 15.3101 499.363 15.5371 498.953 15.6885V14.4141C499.69 14.0674 500.335 13.6475 500.887 13.1543C501.438 12.6611 501.829 12.1826 502.059 11.7188H502.908V22.5ZM506.599 19.6655L507.918 19.4897C508.069 20.2368 508.325 20.7764 508.687 21.1084C509.053 21.4355 509.497 21.5991 510.02 21.5991C510.64 21.5991 511.162 21.3843 511.587 20.9546C512.017 20.5249 512.232 19.9927 512.232 19.3579C512.232 18.7524 512.034 18.2544 511.638 17.8638C511.243 17.4683 510.74 17.2705 510.129 17.2705C509.88 17.2705 509.57 17.3193 509.199 17.417L509.346 16.2598C509.434 16.2695 509.504 16.2744 509.558 16.2744C510.12 16.2744 510.625 16.1279 511.074 15.835C511.524 15.542 511.748 15.0903 511.748 14.48C511.748 13.9966 511.585 13.5962 511.257 13.2788C510.93 12.9614 510.508 12.8027 509.99 12.8027C509.478 12.8027 509.05 12.9639 508.709 13.2861C508.367 13.6084 508.147 14.0918 508.049 14.7363L506.731 14.502C506.892 13.6182 507.258 12.9346 507.83 12.4512C508.401 11.9629 509.111 11.7188 509.961 11.7188C510.547 11.7188 511.087 11.8457 511.58 12.0996C512.073 12.3486 512.449 12.6904 512.708 13.125C512.971 13.5596 513.103 14.021 513.103 14.5093C513.103 14.9731 512.979 15.3955 512.73 15.7764C512.481 16.1572 512.112 16.46 511.624 16.6846C512.258 16.8311 512.752 17.1362 513.103 17.6001C513.455 18.0591 513.63 18.6353 513.63 19.3286C513.63 20.2661 513.289 21.062 512.605 21.7163C511.921 22.3657 511.057 22.6904 510.012 22.6904C509.07 22.6904 508.286 22.4097 507.661 21.8481C507.041 21.2866 506.687 20.5591 506.599 19.6655ZM341.818 35.7354L343.239 36.0942C342.941 37.2612 342.404 38.1523 341.628 38.7676C340.856 39.3779 339.912 39.6831 338.793 39.6831C337.636 39.6831 336.694 39.4487 335.966 38.98C335.244 38.5063 334.692 37.8228 334.311 36.9292C333.935 36.0356 333.747 35.0762 333.747 34.0508C333.747 32.9326 333.959 31.9585 334.384 31.1284C334.814 30.2935 335.422 29.6611 336.208 29.2314C336.999 28.7969 337.868 28.5796 338.815 28.5796C339.89 28.5796 340.793 28.853 341.525 29.3999C342.258 29.9468 342.768 30.7158 343.056 31.707L341.657 32.0366C341.408 31.2554 341.047 30.6865 340.573 30.3301C340.1 29.9736 339.504 29.7954 338.786 29.7954C337.961 29.7954 337.27 29.9932 336.713 30.3887C336.162 30.7842 335.773 31.3164 335.549 31.9854C335.324 32.6494 335.212 33.3354 335.212 34.0435C335.212 34.9565 335.344 35.7549 335.607 36.4385C335.876 37.1172 336.291 37.625 336.853 37.9619C337.414 38.2988 338.022 38.4673 338.676 38.4673C339.472 38.4673 340.146 38.2378 340.698 37.7788C341.25 37.3198 341.623 36.6387 341.818 35.7354ZM345.253 39.5V28.7627H347.392L349.933 36.3652C350.168 37.0732 350.339 37.603 350.446 37.9546C350.568 37.564 350.758 36.9902 351.017 36.2334L353.588 28.7627H355.5V39.5H354.13V30.5132L351.01 39.5H349.728L346.623 30.3594V39.5H345.253ZM361.117 39.5V34.9517L356.979 28.7627H358.707L360.824 32C361.215 32.6055 361.579 33.2109 361.915 33.8164C362.238 33.2549 362.628 32.6226 363.087 31.9194L365.167 28.7627H366.823L362.538 34.9517V39.5H361.117ZM368.338 39.5V28.7627H369.759V34.0874L375.091 28.7627H377.018L372.513 33.1133L377.215 39.5H375.34L371.517 34.0654L369.759 35.7793V39.5H368.338ZM385.528 42.6567C384.8 41.7388 384.185 40.6646 383.682 39.4341C383.179 38.2036 382.928 36.9292 382.928 35.6108C382.928 34.4487 383.116 33.3354 383.492 32.271C383.931 31.0356 384.61 29.8052 385.528 28.5796H386.473C385.882 29.5952 385.491 30.3203 385.301 30.7549C385.003 31.4287 384.769 32.1318 384.598 32.8643C384.388 33.7773 384.283 34.6953 384.283 35.6182C384.283 37.9668 385.013 40.313 386.473 42.6567H385.528ZM388.303 42.481V31.7217H389.505V32.7324C389.788 32.3369 390.108 32.0415 390.464 31.8462C390.821 31.646 391.253 31.5459 391.76 31.5459C392.425 31.5459 393.01 31.7168 393.518 32.0586C394.026 32.4004 394.409 32.8838 394.668 33.5088C394.927 34.1289 395.056 34.8101 395.056 35.5522C395.056 36.3481 394.912 37.0659 394.624 37.7056C394.341 38.3403 393.926 38.8286 393.379 39.1704C392.837 39.5073 392.266 39.6758 391.665 39.6758C391.226 39.6758 390.83 39.583 390.479 39.3975C390.132 39.2119 389.846 38.9775 389.622 38.6943V42.481H388.303ZM389.497 35.6548C389.497 36.6558 389.7 37.3955 390.105 37.874C390.51 38.3525 391.001 38.5918 391.577 38.5918C392.163 38.5918 392.664 38.3452 393.079 37.8521C393.499 37.354 393.709 36.585 393.709 35.5449C393.709 34.5537 393.504 33.8115 393.093 33.3184C392.688 32.8252 392.202 32.5786 391.636 32.5786C391.074 32.5786 390.576 32.8423 390.142 33.3696C389.712 33.8921 389.497 34.6538 389.497 35.6548ZM396.938 39.5V31.7217H398.125V32.9009C398.428 32.3491 398.706 31.9854 398.96 31.8096C399.219 31.6338 399.502 31.5459 399.809 31.5459C400.254 31.5459 400.705 31.6875 401.164 31.9707L400.71 33.1938C400.388 33.0034 400.066 32.9082 399.744 32.9082C399.455 32.9082 399.197 32.9961 398.967 33.1719C398.738 33.3428 398.574 33.582 398.476 33.8896C398.33 34.3584 398.257 34.8711 398.257 35.4277V39.5H396.938ZM402.255 30.2788V28.7627H403.574V30.2788H402.255ZM402.255 39.5V31.7217H403.574V39.5H402.255ZM405.888 39.5V31.7217H407.075V32.8276C407.646 31.9731 408.471 31.5459 409.55 31.5459C410.019 31.5459 410.449 31.6313 410.839 31.8022C411.235 31.9683 411.53 32.188 411.725 32.4614C411.921 32.7349 412.057 33.0596 412.136 33.4355C412.184 33.6797 412.209 34.1069 412.209 34.7173V39.5H410.89V34.7686C410.89 34.2314 410.839 33.8311 410.737 33.5674C410.634 33.2988 410.451 33.0864 410.187 32.9302C409.929 32.769 409.623 32.6885 409.272 32.6885C408.71 32.6885 408.224 32.8667 407.814 33.2231C407.409 33.5796 407.206 34.2559 407.206 35.252V39.5H405.888ZM417.416 38.3208L417.606 39.4854C417.235 39.5635 416.903 39.6025 416.61 39.6025C416.132 39.6025 415.761 39.5269 415.497 39.3755C415.233 39.2241 415.048 39.0264 414.94 38.7822C414.833 38.5332 414.779 38.0132 414.779 37.2222V32.7471H413.812V31.7217H414.779V29.7954L416.09 29.0044V31.7217H417.416V32.7471H416.09V37.2954C416.09 37.6714 416.112 37.9131 416.156 38.0205C416.205 38.1279 416.281 38.2134 416.383 38.2769C416.491 38.3403 416.642 38.3721 416.837 38.3721C416.984 38.3721 417.177 38.355 417.416 38.3208ZM419.877 42.6567H418.932C420.392 40.313 421.122 37.9668 421.122 35.6182C421.122 34.7002 421.017 33.7896 420.807 32.8862C420.641 32.1538 420.409 31.4507 420.111 30.7769C419.921 30.3374 419.528 29.605 418.932 28.5796H419.877C420.795 29.8052 421.473 31.0356 421.913 32.271C422.289 33.3354 422.477 34.4487 422.477 35.6108C422.477 36.9292 422.223 38.2036 421.715 39.4341C421.212 40.6646 420.599 41.7388 419.877 42.6567ZM424.674 33.2231V31.7217H426.175V33.2231H424.674ZM424.674 39.5V37.9985H426.175V39.5H424.674ZM432.891 36.6875L434.275 36.5703C434.378 37.2441 434.615 37.752 434.986 38.0938C435.362 38.4307 435.813 38.5991 436.341 38.5991C436.975 38.5991 437.512 38.3599 437.952 37.8813C438.391 37.4028 438.611 36.7681 438.611 35.9771C438.611 35.2251 438.399 34.6318 437.974 34.1973C437.554 33.7627 437.002 33.5454 436.319 33.5454C435.894 33.5454 435.511 33.6431 435.169 33.8384C434.827 34.0288 434.558 34.2778 434.363 34.5854L433.125 34.4243L434.165 28.9092H439.505V30.1689H435.22L434.641 33.0547C435.286 32.6055 435.962 32.3809 436.67 32.3809C437.608 32.3809 438.399 32.7056 439.043 33.355C439.688 34.0044 440.01 34.8394 440.01 35.8599C440.01 36.8315 439.727 37.6714 439.16 38.3794C438.472 39.2485 437.532 39.6831 436.341 39.6831C435.364 39.6831 434.566 39.4097 433.946 38.8628C433.33 38.3159 432.979 37.5908 432.891 36.6875ZM441.541 34.2046C441.541 32.9351 441.67 31.9146 441.929 31.1431C442.192 30.3667 442.581 29.7686 443.093 29.3486C443.611 28.9287 444.26 28.7188 445.042 28.7188C445.618 28.7188 446.123 28.8359 446.558 29.0703C446.992 29.2998 447.351 29.6343 447.634 30.0737C447.917 30.5083 448.14 31.0405 448.301 31.6704C448.462 32.2954 448.542 33.1401 448.542 34.2046C448.542 35.4644 448.413 36.4824 448.154 37.2588C447.896 38.0303 447.507 38.6284 446.99 39.0532C446.477 39.4731 445.828 39.6831 445.042 39.6831C444.006 39.6831 443.193 39.312 442.603 38.5698C441.895 37.6763 441.541 36.2212 441.541 34.2046ZM442.896 34.2046C442.896 35.9673 443.101 37.1416 443.511 37.7275C443.926 38.3086 444.436 38.5991 445.042 38.5991C445.647 38.5991 446.155 38.3062 446.565 37.7202C446.98 37.1343 447.188 35.9624 447.188 34.2046C447.188 32.437 446.98 31.2627 446.565 30.6816C446.155 30.1006 445.642 29.8101 445.027 29.8101C444.421 29.8101 443.938 30.0664 443.577 30.5791C443.123 31.2334 442.896 32.4419 442.896 34.2046ZM450.901 39.5V37.9985H452.402V39.5C452.402 40.0518 452.304 40.4961 452.109 40.833C451.914 41.1748 451.604 41.4385 451.179 41.624L450.813 41.0601C451.091 40.938 451.296 40.7573 451.428 40.5181C451.56 40.2837 451.633 39.9443 451.648 39.5H450.901ZM459.14 34.2046C459.14 32.9351 459.269 31.9146 459.528 31.1431C459.792 30.3667 460.18 29.7686 460.692 29.3486C461.21 28.9287 461.859 28.7188 462.641 28.7188C463.217 28.7188 463.722 28.8359 464.157 29.0703C464.591 29.2998 464.95 29.6343 465.233 30.0737C465.517 30.5083 465.739 31.0405 465.9 31.6704C466.061 32.2954 466.142 33.1401 466.142 34.2046C466.142 35.4644 466.012 36.4824 465.754 37.2588C465.495 38.0303 465.107 38.6284 464.589 39.0532C464.076 39.4731 463.427 39.6831 462.641 39.6831C461.606 39.6831 460.793 39.312 460.202 38.5698C459.494 37.6763 459.14 36.2212 459.14 34.2046ZM460.495 34.2046C460.495 35.9673 460.7 37.1416 461.11 37.7275C461.525 38.3086 462.035 38.5991 462.641 38.5991C463.246 38.5991 463.754 38.3062 464.164 37.7202C464.579 37.1343 464.787 35.9624 464.787 34.2046C464.787 32.437 464.579 31.2627 464.164 30.6816C463.754 30.1006 463.241 29.8101 462.626 29.8101C462.021 29.8101 461.537 30.0664 461.176 30.5791C460.722 31.2334 460.495 32.4419 460.495 34.2046ZM468.5 39.5V37.9985H470.001V39.5C470.001 40.0518 469.904 40.4961 469.708 40.833C469.513 41.1748 469.203 41.4385 468.778 41.624L468.412 41.0601C468.69 40.938 468.895 40.7573 469.027 40.5181C469.159 40.2837 469.232 39.9443 469.247 39.5H468.5ZM483.668 38.2329V39.5H476.571C476.561 39.1826 476.612 38.8774 476.724 38.5845C476.905 38.1011 477.193 37.625 477.589 37.1562C477.989 36.6875 478.565 36.1455 479.317 35.5303C480.484 34.5732 481.273 33.8164 481.683 33.2598C482.093 32.6982 482.298 32.1685 482.298 31.6704C482.298 31.1479 482.11 30.7085 481.734 30.3521C481.363 29.9907 480.877 29.8101 480.277 29.8101C479.642 29.8101 479.134 30.0005 478.753 30.3813C478.372 30.7622 478.179 31.2896 478.175 31.9634L476.82 31.8242C476.912 30.8135 477.261 30.0444 477.867 29.5171C478.472 28.9849 479.285 28.7188 480.306 28.7188C481.336 28.7188 482.152 29.0044 482.752 29.5757C483.353 30.147 483.653 30.855 483.653 31.6997C483.653 32.1294 483.565 32.5518 483.389 32.9668C483.214 33.3818 482.921 33.8188 482.51 34.2778C482.105 34.7368 481.429 35.3667 480.482 36.1675C479.691 36.8315 479.183 37.2832 478.958 37.5225C478.734 37.7568 478.548 37.9937 478.402 38.2329H483.668ZM485.389 36.6875L486.773 36.5703C486.875 37.2441 487.112 37.752 487.483 38.0938C487.859 38.4307 488.311 38.5991 488.838 38.5991C489.473 38.5991 490.01 38.3599 490.45 37.8813C490.889 37.4028 491.109 36.7681 491.109 35.9771C491.109 35.2251 490.896 34.6318 490.472 34.1973C490.052 33.7627 489.5 33.5454 488.816 33.5454C488.392 33.5454 488.008 33.6431 487.666 33.8384C487.325 34.0288 487.056 34.2778 486.861 34.5854L485.623 34.4243L486.663 28.9092H492.002V30.1689H487.718L487.139 33.0547C487.784 32.6055 488.46 32.3809 489.168 32.3809C490.105 32.3809 490.896 32.7056 491.541 33.355C492.185 34.0044 492.508 34.8394 492.508 35.8599C492.508 36.8315 492.225 37.6714 491.658 38.3794C490.97 39.2485 490.03 39.6831 488.838 39.6831C487.862 39.6831 487.063 39.4097 486.443 38.8628C485.828 38.3159 485.476 37.5908 485.389 36.6875ZM494.749 39.5V37.9985H496.25V39.5C496.25 40.0518 496.152 40.4961 495.957 40.833C495.762 41.1748 495.452 41.4385 495.027 41.624L494.661 41.0601C494.939 40.938 495.144 40.7573 495.276 40.5181C495.408 40.2837 495.481 39.9443 495.496 39.5H494.749ZM502.988 34.2046C502.988 32.9351 503.117 31.9146 503.376 31.1431C503.64 30.3667 504.028 29.7686 504.541 29.3486C505.058 28.9287 505.708 28.7188 506.489 28.7188C507.065 28.7188 507.57 28.8359 508.005 29.0703C508.439 29.2998 508.798 29.6343 509.082 30.0737C509.365 30.5083 509.587 31.0405 509.748 31.6704C509.909 32.2954 509.99 33.1401 509.99 34.2046C509.99 35.4644 509.86 36.4824 509.602 37.2588C509.343 38.0303 508.955 38.6284 508.437 39.0532C507.924 39.4731 507.275 39.6831 506.489 39.6831C505.454 39.6831 504.641 39.312 504.05 38.5698C503.342 37.6763 502.988 36.2212 502.988 34.2046ZM504.343 34.2046C504.343 35.9673 504.548 37.1416 504.958 37.7275C505.373 38.3086 505.883 38.5991 506.489 38.5991C507.094 38.5991 507.602 38.3062 508.012 37.7202C508.427 37.1343 508.635 35.9624 508.635 34.2046C508.635 32.437 508.427 31.2627 508.012 30.6816C507.602 30.1006 507.089 29.8101 506.474 29.8101C505.869 29.8101 505.385 30.0664 505.024 30.5791C504.57 31.2334 504.343 32.4419 504.343 34.2046ZM334.201 56.5V45.7627H335.622V50.1719H341.203V45.7627H342.624V56.5H341.203V51.439H335.622V56.5H334.201ZM345.326 56.5V45.7627H353.09V47.0298H346.747V50.3184H352.687V51.5781H346.747V55.2329H353.339V56.5H345.326ZM354.511 56.5L358.663 50.9043L355.001 45.7627H356.693L358.642 48.5166C359.047 49.0879 359.335 49.5273 359.506 49.835C359.745 49.4443 360.028 49.0366 360.355 48.6118L362.516 45.7627H364.061L360.289 50.8237L364.354 56.5H362.597L359.894 52.6694C359.743 52.4497 359.586 52.2104 359.425 51.9517C359.186 52.3423 359.015 52.6108 358.913 52.7573L356.217 56.5H354.511ZM366.105 50.2231V48.7217H367.606V50.2231H366.105ZM366.105 56.5V54.9985H367.606V56.5H366.105ZM376.351 50.6772C375.804 50.4771 375.398 50.1914 375.135 49.8203C374.871 49.4492 374.739 49.0049 374.739 48.4873C374.739 47.7061 375.02 47.0493 375.582 46.5171C376.143 45.9849 376.89 45.7188 377.823 45.7188C378.76 45.7188 379.515 45.9922 380.086 46.5391C380.657 47.0811 380.943 47.7427 380.943 48.5239C380.943 49.022 380.811 49.4565 380.547 49.8276C380.289 50.1938 379.893 50.4771 379.361 50.6772C380.02 50.8921 380.521 51.2388 380.862 51.7173C381.209 52.1958 381.382 52.7671 381.382 53.4312C381.382 54.3491 381.058 55.1206 380.408 55.7456C379.759 56.3706 378.904 56.6831 377.845 56.6831C376.785 56.6831 375.931 56.3706 375.281 55.7456C374.632 55.1157 374.307 54.332 374.307 53.3945C374.307 52.6963 374.483 52.1128 374.834 51.644C375.191 51.1704 375.696 50.8481 376.351 50.6772ZM376.087 48.4434C376.087 48.9512 376.25 49.3662 376.578 49.6885C376.905 50.0107 377.33 50.1719 377.852 50.1719C378.36 50.1719 378.775 50.0132 379.097 49.6958C379.424 49.3735 379.588 48.9805 379.588 48.5166C379.588 48.0332 379.419 47.6279 379.083 47.3008C378.75 46.9688 378.335 46.8027 377.837 46.8027C377.334 46.8027 376.917 46.9639 376.585 47.2861C376.253 47.6084 376.087 47.9941 376.087 48.4434ZM375.662 53.4019C375.662 53.7778 375.75 54.1416 375.926 54.4932C376.106 54.8447 376.373 55.1182 376.724 55.3135C377.076 55.5039 377.454 55.5991 377.859 55.5991C378.489 55.5991 379.009 55.3965 379.419 54.9912C379.83 54.5859 380.035 54.0708 380.035 53.4458C380.035 52.811 379.822 52.2861 379.397 51.8711C378.978 51.4561 378.45 51.2485 377.815 51.2485C377.195 51.2485 376.68 51.4536 376.27 51.8638C375.865 52.2739 375.662 52.7866 375.662 53.4019ZM389.812 48.3921L388.501 48.4946C388.384 47.9771 388.218 47.6011 388.003 47.3667C387.647 46.9907 387.207 46.8027 386.685 46.8027C386.265 46.8027 385.896 46.9199 385.579 47.1543C385.164 47.457 384.837 47.8989 384.597 48.48C384.358 49.061 384.234 49.8887 384.224 50.9629C384.541 50.4795 384.929 50.1206 385.388 49.8862C385.847 49.6519 386.328 49.5347 386.831 49.5347C387.71 49.5347 388.457 49.8594 389.072 50.5088C389.693 51.1533 390.003 51.9883 390.003 53.0137C390.003 53.6875 389.856 54.3149 389.563 54.896C389.275 55.4722 388.877 55.9141 388.369 56.2217C387.862 56.5293 387.285 56.6831 386.641 56.6831C385.542 56.6831 384.646 56.2803 383.953 55.4746C383.259 54.6641 382.913 53.3311 382.913 51.4756C382.913 49.4004 383.296 47.8916 384.063 46.9492C384.732 46.1289 385.633 45.7188 386.765 45.7188C387.61 45.7188 388.301 45.9556 388.838 46.4292C389.38 46.9028 389.705 47.5571 389.812 48.3921ZM384.429 53.021C384.429 53.4751 384.524 53.9097 384.715 54.3247C384.91 54.7397 385.181 55.0571 385.528 55.2769C385.874 55.4917 386.238 55.5991 386.619 55.5991C387.175 55.5991 387.654 55.3745 388.054 54.9253C388.455 54.4761 388.655 53.8657 388.655 53.0942C388.655 52.3521 388.457 51.7686 388.062 51.3438C387.666 50.9141 387.168 50.6992 386.568 50.6992C385.972 50.6992 385.467 50.9141 385.051 51.3438C384.636 51.7686 384.429 52.3276 384.429 53.021ZM397.312 53.9951L398.674 54.1636C398.459 54.9595 398.061 55.5771 397.48 56.0166C396.899 56.4561 396.157 56.6758 395.254 56.6758C394.116 56.6758 393.213 56.3267 392.544 55.6284C391.88 54.9253 391.548 53.9414 391.548 52.6768C391.548 51.3682 391.885 50.3525 392.558 49.6299C393.232 48.9072 394.106 48.5459 395.181 48.5459C396.221 48.5459 397.07 48.8999 397.729 49.6079C398.389 50.3159 398.718 51.312 398.718 52.5962C398.718 52.6743 398.716 52.7915 398.711 52.9478H392.91C392.959 53.8022 393.201 54.4565 393.635 54.9106C394.07 55.3647 394.612 55.5918 395.261 55.5918C395.745 55.5918 396.157 55.4648 396.499 55.2109C396.841 54.957 397.112 54.5518 397.312 53.9951ZM392.983 51.8638H397.327C397.268 51.2095 397.102 50.7188 396.829 50.3916C396.409 49.8838 395.864 49.6299 395.195 49.6299C394.59 49.6299 394.079 49.8325 393.664 50.2378C393.254 50.6431 393.027 51.1851 392.983 51.8638ZM407.199 55.2329V56.5H400.102C400.092 56.1826 400.144 55.8774 400.256 55.5845C400.437 55.1011 400.725 54.625 401.12 54.1562C401.521 53.6875 402.097 53.1455 402.849 52.5303C404.016 51.5732 404.804 50.8164 405.214 50.2598C405.625 49.6982 405.83 49.1685 405.83 48.6704C405.83 48.1479 405.642 47.7085 405.266 47.3521C404.895 46.9907 404.409 46.8101 403.808 46.8101C403.173 46.8101 402.666 47.0005 402.285 47.3813C401.904 47.7622 401.711 48.2896 401.706 48.9634L400.351 48.8242C400.444 47.8135 400.793 47.0444 401.399 46.5171C402.004 45.9849 402.817 45.7188 403.838 45.7188C404.868 45.7188 405.683 46.0044 406.284 46.5757C406.884 47.147 407.185 47.855 407.185 48.6997C407.185 49.1294 407.097 49.5518 406.921 49.9668C406.745 50.3818 406.452 50.8188 406.042 51.2778C405.637 51.7368 404.961 52.3667 404.013 53.1675C403.222 53.8315 402.714 54.2832 402.49 54.5225C402.265 54.7568 402.08 54.9937 401.933 55.2329H407.199ZM414.333 56.5V55.5186C413.84 56.29 413.115 56.6758 412.158 56.6758C411.537 56.6758 410.966 56.5049 410.444 56.1631C409.926 55.8213 409.523 55.3452 409.235 54.7349C408.952 54.1196 408.81 53.4141 408.81 52.6182C408.81 51.8418 408.94 51.1387 409.199 50.5088C409.457 49.874 409.846 49.3882 410.363 49.0513C410.881 48.7144 411.459 48.5459 412.099 48.5459C412.568 48.5459 412.985 48.646 413.351 48.8462C413.718 49.0415 414.015 49.2979 414.245 49.6152V45.7627H415.556V56.5H414.333ZM410.165 52.6182C410.165 53.6143 410.375 54.3589 410.795 54.8521C411.215 55.3452 411.711 55.5918 412.282 55.5918C412.858 55.5918 413.346 55.3574 413.747 54.8887C414.152 54.415 414.355 53.6948 414.355 52.728C414.355 51.6636 414.15 50.8823 413.74 50.3843C413.329 49.8862 412.824 49.6372 412.223 49.6372C411.637 49.6372 411.147 49.8765 410.751 50.355C410.361 50.8335 410.165 51.5879 410.165 52.6182ZM417.57 53.6875L418.954 53.5703C419.057 54.2441 419.293 54.752 419.665 55.0938C420.041 55.4307 420.492 55.5991 421.02 55.5991C421.654 55.5991 422.191 55.3599 422.631 54.8813C423.07 54.4028 423.29 53.7681 423.29 52.9771C423.29 52.2251 423.078 51.6318 422.653 51.1973C422.233 50.7627 421.681 50.5454 420.998 50.5454C420.573 50.5454 420.189 50.6431 419.848 50.8384C419.506 51.0288 419.237 51.2778 419.042 51.5854L417.804 51.4243L418.844 45.9092H424.184V47.1689H419.899L419.32 50.0547C419.965 49.6055 420.641 49.3809 421.349 49.3809C422.287 49.3809 423.078 49.7056 423.722 50.355C424.367 51.0044 424.689 51.8394 424.689 52.8599C424.689 53.8315 424.406 54.6714 423.839 55.3794C423.151 56.2485 422.211 56.6831 421.02 56.6831C420.043 56.6831 419.245 56.4097 418.625 55.8628C418.009 55.3159 417.658 54.5908 417.57 53.6875Z" fill="black"/>
</svg>
