<?xml version="1.0" encoding="UTF-8"?><svg id="Layer_1" xmlns="http://www.w3.org/2000/svg" viewBox="0 0 869.51 346.83"><defs><style>.cls-1{fill-rule:evenodd;}</style></defs><g><path d="m104.5,317.78c0,12.81-6.25,28.82-24.86,28.82-3.36,0-6.56-.54-9.53-1.68-4.96-2.06-9.31-6.18-11.82-10.75-2.29-4.12-3.51-9.61-3.51-15.18,0-17.31,9.91-27.68,24.63-27.84,15.86-.15,25.09,11.36,25.09,26.62m-34.7-20.82c-2.9,2.9-5.18,7.63-5.18,22.11,0,3.74.15,7.09.53,10.37.31,2.28.69,4.58,1.6,6.71,2.75,6.4,8.69,8.23,12.96,8.23s7.63-1.6,9.76-3.74c4.35-4.35,5.11-11.9,5.11-21.2,0-3.2-.07-6.48-.38-9.76-.38-4.58-1.38-16.32-14.19-16.4-5.41,0-8.69,2.13-10.22,3.66Z"/><path d="m134.12,291.92v1.83h-7.55l-.08,6.48v29.13c.08,7.55.23,14.72,14.41,14.72s15.25-6.25,15.48-13.04v-30.81l-.07-6.48h-7.7v-1.83h16.86v1.83h-6.64l-.08,6.48v27.76c-.08,9.99-.15,18.54-19.9,18.54-2.82,0-9.54-.31-13.81-2.06-6.79-2.89-6.94-8.84-7.02-16.16v-28.07l-.07-6.48h-6.56v-1.83h22.73Z"/><path d="m218.5,341.26c-4.04,1.99-11.59,5.57-20.36,5.57-13.95,0-25.55-9.46-25.55-27.76,0-19.75,13.12-27.98,25.93-27.98,7.09,0,13.19,2.36,17.92,4.19v15.25h-1.91c-.45-2.51-1.14-5.8-3.66-9.84-3.97-6.26-8.85-7.4-13.12-7.4-15.1,0-15.33,17.69-15.33,26.84,0,5.18.23,11.52,2.52,16.24,1.52,3.2,5.34,8.24,12.97,8.24,2.13,0,5.03-.39,8.16-2.13,3.66-2.06,3.89-4.42,4.04-6.79v-7.78l-.08-6.1h-7.86v-1.76h22.35v1.76h-6.02l-.08,6.1v7.09l.08,6.25Z"/><path d="m271.76,291.92l.54,16.78h-1.98c-.61-4.12-1.3-8.24-4.42-11.36-3.06-3.05-6.64-3.13-11.06-3.13h-10.3l-.08,5.95v16.93h4.8c5.65-.23,8.39-1.6,8.62-9.07v-2.29h2.06v25.63h-2.06v-2.98c-.23-6.71-1.37-9-8.78-9.15h-4.64v18.38l.08,6.18h12.73c3.35-.16,6.79-.3,10.14-3.59,4.34-4.27,4.88-9.37,5.18-12.88h2.21l-.61,18.45h-45.22v-1.83h7.09l.08-6.4v-37.37l-.08-6.41h-7.09v-1.83h42.78Z"/><path d="m302.08,291.92h23.79c4.95.15,9.53.31,12.43,3.2,1.9,1.91,3.28,5.34,3.28,9.3,0,9.15-7.17,10.91-11.52,11.98,3.28.53,6.94,1.07,9.68,2.67,6.02,3.51,6.1,9.68,6.1,11.97s-.24,7.32-3.89,11.05c-3.51,3.51-7.93,3.59-12.35,3.66h-27.61v-1.83h7.09l.07-7.24v-35.69l-.07-7.25h-7.02v-1.83Zm15.4,2.21l-.08,6.87v14.56h6.02c5.64-.15,9.15-1.14,9.15-9.38,0-2.82-.38-5.95-1.22-8.01-1.52-3.74-4.35-3.89-6.86-4.04h-7.02Zm-.08,23.72v18.84l.08,7.01h8.24c3.13-.15,7.17-.3,9.53-5.1,1.22-2.52,1.45-4.96,1.45-7.4,0-2.75-.31-5.56-1.45-8.08-2.29-5.03-6.86-5.19-10.3-5.26h-7.55Z"/><path d="m375.85,291.92v1.83h-7.55l-.08,6.48v29.13c.08,7.55.23,14.72,14.41,14.72s15.25-6.25,15.48-13.04v-30.81l-.07-6.48h-7.71v-1.83h16.86v1.83h-6.64l-.08,6.48v27.76c-.08,9.99-.15,18.54-19.9,18.54-2.82,0-9.53-.31-13.8-2.06-6.79-2.89-6.94-8.84-7.02-16.16v-28.07l-.07-6.48h-6.56v-1.83h22.73Z"/><polygon points="428.96 291.92 455.34 330.28 455.34 300.77 455.27 293.75 447.34 293.75 447.34 291.92 464.34 291.92 464.34 293.75 457.79 293.75 457.71 300.77 457.71 346.45 456.49 346.83 421.11 295.35 421.11 336.69 421.18 343.93 429.34 343.93 429.34 345.76 411.72 345.76 411.72 343.93 418.74 343.93 418.81 336.69 418.81 300.77 418.74 293.75 411.72 293.75 411.72 291.92 428.96 291.92"/><polygon points="486.19 291.92 512.57 330.28 512.57 300.77 512.49 293.75 504.56 293.75 504.56 291.92 521.57 291.92 521.57 293.75 515.01 293.75 514.94 300.77 514.94 346.45 513.72 346.83 478.33 295.35 478.33 336.69 478.4 343.93 486.57 343.93 486.57 345.76 468.95 345.76 468.95 343.93 475.97 343.93 476.04 336.69 476.04 300.77 475.97 293.75 468.95 293.75 468.95 291.92 486.19 291.92"/><polygon points="571.78 291.92 571.78 293.75 565.83 293.75 562.7 299.62 553.02 318.69 553.02 336.99 553.1 343.93 560.11 343.93 560.11 345.76 537.47 345.76 537.47 343.93 544.48 343.93 544.55 336.91 544.55 318.69 533.65 299.62 530.14 293.75 524.19 293.75 524.19 291.92 548.3 291.92 548.3 293.75 540.36 293.75 543.18 299.24 552.18 315.64 560.49 299.24 563.16 293.75 555.46 293.75 555.46 291.92 571.78 291.92"/><path d="m594.69,291.92h24.94c2.97.07,7.09.23,10.06,3.2,1.3,1.37,3.13,4.35,3.13,9.68,0,9.61-6.94,11.13-12.51,12.36,14.03,1.37,14.26,4.27,15.33,18,.6,7.25,1.98,8.85,7.63,8.77v1.83h-4.66c-2.29-.08-4.73-.08-6.79-.99-4.19-1.91-4.58-6.33-4.88-9.84l-.46-5.65c-.76-9.15-3.36-10.6-11.36-10.83h-5.04v18.38l.08,7.09h7.09v1.83h-22.57v-1.83h7.02l.07-7.09v-36.22l-.07-6.86h-7.02v-1.83Zm15.48,2.29l-.08,6.4v15.56h4.73c3.59-.15,9.15-.38,9.15-10.68,0-10.83-5.27-11.06-9-11.29h-4.8Z"/><path d="m699.2,317.78c0,12.81-6.25,28.82-24.86,28.82-3.36,0-6.56-.54-9.53-1.68-4.96-2.06-9.31-6.18-11.82-10.75-2.29-4.12-3.51-9.61-3.51-15.18,0-17.31,9.91-27.68,24.63-27.84,15.86-.15,25.09,11.36,25.09,26.62m-34.7-20.82c-2.9,2.9-5.18,7.63-5.18,22.11,0,3.74.15,7.09.54,10.37.3,2.28.68,4.58,1.6,6.71,2.74,6.4,8.69,8.23,12.96,8.23s7.63-1.6,9.76-3.74c4.35-4.35,5.11-11.9,5.11-21.2,0-3.2-.07-6.48-.38-9.76-.38-4.58-1.38-16.32-14.19-16.4-5.42,0-8.69,2.13-10.22,3.66Z"/><path d="m728.82,291.92v1.83h-7.55l-.08,6.48v29.13c.08,7.55.23,14.72,14.42,14.72s15.25-6.25,15.48-13.04v-30.81l-.07-6.48h-7.71v-1.83h16.86v1.83h-6.64l-.08,6.48v27.76c-.08,9.99-.15,18.54-19.9,18.54-2.82,0-9.53-.31-13.81-2.06-6.79-2.89-6.94-8.84-7.02-16.16v-28.07l-.08-6.48h-6.56v-1.83h22.73Z"/><path d="m813.2,341.26c-4.04,1.99-11.59,5.57-20.36,5.57-13.96,0-25.54-9.46-25.54-27.76,0-19.75,13.12-27.98,25.92-27.98,7.1,0,13.2,2.36,17.93,4.19v15.25h-1.91c-.46-2.51-1.15-5.8-3.66-9.84-3.97-6.26-8.85-7.4-13.12-7.4-15.1,0-15.33,17.69-15.33,26.84,0,5.18.23,11.52,2.51,16.24,1.53,3.2,5.34,8.24,12.97,8.24,2.13,0,5.03-.39,8.16-2.13,3.66-2.06,3.89-4.42,4.04-6.79v-7.78l-.07-6.1h-7.86v-1.76h22.35v1.76h-6.02l-.08,6.1v7.09l.08,6.25Z"/><path d="m866.46,291.92l.53,16.78h-1.98c-.61-4.12-1.3-8.24-4.43-11.36-3.05-3.05-6.63-3.13-11.06-3.13h-10.29l-.08,5.95v16.93h4.8c5.64-.23,8.39-1.6,8.62-9.07v-2.29h2.06v25.63h-2.06v-2.98c-.23-6.71-1.37-9-8.77-9.15h-4.65v18.38l.08,6.18h12.73c3.36-.16,6.79-.3,10.15-3.59,4.35-4.27,4.88-9.37,5.18-12.88h2.21l-.61,18.45h-45.22v-1.83h7.09l.08-6.4v-37.37l-.08-6.41h-7.09v-1.83h42.78Z"/><path class="cls-1" d="m7.09,300.61v36.22l-.08,7.09H0v1.83h22.57v-1.83h-7.09l-.08-7.09v-18.38h5.04c8,.23,10.6,1.68,11.36,10.83l.46,5.65c.3,3.51.68,7.93,4.88,9.84,2.06.92,4.5.92,6.79.99h4.65v-1.83c-5.65.08-7.02-1.52-7.63-8.77-1.07-13.73-1.3-16.63-15.33-18,5.57-1.22,12.51-2.75,12.51-12.36,0-5.34-1.83-8.31-3.13-9.68-2.97-2.97-7.09-3.13-10.06-3.2H0v1.83h7.01l.08,6.86Zm8.31,0l.08-6.4h4.81c3.73.23,9,.45,9,11.29s-5.57,10.53-9.15,10.68h-4.74v-15.56Z"/></g><g><path d="m505.24,135.33l-2.96-.05c-1.36,5.51-2.43,8.9-7.73,9.45-4.8.57-9.07-1.03-12.93-4.51-7.2-6.49-11.77-18.55-14.07-30.87,2.82.57,5.75.91,8.76.91,3.99,0,8.57-1.91,9.23-6.09.35-2.2-.45-3.68-1.17-4.51-2.04-2.39-5.85-2.6-9.18-2.6s-6.19.5-9.12,1.24c-.19-2.55-.35-5.06-.35-7.45,0-3.87,0-12.96,3.06-13.8.49-.12.94-.02,1.38.26.61.41.94,1,.99,1.31.17,1.58,1.62,2.75,3.19,2.51,1.61-.19,2.7-1.65,2.52-3.22-.24-2.08-1.61-4.13-3.5-5.39-1.85-1.24-4.02-1.62-6.12-1.03-7.28,2.03-7.28,12.87-7.28,19.36,0,3.01.22,6.16.5,9.33-.29.12-.6.17-.86.29-9.31-4.68-16.43-13.3-16.43-24.66s4.23-17.02,12.94-18.98c7.77-1.74,16.27-.19,22.28,4.01,1.66,1.19,3.08,2.53,4.27,4.03-1.89,2.58-2.88,5.51-2.88,8.86,0,5.06,1.76,8.57,4.88,9.88,1.74.74,3.52.53,4.94-.55,2.22-1.67,3.2-5.2,2.66-9.45-.36-2.79-1.12-5.44-2.29-7.85,1.85-1.31,4.4-2.63,8.03-3.75,1.53-.48,2.35-2.08,1.93-3.6-.48-1.53-2.1-2.36-3.66-1.91-3.76,1.17-6.92,2.65-9.39,4.39-1.49-1.77-3.2-3.34-5.18-4.75-7.38-5.2-17.45-7.04-26.87-4.94-7.96,1.79-17.44,7.5-17.44,24.61,0,11.53,6.43,21.75,16.3,28-9.42,6.49-15.85,17.07-16.47,28.86-.76.02-1.65.02-2.53.05-.86-.05-1.72-.07-2.51-.05-.63-11.79-7.07-22.37-16.47-28.86,9.86-6.25,16.28-16.47,16.28-28,0-13.27-6.19-22.01-17.43-24.61-9.34-2.15-19.32-.36-26.71,4.8-2.05,1.43-3.83,3.08-5.31,4.89-2.51-1.74-5.63-3.22-9.43-4.39-1.53-.48-3.15.38-3.63,1.89-.45,1.55.38,3.15,1.91,3.63,3.37,1.05,6.04,2.29,8.02,3.75-1.17,2.41-1.93,5.06-2.29,7.85-.53,4.25.48,7.78,2.7,9.45,1.43,1.07,3.2,1.29,4.92.57,3.14-1.34,4.85-4.85,4.85-9.91,0-3.34-.94-6.3-2.85-8.86,1.41-1.79,2.98-3.15,4.42-4.13,6.02-4.2,14.48-5.68,22.12-3.91,8.61,1.98,12.97,8.38,12.97,18.98,0,11.36-7.13,19.98-16.43,24.66-.27-.12-.56-.17-.85-.29.29-3.18.48-6.33.48-9.33,0-6.49,0-17.33-7.28-19.36-2.1-.57-4.25-.21-6.11,1.03-1.92,1.26-3.25,3.32-3.51,5.39-.2,1.58.92,3.03,2.49,3.22,1.56.17,3.01-.91,3.24-2.51.04-.31.36-.91.98-1.31.45-.29.91-.38,1.35-.26,3.09.86,3.09,9.93,3.09,13.8,0,2.39-.12,4.89-.35,7.45-2.92-.74-5.96-1.24-9.12-1.24-3.37,0-7.13.22-9.18,2.6-.7.84-1.52,2.32-1.16,4.51.64,4.18,5.22,6.09,9.21,6.09,3.01,0,5.93-.33,8.75-.91-2.29,12.32-6.87,24.37-14.06,30.87-3.85,3.48-8.2,5.06-12.9,4.51-5.3-.55-6.4-3.91-7.9-10.1-.41-1.53-1.86-2.13-3.41-1.77-1.55.38-2.41,2.29-2.03,3.82,1.26,5.08,3.15,12.8,12.75,13.8.79.1,1.58.14,2.36.14,5.47,0,10.49-2.05,15-6.11,8.83-7.97,14.11-22.56,16.4-37.05.57-.22,1.19-.33,1.74-.55,9.48,5.28,16.15,15.16,16.64,26.28-8.64,1.6-12.72,6.37-14.95,8.95l-.56.67c-2.41,2.72-3.37,6.76-2.36,10.03.74,2.43,2.42,4.13,4.67,4.68.81.22,1.62.31,2.47.31,2.75,0,5.57-1.05,8.12-3.03,4.51-3.51,7.42-9.38,8.19-16.35.78,0,1.64,0,2.51.02.02,0,.02.02.02.02h.33l.02-.02c.88-.02,1.74-.02,2.51-.02.78,6.99,3.68,12.84,8.21,16.38,2.49,1.96,5.37,3.01,8.09,3.01.82,0,1.67-.1,2.45-.31,2.24-.55,3.97-2.27,4.72-4.68.98-3.29.05-7.33-2.39-10l-.58-.69c-2.2-2.58-6.28-7.35-14.92-8.95.49-11.12,7.15-21.01,16.64-26.28.56.22,1.17.33,1.74.55,2.28,14.49,7.56,29.07,16.4,37.07,4.5,4.03,9.52,6.09,15.01,6.09.76,0,1.56-.05,2.34-.14,9.63-1,11.51-8.71,12.94-14.47l-2.8-.69Zm-30.05-32.49c3.68,0,4.6.43,4.64.43-.06.36-1.59,1.22-3.52,1.22-2.69,0-5.35-.31-8-.88,2.21-.5,4.5-.76,6.87-.76Zm10.69-31.7c.31,1.05.55,2.1.68,3.2.19,1.6.04,2.77-.16,3.48-.47-.72-.84-2.05-.84-4.08,0-.57,0-1.5.31-2.6Zm-102.85,6.68c-.22-.69-.36-1.89-.17-3.48.14-1.12.36-2.15.65-3.13.24.81.32,1.65.32,2.53,0,2.03-.35,3.39-.8,4.08Zm10.07,26.66c-2.03,0-3.47-.88-3.71-1.05.24-.17,1.15-.6,4.83-.6,2.34,0,4.63.26,6.86.74-2.64.6-5.33.91-7.98.91Zm27.14,45.78c-1.89,1.48-3.91,2.05-5.62,1.67-.29-.1-.49-.5-.55-.79-.36-1.17-.08-3.1,1.15-4.49l.66-.76c1.85-2.15,4.55-5.3,10.2-6.71-.81,4.8-2.88,8.76-5.84,11.08Zm33.25-4.35l.67.74c1.22,1.38,1.53,3.32,1.16,4.49-.05.22-.24.69-.55.79-1.65.36-3.71-.17-5.61-1.67-2.96-2.32-5.02-6.28-5.82-11.08,5.63,1.43,8.33,4.58,10.16,6.73Z"/><path d="m434.76,208.16c-57.39,0-104.08-46.69-104.08-104.08S377.37,0,434.76,0s104.08,46.69,104.08,104.08-46.69,104.08-104.08,104.08Zm0-204.62c-55.44,0-100.55,45.1-100.55,100.55s45.1,100.54,100.55,100.54,100.55-45.1,100.55-100.54S490.2,3.53,434.76,3.53Z"/></g></svg>