<?xml version="1.0" encoding="UTF-8"?><svg id="_Слой_1" xmlns="http://www.w3.org/2000/svg" viewBox="0 0 813.35 521.62"><defs><style>.cls-1{letter-spacing:-.03em;}.cls-2{fill:#d8d9d8;stroke-width:2px;}.cls-2,.cls-3,.cls-4{stroke:#010101;stroke-miterlimit:10;}.cls-3{fill:#fff;}.cls-5{font-family:Indivisible-Regular, Indivisible;font-size:15.63px;}.cls-5,.cls-6{fill:#010101;}.cls-7{letter-spacing:-.02em;}.cls-6{font-family:Indivisible-Bold, Indivisible;font-size:16.08px;font-weight:700;}.cls-8{letter-spacing:0em;}.cls-4{fill:none;}</style></defs><text class="cls-6" transform="translate(210.07 13.67)"><tspan x="0" y="0">FRONT</tspan></text><text class="cls-6" transform="translate(640.3 13.67)"><tspan class="cls-8" x="0" y="0">B</tspan><tspan class="cls-1" x="10.66" y="0">A</tspan><tspan x="22.43" y="0">CK</tspan></text><g><text class="cls-5" transform="translate(0 315.62)"><tspan x="0" y="0">4</tspan><tspan class="cls-7" x="9.67" y="0">.</tspan><tspan x="13.49" y="0">13 in</tspan></text><text class="cls-5" transform="translate(222.46 62.88)"><tspan x="0" y="0">5.83 in</tspan></text><rect class="cls-2" x="90.04" y="101.09" width="297.64" height="419.53"/><line class="cls-3" x1="65.06" y1="520.62" x2="65.06" y2="101.09"/><polyline class="cls-4" points="70.91 111.24 65.09 101.09 59.21 111.2"/><polyline class="cls-4" points="100.17 72.07 90.04 77.92 100.17 83.77"/><polyline class="cls-4" points="377.54 83.77 387.68 77.92 377.54 72.07"/><polyline class="cls-4" points="59.23 510.49 65.08 520.62 70.93 510.49"/><line class="cls-3" x1="90.04" y1="77.93" x2="387.68" y2="77.93"/><line class="cls-3" x1="90.04" y1="101.09" x2="387.68" y2="520.62"/><line class="cls-3" x1="387.68" y1="101.09" x2="90.04" y2="520.62"/></g><text class="cls-5" transform="translate(424.68 315.62)"><tspan x="0" y="0">4</tspan><tspan class="cls-7" x="9.67" y="0">.</tspan><tspan x="13.49" y="0">13 in</tspan></text><text class="cls-5" transform="translate(647.14 62.88)"><tspan x="0" y="0">5.83 in</tspan></text><rect class="cls-2" x="514.71" y="101.09" width="297.64" height="419.53"/><line class="cls-3" x1="489.74" y1="520.62" x2="489.74" y2="101.09"/><polyline class="cls-4" points="495.59 111.24 489.77 101.09 483.89 111.2"/><polyline class="cls-4" points="524.85 72.07 514.71 77.92 524.85 83.77"/><polyline class="cls-4" points="802.22 83.77 812.35 77.92 802.22 72.07"/><polyline class="cls-4" points="483.91 510.49 489.76 520.62 495.6 510.49"/><line class="cls-3" x1="514.71" y1="77.93" x2="812.35" y2="77.93"/><line class="cls-3" x1="514.71" y1="101.09" x2="812.35" y2="520.62"/><line class="cls-3" x1="812.35" y1="101.09" x2="514.71" y2="520.62"/></svg>