<?xml version="1.0" encoding="UTF-8"?><svg id="_Слой_1" xmlns="http://www.w3.org/2000/svg" viewBox="0 0 169.47 87.97"><defs><style>.cls-1,.cls-2{fill:#fff;}.cls-3{fill:#6ab245;}.cls-4{fill:#34261e;}.cls-2{stroke:#646464;stroke-miterlimit:10;}</style></defs><rect class="cls-2" x=".5" y=".5" width="168.47" height="86.97"/><path class="cls-3" d="m49.58,47.49h-7.53v-17.25h-6.12v7.16c0,4.44-1.1,6.64-2.3,7.95-2.04,2.25-4.39,2.46-6.43,2.46-.99,0-1.99-.1-2.93-.37v-5.96c.99.26,2.61.37,3.61-.68.16-.21.94-1.05.94-3.71v-12.91h20.75v23.31Z"/><polygon class="cls-4" points="68.48 63.99 51.97 63.99 27.73 63.99 24.28 63.99 24.28 51.9 27.73 51.9 51.97 51.9 68.48 51.9 69.91 51.9 71.94 51.9 96.18 51.9 99.63 51.9 114.12 51.9 117.57 51.9 141.81 51.9 145.26 51.9 145.26 63.99 141.81 63.99 117.57 63.99 114.12 63.99 99.63 63.99 96.18 63.99 71.94 63.99 69.91 63.99 68.48 63.99"/><path class="cls-1" d="m82.64,58.02c0,2.39-1.71,4.1-4.2,4.1s-4.19-1.71-4.19-4.1,1.71-4.11,4.19-4.11,4.2,1.72,4.2,4.11m-1.58,0c0-1.59-1.08-2.72-2.62-2.72s-2.62,1.13-2.62,2.72c0,1.59,1.09,2.71,2.62,2.71s2.62-1.12,2.62-2.71m8.04-3.94c.88,0,1.5.09,2.07.6.64.58.8,1.33.8,1.9,0,.31-.05,1.15-.65,1.76-.44.44-1.08.7-1.99.7h-.99v2.91h-1.53v-7.86h2.28Zm-.75,3.63h.62c.29,0,.67,0,1-.25.28-.22.42-.58.42-.92,0-.44-.21-.72-.44-.89-.32-.22-.72-.25-1.08-.25h-.53v2.31Zm10.97,3.15h-.21c-.53,0-1.46-.06-2.22-.59-.57-.41-1.18-1.14-1.18-2.5s.61-2.09,1.18-2.5c.75-.53,1.68-.59,2.22-.59h.21v-.92h1.53v.92h.21c.53,0,1.46.06,2.21.59.57.41,1.18,1.14,1.18,2.5s-.61,2.08-1.18,2.5c-.75.53-1.69.59-2.21.59h-.21v1.08h-1.53v-1.08Zm0-4.85h-.23c-.24,0-.74.03-1.16.33-.28.22-.64.64-.64,1.44s.35,1.21.64,1.44c.39.32.78.33,1.16.33h.23v-3.53Zm1.53,3.53h.24c.37,0,.78-.01,1.17-.33.27-.2.62-.65.62-1.44,0-.7-.26-1.17-.62-1.44-.27-.2-.66-.33-1.17-.33h-.24v3.53Zm-32.45-4.13v6.54h-1.53v-6.54h-1.77v-1.32h5.07v1.32h-1.77Z"/><path class="cls-3" d="m74.78,38.25c-3.17,1.38-4.06,4.6-4.18,7.48,1.28-1.49,3.2-3.07,6.63-5.16-2.84,2.44-4.6,4.36-5.97,7.03,1.43.08,4.05.1,4.52.05,4.6-.54,5.31-3.57,5.76-5.35.33-1.28,1.51-4.07,2.56-5.02-2.74-.69-6.76-.12-9.31.98m-9.69-14.64c3.18,0,6.09,1.15,8.3,3.06v-2.42h7.54v10.73c-2.43.06-5,.6-6.95,1.44-.78.34-1.45.76-2.04,1.24.17-.57.27-1.17.27-1.8,0-3.39-2.75-6.15-6.15-6.15s-6.15,2.75-6.15,6.15,2.75,6.15,6.15,6.15c1.31,0,2.52-.41,3.52-1.11-.87,2.04-1.1,4.42-.97,6.72-1.12.32-2.3.49-3.53.49-6.94,0-12.56-5.48-12.56-12.25s5.62-12.25,12.56-12.25"/><polygon class="cls-3" points="87.99 24.25 93.93 24.25 99.97 37.17 106.01 24.25 111.95 24.25 116.01 47.48 108.82 47.48 106.95 35.14 101.22 47.48 98.72 47.48 92.99 35.14 91.11 47.48 83.93 47.48 87.99 24.25"/><path class="cls-3" d="m139.11,38.25c-3.17,1.38-4.06,4.6-4.18,7.48,1.28-1.49,3.2-3.07,6.63-5.16-2.84,2.44-4.6,4.36-5.97,7.03,1.43.08,4.05.1,4.51.05,4.6-.54,5.31-3.57,5.76-5.35.33-1.28,1.51-4.07,2.56-5.02-2.74-.69-6.76-.12-9.31.98m-9.69-14.64c3.18,0,6.09,1.15,8.3,3.06v-2.42h7.54v10.73c-2.43.06-5,.6-6.95,1.44-.78.34-1.45.76-2.04,1.24.17-.57.27-1.17.27-1.8,0-3.39-2.75-6.15-6.15-6.15s-6.15,2.75-6.15,6.15,2.75,6.15,6.15,6.15c1.31,0,2.52-.41,3.52-1.11-.87,2.04-1.1,4.42-.98,6.72-1.12.32-2.3.49-3.53.49-6.94,0-12.56-5.48-12.56-12.25s5.62-12.25,12.56-12.25"/></svg>