<?xml version="1.0" encoding="UTF-8"?><svg id="_Слой_1" xmlns="http://www.w3.org/2000/svg" viewBox="0 0 168.47 87.47"><defs><style>.cls-1{fill:#fff;}.cls-2{fill:#34261e;}</style></defs><rect class="cls-2" width="168.47" height="87.47"/><path class="cls-1" d="m28.35,36.83c0,2.66-.78,3.49-.94,3.7-.99,1.04-2.61.94-3.6.68v5.94c.94.26,1.93.36,2.92.36,2.04,0,4.38-.21,6.41-2.45,1.2-1.3,2.3-3.49,2.3-7.93v-7.14h6.1v17.2h7.51v-23.25h-20.7v12.88Z"/><path class="cls-1" d="m102.59,59.95c-.75.53-1.68.59-2.21.59h-.21v1.08h-1.53v-1.08h-.21c-.53,0-1.46-.06-2.21-.59-.57-.41-1.18-1.14-1.18-2.49s.61-2.08,1.18-2.49c.75-.53,1.68-.59,2.21-.59h.21v-.92h1.53v.92h.21c.53,0,1.46.06,2.21.59.57.41,1.18,1.14,1.18,2.49s-.61,2.08-1.18,2.49m-11.91-1.93c-.43.43-1.08.69-1.98.69h-.99v2.9h-1.53v-7.84h2.28c.88,0,1.49.09,2.07.6.64.58.8,1.33.8,1.89,0,.31-.04,1.15-.65,1.75m-12.85,3.77c-2.48,0-4.18-1.7-4.18-4.09s1.7-4.1,4.18-4.1,4.18,1.72,4.18,4.1-1.7,4.09-4.18,4.09m-8.26-6.7h-1.76v6.52h-1.53v-6.52h-1.76v-1.32h5.05v1.32Zm71.46-3.5H23.81v12.06h120.67v-12.06h-3.45Z"/><path class="cls-1" d="m100.41,55.7h-.23v3.53h.23c.37,0,.78-.01,1.16-.33.27-.2.62-.64.62-1.43,0-.69-.26-1.16-.62-1.44-.27-.2-.66-.33-1.16-.33"/><path class="cls-1" d="m97.26,56.03c-.28.22-.63.64-.63,1.44s.35,1.21.63,1.43c.39.32.78.33,1.15.33h.23v-3.52h-.23c-.24,0-.74.03-1.15.33"/><path class="cls-1" d="m88.24,55.1h-.53v2.3h.62c.29,0,.67,0,.99-.24.29-.22.42-.58.42-.92,0-.43-.21-.72-.43-.89-.32-.22-.72-.25-1.08-.25"/><path class="cls-1" d="m77.83,55c-1.53,0-2.61,1.13-2.61,2.71s1.08,2.7,2.61,2.7,2.61-1.12,2.61-2.7-1.08-2.71-2.61-2.71"/><path class="cls-1" d="m74.18,38c-3.16,1.37-4.05,4.58-4.17,7.45,1.27-1.48,3.19-3.07,6.61-5.15-2.83,2.43-4.59,4.35-5.96,7.01,1.43.08,4.04.1,4.5.05,4.59-.54,5.3-3.56,5.75-5.34.33-1.28,1.51-4.06,2.55-5.01-2.73-.69-6.74-.12-9.29.98"/><path class="cls-1" d="m71.36,37.41c.58-.49,1.26-.9,2.03-1.24,1.94-.84,4.51-1.38,6.93-1.44v-10.7h-7.52v2.42c-2.21-1.9-5.11-3.05-8.28-3.05-6.92,0-12.53,5.47-12.53,12.21s5.61,12.22,12.53,12.22c1.22,0,2.41-.17,3.52-.49-.12-2.29.11-4.67.97-6.7-.99.7-2.21,1.11-3.51,1.11-3.39,0-6.13-2.74-6.13-6.13s2.74-6.13,6.13-6.13,6.13,2.75,6.13,6.13c0,.63-.09,1.23-.27,1.8"/><polygon class="cls-1" points="105.33 24.03 99.3 36.92 93.28 24.03 87.35 24.03 83.3 47.2 90.47 47.2 92.34 34.89 98.05 47.2 100.55 47.2 106.26 34.89 108.13 47.2 115.3 47.2 111.25 24.03 105.33 24.03"/><path class="cls-1" d="m129.65,29.48c3.39,0,6.13,2.75,6.13,6.13,0,.62-.09,1.23-.27,1.8.58-.49,1.26-.9,2.03-1.24,1.94-.84,4.5-1.38,6.93-1.44v-10.7h-7.52v2.42c-2.21-1.9-5.11-3.05-8.28-3.05-6.92,0-12.53,5.47-12.53,12.21s5.61,12.22,12.53,12.22c1.22,0,2.41-.17,3.52-.49-.12-2.29.11-4.67.98-6.7-1,.7-2.21,1.11-3.51,1.11-3.39,0-6.13-2.74-6.13-6.13s2.74-6.13,6.13-6.13"/><path class="cls-1" d="m138.34,38c-3.16,1.37-4.05,4.58-4.17,7.45,1.27-1.48,3.19-3.07,6.61-5.15-2.83,2.43-4.59,4.35-5.96,7.01,1.43.08,4.04.1,4.5.05,4.59-.54,5.3-3.56,5.75-5.34.32-1.28,1.51-4.06,2.55-5.01-2.73-.69-6.74-.12-9.29.98"/></svg>