<svg width="1181" height="283" viewBox="0 0 1181 283" fill="none" xmlns="http://www.w3.org/2000/svg">
<path d="M432.891 88.5625H442.949C445.111 88.5625 446.953 88.888 448.477 89.5391C450 90.1901 451.165 91.1536 451.973 92.4297C452.793 93.6927 453.203 95.2552 453.203 97.1172C453.203 98.5365 452.943 99.7865 452.422 100.867C451.901 101.948 451.165 102.859 450.215 103.602C449.264 104.331 448.132 104.897 446.816 105.301L445.332 106.023H436.289L436.25 102.137H443.027C444.199 102.137 445.176 101.928 445.957 101.512C446.738 101.095 447.324 100.529 447.715 99.8125C448.118 99.0833 448.32 98.263 448.32 97.3516C448.32 96.362 448.125 95.5026 447.734 94.7734C447.357 94.0312 446.771 93.4648 445.977 93.0742C445.182 92.6706 444.173 92.4688 442.949 92.4688H437.793V117H432.891V88.5625ZM449.121 117L442.441 104.227L447.578 104.207L454.355 116.746V117H449.121ZM457.519 106.668V106.219C457.519 104.695 457.74 103.283 458.183 101.98C458.626 100.665 459.264 99.526 460.097 98.5625C460.943 97.5859 461.972 96.8307 463.183 96.2969C464.407 95.75 465.787 95.4766 467.323 95.4766C468.873 95.4766 470.253 95.75 471.464 96.2969C472.688 96.8307 473.723 97.5859 474.57 98.5625C475.416 99.526 476.06 100.665 476.503 101.98C476.946 103.283 477.167 104.695 477.167 106.219V106.668C477.167 108.191 476.946 109.604 476.503 110.906C476.06 112.208 475.416 113.348 474.57 114.324C473.723 115.288 472.695 116.043 471.484 116.59C470.273 117.124 468.899 117.391 467.362 117.391C465.813 117.391 464.426 117.124 463.202 116.59C461.991 116.043 460.963 115.288 460.116 114.324C459.27 113.348 458.626 112.208 458.183 110.906C457.74 109.604 457.519 108.191 457.519 106.668ZM462.226 106.219V106.668C462.226 107.618 462.323 108.517 462.519 109.363C462.714 110.21 463.02 110.952 463.437 111.59C463.853 112.228 464.387 112.729 465.038 113.094C465.689 113.458 466.464 113.641 467.362 113.641C468.235 113.641 468.99 113.458 469.628 113.094C470.279 112.729 470.813 112.228 471.23 111.59C471.646 110.952 471.952 110.21 472.148 109.363C472.356 108.517 472.46 107.618 472.46 106.668V106.219C472.46 105.281 472.356 104.396 472.148 103.562C471.952 102.716 471.64 101.967 471.21 101.316C470.793 100.665 470.26 100.158 469.609 99.793C468.971 99.4154 468.209 99.2266 467.323 99.2266C466.438 99.2266 465.67 99.4154 465.019 99.793C464.381 100.158 463.853 100.665 463.437 101.316C463.02 101.967 462.714 102.716 462.519 103.562C462.323 104.396 462.226 105.281 462.226 106.219ZM481.932 87H486.639V112.488L486.19 117H481.932V87ZM500.428 106.238V106.648C500.428 108.211 500.252 109.65 499.901 110.965C499.562 112.267 499.041 113.4 498.338 114.363C497.648 115.327 496.789 116.076 495.76 116.609C494.745 117.13 493.566 117.391 492.225 117.391C490.91 117.391 489.764 117.143 488.787 116.648C487.811 116.154 486.991 115.451 486.327 114.539C485.676 113.628 485.148 112.54 484.745 111.277C484.341 110.014 484.054 108.621 483.885 107.098V105.789C484.054 104.253 484.341 102.859 484.745 101.609C485.148 100.346 485.676 99.2591 486.327 98.3477C486.991 97.4232 487.804 96.7135 488.768 96.2188C489.745 95.724 490.884 95.4766 492.186 95.4766C493.54 95.4766 494.732 95.737 495.76 96.2578C496.802 96.7786 497.668 97.5208 498.358 98.4844C499.048 99.4349 499.562 100.568 499.901 101.883C500.252 103.198 500.428 104.65 500.428 106.238ZM495.721 106.648V106.238C495.721 105.288 495.643 104.396 495.487 103.562C495.33 102.716 495.07 101.974 494.705 101.336C494.354 100.698 493.872 100.197 493.26 99.832C492.661 99.4544 491.912 99.2656 491.014 99.2656C490.181 99.2656 489.465 99.4089 488.866 99.6953C488.267 99.9818 487.765 100.372 487.362 100.867C486.958 101.362 486.639 101.935 486.405 102.586C486.183 103.237 486.034 103.94 485.955 104.695V108.23C486.073 109.207 486.32 110.105 486.698 110.926C487.088 111.733 487.635 112.384 488.338 112.879C489.041 113.361 489.946 113.602 491.053 113.602C491.926 113.602 492.661 113.426 493.26 113.074C493.859 112.723 494.334 112.234 494.686 111.609C495.051 110.971 495.311 110.229 495.467 109.383C495.636 108.536 495.721 107.625 495.721 106.648ZM504.314 106.668V106.219C504.314 104.695 504.535 103.283 504.978 101.98C505.421 100.665 506.059 99.526 506.892 98.5625C507.739 97.5859 508.767 96.8307 509.978 96.2969C511.202 95.75 512.582 95.4766 514.119 95.4766C515.668 95.4766 517.048 95.75 518.259 96.2969C519.483 96.8307 520.518 97.5859 521.365 98.5625C522.211 99.526 522.856 100.665 523.298 101.98C523.741 103.283 523.963 104.695 523.963 106.219V106.668C523.963 108.191 523.741 109.604 523.298 110.906C522.856 112.208 522.211 113.348 521.365 114.324C520.518 115.288 519.49 116.043 518.279 116.59C517.068 117.124 515.694 117.391 514.158 117.391C512.608 117.391 511.222 117.124 509.998 116.59C508.787 116.043 507.758 115.288 506.912 114.324C506.065 113.348 505.421 112.208 504.978 110.906C504.535 109.604 504.314 108.191 504.314 106.668ZM509.021 106.219V106.668C509.021 107.618 509.119 108.517 509.314 109.363C509.509 110.21 509.815 110.952 510.232 111.59C510.649 112.228 511.183 112.729 511.834 113.094C512.485 113.458 513.259 113.641 514.158 113.641C515.03 113.641 515.785 113.458 516.423 113.094C517.074 112.729 517.608 112.228 518.025 111.59C518.442 110.952 518.748 110.21 518.943 109.363C519.151 108.517 519.255 107.618 519.255 106.668V106.219C519.255 105.281 519.151 104.396 518.943 103.562C518.748 102.716 518.435 101.967 518.005 101.316C517.589 100.665 517.055 100.158 516.404 99.793C515.766 99.4154 515.004 99.2266 514.119 99.2266C513.233 99.2266 512.465 99.4154 511.814 99.793C511.176 100.158 510.649 100.665 510.232 101.316C509.815 101.967 509.509 102.716 509.314 103.562C509.119 104.396 509.021 105.281 509.021 106.219ZM538.395 95.8672V99.3047H526.481V95.8672H538.395ZM529.919 90.6914H534.626V111.16C534.626 111.811 534.717 112.312 534.899 112.664C535.095 113.003 535.361 113.23 535.7 113.348C536.039 113.465 536.436 113.523 536.891 113.523C537.217 113.523 537.529 113.504 537.829 113.465C538.128 113.426 538.369 113.387 538.552 113.348L538.571 116.941C538.18 117.059 537.725 117.163 537.204 117.254C536.696 117.345 536.11 117.391 535.446 117.391C534.365 117.391 533.408 117.202 532.575 116.824C531.742 116.434 531.091 115.802 530.622 114.93C530.153 114.057 529.919 112.898 529.919 111.453V90.6914ZM541.461 106.668V106.219C541.461 104.695 541.682 103.283 542.125 101.98C542.568 100.665 543.206 99.526 544.039 98.5625C544.885 97.5859 545.914 96.8307 547.125 96.2969C548.349 95.75 549.729 95.4766 551.266 95.4766C552.815 95.4766 554.195 95.75 555.406 96.2969C556.63 96.8307 557.665 97.5859 558.512 98.5625C559.358 99.526 560.003 100.665 560.445 101.98C560.888 103.283 561.109 104.695 561.109 106.219V106.668C561.109 108.191 560.888 109.604 560.445 110.906C560.003 112.208 559.358 113.348 558.512 114.324C557.665 115.288 556.637 116.043 555.426 116.59C554.215 117.124 552.841 117.391 551.305 117.391C549.755 117.391 548.368 117.124 547.145 116.59C545.934 116.043 544.905 115.288 544.059 114.324C543.212 113.348 542.568 112.208 542.125 110.906C541.682 109.604 541.461 108.191 541.461 106.668ZM546.168 106.219V106.668C546.168 107.618 546.266 108.517 546.461 109.363C546.656 110.21 546.962 110.952 547.379 111.59C547.796 112.228 548.329 112.729 548.98 113.094C549.632 113.458 550.406 113.641 551.305 113.641C552.177 113.641 552.932 113.458 553.57 113.094C554.221 112.729 554.755 112.228 555.172 111.59C555.589 110.952 555.895 110.21 556.09 109.363C556.298 108.517 556.402 107.618 556.402 106.668V106.219C556.402 105.281 556.298 104.396 556.09 103.562C555.895 102.716 555.582 101.967 555.152 101.316C554.736 100.665 554.202 100.158 553.551 99.793C552.913 99.4154 552.151 99.2266 551.266 99.2266C550.38 99.2266 549.612 99.4154 548.961 99.793C548.323 100.158 547.796 100.665 547.379 101.316C546.962 101.967 546.656 102.716 546.461 103.562C546.266 104.396 546.168 105.281 546.168 106.219ZM579.077 88.5625H583.452L591.674 110.496L599.877 88.5625H604.252L593.393 117H589.916L579.077 88.5625ZM577.084 88.5625H581.245L581.967 107.547V117H577.084V88.5625ZM602.084 88.5625H606.264V117H601.362V107.547L602.084 88.5625ZM621.732 117.391C620.17 117.391 618.757 117.137 617.494 116.629C616.244 116.108 615.176 115.385 614.291 114.461C613.418 113.536 612.748 112.449 612.279 111.199C611.81 109.949 611.576 108.602 611.576 107.156V106.375C611.576 104.721 611.817 103.224 612.298 101.883C612.78 100.542 613.451 99.3958 614.31 98.4453C615.17 97.4818 616.185 96.7461 617.357 96.2383C618.529 95.7305 619.798 95.4766 621.166 95.4766C622.676 95.4766 623.998 95.7305 625.13 96.2383C626.263 96.7461 627.201 97.4622 627.943 98.3867C628.698 99.2982 629.258 100.385 629.623 101.648C630 102.911 630.189 104.305 630.189 105.828V107.84H613.861V104.461H625.541V104.09C625.515 103.243 625.345 102.449 625.033 101.707C624.733 100.965 624.271 100.366 623.646 99.9102C623.021 99.4544 622.188 99.2266 621.146 99.2266C620.365 99.2266 619.668 99.3958 619.056 99.7344C618.457 100.06 617.956 100.535 617.552 101.16C617.149 101.785 616.836 102.54 616.615 103.426C616.407 104.298 616.302 105.281 616.302 106.375V107.156C616.302 108.081 616.426 108.94 616.673 109.734C616.934 110.516 617.311 111.199 617.806 111.785C618.301 112.371 618.9 112.833 619.603 113.172C620.306 113.497 621.107 113.66 622.005 113.66C623.138 113.66 624.147 113.432 625.033 112.977C625.918 112.521 626.686 111.876 627.337 111.043L629.818 113.445C629.362 114.109 628.77 114.747 628.041 115.359C627.311 115.958 626.42 116.447 625.365 116.824C624.323 117.202 623.112 117.391 621.732 117.391ZM647.552 112.625V87H652.278V117H648.001L647.552 112.625ZM633.802 106.668V106.258C633.802 104.656 633.99 103.198 634.368 101.883C634.746 100.555 635.292 99.4154 636.009 98.4648C636.725 97.5013 637.597 96.7656 638.626 96.2578C639.654 95.737 640.813 95.4766 642.102 95.4766C643.378 95.4766 644.498 95.724 645.462 96.2188C646.425 96.7135 647.246 97.4232 647.923 98.3477C648.6 99.2591 649.14 100.353 649.544 101.629C649.947 102.892 650.234 104.298 650.403 105.848V107.156C650.234 108.667 649.947 110.047 649.544 111.297C649.14 112.547 648.6 113.628 647.923 114.539C647.246 115.451 646.419 116.154 645.442 116.648C644.479 117.143 643.352 117.391 642.063 117.391C640.787 117.391 639.635 117.124 638.606 116.59C637.591 116.056 636.725 115.307 636.009 114.344C635.292 113.38 634.746 112.247 634.368 110.945C633.99 109.63 633.802 108.204 633.802 106.668ZM638.509 106.258V106.668C638.509 107.632 638.593 108.53 638.762 109.363C638.945 110.197 639.225 110.932 639.602 111.57C639.98 112.195 640.468 112.69 641.067 113.055C641.679 113.406 642.408 113.582 643.255 113.582C644.322 113.582 645.201 113.348 645.891 112.879C646.582 112.41 647.122 111.779 647.512 110.984C647.916 110.177 648.19 109.279 648.333 108.289V104.754C648.255 103.986 648.092 103.27 647.845 102.605C647.61 101.941 647.291 101.362 646.887 100.867C646.484 100.359 645.983 99.9688 645.384 99.6953C644.798 99.4089 644.101 99.2656 643.294 99.2656C642.434 99.2656 641.705 99.4479 641.106 99.8125C640.507 100.177 640.012 100.678 639.622 101.316C639.244 101.954 638.964 102.697 638.782 103.543C638.6 104.389 638.509 105.294 638.509 106.258ZM663.039 95.8672V117H658.312V95.8672H663.039ZM658 90.3203C658 89.6042 658.234 89.0117 658.703 88.543C659.185 88.0612 659.849 87.8203 660.695 87.8203C661.529 87.8203 662.186 88.0612 662.668 88.543C663.15 89.0117 663.391 89.6042 663.391 90.3203C663.391 91.0234 663.15 91.6094 662.668 92.0781C662.186 92.5469 661.529 92.7812 660.695 92.7812C659.849 92.7812 659.185 92.5469 658.703 92.0781C658.234 91.6094 658 91.0234 658 90.3203ZM681.71 112.02V95.8672H686.437V117H681.984L681.71 112.02ZM682.374 107.625L683.956 107.586C683.956 109.005 683.8 110.314 683.488 111.512C683.175 112.697 682.693 113.732 682.042 114.617C681.391 115.49 680.558 116.173 679.542 116.668C678.527 117.15 677.309 117.391 675.89 117.391C674.861 117.391 673.917 117.241 673.058 116.941C672.198 116.642 671.456 116.18 670.831 115.555C670.219 114.93 669.744 114.116 669.405 113.113C669.067 112.111 668.898 110.913 668.898 109.52V95.8672H673.605V109.559C673.605 110.327 673.696 110.971 673.878 111.492C674.06 112 674.308 112.41 674.62 112.723C674.933 113.035 675.297 113.257 675.714 113.387C676.131 113.517 676.573 113.582 677.042 113.582C678.383 113.582 679.438 113.322 680.206 112.801C680.988 112.267 681.541 111.551 681.866 110.652C682.205 109.754 682.374 108.745 682.374 107.625ZM696.768 100.164V117H692.061V95.8672H696.495L696.768 100.164ZM696.006 105.652L694.405 105.633C694.405 104.174 694.587 102.827 694.952 101.59C695.316 100.353 695.85 99.2786 696.553 98.3672C697.256 97.4427 698.129 96.7331 699.17 96.2383C700.225 95.7305 701.442 95.4766 702.823 95.4766C703.786 95.4766 704.665 95.6198 705.459 95.9062C706.267 96.1797 706.963 96.6159 707.549 97.2148C708.148 97.8138 708.604 98.582 708.916 99.5195C709.242 100.457 709.405 101.59 709.405 102.918V117H704.698V103.328C704.698 102.299 704.541 101.492 704.229 100.906C703.929 100.32 703.493 99.9036 702.92 99.6562C702.36 99.3958 701.69 99.2656 700.909 99.2656C700.023 99.2656 699.268 99.4349 698.643 99.7734C698.031 100.112 697.53 100.574 697.139 101.16C696.748 101.746 696.462 102.423 696.28 103.191C696.097 103.96 696.006 104.78 696.006 105.652ZM709.112 104.402L706.905 104.891C706.905 103.615 707.08 102.41 707.432 101.277C707.797 100.132 708.324 99.1289 709.014 98.2695C709.717 97.3971 710.583 96.7135 711.612 96.2188C712.64 95.724 713.819 95.4766 715.147 95.4766C716.228 95.4766 717.191 95.6263 718.038 95.9258C718.897 96.2122 719.626 96.668 720.225 97.293C720.824 97.918 721.28 98.7318 721.592 99.7344C721.905 100.724 722.061 101.922 722.061 103.328V117H717.334V103.309C717.334 102.241 717.178 101.414 716.866 100.828C716.566 100.242 716.136 99.8385 715.577 99.6172C715.017 99.3828 714.346 99.2656 713.565 99.2656C712.836 99.2656 712.191 99.4023 711.631 99.6758C711.084 99.9362 710.622 100.307 710.245 100.789C709.867 101.258 709.58 101.798 709.385 102.41C709.203 103.022 709.112 103.686 709.112 104.402Z" fill="#696969"/>
<path d="M432.539 9.5625H443.145C445.319 9.5625 447.188 9.88802 448.75 10.5391C450.326 11.1901 451.536 12.1536 452.383 13.4297C453.229 14.7057 453.652 16.2747 453.652 18.1367C453.652 19.6602 453.392 20.9688 452.871 22.0625C452.363 23.1432 451.641 24.0482 450.703 24.7773C449.779 25.4935 448.691 26.0664 447.441 26.4961L445.586 27.4727H436.367L436.328 22.9023H443.184C444.212 22.9023 445.065 22.7201 445.742 22.3555C446.419 21.9909 446.927 21.4831 447.266 20.832C447.617 20.181 447.793 19.4258 447.793 18.5664C447.793 17.6549 447.624 16.8672 447.285 16.2031C446.947 15.5391 446.432 15.0312 445.742 14.6797C445.052 14.3281 444.186 14.1523 443.145 14.1523H438.398V38H432.539V9.5625ZM448.438 38L441.953 25.3242L448.145 25.2852L454.707 37.7266V38H448.438ZM457.714 27.6484V27.2383C457.714 25.6888 457.935 24.263 458.378 22.9609C458.821 21.6458 459.465 20.5065 460.312 19.543C461.158 18.5794 462.2 17.8307 463.437 17.2969C464.674 16.75 466.093 16.4766 467.695 16.4766C469.296 16.4766 470.722 16.75 471.972 17.2969C473.222 17.8307 474.27 18.5794 475.116 19.543C475.976 20.5065 476.627 21.6458 477.07 22.9609C477.512 24.263 477.734 25.6888 477.734 27.2383V27.6484C477.734 29.1849 477.512 30.6107 477.07 31.9258C476.627 33.2279 475.976 34.3672 475.116 35.3438C474.27 36.3073 473.228 37.056 471.991 37.5898C470.754 38.1237 469.335 38.3906 467.734 38.3906C466.132 38.3906 464.706 38.1237 463.456 37.5898C462.219 37.056 461.171 36.3073 460.312 35.3438C459.465 34.3672 458.821 33.2279 458.378 31.9258C457.935 30.6107 457.714 29.1849 457.714 27.6484ZM463.339 27.2383V27.6484C463.339 28.5339 463.417 29.3607 463.573 30.1289C463.73 30.8971 463.977 31.5742 464.316 32.1602C464.667 32.7331 465.123 33.1823 465.683 33.5078C466.243 33.8333 466.926 33.9961 467.734 33.9961C468.515 33.9961 469.185 33.8333 469.745 33.5078C470.305 33.1823 470.754 32.7331 471.093 32.1602C471.432 31.5742 471.679 30.8971 471.835 30.1289C472.004 29.3607 472.089 28.5339 472.089 27.6484V27.2383C472.089 26.3789 472.004 25.5716 471.835 24.8164C471.679 24.0482 471.425 23.3711 471.073 22.7852C470.735 22.1862 470.286 21.7174 469.726 21.3789C469.166 21.0404 468.489 20.8711 467.695 20.8711C466.9 20.8711 466.223 21.0404 465.663 21.3789C465.116 21.7174 464.667 22.1862 464.316 22.7852C463.977 23.3711 463.73 24.0482 463.573 24.8164C463.417 25.5716 463.339 26.3789 463.339 27.2383ZM481.991 8H487.616V33.1562L487.049 38H481.991V8ZM500.995 27.2188V27.6289C500.995 29.2044 500.825 30.6497 500.487 31.9648C500.161 33.2799 499.653 34.4193 498.963 35.3828C498.273 36.3333 497.414 37.0755 496.385 37.6094C495.37 38.1302 494.172 38.3906 492.791 38.3906C491.502 38.3906 490.383 38.1302 489.432 37.6094C488.495 37.0885 487.707 36.3529 487.069 35.4023C486.431 34.4518 485.916 33.3385 485.526 32.0625C485.135 30.7865 484.842 29.3932 484.647 27.8828V26.9844C484.842 25.474 485.135 24.0807 485.526 22.8047C485.916 21.5286 486.431 20.4154 487.069 19.4648C487.707 18.5143 488.495 17.7786 489.432 17.2578C490.37 16.737 491.476 16.4766 492.752 16.4766C494.146 16.4766 495.357 16.7435 496.385 17.2773C497.427 17.7982 498.286 18.5404 498.963 19.5039C499.653 20.4544 500.161 21.5872 500.487 22.9023C500.825 24.2044 500.995 25.6432 500.995 27.2188ZM495.37 27.6289V27.2188C495.37 26.3594 495.304 25.5521 495.174 24.7969C495.057 24.0286 494.849 23.3581 494.549 22.7852C494.25 22.1992 493.84 21.737 493.319 21.3984C492.811 21.0599 492.153 20.8906 491.346 20.8906C490.578 20.8906 489.927 21.0208 489.393 21.2812C488.859 21.5417 488.416 21.9062 488.065 22.375C487.726 22.8438 487.472 23.4036 487.303 24.0547C487.134 24.6927 487.03 25.3958 486.991 26.1641V28.7227C487.03 29.7513 487.199 30.6628 487.498 31.457C487.811 32.2383 488.28 32.8568 488.905 33.3125C489.543 33.7552 490.37 33.9766 491.385 33.9766C492.179 33.9766 492.837 33.8203 493.358 33.5078C493.879 33.1953 494.282 32.7526 494.569 32.1797C494.868 31.6068 495.077 30.9362 495.194 30.168C495.311 29.3867 495.37 28.5404 495.37 27.6289ZM504.392 27.6484V27.2383C504.392 25.6888 504.614 24.263 505.056 22.9609C505.499 21.6458 506.143 20.5065 506.99 19.543C507.836 18.5794 508.878 17.8307 510.115 17.2969C511.352 16.75 512.771 16.4766 514.373 16.4766C515.974 16.4766 517.4 16.75 518.65 17.2969C519.9 17.8307 520.948 18.5794 521.795 19.543C522.654 20.5065 523.305 21.6458 523.748 22.9609C524.19 24.263 524.412 25.6888 524.412 27.2383V27.6484C524.412 29.1849 524.19 30.6107 523.748 31.9258C523.305 33.2279 522.654 34.3672 521.795 35.3438C520.948 36.3073 519.907 37.056 518.67 37.5898C517.433 38.1237 516.013 38.3906 514.412 38.3906C512.81 38.3906 511.384 38.1237 510.134 37.5898C508.897 37.056 507.849 36.3073 506.99 35.3438C506.143 34.3672 505.499 33.2279 505.056 31.9258C504.614 30.6107 504.392 29.1849 504.392 27.6484ZM510.017 27.2383V27.6484C510.017 28.5339 510.095 29.3607 510.252 30.1289C510.408 30.8971 510.655 31.5742 510.994 32.1602C511.345 32.7331 511.801 33.1823 512.361 33.5078C512.921 33.8333 513.604 33.9961 514.412 33.9961C515.193 33.9961 515.864 33.8333 516.423 33.5078C516.983 33.1823 517.433 32.7331 517.771 32.1602C518.11 31.5742 518.357 30.8971 518.513 30.1289C518.683 29.3607 518.767 28.5339 518.767 27.6484V27.2383C518.767 26.3789 518.683 25.5716 518.513 24.8164C518.357 24.0482 518.103 23.3711 517.752 22.7852C517.413 22.1862 516.964 21.7174 516.404 21.3789C515.844 21.0404 515.167 20.8711 514.373 20.8711C513.578 20.8711 512.901 21.0404 512.341 21.3789C511.795 21.7174 511.345 22.1862 510.994 22.7852C510.655 23.3711 510.408 24.0482 510.252 24.8164C510.095 25.5716 510.017 26.3789 510.017 27.2383ZM539.02 16.8672V20.8516H526.716V16.8672H539.02ZM529.762 11.6523H535.387V31.6328C535.387 32.2448 535.466 32.7135 535.622 33.0391C535.791 33.3646 536.039 33.5924 536.364 33.7227C536.69 33.8398 537.1 33.8984 537.595 33.8984C537.946 33.8984 538.259 33.8854 538.532 33.8594C538.818 33.8203 539.059 33.7812 539.255 33.7422L539.274 37.8828C538.792 38.0391 538.272 38.1628 537.712 38.2539C537.152 38.3451 536.533 38.3906 535.856 38.3906C534.619 38.3906 533.539 38.1888 532.614 37.7852C531.703 37.3685 530.999 36.7044 530.505 35.793C530.01 34.8815 529.762 33.6836 529.762 32.1992V11.6523ZM541.617 27.6484V27.2383C541.617 25.6888 541.839 24.263 542.281 22.9609C542.724 21.6458 543.368 20.5065 544.215 19.543C545.061 18.5794 546.103 17.8307 547.34 17.2969C548.577 16.75 549.996 16.4766 551.598 16.4766C553.199 16.4766 554.625 16.75 555.875 17.2969C557.125 17.8307 558.173 18.5794 559.02 19.543C559.879 20.5065 560.53 21.6458 560.973 22.9609C561.415 24.263 561.637 25.6888 561.637 27.2383V27.6484C561.637 29.1849 561.415 30.6107 560.973 31.9258C560.53 33.2279 559.879 34.3672 559.02 35.3438C558.173 36.3073 557.132 37.056 555.895 37.5898C554.658 38.1237 553.238 38.3906 551.637 38.3906C550.035 38.3906 548.609 38.1237 547.359 37.5898C546.122 37.056 545.074 36.3073 544.215 35.3438C543.368 34.3672 542.724 33.2279 542.281 31.9258C541.839 30.6107 541.617 29.1849 541.617 27.6484ZM547.242 27.2383V27.6484C547.242 28.5339 547.32 29.3607 547.477 30.1289C547.633 30.8971 547.88 31.5742 548.219 32.1602C548.57 32.7331 549.026 33.1823 549.586 33.5078C550.146 33.8333 550.829 33.9961 551.637 33.9961C552.418 33.9961 553.089 33.8333 553.648 33.5078C554.208 33.1823 554.658 32.7331 554.996 32.1602C555.335 31.5742 555.582 30.8971 555.738 30.1289C555.908 29.3607 555.992 28.5339 555.992 27.6484V27.2383C555.992 26.3789 555.908 25.5716 555.738 24.8164C555.582 24.0482 555.328 23.3711 554.977 22.7852C554.638 22.1862 554.189 21.7174 553.629 21.3789C553.069 21.0404 552.392 20.8711 551.598 20.8711C550.803 20.8711 550.126 21.0404 549.566 21.3789C549.02 21.7174 548.57 22.1862 548.219 22.7852C547.88 23.3711 547.633 24.0482 547.477 24.8164C547.32 25.5716 547.242 26.3789 547.242 27.2383ZM588.139 25.5195H580.834L580.795 21.4961H586.928C588.009 21.4961 588.894 21.3594 589.584 21.0859C590.274 20.7995 590.789 20.3893 591.127 19.8555C591.479 19.3086 591.655 18.6445 591.655 17.8633C591.655 16.9779 591.485 16.2617 591.147 15.7148C590.821 15.168 590.307 14.7708 589.604 14.5234C588.914 14.276 588.022 14.1523 586.928 14.1523H582.866V38H577.006V9.5625H586.928C588.582 9.5625 590.06 9.71875 591.362 10.0312C592.677 10.3438 593.79 10.819 594.702 11.457C595.613 12.0951 596.31 12.9023 596.791 13.8789C597.273 14.8424 597.514 15.9883 597.514 17.3164C597.514 18.4883 597.247 19.569 596.713 20.5586C596.192 21.5482 595.366 22.3555 594.233 22.9805C593.113 23.6055 591.648 23.9505 589.838 24.0156L588.139 25.5195ZM587.885 38H579.233L581.518 33.4297H587.885C588.914 33.4297 589.754 33.2669 590.405 32.9414C591.056 32.6029 591.538 32.1471 591.85 31.5742C592.163 31.0013 592.319 30.3438 592.319 29.6016C592.319 28.7682 592.176 28.0456 591.889 27.4336C591.616 26.8216 591.173 26.3529 590.561 26.0273C589.949 25.6888 589.142 25.5195 588.139 25.5195H582.495L582.534 21.4961H589.565L590.913 23.0781C592.644 23.0521 594.038 23.3581 595.092 23.9961C596.16 24.6211 596.935 25.4349 597.416 26.4375C597.911 27.4401 598.159 28.5143 598.159 29.6602C598.159 31.4831 597.761 33.0195 596.967 34.2695C596.173 35.5065 595.008 36.4375 593.471 37.0625C591.948 37.6875 590.086 38 587.885 38ZM602.103 27.6484V27.2383C602.103 25.6888 602.324 24.263 602.767 22.9609C603.21 21.6458 603.854 20.5065 604.701 19.543C605.547 18.5794 606.589 17.8307 607.826 17.2969C609.063 16.75 610.482 16.4766 612.084 16.4766C613.685 16.4766 615.111 16.75 616.361 17.2969C617.611 17.8307 618.659 18.5794 619.505 19.543C620.365 20.5065 621.016 21.6458 621.459 22.9609C621.901 24.263 622.123 25.6888 622.123 27.2383V27.6484C622.123 29.1849 621.901 30.6107 621.459 31.9258C621.016 33.2279 620.365 34.3672 619.505 35.3438C618.659 36.3073 617.617 37.056 616.38 37.5898C615.143 38.1237 613.724 38.3906 612.123 38.3906C610.521 38.3906 609.095 38.1237 607.845 37.5898C606.608 37.056 605.56 36.3073 604.701 35.3438C603.854 34.3672 603.21 33.2279 602.767 31.9258C602.324 30.6107 602.103 29.1849 602.103 27.6484ZM607.728 27.2383V27.6484C607.728 28.5339 607.806 29.3607 607.962 30.1289C608.119 30.8971 608.366 31.5742 608.705 32.1602C609.056 32.7331 609.512 33.1823 610.072 33.5078C610.632 33.8333 611.315 33.9961 612.123 33.9961C612.904 33.9961 613.574 33.8333 614.134 33.5078C614.694 33.1823 615.143 32.7331 615.482 32.1602C615.821 31.5742 616.068 30.8971 616.224 30.1289C616.393 29.3607 616.478 28.5339 616.478 27.6484V27.2383C616.478 26.3789 616.393 25.5716 616.224 24.8164C616.068 24.0482 615.814 23.3711 615.462 22.7852C615.124 22.1862 614.675 21.7174 614.115 21.3789C613.555 21.0404 612.878 20.8711 612.084 20.8711C611.289 20.8711 610.612 21.0404 610.052 21.3789C609.505 21.7174 609.056 22.1862 608.705 22.7852C608.366 23.3711 608.119 24.0482 607.962 24.8164C607.806 25.5716 607.728 26.3789 607.728 27.2383ZM632.317 8V38H626.673V8H632.317ZM650.246 33.3906V8H655.91V38H650.812L650.246 33.3906ZM636.887 27.6875V27.2773C636.887 25.6628 637.069 24.1979 637.434 22.8828C637.798 21.5547 638.332 20.4154 639.035 19.4648C639.738 18.5143 640.604 17.7786 641.633 17.2578C642.661 16.737 643.833 16.4766 645.148 16.4766C646.385 16.4766 647.466 16.737 648.391 17.2578C649.328 17.7786 650.122 18.5208 650.773 19.4844C651.438 20.4349 651.971 21.5612 652.375 22.8633C652.779 24.1523 653.072 25.5651 653.254 27.1016V28C653.072 29.4714 652.779 30.8385 652.375 32.1016C651.971 33.3646 651.438 34.4714 650.773 35.4219C650.122 36.3594 649.328 37.0885 648.391 37.6094C647.453 38.1302 646.359 38.3906 645.109 38.3906C643.794 38.3906 642.622 38.1237 641.594 37.5898C640.578 37.056 639.719 36.3073 639.016 35.3438C638.326 34.3802 637.798 33.2474 637.434 31.9453C637.069 30.6432 636.887 29.224 636.887 27.6875ZM642.512 27.2773V27.6875C642.512 28.5599 642.577 29.3737 642.707 30.1289C642.85 30.8841 643.078 31.5547 643.391 32.1406C643.716 32.7135 644.133 33.1628 644.641 33.4883C645.161 33.8008 645.793 33.957 646.535 33.957C647.499 33.957 648.293 33.7422 648.918 33.3125C649.543 32.8698 650.018 32.2643 650.344 31.4961C650.682 30.7279 650.878 29.8424 650.93 28.8398V26.2812C650.891 25.4609 650.773 24.7253 650.578 24.0742C650.396 23.4102 650.122 22.8438 649.758 22.375C649.406 21.9062 648.964 21.5417 648.43 21.2812C647.909 21.0208 647.29 20.8906 646.574 20.8906C645.845 20.8906 645.22 21.0599 644.699 21.3984C644.178 21.724 643.755 22.1732 643.43 22.7461C643.117 23.319 642.883 23.9961 642.727 24.7773C642.583 25.5456 642.512 26.3789 642.512 27.2773Z" fill="#696969"/>
<path d="M433.301 167.562H442.715C444.85 167.562 446.654 167.888 448.125 168.539C449.609 169.19 450.736 170.154 451.504 171.43C452.285 172.693 452.676 174.249 452.676 176.098C452.676 177.4 452.409 178.591 451.875 179.672C451.354 180.74 450.599 181.651 449.609 182.406C448.633 183.148 447.461 183.702 446.094 184.066L445.039 184.477H436.191L436.152 181.41H442.832C444.186 181.41 445.312 181.176 446.211 180.707C447.109 180.225 447.786 179.581 448.242 178.773C448.698 177.966 448.926 177.074 448.926 176.098C448.926 175.004 448.711 174.047 448.281 173.227C447.852 172.406 447.174 171.775 446.25 171.332C445.339 170.876 444.16 170.648 442.715 170.648H437.07V196H433.301V167.562ZM449.922 196L443.008 183.109L446.934 183.09L453.945 195.766V196H449.922ZM457.245 185.668V185.219C457.245 183.695 457.467 182.283 457.909 180.98C458.352 179.665 458.99 178.526 459.823 177.562C460.657 176.586 461.666 175.831 462.851 175.297C464.036 174.75 465.364 174.477 466.835 174.477C468.32 174.477 469.654 174.75 470.839 175.297C472.037 175.831 473.053 176.586 473.886 177.562C474.732 178.526 475.377 179.665 475.82 180.98C476.262 182.283 476.484 183.695 476.484 185.219V185.668C476.484 187.191 476.262 188.604 475.82 189.906C475.377 191.208 474.732 192.348 473.886 193.324C473.053 194.288 472.043 195.043 470.859 195.59C469.687 196.124 468.359 196.391 466.874 196.391C465.39 196.391 464.055 196.124 462.87 195.59C461.685 195.043 460.67 194.288 459.823 193.324C458.99 192.348 458.352 191.208 457.909 189.906C457.467 188.604 457.245 187.191 457.245 185.668ZM460.859 185.219V185.668C460.859 186.723 460.982 187.719 461.23 188.656C461.477 189.581 461.848 190.401 462.343 191.117C462.851 191.833 463.482 192.4 464.237 192.816C464.993 193.22 465.872 193.422 466.874 193.422C467.864 193.422 468.73 193.22 469.472 192.816C470.227 192.4 470.852 191.833 471.347 191.117C471.842 190.401 472.213 189.581 472.46 188.656C472.721 187.719 472.851 186.723 472.851 185.668V185.219C472.851 184.177 472.721 183.194 472.46 182.27C472.213 181.332 471.835 180.505 471.327 179.789C470.833 179.06 470.208 178.487 469.452 178.07C468.71 177.654 467.838 177.445 466.835 177.445C465.846 177.445 464.973 177.654 464.218 178.07C463.476 178.487 462.851 179.06 462.343 179.789C461.848 180.505 461.477 181.332 461.23 182.27C460.982 183.194 460.859 184.177 460.859 185.219ZM481.795 166H485.428V191.898L485.116 196H481.795V166ZM499.705 185.258V185.668C499.705 187.204 499.523 188.63 499.159 189.945C498.794 191.247 498.26 192.38 497.557 193.344C496.854 194.307 495.995 195.056 494.979 195.59C493.963 196.124 492.798 196.391 491.483 196.391C490.142 196.391 488.963 196.163 487.948 195.707C486.945 195.238 486.099 194.568 485.409 193.695C484.718 192.823 484.165 191.768 483.748 190.531C483.345 189.294 483.065 187.901 482.909 186.352V184.555C483.065 182.992 483.345 181.592 483.748 180.355C484.165 179.118 484.718 178.064 485.409 177.191C486.099 176.306 486.945 175.635 487.948 175.18C488.95 174.711 490.116 174.477 491.444 174.477C492.772 174.477 493.95 174.737 494.979 175.258C496.008 175.766 496.867 176.495 497.557 177.445C498.26 178.396 498.794 179.535 499.159 180.863C499.523 182.178 499.705 183.643 499.705 185.258ZM496.073 185.668V185.258C496.073 184.203 495.975 183.214 495.78 182.289C495.584 181.352 495.272 180.531 494.842 179.828C494.412 179.112 493.846 178.552 493.143 178.148C492.44 177.732 491.574 177.523 490.545 177.523C489.634 177.523 488.84 177.68 488.162 177.992C487.498 178.305 486.932 178.728 486.463 179.262C485.995 179.783 485.61 180.382 485.311 181.059C485.024 181.723 484.81 182.413 484.666 183.129V187.836C484.875 188.747 485.213 189.626 485.682 190.473C486.164 191.306 486.802 191.99 487.596 192.523C488.403 193.057 489.399 193.324 490.584 193.324C491.561 193.324 492.394 193.129 493.084 192.738C493.787 192.335 494.354 191.781 494.784 191.078C495.226 190.375 495.552 189.561 495.76 188.637C495.968 187.712 496.073 186.723 496.073 185.668ZM504.119 185.668V185.219C504.119 183.695 504.34 182.283 504.783 180.98C505.226 179.665 505.864 178.526 506.697 177.562C507.53 176.586 508.539 175.831 509.724 175.297C510.909 174.75 512.237 174.477 513.709 174.477C515.193 174.477 516.528 174.75 517.713 175.297C518.91 175.831 519.926 176.586 520.759 177.562C521.606 178.526 522.25 179.665 522.693 180.98C523.136 182.283 523.357 183.695 523.357 185.219V185.668C523.357 187.191 523.136 188.604 522.693 189.906C522.25 191.208 521.606 192.348 520.759 193.324C519.926 194.288 518.917 195.043 517.732 195.59C516.56 196.124 515.232 196.391 513.748 196.391C512.263 196.391 510.929 196.124 509.744 195.59C508.559 195.043 507.543 194.288 506.697 193.324C505.864 192.348 505.226 191.208 504.783 189.906C504.34 188.604 504.119 187.191 504.119 185.668ZM507.732 185.219V185.668C507.732 186.723 507.856 187.719 508.103 188.656C508.351 189.581 508.722 190.401 509.216 191.117C509.724 191.833 510.356 192.4 511.111 192.816C511.866 193.22 512.745 193.422 513.748 193.422C514.737 193.422 515.603 193.22 516.345 192.816C517.101 192.4 517.726 191.833 518.22 191.117C518.715 190.401 519.086 189.581 519.334 188.656C519.594 187.719 519.724 186.723 519.724 185.668V185.219C519.724 184.177 519.594 183.194 519.334 182.27C519.086 181.332 518.709 180.505 518.201 179.789C517.706 179.06 517.081 178.487 516.326 178.07C515.584 177.654 514.711 177.445 513.709 177.445C512.719 177.445 511.847 177.654 511.091 178.07C510.349 178.487 509.724 179.06 509.216 179.789C508.722 180.505 508.351 181.332 508.103 182.27C507.856 183.194 507.732 184.177 507.732 185.219ZM537.536 174.867V177.641H526.11V174.867H537.536ZM529.977 169.73H533.591V190.766C533.591 191.482 533.701 192.022 533.923 192.387C534.144 192.751 534.43 192.992 534.782 193.109C535.134 193.227 535.511 193.285 535.915 193.285C536.214 193.285 536.527 193.259 536.852 193.207C537.191 193.142 537.445 193.09 537.614 193.051L537.634 196C537.347 196.091 536.97 196.176 536.501 196.254C536.045 196.345 535.492 196.391 534.841 196.391C533.955 196.391 533.141 196.215 532.399 195.863C531.657 195.512 531.065 194.926 530.622 194.105C530.192 193.272 529.977 192.152 529.977 190.746V169.73ZM541.227 185.668V185.219C541.227 183.695 541.448 182.283 541.891 180.98C542.333 179.665 542.971 178.526 543.805 177.562C544.638 176.586 545.647 175.831 546.832 175.297C548.017 174.75 549.345 174.477 550.816 174.477C552.301 174.477 553.635 174.75 554.82 175.297C556.018 175.831 557.034 176.586 557.867 177.562C558.714 178.526 559.358 179.665 559.801 180.98C560.243 182.283 560.465 183.695 560.465 185.219V185.668C560.465 187.191 560.243 188.604 559.801 189.906C559.358 191.208 558.714 192.348 557.867 193.324C557.034 194.288 556.025 195.043 554.84 195.59C553.668 196.124 552.34 196.391 550.855 196.391C549.371 196.391 548.036 196.124 546.852 195.59C545.667 195.043 544.651 194.288 543.805 193.324C542.971 192.348 542.333 191.208 541.891 189.906C541.448 188.604 541.227 187.191 541.227 185.668ZM544.84 185.219V185.668C544.84 186.723 544.964 187.719 545.211 188.656C545.458 189.581 545.829 190.401 546.324 191.117C546.832 191.833 547.464 192.4 548.219 192.816C548.974 193.22 549.853 193.422 550.855 193.422C551.845 193.422 552.711 193.22 553.453 192.816C554.208 192.4 554.833 191.833 555.328 191.117C555.823 190.401 556.194 189.581 556.441 188.656C556.702 187.719 556.832 186.723 556.832 185.668V185.219C556.832 184.177 556.702 183.194 556.441 182.27C556.194 181.332 555.816 180.505 555.309 179.789C554.814 179.06 554.189 178.487 553.434 178.07C552.691 177.654 551.819 177.445 550.816 177.445C549.827 177.445 548.954 177.654 548.199 178.07C547.457 178.487 546.832 179.06 546.324 179.789C545.829 180.505 545.458 181.332 545.211 182.27C544.964 183.194 544.84 184.177 544.84 185.219ZM577.065 167.562H586.479C588.614 167.562 590.418 167.888 591.889 168.539C593.373 169.19 594.5 170.154 595.268 171.43C596.049 172.693 596.44 174.249 596.44 176.098C596.44 177.4 596.173 178.591 595.639 179.672C595.118 180.74 594.363 181.651 593.373 182.406C592.397 183.148 591.225 183.702 589.858 184.066L588.803 184.477H579.955L579.916 181.41H586.596C587.95 181.41 589.077 181.176 589.975 180.707C590.873 180.225 591.551 179.581 592.006 178.773C592.462 177.966 592.69 177.074 592.69 176.098C592.69 175.004 592.475 174.047 592.045 173.227C591.616 172.406 590.939 171.775 590.014 171.332C589.103 170.876 587.924 170.648 586.479 170.648H580.834V196H577.065V167.562ZM593.686 196L586.772 183.109L590.698 183.09L597.709 195.766V196H593.686ZM610.736 196.391C609.265 196.391 607.93 196.143 606.732 195.648C605.547 195.141 604.525 194.431 603.666 193.52C602.819 192.608 602.168 191.527 601.712 190.277C601.257 189.027 601.029 187.66 601.029 186.176V185.355C601.029 183.637 601.283 182.107 601.791 180.766C602.298 179.411 602.989 178.266 603.861 177.328C604.733 176.391 605.723 175.681 606.83 175.199C607.936 174.717 609.082 174.477 610.267 174.477C611.778 174.477 613.08 174.737 614.173 175.258C615.28 175.779 616.185 176.508 616.888 177.445C617.591 178.37 618.112 179.464 618.451 180.727C618.789 181.977 618.959 183.344 618.959 184.828V186.449H603.177V183.5H615.345V183.227C615.293 182.289 615.098 181.378 614.759 180.492C614.434 179.607 613.913 178.878 613.197 178.305C612.481 177.732 611.504 177.445 610.267 177.445C609.447 177.445 608.692 177.621 608.002 177.973C607.311 178.311 606.719 178.819 606.224 179.496C605.729 180.173 605.345 181 605.072 181.977C604.798 182.953 604.662 184.079 604.662 185.355V186.176C604.662 187.178 604.798 188.122 605.072 189.008C605.358 189.88 605.768 190.648 606.302 191.312C606.849 191.977 607.507 192.497 608.275 192.875C609.056 193.253 609.942 193.441 610.931 193.441C612.207 193.441 613.288 193.181 614.173 192.66C615.059 192.139 615.834 191.443 616.498 190.57L618.685 192.309C618.229 192.999 617.65 193.656 616.947 194.281C616.244 194.906 615.378 195.414 614.349 195.805C613.334 196.195 612.129 196.391 610.736 196.391ZM637.669 174.867H640.95V195.551C640.95 197.413 640.572 199.001 639.817 200.316C639.062 201.632 638.007 202.628 636.653 203.305C635.312 203.995 633.762 204.34 632.005 204.34C631.276 204.34 630.416 204.223 629.427 203.988C628.45 203.767 627.486 203.383 626.536 202.836C625.598 202.302 624.811 201.579 624.173 200.668L626.067 198.52C626.953 199.587 627.877 200.329 628.841 200.746C629.817 201.163 630.781 201.371 631.731 201.371C632.877 201.371 633.867 201.156 634.7 200.727C635.533 200.297 636.178 199.659 636.634 198.812C637.102 197.979 637.337 196.951 637.337 195.727V179.516L637.669 174.867ZM623.118 185.668V185.258C623.118 183.643 623.307 182.178 623.684 180.863C624.075 179.535 624.628 178.396 625.345 177.445C626.074 176.495 626.953 175.766 627.981 175.258C629.01 174.737 630.169 174.477 631.458 174.477C632.786 174.477 633.945 174.711 634.934 175.18C635.937 175.635 636.783 176.306 637.473 177.191C638.177 178.064 638.73 179.118 639.134 180.355C639.537 181.592 639.817 182.992 639.973 184.555V186.352C639.83 187.901 639.55 189.294 639.134 190.531C638.73 191.768 638.177 192.823 637.473 193.695C636.783 194.568 635.937 195.238 634.934 195.707C633.932 196.163 632.76 196.391 631.419 196.391C630.156 196.391 629.01 196.124 627.981 195.59C626.966 195.056 626.093 194.307 625.364 193.344C624.635 192.38 624.075 191.247 623.684 189.945C623.307 188.63 623.118 187.204 623.118 185.668ZM626.731 185.258V185.668C626.731 186.723 626.835 187.712 627.044 188.637C627.265 189.561 627.597 190.375 628.04 191.078C628.496 191.781 629.075 192.335 629.778 192.738C630.481 193.129 631.321 193.324 632.298 193.324C633.496 193.324 634.485 193.07 635.266 192.562C636.048 192.055 636.666 191.384 637.122 190.551C637.591 189.717 637.955 188.812 638.216 187.836V183.129C638.072 182.413 637.851 181.723 637.552 181.059C637.265 180.382 636.887 179.783 636.419 179.262C635.963 178.728 635.397 178.305 634.72 177.992C634.042 177.68 633.248 177.523 632.337 177.523C631.347 177.523 630.494 177.732 629.778 178.148C629.075 178.552 628.496 179.112 628.04 179.828C627.597 180.531 627.265 181.352 627.044 182.289C626.835 183.214 626.731 184.203 626.731 185.258ZM660.168 191.117V174.867H663.801V196H660.344L660.168 191.117ZM660.852 186.664L662.355 186.625C662.355 188.031 662.206 189.333 661.906 190.531C661.62 191.716 661.151 192.745 660.5 193.617C659.849 194.49 658.996 195.173 657.941 195.668C656.887 196.15 655.604 196.391 654.094 196.391C653.065 196.391 652.121 196.241 651.262 195.941C650.415 195.642 649.686 195.18 649.074 194.555C648.462 193.93 647.987 193.116 647.648 192.113C647.323 191.111 647.16 189.906 647.16 188.5V174.867H650.773V188.539C650.773 189.49 650.878 190.277 651.086 190.902C651.307 191.514 651.6 192.003 651.965 192.367C652.342 192.719 652.759 192.966 653.215 193.109C653.684 193.253 654.165 193.324 654.66 193.324C656.197 193.324 657.414 193.031 658.312 192.445C659.211 191.846 659.855 191.046 660.246 190.043C660.65 189.027 660.852 187.901 660.852 186.664ZM674.034 166V196H670.402V166H674.034ZM693.096 192.387V181.508C693.096 180.674 692.927 179.952 692.588 179.34C692.263 178.715 691.768 178.233 691.104 177.895C690.44 177.556 689.62 177.387 688.643 177.387C687.732 177.387 686.931 177.543 686.241 177.855C685.564 178.168 685.03 178.578 684.639 179.086C684.261 179.594 684.073 180.141 684.073 180.727H680.459C680.459 179.971 680.655 179.223 681.045 178.48C681.436 177.738 681.996 177.068 682.725 176.469C683.467 175.857 684.353 175.375 685.381 175.023C686.423 174.659 687.582 174.477 688.858 174.477C690.394 174.477 691.748 174.737 692.92 175.258C694.105 175.779 695.03 176.566 695.694 177.621C696.371 178.663 696.709 179.971 696.709 181.547V191.391C696.709 192.094 696.768 192.842 696.885 193.637C697.015 194.431 697.204 195.115 697.452 195.688V196H693.682C693.5 195.583 693.357 195.03 693.252 194.34C693.148 193.637 693.096 192.986 693.096 192.387ZM693.721 183.188L693.76 185.727H690.108C689.079 185.727 688.161 185.811 687.354 185.98C686.547 186.137 685.87 186.378 685.323 186.703C684.776 187.029 684.359 187.439 684.073 187.934C683.786 188.415 683.643 188.982 683.643 189.633C683.643 190.297 683.793 190.902 684.092 191.449C684.392 191.996 684.841 192.432 685.44 192.758C686.052 193.07 686.801 193.227 687.686 193.227C688.793 193.227 689.769 192.992 690.616 192.523C691.462 192.055 692.133 191.482 692.627 190.805C693.135 190.128 693.409 189.47 693.448 188.832L694.991 190.57C694.899 191.117 694.652 191.723 694.248 192.387C693.845 193.051 693.304 193.689 692.627 194.301C691.963 194.9 691.169 195.401 690.245 195.805C689.333 196.195 688.304 196.391 687.159 196.391C685.726 196.391 684.47 196.111 683.389 195.551C682.321 194.991 681.488 194.242 680.889 193.305C680.303 192.354 680.01 191.293 680.01 190.121C680.01 188.988 680.232 187.992 680.674 187.133C681.117 186.26 681.755 185.538 682.588 184.965C683.422 184.379 684.424 183.936 685.596 183.637C686.768 183.337 688.077 183.188 689.522 183.188H693.721ZM706.806 178.188V196H703.193V174.867H706.709L706.806 178.188ZM713.408 174.75L713.388 178.109C713.089 178.044 712.802 178.005 712.529 177.992C712.268 177.966 711.969 177.953 711.63 177.953C710.797 177.953 710.061 178.083 709.423 178.344C708.785 178.604 708.245 178.969 707.802 179.438C707.36 179.906 707.008 180.466 706.748 181.117C706.5 181.755 706.337 182.458 706.259 183.227L705.244 183.812C705.244 182.536 705.367 181.339 705.615 180.219C705.875 179.099 706.272 178.109 706.806 177.25C707.34 176.378 708.017 175.701 708.837 175.219C709.671 174.724 710.66 174.477 711.806 174.477C712.067 174.477 712.366 174.509 712.705 174.574C713.043 174.626 713.278 174.685 713.408 174.75Z" fill="#696969"/>
<g clip-path="url(#clip0_825_4148)">
<path d="M854.559 43.3825H864.794C866.202 43.3825 867.353 42.231 867.353 40.8236C867.353 39.4162 866.202 38.2647 864.794 38.2647H854.559C853.151 38.2647 852 39.4162 852 40.8236C852 42.231 853.151 43.3825 854.559 43.3825ZM852 15.2347C852 16.6421 853.151 17.7936 854.559 17.7936H895.501C896.909 17.7936 898.06 16.6421 898.06 15.2347C898.06 13.8273 896.909 12.6758 895.501 12.6758H854.559C853.151 12.6758 852 13.8273 852 15.2347ZM854.559 30.588H880.148C881.555 30.588 882.707 29.4365 882.707 28.0291C882.707 26.6217 881.555 25.4702 880.148 25.4702H854.559C853.151 25.4702 852 26.6217 852 28.0291C852 29.4365 853.151 30.588 854.559 30.588Z" fill="#696969"/>
</g>
<g clip-path="url(#clip1_825_4148)">
<path fill-rule="evenodd" clip-rule="evenodd" d="M947.809 5C949.36 5 950.617 6.25742 950.617 7.80854V43.7578C950.617 44.2047 950.795 44.6333 951.111 44.9494C951.427 45.2654 951.855 45.4429 952.302 45.4429H988.251C989.803 45.4429 991.06 46.7004 991.06 48.2515C991.06 49.8026 989.803 51.06 988.251 51.06H952.302C950.366 51.06 948.508 50.2907 947.139 48.9212C945.769 47.5518 945 45.6945 945 43.7578V7.80854C945 6.25742 946.257 5 947.809 5Z" fill="#696969"/>
<path fill-rule="evenodd" clip-rule="evenodd" d="M990.237 17.0567C991.334 18.1535 991.334 19.9318 990.237 21.0286L976.756 34.5096C975.66 35.6064 973.881 35.6064 972.785 34.5096L965.783 27.5082L958.782 34.5096C957.685 35.6064 955.907 35.6064 954.81 34.5096C953.713 33.4128 953.713 31.6345 954.81 30.5377L963.797 21.5504C964.894 20.4536 966.672 20.4536 967.769 21.5504L974.77 28.5518L986.266 17.0567C987.362 15.9599 989.141 15.9599 990.237 17.0567Z" fill="#696969"/>
<path fill-rule="evenodd" clip-rule="evenodd" d="M978.702 19.0427C978.702 17.4916 979.96 16.2341 981.511 16.2341H988.251C989.803 16.2341 991.06 17.4916 991.06 19.0427V25.7832C991.06 27.3343 989.803 28.5917 988.251 28.5917C986.7 28.5917 985.443 27.3343 985.443 25.7832V21.8512H981.511C979.96 21.8512 978.702 20.5938 978.702 19.0427Z" fill="#696969"/>
</g>
<path d="M1071.51 34.5554H1069.43L1068.69 33.843C1071.28 30.8351 1072.83 26.93 1072.83 22.6819C1072.83 13.2095 1065.15 5.53125 1055.68 5.53125C1046.21 5.53125 1038.53 13.2095 1038.53 22.6819C1038.53 32.1543 1046.21 39.8326 1055.68 39.8326C1059.93 39.8326 1063.84 38.2758 1066.84 35.69L1067.56 36.4288V38.5133L1078.78 49.7159C1079.87 50.8008 1081.63 50.7999 1082.71 49.714C1083.8 48.628 1083.8 46.8676 1082.72 45.7805L1071.51 34.5554ZM1055.68 34.5554C1049.11 34.5554 1043.81 29.2519 1043.81 22.6819C1043.81 16.1119 1049.11 10.8084 1055.68 10.8084C1062.25 10.8084 1067.56 16.1119 1067.56 22.6819C1067.56 29.2519 1062.25 34.5554 1055.68 34.5554Z" fill="#696969"/>
<path d="M1058.31 16.6809C1058.31 15.621 1059.17 14.7617 1060.23 14.7617H1060.88C1061.94 14.7617 1062.8 15.621 1062.8 16.6809V28.3581C1062.8 29.418 1061.94 30.2773 1060.88 30.2773H1060.23C1059.17 30.2773 1058.31 29.418 1058.31 28.3581V16.6809Z" fill="#696969"/>
<path d="M1052.92 21.754C1052.92 20.694 1053.78 19.8348 1054.84 19.8348H1055.49C1056.55 19.8348 1057.41 20.694 1057.41 21.754V28.358C1057.41 29.4179 1056.55 30.2771 1055.49 30.2771H1054.84C1053.78 30.2771 1052.92 29.4179 1052.92 28.358V21.754Z" fill="#696969"/>
<path d="M1049.44 24.6967C1048.38 24.6967 1047.53 25.5559 1047.53 26.6158V28.3581C1047.53 29.418 1048.38 30.2772 1049.44 30.2772H1050.09C1051.15 30.2772 1052.01 29.418 1052.01 28.3581V26.6158C1052.01 25.5559 1051.15 24.6967 1050.09 24.6967H1049.44Z" fill="#696969"/>
<g clip-path="url(#clip2_825_4148)">
<path d="M1174.78 38.2399H1172.89V30.8569C1172.89 30.26 1172.65 29.6873 1172.23 29.2637C1171.81 28.8401 1171.24 28.5999 1170.64 28.5955H1156.28V23.4241H1160.97C1161.57 23.4241 1162.14 23.1858 1162.57 22.7617C1162.99 22.3376 1163.23 21.7624 1163.23 21.1627V7.26144C1163.23 6.66167 1162.99 6.08647 1162.57 5.66236C1162.14 5.23826 1161.57 5 1160.97 5H1147.07C1146.47 5 1145.9 5.23826 1145.48 5.66236C1145.05 6.08647 1144.81 6.66167 1144.81 7.26144V21.1627C1144.81 21.7624 1145.05 22.3376 1145.48 22.7617C1145.9 23.1858 1146.47 23.4241 1147.07 23.4241H1151.76V28.5955H1137.4C1136.8 28.5955 1136.23 28.8338 1135.8 29.2579C1135.38 29.682 1135.14 30.2572 1135.14 30.8569V38.2399H1133.26C1132.66 38.2399 1132.09 38.4758 1131.67 38.8963C1131.24 39.3169 1131 39.8878 1131 40.4847V48.7988C1131 49.3986 1131.24 49.9738 1131.66 50.3979C1132.09 50.822 1132.66 51.0603 1133.26 51.0603H1141.57C1142.17 51.0559 1142.74 50.8157 1143.16 50.3921C1143.58 49.9684 1143.82 49.3957 1143.82 48.7988V40.4847C1143.81 39.8907 1143.57 39.3222 1143.15 38.9022C1142.73 38.4821 1142.17 38.2442 1141.57 38.2399H1139.68V33.1184H1151.76V38.2399H1149.87C1149.27 38.2399 1148.7 38.4758 1148.27 38.8963C1147.85 39.3169 1147.61 39.8878 1147.61 40.4847V48.7988C1147.61 49.3986 1147.84 49.9738 1148.27 50.3979C1148.69 50.822 1149.27 51.0603 1149.87 51.0603H1158.18C1158.78 51.0603 1159.35 50.822 1159.78 50.3979C1160.2 49.9738 1160.44 49.3986 1160.44 48.7988V40.4847C1160.43 39.8878 1160.19 39.3169 1159.77 38.8963C1159.35 38.4758 1158.77 38.2399 1158.18 38.2399H1156.28V33.1184H1168.37V38.2399H1166.49C1165.89 38.2399 1165.32 38.4758 1164.9 38.8963C1164.47 39.3169 1164.23 39.8878 1164.23 40.4847V48.7988C1164.23 49.3986 1164.47 49.9738 1164.89 50.3979C1165.31 50.822 1165.89 51.0603 1166.49 51.0603H1174.8C1175.4 51.0603 1175.97 50.822 1176.4 50.3979C1176.82 49.9738 1177.06 49.3986 1177.06 48.7988V40.4847C1177.06 40.1877 1177 39.8941 1176.88 39.6205C1176.77 39.347 1176.6 39.0989 1176.39 38.8905C1176.17 38.682 1175.92 38.5173 1175.65 38.4056C1175.37 38.294 1175.08 38.2377 1174.78 38.2399ZM1152.13 46.554V42.7461H1155.92V46.5374L1152.13 46.554ZM1158.78 9.53951V18.9178H1149.33V9.52289L1158.78 9.53951ZM1172.59 42.796V46.5873H1168.73V42.7461L1172.59 42.796ZM1135.52 46.5374V42.7461H1139.31V46.5374H1135.52Z" fill="#696969"/>
</g>
<g clip-path="url(#clip3_825_4148)">
<path d="M893.988 85.0719C892.699 83.781 891.167 82.757 889.482 82.0583C887.796 81.3596 885.99 81 884.165 81C882.34 81 880.534 81.3596 878.848 82.0583C877.163 82.757 875.631 83.781 874.342 85.0719L856.069 103.345C853.464 105.95 852 109.484 852 113.168C852 116.852 853.464 120.386 856.069 122.991C858.674 125.596 862.208 127.06 865.892 127.06C869.576 127.06 873.11 125.596 875.715 122.991L893.988 104.718C895.279 103.429 896.303 101.897 897.002 100.212C897.7 98.5264 898.06 96.7197 898.06 94.8951C898.06 93.0705 897.7 91.2638 897.002 89.5782C896.303 87.8927 895.279 86.3614 893.988 85.0719ZM860.105 118.955C859.342 118.195 858.736 117.292 858.322 116.298C857.909 115.303 857.696 114.237 857.696 113.16C857.696 112.083 857.909 111.016 858.322 110.022C858.736 109.027 859.342 108.124 860.105 107.365L867.224 100.246L878.814 111.836L871.679 118.955C870.12 120.444 868.048 121.276 865.892 121.276C863.736 121.276 861.664 120.444 860.105 118.955Z" fill="#696969"/>
</g>
<g clip-path="url(#clip4_825_4148)">
<path d="M970.498 104.03C970.498 105.393 969.393 106.497 968.03 106.497C966.667 106.497 965.563 105.393 965.563 104.03C965.563 102.667 966.667 101.562 968.03 101.562C969.393 101.562 970.498 102.667 970.498 104.03Z" fill="#696969"/>
<path fill-rule="evenodd" clip-rule="evenodd" d="M955.235 84.8812C959.022 82.3507 963.475 81 968.03 81C974.138 81 979.996 83.4264 984.315 87.7453C988.634 92.0643 991.06 97.922 991.06 104.03C991.06 108.585 989.709 113.037 987.179 116.825C984.648 120.612 981.051 123.564 976.843 125.307C972.635 127.05 968.004 127.506 963.537 126.617C959.07 125.729 954.966 123.535 951.745 120.315C948.525 117.094 946.331 112.99 945.443 108.523C944.554 104.055 945.01 99.4249 946.753 95.2168C948.496 91.0086 951.448 87.4118 955.235 84.8812ZM970.497 115.545V120.266C973.959 119.736 977.161 118.114 979.638 115.638C982.114 113.161 983.736 109.959 984.266 106.497H979.545V101.562H984.266C983.736 98.1007 982.114 94.8985 979.638 92.4221C977.161 89.9457 973.959 88.3243 970.497 87.7938V92.515H965.562V87.7938C962.101 88.3243 958.899 89.9457 956.422 92.4221C953.946 94.8985 952.324 98.1007 951.794 101.562H956.515V106.497H951.794C952.324 109.959 953.946 113.161 956.422 115.638C958.899 118.114 962.101 119.736 965.562 120.266V115.545H970.497Z" fill="#696969"/>
</g>
<g clip-path="url(#clip5_825_4148)">
<path d="M1081.76 101.727H1081.37C1078.94 101.727 1076.86 100.186 1075.94 97.9409L1075.89 97.8281C1074.95 95.578 1075.32 92.9987 1077.04 91.2737L1077.31 90.9997C1077.53 90.7858 1077.7 90.532 1077.81 90.2526C1077.93 89.9733 1077.99 89.6738 1077.99 89.3714C1077.99 89.069 1077.93 88.7696 1077.81 88.4902C1077.7 88.2109 1077.53 87.957 1077.31 87.7432C1077.1 87.5294 1076.85 87.3598 1076.57 87.2441C1076.29 87.1283 1075.99 87.0688 1075.69 87.0688C1075.38 87.0688 1075.08 87.1283 1074.81 87.2441C1074.53 87.3598 1074.27 87.5294 1074.06 87.7432L1073.78 88.0173C1072.06 89.7422 1069.48 90.1084 1067.23 89.1688L1067.12 89.1204C1064.87 88.2038 1063.33 86.1081 1063.33 83.683V83.4965C1063.33 82.0294 1062.3 81 1061.03 81C1059.76 81 1058.73 82.0294 1058.73 83.303V83.3859C1058.73 85.91 1057.21 88.1854 1054.87 89.1503L1054.86 89.1573C1053.72 89.6293 1052.47 89.7526 1051.25 89.5116C1050.04 89.2705 1048.93 88.676 1048.06 87.8031L1048 87.7455C1047.79 87.5317 1047.53 87.3621 1047.25 87.2464C1046.98 87.1306 1046.68 87.0711 1046.37 87.0711C1046.07 87.0711 1045.77 87.1306 1045.49 87.2464C1045.21 87.3621 1044.96 87.5317 1044.75 87.7455C1044.53 87.9593 1044.36 88.2132 1044.25 88.4926C1044.13 88.7719 1044.07 89.0714 1044.07 89.3737C1044.07 89.6761 1044.13 89.9756 1044.25 90.2549C1044.36 90.5343 1044.53 90.7881 1044.75 91.002L1044.83 91.0849C1045.69 91.9508 1046.28 93.0537 1046.52 94.2542C1046.76 95.4547 1046.64 96.6992 1046.17 97.8304L1046.11 97.9778C1045.65 99.0873 1044.87 100.036 1043.87 100.703C1042.87 101.37 1041.7 101.727 1040.5 101.727H1040.5C1039.03 101.727 1038 102.757 1038 104.03C1038 105.304 1039.03 106.333 1040.3 106.333H1040.46C1041.67 106.333 1042.86 106.692 1043.87 107.366C1044.87 108.04 1045.66 108.998 1046.12 110.119L1046.17 110.232C1046.64 111.363 1046.76 112.608 1046.52 113.808C1046.28 115.009 1045.69 116.112 1044.83 116.978L1044.75 117.061C1044.31 117.492 1044.07 118.078 1044.07 118.689C1044.07 119.299 1044.31 119.885 1044.75 120.317C1045.18 120.749 1045.76 120.991 1046.37 120.991C1046.98 120.991 1047.57 120.749 1048 120.317L1048.08 120.234C1048.95 119.369 1050.05 118.779 1051.25 118.54C1052.45 118.301 1053.7 118.423 1054.83 118.891L1055.16 119.03C1056.22 119.466 1057.12 120.206 1057.75 121.156C1058.39 122.106 1058.73 123.223 1058.73 124.366V124.561C1058.73 126.031 1059.76 127.06 1061.03 127.06C1062.3 127.06 1063.33 126.028 1063.33 124.757V124.366C1063.33 122.028 1064.74 119.921 1066.9 119.027L1067.48 118.788C1068.54 118.35 1069.7 118.235 1070.82 118.458C1071.95 118.682 1072.98 119.233 1073.78 120.043L1074.06 120.317C1074.27 120.531 1074.53 120.7 1074.81 120.816C1075.08 120.932 1075.38 120.991 1075.69 120.991C1075.99 120.991 1076.29 120.932 1076.57 120.816C1076.85 120.7 1077.1 120.531 1077.31 120.317C1077.53 120.103 1077.7 119.849 1077.81 119.57C1077.93 119.291 1077.99 118.991 1077.99 118.689C1077.99 118.386 1077.93 118.087 1077.81 117.808C1077.7 117.528 1077.53 117.274 1077.31 117.061L1077.04 116.786C1075.32 115.061 1074.95 112.482 1075.89 110.232L1075.94 110.119C1076.86 107.874 1078.95 106.333 1081.38 106.333H1081.56C1083.03 106.333 1084.06 105.304 1084.06 104.03C1084.06 102.757 1083.03 101.727 1081.76 101.727V101.727ZM1051.82 106.333C1051.21 106.333 1050.62 106.09 1050.19 105.659C1049.76 105.227 1049.52 104.641 1049.52 104.03C1049.52 103.419 1049.76 102.834 1050.19 102.402C1050.62 101.97 1051.21 101.727 1051.82 101.727C1052.43 101.727 1053.01 101.97 1053.45 102.402C1053.88 102.834 1054.12 103.419 1054.12 104.03C1054.12 104.641 1053.88 105.227 1053.45 105.659C1053.01 106.09 1052.43 106.333 1051.82 106.333V106.333ZM1063.33 114.394C1062.72 114.394 1062.14 114.151 1061.7 113.719C1061.27 113.287 1061.03 112.701 1061.03 112.091C1061.03 111.48 1061.27 110.894 1061.7 110.462C1062.14 110.03 1062.72 109.788 1063.33 109.788C1063.94 109.788 1064.53 110.03 1064.96 110.462C1065.39 110.894 1065.64 111.48 1065.64 112.091C1065.64 112.701 1065.39 113.287 1064.96 113.719C1064.53 114.151 1063.94 114.394 1063.33 114.394ZM1065.64 104.03C1065.03 104.03 1064.43 103.911 1063.87 103.679C1063.31 103.447 1062.81 103.108 1062.38 102.68C1061.95 102.252 1061.61 101.744 1061.38 101.185C1061.15 100.626 1061.03 100.027 1061.03 99.4218C1061.03 98.8167 1061.15 98.2177 1061.38 97.6588C1061.61 97.0999 1061.95 96.5921 1062.38 96.1643C1062.81 95.7366 1063.32 95.3974 1063.88 95.166C1064.43 94.9346 1065.03 94.8156 1065.64 94.8157C1066.86 94.8161 1068.03 95.3017 1068.9 96.166C1069.76 97.0302 1070.24 98.2022 1070.24 99.4241C1070.24 100.646 1069.76 101.818 1068.89 102.681C1068.03 103.545 1066.86 104.03 1065.64 104.03V104.03Z" fill="#696969"/>
</g>
<g clip-path="url(#clip6_825_4148)">
<path d="M1146.3 100.649H1166.71C1166.96 100.666 1167.2 100.782 1167.36 100.972C1167.53 101.162 1167.62 101.41 1167.6 101.663C1167.59 101.9 1167.49 102.125 1167.33 102.296C1167.16 102.467 1166.94 102.573 1166.71 102.593H1146.3C1146.17 102.593 1146.04 102.568 1145.92 102.518C1145.81 102.469 1145.7 102.396 1145.61 102.305C1145.52 102.213 1145.45 102.105 1145.4 101.986C1145.35 101.867 1145.33 101.74 1145.33 101.612C1145.33 101.485 1145.36 101.359 1145.4 101.241C1145.45 101.123 1145.52 101.016 1145.61 100.926C1145.7 100.836 1145.81 100.765 1145.93 100.717C1146.04 100.67 1146.17 100.646 1146.3 100.649Z" fill="#696969"/>
<path d="M1166.71 105.721H1146.3C1146.17 105.721 1146.04 105.747 1145.92 105.796C1145.81 105.846 1145.7 105.918 1145.61 106.009C1145.52 106.101 1145.45 106.209 1145.4 106.328C1145.35 106.447 1145.33 106.574 1145.33 106.702C1145.33 106.829 1145.36 106.955 1145.4 107.073C1145.45 107.191 1145.52 107.299 1145.61 107.389C1145.7 107.478 1145.81 107.549 1145.93 107.597C1146.04 107.645 1146.17 107.668 1146.3 107.666H1166.71C1166.83 107.666 1166.96 107.641 1167.08 107.592C1167.19 107.544 1167.3 107.473 1167.39 107.383C1167.48 107.294 1167.55 107.188 1167.6 107.071C1167.65 106.954 1167.67 106.828 1167.67 106.702C1167.67 106.445 1167.57 106.198 1167.39 106.014C1167.21 105.831 1166.96 105.726 1166.71 105.721Z" fill="#696969"/>
<path d="M1146.3 110.794H1166.71C1166.94 110.825 1167.16 110.941 1167.32 111.12C1167.47 111.298 1167.56 111.528 1167.56 111.766C1167.56 112.004 1167.47 112.234 1167.32 112.413C1167.16 112.591 1166.94 112.707 1166.71 112.738H1146.3C1146.06 112.707 1145.85 112.591 1145.69 112.413C1145.53 112.234 1145.45 112.004 1145.45 111.766C1145.45 111.528 1145.53 111.298 1145.69 111.12C1145.85 110.941 1146.06 110.825 1146.3 110.794Z" fill="#696969"/>
<path d="M1166.71 115.748H1146.3C1146.17 115.746 1146.04 115.769 1145.93 115.817C1145.81 115.864 1145.7 115.935 1145.61 116.025C1145.52 116.115 1145.45 116.222 1145.4 116.34C1145.36 116.458 1145.33 116.585 1145.33 116.712C1145.33 116.84 1145.35 116.967 1145.4 117.086C1145.45 117.205 1145.52 117.313 1145.61 117.404C1145.7 117.496 1145.81 117.568 1145.92 117.618C1146.04 117.667 1146.17 117.693 1146.3 117.693H1166.71C1166.95 117.671 1167.18 117.559 1167.35 117.377C1167.51 117.195 1167.6 116.958 1167.6 116.712C1167.6 116.468 1167.51 116.232 1167.34 116.053C1167.18 115.874 1166.95 115.765 1166.71 115.748Z" fill="#696969"/>
<path fill-rule="evenodd" clip-rule="evenodd" d="M1146.42 90.0467H1166.71C1166.83 90.0467 1166.96 90.0716 1167.08 90.1201C1167.19 90.1685 1167.3 90.2395 1167.39 90.329C1167.48 90.4185 1167.55 90.5247 1167.6 90.6417C1167.65 90.7586 1167.67 90.8839 1167.67 91.0105V96.3029C1167.67 96.5601 1167.57 96.807 1167.39 96.9905C1167.21 97.1739 1166.96 97.2792 1166.71 97.2836H1146.42C1146.29 97.2837 1146.16 97.2582 1146.04 97.2087C1145.93 97.1592 1145.82 97.0867 1145.73 96.9954C1145.64 96.9041 1145.57 96.7958 1145.52 96.6769C1145.47 96.5581 1145.45 96.4309 1145.45 96.3029V91.0105C1145.45 90.8833 1145.47 90.7569 1145.52 90.639C1145.57 90.521 1145.64 90.4138 1145.73 90.3239C1145.82 90.2339 1145.93 90.163 1146.05 90.1154C1146.16 90.0678 1146.29 90.0444 1146.42 90.0467ZM1147.4 95.3391H1165.73V91.9574H1147.4V95.3391Z" fill="#696969"/>
<path fill-rule="evenodd" clip-rule="evenodd" d="M1143 81.0006H1170.48C1171.56 81.0006 1172.59 81.4299 1173.36 82.1941C1174.12 82.9583 1174.55 83.9948 1174.55 85.0756V122.985C1174.55 124.066 1174.12 125.102 1173.36 125.866C1172.59 126.631 1171.56 127.06 1170.48 127.06H1137.61C1137.07 127.06 1136.54 126.955 1136.05 126.75C1135.55 126.545 1135.1 126.245 1134.72 125.866C1134.35 125.488 1134.05 125.039 1133.84 124.544C1133.64 124.05 1133.53 123.52 1133.53 122.985V90.9936C1133.47 90.4433 1133.53 89.8865 1133.69 89.3575C1133.85 88.8284 1134.12 88.338 1134.48 87.9162C1135.48 86.9355 1136.71 86.9355 1138.86 86.9355V85.0756C1138.86 84.5347 1138.97 83.9992 1139.17 83.5004C1139.38 83.0015 1139.69 82.5492 1140.08 82.1699C1140.46 81.7906 1140.92 81.4919 1141.42 81.2911C1141.92 81.0904 1142.46 80.9916 1143 81.0006ZM1170.61 123.118C1170.65 123.083 1170.68 123.036 1170.68 122.985V85.0756C1170.68 85.0247 1170.65 84.9774 1170.61 84.9429C1170.58 84.9084 1170.53 84.8894 1170.48 84.8896H1142.93C1142.88 84.8896 1142.84 84.9092 1142.8 84.9441C1142.77 84.9789 1142.75 85.0262 1142.75 85.0756V119.248C1142.75 119.764 1142.54 120.258 1142.18 120.623C1141.81 120.988 1141.32 121.193 1140.8 121.193C1140.29 121.193 1139.79 120.988 1139.43 120.623C1139.06 120.258 1138.86 119.764 1138.86 119.248V90.8584H1137.47V122.985C1137.47 123.011 1137.48 123.037 1137.49 123.06C1137.5 123.084 1137.51 123.105 1137.53 123.123C1137.55 123.14 1137.57 123.154 1137.6 123.162C1137.62 123.17 1137.65 123.173 1137.67 123.171H1170.48C1170.53 123.171 1170.58 123.152 1170.61 123.118Z" fill="#696969"/>
</g>
<g clip-path="url(#clip7_825_4148)">
<path fill-rule="evenodd" clip-rule="evenodd" d="M858.63 159.024C859.925 157.728 861.683 157 863.515 157H886.545C888.377 157 890.135 157.728 891.43 159.024C892.726 160.319 893.454 162.077 893.454 163.909V198.454H895.757C897.029 198.454 898.06 199.485 898.06 200.757C898.06 202.029 897.029 203.06 895.757 203.06H854.303C853.031 203.06 852 202.029 852 200.757C852 199.485 853.031 198.454 854.303 198.454H856.606V163.909C856.606 162.077 857.334 160.319 858.63 159.024ZM861.212 198.454H868.121V189.242C868.121 188.02 868.606 186.849 869.47 185.985C870.334 185.121 871.505 184.636 872.727 184.636H877.333C878.555 184.636 879.726 185.121 880.59 185.985C881.454 186.849 881.939 188.02 881.939 189.242V198.454H888.848V163.909C888.848 163.298 888.605 162.712 888.173 162.281C887.742 161.849 887.156 161.606 886.545 161.606H863.515C862.904 161.606 862.318 161.849 861.887 162.281C861.455 162.712 861.212 163.298 861.212 163.909V198.454ZM877.333 198.454V189.242H872.727V198.454H877.333ZM865.818 168.515C865.818 167.243 866.849 166.212 868.121 166.212H870.424C871.696 166.212 872.727 167.243 872.727 168.515C872.727 169.787 871.696 170.818 870.424 170.818H868.121C866.849 170.818 865.818 169.787 865.818 168.515ZM877.333 168.515C877.333 167.243 878.364 166.212 879.636 166.212H881.939C883.211 166.212 884.242 167.243 884.242 168.515C884.242 169.787 883.211 170.818 881.939 170.818H879.636C878.364 170.818 877.333 169.787 877.333 168.515ZM865.818 177.727C865.818 176.455 866.849 175.424 868.121 175.424H870.424C871.696 175.424 872.727 176.455 872.727 177.727C872.727 178.999 871.696 180.03 870.424 180.03H868.121C866.849 180.03 865.818 178.999 865.818 177.727ZM877.333 177.727C877.333 176.455 878.364 175.424 879.636 175.424H881.939C883.211 175.424 884.242 176.455 884.242 177.727C884.242 178.999 883.211 180.03 881.939 180.03H879.636C878.364 180.03 877.333 178.999 877.333 177.727Z" fill="#696969"/>
</g>
<g clip-path="url(#clip8_825_4148)">
<path d="M991.06 165.536C991.06 170.25 987.238 174.072 982.524 174.072C977.81 174.072 973.988 170.25 973.988 165.536C973.988 160.822 977.81 157 982.524 157C987.238 157 991.06 160.822 991.06 165.536Z" fill="#696969"/>
<path fill-rule="evenodd" clip-rule="evenodd" d="M976.486 157H956.515C954.683 157 952.925 157.728 951.63 159.024C950.334 160.319 949.606 162.077 949.606 163.909V198.454H947.303C946.031 198.454 945 199.485 945 200.757C945 202.029 946.031 203.06 947.303 203.06H988.757C990.029 203.06 991.06 202.029 991.06 200.757C991.06 199.485 990.029 198.454 988.757 198.454H986.454V175.227C985.241 175.72 983.914 175.991 982.524 175.991C982.297 175.991 982.072 175.984 981.848 175.969V198.454H974.939V189.242C974.939 188.02 974.454 186.849 973.59 185.985C972.726 185.121 971.555 184.636 970.333 184.636H965.727C964.505 184.636 963.334 185.121 962.47 185.985C961.606 186.849 961.121 188.02 961.121 189.242V198.454H954.212V163.909C954.212 163.298 954.455 162.712 954.887 162.281C955.318 161.849 955.904 161.606 956.515 161.606H972.833C973.589 159.743 974.867 158.147 976.486 157ZM970.333 189.242V198.454H965.727V189.242H970.333Z" fill="#696969"/>
<path d="M986.454 173.115V163.909C986.454 162.077 985.726 160.319 984.43 159.024C983.471 158.065 982.259 157.417 980.951 157.145C978.333 157.632 976.135 159.315 974.945 161.606H979.545C980.156 161.606 980.742 161.849 981.173 162.281C981.605 162.712 981.848 163.298 981.848 163.909V174.045C982.071 174.063 982.297 174.072 982.524 174.072C983.941 174.072 985.278 173.726 986.454 173.115Z" fill="#696969"/>
<path d="M975.715 170.684C974.759 169.421 974.146 167.884 974.015 166.212H974.939C976.211 166.212 977.242 167.243 977.242 168.515C977.242 169.515 976.605 170.366 975.715 170.684Z" fill="#696969"/>
<path d="M961.121 166.212C959.849 166.212 958.818 167.243 958.818 168.515C958.818 169.787 959.849 170.818 961.121 170.818H963.424C964.696 170.818 965.727 169.787 965.727 168.515C965.727 167.243 964.696 166.212 963.424 166.212H961.121Z" fill="#696969"/>
<path d="M961.121 175.424C959.849 175.424 958.818 176.455 958.818 177.727C958.818 178.999 959.849 180.03 961.121 180.03H963.424C964.696 180.03 965.727 178.999 965.727 177.727C965.727 176.455 964.696 175.424 963.424 175.424H961.121Z" fill="#696969"/>
<path d="M972.636 175.424C971.364 175.424 970.333 176.455 970.333 177.727C970.333 178.999 971.364 180.03 972.636 180.03H974.939C976.211 180.03 977.242 178.999 977.242 177.727C977.242 176.455 976.211 175.424 974.939 175.424H972.636Z" fill="#696969"/>
<path d="M984.054 159.918V171.152H981.64V162.663L979.034 163.457V161.591L983.815 159.918H984.054Z" fill="white"/>
</g>
<g clip-path="url(#clip9_825_4148)">
<path fill-rule="evenodd" clip-rule="evenodd" d="M1061.04 167.363C1062.42 167.363 1063.73 166.817 1064.71 165.845C1065.68 164.874 1066.22 163.556 1066.22 162.181C1066.22 160.807 1065.68 159.489 1064.71 158.518C1063.73 157.546 1062.42 157 1061.04 157C1059.67 157 1058.35 157.546 1057.38 158.518C1056.41 159.489 1055.86 160.807 1055.86 162.181C1055.86 163.556 1056.41 164.874 1057.38 165.845C1058.35 166.817 1059.67 167.363 1061.04 167.363V167.363ZM1077.07 170.172C1077.24 170.759 1077.17 171.389 1076.88 171.925C1076.58 172.46 1076.09 172.857 1075.5 173.028C1072.77 173.825 1070.3 174.426 1067.95 174.825V200.755C1067.95 201.348 1067.72 201.918 1067.31 202.347C1066.9 202.776 1066.34 203.031 1065.75 203.058C1065.16 203.085 1064.58 202.882 1064.13 202.492C1063.69 202.101 1063.41 201.554 1063.35 200.963L1062.2 188.297C1062.2 188.228 1062.19 188.158 1062.19 188.089H1059.89C1059.89 188.158 1059.89 188.228 1059.88 188.297L1058.73 200.963C1058.68 201.554 1058.4 202.101 1057.95 202.492C1057.5 202.882 1056.92 203.085 1056.33 203.058C1055.74 203.031 1055.18 202.776 1054.77 202.347C1054.36 201.918 1054.13 201.348 1054.13 200.755V174.783C1051.79 174.38 1049.33 173.791 1046.61 173.036C1046.31 172.958 1046.04 172.822 1045.8 172.636C1045.56 172.451 1045.35 172.219 1045.2 171.955C1045.05 171.69 1044.95 171.399 1044.92 171.097C1044.88 170.795 1044.9 170.488 1044.98 170.195C1045.06 169.901 1045.2 169.627 1045.39 169.388C1045.58 169.148 1045.81 168.949 1046.08 168.8C1046.34 168.652 1046.64 168.557 1046.94 168.523C1047.24 168.488 1047.55 168.514 1047.84 168.598C1053.15 170.07 1057.13 170.8 1061.05 170.817C1064.96 170.834 1068.94 170.144 1074.21 168.606C1074.8 168.435 1075.43 168.504 1075.97 168.798C1076.5 169.092 1076.9 169.586 1077.07 170.172V170.172Z" fill="#696969"/>
</g>
<g clip-path="url(#clip10_825_4148)">
<path d="M1170.15 161.606H1167.85V159.303C1167.85 158.036 1166.81 157 1165.54 157C1164.28 157 1163.24 158.036 1163.24 159.303V161.606H1144.82V159.303C1144.82 158.036 1143.78 157 1142.51 157C1141.25 157 1140.21 158.036 1140.21 159.303V161.606H1137.91C1135.35 161.606 1133.33 163.679 1133.33 166.212L1133.3 198.454C1133.3 200.987 1135.35 203.06 1137.91 203.06H1170.15C1172.68 203.06 1174.76 200.987 1174.76 198.454V166.212C1174.76 163.679 1172.68 161.606 1170.15 161.606ZM1170.15 196.151C1170.15 197.418 1169.11 198.454 1167.85 198.454H1140.21C1138.95 198.454 1137.91 197.418 1137.91 196.151V173.121H1170.15V196.151ZM1142.51 177.727H1147.12V182.333H1142.51V177.727ZM1151.73 177.727H1156.33V182.333H1151.73V177.727ZM1160.94 177.727H1165.54V182.333H1160.94V177.727Z" fill="#696969"/>
</g>
<path d="M875.03 233C862.317 233 852 243.317 852 256.03C852 268.743 862.317 279.06 875.03 279.06C887.743 279.06 898.06 268.743 898.06 256.03C898.06 243.317 887.743 233 875.03 233ZM875.03 239.909C878.853 239.909 881.939 242.995 881.939 246.818C881.939 250.641 878.853 253.727 875.03 253.727C871.207 253.727 868.121 250.641 868.121 246.818C868.121 242.995 871.207 239.909 875.03 239.909ZM875.03 272.612C869.272 272.612 864.183 269.664 861.212 265.196C861.281 260.613 870.424 258.103 875.03 258.103C879.613 258.103 888.779 260.613 888.848 265.196C885.877 269.664 880.788 272.612 875.03 272.612Z" fill="black" fill-opacity="0.54"/>
<path d="M978.754 262.704H976.621L975.865 261.975C979.105 258.194 980.779 253.037 979.861 247.556C978.592 240.049 972.328 234.055 964.767 233.137C953.345 231.733 943.733 241.345 945.137 252.767C946.055 260.328 952.049 266.592 959.556 267.861C965.037 268.779 970.194 267.105 973.975 263.865L974.704 264.621V266.754L986.179 278.23C987.286 279.337 989.096 279.337 990.203 278.23C991.31 277.123 991.31 275.313 990.203 274.206L978.754 262.704ZM962.553 262.704C955.829 262.704 950.402 257.276 950.402 250.553C950.402 243.829 955.829 238.402 962.553 238.402C969.276 238.402 974.704 243.829 974.704 250.553C974.704 257.276 969.276 262.704 962.553 262.704Z" fill="#666666"/>
<g clip-path="url(#clip11_825_4148)">
<path d="M128.501 47.3823L122.317 53.5059C119.235 51.0192 115.378 49.6663 111.403 49.677C107.427 49.6878 103.578 51.0616 100.509 53.5649L94.333 47.4486C99.0524 43.3379 105.119 41.065 111.404 41.0528C117.689 41.0406 123.765 43.2899 128.501 47.3823V47.3823Z" fill="black"/>
<path d="M98.1377 77.4444L91.9616 83.5606C87.8483 78.8998 85.5753 72.9235 85.5616 66.7336C85.5479 60.5436 87.7945 54.5575 91.8871 49.8789L98.0782 55.9951C95.606 59.0343 94.2629 62.8221 94.2738 66.7247C94.2846 70.6272 95.6487 74.4077 98.1377 77.4333V77.4444Z" fill="black"/>
<path d="M128.419 86.0557C123.695 90.1072 117.652 92.3318 111.402 92.3196C105.153 92.3074 99.1189 90.0592 94.4111 85.9893L100.591 79.873C103.647 82.3357 107.463 83.6852 111.403 83.6959C115.342 83.7066 119.166 82.378 122.235 79.932L128.419 86.0557Z" fill="black"/>
<path d="M41.7974 57.1178C41.5598 56.8936 41.3711 56.6235 41.243 56.3242C41.115 56.0249 41.0502 55.7027 41.0528 55.3777C41.0538 55.0608 41.1204 54.7475 41.2485 54.4571C41.3765 54.1667 41.5633 53.9053 41.7974 53.6892C42.0307 53.4507 42.3111 53.2622 42.621 53.1354C42.931 53.0085 43.2639 52.9461 43.5992 52.9519C43.932 52.9441 44.2631 53.0021 44.5731 53.1224C44.8831 53.2426 45.1658 53.4228 45.4048 53.6523C45.6399 53.8628 45.8278 54.12 45.9561 54.4071C46.0843 54.6942 46.1502 55.0048 46.1493 55.3187C46.1466 55.8151 45.9963 56.2997 45.717 56.7119C45.4378 57.1242 45.0421 57.4458 44.5793 57.6365C44.1166 57.8273 43.6073 57.8788 43.1152 57.7846C42.623 57.6904 42.1699 57.4546 41.8123 57.1068L41.7974 57.1178ZM41.8458 63.3852H45.3005V88.8051H41.8383L41.8458 63.3852Z" fill="#583BA8"/>
<path d="M75.7043 65.9783C77.6079 67.829 78.5584 70.524 78.5559 74.0632V88.8064H75.0826V74.4282C75.0826 71.7885 74.4162 69.7768 73.0834 68.3931C71.7507 67.0093 69.8496 66.3175 67.3801 66.3175C64.6178 66.3175 62.4325 67.1298 60.8243 68.7544C59.216 70.379 58.4107 72.6242 58.4082 75.49V88.8064H54.9795V63.3939H58.2928V68.076C59.2256 66.5348 60.5794 65.2862 62.198 64.4741C64.004 63.5947 65.9972 63.1585 68.0093 63.2022C71.2357 63.2022 73.8007 64.1276 75.7043 65.9783Z" fill="#583BA8"/>
<path d="M133.974 54.0156H142.964V88.8071H133.974V54.0156Z" fill="black"/>
<path d="M149.304 59.2164C148.827 58.7906 148.446 58.2702 148.185 57.6891C147.924 57.108 147.789 56.4791 147.789 55.8431C147.789 55.2071 147.924 54.5782 148.185 53.9971C148.446 53.416 148.827 52.8957 149.304 52.4698C150.312 51.5628 151.637 51.1094 153.28 51.1094C154.923 51.1094 156.249 51.5395 157.256 52.3997C157.746 52.8031 158.136 53.3114 158.398 53.8863C158.66 54.4611 158.786 55.0874 158.768 55.7178C158.785 56.3732 158.659 57.0246 158.398 57.6273C158.137 58.2299 157.747 58.7695 157.256 59.2091C156.244 60.1307 154.918 60.5916 153.28 60.5916C151.642 60.5916 150.317 60.1332 149.304 59.2164ZM148.794 63.3898H157.789V88.8059H148.794V63.3898Z" fill="black"/>
<path d="M187.991 65.7784C189.929 67.6537 190.899 70.4802 190.899 74.2578V88.8055H181.927V75.714C181.927 72.2461 180.523 70.5121 177.716 70.5121C177.023 70.482 176.332 70.6005 175.689 70.8595C175.047 71.1185 174.468 71.5118 173.993 72.0126C173.063 73.0105 172.597 74.5097 172.597 76.5104V88.8055H163.596V63.3894H172.158V66.1544C173.172 65.1191 174.398 64.3119 175.754 63.7876C177.202 63.2294 178.743 62.9503 180.296 62.9654C183.485 62.9654 186.05 63.9031 187.991 65.7784Z" fill="black"/>
<path d="M197.052 59.2164C196.575 58.7906 196.194 58.2702 195.933 57.6891C195.672 57.108 195.537 56.4791 195.537 55.8431C195.537 55.2071 195.672 54.5782 195.933 53.9971C196.194 53.416 196.575 52.8957 197.052 52.4698C198.06 51.5628 199.385 51.1094 201.028 51.1094C202.671 51.1094 203.998 51.5395 205.008 52.3997C205.499 52.8024 205.89 53.3105 206.153 53.8854C206.415 54.4604 206.542 55.087 206.523 55.7178C206.538 56.3711 206.411 57.02 206.149 57.62C205.888 58.22 205.498 58.757 205.008 59.1943C203.998 60.116 202.674 60.5768 201.036 60.5768C199.398 60.5768 198.07 60.1234 197.052 59.2164ZM196.531 63.3898H205.522V88.8059H196.531V63.3898Z" fill="black"/>
<path d="M216.832 87.5225C214.667 86.4755 212.843 84.8475 211.567 82.824C210.291 80.8005 209.614 78.4627 209.614 76.0771C209.614 73.6914 210.291 71.3537 211.567 69.3302C212.843 67.3066 214.667 65.6787 216.832 64.6317C219.205 63.4917 221.815 62.9209 224.452 62.9653C227.356 62.9653 229.864 63.5798 231.976 64.8087C234.02 65.9643 235.606 67.774 236.473 69.9405L229.515 73.4577C228.346 71.1768 226.643 70.0364 224.404 70.0364C223.663 70.0146 222.925 70.1448 222.237 70.4189C221.549 70.693 220.925 71.105 220.406 71.6291C219.348 72.6908 218.82 74.1594 218.82 76.0347C218.82 77.91 219.348 79.4019 220.406 80.5103C220.922 81.0402 221.544 81.4575 222.233 81.7356C222.921 82.0137 223.661 82.1463 224.404 82.1251C226.638 82.1251 228.341 80.9847 229.515 78.7039L236.473 82.221C235.606 84.3875 234.02 86.1973 231.976 87.3529C229.861 88.5818 227.354 89.1962 224.452 89.1962C221.814 89.2452 219.202 88.6715 216.832 87.5225V87.5225Z" fill="black"/>
<path d="M245.036 87.5239C243.45 86.7013 242.05 85.5666 240.922 84.1894C239.795 82.8122 238.963 81.2214 238.477 79.5146C237.992 77.8078 237.864 76.0208 238.101 74.2632C238.338 72.5056 238.934 70.8144 239.854 69.2932C241.101 67.2936 242.889 65.6794 245.014 64.6332C247.346 63.536 249.896 62.9668 252.478 62.9668C255.06 62.9668 257.61 63.536 259.942 64.6332C262.07 65.6643 263.859 67.271 265.102 69.2673C266.311 71.3275 266.948 73.6679 266.948 76.0509C266.948 78.4338 266.311 80.7743 265.102 82.8344C263.861 84.8457 262.073 86.4698 259.942 87.5202C257.62 88.6304 255.075 89.207 252.497 89.207C249.918 89.207 247.373 88.6304 245.051 87.5202L245.036 87.5239ZM256.346 80.5192C257.359 79.4377 257.864 77.9459 257.861 76.0435C257.859 74.1412 257.354 72.6726 256.346 71.6379C255.837 71.1332 255.232 70.7327 254.566 70.4596C253.901 70.1864 253.187 70.0457 252.467 70.0457C251.746 70.0457 251.033 70.1864 250.367 70.4596C249.702 70.7327 249.097 71.1332 248.588 71.6379C247.58 72.6997 247.076 74.1682 247.076 76.0435C247.076 77.9188 247.581 79.4107 248.591 80.5192C249.097 81.0306 249.7 81.437 250.367 81.7144C251.033 81.9918 251.748 82.1347 252.471 82.1347C253.193 82.1347 253.909 81.9918 254.575 81.7144C255.241 81.437 255.844 81.0306 256.35 80.5192H256.346Z" fill="black"/>
<path d="M111.418 79.9876C108.767 79.9876 106.176 79.2092 103.972 77.7509C101.768 76.2925 100.05 74.2197 99.0358 71.7945C98.0214 69.3694 97.756 66.7008 98.2731 64.1262C98.7903 61.5517 100.067 59.1868 101.941 57.3307C103.815 55.4745 106.203 54.2105 108.803 53.6984C111.403 53.1863 114.098 53.4491 116.546 54.4536C118.995 55.4582 121.088 57.1593 122.561 59.3419C124.034 61.5245 124.82 64.0905 124.82 66.7155C124.82 70.2355 123.408 73.6113 120.894 76.1003C118.381 78.5893 114.972 79.9876 111.418 79.9876ZM111.418 56.7614C109.43 56.7614 107.486 57.3452 105.833 58.439C104.18 59.5327 102.892 61.0874 102.131 62.9062C101.37 64.7251 101.171 66.7265 101.559 68.6574C101.947 70.5884 102.904 72.362 104.31 73.7541C105.716 75.1462 107.507 76.0943 109.457 76.4783C111.407 76.8624 113.428 76.6653 115.264 75.9119C117.101 75.1585 118.671 73.8826 119.775 72.2457C120.88 70.6088 121.469 68.6842 121.469 66.7155C121.468 64.0761 120.409 61.5452 118.524 59.6793C116.639 57.8133 114.083 56.7651 111.418 56.7651V56.7614Z" fill="#583BA8"/>
<path d="M119.272 66.7186H116.863C116.861 65.2887 116.287 63.918 115.266 62.9069C114.245 61.8958 112.861 61.3269 111.417 61.325V58.9434C113.499 58.9463 115.494 59.7663 116.967 61.2237C118.439 62.6811 119.268 64.657 119.272 66.7186V66.7186Z" fill="#583BA8"/>
<path d="M111.546 1V41.0524" stroke="black" stroke-dasharray="5 5"/>
<path d="M111.546 92.3203V132.373" stroke="black" stroke-dasharray="5 5"/>
<path d="M41.0527 76.2988L1.00038 76.2988" stroke="black" stroke-dasharray="5 5"/>
<path d="M307.002 76.2988L266.95 76.2988" stroke="black" stroke-dasharray="5 5"/>
</g>
<rect x="1" y="1" width="306" height="131.372" stroke="black" stroke-dasharray="5 5"/>
<defs>
<clipPath id="clip0_825_4148">
<rect width="46.06" height="46.06" fill="white" transform="translate(852 5)"/>
</clipPath>
<clipPath id="clip1_825_4148">
<rect width="46.06" height="46.06" fill="white" transform="translate(945 5)"/>
</clipPath>
<clipPath id="clip2_825_4148">
<rect width="46.06" height="46.06" fill="white" transform="translate(1131 5)"/>
</clipPath>
<clipPath id="clip3_825_4148">
<rect width="46.06" height="46.06" fill="white" transform="translate(852 81)"/>
</clipPath>
<clipPath id="clip4_825_4148">
<rect width="46.06" height="46.06" fill="white" transform="translate(945 81)"/>
</clipPath>
<clipPath id="clip5_825_4148">
<rect width="46.06" height="46.06" fill="white" transform="translate(1038 81)"/>
</clipPath>
<clipPath id="clip6_825_4148">
<rect width="46.06" height="46.06" fill="white" transform="translate(1131 81)"/>
</clipPath>
<clipPath id="clip7_825_4148">
<rect width="46.06" height="46.06" fill="white" transform="translate(852 157)"/>
</clipPath>
<clipPath id="clip8_825_4148">
<rect width="46.06" height="46.06" fill="white" transform="translate(945 157)"/>
</clipPath>
<clipPath id="clip9_825_4148">
<rect width="46.06" height="46.06" fill="white" transform="translate(1038 157)"/>
</clipPath>
<clipPath id="clip10_825_4148">
<rect width="46.06" height="46.06" fill="white" transform="translate(1131 157)"/>
</clipPath>
<clipPath id="clip11_825_4148">
<rect x="1" y="1" width="306" height="131.372" fill="white"/>
</clipPath>
</defs>
</svg>
