<svg width="1179" height="116" viewBox="0 0 1179 116" fill="none" xmlns="http://www.w3.org/2000/svg">
<rect y="1" width="115" height="115" rx="25" fill="#583BA8"/>
<path d="M26.2837 62.1831L26.9209 59.063H25.6831V57.9717H27.1406L27.6826 55.313H25.6831V54.2217H27.9023L28.5395 51.0796H29.6382L29.001 54.2217H31.3081L31.9453 51.0796H33.0513L32.414 54.2217H33.6811V55.313H32.1943L31.645 57.9717H33.6811V59.063H31.4253L30.7881 62.1831H29.6894L30.3193 59.063H28.0195L27.3823 62.1831H26.2837ZM28.2392 57.9717H30.539L31.0884 55.313H28.7812L28.2392 57.9717ZM34.8014 59.1875L36.1857 59.0703C36.2883 59.7441 36.5251 60.252 36.8962 60.5938C37.2722 60.9307 37.7238 61.0991 38.2512 61.0991C38.8859 61.0991 39.423 60.8599 39.8625 60.3813C40.3019 59.9028 40.5217 59.2681 40.5217 58.4771C40.5217 57.7251 40.3093 57.1318 39.8845 56.6973C39.4645 56.2627 38.9128 56.0454 38.2292 56.0454C37.8044 56.0454 37.4211 56.1431 37.0793 56.3384C36.7375 56.5288 36.4689 56.7778 36.2736 57.0854L35.0358 56.9243L36.0759 51.4092H41.4152V52.6689H37.1305L36.5519 55.5547C37.1965 55.1055 37.8727 54.8809 38.5807 54.8809C39.5182 54.8809 40.3093 55.2056 40.9538 55.855C41.5983 56.5044 41.9206 57.3394 41.9206 58.3599C41.9206 59.3315 41.6374 60.1714 41.071 60.8794C40.3825 61.7485 39.4426 62.1831 38.2512 62.1831C37.2746 62.1831 36.4763 61.9097 35.8561 61.3628C35.2409 60.8159 34.8893 60.0908 34.8014 59.1875ZM45.4799 56.1772C44.933 55.9771 44.5277 55.6914 44.264 55.3203C44.0004 54.9492 43.8685 54.5049 43.8685 53.9873C43.8685 53.2061 44.1493 52.5493 44.7108 52.0171C45.2723 51.4849 46.0194 51.2188 46.952 51.2188C47.8895 51.2188 48.6439 51.4922 49.2152 52.0391C49.7865 52.5811 50.0722 53.2427 50.0722 54.0239C50.0722 54.522 49.9403 54.9565 49.6766 55.3276C49.4179 55.6938 49.0223 55.9771 48.4901 56.1772C49.1493 56.3921 49.6498 56.7388 49.9916 57.2173C50.3383 57.6958 50.5116 58.2671 50.5116 58.9312C50.5116 59.8491 50.1869 60.6206 49.5375 61.2456C48.8881 61.8706 48.0336 62.1831 46.974 62.1831C45.9144 62.1831 45.0599 61.8706 44.4105 61.2456C43.7611 60.6157 43.4364 59.832 43.4364 58.8945C43.4364 58.1963 43.6122 57.6128 43.9638 57.144C44.3202 56.6704 44.8256 56.3481 45.4799 56.1772ZM45.2162 53.9434C45.2162 54.4512 45.3798 54.8662 45.7069 55.1885C46.0341 55.5107 46.4589 55.6719 46.9813 55.6719C47.4891 55.6719 47.9042 55.5132 48.2264 55.1958C48.5536 54.8735 48.7172 54.4805 48.7172 54.0166C48.7172 53.5332 48.5487 53.1279 48.2118 52.8008C47.8798 52.4688 47.4647 52.3027 46.9667 52.3027C46.4638 52.3027 46.0463 52.4639 45.7142 52.7861C45.3822 53.1084 45.2162 53.4941 45.2162 53.9434ZM44.7914 58.9019C44.7914 59.2778 44.8793 59.6416 45.0551 59.9932C45.2357 60.3447 45.5018 60.6182 45.8534 60.8135C46.205 61.0039 46.5834 61.0991 46.9887 61.0991C47.6185 61.0991 48.1386 60.8965 48.5487 60.4912C48.9589 60.0859 49.1639 59.5708 49.1639 58.9458C49.1639 58.311 48.9515 57.7861 48.5267 57.3711C48.1068 56.9561 47.5795 56.7485 46.9447 56.7485C46.3246 56.7485 45.8095 56.9536 45.3993 57.3638C44.994 57.7739 44.7914 58.2866 44.7914 58.9019ZM52.108 59.1655L53.4263 58.9897C53.5777 59.7368 53.8341 60.2764 54.1954 60.6084C54.5616 60.9355 55.0059 61.0991 55.5284 61.0991C56.1485 61.0991 56.671 60.8843 57.0958 60.4546C57.5255 60.0249 57.7403 59.4927 57.7403 58.8579C57.7403 58.2524 57.5426 57.7544 57.1471 57.3638C56.7515 56.9683 56.2486 56.7705 55.6383 56.7705C55.3892 56.7705 55.0792 56.8193 54.7081 56.917L54.8546 55.7598C54.9425 55.7695 55.0133 55.7744 55.067 55.7744C55.6285 55.7744 56.1339 55.6279 56.5831 55.335C57.0323 55.042 57.2569 54.5903 57.2569 53.98C57.2569 53.4966 57.0933 53.0962 56.7662 52.7788C56.439 52.4614 56.0167 52.3027 55.4991 52.3027C54.9864 52.3027 54.5592 52.4639 54.2174 52.7861C53.8756 53.1084 53.6558 53.5918 53.5582 54.2363L52.2398 54.002C52.401 53.1182 52.7672 52.4346 53.3385 51.9512C53.9097 51.4629 54.6202 51.2188 55.4698 51.2188C56.0557 51.2188 56.5953 51.3457 57.0885 51.5996C57.5816 51.8486 57.9576 52.1904 58.2164 52.625C58.4801 53.0596 58.6119 53.521 58.6119 54.0093C58.6119 54.4731 58.4874 54.8955 58.2384 55.2764C57.9893 55.6572 57.6207 55.96 57.1324 56.1846C57.7672 56.3311 58.2603 56.6362 58.6119 57.1001C58.9635 57.5591 59.1392 58.1353 59.1392 58.8286C59.1392 59.7661 58.7974 60.562 58.1138 61.2163C57.4303 61.8657 56.566 62.1904 55.5211 62.1904C54.5787 62.1904 53.795 61.9097 53.17 61.3481C52.5499 60.7866 52.1959 60.0591 52.108 59.1655ZM61.2263 62V51.2627H65.2547C66.075 51.2627 66.7317 51.3726 67.2249 51.5923C67.7229 51.8071 68.1111 52.1416 68.3894 52.5957C68.6726 53.0449 68.8142 53.5161 68.8142 54.0093C68.8142 54.4683 68.6897 54.9004 68.4407 55.3057C68.1917 55.7109 67.8157 56.0381 67.3128 56.2871C67.9622 56.4775 68.4602 56.8022 68.8069 57.2612C69.1585 57.7202 69.3343 58.2622 69.3343 58.8872C69.3343 59.3901 69.2268 59.8589 69.012 60.2935C68.802 60.7231 68.5408 61.0552 68.2283 61.2896C67.9158 61.5239 67.5227 61.7021 67.0491 61.8242C66.5804 61.9414 66.0042 62 65.3206 62H61.2263ZM62.6472 55.7744H64.969C65.5989 55.7744 66.0506 55.7329 66.324 55.6499C66.6853 55.5425 66.9563 55.3643 67.137 55.1152C67.3225 54.8662 67.4153 54.5537 67.4153 54.1777C67.4153 53.8213 67.3299 53.5088 67.159 53.2402C66.9881 52.9668 66.7439 52.7812 66.4265 52.6836C66.1092 52.5811 65.5647 52.5298 64.7932 52.5298H62.6472V55.7744ZM62.6472 60.7329H65.3206C65.7796 60.7329 66.1018 60.7158 66.2874 60.6816C66.6145 60.623 66.888 60.5254 67.1077 60.3887C67.3274 60.252 67.5081 60.0542 67.6497 59.7954C67.7913 59.5317 67.8621 59.229 67.8621 58.8872C67.8621 58.4868 67.7596 58.1401 67.5545 57.8472C67.3494 57.5493 67.0638 57.3418 66.6975 57.2246C66.3362 57.1025 65.8138 57.0415 65.1302 57.0415H62.6472V60.7329ZM70.4106 62L74.5342 51.2627H76.0649L80.4595 62H78.8408L77.5884 58.748H73.0986L71.9194 62H70.4106ZM73.5088 57.5908H77.1489L76.0283 54.6172C75.6865 53.7139 75.4326 52.9717 75.2666 52.3906C75.1299 53.0791 74.937 53.7627 74.688 54.4414L73.5088 57.5908ZM83.3888 56.1772C82.842 55.9771 82.4367 55.6914 82.173 55.3203C81.9094 54.9492 81.7775 54.5049 81.7775 53.9873C81.7775 53.2061 82.0583 52.5493 82.6198 52.0171C83.1813 51.4849 83.9284 51.2188 84.861 51.2188C85.7985 51.2188 86.5529 51.4922 87.1242 52.0391C87.6955 52.5811 87.9811 53.2427 87.9811 54.0239C87.9811 54.522 87.8493 54.9565 87.5856 55.3276C87.3268 55.6938 86.9313 55.9771 86.3991 56.1772C87.0583 56.3921 87.5588 56.7388 87.9006 57.2173C88.2472 57.6958 88.4206 58.2671 88.4206 58.9312C88.4206 59.8491 88.0959 60.6206 87.4465 61.2456C86.7971 61.8706 85.9426 62.1831 84.883 62.1831C83.8234 62.1831 82.9689 61.8706 82.3195 61.2456C81.6701 60.6157 81.3454 59.832 81.3454 58.8945C81.3454 58.1963 81.5212 57.6128 81.8727 57.144C82.2292 56.6704 82.7346 56.3481 83.3888 56.1772ZM83.1252 53.9434C83.1252 54.4512 83.2887 54.8662 83.6159 55.1885C83.943 55.5107 84.3679 55.6719 84.8903 55.6719C85.3981 55.6719 85.8132 55.5132 86.1354 55.1958C86.4626 54.8735 86.6262 54.4805 86.6262 54.0166C86.6262 53.5332 86.4577 53.1279 86.1208 52.8008C85.7887 52.4688 85.3737 52.3027 84.8757 52.3027C84.3727 52.3027 83.9553 52.4639 83.6232 52.7861C83.2912 53.1084 83.1252 53.4941 83.1252 53.9434ZM82.7004 58.9019C82.7004 59.2778 82.7883 59.6416 82.964 59.9932C83.1447 60.3447 83.4108 60.6182 83.7624 60.8135C84.1139 61.0039 84.4924 61.0991 84.8976 61.0991C85.5275 61.0991 86.0475 60.8965 86.4577 60.4912C86.8679 60.0859 87.0729 59.5708 87.0729 58.9458C87.0729 58.311 86.8605 57.7861 86.4357 57.3711C86.0158 56.9561 85.4885 56.7485 84.8537 56.7485C84.2336 56.7485 83.7184 56.9536 83.3083 57.3638C82.903 57.7739 82.7004 58.2866 82.7004 58.9019Z" fill="white"/>
<rect x="608" width="115" height="115" rx="25" fill="black"/>
<path d="M635.939 61.1831L636.576 58.063H635.338V56.9717H636.796L637.338 54.313H635.338V53.2217H637.558L638.195 50.0796H639.293L638.656 53.2217H640.963L641.601 50.0796H642.707L642.069 53.2217H643.336V54.313H641.85L641.3 56.9717H643.336V58.063H641.081L640.443 61.1831H639.345L639.975 58.063H637.675L637.038 61.1831H635.939ZM637.895 56.9717H640.194L640.744 54.313H638.437L637.895 56.9717ZM644.457 55.7046C644.457 54.4351 644.586 53.4146 644.845 52.6431C645.109 51.8667 645.497 51.2686 646.009 50.8486C646.527 50.4287 647.176 50.2188 647.958 50.2188C648.534 50.2188 649.039 50.3359 649.474 50.5703C649.908 50.7998 650.267 51.1343 650.55 51.5737C650.834 52.0083 651.056 52.5405 651.217 53.1704C651.378 53.7954 651.459 54.6401 651.459 55.7046C651.459 56.9644 651.329 57.9824 651.07 58.7588C650.812 59.5303 650.424 60.1284 649.906 60.5532C649.393 60.9731 648.744 61.1831 647.958 61.1831C646.923 61.1831 646.11 60.812 645.519 60.0698C644.811 59.1763 644.457 57.7212 644.457 55.7046ZM645.812 55.7046C645.812 57.4673 646.017 58.6416 646.427 59.2275C646.842 59.8086 647.352 60.0991 647.958 60.0991C648.563 60.0991 649.071 59.8062 649.481 59.2202C649.896 58.6343 650.104 57.4624 650.104 55.7046C650.104 53.937 649.896 52.7627 649.481 52.1816C649.071 51.6006 648.558 51.3101 647.943 51.3101C647.338 51.3101 646.854 51.5664 646.493 52.0791C646.039 52.7334 645.812 53.9419 645.812 55.7046ZM653.106 55.7046C653.106 54.4351 653.236 53.4146 653.495 52.6431C653.758 51.8667 654.146 51.2686 654.659 50.8486C655.177 50.4287 655.826 50.2188 656.607 50.2188C657.183 50.2188 657.689 50.3359 658.123 50.5703C658.558 50.7998 658.917 51.1343 659.2 51.5737C659.483 52.0083 659.705 52.5405 659.867 53.1704C660.028 53.7954 660.108 54.6401 660.108 55.7046C660.108 56.9644 659.979 57.9824 659.72 58.7588C659.461 59.5303 659.073 60.1284 658.556 60.5532C658.043 60.9731 657.393 61.1831 656.607 61.1831C655.572 61.1831 654.759 60.812 654.168 60.0698C653.46 59.1763 653.106 57.7212 653.106 55.7046ZM654.461 55.7046C654.461 57.4673 654.666 58.6416 655.077 59.2275C655.492 59.8086 656.002 60.0991 656.607 60.0991C657.213 60.0991 657.721 59.8062 658.131 59.2202C658.546 58.6343 658.753 57.4624 658.753 55.7046C658.753 53.937 658.546 52.7627 658.131 52.1816C657.721 51.6006 657.208 51.3101 656.593 51.3101C655.987 51.3101 655.504 51.5664 655.142 52.0791C654.688 52.7334 654.461 53.9419 654.461 55.7046ZM661.756 55.7046C661.756 54.4351 661.885 53.4146 662.144 52.6431C662.408 51.8667 662.796 51.2686 663.309 50.8486C663.826 50.4287 664.476 50.2188 665.257 50.2188C665.833 50.2188 666.338 50.3359 666.773 50.5703C667.208 50.7998 667.566 51.1343 667.85 51.5737C668.133 52.0083 668.355 52.5405 668.516 53.1704C668.677 53.7954 668.758 54.6401 668.758 55.7046C668.758 56.9644 668.628 57.9824 668.37 58.7588C668.111 59.5303 667.723 60.1284 667.205 60.5532C666.692 60.9731 666.043 61.1831 665.257 61.1831C664.222 61.1831 663.409 60.812 662.818 60.0698C662.11 59.1763 661.756 57.7212 661.756 55.7046ZM663.111 55.7046C663.111 57.4673 663.316 58.6416 663.726 59.2275C664.141 59.8086 664.651 60.0991 665.257 60.0991C665.862 60.0991 666.37 59.8062 666.78 59.2202C667.195 58.6343 667.403 57.4624 667.403 55.7046C667.403 53.937 667.195 52.7627 666.78 52.1816C666.37 51.6006 665.858 51.3101 665.242 51.3101C664.637 51.3101 664.153 51.5664 663.792 52.0791C663.338 52.7334 663.111 53.9419 663.111 55.7046ZM670.406 55.7046C670.406 54.4351 670.535 53.4146 670.794 52.6431C671.057 51.8667 671.446 51.2686 671.958 50.8486C672.476 50.4287 673.125 50.2188 673.907 50.2188C674.483 50.2188 674.988 50.3359 675.423 50.5703C675.857 50.7998 676.216 51.1343 676.499 51.5737C676.783 52.0083 677.005 52.5405 677.166 53.1704C677.327 53.7954 677.408 54.6401 677.408 55.7046C677.408 56.9644 677.278 57.9824 677.019 58.7588C676.761 59.5303 676.372 60.1284 675.855 60.5532C675.342 60.9731 674.693 61.1831 673.907 61.1831C672.871 61.1831 672.058 60.812 671.468 60.0698C670.76 59.1763 670.406 57.7212 670.406 55.7046ZM671.761 55.7046C671.761 57.4673 671.966 58.6416 672.376 59.2275C672.791 59.8086 673.301 60.0991 673.907 60.0991C674.512 60.0991 675.02 59.8062 675.43 59.2202C675.845 58.6343 676.053 57.4624 676.053 55.7046C676.053 53.937 675.845 52.7627 675.43 52.1816C675.02 51.6006 674.507 51.3101 673.892 51.3101C673.286 51.3101 672.803 51.5664 672.442 52.0791C671.988 52.7334 671.761 53.9419 671.761 55.7046ZM679.055 55.7046C679.055 54.4351 679.185 53.4146 679.443 52.6431C679.707 51.8667 680.095 51.2686 680.608 50.8486C681.125 50.4287 681.775 50.2188 682.556 50.2188C683.132 50.2188 683.638 50.3359 684.072 50.5703C684.507 50.7998 684.866 51.1343 685.149 51.5737C685.432 52.0083 685.654 52.5405 685.815 53.1704C685.977 53.7954 686.057 54.6401 686.057 55.7046C686.057 56.9644 685.928 57.9824 685.669 58.7588C685.41 59.5303 685.022 60.1284 684.504 60.5532C683.992 60.9731 683.342 61.1831 682.556 61.1831C681.521 61.1831 680.708 60.812 680.117 60.0698C679.409 59.1763 679.055 57.7212 679.055 55.7046ZM680.41 55.7046C680.41 57.4673 680.615 58.6416 681.025 59.2275C681.44 59.8086 681.951 60.0991 682.556 60.0991C683.162 60.0991 683.669 59.8062 684.08 59.2202C684.495 58.6343 684.702 57.4624 684.702 55.7046C684.702 53.937 684.495 52.7627 684.08 52.1816C683.669 51.6006 683.157 51.3101 682.541 51.3101C681.936 51.3101 681.453 51.5664 681.091 52.0791C680.637 52.7334 680.41 53.9419 680.41 55.7046ZM687.705 55.7046C687.705 54.4351 687.834 53.4146 688.093 52.6431C688.357 51.8667 688.745 51.2686 689.257 50.8486C689.775 50.4287 690.424 50.2188 691.206 50.2188C691.782 50.2188 692.287 50.3359 692.722 50.5703C693.156 50.7998 693.515 51.1343 693.799 51.5737C694.082 52.0083 694.304 52.5405 694.465 53.1704C694.626 53.7954 694.707 54.6401 694.707 55.7046C694.707 56.9644 694.577 57.9824 694.319 58.7588C694.06 59.5303 693.672 60.1284 693.154 60.5532C692.641 60.9731 691.992 61.1831 691.206 61.1831C690.171 61.1831 689.358 60.812 688.767 60.0698C688.059 59.1763 687.705 57.7212 687.705 55.7046ZM689.06 55.7046C689.06 57.4673 689.265 58.6416 689.675 59.2275C690.09 59.8086 690.6 60.0991 691.206 60.0991C691.811 60.0991 692.319 59.8062 692.729 59.2202C693.144 58.6343 693.352 57.4624 693.352 55.7046C693.352 53.937 693.144 52.7627 692.729 52.1816C692.319 51.6006 691.806 51.3101 691.191 51.3101C690.586 51.3101 690.102 51.5664 689.741 52.0791C689.287 52.7334 689.06 53.9419 689.06 55.7046Z" fill="white"/>
<rect x="760" width="115" height="115" rx="25" fill="#666666"/>
<path d="M787.939 61.1831L788.576 58.063H787.338V56.9717H788.796L789.338 54.313H787.338V53.2217H789.558L790.195 50.0796H791.293L790.656 53.2217H792.963L793.601 50.0796H794.707L794.069 53.2217H795.336V54.313H793.85L793.3 56.9717H795.336V58.063H793.081L792.443 61.1831H791.345L791.975 58.063H789.675L789.038 61.1831H787.939ZM789.895 56.9717H792.194L792.744 54.313H790.437L789.895 56.9717ZM803.298 52.8921L801.987 52.9946C801.869 52.4771 801.703 52.1011 801.488 51.8667C801.132 51.4907 800.693 51.3027 800.17 51.3027C799.75 51.3027 799.382 51.4199 799.064 51.6543C798.649 51.957 798.322 52.3989 798.083 52.98C797.843 53.561 797.719 54.3887 797.709 55.4629C798.027 54.9795 798.415 54.6206 798.874 54.3862C799.333 54.1519 799.814 54.0347 800.317 54.0347C801.195 54.0347 801.943 54.3594 802.558 55.0088C803.178 55.6533 803.488 56.4883 803.488 57.5137C803.488 58.1875 803.341 58.8149 803.049 59.396C802.76 59.9722 802.362 60.4141 801.855 60.7217C801.347 61.0293 800.771 61.1831 800.126 61.1831C799.028 61.1831 798.132 60.7803 797.438 59.9746C796.745 59.1641 796.398 57.8311 796.398 55.9756C796.398 53.9004 796.781 52.3916 797.548 51.4492C798.217 50.6289 799.118 50.2188 800.251 50.2188C801.095 50.2188 801.786 50.4556 802.323 50.9292C802.865 51.4028 803.19 52.0571 803.298 52.8921ZM797.914 57.521C797.914 57.9751 798.009 58.4097 798.2 58.8247C798.395 59.2397 798.666 59.5571 799.013 59.7769C799.36 59.9917 799.723 60.0991 800.104 60.0991C800.661 60.0991 801.139 59.8745 801.54 59.4253C801.94 58.9761 802.14 58.3657 802.14 57.5942C802.14 56.8521 801.943 56.2686 801.547 55.8438C801.152 55.4141 800.653 55.1992 800.053 55.1992C799.457 55.1992 798.952 55.4141 798.537 55.8438C798.122 56.2686 797.914 56.8276 797.914 57.521ZM811.947 52.8921L810.636 52.9946C810.519 52.4771 810.353 52.1011 810.138 51.8667C809.782 51.4907 809.342 51.3027 808.82 51.3027C808.4 51.3027 808.031 51.4199 807.714 51.6543C807.299 51.957 806.972 52.3989 806.732 52.98C806.493 53.561 806.369 54.3887 806.359 55.4629C806.676 54.9795 807.064 54.6206 807.523 54.3862C807.982 54.1519 808.463 54.0347 808.966 54.0347C809.845 54.0347 810.592 54.3594 811.207 55.0088C811.828 55.6533 812.138 56.4883 812.138 57.5137C812.138 58.1875 811.991 58.8149 811.698 59.396C811.41 59.9722 811.012 60.4141 810.504 60.7217C809.996 61.0293 809.42 61.1831 808.776 61.1831C807.677 61.1831 806.781 60.7803 806.088 59.9746C805.394 59.1641 805.048 57.8311 805.048 55.9756C805.048 53.9004 805.431 52.3916 806.198 51.4492C806.867 50.6289 807.767 50.2188 808.9 50.2188C809.745 50.2188 810.436 50.4556 810.973 50.9292C811.515 51.4028 811.84 52.0571 811.947 52.8921ZM806.564 57.521C806.564 57.9751 806.659 58.4097 806.849 58.8247C807.045 59.2397 807.316 59.5571 807.662 59.7769C808.009 59.9917 808.373 60.0991 808.754 60.0991C809.31 60.0991 809.789 59.8745 810.189 59.4253C810.59 58.9761 810.79 58.3657 810.79 57.5942C810.79 56.8521 810.592 56.2686 810.197 55.8438C809.801 55.4141 809.303 55.1992 808.703 55.1992C808.107 55.1992 807.601 55.4141 807.186 55.8438C806.771 56.2686 806.564 56.8276 806.564 57.521ZM820.597 52.8921L819.286 52.9946C819.169 52.4771 819.003 52.1011 818.788 51.8667C818.431 51.4907 817.992 51.3027 817.469 51.3027C817.049 51.3027 816.681 51.4199 816.363 51.6543C815.948 51.957 815.621 52.3989 815.382 52.98C815.143 53.561 815.018 54.3887 815.008 55.4629C815.326 54.9795 815.714 54.6206 816.173 54.3862C816.632 54.1519 817.113 54.0347 817.616 54.0347C818.495 54.0347 819.242 54.3594 819.857 55.0088C820.477 55.6533 820.787 56.4883 820.787 57.5137C820.787 58.1875 820.641 58.8149 820.348 59.396C820.06 59.9722 819.662 60.4141 819.154 60.7217C818.646 61.0293 818.07 61.1831 817.425 61.1831C816.327 61.1831 815.431 60.7803 814.737 59.9746C814.044 59.1641 813.697 57.8311 813.697 55.9756C813.697 53.9004 814.081 52.3916 814.847 51.4492C815.516 50.6289 816.417 50.2188 817.55 50.2188C818.395 50.2188 819.086 50.4556 819.623 50.9292C820.165 51.4028 820.489 52.0571 820.597 52.8921ZM815.213 57.521C815.213 57.9751 815.309 58.4097 815.499 58.8247C815.694 59.2397 815.965 59.5571 816.312 59.7769C816.659 59.9917 817.023 60.0991 817.403 60.0991C817.96 60.0991 818.439 59.8745 818.839 59.4253C819.239 58.9761 819.44 58.3657 819.44 57.5942C819.44 56.8521 819.242 56.2686 818.846 55.8438C818.451 55.4141 817.953 55.1992 817.352 55.1992C816.756 55.1992 816.251 55.4141 815.836 55.8438C815.421 56.2686 815.213 56.8276 815.213 57.521ZM829.246 52.8921L827.935 52.9946C827.818 52.4771 827.652 52.1011 827.437 51.8667C827.081 51.4907 826.641 51.3027 826.119 51.3027C825.699 51.3027 825.33 51.4199 825.013 51.6543C824.598 51.957 824.271 52.3989 824.032 52.98C823.792 53.561 823.668 54.3887 823.658 55.4629C823.975 54.9795 824.364 54.6206 824.823 54.3862C825.282 54.1519 825.762 54.0347 826.265 54.0347C827.144 54.0347 827.891 54.3594 828.507 55.0088C829.127 55.6533 829.437 56.4883 829.437 57.5137C829.437 58.1875 829.29 58.8149 828.997 59.396C828.709 59.9722 828.311 60.4141 827.803 60.7217C827.296 61.0293 826.72 61.1831 826.075 61.1831C824.976 61.1831 824.08 60.7803 823.387 59.9746C822.694 59.1641 822.347 57.8311 822.347 55.9756C822.347 53.9004 822.73 52.3916 823.497 51.4492C824.166 50.6289 825.067 50.2188 826.199 50.2188C827.044 50.2188 827.735 50.4556 828.272 50.9292C828.814 51.4028 829.139 52.0571 829.246 52.8921ZM823.863 57.521C823.863 57.9751 823.958 58.4097 824.149 58.8247C824.344 59.2397 824.615 59.5571 824.962 59.7769C825.308 59.9917 825.672 60.0991 826.053 60.0991C826.61 60.0991 827.088 59.8745 827.489 59.4253C827.889 58.9761 828.089 58.3657 828.089 57.5942C828.089 56.8521 827.891 56.2686 827.496 55.8438C827.1 55.4141 826.602 55.1992 826.002 55.1992C825.406 55.1992 824.901 55.4141 824.486 55.8438C824.071 56.2686 823.863 56.8276 823.863 57.521ZM837.896 52.8921L836.585 52.9946C836.468 52.4771 836.302 52.1011 836.087 51.8667C835.73 51.4907 835.291 51.3027 834.769 51.3027C834.349 51.3027 833.98 51.4199 833.663 51.6543C833.248 51.957 832.92 52.3989 832.681 52.98C832.442 53.561 832.317 54.3887 832.308 55.4629C832.625 54.9795 833.013 54.6206 833.472 54.3862C833.931 54.1519 834.412 54.0347 834.915 54.0347C835.794 54.0347 836.541 54.3594 837.156 55.0088C837.776 55.6533 838.086 56.4883 838.086 57.5137C838.086 58.1875 837.94 58.8149 837.647 59.396C837.359 59.9722 836.961 60.4141 836.453 60.7217C835.945 61.0293 835.369 61.1831 834.725 61.1831C833.626 61.1831 832.73 60.7803 832.037 59.9746C831.343 59.1641 830.997 57.8311 830.997 55.9756C830.997 53.9004 831.38 52.3916 832.146 51.4492C832.815 50.6289 833.716 50.2188 834.849 50.2188C835.694 50.2188 836.385 50.4556 836.922 50.9292C837.464 51.4028 837.789 52.0571 837.896 52.8921ZM832.513 57.521C832.513 57.9751 832.608 58.4097 832.798 58.8247C832.994 59.2397 833.265 59.5571 833.611 59.7769C833.958 59.9917 834.322 60.0991 834.703 60.0991C835.259 60.0991 835.738 59.8745 836.138 59.4253C836.539 58.9761 836.739 58.3657 836.739 57.5942C836.739 56.8521 836.541 56.2686 836.145 55.8438C835.75 55.4141 835.252 55.1992 834.651 55.1992C834.056 55.1992 833.55 55.4141 833.135 55.8438C832.72 56.2686 832.513 56.8276 832.513 57.521ZM846.546 52.8921L845.235 52.9946C845.117 52.4771 844.951 52.1011 844.737 51.8667C844.38 51.4907 843.941 51.3027 843.418 51.3027C842.998 51.3027 842.63 51.4199 842.312 51.6543C841.897 51.957 841.57 52.3989 841.331 52.98C841.091 53.561 840.967 54.3887 840.957 55.4629C841.275 54.9795 841.663 54.6206 842.122 54.3862C842.581 54.1519 843.062 54.0347 843.565 54.0347C844.444 54.0347 845.191 54.3594 845.806 55.0088C846.426 55.6533 846.736 56.4883 846.736 57.5137C846.736 58.1875 846.59 58.8149 846.297 59.396C846.008 59.9722 845.611 60.4141 845.103 60.7217C844.595 61.0293 844.019 61.1831 843.374 61.1831C842.276 61.1831 841.38 60.7803 840.686 59.9746C839.993 59.1641 839.646 57.8311 839.646 55.9756C839.646 53.9004 840.029 52.3916 840.796 51.4492C841.465 50.6289 842.366 50.2188 843.499 50.2188C844.343 50.2188 845.034 50.4556 845.571 50.9292C846.113 51.4028 846.438 52.0571 846.546 52.8921ZM841.162 57.521C841.162 57.9751 841.257 58.4097 841.448 58.8247C841.643 59.2397 841.914 59.5571 842.261 59.7769C842.608 59.9917 842.971 60.0991 843.352 60.0991C843.909 60.0991 844.387 59.8745 844.788 59.4253C845.188 58.9761 845.388 58.3657 845.388 57.5942C845.388 56.8521 845.191 56.2686 844.795 55.8438C844.4 55.4141 843.902 55.1992 843.301 55.1992C842.705 55.1992 842.2 55.4141 841.785 55.8438C841.37 56.2686 841.162 56.8276 841.162 57.521Z" fill="white"/>
<rect x="912" width="115" height="115" rx="25" fill="#BDBDBD"/>
<path d="M933.721 61.1831L934.358 58.063H933.12V56.9717H934.578L935.12 54.313H933.12V53.2217H935.339L935.977 50.0796H937.075L936.438 53.2217H938.745L939.382 50.0796H940.488L939.851 53.2217H941.118V54.313H939.631L939.082 56.9717H941.118V58.063H938.862L938.225 61.1831H937.126L937.756 58.063H935.457L934.819 61.1831H933.721ZM935.676 56.9717H937.976L938.525 54.313H936.218L935.676 56.9717ZM942.715 61V50.2627H946.743C947.563 50.2627 948.22 50.3726 948.713 50.5923C949.211 50.8071 949.599 51.1416 949.878 51.5957C950.161 52.0449 950.302 52.5161 950.302 53.0093C950.302 53.4683 950.178 53.9004 949.929 54.3057C949.68 54.7109 949.304 55.0381 948.801 55.2871C949.45 55.4775 949.948 55.8022 950.295 56.2612C950.647 56.7202 950.822 57.2622 950.822 57.8872C950.822 58.3901 950.715 58.8589 950.5 59.2935C950.29 59.7231 950.029 60.0552 949.716 60.2896C949.404 60.5239 949.011 60.7021 948.537 60.8242C948.069 60.9414 947.492 61 946.809 61H942.715ZM944.135 54.7744H946.457C947.087 54.7744 947.539 54.7329 947.812 54.6499C948.174 54.5425 948.445 54.3643 948.625 54.1152C948.811 53.8662 948.903 53.5537 948.903 53.1777C948.903 52.8213 948.818 52.5088 948.647 52.2402C948.476 51.9668 948.232 51.7812 947.915 51.6836C947.597 51.5811 947.053 51.5298 946.281 51.5298H944.135V54.7744ZM944.135 59.7329H946.809C947.268 59.7329 947.59 59.7158 947.776 59.6816C948.103 59.623 948.376 59.5254 948.596 59.3887C948.816 59.252 948.996 59.0542 949.138 58.7954C949.279 58.5317 949.35 58.229 949.35 57.8872C949.35 57.4868 949.248 57.1401 949.043 56.8472C948.838 56.5493 948.552 56.3418 948.186 56.2246C947.824 56.1025 947.302 56.0415 946.618 56.0415H944.135V59.7329ZM953.078 61V50.2627H956.777C957.612 50.2627 958.249 50.314 958.688 50.4165C959.304 50.5581 959.828 50.8145 960.263 51.1855C960.829 51.6641 961.252 52.2769 961.53 53.0239C961.813 53.7661 961.955 54.6157 961.955 55.5728C961.955 56.3882 961.86 57.1108 961.669 57.7407C961.479 58.3706 961.235 58.8931 960.937 59.3081C960.639 59.7183 960.312 60.043 959.955 60.2822C959.604 60.5166 959.177 60.6948 958.674 60.8169C958.176 60.939 957.602 61 956.953 61H953.078ZM954.499 59.7329H956.791C957.499 59.7329 958.054 59.667 958.454 59.5352C958.859 59.4033 959.182 59.2178 959.421 58.9785C959.758 58.6416 960.019 58.1899 960.204 57.6235C960.395 57.0522 960.49 56.3613 960.49 55.5508C960.49 54.4277 960.305 53.5659 959.933 52.9653C959.567 52.3599 959.12 51.9546 958.593 51.7495C958.212 51.603 957.599 51.5298 956.755 51.5298H954.499V59.7329ZM964.159 61V50.2627H968.188C969.008 50.2627 969.665 50.3726 970.158 50.5923C970.656 50.8071 971.044 51.1416 971.322 51.5957C971.606 52.0449 971.747 52.5161 971.747 53.0093C971.747 53.4683 971.623 53.9004 971.374 54.3057C971.125 54.7109 970.749 55.0381 970.246 55.2871C970.895 55.4775 971.393 55.8022 971.74 56.2612C972.091 56.7202 972.267 57.2622 972.267 57.8872C972.267 58.3901 972.16 58.8589 971.945 59.2935C971.735 59.7231 971.474 60.0552 971.161 60.2896C970.849 60.5239 970.456 60.7021 969.982 60.8242C969.513 60.9414 968.937 61 968.253 61H964.159ZM965.58 54.7744H967.902C968.532 54.7744 968.983 54.7329 969.257 54.6499C969.618 54.5425 969.889 54.3643 970.07 54.1152C970.255 53.8662 970.348 53.5537 970.348 53.1777C970.348 52.8213 970.263 52.5088 970.092 52.2402C969.921 51.9668 969.677 51.7812 969.359 51.6836C969.042 51.5811 968.498 51.5298 967.726 51.5298H965.58V54.7744ZM965.58 59.7329H968.253C968.712 59.7329 969.035 59.7158 969.22 59.6816C969.547 59.623 969.821 59.5254 970.041 59.3887C970.26 59.252 970.441 59.0542 970.583 58.7954C970.724 58.5317 970.795 58.229 970.795 57.8872C970.795 57.4868 970.692 57.1401 970.487 56.8472C970.282 56.5493 969.997 56.3418 969.63 56.2246C969.269 56.1025 968.747 56.0415 968.063 56.0415H965.58V59.7329ZM974.523 61V50.2627H978.221C979.056 50.2627 979.694 50.314 980.133 50.4165C980.748 50.5581 981.273 50.8145 981.708 51.1855C982.274 51.6641 982.697 52.2769 982.975 53.0239C983.258 53.7661 983.4 54.6157 983.4 55.5728C983.4 56.3882 983.304 57.1108 983.114 57.7407C982.924 58.3706 982.679 58.8931 982.382 59.3081C982.084 59.7183 981.757 60.043 981.4 60.2822C981.049 60.5166 980.621 60.6948 980.118 60.8169C979.62 60.939 979.047 61 978.397 61H974.523ZM975.944 59.7329H978.236C978.944 59.7329 979.498 59.667 979.899 59.5352C980.304 59.4033 980.626 59.2178 980.866 58.9785C981.202 58.6416 981.464 58.1899 981.649 57.6235C981.84 57.0522 981.935 56.3613 981.935 55.5508C981.935 54.4277 981.749 53.5659 981.378 52.9653C981.012 52.3599 980.565 51.9546 980.038 51.7495C979.657 51.603 979.044 51.5298 978.199 51.5298H975.944V59.7329ZM985.604 61V50.2627H989.632C990.453 50.2627 991.109 50.3726 991.603 50.5923C992.101 50.8071 992.489 51.1416 992.767 51.5957C993.05 52.0449 993.192 52.5161 993.192 53.0093C993.192 53.4683 993.067 53.9004 992.818 54.3057C992.569 54.7109 992.193 55.0381 991.69 55.2871C992.34 55.4775 992.838 55.8022 993.185 56.2612C993.536 56.7202 993.712 57.2622 993.712 57.8872C993.712 58.3901 993.604 58.8589 993.39 59.2935C993.18 59.7231 992.918 60.0552 992.606 60.2896C992.293 60.5239 991.9 60.7021 991.427 60.8242C990.958 60.9414 990.382 61 989.698 61H985.604ZM987.025 54.7744H989.347C989.977 54.7744 990.428 54.7329 990.702 54.6499C991.063 54.5425 991.334 54.3643 991.515 54.1152C991.7 53.8662 991.793 53.5537 991.793 53.1777C991.793 52.8213 991.708 52.5088 991.537 52.2402C991.366 51.9668 991.122 51.7812 990.804 51.6836C990.487 51.5811 989.942 51.5298 989.171 51.5298H987.025V54.7744ZM987.025 59.7329H989.698C990.157 59.7329 990.479 59.7158 990.665 59.6816C990.992 59.623 991.266 59.5254 991.485 59.3887C991.705 59.252 991.886 59.0542 992.027 58.7954C992.169 58.5317 992.24 58.229 992.24 57.8872C992.24 57.4868 992.137 57.1401 991.932 56.8472C991.727 56.5493 991.441 56.3418 991.075 56.2246C990.714 56.1025 990.191 56.0415 989.508 56.0415H987.025V59.7329ZM995.967 61V50.2627H999.666C1000.5 50.2627 1001.14 50.314 1001.58 50.4165C1002.19 50.5581 1002.72 50.8145 1003.15 51.1855C1003.72 51.6641 1004.14 52.2769 1004.42 53.0239C1004.7 53.7661 1004.84 54.6157 1004.84 55.5728C1004.84 56.3882 1004.75 57.1108 1004.56 57.7407C1004.37 58.3706 1004.12 58.8931 1003.83 59.3081C1003.53 59.7183 1003.2 60.043 1002.84 60.2822C1002.49 60.5166 1002.07 60.6948 1001.56 60.8169C1001.07 60.939 1000.49 61 999.842 61H995.967ZM997.388 59.7329H999.681C1000.39 59.7329 1000.94 59.667 1001.34 59.5352C1001.75 59.4033 1002.07 59.2178 1002.31 58.9785C1002.65 58.6416 1002.91 58.1899 1003.09 57.6235C1003.28 57.0522 1003.38 56.3613 1003.38 55.5508C1003.38 54.4277 1003.19 53.5659 1002.82 52.9653C1002.46 52.3599 1002.01 51.9546 1001.48 51.7495C1001.1 51.603 1000.49 51.5298 999.644 51.5298H997.388V59.7329Z" fill="white"/>
<rect x="1064" width="115" height="115" rx="25" fill="#F2F2F2"/>
<path d="M1090.71 61.1831L1091.35 58.063H1090.11V56.9717H1091.57L1092.11 54.313H1090.11V53.2217H1092.33L1092.96 50.0796H1094.06L1093.43 53.2217H1095.73L1096.37 50.0796H1097.48L1096.84 53.2217H1098.11V54.313H1096.62L1096.07 56.9717H1098.11V58.063H1095.85L1095.21 61.1831H1094.11L1094.74 58.063H1092.44L1091.81 61.1831H1090.71ZM1092.66 56.9717H1094.96L1095.51 54.313H1093.21L1092.66 56.9717ZM1099.83 61V50.2627H1107.08V51.5298H1101.26V54.855H1106.29V56.1221H1101.26V61H1099.83ZM1115.62 59.7329V61H1108.53C1108.52 60.6826 1108.57 60.3774 1108.68 60.0845C1108.86 59.6011 1109.15 59.125 1109.55 58.6562C1109.95 58.1875 1110.52 57.6455 1111.27 57.0303C1112.44 56.0732 1113.23 55.3164 1113.64 54.7598C1114.05 54.1982 1114.26 53.6685 1114.26 53.1704C1114.26 52.6479 1114.07 52.2085 1113.69 51.8521C1113.32 51.4907 1112.83 51.3101 1112.23 51.3101C1111.6 51.3101 1111.09 51.5005 1110.71 51.8813C1110.33 52.2622 1110.14 52.7896 1110.13 53.4634L1108.78 53.3242C1108.87 52.3135 1109.22 51.5444 1109.82 51.0171C1110.43 50.4849 1111.24 50.2188 1112.26 50.2188C1113.29 50.2188 1114.11 50.5044 1114.71 51.0757C1115.31 51.647 1115.61 52.355 1115.61 53.1997C1115.61 53.6294 1115.52 54.0518 1115.35 54.4668C1115.17 54.8818 1114.88 55.3188 1114.47 55.7778C1114.06 56.2368 1113.39 56.8667 1112.44 57.6675C1111.65 58.3315 1111.14 58.7832 1110.92 59.0225C1110.69 59.2568 1110.51 59.4937 1110.36 59.7329H1115.62ZM1117.95 61V50.2627H1125.2V51.5298H1119.37V54.855H1124.41V56.1221H1119.37V61H1117.95ZM1133.74 59.7329V61H1126.65C1126.64 60.6826 1126.69 60.3774 1126.8 60.0845C1126.98 59.6011 1127.27 59.125 1127.67 58.6562C1128.07 58.1875 1128.64 57.6455 1129.39 57.0303C1130.56 56.0732 1131.35 55.3164 1131.76 54.7598C1132.17 54.1982 1132.37 53.6685 1132.37 53.1704C1132.37 52.6479 1132.19 52.2085 1131.81 51.8521C1131.44 51.4907 1130.95 51.3101 1130.35 51.3101C1129.72 51.3101 1129.21 51.5005 1128.83 51.8813C1128.45 52.2622 1128.26 52.7896 1128.25 53.4634L1126.9 53.3242C1126.99 52.3135 1127.34 51.5444 1127.94 51.0171C1128.55 50.4849 1129.36 50.2188 1130.38 50.2188C1131.41 50.2188 1132.23 50.5044 1132.83 51.0757C1133.43 51.647 1133.73 52.355 1133.73 53.1997C1133.73 53.6294 1133.64 54.0518 1133.47 54.4668C1133.29 54.8818 1133 55.3188 1132.59 55.7778C1132.18 56.2368 1131.51 56.8667 1130.56 57.6675C1129.77 58.3315 1129.26 58.7832 1129.03 59.0225C1128.81 59.2568 1128.62 59.4937 1128.48 59.7329H1133.74ZM1136.07 61V50.2627H1143.32V51.5298H1137.49V54.855H1142.53V56.1221H1137.49V61H1136.07ZM1151.86 59.7329V61H1144.77C1144.76 60.6826 1144.81 60.3774 1144.92 60.0845C1145.1 59.6011 1145.39 59.125 1145.78 58.6562C1146.19 58.1875 1146.76 57.6455 1147.51 57.0303C1148.68 56.0732 1149.47 55.3164 1149.88 54.7598C1150.29 54.1982 1150.49 53.6685 1150.49 53.1704C1150.49 52.6479 1150.31 52.2085 1149.93 51.8521C1149.56 51.4907 1149.07 51.3101 1148.47 51.3101C1147.84 51.3101 1147.33 51.5005 1146.95 51.8813C1146.57 52.2622 1146.38 52.7896 1146.37 53.4634L1145.02 53.3242C1145.11 52.3135 1145.46 51.5444 1146.06 51.0171C1146.67 50.4849 1147.48 50.2188 1148.5 50.2188C1149.53 50.2188 1150.35 50.5044 1150.95 51.0757C1151.55 51.647 1151.85 52.355 1151.85 53.1997C1151.85 53.6294 1151.76 54.0518 1151.59 54.4668C1151.41 54.8818 1151.12 55.3188 1150.71 55.7778C1150.3 56.2368 1149.63 56.8667 1148.68 57.6675C1147.89 58.3315 1147.38 58.7832 1147.15 59.0225C1146.93 59.2568 1146.74 59.4937 1146.6 59.7329H1151.86Z" fill="black"/>
<rect x="304" width="115" height="115" rx="25" fill="#219653"/>
<path d="M331.939 61.1831L332.576 58.063H331.338V56.9717H332.796L333.338 54.313H331.338V53.2217H333.558L334.195 50.0796H335.293L334.656 53.2217H336.963L337.601 50.0796H338.707L338.069 53.2217H339.336V54.313H337.85L337.3 56.9717H339.336V58.063H337.081L336.443 61.1831H335.345L335.975 58.063H333.675L333.038 61.1831H331.939ZM333.895 56.9717H336.194L336.744 54.313H334.437L333.895 56.9717ZM347.385 59.7329V61H340.288C340.278 60.6826 340.33 60.3774 340.442 60.0845C340.623 59.6011 340.911 59.125 341.306 58.6562C341.707 58.1875 342.283 57.6455 343.035 57.0303C344.202 56.0732 344.99 55.3164 345.401 54.7598C345.811 54.1982 346.016 53.6685 346.016 53.1704C346.016 52.6479 345.828 52.2085 345.452 51.8521C345.081 51.4907 344.595 51.3101 343.994 51.3101C343.36 51.3101 342.852 51.5005 342.471 51.8813C342.09 52.2622 341.897 52.7896 341.892 53.4634L340.537 53.3242C340.63 52.3135 340.979 51.5444 341.585 51.0171C342.19 50.4849 343.003 50.2188 344.024 50.2188C345.054 50.2188 345.869 50.5044 346.47 51.0757C347.07 51.647 347.371 52.355 347.371 53.1997C347.371 53.6294 347.283 54.0518 347.107 54.4668C346.931 54.8818 346.638 55.3188 346.228 55.7778C345.823 56.2368 345.147 56.8667 344.199 57.6675C343.408 58.3315 342.901 58.7832 342.676 59.0225C342.451 59.2568 342.266 59.4937 342.119 59.7329H347.385ZM354.072 61H352.754V52.5991C352.436 52.9019 352.019 53.2046 351.501 53.5073C350.989 53.8101 350.527 54.0371 350.117 54.1885V52.9141C350.854 52.5674 351.499 52.1475 352.051 51.6543C352.602 51.1611 352.993 50.6826 353.223 50.2188H354.072V61ZM357.954 58.5171L359.221 58.3999C359.328 58.9956 359.533 59.4277 359.836 59.6963C360.139 59.9648 360.527 60.0991 361.001 60.0991C361.406 60.0991 361.76 60.0063 362.063 59.8208C362.37 59.6353 362.622 59.3887 362.817 59.0811C363.012 58.7686 363.176 58.3486 363.308 57.8213C363.44 57.2939 363.505 56.7568 363.505 56.21C363.505 56.1514 363.503 56.0635 363.498 55.9463C363.234 56.3662 362.873 56.708 362.414 56.9717C361.96 57.2305 361.467 57.3599 360.935 57.3599C360.046 57.3599 359.294 57.0376 358.679 56.3931C358.064 55.7485 357.756 54.8989 357.756 53.8442C357.756 52.7554 358.076 51.8789 358.715 51.2148C359.36 50.5508 360.166 50.2188 361.132 50.2188C361.831 50.2188 362.468 50.4067 363.044 50.7827C363.625 51.1587 364.065 51.6958 364.362 52.394C364.665 53.0874 364.816 54.0933 364.816 55.4116C364.816 56.7837 364.668 57.8774 364.37 58.6929C364.072 59.5034 363.628 60.1211 363.037 60.5459C362.451 60.9707 361.762 61.1831 360.971 61.1831C360.131 61.1831 359.445 60.9512 358.913 60.4873C358.381 60.0186 358.061 59.3618 357.954 58.5171ZM363.352 53.7783C363.352 53.0215 363.149 52.4209 362.744 51.9766C362.343 51.5322 361.86 51.3101 361.294 51.3101C360.708 51.3101 360.197 51.5493 359.763 52.0278C359.328 52.5063 359.111 53.1265 359.111 53.8882C359.111 54.5718 359.316 55.1284 359.726 55.5581C360.141 55.9829 360.651 56.1953 361.257 56.1953C361.867 56.1953 362.368 55.9829 362.758 55.5581C363.154 55.1284 363.352 54.5352 363.352 53.7783ZM373.246 52.8921L371.935 52.9946C371.818 52.4771 371.652 52.1011 371.437 51.8667C371.081 51.4907 370.641 51.3027 370.119 51.3027C369.699 51.3027 369.33 51.4199 369.013 51.6543C368.598 51.957 368.271 52.3989 368.032 52.98C367.792 53.561 367.668 54.3887 367.658 55.4629C367.975 54.9795 368.364 54.6206 368.823 54.3862C369.282 54.1519 369.762 54.0347 370.265 54.0347C371.144 54.0347 371.891 54.3594 372.507 55.0088C373.127 55.6533 373.437 56.4883 373.437 57.5137C373.437 58.1875 373.29 58.8149 372.997 59.396C372.709 59.9722 372.311 60.4141 371.803 60.7217C371.296 61.0293 370.72 61.1831 370.075 61.1831C368.976 61.1831 368.08 60.7803 367.387 59.9746C366.694 59.1641 366.347 57.8311 366.347 55.9756C366.347 53.9004 366.73 52.3916 367.497 51.4492C368.166 50.6289 369.067 50.2188 370.199 50.2188C371.044 50.2188 371.735 50.4556 372.272 50.9292C372.814 51.4028 373.139 52.0571 373.246 52.8921ZM367.863 57.521C367.863 57.9751 367.958 58.4097 368.149 58.8247C368.344 59.2397 368.615 59.5571 368.962 59.7769C369.308 59.9917 369.672 60.0991 370.053 60.0991C370.61 60.0991 371.088 59.8745 371.489 59.4253C371.889 58.9761 372.089 58.3657 372.089 57.5942C372.089 56.8521 371.891 56.2686 371.496 55.8438C371.1 55.4141 370.602 55.1992 370.002 55.1992C369.406 55.1992 368.901 55.4141 368.486 55.8438C368.071 56.2686 367.863 56.8276 367.863 57.521ZM375.055 58.1875L376.439 58.0703C376.542 58.7441 376.779 59.252 377.15 59.5938C377.526 59.9307 377.978 60.0991 378.505 60.0991C379.14 60.0991 379.677 59.8599 380.116 59.3813C380.556 58.9028 380.775 58.2681 380.775 57.4771C380.775 56.7251 380.563 56.1318 380.138 55.6973C379.718 55.2627 379.166 55.0454 378.483 55.0454C378.058 55.0454 377.675 55.1431 377.333 55.3384C376.991 55.5288 376.723 55.7778 376.527 56.0854L375.29 55.9243L376.33 50.4092H381.669V51.6689H377.384L376.806 54.5547C377.45 54.1055 378.126 53.8809 378.834 53.8809C379.772 53.8809 380.563 54.2056 381.208 54.855C381.852 55.5044 382.174 56.3394 382.174 57.3599C382.174 58.3315 381.891 59.1714 381.325 59.8794C380.636 60.7485 379.696 61.1831 378.505 61.1831C377.528 61.1831 376.73 60.9097 376.11 60.3628C375.495 59.8159 375.143 59.0908 375.055 58.1875ZM383.712 58.1655L385.03 57.9897C385.182 58.7368 385.438 59.2764 385.799 59.6084C386.166 59.9355 386.61 60.0991 387.132 60.0991C387.753 60.0991 388.275 59.8843 388.7 59.4546C389.13 59.0249 389.344 58.4927 389.344 57.8579C389.344 57.2524 389.147 56.7544 388.751 56.3638C388.356 55.9683 387.853 55.7705 387.242 55.7705C386.993 55.7705 386.683 55.8193 386.312 55.917L386.459 54.7598C386.547 54.7695 386.617 54.7744 386.671 54.7744C387.233 54.7744 387.738 54.6279 388.187 54.335C388.636 54.042 388.861 53.5903 388.861 52.98C388.861 52.4966 388.697 52.0962 388.37 51.7788C388.043 51.4614 387.621 51.3027 387.103 51.3027C386.591 51.3027 386.163 51.4639 385.821 51.7861C385.48 52.1084 385.26 52.5918 385.162 53.2363L383.844 53.002C384.005 52.1182 384.371 51.4346 384.943 50.9512C385.514 50.4629 386.224 50.2188 387.074 50.2188C387.66 50.2188 388.199 50.3457 388.693 50.5996C389.186 50.8486 389.562 51.1904 389.82 51.625C390.084 52.0596 390.216 52.521 390.216 53.0093C390.216 53.4731 390.091 53.8955 389.842 54.2764C389.593 54.6572 389.225 54.96 388.737 55.1846C389.371 55.3311 389.864 55.6362 390.216 56.1001C390.568 56.5591 390.743 57.1353 390.743 57.8286C390.743 58.7661 390.402 59.562 389.718 60.2163C389.034 60.8657 388.17 61.1904 387.125 61.1904C386.183 61.1904 385.399 60.9097 384.774 60.3481C384.154 59.7866 383.8 59.0591 383.712 58.1655Z" fill="black"/>
<rect x="456" width="115" height="115" rx="25" fill="#EB5757"/>
<path d="M482.284 61.1831L482.921 58.063H481.683V56.9717H483.141L483.683 54.313H481.683V53.2217H483.902L484.54 50.0796H485.638L485.001 53.2217H487.308L487.945 50.0796H489.051L488.414 53.2217H489.681V54.313H488.194L487.645 56.9717H489.681V58.063H487.425L486.788 61.1831H485.689L486.319 58.063H484.02L483.382 61.1831H482.284ZM484.239 56.9717H486.539L487.088 54.313H484.781L484.239 56.9717ZM491.365 61V50.2627H499.129V51.5298H492.786V54.8184H498.726V56.0781H492.786V59.7329H499.378V61H491.365ZM501.582 61V50.2627H505.611C506.431 50.2627 507.088 50.3726 507.581 50.5923C508.079 50.8071 508.467 51.1416 508.745 51.5957C509.029 52.0449 509.17 52.5161 509.17 53.0093C509.17 53.4683 509.046 53.9004 508.797 54.3057C508.548 54.7109 508.172 55.0381 507.669 55.2871C508.318 55.4775 508.816 55.8022 509.163 56.2612C509.515 56.7202 509.69 57.2622 509.69 57.8872C509.69 58.3901 509.583 58.8589 509.368 59.2935C509.158 59.7231 508.897 60.0552 508.584 60.2896C508.272 60.5239 507.879 60.7021 507.405 60.8242C506.936 60.9414 506.36 61 505.677 61H501.582ZM503.003 54.7744H505.325C505.955 54.7744 506.407 54.7329 506.68 54.6499C507.041 54.5425 507.312 54.3643 507.493 54.1152C507.679 53.8662 507.771 53.5537 507.771 53.1777C507.771 52.8213 507.686 52.5088 507.515 52.2402C507.344 51.9668 507.1 51.7812 506.783 51.6836C506.465 51.5811 505.921 51.5298 505.149 51.5298H503.003V54.7744ZM503.003 59.7329H505.677C506.136 59.7329 506.458 59.7158 506.643 59.6816C506.971 59.623 507.244 59.5254 507.464 59.3887C507.683 59.252 507.864 59.0542 508.006 58.7954C508.147 58.5317 508.218 58.229 508.218 57.8872C508.218 57.4868 508.116 57.1401 507.911 56.8472C507.705 56.5493 507.42 56.3418 507.054 56.2246C506.692 56.1025 506.17 56.0415 505.486 56.0415H503.003V59.7329ZM511.411 58.1875L512.795 58.0703C512.898 58.7441 513.135 59.252 513.506 59.5938C513.882 59.9307 514.334 60.0991 514.861 60.0991C515.496 60.0991 516.033 59.8599 516.472 59.3813C516.912 58.9028 517.131 58.2681 517.131 57.4771C517.131 56.7251 516.919 56.1318 516.494 55.6973C516.074 55.2627 515.523 55.0454 514.839 55.0454C514.414 55.0454 514.031 55.1431 513.689 55.3384C513.347 55.5288 513.079 55.7778 512.883 56.0854L511.646 55.9243L512.686 50.4092H518.025V51.6689H513.74L513.162 54.5547C513.806 54.1055 514.483 53.8809 515.191 53.8809C516.128 53.8809 516.919 54.2056 517.564 54.855C518.208 55.5044 518.53 56.3394 518.53 57.3599C518.53 58.3315 518.247 59.1714 517.681 59.8794C516.992 60.7485 516.052 61.1831 514.861 61.1831C513.884 61.1831 513.086 60.9097 512.466 60.3628C511.851 59.8159 511.499 59.0908 511.411 58.1875ZM520.149 51.6689V50.4019H527.099V51.4272C526.416 52.1548 525.737 53.1216 525.063 54.3276C524.394 55.5337 523.877 56.7739 523.511 58.0483C523.247 58.9468 523.078 59.9307 523.005 61H521.65C521.665 60.1553 521.831 59.1348 522.148 57.9385C522.466 56.7422 522.92 55.5898 523.511 54.4814C524.106 53.3682 524.739 52.4307 525.408 51.6689H520.149ZM528.71 58.1875L530.095 58.0703C530.197 58.7441 530.434 59.252 530.805 59.5938C531.181 59.9307 531.633 60.0991 532.16 60.0991C532.795 60.0991 533.332 59.8599 533.771 59.3813C534.211 58.9028 534.431 58.2681 534.431 57.4771C534.431 56.7251 534.218 56.1318 533.793 55.6973C533.374 55.2627 532.822 55.0454 532.138 55.0454C531.713 55.0454 531.33 55.1431 530.988 55.3384C530.646 55.5288 530.378 55.7778 530.183 56.0854L528.945 55.9243L529.985 50.4092H535.324V51.6689H531.04L530.461 54.5547C531.105 54.1055 531.782 53.8809 532.49 53.8809C533.427 53.8809 534.218 54.2056 534.863 54.855C535.507 55.5044 535.83 56.3394 535.83 57.3599C535.83 58.3315 535.546 59.1714 534.98 59.8794C534.291 60.7485 533.352 61.1831 532.16 61.1831C531.184 61.1831 530.385 60.9097 529.765 60.3628C529.15 59.8159 528.798 59.0908 528.71 58.1875ZM537.448 51.6689V50.4019H544.399V51.4272C543.715 52.1548 543.036 53.1216 542.362 54.3276C541.694 55.5337 541.176 56.7739 540.81 58.0483C540.546 58.9468 540.378 59.9307 540.304 61H538.949C538.964 60.1553 539.13 59.1348 539.447 57.9385C539.765 56.7422 540.219 55.5898 540.81 54.4814C541.405 53.3682 542.038 52.4307 542.707 51.6689H537.448Z" fill="black"/>
<rect x="152" y="1" width="115" height="115" rx="25" fill="#C2B4E5"/>
<path d="M177.039 62.1831L177.676 59.063H176.438V57.9717H177.895L178.437 55.313H176.438V54.2217H178.657L179.294 51.0796H180.393L179.756 54.2217H182.063L182.7 51.0796H183.806L183.169 54.2217H184.436V55.313H182.949L182.4 57.9717H184.436V59.063H182.18L181.543 62.1831H180.444L181.074 59.063H178.774L178.137 62.1831H177.039ZM178.994 57.9717H181.294L181.843 55.313H179.536L178.994 57.9717ZM193.752 58.2354L195.173 58.5942C194.875 59.7612 194.338 60.6523 193.562 61.2676C192.79 61.8779 191.845 62.1831 190.727 62.1831C189.57 62.1831 188.628 61.9487 187.9 61.48C187.177 61.0063 186.626 60.3228 186.245 59.4292C185.869 58.5356 185.681 57.5762 185.681 56.5508C185.681 55.4326 185.893 54.4585 186.318 53.6284C186.748 52.7935 187.356 52.1611 188.142 51.7314C188.933 51.2969 189.802 51.0796 190.749 51.0796C191.823 51.0796 192.727 51.353 193.459 51.8999C194.192 52.4468 194.702 53.2158 194.99 54.207L193.591 54.5366C193.342 53.7554 192.981 53.1865 192.507 52.8301C192.033 52.4736 191.438 52.2954 190.72 52.2954C189.895 52.2954 189.204 52.4932 188.647 52.8887C188.095 53.2842 187.707 53.8164 187.483 54.4854C187.258 55.1494 187.146 55.8354 187.146 56.5435C187.146 57.4565 187.278 58.2549 187.541 58.9385C187.81 59.6172 188.225 60.125 188.786 60.4619C189.348 60.7988 189.956 60.9673 190.61 60.9673C191.406 60.9673 192.08 60.7378 192.632 60.2788C193.183 59.8198 193.557 59.1387 193.752 58.2354ZM203.625 60.7329V62H196.528C196.518 61.6826 196.569 61.3774 196.682 61.0845C196.862 60.6011 197.15 60.125 197.546 59.6562C197.946 59.1875 198.522 58.6455 199.274 58.0303C200.441 57.0732 201.23 56.3164 201.64 55.7598C202.05 55.1982 202.255 54.6685 202.255 54.1704C202.255 53.6479 202.067 53.2085 201.691 52.8521C201.32 52.4907 200.834 52.3101 200.234 52.3101C199.599 52.3101 199.091 52.5005 198.71 52.8813C198.329 53.2622 198.137 53.7896 198.132 54.4634L196.777 54.3242C196.87 53.3135 197.219 52.5444 197.824 52.0171C198.43 51.4849 199.243 51.2188 200.263 51.2188C201.293 51.2188 202.109 51.5044 202.709 52.0757C203.31 52.647 203.61 53.355 203.61 54.1997C203.61 54.6294 203.522 55.0518 203.347 55.4668C203.171 55.8818 202.878 56.3188 202.468 56.7778C202.062 57.2368 201.386 57.8667 200.439 58.6675C199.648 59.3315 199.14 59.7832 198.915 60.0225C198.691 60.2568 198.505 60.4937 198.359 60.7329H203.625ZM205.822 62V51.2627H209.85C210.67 51.2627 211.327 51.3726 211.82 51.5923C212.318 51.8071 212.707 52.1416 212.985 52.5957C213.268 53.0449 213.41 53.5161 213.41 54.0093C213.41 54.4683 213.285 54.9004 213.036 55.3057C212.787 55.7109 212.411 56.0381 211.908 56.2871C212.558 56.4775 213.056 56.8022 213.402 57.2612C213.754 57.7202 213.93 58.2622 213.93 58.8872C213.93 59.3901 213.822 59.8589 213.607 60.2935C213.398 60.7231 213.136 61.0552 212.824 61.2896C212.511 61.5239 212.118 61.7021 211.645 61.8242C211.176 61.9414 210.6 62 209.916 62H205.822ZM207.243 55.7744H209.565C210.194 55.7744 210.646 55.7329 210.92 55.6499C211.281 55.5425 211.552 55.3643 211.732 55.1152C211.918 54.8662 212.011 54.5537 212.011 54.1777C212.011 53.8213 211.925 53.5088 211.754 53.2402C211.584 52.9668 211.339 52.7812 211.022 52.6836C210.705 52.5811 210.16 52.5298 209.389 52.5298H207.243V55.7744ZM207.243 60.7329H209.916C210.375 60.7329 210.697 60.7158 210.883 60.6816C211.21 60.623 211.483 60.5254 211.703 60.3887C211.923 60.252 212.104 60.0542 212.245 59.7954C212.387 59.5317 212.458 59.229 212.458 58.8872C212.458 58.4868 212.355 58.1401 212.15 57.8472C211.945 57.5493 211.659 57.3418 211.293 57.2246C210.932 57.1025 210.409 57.0415 209.726 57.0415H207.243V60.7329ZM219.877 62V59.4292H215.219V58.2207L220.118 51.2627H221.195V58.2207H222.645V59.4292H221.195V62H219.877ZM219.877 58.2207V53.3794L216.515 58.2207H219.877ZM224.864 62V51.2627H232.628V52.5298H226.285V55.8184H232.225V57.0781H226.285V60.7329H232.877V62H224.864ZM234.605 59.1875L235.989 59.0703C236.092 59.7441 236.329 60.252 236.7 60.5938C237.076 60.9307 237.528 61.0991 238.055 61.0991C238.69 61.0991 239.227 60.8599 239.666 60.3813C240.106 59.9028 240.325 59.2681 240.325 58.4771C240.325 57.7251 240.113 57.1318 239.688 56.6973C239.268 56.2627 238.716 56.0454 238.033 56.0454C237.608 56.0454 237.225 56.1431 236.883 56.3384C236.541 56.5288 236.273 56.7778 236.077 57.0854L234.84 56.9243L235.88 51.4092H241.219V52.6689H236.934L236.356 55.5547C237 55.1055 237.676 54.8809 238.384 54.8809C239.322 54.8809 240.113 55.2056 240.757 55.855C241.402 56.5044 241.724 57.3394 241.724 58.3599C241.724 59.3315 241.441 60.1714 240.875 60.8794C240.186 61.7485 239.246 62.1831 238.055 62.1831C237.078 62.1831 236.28 61.9097 235.66 61.3628C235.045 60.8159 234.693 60.0908 234.605 59.1875Z" fill="black"/>
</svg>
