<svg width="626" height="309" viewBox="0 0 626 309" fill="none" xmlns="http://www.w3.org/2000/svg">
<path d="M33.8311 23V5.10449H37.4443V12.1479H44.5244V5.10449H48.1377V23H44.5244V15.1753H37.4443V23H33.8311ZM51.5674 16.335C51.5674 15.1956 51.8481 14.0929 52.4097 13.0269C52.9712 11.9608 53.7646 11.147 54.79 10.5854C55.8236 10.0239 56.9751 9.74316 58.2446 9.74316C60.2059 9.74316 61.8132 10.382 63.0664 11.6597C64.3197 12.9292 64.9463 14.5365 64.9463 16.4814C64.9463 18.4427 64.3115 20.0703 63.042 21.3643C61.7806 22.6501 60.1896 23.293 58.269 23.293C57.0809 23.293 55.9456 23.0244 54.8633 22.4873C53.7891 21.9502 52.9712 21.1649 52.4097 20.1313C51.8481 19.0897 51.5674 17.8242 51.5674 16.335ZM55.083 16.5181C55.083 17.8039 55.3882 18.7886 55.9985 19.4722C56.6089 20.1558 57.3617 20.4976 58.2568 20.4976C59.152 20.4976 59.9007 20.1558 60.5029 19.4722C61.1133 18.7886 61.4185 17.7957 61.4185 16.4937C61.4185 15.2241 61.1133 14.2476 60.5029 13.564C59.9007 12.8804 59.152 12.5386 58.2568 12.5386C57.3617 12.5386 56.6089 12.8804 55.9985 13.564C55.3882 14.2476 55.083 15.2323 55.083 16.5181ZM70.561 23L66.4595 10.0361H69.792L72.2212 18.5322L74.4551 10.0361H77.7632L79.9238 18.5322L82.4019 10.0361H85.7832L81.6206 23H78.3247L76.0908 14.6626L73.8936 23H70.561ZM106.864 13.8691L103.482 14.4795C103.368 13.804 103.108 13.2954 102.701 12.9536C102.302 12.6118 101.782 12.4409 101.139 12.4409C100.284 12.4409 99.6006 12.738 99.0879 13.332C98.5833 13.918 98.3311 14.9027 98.3311 16.2861C98.3311 17.8242 98.5874 18.9106 99.1001 19.5454C99.6209 20.1802 100.317 20.4976 101.188 20.4976C101.839 20.4976 102.372 20.3145 102.787 19.9482C103.202 19.5739 103.495 18.9351 103.666 18.0317L107.035 18.6055C106.685 20.1517 106.013 21.3195 105.021 22.1089C104.028 22.8983 102.697 23.293 101.029 23.293C99.1326 23.293 97.619 22.6948 96.4878 21.4985C95.3647 20.3022 94.8032 18.6462 94.8032 16.5303C94.8032 14.39 95.3688 12.7257 96.5 11.5376C97.6312 10.3413 99.1611 9.74316 101.09 9.74316C102.669 9.74316 103.922 10.085 104.85 10.7686C105.785 11.444 106.457 12.4775 106.864 13.8691ZM109.183 16.335C109.183 15.1956 109.463 14.0929 110.025 13.0269C110.586 11.9608 111.38 11.147 112.405 10.5854C113.439 10.0239 114.59 9.74316 115.86 9.74316C117.821 9.74316 119.428 10.382 120.682 11.6597C121.935 12.9292 122.562 14.5365 122.562 16.4814C122.562 18.4427 121.927 20.0703 120.657 21.3643C119.396 22.6501 117.805 23.293 115.884 23.293C114.696 23.293 113.561 23.0244 112.479 22.4873C111.404 21.9502 110.586 21.1649 110.025 20.1313C109.463 19.0897 109.183 17.8242 109.183 16.335ZM112.698 16.5181C112.698 17.8039 113.003 18.7886 113.614 19.4722C114.224 20.1558 114.977 20.4976 115.872 20.4976C116.767 20.4976 117.516 20.1558 118.118 19.4722C118.729 18.7886 119.034 17.7957 119.034 16.4937C119.034 15.2241 118.729 14.2476 118.118 13.564C117.516 12.8804 116.767 12.5386 115.872 12.5386C114.977 12.5386 114.224 12.8804 113.614 13.564C113.003 14.2476 112.698 15.2323 112.698 16.5181ZM137.551 23H134.121V16.3838C134.121 14.984 134.048 14.0807 133.901 13.6738C133.755 13.2588 133.515 12.9373 133.181 12.7095C132.856 12.4816 132.461 12.3677 131.997 12.3677C131.403 12.3677 130.87 12.5304 130.398 12.856C129.926 13.1815 129.6 13.6128 129.421 14.1499C129.25 14.687 129.165 15.6799 129.165 17.1284V23H125.735V10.0361H128.921V11.9404C130.052 10.4756 131.476 9.74316 133.193 9.74316C133.95 9.74316 134.642 9.88151 135.269 10.1582C135.895 10.4268 136.367 10.7726 136.685 11.1958C137.01 11.619 137.234 12.0991 137.356 12.6362C137.486 13.1733 137.551 13.9424 137.551 14.9434V23ZM145.107 23L139.882 10.0361H143.483L145.925 16.6523L146.633 18.8618C146.82 18.3003 146.938 17.93 146.987 17.751C147.101 17.3848 147.223 17.0186 147.353 16.6523L149.819 10.0361H153.347L148.195 23H145.107ZM163.466 18.874L166.884 19.4478C166.444 20.701 165.749 21.6572 164.796 22.3164C163.852 22.9674 162.668 23.293 161.244 23.293C158.99 23.293 157.322 22.5565 156.239 21.0835C155.385 19.9035 154.958 18.4142 154.958 16.6157C154.958 14.4673 155.519 12.7868 156.642 11.5742C157.765 10.3535 159.185 9.74316 160.902 9.74316C162.831 9.74316 164.353 10.382 165.468 11.6597C166.583 12.9292 167.116 14.8783 167.067 17.5068H158.473C158.498 18.5241 158.774 19.3175 159.303 19.8872C159.832 20.4487 160.491 20.7295 161.281 20.7295C161.818 20.7295 162.27 20.583 162.636 20.29C163.002 19.9971 163.279 19.5251 163.466 18.874ZM163.661 15.4072C163.637 14.4144 163.38 13.6616 162.892 13.1489C162.404 12.6281 161.81 12.3677 161.11 12.3677C160.361 12.3677 159.743 12.6403 159.254 13.1855C158.766 13.7308 158.526 14.4714 158.534 15.4072H163.661ZM182.167 23H178.736V16.3838C178.736 14.984 178.663 14.0807 178.517 13.6738C178.37 13.2588 178.13 12.9373 177.796 12.7095C177.471 12.4816 177.076 12.3677 176.612 12.3677C176.018 12.3677 175.485 12.5304 175.013 12.856C174.541 13.1815 174.216 13.6128 174.037 14.1499C173.866 14.687 173.78 15.6799 173.78 17.1284V23H170.35V10.0361H173.536V11.9404C174.667 10.4756 176.091 9.74316 177.809 9.74316C178.565 9.74316 179.257 9.88151 179.884 10.1582C180.51 10.4268 180.982 10.7726 181.3 11.1958C181.625 11.619 181.849 12.0991 181.971 12.6362C182.101 13.1733 182.167 13.9424 182.167 14.9434V23ZM186.158 8.27832V5.10449H189.588V8.27832H186.158ZM186.158 23V10.0361H189.588V23H186.158ZM201.123 18.874L204.541 19.4478C204.102 20.701 203.406 21.6572 202.454 22.3164C201.51 22.9674 200.326 23.293 198.901 23.293C196.647 23.293 194.979 22.5565 193.896 21.0835C193.042 19.9035 192.615 18.4142 192.615 16.6157C192.615 14.4673 193.176 12.7868 194.299 11.5742C195.422 10.3535 196.842 9.74316 198.56 9.74316C200.488 9.74316 202.01 10.382 203.125 11.6597C204.24 12.9292 204.773 14.8783 204.724 17.5068H196.13C196.155 18.5241 196.431 19.3175 196.96 19.8872C197.489 20.4487 198.149 20.7295 198.938 20.7295C199.475 20.7295 199.927 20.583 200.293 20.29C200.659 19.9971 200.936 19.5251 201.123 18.874ZM201.318 15.4072C201.294 14.4144 201.038 13.6616 200.549 13.1489C200.061 12.6281 199.467 12.3677 198.767 12.3677C198.018 12.3677 197.4 12.6403 196.912 13.1855C196.423 13.7308 196.183 14.4714 196.191 15.4072H201.318ZM219.824 23H216.394V16.3838C216.394 14.984 216.32 14.0807 216.174 13.6738C216.027 13.2588 215.787 12.9373 215.454 12.7095C215.128 12.4816 214.733 12.3677 214.27 12.3677C213.675 12.3677 213.142 12.5304 212.67 12.856C212.198 13.1815 211.873 13.6128 211.694 14.1499C211.523 14.687 211.438 15.6799 211.438 17.1284V23H208.007V10.0361H211.193V11.9404C212.325 10.4756 213.749 9.74316 215.466 9.74316C216.223 9.74316 216.914 9.88151 217.541 10.1582C218.168 10.4268 218.64 10.7726 218.957 11.1958C219.283 11.619 219.506 12.0991 219.628 12.6362C219.759 13.1733 219.824 13.9424 219.824 14.9434V23ZM229.76 10.0361V12.7705H227.416V17.9951C227.416 19.0531 227.436 19.6715 227.477 19.8506C227.526 20.0215 227.628 20.1639 227.782 20.2778C227.945 20.3918 228.14 20.4487 228.368 20.4487C228.686 20.4487 229.145 20.3389 229.748 20.1191L230.041 22.7803C229.243 23.1221 228.34 23.293 227.331 23.293C226.712 23.293 226.155 23.1912 225.658 22.9878C225.162 22.7762 224.796 22.5076 224.56 22.1821C224.332 21.8485 224.173 21.4009 224.083 20.8394C224.01 20.4406 223.974 19.6349 223.974 18.4224V12.7705H222.399V10.0361H223.974V7.46045L227.416 5.4585V10.0361H229.76ZM251.988 23H248.802V21.0957C248.273 21.8363 247.646 22.3896 246.922 22.7559C246.206 23.1139 245.481 23.293 244.749 23.293C243.26 23.293 241.982 22.6948 240.916 21.4985C239.858 20.2941 239.329 18.6177 239.329 16.4692C239.329 14.272 239.846 12.6037 240.879 11.4644C241.913 10.3169 243.219 9.74316 244.798 9.74316C246.246 9.74316 247.5 10.3454 248.558 11.5498V5.10449H251.988V23ZM242.833 16.2373C242.833 17.6208 243.024 18.6217 243.406 19.2402C243.96 20.1354 244.733 20.583 245.726 20.583C246.515 20.583 247.186 20.2493 247.74 19.582C248.293 18.9066 248.57 17.9015 248.57 16.5669C248.57 15.0776 248.301 14.0075 247.764 13.3564C247.227 12.6973 246.539 12.3677 245.701 12.3677C244.887 12.3677 244.204 12.6932 243.65 13.3442C243.105 13.9871 242.833 14.9515 242.833 16.2373ZM255.088 16.335C255.088 15.1956 255.369 14.0929 255.93 13.0269C256.492 11.9608 257.285 11.147 258.311 10.5854C259.344 10.0239 260.496 9.74316 261.765 9.74316C263.726 9.74316 265.334 10.382 266.587 11.6597C267.84 12.9292 268.467 14.5365 268.467 16.4814C268.467 18.4427 267.832 20.0703 266.562 21.3643C265.301 22.6501 263.71 23.293 261.79 23.293C260.601 23.293 259.466 23.0244 258.384 22.4873C257.31 21.9502 256.492 21.1649 255.93 20.1313C255.369 19.0897 255.088 17.8242 255.088 16.335ZM258.604 16.5181C258.604 17.8039 258.909 18.7886 259.519 19.4722C260.129 20.1558 260.882 20.4976 261.777 20.4976C262.673 20.4976 263.421 20.1558 264.023 19.4722C264.634 18.7886 264.939 17.7957 264.939 16.4937C264.939 15.2241 264.634 14.2476 264.023 13.564C263.421 12.8804 262.673 12.5386 261.777 12.5386C260.882 12.5386 260.129 12.8804 259.519 13.564C258.909 14.2476 258.604 15.2323 258.604 16.5181ZM277.499 10.0361H281.149L284.25 19.2402L287.277 10.0361H290.829L286.251 22.5117L285.434 24.77C285.132 25.5269 284.844 26.1047 284.567 26.5034C284.298 26.9022 283.985 27.2236 283.627 27.4678C283.277 27.7201 282.842 27.9154 282.321 28.0537C281.808 28.1921 281.226 28.2612 280.575 28.2612C279.916 28.2612 279.269 28.1921 278.634 28.0537L278.329 25.3682C278.866 25.474 279.35 25.5269 279.782 25.5269C280.579 25.5269 281.169 25.2909 281.552 24.8188C281.934 24.355 282.227 23.7609 282.431 23.0366L277.499 10.0361ZM292.745 16.335C292.745 15.1956 293.026 14.0929 293.587 13.0269C294.149 11.9608 294.942 11.147 295.968 10.5854C297.001 10.0239 298.153 9.74316 299.422 9.74316C301.384 9.74316 302.991 10.382 304.244 11.6597C305.497 12.9292 306.124 14.5365 306.124 16.4814C306.124 18.4427 305.489 20.0703 304.22 21.3643C302.958 22.6501 301.367 23.293 299.447 23.293C298.259 23.293 297.123 23.0244 296.041 22.4873C294.967 21.9502 294.149 21.1649 293.587 20.1313C293.026 19.0897 292.745 17.8242 292.745 16.335ZM296.261 16.5181C296.261 17.8039 296.566 18.7886 297.176 19.4722C297.787 20.1558 298.539 20.4976 299.435 20.4976C300.33 20.4976 301.078 20.1558 301.681 19.4722C302.291 18.7886 302.596 17.7957 302.596 16.4937C302.596 15.2241 302.291 14.2476 301.681 13.564C301.078 12.8804 300.33 12.5386 299.435 12.5386C298.539 12.5386 297.787 12.8804 297.176 13.564C296.566 14.2476 296.261 15.2323 296.261 16.5181ZM317.854 23V21.0591C317.382 21.7508 316.76 22.2961 315.987 22.6948C315.222 23.0936 314.412 23.293 313.558 23.293C312.687 23.293 311.906 23.1017 311.214 22.7192C310.522 22.3368 310.022 21.7996 309.712 21.1079C309.403 20.4162 309.249 19.46 309.249 18.2393V10.0361H312.679V15.9932C312.679 17.8161 312.74 18.9351 312.862 19.3501C312.992 19.757 313.224 20.0825 313.558 20.3267C313.891 20.5627 314.314 20.6807 314.827 20.6807C315.413 20.6807 315.938 20.522 316.402 20.2046C316.866 19.8791 317.183 19.4803 317.354 19.0083C317.525 18.5282 317.61 17.3604 317.61 15.5049V10.0361H321.041V23H317.854ZM331.062 10.0361H332.966V9.05957C332.966 7.96908 333.08 7.15527 333.308 6.61816C333.544 6.08105 333.971 5.64567 334.589 5.31201C335.216 4.97021 336.005 4.79932 336.958 4.79932C337.934 4.79932 338.89 4.9458 339.826 5.23877L339.362 7.63135C338.817 7.50114 338.292 7.43604 337.788 7.43604C337.291 7.43604 336.933 7.55404 336.713 7.79004C336.502 8.0179 336.396 8.46143 336.396 9.12061V10.0361H338.959V12.7339H336.396V23H332.966V12.7339H331.062V10.0361ZM341.388 8.27832V5.10449H344.818V8.27832H341.388ZM341.388 23V10.0361H344.818V23H341.388ZM360.638 23H357.208V16.3838C357.208 14.984 357.135 14.0807 356.988 13.6738C356.842 13.2588 356.602 12.9373 356.268 12.7095C355.943 12.4816 355.548 12.3677 355.084 12.3677C354.49 12.3677 353.957 12.5304 353.485 12.856C353.013 13.1815 352.687 13.6128 352.508 14.1499C352.337 14.687 352.252 15.6799 352.252 17.1284V23H348.822V10.0361H352.008V11.9404C353.139 10.4756 354.563 9.74316 356.28 9.74316C357.037 9.74316 357.729 9.88151 358.355 10.1582C358.982 10.4268 359.454 10.7726 359.771 11.1958C360.097 11.619 360.321 12.0991 360.443 12.6362C360.573 13.1733 360.638 13.9424 360.638 14.9434V23ZM376.519 23H373.333V21.0957C372.804 21.8363 372.177 22.3896 371.453 22.7559C370.737 23.1139 370.013 23.293 369.28 23.293C367.791 23.293 366.513 22.6948 365.447 21.4985C364.389 20.2941 363.86 18.6177 363.86 16.4692C363.86 14.272 364.377 12.6037 365.411 11.4644C366.444 10.3169 367.75 9.74316 369.329 9.74316C370.778 9.74316 372.031 10.3454 373.089 11.5498V5.10449H376.519V23ZM367.364 16.2373C367.364 17.6208 367.555 18.6217 367.938 19.2402C368.491 20.1354 369.264 20.583 370.257 20.583C371.046 20.583 371.718 20.2493 372.271 19.582C372.824 18.9066 373.101 17.9015 373.101 16.5669C373.101 15.0776 372.833 14.0075 372.295 13.3564C371.758 12.6973 371.071 12.3677 370.232 12.3677C369.419 12.3677 368.735 12.6932 368.182 13.3442C367.636 13.9871 367.364 14.9515 367.364 16.2373ZM399.174 13.8691L395.793 14.4795C395.679 13.804 395.419 13.2954 395.012 12.9536C394.613 12.6118 394.092 12.4409 393.449 12.4409C392.595 12.4409 391.911 12.738 391.398 13.332C390.894 13.918 390.642 14.9027 390.642 16.2861C390.642 17.8242 390.898 18.9106 391.411 19.5454C391.931 20.1802 392.627 20.4976 393.498 20.4976C394.149 20.4976 394.682 20.3145 395.097 19.9482C395.512 19.5739 395.805 18.9351 395.976 18.0317L399.345 18.6055C398.995 20.1517 398.324 21.3195 397.331 22.1089C396.338 22.8983 395.008 23.293 393.339 23.293C391.443 23.293 389.93 22.6948 388.798 21.4985C387.675 20.3022 387.114 18.6462 387.114 16.5303C387.114 14.39 387.679 12.7257 388.811 11.5376C389.942 10.3413 391.472 9.74316 393.4 9.74316C394.979 9.74316 396.232 10.085 397.16 10.7686C398.096 11.444 398.767 12.4775 399.174 13.8691ZM410.819 23V21.0591C410.347 21.7508 409.725 22.2961 408.952 22.6948C408.187 23.0936 407.377 23.293 406.522 23.293C405.652 23.293 404.87 23.1017 404.179 22.7192C403.487 22.3368 402.986 21.7996 402.677 21.1079C402.368 20.4162 402.213 19.46 402.213 18.2393V10.0361H405.644V15.9932C405.644 17.8161 405.705 18.9351 405.827 19.3501C405.957 19.757 406.189 20.0825 406.522 20.3267C406.856 20.5627 407.279 20.6807 407.792 20.6807C408.378 20.6807 408.903 20.522 409.367 20.2046C409.831 19.8791 410.148 19.4803 410.319 19.0083C410.49 18.5282 410.575 17.3604 410.575 15.5049V10.0361H414.005V23H410.819ZM421.354 23H417.923V10.0361H421.109V11.8794C421.655 11.0086 422.143 10.4349 422.574 10.1582C423.014 9.88151 423.51 9.74316 424.063 9.74316C424.845 9.74316 425.597 9.95882 426.322 10.3901L425.26 13.3809C424.682 13.0065 424.145 12.8193 423.648 12.8193C423.168 12.8193 422.761 12.9536 422.428 13.2222C422.094 13.4826 421.83 13.9587 421.634 14.6504C421.447 15.3421 421.354 16.7907 421.354 18.9961V23ZM431.595 23H428.165V10.0361H431.351V11.8794C431.896 11.0086 432.384 10.4349 432.815 10.1582C433.255 9.88151 433.751 9.74316 434.305 9.74316C435.086 9.74316 435.839 9.95882 436.563 10.3901L435.501 13.3809C434.923 13.0065 434.386 12.8193 433.89 12.8193C433.41 12.8193 433.003 12.9536 432.669 13.2222C432.335 13.4826 432.071 13.9587 431.875 14.6504C431.688 15.3421 431.595 16.7907 431.595 18.9961V23ZM446.06 18.874L449.478 19.4478C449.038 20.701 448.342 21.6572 447.39 22.3164C446.446 22.9674 445.262 23.293 443.838 23.293C441.584 23.293 439.915 22.5565 438.833 21.0835C437.979 19.9035 437.551 18.4142 437.551 16.6157C437.551 14.4673 438.113 12.7868 439.236 11.5742C440.359 10.3535 441.779 9.74316 443.496 9.74316C445.425 9.74316 446.947 10.382 448.062 11.6597C449.176 12.9292 449.709 14.8783 449.661 17.5068H441.067C441.091 18.5241 441.368 19.3175 441.897 19.8872C442.426 20.4487 443.085 20.7295 443.875 20.7295C444.412 20.7295 444.863 20.583 445.229 20.29C445.596 19.9971 445.872 19.5251 446.06 18.874ZM446.255 15.4072C446.23 14.4144 445.974 13.6616 445.486 13.1489C444.998 12.6281 444.403 12.3677 443.704 12.3677C442.955 12.3677 442.336 12.6403 441.848 13.1855C441.36 13.7308 441.12 14.4714 441.128 15.4072H446.255ZM464.76 23H461.33V16.3838C461.33 14.984 461.257 14.0807 461.11 13.6738C460.964 13.2588 460.724 12.9373 460.39 12.7095C460.065 12.4816 459.67 12.3677 459.206 12.3677C458.612 12.3677 458.079 12.5304 457.607 12.856C457.135 13.1815 456.809 13.6128 456.63 14.1499C456.459 14.687 456.374 15.6799 456.374 17.1284V23H452.944V10.0361H456.13V11.9404C457.261 10.4756 458.685 9.74316 460.402 9.74316C461.159 9.74316 461.851 9.88151 462.478 10.1582C463.104 10.4268 463.576 10.7726 463.894 11.1958C464.219 11.619 464.443 12.0991 464.565 12.6362C464.695 13.1733 464.76 13.9424 464.76 14.9434V23ZM474.696 10.0361V12.7705H472.353V17.9951C472.353 19.0531 472.373 19.6715 472.414 19.8506C472.462 20.0215 472.564 20.1639 472.719 20.2778C472.882 20.3918 473.077 20.4487 473.305 20.4487C473.622 20.4487 474.082 20.3389 474.684 20.1191L474.977 22.7803C474.18 23.1221 473.276 23.293 472.267 23.293C471.649 23.293 471.091 23.1912 470.595 22.9878C470.098 22.7762 469.732 22.5076 469.496 22.1821C469.268 21.8485 469.11 21.4009 469.02 20.8394C468.947 20.4406 468.91 19.6349 468.91 18.4224V12.7705H467.335V10.0361H468.91V7.46045L472.353 5.4585V10.0361H474.696ZM490.979 10.0361V12.7705H488.636V17.9951C488.636 19.0531 488.656 19.6715 488.697 19.8506C488.746 20.0215 488.847 20.1639 489.002 20.2778C489.165 20.3918 489.36 20.4487 489.588 20.4487C489.905 20.4487 490.365 20.3389 490.967 20.1191L491.26 22.7803C490.463 23.1221 489.559 23.293 488.55 23.293C487.932 23.293 487.374 23.1912 486.878 22.9878C486.382 22.7762 486.015 22.5076 485.779 22.1821C485.551 21.8485 485.393 21.4009 485.303 20.8394C485.23 20.4406 485.193 19.6349 485.193 18.4224V12.7705H483.619V10.0361H485.193V7.46045L488.636 5.4585V10.0361H490.979ZM497.144 23H493.713V10.0361H496.899V11.8794C497.445 11.0086 497.933 10.4349 498.364 10.1582C498.804 9.88151 499.3 9.74316 499.854 9.74316C500.635 9.74316 501.388 9.95882 502.112 10.3901L501.05 13.3809C500.472 13.0065 499.935 12.8193 499.438 12.8193C498.958 12.8193 498.551 12.9536 498.218 13.2222C497.884 13.4826 497.62 13.9587 497.424 14.6504C497.237 15.3421 497.144 16.7907 497.144 18.9961V23ZM504.101 8.27832V5.10449H507.531V8.27832H504.101ZM504.101 23V10.0361H507.531V23H504.101ZM514.123 13.9912L511.01 13.4297C511.36 12.1764 511.962 11.2487 512.816 10.6465C513.671 10.0443 514.94 9.74316 516.625 9.74316C518.155 9.74316 519.294 9.92627 520.043 10.2925C520.792 10.6506 521.317 11.1104 521.618 11.6719C521.927 12.2253 522.082 13.2466 522.082 14.7358L522.045 18.7397C522.045 19.8791 522.098 20.7214 522.204 21.2666C522.318 21.8037 522.525 22.3815 522.826 23H519.433C519.343 22.7721 519.233 22.4344 519.103 21.9868C519.046 21.7834 519.005 21.6491 518.981 21.584C518.395 22.1536 517.768 22.5809 517.101 22.8657C516.434 23.1506 515.722 23.293 514.965 23.293C513.63 23.293 512.576 22.9308 511.803 22.2065C511.038 21.4823 510.656 20.5667 510.656 19.46C510.656 18.7275 510.831 18.0765 511.181 17.5068C511.531 16.929 512.019 16.4896 512.646 16.1885C513.28 15.8792 514.192 15.6107 515.38 15.3828C516.983 15.0817 518.094 14.8009 518.712 14.5405V14.1987C518.712 13.5396 518.55 13.0716 518.224 12.7949C517.899 12.5101 517.284 12.3677 516.381 12.3677C515.771 12.3677 515.294 12.4897 514.953 12.7339C514.611 12.9699 514.334 13.389 514.123 13.9912ZM518.712 16.7744C518.273 16.9209 517.577 17.0959 516.625 17.2993C515.673 17.5028 515.05 17.7021 514.757 17.8975C514.31 18.2148 514.086 18.6177 514.086 19.106C514.086 19.5861 514.265 20.0011 514.623 20.3511C514.981 20.701 515.437 20.876 515.99 20.876C516.609 20.876 517.199 20.6725 517.76 20.2656C518.175 19.9564 518.448 19.578 518.578 19.1304C518.668 18.8374 518.712 18.2799 518.712 17.458V16.7744ZM525.975 23V5.10449H529.405V23H525.975ZM532.225 19.3013L535.667 18.7764C535.813 19.4437 536.111 19.9523 536.558 20.3022C537.006 20.644 537.632 20.8149 538.438 20.8149C539.325 20.8149 539.992 20.6522 540.44 20.3267C540.741 20.0988 540.892 19.7936 540.892 19.4111C540.892 19.1507 540.81 18.9351 540.647 18.7642C540.477 18.6014 540.094 18.4508 539.5 18.3125C536.733 17.7021 534.979 17.1447 534.239 16.6401C533.213 15.9403 532.701 14.9678 532.701 13.7227C532.701 12.5996 533.144 11.6556 534.031 10.8906C534.918 10.1257 536.294 9.74316 538.157 9.74316C539.931 9.74316 541.25 10.0321 542.112 10.6099C542.975 11.1877 543.569 12.0422 543.895 13.1733L540.66 13.7715C540.521 13.2669 540.257 12.8804 539.866 12.6118C539.484 12.3433 538.934 12.209 538.218 12.209C537.315 12.209 536.668 12.3351 536.277 12.5874C536.017 12.7664 535.887 12.9984 535.887 13.2832C535.887 13.5273 536.001 13.7349 536.229 13.9058C536.538 14.1336 537.604 14.4551 539.427 14.8701C541.258 15.2852 542.535 15.7938 543.26 16.396C543.976 17.0063 544.334 17.8568 544.334 18.9473C544.334 20.1354 543.838 21.1567 542.845 22.0112C541.852 22.8657 540.383 23.293 538.438 23.293C536.672 23.293 535.272 22.9349 534.239 22.2188C533.213 21.5026 532.542 20.5301 532.225 19.3013ZM32.5859 48.3013L36.0283 47.7764C36.1748 48.4437 36.4718 48.9523 36.9194 49.3022C37.367 49.644 37.9937 49.8149 38.7993 49.8149C39.6864 49.8149 40.3537 49.6522 40.8013 49.3267C41.1024 49.0988 41.2529 48.7936 41.2529 48.4111C41.2529 48.1507 41.1715 47.9351 41.0088 47.7642C40.8379 47.6014 40.4554 47.4508 39.8613 47.3125C37.0944 46.7021 35.3407 46.1447 34.6001 45.6401C33.5747 44.9403 33.062 43.9678 33.062 42.7227C33.062 41.5996 33.5055 40.6556 34.3926 39.8906C35.2796 39.1257 36.6549 38.7432 38.5186 38.7432C40.2926 38.7432 41.611 39.0321 42.4736 39.6099C43.3363 40.1877 43.9303 41.0422 44.2559 42.1733L41.021 42.7715C40.8826 42.2669 40.6182 41.8804 40.2275 41.6118C39.8451 41.3433 39.2957 41.209 38.5796 41.209C37.6763 41.209 37.0293 41.3351 36.6387 41.5874C36.3783 41.7664 36.248 41.9984 36.248 42.2832C36.248 42.5273 36.362 42.7349 36.5898 42.9058C36.8991 43.1336 37.9652 43.4551 39.7881 43.8701C41.6191 44.2852 42.8968 44.7938 43.6211 45.396C44.3372 46.0063 44.6953 46.8568 44.6953 47.9473C44.6953 49.1354 44.1989 50.1567 43.2061 51.0112C42.2132 51.8657 40.7443 52.293 38.7993 52.293C37.0334 52.293 35.6336 51.9349 34.6001 51.2188C33.5747 50.5026 32.9033 49.5301 32.5859 48.3013ZM55.7178 47.874L59.1357 48.4478C58.6963 49.701 58.0005 50.6572 57.0483 51.3164C56.1043 51.9674 54.9202 52.293 53.4961 52.293C51.2419 52.293 49.5736 51.5565 48.4912 50.0835C47.6367 48.9035 47.2095 47.4142 47.2095 45.6157C47.2095 43.4673 47.771 41.7868 48.894 40.5742C50.0171 39.3535 51.4372 38.7432 53.1543 38.7432C55.083 38.7432 56.6048 39.382 57.7197 40.6597C58.8346 41.9292 59.3677 43.8783 59.3188 46.5068H50.7251C50.7495 47.5241 51.0262 48.3175 51.5552 48.8872C52.0841 49.4487 52.7433 49.7295 53.5327 49.7295C54.0698 49.7295 54.5215 49.583 54.8877 49.29C55.2539 48.9971 55.5306 48.5251 55.7178 47.874ZM55.9131 44.4072C55.8887 43.4144 55.6323 42.6616 55.144 42.1489C54.6558 41.6281 54.0617 41.3677 53.3618 41.3677C52.6131 41.3677 51.9946 41.6403 51.5063 42.1855C51.0181 42.7308 50.778 43.4714 50.7861 44.4072H55.9131ZM65.1899 42.9912L62.0771 42.4297C62.4271 41.1764 63.0293 40.2487 63.8838 39.6465C64.7383 39.0443 66.0078 38.7432 67.6924 38.7432C69.2223 38.7432 70.3617 38.9263 71.1104 39.2925C71.859 39.6506 72.384 40.1104 72.6851 40.6719C72.9943 41.2253 73.1489 42.2466 73.1489 43.7358L73.1123 47.7397C73.1123 48.8791 73.1652 49.7214 73.271 50.2666C73.3849 50.8037 73.5924 51.3815 73.8936 52H70.5C70.4105 51.7721 70.3006 51.4344 70.1704 50.9868C70.1134 50.7834 70.0728 50.6491 70.0483 50.584C69.4624 51.1536 68.8358 51.5809 68.1685 51.8657C67.5011 52.1506 66.7891 52.293 66.0322 52.293C64.6976 52.293 63.6437 51.9308 62.8706 51.2065C62.1056 50.4823 61.7231 49.5667 61.7231 48.46C61.7231 47.7275 61.8981 47.0765 62.248 46.5068C62.598 45.929 63.0863 45.4896 63.7129 45.1885C64.3477 44.8792 65.2591 44.6107 66.4473 44.3828C68.0505 44.0817 69.1613 43.8009 69.7798 43.5405V43.1987C69.7798 42.5396 69.617 42.0716 69.2915 41.7949C68.966 41.5101 68.3516 41.3677 67.4482 41.3677C66.8379 41.3677 66.3618 41.4897 66.02 41.7339C65.6782 41.9699 65.4015 42.389 65.1899 42.9912ZM69.7798 45.7744C69.3403 45.9209 68.6445 46.0959 67.6924 46.2993C66.7402 46.5028 66.1177 46.7021 65.8247 46.8975C65.3771 47.2148 65.1533 47.6177 65.1533 48.106C65.1533 48.5861 65.3324 49.0011 65.6904 49.3511C66.0485 49.701 66.5042 49.876 67.0576 49.876C67.6761 49.876 68.2661 49.6725 68.8276 49.2656C69.2427 48.9564 69.5153 48.578 69.6455 48.1304C69.735 47.8374 69.7798 47.2799 69.7798 46.458V45.7744ZM80.3262 52H76.896V39.0361H80.082V40.8794C80.6273 40.0086 81.1156 39.4349 81.5469 39.1582C81.9863 38.8815 82.4827 38.7432 83.0361 38.7432C83.8174 38.7432 84.5701 38.9588 85.2944 39.3901L84.2324 42.3809C83.6546 42.0065 83.1175 41.8193 82.6211 41.8193C82.141 41.8193 81.734 41.9536 81.4004 42.2222C81.0667 42.4826 80.8022 42.9587 80.6069 43.6504C80.4198 44.3421 80.3262 45.7907 80.3262 47.9961V52ZM98.5874 42.8691L95.2061 43.4795C95.0921 42.804 94.8317 42.2954 94.4248 41.9536C94.026 41.6118 93.5052 41.4409 92.8623 41.4409C92.0078 41.4409 91.3242 41.738 90.8115 42.332C90.307 42.918 90.0547 43.9027 90.0547 45.2861C90.0547 46.8242 90.311 47.9106 90.8237 48.5454C91.3446 49.1802 92.0404 49.4976 92.9111 49.4976C93.5622 49.4976 94.0952 49.3145 94.5103 48.9482C94.9253 48.5739 95.2183 47.9351 95.3892 47.0317L98.7583 47.6055C98.4084 49.1517 97.737 50.3195 96.7441 51.1089C95.7513 51.8983 94.4207 52.293 92.7524 52.293C90.8563 52.293 89.3426 51.6948 88.2114 50.4985C87.0884 49.3022 86.5269 47.6462 86.5269 45.5303C86.5269 43.39 87.0924 41.7257 88.2236 40.5376C89.3548 39.3413 90.8848 38.7432 92.8135 38.7432C94.3923 38.7432 95.6455 39.085 96.5732 39.7686C97.5091 40.444 98.1805 41.4775 98.5874 42.8691ZM105.118 34.1045V40.6841C106.224 39.3901 107.547 38.7432 109.085 38.7432C109.874 38.7432 110.586 38.8896 111.221 39.1826C111.856 39.4756 112.332 39.8499 112.649 40.3057C112.975 40.7614 113.195 41.266 113.309 41.8193C113.431 42.3727 113.492 43.2313 113.492 44.395V52H110.062V45.1519C110.062 43.7928 109.996 42.9302 109.866 42.564C109.736 42.1978 109.504 41.9089 109.17 41.6973C108.845 41.4775 108.434 41.3677 107.938 41.3677C107.368 41.3677 106.859 41.506 106.412 41.7827C105.964 42.0594 105.634 42.4785 105.423 43.04C105.219 43.5934 105.118 44.4154 105.118 45.5059V52H101.688V34.1045H105.118ZM127.358 52L123.256 39.0361H126.589L129.018 47.5322L131.252 39.0361H134.56L136.721 47.5322L139.199 39.0361H142.58L138.417 52H135.122L132.888 43.6626L130.69 52H127.358ZM152.406 47.874L155.824 48.4478C155.385 49.701 154.689 50.6572 153.737 51.3164C152.793 51.9674 151.609 52.293 150.185 52.293C147.93 52.293 146.262 51.5565 145.18 50.0835C144.325 48.9035 143.898 47.4142 143.898 45.6157C143.898 43.4673 144.459 41.7868 145.583 40.5742C146.706 39.3535 148.126 38.7432 149.843 38.7432C151.771 38.7432 153.293 39.382 154.408 40.6597C155.523 41.9292 156.056 43.8783 156.007 46.5068H147.414C147.438 47.5241 147.715 48.3175 148.244 48.8872C148.773 49.4487 149.432 49.7295 150.221 49.7295C150.758 49.7295 151.21 49.583 151.576 49.29C151.942 48.9971 152.219 48.5251 152.406 47.874ZM152.602 44.4072C152.577 43.4144 152.321 42.6616 151.833 42.1489C151.344 41.6281 150.75 41.3677 150.05 41.3677C149.302 41.3677 148.683 41.6403 148.195 42.1855C147.707 42.7308 147.466 43.4714 147.475 44.4072H152.602ZM159.168 52V34.1045H162.599V40.5498C163.657 39.3454 164.91 38.7432 166.358 38.7432C167.937 38.7432 169.243 39.3169 170.277 40.4644C171.31 41.6037 171.827 43.2435 171.827 45.3838C171.827 47.5973 171.298 49.3022 170.24 50.4985C169.19 51.6948 167.913 52.293 166.407 52.293C165.667 52.293 164.934 52.1099 164.21 51.7437C163.494 51.3693 162.875 50.82 162.354 50.0957V52H159.168ZM162.574 45.2373C162.574 46.5801 162.786 47.5729 163.209 48.2158C163.803 49.1273 164.592 49.583 165.577 49.583C166.334 49.583 166.977 49.2616 167.506 48.6187C168.043 47.9676 168.312 46.9463 168.312 45.5547C168.312 44.0736 168.043 43.0075 167.506 42.3564C166.969 41.6973 166.281 41.3677 165.443 41.3677C164.621 41.3677 163.937 41.6891 163.392 42.332C162.847 42.9668 162.574 43.9352 162.574 45.2373ZM173.89 48.3013L177.332 47.7764C177.479 48.4437 177.776 48.9523 178.223 49.3022C178.671 49.644 179.297 49.8149 180.103 49.8149C180.99 49.8149 181.657 49.6522 182.105 49.3267C182.406 49.0988 182.557 48.7936 182.557 48.4111C182.557 48.1507 182.475 47.9351 182.312 47.7642C182.142 47.6014 181.759 47.4508 181.165 47.3125C178.398 46.7021 176.644 46.1447 175.904 45.6401C174.878 44.9403 174.366 43.9678 174.366 42.7227C174.366 41.5996 174.809 40.6556 175.696 39.8906C176.583 39.1257 177.959 38.7432 179.822 38.7432C181.596 38.7432 182.915 39.0321 183.777 39.6099C184.64 40.1877 185.234 41.0422 185.56 42.1733L182.325 42.7715C182.186 42.2669 181.922 41.8804 181.531 41.6118C181.149 41.3433 180.599 41.209 179.883 41.209C178.98 41.209 178.333 41.3351 177.942 41.5874C177.682 41.7664 177.552 41.9984 177.552 42.2832C177.552 42.5273 177.666 42.7349 177.894 42.9058C178.203 43.1336 179.269 43.4551 181.092 43.8701C182.923 44.2852 184.201 44.7938 184.925 45.396C185.641 46.0063 185.999 46.8568 185.999 47.9473C185.999 49.1354 185.503 50.1567 184.51 51.0112C183.517 51.8657 182.048 52.293 180.103 52.293C178.337 52.293 176.937 51.9349 175.904 51.2188C174.878 50.5026 174.207 49.5301 173.89 48.3013ZM189.514 37.2783V34.1045H192.944V37.2783H189.514ZM189.514 52V39.0361H192.944V52H189.514ZM202.917 39.0361V41.7705H200.573V46.9951C200.573 48.0531 200.594 48.6715 200.634 48.8506C200.683 49.0215 200.785 49.1639 200.939 49.2778C201.102 49.3918 201.298 49.4487 201.525 49.4487C201.843 49.4487 202.303 49.3389 202.905 49.1191L203.198 51.7803C202.4 52.1221 201.497 52.293 200.488 52.293C199.869 52.293 199.312 52.1912 198.815 51.9878C198.319 51.7762 197.953 51.5076 197.717 51.1821C197.489 50.8485 197.33 50.4009 197.241 49.8394C197.167 49.4406 197.131 48.6349 197.131 47.4224V41.7705H195.556V39.0361H197.131V36.4604L200.573 34.4585V39.0361H202.917ZM213.305 47.874L216.723 48.4478C216.283 49.701 215.587 50.6572 214.635 51.3164C213.691 51.9674 212.507 52.293 211.083 52.293C208.829 52.293 207.16 51.5565 206.078 50.0835C205.224 48.9035 204.796 47.4142 204.796 45.6157C204.796 43.4673 205.358 41.7868 206.481 40.5742C207.604 39.3535 209.024 38.7432 210.741 38.7432C212.67 38.7432 214.192 39.382 215.307 40.6597C216.422 41.9292 216.955 43.8783 216.906 46.5068H208.312C208.336 47.5241 208.613 48.3175 209.142 48.8872C209.671 49.4487 210.33 49.7295 211.12 49.7295C211.657 49.7295 212.108 49.583 212.475 49.29C212.841 48.9971 213.118 48.5251 213.305 47.874ZM213.5 44.4072C213.476 43.4144 213.219 42.6616 212.731 42.1489C212.243 41.6281 211.649 41.3677 210.949 41.3677C210.2 41.3677 209.582 41.6403 209.093 42.1855C208.605 42.7308 208.365 43.4714 208.373 44.4072H213.5ZM219.005 48.3013L222.447 47.7764C222.594 48.4437 222.891 48.9523 223.338 49.3022C223.786 49.644 224.413 49.8149 225.218 49.8149C226.105 49.8149 226.773 49.6522 227.22 49.3267C227.521 49.0988 227.672 48.7936 227.672 48.4111C227.672 48.1507 227.59 47.9351 227.428 47.7642C227.257 47.6014 226.874 47.4508 226.28 47.3125C223.513 46.7021 221.76 46.1447 221.019 45.6401C219.994 44.9403 219.481 43.9678 219.481 42.7227C219.481 41.5996 219.924 40.6556 220.812 39.8906C221.699 39.1257 223.074 38.7432 224.938 38.7432C226.712 38.7432 228.03 39.0321 228.893 39.6099C229.755 40.1877 230.349 41.0422 230.675 42.1733L227.44 42.7715C227.302 42.2669 227.037 41.8804 226.646 41.6118C226.264 41.3433 225.715 41.209 224.999 41.209C224.095 41.209 223.448 41.3351 223.058 41.5874C222.797 41.7664 222.667 41.9984 222.667 42.2832C222.667 42.5273 222.781 42.7349 223.009 42.9058C223.318 43.1336 224.384 43.4551 226.207 43.8701C228.038 44.2852 229.316 44.7938 230.04 45.396C230.756 46.0063 231.114 46.8568 231.114 47.9473C231.114 49.1354 230.618 50.1567 229.625 51.0112C228.632 51.8657 227.163 52.293 225.218 52.293C223.452 52.293 222.053 51.9349 221.019 51.2188C219.994 50.5026 219.322 49.5301 219.005 48.3013ZM242.002 47.3857H238.89C238.882 46.9382 238.877 46.6655 238.877 46.5679C238.877 45.5588 239.044 44.7287 239.378 44.0776C239.712 43.4266 240.379 42.6942 241.38 41.8804C242.381 41.0666 242.979 40.5335 243.174 40.2812C243.475 39.8825 243.626 39.443 243.626 38.9629C243.626 38.2956 243.357 37.7259 242.82 37.2539C242.291 36.7738 241.575 36.5337 240.672 36.5337C239.801 36.5337 239.073 36.7819 238.487 37.2783C237.901 37.7747 237.498 38.5316 237.278 39.5488L234.129 39.1582C234.218 37.7015 234.837 36.4645 235.984 35.4473C237.14 34.43 238.654 33.9214 240.525 33.9214C242.495 33.9214 244.061 34.4382 245.225 35.4717C246.389 36.4971 246.971 37.6934 246.971 39.0605C246.971 39.8174 246.755 40.5335 246.324 41.209C245.901 41.8844 244.989 42.804 243.589 43.9678C242.865 44.57 242.413 45.0542 242.234 45.4204C242.063 45.7866 241.986 46.4417 242.002 47.3857ZM238.89 52V48.5698H242.32V52H238.89Z" fill="black"/>
<circle cx="46.5" cy="117.5" r="13.5" fill="white" stroke="black" stroke-width="2"/>
<path d="M90.0435 126L83.1099 108.104H85.6733L90.3242 121.105C90.6986 122.147 91.0119 123.123 91.2642 124.035C91.5409 123.058 91.8623 122.082 92.2285 121.105L97.0625 108.104H99.4795L92.4727 126H90.0435ZM109.306 121.825L111.576 122.106C111.218 123.432 110.555 124.462 109.586 125.194C108.618 125.927 107.381 126.293 105.875 126.293C103.979 126.293 102.474 125.711 101.359 124.547C100.252 123.375 99.6987 121.736 99.6987 119.628C99.6987 117.447 100.26 115.754 101.383 114.55C102.506 113.345 103.963 112.743 105.753 112.743C107.487 112.743 108.903 113.333 110.001 114.513C111.1 115.693 111.649 117.353 111.649 119.494C111.649 119.624 111.645 119.819 111.637 120.08H101.969C102.051 121.504 102.453 122.594 103.178 123.351C103.902 124.108 104.805 124.486 105.888 124.486C106.693 124.486 107.381 124.275 107.951 123.852C108.52 123.428 108.972 122.753 109.306 121.825ZM102.091 118.273H109.33C109.232 117.182 108.956 116.365 108.5 115.819C107.8 114.973 106.893 114.55 105.778 114.55C104.769 114.55 103.918 114.888 103.227 115.563C102.543 116.238 102.165 117.142 102.091 118.273ZM114.823 126V113.036H116.8V115.001C117.305 114.082 117.769 113.476 118.192 113.183C118.623 112.89 119.095 112.743 119.608 112.743C120.348 112.743 121.101 112.979 121.866 113.451L121.109 115.49C120.572 115.172 120.035 115.014 119.498 115.014C119.018 115.014 118.587 115.16 118.204 115.453C117.822 115.738 117.549 116.137 117.386 116.649C117.142 117.431 117.02 118.285 117.02 119.213V126H114.823ZM123.575 130.993L123.331 128.93C123.811 129.06 124.23 129.125 124.588 129.125C125.076 129.125 125.467 129.044 125.76 128.881C126.053 128.718 126.293 128.49 126.48 128.197C126.618 127.978 126.842 127.432 127.151 126.562C127.192 126.439 127.257 126.26 127.347 126.024L122.427 113.036H124.795L127.493 120.543C127.843 121.496 128.156 122.497 128.433 123.546C128.685 122.537 128.986 121.553 129.336 120.592L132.107 113.036H134.305L129.373 126.22C128.844 127.644 128.433 128.625 128.14 129.162C127.75 129.886 127.302 130.415 126.797 130.749C126.293 131.09 125.691 131.261 124.991 131.261C124.568 131.261 124.096 131.172 123.575 130.993ZM152.59 121.251L154.75 121.532C154.514 123.021 153.908 124.189 152.932 125.036C151.963 125.874 150.771 126.293 149.355 126.293C147.581 126.293 146.153 125.715 145.07 124.56C143.996 123.396 143.459 121.732 143.459 119.567C143.459 118.167 143.691 116.942 144.155 115.893C144.619 114.843 145.323 114.057 146.267 113.537C147.219 113.008 148.252 112.743 149.367 112.743C150.775 112.743 151.927 113.101 152.822 113.817C153.717 114.525 154.291 115.535 154.543 116.845L152.407 117.174C152.203 116.304 151.841 115.648 151.32 115.209C150.808 114.77 150.185 114.55 149.453 114.55C148.346 114.55 147.447 114.949 146.755 115.746C146.063 116.535 145.717 117.789 145.717 119.506C145.717 121.247 146.051 122.513 146.718 123.302C147.386 124.092 148.256 124.486 149.331 124.486C150.193 124.486 150.913 124.222 151.491 123.693C152.069 123.164 152.435 122.35 152.59 121.251ZM156.312 119.518C156.312 117.117 156.98 115.339 158.314 114.184C159.429 113.223 160.788 112.743 162.392 112.743C164.174 112.743 165.631 113.329 166.762 114.501C167.893 115.665 168.458 117.276 168.458 119.335C168.458 121.003 168.206 122.318 167.702 123.278C167.205 124.23 166.477 124.971 165.517 125.5C164.564 126.028 163.523 126.293 162.392 126.293C160.577 126.293 159.108 125.711 157.985 124.547C156.87 123.384 156.312 121.707 156.312 119.518ZM158.571 119.518C158.571 121.178 158.933 122.423 159.657 123.253C160.382 124.075 161.293 124.486 162.392 124.486C163.482 124.486 164.389 124.071 165.114 123.241C165.838 122.411 166.2 121.146 166.2 119.445C166.2 117.842 165.834 116.629 165.102 115.807C164.377 114.977 163.474 114.562 162.392 114.562C161.293 114.562 160.382 114.973 159.657 115.795C158.933 116.617 158.571 117.858 158.571 119.518ZM171.546 126V113.036H173.524V114.879C174.476 113.455 175.851 112.743 177.65 112.743C178.431 112.743 179.147 112.886 179.798 113.17C180.458 113.447 180.95 113.813 181.275 114.269C181.601 114.725 181.829 115.266 181.959 115.893C182.04 116.299 182.081 117.012 182.081 118.029V126H179.884V118.114C179.884 117.219 179.798 116.552 179.627 116.112C179.457 115.665 179.151 115.311 178.712 115.05C178.281 114.782 177.772 114.647 177.186 114.647C176.25 114.647 175.44 114.944 174.757 115.539C174.081 116.133 173.744 117.26 173.744 118.92V126H171.546ZM189.563 126L184.632 113.036H186.951L189.734 120.8C190.035 121.638 190.312 122.509 190.564 123.412C190.76 122.729 191.032 121.907 191.382 120.946L194.263 113.036H196.521L191.614 126H189.563ZM207.837 121.825L210.107 122.106C209.749 123.432 209.086 124.462 208.118 125.194C207.149 125.927 205.912 126.293 204.407 126.293C202.511 126.293 201.005 125.711 199.89 124.547C198.783 123.375 198.23 121.736 198.23 119.628C198.23 117.447 198.792 115.754 199.915 114.55C201.038 113.345 202.494 112.743 204.285 112.743C206.018 112.743 207.434 113.333 208.533 114.513C209.631 115.693 210.181 117.353 210.181 119.494C210.181 119.624 210.177 119.819 210.168 120.08H200.5C200.582 121.504 200.985 122.594 201.709 123.351C202.433 124.108 203.337 124.486 204.419 124.486C205.225 124.486 205.912 124.275 206.482 123.852C207.052 123.428 207.503 122.753 207.837 121.825ZM200.623 118.273H207.861C207.764 117.182 207.487 116.365 207.031 115.819C206.331 114.973 205.424 114.55 204.309 114.55C203.3 114.55 202.45 114.888 201.758 115.563C201.074 116.238 200.696 117.142 200.623 118.273ZM213.378 126V113.036H215.356V114.879C216.308 113.455 217.683 112.743 219.482 112.743C220.263 112.743 220.979 112.886 221.63 113.17C222.29 113.447 222.782 113.813 223.107 114.269C223.433 114.725 223.661 115.266 223.791 115.893C223.872 116.299 223.913 117.012 223.913 118.029V126H221.716V118.114C221.716 117.219 221.63 116.552 221.459 116.112C221.289 115.665 220.983 115.311 220.544 115.05C220.113 114.782 219.604 114.647 219.018 114.647C218.082 114.647 217.272 114.944 216.589 115.539C215.913 116.133 215.576 117.26 215.576 118.92V126H213.378ZM227.807 110.631V108.104H230.004V110.631H227.807ZM227.807 126V113.036H230.004V126H227.807ZM242.735 121.825L245.006 122.106C244.648 123.432 243.985 124.462 243.016 125.194C242.048 125.927 240.811 126.293 239.305 126.293C237.409 126.293 235.903 125.711 234.789 124.547C233.682 123.375 233.128 121.736 233.128 119.628C233.128 117.447 233.69 115.754 234.813 114.55C235.936 113.345 237.393 112.743 239.183 112.743C240.917 112.743 242.333 113.333 243.431 114.513C244.53 115.693 245.079 117.353 245.079 119.494C245.079 119.624 245.075 119.819 245.067 120.08H235.399C235.48 121.504 235.883 122.594 236.607 123.351C237.332 124.108 238.235 124.486 239.317 124.486C240.123 124.486 240.811 124.275 241.38 123.852C241.95 123.428 242.402 122.753 242.735 121.825ZM235.521 118.273H242.76C242.662 117.182 242.385 116.365 241.93 115.819C241.23 114.973 240.322 114.55 239.208 114.55C238.198 114.55 237.348 114.888 236.656 115.563C235.973 116.238 235.594 117.142 235.521 118.273ZM248.277 126V113.036H250.254V114.879C251.207 113.455 252.582 112.743 254.38 112.743C255.162 112.743 255.878 112.886 256.529 113.17C257.188 113.447 257.68 113.813 258.006 114.269C258.331 114.725 258.559 115.266 258.689 115.893C258.771 116.299 258.812 117.012 258.812 118.029V126H256.614V118.114C256.614 117.219 256.529 116.552 256.358 116.112C256.187 115.665 255.882 115.311 255.442 115.05C255.011 114.782 254.502 114.647 253.917 114.647C252.981 114.647 252.171 114.944 251.487 115.539C250.812 116.133 250.474 117.26 250.474 118.92V126H248.277ZM267.49 124.035L267.808 125.976C267.189 126.106 266.636 126.171 266.147 126.171C265.35 126.171 264.731 126.045 264.292 125.792C263.853 125.54 263.543 125.211 263.364 124.804C263.185 124.389 263.096 123.522 263.096 122.204V114.745H261.484V113.036H263.096V109.826L265.281 108.507V113.036H267.49V114.745H265.281V122.326C265.281 122.952 265.317 123.355 265.391 123.534C265.472 123.713 265.598 123.856 265.769 123.961C265.948 124.067 266.2 124.12 266.526 124.12C266.77 124.12 267.091 124.092 267.49 124.035Z" fill="black"/>
<circle cx="46.5" cy="176.5" r="13.5" fill="white" stroke="black" stroke-width="2"/>
<path d="M97.6973 178.726L100.065 179.324C99.569 181.269 98.6738 182.754 97.3799 183.779C96.0941 184.797 94.5194 185.305 92.6558 185.305C90.7271 185.305 89.1564 184.915 87.9438 184.133C86.7394 183.344 85.8198 182.205 85.1851 180.715C84.5584 179.226 84.2451 177.627 84.2451 175.918C84.2451 174.054 84.5991 172.431 85.3071 171.047C86.0233 169.656 87.0365 168.602 88.3467 167.886C89.665 167.161 91.1136 166.799 92.6924 166.799C94.4827 166.799 95.9883 167.255 97.209 168.167C98.4297 169.078 99.2801 170.36 99.7603 172.012L97.4287 172.561C97.0137 171.259 96.4115 170.311 95.6221 169.717C94.8327 169.123 93.8398 168.826 92.6436 168.826C91.2682 168.826 90.1167 169.155 89.189 169.814C88.2694 170.474 87.6224 171.361 87.248 172.476C86.8737 173.582 86.6865 174.726 86.6865 175.906C86.6865 177.428 86.9062 178.758 87.3457 179.897C87.7933 181.029 88.485 181.875 89.4209 182.437C90.3568 182.998 91.37 183.279 92.4604 183.279C93.7869 183.279 94.91 182.896 95.8296 182.131C96.7492 181.366 97.3717 180.231 97.6973 178.726ZM102.396 178.518C102.396 176.117 103.064 174.339 104.398 173.184C105.513 172.223 106.872 171.743 108.476 171.743C110.258 171.743 111.715 172.329 112.846 173.501C113.977 174.665 114.542 176.276 114.542 178.335C114.542 180.003 114.29 181.318 113.786 182.278C113.289 183.23 112.561 183.971 111.601 184.5C110.648 185.028 109.607 185.293 108.476 185.293C106.661 185.293 105.192 184.711 104.069 183.547C102.954 182.384 102.396 180.707 102.396 178.518ZM104.655 178.518C104.655 180.178 105.017 181.423 105.741 182.253C106.465 183.075 107.377 183.486 108.476 183.486C109.566 183.486 110.473 183.071 111.198 182.241C111.922 181.411 112.284 180.146 112.284 178.445C112.284 176.842 111.918 175.629 111.186 174.807C110.461 173.977 109.558 173.562 108.476 173.562C107.377 173.562 106.465 173.973 105.741 174.795C105.017 175.617 104.655 176.858 104.655 178.518ZM117.63 185V172.036H119.608V173.879C120.56 172.455 121.935 171.743 123.734 171.743C124.515 171.743 125.231 171.886 125.882 172.17C126.542 172.447 127.034 172.813 127.359 173.269C127.685 173.725 127.913 174.266 128.043 174.893C128.124 175.299 128.165 176.012 128.165 177.029V185H125.968V177.114C125.968 176.219 125.882 175.552 125.711 175.112C125.541 174.665 125.235 174.311 124.796 174.05C124.365 173.782 123.856 173.647 123.27 173.647C122.334 173.647 121.524 173.944 120.841 174.539C120.165 175.133 119.828 176.26 119.828 177.92V185H117.63ZM135.647 185L130.716 172.036H133.035L135.818 179.8C136.119 180.638 136.396 181.509 136.648 182.412C136.844 181.729 137.116 180.907 137.466 179.946L140.347 172.036H142.605L137.698 185H135.647ZM153.921 180.825L156.191 181.106C155.833 182.432 155.17 183.462 154.202 184.194C153.233 184.927 151.996 185.293 150.491 185.293C148.595 185.293 147.089 184.711 145.974 183.547C144.867 182.375 144.314 180.736 144.314 178.628C144.314 176.447 144.875 174.754 145.999 173.55C147.122 172.345 148.578 171.743 150.369 171.743C152.102 171.743 153.518 172.333 154.617 173.513C155.715 174.693 156.265 176.353 156.265 178.494C156.265 178.624 156.261 178.819 156.252 179.08H146.584C146.666 180.504 147.069 181.594 147.793 182.351C148.517 183.108 149.421 183.486 150.503 183.486C151.309 183.486 151.996 183.275 152.566 182.852C153.136 182.428 153.587 181.753 153.921 180.825ZM146.707 177.273H153.945C153.848 176.182 153.571 175.365 153.115 174.819C152.415 173.973 151.508 173.55 150.393 173.55C149.384 173.55 148.534 173.888 147.842 174.563C147.158 175.238 146.78 176.142 146.707 177.273ZM159.462 185V172.036H161.44V173.879C162.392 172.455 163.767 171.743 165.566 171.743C166.347 171.743 167.063 171.886 167.714 172.17C168.374 172.447 168.866 172.813 169.191 173.269C169.517 173.725 169.745 174.266 169.875 174.893C169.956 175.299 169.997 176.012 169.997 177.029V185H167.8V177.114C167.8 176.219 167.714 175.552 167.543 175.112C167.373 174.665 167.067 174.311 166.628 174.05C166.197 173.782 165.688 173.647 165.102 173.647C164.166 173.647 163.356 173.944 162.673 174.539C161.997 175.133 161.66 176.26 161.66 177.92V185H159.462ZM173.891 169.631V167.104H176.088V169.631H173.891ZM173.891 185V172.036H176.088V185H173.891ZM188.819 180.825L191.09 181.106C190.732 182.432 190.069 183.462 189.1 184.194C188.132 184.927 186.895 185.293 185.389 185.293C183.493 185.293 181.987 184.711 180.873 183.547C179.766 182.375 179.212 180.736 179.212 178.628C179.212 176.447 179.774 174.754 180.897 173.55C182.02 172.345 183.477 171.743 185.267 171.743C187 171.743 188.417 172.333 189.515 173.513C190.614 174.693 191.163 176.353 191.163 178.494C191.163 178.624 191.159 178.819 191.151 179.08H181.483C181.564 180.504 181.967 181.594 182.691 182.351C183.416 183.108 184.319 183.486 185.401 183.486C186.207 183.486 186.895 183.275 187.464 182.852C188.034 182.428 188.486 181.753 188.819 180.825ZM181.605 177.273H188.844C188.746 176.182 188.469 175.365 188.014 174.819C187.314 173.973 186.406 173.55 185.292 173.55C184.282 173.55 183.432 173.888 182.74 174.563C182.057 175.238 181.678 176.142 181.605 177.273ZM194.361 185V172.036H196.338V173.879C197.291 172.455 198.666 171.743 200.464 171.743C201.246 171.743 201.962 171.886 202.613 172.17C203.272 172.447 203.764 172.813 204.09 173.269C204.415 173.725 204.643 174.266 204.773 174.893C204.855 175.299 204.896 176.012 204.896 177.029V185H202.698V177.114C202.698 176.219 202.613 175.552 202.442 175.112C202.271 174.665 201.966 174.311 201.526 174.05C201.095 173.782 200.586 173.647 200 173.647C199.065 173.647 198.255 173.944 197.571 174.539C196.896 175.133 196.558 176.26 196.558 177.92V185H194.361ZM213.574 183.035L213.892 184.976C213.273 185.106 212.72 185.171 212.231 185.171C211.434 185.171 210.815 185.045 210.376 184.792C209.937 184.54 209.627 184.211 209.448 183.804C209.269 183.389 209.18 182.522 209.18 181.204V173.745H207.568V172.036H209.18V168.826L211.365 167.507V172.036H213.574V173.745H211.365V181.326C211.365 181.952 211.401 182.355 211.475 182.534C211.556 182.713 211.682 182.856 211.853 182.961C212.032 183.067 212.284 183.12 212.61 183.12C212.854 183.12 213.175 183.092 213.574 183.035Z" fill="black"/>
<circle cx="46.5" cy="235.5" r="13.5" fill="#808080" stroke="black" stroke-width="2"/>
<path d="M84.9043 244V226.104H87.3335L96.7329 240.155V226.104H99.0034V244H96.5742L87.1748 229.938V244H84.9043ZM102.396 237.518C102.396 235.117 103.064 233.339 104.398 232.184C105.513 231.223 106.872 230.743 108.476 230.743C110.258 230.743 111.715 231.329 112.846 232.501C113.977 233.665 114.542 235.276 114.542 237.335C114.542 239.003 114.29 240.318 113.786 241.278C113.289 242.23 112.561 242.971 111.601 243.5C110.648 244.028 109.607 244.293 108.476 244.293C106.661 244.293 105.192 243.711 104.069 242.547C102.954 241.384 102.396 239.707 102.396 237.518ZM104.655 237.518C104.655 239.178 105.017 240.423 105.741 241.253C106.465 242.075 107.377 242.486 108.476 242.486C109.566 242.486 110.473 242.071 111.198 241.241C111.922 240.411 112.284 239.146 112.284 237.445C112.284 235.842 111.918 234.629 111.186 233.807C110.461 232.977 109.558 232.562 108.476 232.562C107.377 232.562 106.465 232.973 105.741 233.795C105.017 234.617 104.655 235.858 104.655 237.518ZM122.428 242.035L122.745 243.976C122.127 244.106 121.573 244.171 121.085 244.171C120.287 244.171 119.669 244.045 119.229 243.792C118.79 243.54 118.481 243.211 118.302 242.804C118.123 242.389 118.033 241.522 118.033 240.204V232.745H116.422V231.036H118.033V227.826L120.218 226.507V231.036H122.428V232.745H120.218V240.326C120.218 240.952 120.255 241.355 120.328 241.534C120.41 241.713 120.536 241.856 120.707 241.961C120.886 242.067 121.138 242.12 121.463 242.12C121.708 242.12 122.029 242.092 122.428 242.035ZM141.006 239.251L143.167 239.532C142.931 241.021 142.324 242.189 141.348 243.036C140.379 243.874 139.187 244.293 137.771 244.293C135.997 244.293 134.569 243.715 133.486 242.56C132.412 241.396 131.875 239.732 131.875 237.567C131.875 236.167 132.107 234.942 132.571 233.893C133.035 232.843 133.739 232.057 134.683 231.537C135.635 231.008 136.668 230.743 137.783 230.743C139.191 230.743 140.343 231.101 141.238 231.817C142.133 232.525 142.707 233.535 142.959 234.845L140.823 235.174C140.619 234.304 140.257 233.648 139.736 233.209C139.224 232.77 138.601 232.55 137.869 232.55C136.762 232.55 135.863 232.949 135.171 233.746C134.479 234.535 134.133 235.789 134.133 237.506C134.133 239.247 134.467 240.513 135.134 241.302C135.802 242.092 136.672 242.486 137.747 242.486C138.609 242.486 139.329 242.222 139.907 241.693C140.485 241.164 140.851 240.35 141.006 239.251ZM144.729 237.518C144.729 235.117 145.396 233.339 146.73 232.184C147.845 231.223 149.204 230.743 150.808 230.743C152.59 230.743 154.047 231.329 155.178 232.501C156.309 233.665 156.875 235.276 156.875 237.335C156.875 239.003 156.622 240.318 156.118 241.278C155.621 242.23 154.893 242.971 153.933 243.5C152.98 244.028 151.939 244.293 150.808 244.293C148.993 244.293 147.524 243.711 146.401 242.547C145.286 241.384 144.729 239.707 144.729 237.518ZM146.987 237.518C146.987 239.178 147.349 240.423 148.073 241.253C148.798 242.075 149.709 242.486 150.808 242.486C151.898 242.486 152.806 242.071 153.53 241.241C154.254 240.411 154.616 239.146 154.616 237.445C154.616 235.842 154.25 234.629 153.518 233.807C152.793 232.977 151.89 232.562 150.808 232.562C149.709 232.562 148.798 232.973 148.073 233.795C147.349 234.617 146.987 235.858 146.987 237.518ZM159.962 244V231.036H161.94V232.879C162.892 231.455 164.267 230.743 166.066 230.743C166.847 230.743 167.563 230.886 168.214 231.17C168.874 231.447 169.366 231.813 169.691 232.269C170.017 232.725 170.245 233.266 170.375 233.893C170.456 234.299 170.497 235.012 170.497 236.029V244H168.3V236.114C168.3 235.219 168.214 234.552 168.043 234.112C167.873 233.665 167.567 233.311 167.128 233.05C166.697 232.782 166.188 232.647 165.602 232.647C164.666 232.647 163.856 232.944 163.173 233.539C162.497 234.133 162.16 235.26 162.16 236.92V244H159.962ZM177.979 244L173.048 231.036H175.367L178.15 238.8C178.451 239.638 178.728 240.509 178.98 241.412C179.176 240.729 179.448 239.907 179.798 238.946L182.679 231.036H184.938L180.03 244H177.979ZM196.253 239.825L198.523 240.106C198.165 241.432 197.502 242.462 196.534 243.194C195.565 243.927 194.328 244.293 192.823 244.293C190.927 244.293 189.421 243.711 188.306 242.547C187.199 241.375 186.646 239.736 186.646 237.628C186.646 235.447 187.208 233.754 188.331 232.55C189.454 231.345 190.91 230.743 192.701 230.743C194.434 230.743 195.85 231.333 196.949 232.513C198.047 233.693 198.597 235.353 198.597 237.494C198.597 237.624 198.593 237.819 198.584 238.08H188.917C188.998 239.504 189.401 240.594 190.125 241.351C190.849 242.108 191.753 242.486 192.835 242.486C193.641 242.486 194.328 242.275 194.898 241.852C195.468 241.428 195.919 240.753 196.253 239.825ZM189.039 236.273H196.277C196.18 235.182 195.903 234.365 195.447 233.819C194.747 232.973 193.84 232.55 192.725 232.55C191.716 232.55 190.866 232.888 190.174 233.563C189.49 234.238 189.112 235.142 189.039 236.273ZM201.794 244V231.036H203.772V232.879C204.724 231.455 206.099 230.743 207.898 230.743C208.679 230.743 209.395 230.886 210.046 231.17C210.706 231.447 211.198 231.813 211.523 232.269C211.849 232.725 212.077 233.266 212.207 233.893C212.288 234.299 212.329 235.012 212.329 236.029V244H210.132V236.114C210.132 235.219 210.046 234.552 209.875 234.112C209.705 233.665 209.399 233.311 208.96 233.05C208.529 232.782 208.02 232.647 207.434 232.647C206.498 232.647 205.688 232.944 205.005 233.539C204.329 234.133 203.992 235.26 203.992 236.92V244H201.794ZM216.223 228.631V226.104H218.42V228.631H216.223ZM216.223 244V231.036H218.42V244H216.223ZM231.151 239.825L233.422 240.106C233.064 241.432 232.401 242.462 231.432 243.194C230.464 243.927 229.227 244.293 227.721 244.293C225.825 244.293 224.319 243.711 223.205 242.547C222.098 241.375 221.544 239.736 221.544 237.628C221.544 235.447 222.106 233.754 223.229 232.55C224.352 231.345 225.809 230.743 227.599 230.743C229.333 230.743 230.749 231.333 231.847 232.513C232.946 233.693 233.495 235.353 233.495 237.494C233.495 237.624 233.491 237.819 233.483 238.08H223.815C223.896 239.504 224.299 240.594 225.023 241.351C225.748 242.108 226.651 242.486 227.733 242.486C228.539 242.486 229.227 242.275 229.796 241.852C230.366 241.428 230.818 240.753 231.151 239.825ZM223.937 236.273H231.176C231.078 235.182 230.801 234.365 230.346 233.819C229.646 232.973 228.738 232.55 227.624 232.55C226.614 232.55 225.764 232.888 225.072 233.563C224.389 234.238 224.01 235.142 223.937 236.273ZM236.693 244V231.036H238.67V232.879C239.623 231.455 240.998 230.743 242.796 230.743C243.578 230.743 244.294 230.886 244.945 231.17C245.604 231.447 246.096 231.813 246.422 232.269C246.747 232.725 246.975 233.266 247.105 233.893C247.187 234.299 247.228 235.012 247.228 236.029V244H245.03V236.114C245.03 235.219 244.945 234.552 244.774 234.112C244.603 233.665 244.298 233.311 243.858 233.05C243.427 232.782 242.918 232.647 242.333 232.647C241.397 232.647 240.587 232.944 239.903 233.539C239.228 234.133 238.89 235.26 238.89 236.92V244H236.693ZM255.906 242.035L256.224 243.976C255.605 244.106 255.052 244.171 254.563 244.171C253.766 244.171 253.147 244.045 252.708 243.792C252.269 243.54 251.959 243.211 251.78 242.804C251.601 242.389 251.512 241.522 251.512 240.204V232.745H249.9V231.036H251.512V227.826L253.697 226.507V231.036H255.906V232.745H253.697V240.326C253.697 240.952 253.733 241.355 253.807 241.534C253.888 241.713 254.014 241.856 254.185 241.961C254.364 242.067 254.616 242.12 254.942 242.12C255.186 242.12 255.507 242.092 255.906 242.035Z" fill="black"/>
<circle cx="46.5" cy="294.5" r="13.5" fill="white" stroke="black" stroke-width="2"/>
<path d="M90.0435 303L83.1099 285.104H85.6733L90.3242 298.105C90.6986 299.147 91.0119 300.123 91.2642 301.035C91.5409 300.058 91.8623 299.082 92.2285 298.105L97.0625 285.104H99.4795L92.4727 303H90.0435ZM109.306 298.825L111.576 299.106C111.218 300.432 110.555 301.462 109.586 302.194C108.618 302.927 107.381 303.293 105.875 303.293C103.979 303.293 102.474 302.711 101.359 301.547C100.252 300.375 99.6987 298.736 99.6987 296.628C99.6987 294.447 100.26 292.754 101.383 291.55C102.506 290.345 103.963 289.743 105.753 289.743C107.487 289.743 108.903 290.333 110.001 291.513C111.1 292.693 111.649 294.353 111.649 296.494C111.649 296.624 111.645 296.819 111.637 297.08H101.969C102.051 298.504 102.453 299.594 103.178 300.351C103.902 301.108 104.805 301.486 105.888 301.486C106.693 301.486 107.381 301.275 107.951 300.852C108.52 300.428 108.972 299.753 109.306 298.825ZM102.091 295.273H109.33C109.232 294.182 108.956 293.365 108.5 292.819C107.8 291.973 106.893 291.55 105.778 291.55C104.769 291.55 103.918 291.888 103.227 292.563C102.543 293.238 102.165 294.142 102.091 295.273ZM114.823 303V290.036H116.8V292.001C117.305 291.082 117.769 290.476 118.192 290.183C118.623 289.89 119.095 289.743 119.608 289.743C120.348 289.743 121.101 289.979 121.866 290.451L121.109 292.49C120.572 292.172 120.035 292.014 119.498 292.014C119.018 292.014 118.587 292.16 118.204 292.453C117.822 292.738 117.549 293.137 117.386 293.649C117.142 294.431 117.02 295.285 117.02 296.213V303H114.823ZM123.575 307.993L123.331 305.93C123.811 306.06 124.23 306.125 124.588 306.125C125.076 306.125 125.467 306.044 125.76 305.881C126.053 305.718 126.293 305.49 126.48 305.197C126.618 304.978 126.842 304.432 127.151 303.562C127.192 303.439 127.257 303.26 127.347 303.024L122.427 290.036H124.795L127.493 297.543C127.843 298.496 128.156 299.497 128.433 300.546C128.685 299.537 128.986 298.553 129.336 297.592L132.107 290.036H134.305L129.373 303.22C128.844 304.644 128.433 305.625 128.14 306.162C127.75 306.886 127.302 307.415 126.797 307.749C126.293 308.09 125.691 308.261 124.991 308.261C124.568 308.261 124.096 308.172 123.575 307.993ZM144.143 287.631V285.104H146.34V287.631H144.143ZM144.143 303V290.036H146.34V303H144.143ZM150.197 303V290.036H152.174V291.879C153.126 290.455 154.502 289.743 156.3 289.743C157.082 289.743 157.798 289.886 158.449 290.17C159.108 290.447 159.6 290.813 159.926 291.269C160.251 291.725 160.479 292.266 160.609 292.893C160.691 293.299 160.731 294.012 160.731 295.029V303H158.534V295.114C158.534 294.219 158.449 293.552 158.278 293.112C158.107 292.665 157.802 292.311 157.362 292.05C156.931 291.782 156.422 291.647 155.836 291.647C154.901 291.647 154.091 291.944 153.407 292.539C152.732 293.133 152.394 294.26 152.394 295.92V303H150.197ZM173.072 298.251L175.233 298.532C174.997 300.021 174.391 301.189 173.414 302.036C172.446 302.874 171.253 303.293 169.837 303.293C168.063 303.293 166.635 302.715 165.553 301.56C164.479 300.396 163.941 298.732 163.941 296.567C163.941 295.167 164.173 293.942 164.637 292.893C165.101 291.843 165.805 291.057 166.749 290.537C167.701 290.008 168.735 289.743 169.85 289.743C171.257 289.743 172.409 290.101 173.304 290.817C174.199 291.525 174.773 292.535 175.025 293.845L172.889 294.174C172.686 293.304 172.324 292.648 171.803 292.209C171.29 291.77 170.667 291.55 169.935 291.55C168.828 291.55 167.929 291.949 167.237 292.746C166.546 293.535 166.2 294.789 166.2 296.506C166.2 298.247 166.533 299.513 167.201 300.302C167.868 301.092 168.739 301.486 169.813 301.486C170.676 301.486 171.396 301.222 171.974 300.693C172.551 300.164 172.918 299.35 173.072 298.251ZM176.795 296.518C176.795 294.117 177.462 292.339 178.797 291.184C179.912 290.223 181.271 289.743 182.874 289.743C184.656 289.743 186.113 290.329 187.244 291.501C188.375 292.665 188.941 294.276 188.941 296.335C188.941 298.003 188.689 299.318 188.184 300.278C187.688 301.23 186.959 301.971 185.999 302.5C185.047 303.028 184.005 303.293 182.874 303.293C181.059 303.293 179.59 302.711 178.467 301.547C177.352 300.384 176.795 298.707 176.795 296.518ZM179.053 296.518C179.053 298.178 179.415 299.423 180.14 300.253C180.864 301.075 181.775 301.486 182.874 301.486C183.965 301.486 184.872 301.071 185.596 300.241C186.32 299.411 186.683 298.146 186.683 296.445C186.683 294.842 186.316 293.629 185.584 292.807C184.86 291.977 183.956 291.562 182.874 291.562C181.775 291.562 180.864 291.973 180.14 292.795C179.415 293.617 179.053 294.858 179.053 296.518ZM192.029 303V290.036H194.006V291.879C194.958 290.455 196.334 289.743 198.132 289.743C198.914 289.743 199.63 289.886 200.281 290.17C200.94 290.447 201.432 290.813 201.758 291.269C202.083 291.725 202.311 292.266 202.441 292.893C202.523 293.299 202.563 294.012 202.563 295.029V303H200.366V295.114C200.366 294.219 200.281 293.552 200.11 293.112C199.939 292.665 199.634 292.311 199.194 292.05C198.763 291.782 198.254 291.647 197.668 291.647C196.733 291.647 195.923 291.944 195.239 292.539C194.564 293.133 194.226 294.26 194.226 295.92V303H192.029ZM210.046 303L205.114 290.036H207.434L210.217 297.8C210.518 298.638 210.795 299.509 211.047 300.412C211.242 299.729 211.515 298.907 211.865 297.946L214.746 290.036H217.004L212.097 303H210.046ZM228.319 298.825L230.59 299.106C230.232 300.432 229.569 301.462 228.6 302.194C227.632 302.927 226.395 303.293 224.889 303.293C222.993 303.293 221.487 302.711 220.373 301.547C219.266 300.375 218.712 298.736 218.712 296.628C218.712 294.447 219.274 292.754 220.397 291.55C221.52 290.345 222.977 289.743 224.767 289.743C226.5 289.743 227.917 290.333 229.015 291.513C230.114 292.693 230.663 294.353 230.663 296.494C230.663 296.624 230.659 296.819 230.651 297.08H220.983C221.064 298.504 221.467 299.594 222.191 300.351C222.916 301.108 223.819 301.486 224.901 301.486C225.707 301.486 226.395 301.275 226.964 300.852C227.534 300.428 227.986 299.753 228.319 298.825ZM221.105 295.273H228.344C228.246 294.182 227.969 293.365 227.514 292.819C226.814 291.973 225.906 291.55 224.792 291.55C223.782 291.55 222.932 291.888 222.24 292.563C221.557 293.238 221.178 294.142 221.105 295.273ZM233.861 303V290.036H235.838V291.879C236.791 290.455 238.166 289.743 239.964 289.743C240.746 289.743 241.462 289.886 242.113 290.17C242.772 290.447 243.264 290.813 243.59 291.269C243.915 291.725 244.143 292.266 244.273 292.893C244.355 293.299 244.396 294.012 244.396 295.029V303H242.198V295.114C242.198 294.219 242.113 293.552 241.942 293.112C241.771 292.665 241.466 292.311 241.026 292.05C240.595 291.782 240.086 291.647 239.5 291.647C238.565 291.647 237.755 291.944 237.071 292.539C236.396 293.133 236.058 294.26 236.058 295.92V303H233.861ZM248.289 287.631V285.104H250.486V287.631H248.289ZM248.289 303V290.036H250.486V303H248.289ZM263.218 298.825L265.488 299.106C265.13 300.432 264.467 301.462 263.499 302.194C262.53 302.927 261.293 303.293 259.788 303.293C257.891 303.293 256.386 302.711 255.271 301.547C254.164 300.375 253.611 298.736 253.611 296.628C253.611 294.447 254.172 292.754 255.295 291.55C256.418 290.345 257.875 289.743 259.666 289.743C261.399 289.743 262.815 290.333 263.914 291.513C265.012 292.693 265.562 294.353 265.562 296.494C265.562 296.624 265.557 296.819 265.549 297.08H255.881C255.963 298.504 256.366 299.594 257.09 300.351C257.814 301.108 258.717 301.486 259.8 301.486C260.605 301.486 261.293 301.275 261.863 300.852C262.432 300.428 262.884 299.753 263.218 298.825ZM256.003 295.273H263.242C263.145 294.182 262.868 293.365 262.412 292.819C261.712 291.973 260.805 291.55 259.69 291.55C258.681 291.55 257.83 291.888 257.139 292.563C256.455 293.238 256.077 294.142 256.003 295.273ZM268.759 303V290.036H270.737V291.879C271.689 290.455 273.064 289.743 274.863 289.743C275.644 289.743 276.36 289.886 277.011 290.17C277.67 290.447 278.163 290.813 278.488 291.269C278.814 291.725 279.042 292.266 279.172 292.893C279.253 293.299 279.294 294.012 279.294 295.029V303H277.097V295.114C277.097 294.219 277.011 293.552 276.84 293.112C276.669 292.665 276.364 292.311 275.925 292.05C275.493 291.782 274.985 291.647 274.399 291.647C273.463 291.647 272.653 291.944 271.97 292.539C271.294 293.133 270.957 294.26 270.957 295.92V303H268.759ZM287.973 301.035L288.29 302.976C287.672 303.106 287.118 303.171 286.63 303.171C285.832 303.171 285.214 303.045 284.774 302.792C284.335 302.54 284.026 302.211 283.847 301.804C283.668 301.389 283.578 300.522 283.578 299.204V291.745H281.967V290.036H283.578V286.826L285.763 285.507V290.036H287.973V291.745H285.763V299.326C285.763 299.952 285.8 300.355 285.873 300.534C285.954 300.713 286.081 300.856 286.251 300.961C286.431 301.067 286.683 301.12 287.008 301.12C287.252 301.12 287.574 301.092 287.973 301.035Z" fill="black"/>
<path d="M1 6V130" stroke="black" stroke-width="2"/>
</svg>
