<?xml version="1.0" encoding="UTF-8"?><svg id="_Слой_1" xmlns="http://www.w3.org/2000/svg" viewBox="0 0 1083.62 353.31"><defs><style>.cls-1{letter-spacing:-.08em;}.cls-2{fill:#d8d9d8;stroke-width:2px;}.cls-2,.cls-3,.cls-4,.cls-5,.cls-6{stroke:#010101;stroke-miterlimit:10;}.cls-7{letter-spacing:-.03em;}.cls-3{stroke-dasharray:0 0 12.18 12.18;}.cls-3,.cls-4,.cls-6{fill:none;}.cls-4{stroke-dasharray:0 0 12.57 12.57;}.cls-5{fill:#fff;}.cls-8{letter-spacing:0em;}.cls-9{font-family:Indivisible-Regular, Indivisible;}.cls-9,.cls-10{fill:#010101;font-size:10.71px;}.cls-10{font-family:Indivisible-Bold, Indivisible;font-weight:700;}.cls-11{letter-spacing:0em;}</style></defs><g><rect class="cls-2" x="66.62" y="35.84" width="450.65" height="316.47"/><g><polyline class="cls-6" points="367.05 346.31 367.05 352.31 361.05 352.31"/><line class="cls-4" x1="348.49" y1="352.31" x2="229.12" y2="352.31"/><polyline class="cls-6" points="222.84 352.31 216.84 352.31 216.84 346.31"/><line class="cls-3" x1="216.84" y1="334.13" x2="216.84" y2="47.93"/><polyline class="cls-6" points="216.84 41.84 216.84 35.84 222.84 35.84"/><line class="cls-4" x1="235.4" y1="35.84" x2="354.77" y2="35.84"/><polyline class="cls-6" points="361.05 35.84 367.05 35.84 367.05 41.84"/><line class="cls-3" x1="367.05" y1="54.02" x2="367.05" y2="340.22"/></g></g><text class="cls-9" transform="translate(0 197.35)"><tspan x="0" y="0">210 mm</tspan></text><line class="cls-5" x1="48.3" y1="352.31" x2="48.3" y2="35.84"/><polyline class="cls-6" points="51.55 41.48 48.32 35.84 45.05 41.46"/><polyline class="cls-6" points="45.05 346.68 48.3 352.31 51.55 346.68"/><text class="cls-9" transform="translate(271.73 9.11)"><tspan x="0" y="0">2</tspan><tspan class="cls-11" x="6.14" y="0">9</tspan><tspan x="12.65" y="0">7 mm</tspan></text><g><line class="cls-5" x1="66.62" y1="18.86" x2="517.27" y2="18.86"/><polyline class="cls-6" points="511.63 22.11 517.27 18.88 511.65 15.62"/><polyline class="cls-6" points="72.25 15.62 66.62 18.86 72.25 22.11"/></g><g><text class="cls-9" transform="translate(124.2 330.66)"><tspan x="0" y="0">99 mm</tspan></text><g><line class="cls-5" x1="66.62" y1="341.13" x2="216.84" y2="341.13"/><polyline class="cls-6" points="211.2 344.38 216.84 341.15 211.22 337.88"/><polyline class="cls-6" points="72.25 337.88 66.62 341.13 72.25 344.38"/></g></g><g><text class="cls-9" transform="translate(274.42 330.66)"><tspan x="0" y="0">99 mm</tspan></text><g><line class="cls-5" x1="216.84" y1="341.13" x2="367.05" y2="341.13"/><polyline class="cls-6" points="361.42 344.38 367.05 341.15 361.44 337.88"/><polyline class="cls-6" points="222.46 337.88 216.84 341.13 222.46 344.38"/></g></g><g><text class="cls-9" transform="translate(424.63 330.66)"><tspan x="0" y="0">99 mm</tspan></text><g><line class="cls-5" x1="367.05" y1="341.13" x2="517.27" y2="341.13"/><polyline class="cls-6" points="511.63 344.38 517.27 341.15 511.65 337.88"/><polyline class="cls-6" points="372.68 337.88 367.05 341.13 372.68 344.38"/></g></g><g><rect class="cls-2" x="631.97" y="35.84" width="450.65" height="316.47"/><g><polyline class="cls-6" points="932.41 346.31 932.41 352.31 926.41 352.31"/><line class="cls-4" x1="913.84" y1="352.31" x2="794.47" y2="352.31"/><polyline class="cls-6" points="788.19 352.31 782.19 352.31 782.19 346.31"/><line class="cls-3" x1="782.19" y1="334.13" x2="782.19" y2="47.93"/><polyline class="cls-6" points="782.19 41.84 782.19 35.84 788.19 35.84"/><line class="cls-4" x1="800.75" y1="35.84" x2="920.12" y2="35.84"/><polyline class="cls-6" points="926.41 35.84 932.41 35.84 932.41 41.84"/><line class="cls-3" x1="932.41" y1="54.02" x2="932.41" y2="340.22"/></g></g><text class="cls-9" transform="translate(565.35 197.35)"><tspan x="0" y="0">210 mm</tspan></text><line class="cls-5" x1="613.65" y1="352.31" x2="613.65" y2="35.84"/><polyline class="cls-6" points="616.9 41.48 613.67 35.84 610.4 41.46"/><polyline class="cls-6" points="610.4 346.68 613.65 352.31 616.9 346.68"/><text class="cls-9" transform="translate(837.08 9.11)"><tspan x="0" y="0">2</tspan><tspan class="cls-11" x="6.14" y="0">9</tspan><tspan x="12.65" y="0">7 mm</tspan></text><g><line class="cls-5" x1="631.97" y1="18.86" x2="1082.62" y2="18.86"/><polyline class="cls-6" points="1076.99 22.11 1082.62 18.88 1077.01 15.62"/><polyline class="cls-6" points="637.6 15.62 631.97 18.86 637.6 22.11"/></g><g><text class="cls-9" transform="translate(689.55 330.66)"><tspan x="0" y="0">99 mm</tspan></text><g><line class="cls-5" x1="631.97" y1="341.13" x2="782.19" y2="341.13"/><polyline class="cls-6" points="776.55 344.38 782.19 341.15 776.57 337.88"/><polyline class="cls-6" points="637.6 337.88 631.97 341.13 637.6 344.38"/></g></g><g><text class="cls-9" transform="translate(839.77 330.66)"><tspan x="0" y="0">99 mm</tspan></text><g><line class="cls-5" x1="782.19" y1="341.13" x2="932.41" y2="341.13"/><polyline class="cls-6" points="926.77 344.38 932.41 341.15 926.79 337.88"/><polyline class="cls-6" points="787.82 337.88 782.19 341.13 787.82 344.38"/></g></g><g><text class="cls-9" transform="translate(989.99 330.66)"><tspan x="0" y="0">99 mm</tspan></text><g><line class="cls-5" x1="932.41" y1="341.13" x2="1082.62" y2="341.13"/><polyline class="cls-6" points="1076.99 344.38 1082.62 341.15 1077.01 337.88"/><polyline class="cls-6" points="938.03 337.88 932.41 341.13 938.03 344.38"/></g></g><text class="cls-10" transform="translate(685.5 65.8)"><tspan class="cls-1" x="0" y="0">P</tspan><tspan x="6.53" y="0">ANEL</tspan><tspan class="cls-8" x="36.43" y="0"> </tspan><tspan x="38.66" y="0">1</tspan></text><text class="cls-10" transform="translate(834.8 65.8)"><tspan class="cls-1" x="0" y="0">P</tspan><tspan x="6.53" y="0">ANEL 2</tspan></text><text class="cls-10" transform="translate(984.87 65.8)"><tspan class="cls-1" x="0" y="0">P</tspan><tspan x="6.53" y="0">ANEL 3</tspan></text><text class="cls-10" transform="translate(118.94 65.8)"><tspan class="cls-1" x="0" y="0">P</tspan><tspan x="6.53" y="0">ANEL 4</tspan></text><text class="cls-10" transform="translate(269.26 65.8)"><tspan class="cls-1" x="0" y="0">P</tspan><tspan x="6.53" y="0">ANEL 5</tspan></text><text class="cls-10" transform="translate(422.77 65.8)"><tspan x="0" y="0">C</tspan><tspan class="cls-7" x="8.19" y="0">O</tspan><tspan x="16.38" y="0">VER</tspan></text></svg>