<?xml version="1.0" encoding="UTF-8"?><svg id="_Слой_1" xmlns="http://www.w3.org/2000/svg" viewBox="0 0 1083.62 353.31"><defs><style>.cls-1{letter-spacing:-.08em;}.cls-2{fill:#d8d9d8;stroke-width:2px;}.cls-2,.cls-3,.cls-4,.cls-5,.cls-6{stroke:#010101;stroke-miterlimit:10;}.cls-7{letter-spacing:-.03em;}.cls-3{stroke-dasharray:0 0 12.18 12.18;}.cls-3,.cls-4,.cls-6{fill:none;}.cls-4{stroke-dasharray:0 0 12.57 12.57;}.cls-5{fill:#fff;}.cls-8{letter-spacing:0em;}.cls-9{font-family:Indivisible-Regular, Indivisible;}.cls-9,.cls-10{fill:#010101;font-size:10.71px;}.cls-10{font-family:Indivisible-Bold, Indivisible;font-weight:700;}.cls-11{letter-spacing:0em;}</style></defs><g><g><rect class="cls-2" x="66.62" y="35.84" width="450.65" height="316.47"/><g><polyline class="cls-6" points="367.06 346.31 367.06 352.31 361.06 352.31"/><line class="cls-4" x1="348.49" y1="352.31" x2="229.12" y2="352.31"/><polyline class="cls-6" points="222.84 352.31 216.84 352.31 216.84 346.31"/><line class="cls-3" x1="216.84" y1="334.13" x2="216.84" y2="47.93"/><polyline class="cls-6" points="216.84 41.84 216.84 35.84 222.84 35.84"/><line class="cls-4" x1="235.4" y1="35.84" x2="354.77" y2="35.84"/><polyline class="cls-6" points="361.06 35.84 367.06 35.84 367.06 41.84"/><line class="cls-3" x1="367.06" y1="54.02" x2="367.06" y2="340.22"/></g></g><text class="cls-9" transform="translate(0 197.35)"><tspan x="0" y="0">210 mm</tspan></text><line class="cls-5" x1="48.3" y1="352.31" x2="48.3" y2="35.84"/><polyline class="cls-6" points="51.55 41.48 48.32 35.84 45.05 41.46"/><polyline class="cls-6" points="45.05 346.68 48.3 352.31 51.55 346.68"/><text class="cls-9" transform="translate(271.73 9.11)"><tspan x="0" y="0">2</tspan><tspan class="cls-11" x="6.14" y="0">9</tspan><tspan x="12.65" y="0">7 mm</tspan></text><g><line class="cls-5" x1="66.62" y1="18.86" x2="517.27" y2="18.86"/><polyline class="cls-6" points="511.63 22.11 517.27 18.88 511.66 15.62"/><polyline class="cls-6" points="72.25 15.62 66.62 18.86 72.25 22.11"/></g><g><text class="cls-9" transform="translate(124.2 330.66)"><tspan x="0" y="0">99 mm</tspan></text><g><line class="cls-5" x1="66.62" y1="341.13" x2="216.84" y2="341.13"/><polyline class="cls-6" points="211.2 344.38 216.84 341.15 211.22 337.88"/><polyline class="cls-6" points="72.25 337.88 66.62 341.13 72.25 344.38"/></g></g><g><text class="cls-9" transform="translate(274.42 330.66)"><tspan x="0" y="0">99 mm</tspan></text><g><line class="cls-5" x1="216.84" y1="341.13" x2="367.06" y2="341.13"/><polyline class="cls-6" points="361.42 344.38 367.06 341.15 361.44 337.88"/><polyline class="cls-6" points="222.47 337.88 216.84 341.13 222.47 344.38"/></g></g><g><text class="cls-9" transform="translate(424.63 330.66)"><tspan x="0" y="0">99 mm</tspan></text><g><line class="cls-5" x1="367.06" y1="341.13" x2="517.27" y2="341.13"/><polyline class="cls-6" points="511.63 344.38 517.27 341.15 511.66 337.88"/><polyline class="cls-6" points="372.68 337.88 367.06 341.13 372.68 344.38"/></g></g><text class="cls-10" transform="translate(120.15 65.8)"><tspan class="cls-1" x="0" y="0">P</tspan><tspan x="6.53" y="0">ANEL</tspan><tspan class="cls-8" x="36.43" y="0"> </tspan><tspan x="38.66" y="0">1</tspan></text><text class="cls-10" transform="translate(269.45 65.8)"><tspan class="cls-1" x="0" y="0">P</tspan><tspan x="6.53" y="0">ANEL 2</tspan></text><text class="cls-10" transform="translate(419.52 65.8)"><tspan class="cls-1" x="0" y="0">P</tspan><tspan x="6.53" y="0">ANEL 3</tspan></text></g><g><g><rect class="cls-2" x="632.97" y="35.84" width="450.65" height="316.47"/><g><polyline class="cls-6" points="933.41 346.31 933.41 352.31 927.41 352.31"/><line class="cls-4" x1="914.84" y1="352.31" x2="795.47" y2="352.31"/><polyline class="cls-6" points="789.19 352.31 783.19 352.31 783.19 346.31"/><line class="cls-3" x1="783.19" y1="334.13" x2="783.19" y2="47.93"/><polyline class="cls-6" points="783.19 41.84 783.19 35.84 789.19 35.84"/><line class="cls-4" x1="801.75" y1="35.84" x2="921.12" y2="35.84"/><polyline class="cls-6" points="927.41 35.84 933.41 35.84 933.41 41.84"/><line class="cls-3" x1="933.41" y1="54.02" x2="933.41" y2="340.22"/></g></g><text class="cls-9" transform="translate(566.35 197.35)"><tspan x="0" y="0">210 mm</tspan></text><line class="cls-5" x1="614.65" y1="352.31" x2="614.65" y2="35.84"/><polyline class="cls-6" points="617.9 41.48 614.67 35.84 611.4 41.46"/><polyline class="cls-6" points="611.4 346.68 614.65 352.31 617.9 346.68"/><text class="cls-9" transform="translate(838.08 9.11)"><tspan x="0" y="0">2</tspan><tspan class="cls-11" x="6.14" y="0">9</tspan><tspan x="12.65" y="0">7 mm</tspan></text><g><line class="cls-5" x1="632.97" y1="18.86" x2="1083.62" y2="18.86"/><polyline class="cls-6" points="1077.99 22.11 1083.62 18.88 1078.01 15.62"/><polyline class="cls-6" points="638.6 15.62 632.97 18.86 638.6 22.11"/></g><g><text class="cls-9" transform="translate(690.55 330.66)"><tspan x="0" y="0">99 mm</tspan></text><g><line class="cls-5" x1="632.97" y1="341.13" x2="783.19" y2="341.13"/><polyline class="cls-6" points="777.55 344.38 783.19 341.15 777.57 337.88"/><polyline class="cls-6" points="638.6 337.88 632.97 341.13 638.6 344.38"/></g></g><g><text class="cls-9" transform="translate(840.77 330.66)"><tspan x="0" y="0">99 mm</tspan></text><g><line class="cls-5" x1="783.19" y1="341.13" x2="933.41" y2="341.13"/><polyline class="cls-6" points="927.77 344.38 933.41 341.15 927.79 337.88"/><polyline class="cls-6" points="788.82 337.88 783.19 341.13 788.82 344.38"/></g></g><g><text class="cls-9" transform="translate(990.98 330.66)"><tspan x="0" y="0">99 mm</tspan></text><g><line class="cls-5" x1="933.41" y1="341.13" x2="1083.62" y2="341.13"/><polyline class="cls-6" points="1077.99 344.38 1083.62 341.15 1078.01 337.88"/><polyline class="cls-6" points="939.03 337.88 933.41 341.13 939.03 344.38"/></g></g><text class="cls-10" transform="translate(685.3 65.8)"><tspan class="cls-1" x="0" y="0">P</tspan><tspan x="6.53" y="0">ANEL 4</tspan></text><text class="cls-10" transform="translate(835.61 65.8)"><tspan class="cls-1" x="0" y="0">P</tspan><tspan x="6.53" y="0">ANEL 5</tspan></text><text class="cls-10" transform="translate(989.12 65.8)"><tspan x="0" y="0">C</tspan><tspan class="cls-7" x="8.19" y="0">O</tspan><tspan x="16.38" y="0">VER</tspan></text></g></svg>