<?xml version="1.0" encoding="UTF-8"?><svg id="Layer_1" xmlns="http://www.w3.org/2000/svg" viewBox="0 0 643.55 88.68"><defs><style>.cls-1{fill:#698b38;}.cls-2{fill:#6bb241;}.cls-3{fill:#33251d;}.cls-4{fill:#c8dd70;}.cls-5{fill:#2b342b;}.cls-6{fill:#773a24;}</style></defs><g><g><path d="m109.49,58.64c.23-.04.49-.08.79-.1.3-.02.57-.04.81-.04.28,0,.54.03.79.09.25.06.47.16.66.3s.34.32.45.54c.11.22.17.49.17.81,0,.49-.14.89-.4,1.2-.27.31-.61.51-1.03.61l.43.33,1.57,2.49h-.87l-1.74-2.72-.88-.14v2.85h-.75v-6.24Zm1.62.51h-.24c-.08,0-.17,0-.24,0s-.15.01-.22.02c-.07,0-.12.01-.17.03v2.32h.7c.41,0,.76-.1,1.03-.31.27-.2.4-.52.4-.95,0-.32-.11-.59-.33-.8-.22-.21-.53-.31-.93-.31Z"/><path d="m116.58,61.74h2.11v2.77c-.1.07-.21.14-.35.2-.14.06-.28.11-.43.15-.15.04-.31.07-.48.09-.17.02-.33.03-.48.03-.4,0-.77-.06-1.11-.19-.34-.13-.63-.33-.87-.59-.25-.27-.44-.61-.58-1.02-.14-.41-.21-.9-.21-1.45s.08-1.08.25-1.49.39-.75.66-1.01c.27-.26.57-.45.91-.57s.67-.18,1.01-.18c.36,0,.66.02.89.06.23.04.43.09.59.16l-.19.67c-.29-.14-.7-.22-1.23-.22-.25,0-.5.04-.75.13s-.47.23-.67.44c-.2.2-.36.47-.49.8s-.19.74-.19,1.22c0,.44.05.83.15,1.15.1.32.24.59.43.81.18.21.4.37.66.48s.54.16.84.16c.38,0,.71-.07.98-.23v-1.75l-1.47-.18v-.42Z"/><path d="m123.76,60.02c0,.15-.02.3-.07.46-.05.16-.12.3-.22.44-.1.13-.22.25-.37.36s-.33.18-.53.23v.04c.18.03.35.08.52.15.17.07.31.17.44.3s.23.28.31.46c.08.18.12.39.12.64,0,.32-.07.6-.2.84-.13.24-.31.43-.53.58-.22.15-.47.26-.75.33-.28.07-.57.11-.86.11h-.36c-.14,0-.28,0-.43-.01-.15,0-.3-.02-.45-.04-.15-.02-.28-.04-.4-.07v-6.2c.22-.04.48-.07.77-.09s.61-.04.96-.04c.23,0,.47.02.72.06.24.04.46.11.66.23.2.11.36.27.49.46.13.2.19.45.19.77Zm-2.58,1.33c.1,0,.23,0,.37,0,.14,0,.26-.01.36-.03.14-.05.28-.11.4-.18.13-.07.24-.15.34-.24.1-.09.18-.2.23-.32.06-.12.09-.26.09-.4,0-.2-.04-.36-.11-.49-.08-.13-.18-.23-.3-.31-.13-.08-.27-.13-.43-.17-.16-.03-.33-.05-.49-.05-.2,0-.38,0-.54.01-.17,0-.29.02-.37.04v2.14h.47Zm.5,2.95c.19,0,.38-.02.56-.07.18-.04.34-.12.48-.22.14-.1.25-.22.33-.36s.12-.31.12-.51c0-.25-.05-.44-.15-.59s-.23-.27-.39-.35c-.16-.08-.34-.14-.54-.17-.2-.03-.4-.04-.59-.04h-.78v2.26s.1.02.18.03.16.01.25.02c.09,0,.18.01.28.01.1,0,.18,0,.25,0Z"/><path d="m125.27,60.84c0-.16.05-.29.14-.38.09-.09.22-.14.37-.14s.29.05.39.14c.1.09.14.22.14.38s-.05.28-.14.38-.23.14-.39.14-.28-.05-.37-.14c-.09-.1-.14-.22-.14-.38Zm0,3.63c0-.16.05-.29.14-.38.09-.09.22-.14.37-.14s.29.05.39.14c.1.09.14.22.14.38s-.05.28-.14.38-.23.14-.39.14-.28-.05-.37-.14c-.09-.1-.14-.22-.14-.38Z"/><path d="m129.8,64.21h1.26v-4.36l.09-.53-.36.42-.99.71-.34-.46,1.98-1.53h.32v5.74h1.23v.67h-3.19v-.67Z"/><path d="m134.12,61.73c0-1.08.18-1.89.53-2.44s.86-.82,1.53-.82c.73,0,1.25.27,1.58.81s.49,1.35.49,2.45-.18,1.89-.53,2.44c-.35.55-.87.82-1.54.82-.71,0-1.24-.28-1.57-.85-.33-.57-.49-1.37-.49-2.4Zm.75,0c0,.39.03.75.08,1.07s.13.6.24.83c.11.23.24.41.41.54s.36.19.59.19c.46,0,.79-.21,1-.63.21-.42.32-1.09.32-1.99,0-.38-.02-.74-.07-1.06-.04-.32-.12-.6-.23-.84-.1-.23-.24-.41-.41-.54s-.38-.19-.62-.19c-.45,0-.78.21-.99.64-.21.43-.32,1.09-.32,1.99Z"/><path d="m139.02,61.73c0-1.08.18-1.89.53-2.44s.86-.82,1.53-.82c.73,0,1.25.27,1.58.81s.49,1.35.49,2.45-.18,1.89-.53,2.44c-.35.55-.87.82-1.54.82-.71,0-1.24-.28-1.57-.85-.33-.57-.49-1.37-.49-2.4Zm.75,0c0,.39.03.75.08,1.07s.13.6.24.83c.11.23.24.41.41.54s.36.19.59.19c.46,0,.79-.21,1-.63.21-.42.32-1.09.32-1.99,0-.38-.02-.74-.07-1.06-.04-.32-.12-.6-.23-.84-.1-.23-.24-.41-.41-.54s-.38-.19-.62-.19c-.45,0-.78.21-.99.64-.21.43-.32,1.09-.32,1.99Z"/><path d="m146.49,58.47l.57.25-3.29,7.42-.57-.25,3.29-7.42Z"/><path d="m150.1,64.21h1.26v-4.36l.09-.53-.36.42-.99.71-.34-.46,1.98-1.53h.32v5.74h1.23v.67h-3.19v-.67Z"/><path d="m158.75,62.94h-1.06v1.94h-.7v-1.94h-2.77v-.3l2.99-4.17h.49v3.83h1.06v.63Zm-1.76-2.59l.09-.74h-.03l-.31.61-1.27,1.72-.43.44.63-.07h1.32v-1.96Z"/><path d="m159.33,61.73c0-1.08.18-1.89.53-2.44s.86-.82,1.53-.82c.73,0,1.25.27,1.58.81s.49,1.35.49,2.45-.18,1.89-.53,2.44c-.35.55-.87.82-1.54.82-.71,0-1.24-.28-1.57-.85-.33-.57-.49-1.37-.49-2.4Zm.75,0c0,.39.03.75.08,1.07s.13.6.24.83c.11.23.24.41.41.54s.36.19.59.19c.46,0,.79-.21,1-.63.21-.42.32-1.09.32-1.99,0-.38-.02-.74-.07-1.06-.04-.32-.12-.6-.23-.84-.1-.23-.24-.41-.41-.54s-.38-.19-.62-.19c-.45,0-.78.21-.99.64-.21.43-.32,1.09-.32,1.99Z"/><path d="m166.8,58.47l.57.25-3.29,7.42-.57-.25,3.29-7.42Z"/><path d="m171.05,60.01c0,.32-.06.64-.18.98-.12.33-.27.67-.46,1-.19.34-.4.66-.63.99-.23.32-.47.63-.7.91l-.44.39v.04l.58-.1h1.96v.67h-3.58v-.26c.13-.14.29-.31.48-.51.19-.2.38-.43.58-.68.2-.25.4-.51.59-.79.19-.28.37-.56.53-.85.16-.29.29-.57.38-.85.1-.28.14-.55.14-.8,0-.29-.08-.54-.25-.73s-.42-.29-.77-.29c-.23,0-.45.05-.67.14-.22.09-.4.2-.56.32l-.3-.51c.21-.18.46-.32.75-.42s.6-.15.93-.15c.26,0,.49.04.68.11.2.08.37.18.5.32s.24.3.31.49c.07.19.11.39.11.62Z"/><path d="m176.36,62.98c0,.28-.04.54-.13.78-.08.24-.21.46-.37.64s-.36.33-.6.43c-.24.1-.51.16-.82.16s-.57-.05-.81-.14c-.24-.1-.45-.24-.62-.43-.17-.19-.31-.42-.4-.7-.09-.28-.14-.59-.14-.95,0-.59.08-1.14.23-1.64s.36-.94.63-1.31.59-.67.96-.9c.37-.23.77-.38,1.2-.44l.15.58c-.34.06-.64.17-.92.34-.28.17-.52.38-.72.62-.21.25-.38.52-.51.83s-.22.62-.27.94c.1-.16.26-.31.49-.45.23-.13.51-.2.84-.2.56,0,1.01.16,1.33.49.32.32.48.78.48,1.36Zm-.75.07c0-.43-.1-.75-.3-.96-.2-.22-.5-.32-.92-.32-.29,0-.55.07-.76.22s-.36.31-.45.49c-.01.08-.02.15-.02.21v.18c0,.19.03.37.08.55.05.18.13.34.24.48.11.14.24.26.4.34.16.09.35.13.56.13.17,0,.33-.03.47-.1.14-.07.26-.16.36-.27.1-.11.18-.25.24-.41.06-.16.09-.34.09-.52Z"/></g><g><path d="m113.52,75.41c-.18.14-.41.23-.68.29-.28.05-.57.08-.88.08-.38,0-.73-.06-1.06-.19s-.62-.33-.86-.59c-.25-.26-.44-.6-.58-1.01-.14-.41-.22-.9-.22-1.46s.08-1.09.24-1.5c.16-.41.37-.75.63-1.01s.55-.45.88-.57.65-.18.99-.18c.36,0,.65.02.88.06s.42.09.58.16l-.18.67c-.29-.14-.7-.22-1.23-.22-.25,0-.49.05-.73.14s-.45.24-.64.44-.34.47-.45.8c-.11.33-.17.74-.17,1.22,0,.43.05.81.16,1.13.11.32.26.59.45.81s.41.38.67.49c.25.11.53.16.83.16.27,0,.51-.03.71-.08.2-.05.37-.12.51-.21l.18.58Z"/><path d="m119.47,71.45l.09-.94h-.04l-.34.86-1.64,2.84h-.23l-1.74-2.85-.32-.85h-.05l.13.94v4.24h-.7v-6.3h.56l1.97,3.22.3.7h.02l.28-.72,1.88-3.2h.58v6.3h-.75v-4.23Z"/><path d="m123.13,73.17l-2.08-3.8h.87l1.48,2.75.16.55h0l.17-.57,1.42-2.74h.79l-2.06,3.79v2.51h-.75v-2.5Z"/><path d="m127.94,72.76h-.42v2.92h-.75v-6.3h.75v2.93l.4-.13,2.12-2.81h.86l-2.11,2.71-.38.3.46.36,2.3,2.93h-.94l-2.29-2.92Z"/><path d="m132.31,71.63c0-.16.05-.29.14-.38.09-.09.22-.14.37-.14s.29.05.39.14c.1.09.14.22.14.38s-.05.28-.14.38-.23.14-.39.14-.28-.05-.37-.14c-.09-.1-.14-.22-.14-.38Zm0,3.63c0-.16.05-.29.14-.38.09-.09.22-.14.37-.14s.29.05.39.14c.1.09.14.22.14.38s-.05.28-.14.38-.23.14-.39.14-.28-.05-.37-.14c-.09-.1-.14-.22-.14-.38Z"/><path d="m140.29,73.78c0,.28-.04.54-.13.78-.08.24-.21.46-.37.64s-.36.33-.6.43c-.24.1-.51.16-.82.16s-.57-.05-.81-.14c-.24-.1-.45-.24-.62-.43-.17-.19-.31-.42-.4-.7-.09-.28-.14-.59-.14-.95,0-.59.08-1.14.23-1.64s.36-.94.63-1.31.59-.67.96-.9c.37-.23.77-.38,1.2-.44l.15.58c-.34.06-.64.17-.92.34-.28.17-.52.38-.72.62-.21.25-.38.52-.51.83s-.22.62-.27.94c.1-.16.26-.31.49-.45.23-.13.51-.2.84-.2.56,0,1.01.16,1.33.49.32.32.48.78.48,1.36Zm-.75.07c0-.43-.1-.75-.3-.96-.2-.22-.5-.32-.92-.32-.29,0-.55.07-.76.22s-.36.31-.45.49c-.01.08-.02.15-.02.21v.18c0,.19.03.37.08.55.05.18.13.34.24.48.11.14.24.26.4.34.16.09.35.13.56.13.17,0,.33-.03.47-.1.14-.07.26-.16.36-.27.1-.11.18-.25.24-.41.06-.16.09-.34.09-.52Z"/><path d="m142.69,75.15c.41,0,.76-.12,1.03-.36.27-.24.41-.59.41-1.04s-.13-.77-.4-.98c-.27-.22-.63-.32-1.1-.32l-.76.04v-3.11h2.81v.67h-2.13v1.79l.39-.02c.59,0,1.06.17,1.4.49.34.32.51.79.51,1.4,0,.34-.06.63-.17.9-.11.26-.27.48-.46.65-.2.17-.42.31-.69.4-.26.09-.55.13-.85.13-.27,0-.5-.02-.68-.04-.19-.03-.36-.07-.52-.13l.19-.61c.14.05.29.09.45.12.16.03.36.04.59.04Z"/><path d="m148.63,69.27l.57.25-3.29,7.42-.57-.25,3.29-7.42Z"/><path d="m155.28,70.81c0,.32-.06.64-.18.98-.12.33-.27.67-.46,1-.19.34-.4.66-.63.99-.23.32-.47.63-.7.91l-.44.39v.04l.58-.1h1.96v.67h-3.58v-.26c.13-.14.29-.31.48-.51.19-.2.38-.43.58-.68.2-.25.4-.51.59-.79.19-.28.37-.56.53-.85.16-.29.29-.57.38-.85.1-.28.14-.55.14-.8,0-.29-.08-.54-.25-.73s-.42-.29-.77-.29c-.23,0-.45.05-.67.14-.22.09-.4.2-.56.32l-.3-.51c.21-.18.46-.32.75-.42s.6-.15.93-.15c.26,0,.49.04.68.11.2.08.37.18.5.32s.24.3.31.49c.07.19.11.39.11.62Z"/><path d="m160.6,73.78c0,.28-.04.54-.13.78-.08.24-.21.46-.37.64s-.36.33-.6.43c-.24.1-.51.16-.82.16s-.57-.05-.81-.14c-.24-.1-.45-.24-.62-.43-.17-.19-.31-.42-.4-.7-.09-.28-.14-.59-.14-.95,0-.59.08-1.14.23-1.64s.36-.94.63-1.31.59-.67.96-.9c.37-.23.77-.38,1.2-.44l.15.58c-.34.06-.64.17-.92.34-.28.17-.52.38-.72.62-.21.25-.38.52-.51.83s-.22.62-.27.94c.1-.16.26-.31.49-.45.23-.13.51-.2.84-.2.56,0,1.01.16,1.33.49.32.32.48.78.48,1.36Zm-.75.07c0-.43-.1-.75-.3-.96-.2-.22-.5-.32-.92-.32-.29,0-.55.07-.76.22s-.36.31-.45.49c-.01.08-.02.15-.02.21v.18c0,.19.03.37.08.55.05.18.13.34.24.48.11.14.24.26.4.34.16.09.35.13.56.13.17,0,.33-.03.47-.1.14-.07.26-.16.36-.27.1-.11.18-.25.24-.41.06-.16.09-.34.09-.52Z"/><path d="m164.03,69.27l.57.25-3.29,7.42-.57-.25,3.29-7.42Z"/><path d="m167.63,75.01h1.26v-4.36l.09-.53-.36.42-.99.71-.34-.46,1.98-1.53h.32v5.74h1.23v.67h-3.19v-.67Z"/><path d="m171.95,72.53c0-1.08.18-1.89.53-2.44s.86-.82,1.53-.82c.73,0,1.25.27,1.58.81s.49,1.35.49,2.45-.18,1.89-.53,2.44c-.35.55-.87.82-1.54.82-.71,0-1.24-.28-1.57-.85-.33-.57-.49-1.37-.49-2.4Zm.75,0c0,.39.03.75.08,1.07s.13.6.24.83c.11.23.24.41.41.54s.36.19.59.19c.46,0,.79-.21,1-.63.21-.42.32-1.09.32-1.99,0-.38-.02-.74-.07-1.06-.04-.32-.12-.6-.23-.84-.1-.23-.24-.41-.41-.54s-.38-.19-.62-.19c-.45,0-.78.21-.99.64-.21.43-.32,1.09-.32,1.99Z"/><path d="m176.86,72.53c0-1.08.18-1.89.53-2.44s.86-.82,1.53-.82c.73,0,1.25.27,1.58.81s.49,1.35.49,2.45-.18,1.89-.53,2.44c-.35.55-.87.82-1.54.82-.71,0-1.24-.28-1.57-.85-.33-.57-.49-1.37-.49-2.4Zm.75,0c0,.39.03.75.08,1.07s.13.6.24.83c.11.23.24.41.41.54s.36.19.59.19c.46,0,.79-.21,1-.63.21-.42.32-1.09.32-1.99,0-.38-.02-.74-.07-1.06-.04-.32-.12-.6-.23-.84-.1-.23-.24-.41-.41-.54s-.38-.19-.62-.19c-.45,0-.78.21-.99.64-.21.43-.32,1.09-.32,1.99Z"/><path d="m184.33,69.27l.57.25-3.29,7.42-.57-.25,3.29-7.42Z"/><path d="m187.43,71.28c0-.29.04-.55.13-.8.08-.25.21-.46.37-.64s.36-.32.61-.42c.24-.1.53-.15.85-.15.61,0,1.09.2,1.43.59.34.4.51.95.51,1.67,0,.68-.08,1.27-.23,1.78-.15.51-.36.93-.63,1.28-.27.35-.59.62-.96.81-.37.2-.77.32-1.2.37l-.16-.58c.35-.05.66-.16.94-.31.28-.15.52-.34.72-.57s.36-.49.49-.78.21-.61.26-.95c-.16.19-.34.33-.54.4-.2.08-.45.11-.77.11-.25,0-.48-.04-.7-.12-.22-.08-.41-.2-.58-.36-.17-.16-.3-.35-.4-.58-.1-.23-.14-.49-.14-.78Zm.75-.07c0,.43.11.75.34.96.22.21.52.32.89.32.29,0,.55-.05.76-.14.21-.1.36-.22.45-.38.01-.08.02-.15.02-.21v-.19c0-.22-.03-.42-.08-.63s-.13-.38-.23-.54c-.1-.16-.24-.28-.4-.37s-.36-.13-.58-.13c-.37,0-.65.12-.85.35s-.31.55-.31.97Z"/></g><g><path d="m109.49,80.24c.23-.05.47-.09.74-.11.26-.02.52-.03.78-.03.28,0,.56.03.84.08s.54.15.78.3c.23.14.42.34.57.59s.22.57.22.96-.07.71-.21.97c-.14.26-.32.48-.55.64s-.49.28-.78.36c-.29.07-.6.11-.91.11h-.15c-.07,0-.14,0-.22,0-.08,0-.15,0-.22-.01-.07,0-.12-.01-.15-.02v2.39h-.75v-6.24Zm1.54.51c-.16,0-.31,0-.45,0s-.26.02-.34.04v2.61s.08.02.14.02c.07,0,.14,0,.21,0,.07,0,.14,0,.21,0h.14c.2,0,.41-.02.61-.06.2-.04.38-.11.54-.21.16-.1.29-.25.39-.43.1-.19.15-.42.15-.71,0-.25-.05-.45-.14-.62-.09-.16-.22-.3-.37-.4-.15-.1-.33-.17-.52-.21s-.38-.06-.58-.06Z"/><path d="m114.07,82.31c.23-.14.49-.24.8-.31.3-.07.62-.1.95-.1.31,0,.56.04.75.13s.33.19.43.33c.1.14.17.28.2.45.03.16.05.32.05.49,0,.36,0,.71-.03,1.05-.02.34-.03.67-.03.97,0,.22,0,.43.03.63.02.2.05.38.1.55h-.53l-.19-.63h-.04c-.05.08-.12.17-.2.25-.08.08-.18.15-.29.22-.11.06-.25.12-.4.16-.15.04-.32.06-.51.06s-.37-.03-.54-.09-.31-.15-.43-.26-.21-.24-.28-.4c-.07-.16-.1-.33-.1-.53,0-.26.05-.48.16-.66.11-.18.26-.32.45-.42.2-.1.43-.18.7-.23s.57-.07.9-.07h.25c.08,0,.16,0,.25.02.02-.18.03-.34.03-.49,0-.33-.07-.56-.2-.69-.13-.13-.37-.2-.72-.2-.1,0-.21,0-.33.02-.12.02-.24.04-.36.06s-.24.06-.35.1c-.11.04-.21.08-.29.13l-.23-.55Zm1.28,3.61c.17,0,.32-.02.45-.07.13-.04.25-.1.34-.17s.18-.15.24-.23.11-.17.14-.24v-.75c-.08,0-.17-.01-.26-.01s-.17,0-.26,0c-.19,0-.37.01-.54.03-.18.02-.33.06-.47.12-.13.06-.24.14-.32.23-.08.1-.12.22-.12.37,0,.21.07.38.23.52.15.14.34.2.58.2Z"/><path d="m121.49,86.48v-2.56c0-.47-.07-.82-.2-1.06-.13-.24-.38-.36-.74-.36-.32,0-.58.09-.79.26-.21.17-.35.39-.44.64v3.08h-.72v-4.5h.5l.14.55h.04c.14-.19.34-.35.58-.47.24-.12.53-.18.87-.18.25,0,.46.03.65.09s.34.16.46.3c.12.14.22.34.28.58.06.24.09.55.09.92v2.72h-.72Z"/><path d="m122.93,81.98h.7v-.89l.72-.21v1.1h1.22v.63h-1.22v2.49c0,.31.04.53.12.66.08.13.21.19.4.19.16,0,.29-.02.4-.05.11-.03.23-.08.36-.13l.16.55c-.16.08-.34.14-.53.19s-.4.07-.62.07c-.37,0-.62-.1-.77-.31s-.23-.55-.23-1.04v-2.63h-.7v-.63Z"/><path d="m126.23,84.23c0-.76.17-1.35.51-1.75.34-.4.83-.61,1.46-.61.34,0,.63.06.88.17s.45.27.62.48c.16.21.28.46.36.75.08.29.12.61.12.97,0,.76-.17,1.35-.51,1.75s-.83.61-1.46.61c-.34,0-.63-.06-.88-.17-.25-.11-.45-.27-.62-.48s-.28-.46-.36-.75c-.08-.29-.12-.61-.12-.97Zm.75,0c0,.23.02.45.07.66s.12.39.21.55c.1.16.22.28.38.38.16.1.34.14.57.14.82,0,1.22-.57,1.22-1.73,0-.23-.02-.46-.07-.67s-.12-.39-.21-.55c-.1-.16-.22-.28-.38-.37-.16-.09-.35-.14-.57-.14-.82,0-1.22.57-1.22,1.73Z"/><path d="m134.2,86.48v-2.56c0-.47-.07-.82-.2-1.06-.13-.24-.38-.36-.74-.36-.32,0-.58.09-.79.26-.21.17-.35.39-.44.64v3.08h-.72v-4.5h.5l.14.55h.04c.14-.19.34-.35.58-.47.24-.12.53-.18.87-.18.25,0,.46.03.65.09s.34.16.46.3c.12.14.22.34.28.58.06.24.09.55.09.92v2.72h-.72Z"/><path d="m139.52,86.12c-.18.14-.41.26-.68.34s-.56.13-.87.13c-.34,0-.64-.06-.89-.17s-.46-.27-.62-.48-.28-.45-.36-.74c-.08-.29-.12-.61-.12-.97,0-.77.17-1.35.51-1.75.34-.4.83-.6,1.47-.6.2,0,.41.02.61.07.2.04.39.13.55.26s.29.3.4.54.15.54.15.91c0,.2-.02.42-.05.66h-2.89c0,.26.03.5.08.7.05.2.14.38.25.52.11.14.26.25.45.32.18.07.41.11.67.11.2,0,.41-.04.61-.11.2-.07.36-.16.46-.25l.27.52Zm-1.55-3.62c-.35,0-.64.09-.85.28-.21.19-.34.5-.38.95h2.23c0-.46-.09-.78-.26-.96-.17-.18-.42-.27-.74-.27Z"/><path d="m140.93,82.44c0-.16.05-.29.14-.38.09-.09.22-.14.37-.14s.29.05.39.14c.1.09.14.22.14.38s-.05.28-.14.38-.23.14-.39.14-.28-.05-.37-.14c-.09-.1-.14-.22-.14-.38Zm0,3.63c0-.16.05-.29.14-.38.09-.09.22-.14.37-.14s.29.05.39.14c.1.09.14.22.14.38s-.05.28-.14.38-.23.14-.39.14-.28-.05-.37-.14c-.09-.1-.14-.22-.14-.38Z"/><path d="m146.59,85.95c.2,0,.39-.03.57-.09.17-.06.32-.15.45-.27.13-.12.23-.26.3-.42.07-.16.11-.34.11-.53,0-.42-.12-.73-.37-.94-.25-.2-.59-.31-1.03-.31h-.67v-.26l1.3-2,.41-.4-.58.09h-1.78v-.67h3.21v.26l-1.43,2.15-.31.26v.02l.31-.06c.24,0,.46.05.67.13.2.08.38.2.53.35s.27.34.35.55c.08.21.13.45.13.72,0,.32-.06.61-.17.86-.11.25-.27.46-.46.63-.19.17-.42.3-.69.39-.26.09-.54.13-.84.13-.27,0-.51-.02-.73-.06-.22-.04-.4-.1-.57-.16l.19-.64c.14.07.3.12.49.17s.4.07.63.07Z"/><path d="m150.38,86.48l2.26-5.27.4-.44-.53.08h-2.56v-.67h3.76v.24l-2.6,6.06h-.72Z"/><path d="m154.68,83.33c0-1.08.18-1.89.53-2.44s.86-.82,1.53-.82c.73,0,1.25.27,1.58.81s.49,1.35.49,2.45-.18,1.89-.53,2.44c-.35.55-.87.82-1.54.82-.71,0-1.24-.28-1.57-.85-.33-.57-.49-1.37-.49-2.4Zm.75,0c0,.39.03.75.08,1.07s.13.6.24.83c.11.23.24.41.41.54s.36.19.59.19c.46,0,.79-.21,1-.63.21-.42.32-1.09.32-1.99,0-.38-.02-.74-.07-1.06-.04-.32-.12-.6-.23-.84-.1-.23-.24-.41-.41-.54s-.38-.19-.62-.19c-.45,0-.78.21-.99.64-.21.43-.32,1.09-.32,1.99Z"/><path d="m166.4,86.22c-.18.14-.41.23-.68.29-.28.05-.57.08-.88.08-.38,0-.73-.06-1.06-.19s-.62-.33-.86-.59c-.25-.26-.44-.6-.58-1.01-.14-.41-.22-.9-.22-1.46s.08-1.09.24-1.5c.16-.41.37-.75.63-1.01s.55-.45.88-.57.65-.18.99-.18c.36,0,.65.02.88.06s.42.09.58.16l-.18.67c-.29-.14-.7-.22-1.23-.22-.25,0-.49.05-.73.14s-.45.24-.64.44-.34.47-.45.8c-.11.33-.17.74-.17,1.22,0,.43.05.81.16,1.13.11.32.26.59.45.81s.41.38.67.49c.25.11.53.16.83.16.27,0,.51-.03.71-.08.2-.05.37-.12.51-.21l.18.58Z"/></g></g><path class="cls-1" d="m130.42,43.4c11.99,0,21.7-9.72,21.7-21.7S142.41,0,130.42,0s-21.7,9.72-21.7,21.7,9.72,21.7,21.7,21.7"/><g><g><path d="m223.11,58.64c.23-.04.49-.08.79-.1s.57-.04.81-.04c.28,0,.54.03.79.09.25.06.47.16.66.3s.34.32.45.54c.11.22.17.49.17.81,0,.49-.13.89-.4,1.2-.27.31-.61.51-1.03.61l.43.33,1.57,2.49h-.87l-1.74-2.72-.88-.14v2.85h-.75v-6.24Zm1.62.51h-.24c-.08,0-.17,0-.24,0-.08,0-.15.01-.22.02-.07,0-.12.01-.17.03v2.32h.7c.41,0,.76-.1,1.03-.31.27-.2.4-.52.4-.95,0-.32-.11-.59-.33-.8-.22-.21-.53-.31-.93-.31Z"/><path d="m230.2,61.74h2.12v2.77c-.1.07-.21.14-.35.2-.13.06-.28.11-.43.15s-.31.07-.48.09c-.17.02-.33.03-.48.03-.4,0-.77-.06-1.11-.19s-.63-.33-.87-.59c-.25-.27-.44-.61-.58-1.02-.14-.41-.21-.9-.21-1.45s.08-1.08.25-1.49.39-.75.66-1.01c.27-.26.57-.45.91-.57s.67-.18,1.01-.18c.36,0,.66.02.89.06.23.04.43.09.59.16l-.19.67c-.29-.14-.7-.22-1.23-.22-.25,0-.5.04-.75.13s-.47.23-.67.44c-.2.2-.36.47-.49.8s-.19.74-.19,1.22c0,.44.05.83.15,1.15.1.32.24.59.43.81s.4.37.66.48c.26.1.54.16.84.16.38,0,.71-.07.98-.23v-1.75l-1.47-.18v-.42Z"/><path d="m237.39,60.02c0,.15-.02.3-.07.46-.05.16-.12.3-.22.44-.1.13-.22.25-.37.36-.15.1-.33.18-.53.23v.04c.18.03.35.08.52.15.17.07.31.17.44.3s.23.28.31.46c.08.18.12.39.12.64,0,.32-.07.6-.2.84-.14.24-.31.43-.53.58-.22.15-.47.26-.75.33-.28.07-.57.11-.86.11h-.36c-.14,0-.28,0-.43-.01-.15,0-.3-.02-.45-.04-.15-.02-.28-.04-.4-.07v-6.2c.22-.04.48-.07.77-.09s.62-.04.96-.04c.23,0,.47.02.72.06s.46.11.66.23.36.27.49.46.19.45.19.77Zm-2.58,1.33c.1,0,.22,0,.37,0,.14,0,.26-.01.36-.03.14-.05.28-.11.41-.18.13-.07.24-.15.34-.24.1-.09.18-.2.23-.32.06-.12.09-.26.09-.4,0-.2-.04-.36-.11-.49-.08-.13-.17-.23-.3-.31-.13-.08-.27-.13-.43-.17-.16-.03-.33-.05-.5-.05-.2,0-.38,0-.54.01-.17,0-.29.02-.37.04v2.14h.47Zm.49,2.95c.19,0,.38-.02.56-.07.18-.04.34-.12.48-.22.14-.1.25-.22.33-.36s.12-.31.12-.51c0-.25-.05-.44-.15-.59s-.23-.27-.39-.35c-.16-.08-.34-.14-.54-.17-.2-.03-.4-.04-.59-.04h-.78v2.26s.1.02.18.03c.08,0,.16.01.25.02.09,0,.18.01.28.01.1,0,.18,0,.25,0Z"/><path d="m238.9,60.84c0-.16.05-.29.14-.38.09-.09.22-.14.37-.14s.29.05.39.14c.1.09.14.22.14.38s-.05.28-.14.38c-.1.1-.22.14-.39.14s-.28-.05-.37-.14c-.09-.1-.14-.22-.14-.38Zm0,3.63c0-.16.05-.29.14-.38.09-.09.22-.14.37-.14s.29.05.39.14c.1.09.14.22.14.38s-.05.28-.14.38c-.1.1-.22.14-.39.14s-.28-.05-.37-.14c-.09-.1-.14-.22-.14-.38Z"/><path d="m243.42,64.21h1.26v-4.36l.09-.53-.36.42-.99.71-.34-.46,1.98-1.53h.32v5.74h1.23v.67h-3.2v-.67Z"/><path d="m247.82,60.48c0-.29.04-.55.13-.8s.21-.46.37-.64.36-.32.61-.42.53-.15.85-.15c.61,0,1.09.2,1.43.59.34.4.51.95.51,1.67,0,.68-.08,1.27-.23,1.78-.15.51-.36.93-.63,1.28-.27.35-.59.62-.96.81-.37.2-.77.32-1.2.37l-.16-.58c.35-.05.66-.16.94-.31.28-.15.52-.34.72-.57.2-.23.36-.49.49-.78s.21-.61.26-.95c-.16.19-.34.33-.54.4-.2.08-.45.11-.77.11-.25,0-.48-.04-.7-.12-.22-.08-.41-.2-.58-.36-.17-.16-.3-.35-.4-.58-.1-.23-.14-.49-.14-.78Zm.75-.07c0,.43.11.75.34.96.22.21.52.32.89.32.29,0,.55-.05.76-.14.21-.1.36-.22.45-.38.01-.08.02-.15.02-.21v-.19c0-.22-.03-.42-.08-.63-.05-.2-.13-.38-.23-.54-.1-.16-.24-.28-.4-.37s-.36-.13-.58-.13c-.37,0-.65.12-.85.35-.2.23-.31.55-.31.97Z"/><path d="m256.69,62.98c0,.28-.04.54-.13.78-.08.24-.21.46-.37.64-.16.18-.36.33-.6.43-.24.1-.51.16-.82.16s-.57-.05-.81-.14c-.24-.1-.45-.24-.62-.43s-.31-.42-.4-.7c-.09-.28-.14-.59-.14-.95,0-.59.08-1.14.23-1.64s.36-.94.63-1.31c.27-.37.59-.67.96-.9.37-.23.77-.38,1.2-.44l.15.58c-.34.06-.64.17-.92.34-.28.17-.52.38-.72.62-.21.25-.38.52-.51.83-.13.31-.22.62-.27.94.1-.16.26-.31.49-.45.23-.13.51-.2.84-.2.56,0,1.01.16,1.33.49.32.32.48.78.48,1.36Zm-.75.07c0-.43-.1-.75-.3-.96s-.5-.32-.92-.32c-.29,0-.55.07-.76.22s-.36.31-.45.49c-.01.08-.02.15-.02.21v.18c0,.19.03.37.08.55.05.18.13.34.24.48.11.14.24.26.4.34.16.09.35.13.56.13.17,0,.33-.03.47-.1.14-.07.26-.16.37-.27.1-.11.18-.25.24-.41.06-.16.08-.34.08-.52Z"/><path d="m260.12,58.47l.57.25-3.28,7.42-.57-.25,3.29-7.42Z"/><path d="m266.77,60.01c0,.32-.06.64-.17.98-.12.33-.27.67-.46,1-.19.34-.4.66-.63.99-.23.32-.47.63-.7.91l-.44.39v.04l.58-.1h1.96v.67h-3.58v-.26c.13-.14.29-.31.48-.51.19-.2.38-.43.58-.68s.4-.51.59-.79c.19-.28.37-.56.53-.85.16-.29.29-.57.38-.85.1-.28.14-.55.14-.8,0-.29-.08-.54-.25-.73s-.42-.29-.76-.29c-.23,0-.45.05-.67.14-.22.09-.4.2-.56.32l-.3-.51c.21-.18.46-.32.75-.42.29-.1.6-.15.93-.15.26,0,.49.04.68.11s.37.18.5.32c.14.14.24.3.32.49.07.19.11.39.11.62Z"/><path d="m269.77,64.35c.2,0,.39-.03.57-.09s.32-.15.45-.27c.13-.12.22-.26.3-.42s.11-.34.11-.53c0-.42-.12-.73-.37-.94-.25-.2-.59-.31-1.03-.31h-.67v-.26l1.3-2,.41-.4-.58.09h-1.78v-.67h3.21v.26l-1.43,2.15-.32.26v.02l.31-.06c.24,0,.46.05.67.13s.38.2.53.35c.15.15.27.34.35.55.08.21.13.45.13.72,0,.32-.06.61-.17.86-.11.25-.27.46-.46.63s-.42.3-.69.39c-.26.09-.54.13-.84.13-.27,0-.51-.02-.73-.06-.22-.04-.41-.1-.57-.16l.19-.64c.14.07.3.12.49.17.19.04.4.07.63.07Z"/><path d="m276.58,60.01c0,.32-.06.64-.17.98-.12.33-.27.67-.46,1-.19.34-.4.66-.63.99-.23.32-.47.63-.7.91l-.44.39v.04l.58-.1h1.96v.67h-3.58v-.26c.13-.14.29-.31.48-.51.19-.2.38-.43.58-.68s.4-.51.59-.79c.19-.28.37-.56.53-.85.16-.29.29-.57.38-.85.1-.28.14-.55.14-.8,0-.29-.08-.54-.25-.73s-.42-.29-.76-.29c-.23,0-.45.05-.67.14-.22.09-.4.2-.56.32l-.3-.51c.21-.18.46-.32.75-.42.29-.1.6-.15.93-.15.26,0,.49.04.68.11s.37.18.5.32c.14.14.24.3.32.49.07.19.11.39.11.62Z"/><path d="m280.42,58.47l.57.25-3.28,7.42-.57-.25,3.29-7.42Z"/><path d="m284.03,64.21h1.26v-4.36l.09-.53-.36.42-.99.71-.34-.46,1.98-1.53h.32v5.74h1.23v.67h-3.2v-.67Z"/><path d="m288.35,61.73c0-1.08.18-1.89.53-2.44.35-.55.86-.82,1.54-.82.73,0,1.25.27,1.58.81s.49,1.35.49,2.45-.17,1.89-.53,2.44c-.35.55-.87.82-1.54.82-.71,0-1.24-.28-1.57-.85-.33-.57-.5-1.37-.5-2.4Zm.75,0c0,.39.03.75.08,1.07.05.32.13.6.24.83.11.23.24.41.41.54s.36.19.59.19c.46,0,.79-.21,1-.63.21-.42.32-1.09.32-1.99,0-.38-.02-.74-.07-1.06-.04-.32-.12-.6-.22-.84-.11-.23-.24-.41-.41-.54s-.38-.19-.62-.19c-.45,0-.78.21-1,.64-.21.43-.32,1.09-.32,1.99Z"/><path d="m293.86,64.88l2.26-5.27.4-.44-.53.08h-2.57v-.67h3.76v.24l-2.6,6.06h-.72Z"/></g><g><path d="m227.14,75.41c-.18.14-.41.23-.68.29-.28.05-.57.08-.88.08-.38,0-.73-.06-1.06-.19s-.62-.33-.86-.59c-.25-.26-.44-.6-.58-1.01-.14-.41-.22-.9-.22-1.46s.08-1.09.24-1.5.37-.75.63-1.01c.26-.26.55-.45.88-.57s.65-.18.99-.18c.36,0,.65.02.88.06.23.04.42.09.58.16l-.18.67c-.29-.14-.7-.22-1.23-.22-.25,0-.49.05-.73.14-.24.09-.46.24-.64.44-.19.2-.34.47-.46.8-.11.33-.17.74-.17,1.22,0,.43.05.81.16,1.13.11.32.26.59.45.81.19.22.41.38.67.49.25.11.53.16.83.16.27,0,.5-.03.71-.08.2-.05.37-.12.51-.21l.18.58Z"/><path d="m233.09,71.45l.09-.94h-.04l-.34.86-1.64,2.84h-.22l-1.74-2.85-.32-.85h-.04l.13.94v4.24h-.7v-6.3h.56l1.97,3.22.3.7h.02l.28-.72,1.88-3.2h.58v6.3h-.75v-4.23Z"/><path d="m236.76,73.17l-2.08-3.8h.87l1.48,2.75.16.55h0l.17-.57,1.42-2.74h.79l-2.06,3.79v2.51h-.75v-2.5Z"/><path d="m241.56,72.76h-.42v2.92h-.75v-6.3h.75v2.93l.41-.13,2.12-2.81h.86l-2.11,2.71-.38.3.46.36,2.3,2.93h-.94l-2.3-2.92Z"/><path d="m245.94,71.63c0-.16.05-.29.14-.38.09-.09.22-.14.37-.14s.29.05.39.14c.1.09.14.22.14.38s-.05.28-.14.38c-.1.1-.22.14-.39.14s-.28-.05-.37-.14c-.09-.1-.14-.22-.14-.38Zm0,3.63c0-.16.05-.29.14-.38.09-.09.22-.14.37-.14s.29.05.39.14c.1.09.14.22.14.38s-.05.28-.14.38c-.1.1-.22.14-.39.14s-.28-.05-.37-.14c-.09-.1-.14-.22-.14-.38Z"/><path d="m253.5,70.81c0,.32-.06.64-.17.98-.12.33-.27.67-.46,1-.19.34-.4.66-.63.99-.23.32-.47.63-.7.91l-.44.39v.04l.58-.1h1.96v.67h-3.58v-.26c.13-.14.29-.31.48-.51.19-.2.38-.43.58-.68s.4-.51.59-.79c.19-.28.37-.56.53-.85.16-.29.29-.57.38-.85.1-.28.14-.55.14-.8,0-.29-.08-.54-.25-.73s-.42-.29-.76-.29c-.23,0-.45.05-.67.14-.22.09-.4.2-.56.32l-.3-.51c.21-.18.46-.32.75-.42.29-.1.6-.15.93-.15.26,0,.49.04.68.11s.37.18.5.32c.14.14.24.3.32.49.07.19.11.39.11.62Z"/><path d="m258.82,73.78c0,.28-.04.54-.13.78-.08.24-.21.46-.37.64-.16.18-.36.33-.6.43-.24.1-.51.16-.82.16s-.57-.05-.81-.14c-.24-.1-.45-.24-.62-.43s-.31-.42-.4-.7c-.09-.28-.14-.59-.14-.95,0-.59.08-1.14.23-1.64s.36-.94.63-1.31c.27-.37.59-.67.96-.9.37-.23.77-.38,1.2-.44l.15.58c-.34.06-.64.17-.92.34-.28.17-.52.38-.72.62-.21.25-.38.52-.51.83-.13.31-.22.62-.27.94.1-.16.26-.31.49-.45.23-.13.51-.2.84-.2.56,0,1.01.16,1.33.49.32.32.48.78.48,1.36Zm-.75.07c0-.43-.1-.75-.3-.96s-.5-.32-.92-.32c-.29,0-.55.07-.76.22s-.36.31-.45.49c-.01.08-.02.15-.02.21v.18c0,.19.03.37.08.55.05.18.13.34.24.48.11.14.24.26.4.34.16.09.35.13.56.13.17,0,.33-.03.47-.1.14-.07.26-.16.37-.27.1-.11.18-.25.24-.41.06-.16.08-.34.08-.52Z"/><path d="m262.25,69.27l.57.25-3.28,7.42-.57-.25,3.29-7.42Z"/><path d="m265.28,72.53c0-1.08.18-1.89.53-2.44.35-.55.86-.82,1.54-.82.73,0,1.25.27,1.58.81s.49,1.35.49,2.45-.17,1.89-.53,2.44c-.35.55-.87.82-1.54.82-.71,0-1.24-.28-1.57-.85-.33-.57-.5-1.37-.5-2.4Zm.75,0c0,.39.03.75.08,1.07.05.32.13.6.24.83.11.23.24.41.41.54s.36.19.59.19c.46,0,.79-.21,1-.63.21-.42.32-1.09.32-1.99,0-.38-.02-.74-.07-1.06-.04-.32-.12-.6-.22-.84-.11-.23-.24-.41-.41-.54s-.38-.19-.62-.19c-.45,0-.78.21-1,.64-.21.43-.32,1.09-.32,1.99Z"/><path d="m272.75,69.27l.57.25-3.28,7.42-.57-.25,3.29-7.42Z"/><path d="m276.37,75.68l2.26-5.27.4-.44-.53.08h-2.57v-.67h3.76v.24l-2.6,6.06h-.72Z"/><path d="m282.39,75.15c.2,0,.39-.03.57-.09s.32-.15.45-.27c.13-.12.22-.26.3-.42s.11-.34.11-.53c0-.42-.12-.73-.37-.94-.25-.2-.59-.31-1.03-.31h-.67v-.26l1.3-2,.41-.4-.58.09h-1.78v-.67h3.21v.26l-1.43,2.15-.32.26v.02l.31-.06c.24,0,.46.05.67.13s.38.2.53.35c.15.15.27.34.35.55.08.21.13.45.13.72,0,.32-.06.61-.17.86-.11.25-.27.46-.46.63s-.42.3-.69.39c-.26.09-.54.13-.84.13-.27,0-.51-.02-.73-.06-.22-.04-.41-.1-.57-.16l.19-.64c.14.07.3.12.49.17.19.04.4.07.63.07Z"/><path d="m288.15,69.27l.57.25-3.28,7.42-.57-.25,3.29-7.42Z"/><path d="m291.17,72.53c0-1.08.18-1.89.53-2.44.35-.55.86-.82,1.54-.82.73,0,1.25.27,1.58.81s.49,1.35.49,2.45-.17,1.89-.53,2.44c-.35.55-.87.82-1.54.82-.71,0-1.24-.28-1.57-.85-.33-.57-.5-1.37-.5-2.4Zm.75,0c0,.39.03.75.08,1.07.05.32.13.6.24.83.11.23.24.41.41.54s.36.19.59.19c.46,0,.79-.21,1-.63.21-.42.32-1.09.32-1.99,0-.38-.02-.74-.07-1.06-.04-.32-.12-.6-.22-.84-.11-.23-.24-.41-.41-.54s-.38-.19-.62-.19c-.45,0-.78.21-1,.64-.21.43-.32,1.09-.32,1.99Z"/></g><g><path d="m223.11,80.24c.23-.05.47-.09.74-.11.26-.02.53-.03.78-.03.28,0,.56.03.84.08.28.05.54.15.78.3.23.14.42.34.57.59.15.25.22.57.22.96s-.07.71-.21.97c-.14.26-.32.48-.55.64-.23.17-.49.28-.78.36-.29.07-.6.11-.91.11h-.15c-.07,0-.14,0-.22,0s-.15,0-.22-.01-.12-.01-.15-.02v2.39h-.75v-6.24Zm1.54.51c-.16,0-.31,0-.45,0-.14,0-.26.02-.34.04v2.61s.08.02.14.02c.07,0,.13,0,.21,0,.07,0,.14,0,.21,0h.14c.2,0,.41-.02.61-.06s.38-.11.54-.21.29-.25.39-.43c.1-.19.15-.42.15-.71,0-.25-.05-.45-.14-.62-.09-.16-.22-.3-.37-.4-.15-.1-.33-.17-.52-.21s-.38-.06-.58-.06Z"/><path d="m227.69,82.31c.23-.14.49-.24.8-.31.3-.07.62-.1.95-.1.31,0,.56.04.75.13.19.08.33.19.43.33.1.14.17.28.2.45.03.16.05.32.05.49,0,.36,0,.71-.03,1.05-.02.34-.03.67-.03.97,0,.22,0,.43.03.63.02.2.05.38.1.55h-.53l-.19-.63h-.04c-.05.08-.12.17-.2.25-.08.08-.18.15-.29.22-.11.06-.25.12-.4.16-.15.04-.32.06-.51.06s-.37-.03-.54-.09-.31-.15-.43-.26-.21-.24-.28-.4c-.07-.16-.1-.33-.1-.53,0-.26.05-.48.16-.66.11-.18.26-.32.46-.42.19-.1.43-.18.7-.23.27-.04.57-.07.9-.07h.25c.08,0,.16,0,.25.02.02-.18.03-.34.03-.49,0-.33-.07-.56-.2-.69-.13-.13-.37-.2-.72-.2-.1,0-.21,0-.33.02-.12.02-.24.04-.36.06s-.24.06-.35.1c-.11.04-.21.08-.29.13l-.22-.55Zm1.28,3.61c.17,0,.32-.02.45-.07s.25-.1.34-.17c.1-.07.17-.15.24-.23.06-.08.11-.17.14-.24v-.75c-.08,0-.17-.01-.26-.01s-.17,0-.26,0c-.19,0-.37.01-.54.03-.18.02-.33.06-.47.12-.14.06-.24.14-.32.23-.08.1-.12.22-.12.37,0,.21.08.38.23.52.15.14.34.2.58.2Z"/><path d="m235.12,86.48v-2.56c0-.47-.07-.82-.2-1.06-.14-.24-.38-.36-.74-.36-.32,0-.58.09-.79.26-.21.17-.35.39-.44.64v3.08h-.72v-4.5h.5l.13.55h.04c.14-.19.34-.35.58-.47s.53-.18.87-.18c.25,0,.46.03.65.09.19.06.34.16.46.3s.22.34.28.58c.06.24.09.55.09.92v2.72h-.72Z"/><path d="m236.56,81.98h.7v-.89l.72-.21v1.1h1.22v.63h-1.22v2.49c0,.31.04.53.12.66s.21.19.4.19c.16,0,.29-.02.4-.05.11-.03.23-.08.36-.13l.16.55c-.16.08-.34.14-.53.19s-.4.07-.62.07c-.37,0-.62-.1-.77-.31-.15-.21-.23-.55-.23-1.04v-2.63h-.7v-.63Z"/><path d="m239.86,84.23c0-.76.17-1.35.51-1.75s.83-.61,1.46-.61c.34,0,.63.06.88.17s.46.27.62.48.28.46.36.75.12.61.12.97c0,.76-.17,1.35-.51,1.75-.34.4-.83.61-1.46.61-.34,0-.63-.06-.88-.17s-.45-.27-.62-.48-.28-.46-.36-.75c-.08-.29-.12-.61-.12-.97Zm.75,0c0,.23.02.45.07.66s.12.39.21.55.22.28.38.38c.16.1.35.14.57.14.82,0,1.22-.57,1.22-1.73,0-.23-.02-.46-.07-.67s-.12-.39-.21-.55c-.1-.16-.22-.28-.38-.37-.16-.09-.34-.14-.57-.14-.82,0-1.22.57-1.22,1.73Z"/><path d="m247.82,86.48v-2.56c0-.47-.07-.82-.2-1.06-.14-.24-.38-.36-.74-.36-.32,0-.58.09-.79.26-.21.17-.35.39-.44.64v3.08h-.72v-4.5h.5l.13.55h.04c.14-.19.34-.35.58-.47s.53-.18.87-.18c.25,0,.46.03.65.09.19.06.34.16.46.3s.22.34.28.58c.06.24.09.55.09.92v2.72h-.72Z"/><path d="m253.14,86.12c-.18.14-.41.26-.68.34-.27.08-.56.13-.87.13-.34,0-.64-.06-.89-.17s-.46-.27-.62-.48-.28-.45-.36-.74c-.08-.29-.12-.61-.12-.97,0-.77.17-1.35.51-1.75s.83-.6,1.47-.6c.2,0,.41.02.61.07s.39.13.55.26.29.3.4.54c.1.23.15.54.15.91,0,.2-.02.42-.05.66h-2.89c0,.26.03.5.08.7.05.2.14.38.25.52.11.14.26.25.45.32.18.07.41.11.67.11.2,0,.41-.04.61-.11.2-.07.36-.16.46-.25l.27.52Zm-1.55-3.62c-.35,0-.64.09-.85.28-.21.19-.34.5-.38.95h2.23c0-.46-.09-.78-.26-.96-.17-.18-.42-.27-.74-.27Z"/><path d="m254.56,82.44c0-.16.05-.29.14-.38.09-.09.22-.14.37-.14s.29.05.39.14c.1.09.14.22.14.38s-.05.28-.14.38c-.1.1-.22.14-.39.14s-.28-.05-.37-.14c-.09-.1-.14-.22-.14-.38Zm0,3.63c0-.16.05-.29.14-.38.09-.09.22-.14.37-.14s.29.05.39.14c.1.09.14.22.14.38s-.05.28-.14.38c-.1.1-.22.14-.39.14s-.28-.05-.37-.14c-.09-.1-.14-.22-.14-.38Z"/><path d="m260.22,85.95c.2,0,.39-.03.57-.09s.32-.15.45-.27c.13-.12.22-.26.3-.42s.11-.34.11-.53c0-.42-.12-.73-.37-.94-.25-.2-.59-.31-1.03-.31h-.67v-.26l1.3-2,.41-.4-.58.09h-1.78v-.67h3.21v.26l-1.43,2.15-.32.26v.02l.31-.06c.24,0,.46.05.67.13s.38.2.53.35c.15.15.27.34.35.55.08.21.13.45.13.72,0,.32-.06.61-.17.86-.11.25-.27.46-.46.63s-.42.3-.69.39c-.26.09-.54.13-.84.13-.27,0-.51-.02-.73-.06-.22-.04-.41-.1-.57-.16l.19-.64c.14.07.3.12.49.17.19.04.4.07.63.07Z"/><path d="m264.01,86.48l2.26-5.27.4-.44-.53.08h-2.57v-.67h3.76v.24l-2.6,6.06h-.72Z"/><path d="m272.64,84.54h-1.06v1.94h-.7v-1.94h-2.77v-.3l2.99-4.17h.49v3.83h1.06v.63Zm-1.76-2.59l.09-.74h-.03l-.31.61-1.27,1.72-.43.44.63-.07h1.32v-1.96Z"/><path d="m280.03,86.22c-.18.14-.41.23-.68.29-.28.05-.57.08-.88.08-.38,0-.73-.06-1.06-.19s-.62-.33-.86-.59c-.25-.26-.44-.6-.58-1.01-.14-.41-.22-.9-.22-1.46s.08-1.09.24-1.5.37-.75.63-1.01c.26-.26.55-.45.88-.57s.65-.18.99-.18c.36,0,.65.02.88.06.23.04.42.09.58.16l-.18.67c-.29-.14-.7-.22-1.23-.22-.25,0-.49.05-.73.14-.24.09-.46.24-.64.44-.19.2-.34.47-.46.8-.11.33-.17.74-.17,1.22,0,.43.05.81.16,1.13.11.32.26.59.45.81.19.22.41.38.67.49.25.11.53.16.83.16.27,0,.5-.03.71-.08.2-.05.37-.12.51-.21l.18.58Z"/></g></g><path class="cls-4" d="m244.05,43.4c11.98,0,21.7-9.72,21.7-21.7S256.04,0,244.05,0s-21.7,9.72-21.7,21.7,9.72,21.7,21.7,21.7"/><g><g><path d="m329.01,58.64c.23-.04.49-.07.79-.1.3-.02.57-.04.81-.04.28,0,.54.03.79.09.25.06.47.16.66.3.19.14.34.32.45.54.11.22.17.49.17.81,0,.49-.14.89-.4,1.2-.27.31-.61.51-1.03.61l.43.33,1.57,2.49h-.87l-1.74-2.72-.88-.13v2.85h-.75v-6.24Zm1.62.51h-.24c-.08,0-.17,0-.24,0s-.15.01-.22.02c-.07,0-.12.02-.17.03v2.32h.7c.41,0,.76-.1,1.03-.31.27-.2.4-.52.4-.95,0-.32-.11-.59-.33-.8-.22-.21-.53-.31-.93-.31Z"/><path d="m336.11,61.74h2.11v2.77c-.1.07-.21.14-.35.2-.14.06-.28.11-.43.15-.15.04-.31.07-.48.09-.17.02-.33.03-.48.03-.4,0-.77-.07-1.11-.19-.34-.13-.63-.33-.87-.59-.25-.27-.44-.61-.58-1.02s-.21-.9-.21-1.45.08-1.08.25-1.49c.17-.41.39-.75.66-1.01.27-.26.57-.45.91-.57s.67-.18,1.01-.18c.36,0,.66.02.89.06.23.04.43.09.59.16l-.19.67c-.29-.14-.7-.22-1.23-.22-.25,0-.5.04-.75.13s-.47.23-.67.44c-.2.2-.36.47-.49.8s-.19.74-.19,1.22c0,.44.05.83.15,1.15.1.32.24.59.43.81.18.21.4.37.66.48.26.11.54.16.84.16.38,0,.71-.08.98-.23v-1.75l-1.47-.18v-.42Z"/><path d="m343.29,60.02c0,.15-.02.3-.07.46-.05.16-.12.3-.22.44-.1.14-.22.25-.37.36-.15.1-.33.18-.53.23v.04c.18.03.35.08.52.15.17.07.31.17.44.3s.23.28.31.46c.08.18.12.39.12.64,0,.32-.07.6-.2.84-.13.24-.31.43-.53.58-.22.15-.47.26-.75.33-.28.07-.57.11-.86.11h-.36c-.14,0-.28,0-.43-.01s-.3-.02-.45-.04c-.15-.01-.28-.04-.4-.07v-6.2c.22-.04.48-.07.77-.09s.61-.04.96-.04c.23,0,.47.02.72.06.24.04.46.11.66.22.2.11.36.27.49.46.13.2.19.45.19.76Zm-2.58,1.33c.1,0,.23,0,.37,0s.26-.01.36-.03c.14-.05.28-.11.4-.17.13-.07.24-.15.34-.24.1-.09.18-.2.23-.32s.09-.26.09-.4c0-.2-.04-.36-.11-.49-.08-.13-.18-.23-.3-.31s-.27-.13-.43-.17c-.16-.03-.33-.05-.49-.05-.2,0-.38,0-.54.01-.17,0-.29.02-.37.04v2.14h.47Zm.5,2.95c.19,0,.38-.02.56-.07.18-.04.34-.12.48-.22.14-.1.25-.22.33-.36.08-.14.12-.32.12-.51,0-.25-.05-.44-.15-.59-.1-.15-.23-.27-.39-.35-.16-.08-.34-.14-.54-.17-.2-.03-.4-.05-.59-.05h-.78v2.26s.1.02.18.03c.08,0,.16.01.25.02.09,0,.18.01.28.01.1,0,.18,0,.25,0Z"/><path d="m344.8,60.84c0-.16.05-.29.14-.38.09-.09.22-.14.37-.14s.29.05.39.14c.1.09.14.22.14.38s-.05.28-.14.38c-.1.1-.23.14-.39.14s-.28-.05-.37-.14c-.09-.1-.14-.22-.14-.38Zm0,3.63c0-.16.05-.29.14-.38.09-.09.22-.14.37-.14s.29.05.39.14c.1.09.14.22.14.38s-.05.28-.14.38c-.1.1-.23.14-.39.14s-.28-.05-.37-.14c-.09-.1-.14-.22-.14-.38Z"/><path d="m350.46,64.35c.2,0,.39-.03.57-.09.17-.06.32-.15.45-.27.13-.12.23-.26.3-.42.07-.16.11-.34.11-.53,0-.42-.12-.73-.37-.94s-.59-.31-1.03-.31h-.67v-.26l1.3-2,.41-.4-.58.09h-1.78v-.67h3.21v.26l-1.43,2.15-.31.26v.02l.31-.06c.24,0,.46.05.67.13.2.08.38.2.53.35.15.15.27.34.35.55s.13.46.13.72c0,.32-.06.61-.17.86s-.27.46-.46.63c-.19.17-.42.3-.69.39-.26.09-.54.14-.84.14-.27,0-.51-.02-.73-.06s-.41-.1-.57-.16l.19-.64c.14.07.3.12.49.17.19.04.4.07.63.07Z"/><path d="m355.18,64.35c.41,0,.76-.12,1.03-.36.27-.24.41-.59.41-1.04s-.13-.77-.4-.98-.63-.32-1.1-.32l-.76.05v-3.11h2.81v.67h-2.13v1.79l.39-.02c.59,0,1.06.17,1.4.5s.51.79.51,1.4c0,.34-.06.63-.17.9-.11.26-.27.48-.46.65-.2.17-.42.31-.69.4-.26.09-.55.14-.85.14-.27,0-.5-.02-.68-.04-.19-.03-.36-.08-.52-.14l.19-.61c.14.05.29.09.45.12s.36.04.59.04Z"/><path d="m361.12,58.47l.57.25-3.29,7.42-.57-.25,3.29-7.42Z"/><path d="m365.67,64.35c.41,0,.76-.12,1.03-.36.27-.24.41-.59.41-1.04s-.13-.77-.4-.98-.63-.32-1.1-.32l-.76.05v-3.11h2.81v.67h-2.13v1.79l.39-.02c.59,0,1.06.17,1.4.5s.51.79.51,1.4c0,.34-.06.63-.17.9-.11.26-.27.48-.46.65-.2.17-.42.31-.69.4-.26.09-.55.14-.85.14-.27,0-.5-.02-.68-.04-.19-.03-.36-.08-.52-.14l.19-.61c.14.05.29.09.45.12s.36.04.59.04Z"/><path d="m373.38,62.94h-1.06v1.93h-.7v-1.93h-2.77v-.3l2.99-4.17h.49v3.83h1.06v.63Zm-1.76-2.59l.09-.74h-.03l-.32.61-1.27,1.72-.43.44.63-.07h1.32v-1.96Z"/><path d="m376.52,58.47l.57.25-3.29,7.42-.57-.25,3.29-7.42Z"/><path d="m383.87,62.94h-1.06v1.93h-.7v-1.93h-2.77v-.3l2.99-4.17h.49v3.83h1.06v.63Zm-1.76-2.59l.09-.74h-.03l-.31.61-1.27,1.72-.43.44.63-.07h1.32v-1.96Z"/><path d="m386.16,64.35c.2,0,.39-.03.57-.09.17-.06.32-.15.45-.27.13-.12.22-.26.3-.42s.11-.34.11-.53c0-.42-.12-.73-.37-.94s-.59-.31-1.03-.31h-.67v-.26l1.3-2,.41-.4-.58.09h-1.78v-.67h3.21v.26l-1.43,2.15-.32.26v.02l.31-.06c.24,0,.46.05.67.13.2.08.38.2.53.35.15.15.27.34.35.55s.13.46.13.72c0,.32-.06.61-.17.86-.11.25-.27.46-.46.63-.2.17-.42.3-.69.39-.26.09-.54.14-.84.14-.27,0-.51-.02-.73-.06-.22-.04-.4-.1-.57-.16l.19-.64c.14.07.3.12.49.17.19.04.4.07.63.07Z"/></g><g><path d="m333.05,75.42c-.18.14-.41.23-.68.29-.28.05-.57.08-.88.08-.38,0-.73-.07-1.06-.19s-.62-.33-.86-.59c-.25-.26-.44-.6-.58-1.01-.14-.41-.22-.9-.22-1.46s.08-1.09.24-1.5c.16-.41.37-.75.63-1.01.26-.26.55-.45.88-.57s.65-.18.99-.18c.36,0,.65.02.88.06s.42.09.58.16l-.18.67c-.29-.14-.7-.22-1.23-.22-.25,0-.49.04-.73.13-.24.09-.45.24-.64.44s-.34.47-.45.8c-.11.33-.17.74-.17,1.21,0,.43.05.81.16,1.13.11.32.26.59.45.81s.41.38.67.49c.25.11.53.16.83.16.27,0,.51-.03.71-.08.2-.05.37-.12.51-.21l.18.58Z"/><path d="m339,71.45l.09-.94h-.04l-.34.86-1.64,2.84h-.23l-1.74-2.85-.32-.85h-.05l.13.94v4.24h-.7v-6.3h.56l1.97,3.22.3.7h.02l.28-.72,1.88-3.2h.58v6.3h-.75v-4.23Z"/><path d="m342.66,73.18l-2.08-3.8h.87l1.48,2.75.16.55h0l.17-.57,1.42-2.74h.79l-2.06,3.79v2.51h-.75v-2.5Z"/><path d="m347.46,72.76h-.42v2.92h-.75v-6.3h.75v2.93l.4-.13,2.12-2.81h.86l-2.11,2.71-.38.3.46.36,2.3,2.93h-.94l-2.3-2.92Z"/><path d="m351.84,71.64c0-.16.05-.29.14-.38.09-.09.22-.14.37-.14s.29.05.39.14c.1.09.14.22.14.38s-.05.28-.14.38-.22.14-.39.14-.28-.05-.37-.14-.14-.22-.14-.38Zm0,3.63c0-.16.05-.29.14-.38.09-.09.22-.14.37-.14s.29.05.39.14c.1.09.14.22.14.38s-.05.28-.14.38-.22.14-.39.14-.28-.05-.37-.14-.14-.22-.14-.38Z"/><path d="m356.38,75.68l2.26-5.27.4-.44-.53.08h-2.56v-.67h3.76v.24l-2.6,6.06h-.72Z"/><path d="m361.29,75.68l2.26-5.27.4-.44-.53.08h-2.56v-.67h3.76v.24l-2.6,6.06h-.72Z"/><path d="m368.16,69.27l.57.25-3.29,7.42-.57-.25,3.29-7.42Z"/><path d="m372.71,75.15c.41,0,.76-.12,1.03-.36.27-.24.41-.59.41-1.04s-.13-.77-.4-.98c-.27-.22-.63-.32-1.1-.32l-.76.05v-3.11h2.81v.67h-2.13v1.79l.39-.02c.59,0,1.06.17,1.4.5.34.32.51.79.51,1.4,0,.34-.06.63-.17.9-.11.26-.27.48-.46.65s-.42.31-.69.4c-.26.09-.55.14-.85.14-.27,0-.5-.02-.68-.04-.19-.03-.36-.08-.52-.14l.19-.61c.14.05.29.09.45.12.16.03.36.04.59.04Z"/><path d="m377.8,75.15c.2,0,.39-.03.57-.09.17-.06.32-.15.45-.27.13-.12.22-.26.3-.42s.11-.34.11-.53c0-.42-.12-.73-.37-.94s-.59-.31-1.03-.31h-.67v-.26l1.3-2,.41-.4-.58.09h-1.78v-.67h3.21v.26l-1.43,2.15-.32.26v.02l.31-.06c.24,0,.46.05.67.13.2.08.38.2.53.35.15.15.27.34.35.55s.13.46.13.72c0,.32-.06.61-.17.86-.11.25-.27.46-.46.63-.2.17-.42.3-.69.39-.26.09-.54.14-.84.14-.27,0-.51-.02-.73-.06-.22-.04-.4-.1-.57-.16l.19-.64c.14.07.3.12.49.17.19.04.4.07.63.07Z"/><path d="m383.55,69.27l.57.25-3.29,7.42-.57-.25,3.29-7.42Z"/><path d="m387.18,75.68l2.26-5.27.4-.44-.53.08h-2.56v-.67h3.76v.24l-2.6,6.06h-.72Z"/><path d="m393.2,75.15c.2,0,.39-.03.57-.09.17-.06.32-.15.45-.27.13-.12.23-.26.3-.42.07-.16.11-.34.11-.53,0-.42-.12-.73-.37-.94s-.59-.31-1.03-.31h-.67v-.26l1.3-2,.41-.4-.58.09h-1.78v-.67h3.21v.26l-1.43,2.15-.31.26v.02l.31-.06c.24,0,.46.05.67.13.2.08.38.2.53.35.15.15.27.34.35.55s.13.46.13.72c0,.32-.06.61-.17.86s-.27.46-.46.63c-.19.17-.42.3-.69.39-.26.09-.54.14-.84.14-.27,0-.51-.02-.73-.06s-.41-.1-.57-.16l.19-.64c.14.07.3.12.49.17.19.04.4.07.63.07Z"/><path d="m398.95,69.27l.57.25-3.29,7.42-.57-.25,3.29-7.42Z"/><path d="m406.02,73.78c0,.28-.04.54-.13.78-.08.24-.21.46-.37.64s-.36.33-.6.43c-.24.11-.51.16-.82.16s-.57-.05-.81-.14-.45-.24-.62-.43c-.17-.19-.31-.42-.4-.7-.09-.28-.14-.59-.14-.95,0-.59.08-1.14.23-1.64.15-.5.36-.94.63-1.31.27-.37.59-.67.96-.9.37-.23.77-.38,1.2-.44l.15.58c-.34.06-.64.17-.92.34-.28.17-.52.38-.72.62s-.38.52-.51.83-.22.62-.27.95c.1-.16.26-.31.49-.45.23-.14.51-.2.84-.2.56,0,1.01.16,1.33.49.32.32.48.78.48,1.36Zm-.75.07c0-.43-.1-.75-.3-.96-.2-.22-.5-.32-.92-.32-.29,0-.55.07-.76.22-.21.14-.36.31-.45.49-.01.08-.02.15-.02.21v.18c0,.19.03.37.08.55.05.18.13.34.24.48.11.14.24.25.4.34.16.09.35.13.56.13.17,0,.33-.03.47-.1.14-.07.26-.16.36-.27.1-.11.18-.25.24-.41s.09-.34.09-.52Z"/><path d="m407.47,75.01h1.26v-4.36l.09-.53-.36.42-.99.71-.34-.46,1.98-1.53h.32v5.74h1.23v.67h-3.2v-.67Z"/></g><g><path d="m329.01,80.24c.23-.05.47-.09.74-.11.26-.02.52-.03.78-.03.28,0,.56.03.84.08s.54.15.78.3c.23.14.42.34.57.59s.22.57.22.96-.07.71-.21.97c-.14.26-.32.48-.55.64s-.49.28-.78.36c-.29.07-.6.11-.91.11h-.15c-.07,0-.14,0-.22,0-.08,0-.15,0-.22-.01-.07,0-.12-.01-.15-.02v2.39h-.75v-6.24Zm1.54.51c-.16,0-.31,0-.45,0s-.26.02-.34.04v2.61s.08.02.14.02c.07,0,.14,0,.21,0,.07,0,.14,0,.21,0h.14c.2,0,.41-.02.61-.06.2-.04.38-.11.54-.21.16-.1.29-.25.39-.43.1-.19.15-.42.15-.71,0-.25-.05-.45-.14-.62-.09-.17-.22-.3-.37-.4-.15-.1-.33-.17-.52-.21s-.38-.06-.58-.06Z"/><path d="m333.6,82.31c.23-.14.49-.24.8-.31.3-.07.62-.1.95-.1.31,0,.56.04.75.13s.33.19.43.33c.1.13.17.28.2.45.03.16.05.32.05.49,0,.36,0,.71-.03,1.05s-.03.67-.03.97c0,.22,0,.43.03.63.02.2.05.38.1.55h-.53l-.19-.63h-.04c-.05.08-.12.17-.2.25s-.18.15-.29.22c-.11.06-.25.12-.4.16s-.32.06-.51.06-.37-.03-.54-.09c-.17-.06-.31-.15-.43-.26s-.21-.24-.28-.4c-.07-.16-.1-.33-.1-.53,0-.26.05-.48.16-.66.11-.18.26-.32.45-.42.2-.11.43-.18.7-.23s.57-.07.9-.07h.25c.08,0,.16,0,.25.02.02-.18.03-.34.03-.49,0-.33-.07-.56-.2-.69s-.37-.2-.72-.2c-.1,0-.21,0-.33.02-.12.02-.24.04-.36.07-.12.03-.24.06-.35.1-.11.04-.21.08-.29.13l-.23-.55Zm1.28,3.61c.17,0,.32-.02.45-.07.13-.04.25-.1.34-.17.1-.07.18-.15.24-.23s.11-.17.14-.24v-.75c-.08,0-.17-.01-.26-.01s-.17,0-.26,0c-.19,0-.37.01-.54.03-.18.02-.33.06-.47.12-.13.06-.24.13-.32.23-.08.1-.12.22-.12.37,0,.21.07.38.23.52.15.13.34.2.58.2Z"/><path d="m341.02,86.48v-2.57c0-.47-.07-.82-.2-1.06-.13-.24-.38-.36-.74-.36-.32,0-.58.08-.79.26s-.35.39-.44.64v3.08h-.72v-4.5h.5l.14.55h.04c.14-.19.34-.35.58-.47.24-.12.53-.18.87-.18.25,0,.46.03.65.09s.34.16.46.3c.12.14.22.34.28.58s.09.55.09.92v2.72h-.72Z"/><path d="m342.46,81.98h.7v-.89l.72-.21v1.1h1.22v.63h-1.22v2.49c0,.31.04.53.12.66.08.13.21.19.4.19.16,0,.29-.02.4-.05.11-.03.23-.08.36-.13l.16.55c-.16.08-.34.14-.53.19s-.4.07-.62.07c-.37,0-.62-.1-.77-.31s-.23-.55-.23-1.04v-2.63h-.7v-.63Z"/><path d="m345.76,84.23c0-.76.17-1.35.51-1.75.34-.4.83-.61,1.46-.61.34,0,.63.06.88.17s.45.27.62.48.28.46.36.75c.08.29.12.61.12.97,0,.76-.17,1.35-.51,1.75-.34.4-.83.61-1.46.61-.34,0-.63-.06-.88-.17-.25-.11-.45-.27-.62-.48s-.28-.46-.36-.75c-.08-.29-.12-.61-.12-.97Zm.75,0c0,.23.02.45.07.66s.12.39.21.55c.1.16.22.28.38.38.16.1.34.14.57.14.82,0,1.22-.57,1.22-1.73,0-.23-.02-.46-.07-.67s-.12-.39-.21-.55c-.1-.16-.22-.28-.38-.37-.16-.09-.35-.14-.57-.14-.82,0-1.22.57-1.22,1.73Z"/><path d="m353.73,86.48v-2.57c0-.47-.07-.82-.2-1.06-.13-.24-.38-.36-.74-.36-.32,0-.58.08-.79.26s-.35.39-.44.64v3.08h-.72v-4.5h.5l.14.55h.04c.14-.19.34-.35.58-.47s.53-.18.87-.18c.25,0,.46.03.65.09.19.06.34.16.46.3.12.14.22.34.28.58.06.24.09.55.09.92v2.72h-.72Z"/><path d="m359.05,86.12c-.18.14-.41.26-.68.34-.27.08-.56.13-.87.13-.34,0-.64-.06-.89-.17s-.46-.27-.62-.48-.28-.46-.36-.74c-.08-.29-.12-.61-.12-.97,0-.77.17-1.35.51-1.75s.83-.6,1.47-.6c.2,0,.41.02.61.07.2.04.39.13.55.26s.29.3.4.54c.1.23.15.54.15.91,0,.2-.02.42-.05.66h-2.89c0,.26.03.5.08.7.05.2.14.38.25.52.11.14.26.25.45.32.18.08.41.11.67.11.2,0,.41-.04.61-.11s.36-.16.46-.25l.27.52Zm-1.55-3.62c-.35,0-.64.09-.85.28-.21.19-.34.5-.38.95h2.23c0-.46-.09-.78-.26-.96-.17-.18-.42-.27-.74-.27Z"/><path d="m360.46,82.44c0-.16.05-.29.14-.38.09-.09.22-.14.37-.14s.29.05.39.14c.1.09.14.22.14.38s-.05.28-.14.38-.22.14-.39.14-.28-.05-.37-.14-.14-.22-.14-.38Zm0,3.63c0-.16.05-.29.14-.38.09-.09.22-.14.37-.14s.29.05.39.14c.1.09.14.22.14.38s-.05.28-.14.38-.22.14-.39.14-.28-.05-.37-.14-.14-.22-.14-.38Z"/><path d="m365.93,85.96c.41,0,.76-.12,1.03-.36.27-.24.41-.59.41-1.04s-.13-.77-.4-.98-.63-.32-1.1-.32l-.76.05v-3.11h2.81v.67h-2.13v1.79l.39-.02c.59,0,1.06.17,1.4.5s.51.79.51,1.4c0,.34-.06.63-.17.9-.11.26-.27.48-.46.65-.2.17-.42.31-.69.4-.26.09-.55.14-.85.14-.27,0-.5-.02-.68-.04-.19-.03-.36-.08-.52-.14l.19-.61c.14.05.29.09.45.12s.36.04.59.04Z"/><path d="m373.35,84.58c0,.28-.04.54-.13.78-.08.24-.21.46-.37.64s-.36.33-.6.43c-.24.11-.51.16-.82.16s-.57-.05-.81-.14-.45-.24-.62-.43c-.17-.19-.31-.42-.4-.7-.09-.28-.14-.59-.14-.95,0-.59.08-1.14.23-1.64.15-.5.36-.94.63-1.31.27-.37.59-.67.96-.9.37-.23.77-.38,1.2-.44l.15.58c-.34.06-.64.17-.92.34-.28.17-.52.38-.72.62s-.38.52-.51.83-.22.62-.27.95c.1-.16.26-.31.49-.45.23-.14.51-.2.84-.2.56,0,1.01.16,1.33.49.32.32.48.78.48,1.36Zm-.75.07c0-.43-.1-.75-.3-.96-.2-.22-.5-.32-.92-.32-.29,0-.55.07-.76.22-.21.14-.36.31-.45.49-.01.08-.02.15-.02.21v.18c0,.19.03.37.08.55.05.18.13.34.24.48.11.14.24.25.4.34.16.09.35.13.56.13.17,0,.33-.03.47-.1.14-.07.26-.16.36-.27.1-.11.18-.25.24-.41s.09-.34.09-.52Z"/><path d="m374.21,83.33c0-1.08.17-1.89.53-2.44.35-.55.86-.82,1.53-.82.73,0,1.25.27,1.58.81s.49,1.35.49,2.45-.18,1.89-.53,2.44c-.35.55-.87.82-1.54.82-.71,0-1.24-.29-1.57-.86s-.49-1.37-.49-2.4Zm.75,0c0,.39.03.75.08,1.07.05.32.13.6.24.83.11.23.24.41.41.54.17.13.36.19.59.19.46,0,.79-.21,1-.63.21-.42.32-1.09.32-1.99,0-.38-.02-.74-.07-1.06s-.12-.6-.23-.84c-.1-.23-.24-.41-.41-.54s-.38-.19-.62-.19c-.45,0-.78.21-.99.64-.21.43-.32,1.09-.32,1.99Z"/><path d="m380.65,85.96c.41,0,.76-.12,1.03-.36.27-.24.41-.59.41-1.04s-.13-.77-.4-.98-.63-.32-1.1-.32l-.76.05v-3.11h2.81v.67h-2.13v1.79l.39-.02c.59,0,1.06.17,1.4.5s.51.79.51,1.4c0,.34-.06.63-.17.9-.11.26-.27.48-.46.65-.2.17-.42.31-.69.4-.26.09-.55.14-.85.14-.27,0-.5-.02-.68-.04-.19-.03-.36-.08-.52-.14l.19-.61c.14.05.29.09.45.12s.36.04.59.04Z"/><path d="m390.83,86.22c-.18.14-.41.23-.68.29-.28.05-.57.08-.88.08-.38,0-.73-.07-1.06-.19s-.62-.33-.86-.59c-.25-.26-.44-.6-.58-1.01-.14-.41-.22-.9-.22-1.46s.08-1.09.24-1.5c.16-.41.37-.75.63-1.01.26-.26.55-.45.88-.57s.65-.18.99-.18c.36,0,.65.02.88.06.23.04.42.09.58.16l-.18.67c-.29-.14-.7-.22-1.23-.22-.25,0-.49.04-.73.13-.24.09-.46.24-.64.44-.19.2-.34.47-.46.8-.11.33-.17.74-.17,1.21,0,.43.05.81.16,1.13.11.32.26.59.45.81.19.22.41.38.67.49.25.11.53.16.83.16.27,0,.5-.03.71-.08.2-.05.37-.12.51-.21l.18.58Z"/></g></g><path class="cls-5" d="m349.95,43.4c11.99,0,21.7-9.72,21.7-21.7S361.94,0,349.95,0s-21.7,9.72-21.7,21.7,9.72,21.7,21.7,21.7"/><g><g><path d="m556.26,58.64c.23-.04.49-.07.79-.1s.57-.04.81-.04c.28,0,.54.03.79.09.25.06.47.16.66.3.19.14.34.32.45.54.11.22.17.49.17.81,0,.49-.13.89-.4,1.2-.27.31-.61.51-1.03.61l.43.33,1.57,2.49h-.87l-1.74-2.72-.88-.13v2.85h-.75v-6.24Zm1.62.51h-.24c-.08,0-.17,0-.24,0-.08,0-.15.01-.22.02-.07,0-.12.02-.17.03v2.32h.7c.41,0,.76-.1,1.03-.31.27-.2.4-.52.4-.95,0-.32-.11-.59-.33-.8-.22-.21-.53-.31-.93-.31Z"/><path d="m563.36,61.74h2.12v2.77c-.1.07-.21.14-.35.2-.13.06-.28.11-.43.15-.15.04-.31.07-.48.09-.17.02-.33.03-.48.03-.4,0-.77-.07-1.11-.19s-.63-.33-.87-.59c-.25-.27-.44-.61-.58-1.02s-.21-.9-.21-1.45.08-1.08.25-1.49c.17-.41.39-.75.66-1.01.27-.26.57-.45.91-.57s.67-.18,1.01-.18c.36,0,.66.02.89.06.23.04.43.09.59.16l-.19.67c-.29-.14-.7-.22-1.23-.22-.25,0-.5.04-.75.13s-.47.23-.67.44c-.2.2-.36.47-.49.8s-.19.74-.19,1.22c0,.44.05.83.15,1.15s.24.59.43.81.4.37.66.48c.26.11.54.16.84.16.38,0,.71-.08.98-.23v-1.75l-1.47-.18v-.42Z"/><path d="m570.54,60.02c0,.15-.02.3-.07.46-.05.16-.12.3-.22.44-.1.14-.22.25-.37.36-.15.1-.33.18-.53.23v.04c.18.03.35.08.52.15.17.07.31.17.44.3s.23.28.31.46c.08.18.12.39.12.64,0,.32-.07.6-.2.84-.14.24-.31.43-.53.58-.22.15-.47.26-.75.33-.28.07-.57.11-.86.11h-.36c-.14,0-.28,0-.43-.01-.15,0-.3-.02-.45-.04-.15-.01-.28-.04-.4-.07v-6.2c.22-.04.48-.07.77-.09s.62-.04.96-.04c.23,0,.47.02.72.06s.46.11.66.22c.2.11.36.27.49.46s.19.45.19.76Zm-2.58,1.33c.1,0,.22,0,.37,0,.14,0,.26-.01.36-.03.14-.05.28-.11.41-.17.13-.07.24-.15.34-.24.1-.09.18-.2.23-.32.06-.12.09-.26.09-.4,0-.2-.04-.36-.11-.49s-.17-.23-.3-.31-.27-.13-.43-.17c-.16-.03-.33-.05-.5-.05-.2,0-.38,0-.54.01-.17,0-.29.02-.37.04v2.14h.47Zm.49,2.95c.19,0,.38-.02.56-.07.18-.04.34-.12.48-.22.14-.1.25-.22.33-.36.08-.14.12-.32.12-.51,0-.25-.05-.44-.15-.59-.1-.15-.23-.27-.39-.35-.16-.08-.34-.14-.54-.17-.2-.03-.4-.05-.59-.05h-.78v2.26s.1.02.18.03c.08,0,.16.01.25.02.09,0,.18.01.28.01.1,0,.18,0,.25,0Z"/><path d="m572.05,60.84c0-.16.05-.29.14-.38s.22-.14.37-.14.29.05.39.14c.1.09.14.22.14.38s-.05.28-.14.38-.22.14-.39.14-.28-.05-.37-.14c-.09-.1-.14-.22-.14-.38Zm0,3.63c0-.16.05-.29.14-.38s.22-.14.37-.14.29.05.39.14c.1.09.14.22.14.38s-.05.28-.14.38-.22.14-.39.14-.28-.05-.37-.14c-.09-.1-.14-.22-.14-.38Z"/><path d="m576.58,64.21h1.26v-4.36l.09-.53-.36.42-.99.71-.34-.46,1.98-1.53h.32v5.74h1.23v.67h-3.2v-.67Z"/><path d="m585.23,62.94h-1.06v1.93h-.7v-1.93h-2.77v-.3l2.99-4.17h.49v3.83h1.06v.63Zm-1.76-2.59l.09-.74h-.03l-.31.61-1.27,1.72-.43.44.63-.07h1.32v-1.96Z"/><path d="m586.39,64.21h1.26v-4.36l.09-.53-.36.42-.99.71-.34-.46,1.98-1.53h.32v5.74h1.23v.67h-3.2v-.67Z"/><path d="m593.27,58.47l.57.25-3.28,7.42-.57-.25,3.29-7.42Z"/><path d="m597.83,64.35c.41,0,.76-.12,1.03-.36.27-.24.4-.59.4-1.04s-.13-.77-.4-.98c-.27-.22-.63-.32-1.1-.32l-.76.05v-3.11h2.81v.67h-2.13v1.79l.39-.02c.59,0,1.06.17,1.4.5.34.32.51.79.51,1.4,0,.34-.06.63-.17.9-.11.26-.27.48-.46.65-.2.17-.42.31-.69.4-.26.09-.55.14-.85.14-.27,0-.5-.02-.68-.04-.19-.03-.36-.08-.52-.14l.19-.61c.14.05.29.09.45.12s.36.04.59.04Z"/><path d="m601.43,63.37c0-.38.1-.71.3-.99.2-.28.51-.53.93-.76-.15-.09-.29-.18-.42-.28-.13-.1-.24-.21-.34-.34-.1-.13-.18-.27-.23-.42-.06-.16-.09-.34-.09-.54,0-.23.04-.45.12-.64.08-.19.2-.36.35-.5s.34-.25.55-.32.46-.12.72-.12c.25,0,.48.04.68.11.2.07.38.17.52.3.14.13.25.28.33.45s.12.37.12.58c0,.34-.08.64-.23.9-.16.26-.41.52-.77.77.16.09.3.19.45.3.14.11.26.23.37.36.11.13.19.28.25.45.06.17.09.35.09.56,0,.26-.04.49-.13.71s-.21.4-.37.55c-.16.15-.36.27-.59.36s-.5.13-.8.13-.54-.04-.77-.13c-.22-.08-.41-.2-.56-.34-.15-.14-.27-.31-.35-.51-.08-.2-.12-.41-.12-.63Zm2.98-.09c0-.18-.04-.34-.11-.47-.07-.13-.17-.26-.28-.37s-.25-.21-.4-.3c-.15-.09-.31-.18-.47-.26-.37.2-.63.43-.78.68-.16.25-.23.49-.23.72,0,.14.02.28.07.41s.12.25.22.34c.1.1.21.17.36.23.14.06.3.08.49.08.15,0,.29-.02.43-.07s.26-.11.36-.2c.11-.09.19-.2.25-.33.06-.14.09-.29.09-.47Zm-2.13-3.26c0,.17.03.32.1.45.07.13.15.24.27.35.11.1.24.2.38.28.14.09.29.17.45.25.27-.21.47-.42.6-.62.13-.2.19-.43.19-.67,0-.31-.09-.54-.28-.71-.19-.17-.42-.25-.68-.25-.16,0-.31.03-.43.08-.13.05-.23.12-.32.21-.09.08-.16.18-.2.29s-.07.23-.07.35Z"/><path d="m608.67,58.47l.57.25-3.28,7.42-.57-.25,3.29-7.42Z"/><path d="m615.32,60.01c0,.32-.06.64-.17.98-.12.33-.27.67-.46,1-.19.34-.4.66-.63.99-.23.32-.47.62-.7.91l-.44.39v.04l.58-.1h1.96v.67h-3.58v-.26c.13-.14.29-.31.48-.51.19-.2.38-.43.58-.68s.4-.51.59-.79c.19-.28.37-.56.53-.85s.29-.57.38-.86.14-.55.14-.8c0-.29-.08-.54-.25-.73s-.42-.29-.76-.29c-.23,0-.45.05-.67.14-.22.09-.4.2-.56.32l-.3-.51c.21-.18.46-.32.75-.42.29-.1.6-.15.93-.15.26,0,.49.04.68.11.2.08.37.18.5.32.14.14.24.3.32.49.07.19.11.39.11.62Z"/><path d="m618.13,64.35c.41,0,.76-.12,1.03-.36.27-.24.4-.59.4-1.04s-.13-.77-.4-.98c-.27-.22-.63-.32-1.1-.32l-.76.05v-3.11h2.81v.67h-2.13v1.79l.39-.02c.59,0,1.06.17,1.4.5.34.32.51.79.51,1.4,0,.34-.06.63-.17.9-.11.26-.27.48-.46.65-.2.17-.42.31-.69.4-.26.09-.55.14-.85.14-.27,0-.5-.02-.68-.04-.19-.03-.36-.08-.52-.14l.19-.61c.14.05.29.09.45.12s.36.04.59.04Z"/></g><g><path d="m560.3,75.42c-.18.14-.41.23-.68.29-.28.05-.57.08-.88.08-.38,0-.73-.07-1.06-.19s-.62-.33-.86-.59-.44-.6-.58-1.01c-.14-.41-.22-.9-.22-1.46s.08-1.09.24-1.5.37-.75.63-1.01.55-.45.88-.57.65-.18.99-.18c.36,0,.65.02.88.06.23.04.42.09.58.16l-.18.67c-.29-.14-.7-.22-1.23-.22-.25,0-.49.04-.73.13-.24.09-.46.24-.64.44-.19.2-.34.47-.46.8s-.17.74-.17,1.21c0,.43.05.81.16,1.13.11.32.26.59.45.81.19.22.41.38.67.49.25.11.53.16.83.16.27,0,.5-.03.71-.08.2-.05.37-.12.51-.21l.18.58Z"/><path d="m566.25,71.45l.09-.94h-.04l-.34.86-1.64,2.84h-.22l-1.74-2.85-.32-.85h-.04l.13.94v4.24h-.7v-6.3h.56l1.97,3.22.3.7h.02l.28-.72,1.88-3.2h.58v6.3h-.75v-4.23Z"/><path d="m569.91,73.18l-2.08-3.8h.87l1.48,2.75.16.55h0l.17-.57,1.42-2.74h.79l-2.06,3.79v2.51h-.75v-2.5Z"/><path d="m574.71,72.76h-.42v2.92h-.75v-6.3h.75v2.93l.41-.13,2.12-2.81h.86l-2.11,2.71-.38.3.46.36,2.3,2.93h-.94l-2.3-2.92Z"/><path d="m579.09,71.64c0-.16.05-.29.14-.38s.22-.14.37-.14.29.05.39.14c.1.09.14.22.14.38s-.05.28-.14.38-.22.14-.39.14-.28-.05-.37-.14c-.09-.1-.14-.22-.14-.38Zm0,3.63c0-.16.05-.29.14-.38s.22-.14.37-.14.29.05.39.14c.1.09.14.22.14.38s-.05.28-.14.38-.22.14-.39.14-.28-.05-.37-.14c-.09-.1-.14-.22-.14-.38Z"/><path d="m586.66,70.81c0,.32-.06.64-.17.98-.12.33-.27.67-.46,1-.19.34-.4.66-.63.99-.23.32-.47.62-.7.91l-.44.39v.04l.58-.1h1.96v.67h-3.58v-.26c.13-.14.29-.31.48-.51.19-.2.38-.43.58-.68s.4-.51.59-.79c.19-.28.37-.56.53-.85s.29-.57.38-.86.14-.55.14-.8c0-.29-.08-.54-.25-.73s-.42-.29-.76-.29c-.23,0-.45.05-.67.14-.22.09-.4.2-.56.32l-.3-.51c.21-.18.46-.32.75-.42.29-.1.6-.15.93-.15.26,0,.49.04.68.11.2.08.37.18.5.32.14.14.24.3.32.49.07.19.11.39.11.62Z"/><path d="m588.02,71.29c0-.29.04-.56.13-.8.08-.25.21-.46.37-.64s.36-.32.61-.42c.24-.1.53-.15.85-.15.61,0,1.09.2,1.43.59.34.4.51.95.51,1.67,0,.68-.08,1.27-.23,1.78-.15.51-.36.93-.63,1.28-.27.35-.59.62-.96.81-.37.2-.77.32-1.2.37l-.16-.58c.35-.05.66-.16.94-.31.28-.15.52-.34.72-.57.2-.23.36-.49.49-.78s.21-.61.26-.95c-.16.19-.34.33-.54.4-.2.08-.45.11-.77.11-.25,0-.48-.04-.7-.12-.22-.08-.41-.2-.58-.36-.17-.16-.3-.35-.4-.58-.1-.23-.14-.49-.14-.78Zm.75-.07c0,.43.11.75.34.96.22.21.52.32.89.32.29,0,.55-.05.76-.14s.36-.22.45-.38c.01-.08.02-.15.02-.21v-.19c0-.22-.03-.42-.08-.63-.05-.2-.13-.38-.23-.54-.1-.16-.24-.28-.4-.37-.17-.09-.36-.14-.58-.14-.37,0-.65.12-.85.35-.2.23-.31.55-.31.97Z"/><path d="m595.41,69.27l.57.25-3.28,7.42-.57-.25,3.29-7.42Z"/><path d="m598.66,74.17c0-.38.1-.71.3-.99.2-.28.51-.53.93-.76-.15-.09-.29-.18-.42-.28-.13-.1-.24-.21-.34-.34-.1-.13-.18-.27-.23-.42-.06-.16-.09-.34-.09-.54,0-.23.04-.45.12-.64.08-.19.2-.36.35-.5s.34-.25.55-.32.46-.12.72-.12c.25,0,.48.04.68.11.2.07.38.17.52.3.14.13.25.28.33.45s.12.37.12.58c0,.34-.08.64-.23.9-.16.26-.41.52-.77.77.16.09.3.19.45.3.14.11.26.23.37.36.11.13.19.28.25.45.06.17.09.35.09.56,0,.26-.04.49-.13.71s-.21.4-.37.55c-.16.15-.36.27-.59.36s-.5.13-.8.13-.54-.04-.77-.13c-.22-.08-.41-.2-.56-.34-.15-.14-.27-.31-.35-.51-.08-.2-.12-.41-.12-.63Zm2.98-.09c0-.18-.04-.34-.11-.47-.07-.13-.17-.26-.28-.37s-.25-.21-.4-.3c-.15-.09-.31-.18-.47-.26-.37.2-.63.43-.78.68-.16.25-.23.49-.23.72,0,.14.02.28.07.41s.12.25.22.34c.1.1.21.17.36.23.14.06.3.08.49.08.15,0,.29-.02.43-.07s.26-.11.36-.2c.11-.09.19-.2.25-.33.06-.14.09-.29.09-.47Zm-2.13-3.26c0,.17.03.32.1.45.07.13.15.24.27.35.11.1.24.2.38.28.14.09.29.17.45.25.27-.21.47-.42.6-.62.13-.2.19-.43.19-.67,0-.31-.09-.54-.28-.71-.19-.17-.42-.25-.68-.25-.16,0-.31.03-.43.08-.13.05-.23.12-.32.21-.09.08-.16.18-.2.29s-.07.23-.07.35Z"/><path d="m605.05,75.15c.2,0,.39-.03.57-.09.17-.06.32-.15.45-.27.13-.12.22-.26.3-.42s.11-.34.11-.53c0-.42-.12-.73-.37-.94s-.59-.31-1.03-.31h-.67v-.26l1.3-2,.41-.4-.58.09h-1.78v-.67h3.21v.26l-1.43,2.15-.32.26v.02l.31-.06c.24,0,.46.05.67.13.2.08.38.2.53.35.15.15.27.34.35.55s.13.46.13.72c0,.32-.06.61-.17.86-.11.25-.27.46-.46.63-.2.17-.42.3-.69.39-.26.09-.54.14-.84.14-.27,0-.51-.02-.73-.06-.22-.04-.41-.1-.57-.16l.19-.64c.14.07.3.12.49.17.19.04.4.07.63.07Z"/><path d="m610.8,69.27l.57.25-3.28,7.42-.57-.25,3.29-7.42Z"/><path d="m614.41,75.01h1.26v-4.36l.09-.53-.36.42-.99.71-.34-.46,1.98-1.53h.32v5.74h1.23v.67h-3.2v-.67Z"/><path d="m618.73,72.53c0-1.08.18-1.89.53-2.44.35-.55.86-.82,1.54-.82.73,0,1.25.27,1.58.81s.49,1.35.49,2.45-.17,1.89-.53,2.44c-.35.55-.87.82-1.54.82-.71,0-1.24-.29-1.57-.86s-.5-1.37-.5-2.4Zm.75,0c0,.39.03.75.08,1.07.05.32.13.6.24.83.11.23.24.41.41.54.17.13.36.19.59.19.46,0,.79-.21,1-.63s.32-1.09.32-1.99c0-.38-.02-.74-.07-1.06s-.12-.6-.22-.84c-.11-.23-.24-.41-.41-.54s-.38-.19-.62-.19c-.45,0-.78.21-1,.64-.21.43-.32,1.09-.32,1.99Z"/><path d="m623.64,72.53c0-1.08.18-1.89.53-2.44.35-.55.86-.82,1.54-.82.73,0,1.25.27,1.58.81s.49,1.35.49,2.45-.17,1.89-.53,2.44c-.35.55-.87.82-1.54.82-.71,0-1.24-.29-1.57-.86s-.5-1.37-.5-2.4Zm.75,0c0,.39.03.75.08,1.07.05.32.13.6.24.83.11.23.24.41.41.54.17.13.36.19.59.19.46,0,.79-.21,1-.63s.32-1.09.32-1.99c0-.38-.02-.74-.07-1.06s-.12-.6-.22-.84c-.11-.23-.24-.41-.41-.54s-.38-.19-.62-.19c-.45,0-.78.21-1,.64-.21.43-.32,1.09-.32,1.99Z"/><path d="m631.11,69.27l.57.25-3.28,7.42-.57-.25,3.29-7.42Z"/><path d="m637.76,70.81c0,.32-.06.64-.17.98-.12.33-.27.67-.46,1-.19.34-.4.66-.63.99-.23.32-.47.62-.7.91l-.44.39v.04l.58-.1h1.96v.67h-3.58v-.26c.13-.14.29-.31.48-.51.19-.2.38-.43.58-.68s.4-.51.59-.79c.19-.28.37-.56.53-.85s.29-.57.38-.86.14-.55.14-.8c0-.29-.08-.54-.25-.73s-.42-.29-.76-.29c-.23,0-.45.05-.67.14-.22.09-.4.2-.56.32l-.3-.51c.21-.18.46-.32.75-.42.29-.1.6-.15.93-.15.26,0,.49.04.68.11.2.08.37.18.5.32.14.14.24.3.32.49.07.19.11.39.11.62Z"/><path d="m639.12,71.29c0-.29.04-.56.13-.8.08-.25.21-.46.37-.64s.36-.32.61-.42c.24-.1.53-.15.85-.15.61,0,1.09.2,1.43.59.34.4.51.95.51,1.67,0,.68-.08,1.27-.23,1.78-.15.51-.36.93-.63,1.28-.27.35-.59.62-.96.81-.37.2-.77.32-1.2.37l-.16-.58c.35-.05.66-.16.94-.31.28-.15.52-.34.72-.57.2-.23.36-.49.49-.78s.21-.61.26-.95c-.16.19-.34.33-.54.4-.2.08-.45.11-.77.11-.25,0-.48-.04-.7-.12-.22-.08-.41-.2-.58-.36-.17-.16-.3-.35-.4-.58-.1-.23-.14-.49-.14-.78Zm.75-.07c0,.43.11.75.34.96.22.21.52.32.89.32.29,0,.55-.05.76-.14s.36-.22.45-.38c.01-.08.02-.15.02-.21v-.19c0-.22-.03-.42-.08-.63-.05-.2-.13-.38-.23-.54-.1-.16-.24-.28-.4-.37-.17-.09-.36-.14-.58-.14-.37,0-.65.12-.85.35-.2.23-.31.55-.31.97Z"/></g><g><path d="m556.26,80.24c.23-.05.47-.09.74-.11.26-.02.53-.03.78-.03.28,0,.56.03.84.08.28.05.54.15.78.3.23.14.42.34.57.59.15.25.22.57.22.96s-.07.71-.21.97c-.14.26-.32.48-.55.64-.23.17-.49.28-.78.36s-.6.11-.91.11h-.15c-.07,0-.14,0-.22,0s-.15,0-.22-.01-.12-.01-.15-.02v2.39h-.75v-6.24Zm1.54.51c-.16,0-.31,0-.45,0-.14,0-.26.02-.34.04v2.61s.08.02.14.02c.07,0,.13,0,.21,0,.07,0,.14,0,.21,0h.14c.2,0,.41-.02.61-.06s.38-.11.54-.21.29-.25.39-.43c.1-.19.15-.42.15-.71,0-.25-.05-.45-.14-.62s-.22-.3-.37-.4c-.15-.1-.33-.17-.52-.21s-.38-.06-.58-.06Z"/><path d="m560.85,82.31c.23-.14.49-.24.8-.31.3-.07.62-.1.95-.1.31,0,.56.04.75.13.19.08.33.19.43.33.1.13.17.28.2.45.03.16.05.32.05.49,0,.36,0,.71-.03,1.05-.02.34-.03.67-.03.97,0,.22,0,.43.03.63.02.2.05.38.1.55h-.53l-.19-.63h-.04c-.05.08-.12.17-.2.25s-.18.15-.29.22c-.11.06-.25.12-.4.16s-.32.06-.51.06-.37-.03-.54-.09c-.17-.06-.31-.15-.43-.26s-.21-.24-.28-.4c-.07-.16-.1-.33-.1-.53,0-.26.05-.48.16-.66.11-.18.26-.32.46-.42.19-.11.43-.18.7-.23.27-.04.57-.07.9-.07h.25c.08,0,.16,0,.25.02.02-.18.03-.34.03-.49,0-.33-.07-.56-.2-.69-.13-.13-.37-.2-.72-.2-.1,0-.21,0-.33.02s-.24.04-.36.07c-.12.03-.24.06-.35.1-.11.04-.21.08-.29.13l-.22-.55Zm1.28,3.61c.17,0,.32-.02.45-.07.13-.04.25-.1.34-.17.1-.07.17-.15.24-.23.06-.08.11-.17.14-.24v-.75c-.08,0-.17-.01-.26-.01s-.17,0-.26,0c-.19,0-.37.01-.54.03-.18.02-.33.06-.47.12-.14.06-.24.13-.32.23-.08.1-.12.22-.12.37,0,.21.08.38.23.52.15.13.34.2.58.2Z"/><path d="m568.27,86.48v-2.57c0-.47-.07-.82-.2-1.06-.14-.24-.38-.36-.74-.36-.32,0-.58.08-.79.26s-.35.39-.44.64v3.08h-.72v-4.5h.5l.13.55h.04c.14-.19.34-.35.58-.47s.53-.18.87-.18c.25,0,.46.03.65.09.19.06.34.16.46.3.12.14.22.34.28.58.06.24.09.55.09.92v2.72h-.72Z"/><path d="m569.71,81.98h.7v-.89l.72-.21v1.1h1.22v.63h-1.22v2.49c0,.31.04.53.12.66.08.13.21.19.4.19.16,0,.29-.02.4-.05.11-.03.23-.08.36-.13l.16.55c-.16.08-.34.14-.53.19s-.4.07-.62.07c-.37,0-.62-.1-.77-.31-.15-.21-.23-.55-.23-1.04v-2.63h-.7v-.63Z"/><path d="m573.01,84.23c0-.76.17-1.35.51-1.75.34-.4.83-.61,1.46-.61.34,0,.63.06.88.17s.46.27.62.48.28.46.36.75.12.61.12.97c0,.76-.17,1.35-.51,1.75-.34.4-.83.61-1.46.61-.34,0-.63-.06-.88-.17s-.45-.27-.62-.48-.28-.46-.36-.75-.12-.61-.12-.97Zm.75,0c0,.23.02.45.07.66s.12.39.21.55.22.28.38.38.35.14.57.14c.82,0,1.22-.57,1.22-1.73,0-.23-.02-.46-.07-.67s-.12-.39-.21-.55c-.1-.16-.22-.28-.38-.37-.16-.09-.34-.14-.57-.14-.82,0-1.22.57-1.22,1.73Z"/><path d="m580.98,86.48v-2.57c0-.47-.07-.82-.2-1.06-.14-.24-.38-.36-.74-.36-.32,0-.58.08-.79.26s-.35.39-.44.64v3.08h-.72v-4.5h.5l.13.55h.04c.14-.19.34-.35.58-.47s.53-.18.87-.18c.25,0,.46.03.65.09.19.06.34.16.46.3.12.14.22.34.28.58.06.24.09.55.09.92v2.72h-.72Z"/><path d="m586.3,86.12c-.18.14-.41.26-.68.34-.27.08-.56.13-.87.13-.34,0-.64-.06-.89-.17s-.46-.27-.62-.48-.28-.46-.36-.74-.12-.61-.12-.97c0-.77.17-1.35.51-1.75s.83-.6,1.47-.6c.2,0,.41.02.61.07.2.04.39.13.55.26s.29.3.4.54c.1.23.15.54.15.91,0,.2-.02.42-.05.66h-2.89c0,.26.03.5.08.7.05.2.14.38.25.52.11.14.26.25.45.32.18.08.41.11.67.11.2,0,.41-.04.61-.11s.36-.16.46-.25l.27.52Zm-1.55-3.62c-.35,0-.64.09-.85.28-.21.19-.34.5-.38.95h2.23c0-.46-.09-.78-.26-.96-.17-.18-.42-.27-.74-.27Z"/><path d="m587.71,82.44c0-.16.05-.29.14-.38s.22-.14.37-.14.29.05.39.14c.1.09.14.22.14.38s-.05.28-.14.38-.22.14-.39.14-.28-.05-.37-.14c-.09-.1-.14-.22-.14-.38Zm0,3.63c0-.16.05-.29.14-.38s.22-.14.37-.14.29.05.39.14c.1.09.14.22.14.38s-.05.28-.14.38-.22.14-.39.14-.28-.05-.37-.14c-.09-.1-.14-.22-.14-.38Z"/><path d="m592.26,86.48l2.26-5.27.4-.44-.53.08h-2.57v-.67h3.76v.24l-2.6,6.06h-.72Z"/><path d="m598.09,85.96c.41,0,.76-.12,1.03-.36.27-.24.4-.59.4-1.04s-.13-.77-.4-.98c-.27-.22-.63-.32-1.1-.32l-.76.05v-3.11h2.81v.67h-2.13v1.79l.39-.02c.59,0,1.06.17,1.4.5.34.32.51.79.51,1.4,0,.34-.06.63-.17.9-.11.26-.27.48-.46.65-.2.17-.42.31-.69.4-.26.09-.55.14-.85.14-.27,0-.5-.02-.68-.04-.19-.03-.36-.08-.52-.14l.19-.61c.14.05.29.09.45.12s.36.04.59.04Z"/><path d="m605.09,81.61c0,.32-.06.64-.17.98-.12.33-.27.67-.46,1-.19.34-.4.66-.63.99-.23.32-.47.62-.7.91l-.44.39v.04l.58-.1h1.96v.67h-3.58v-.26c.13-.14.29-.31.48-.51.19-.2.38-.43.58-.68s.4-.51.59-.79c.19-.28.37-.56.53-.85s.29-.57.38-.86.14-.55.14-.8c0-.29-.08-.54-.25-.73s-.42-.29-.76-.29c-.23,0-.45.05-.67.14-.22.09-.4.2-.56.32l-.3-.51c.21-.18.46-.32.75-.42.29-.1.6-.15.93-.15.26,0,.49.04.68.11.2.08.37.18.5.32.14.14.24.3.32.49.07.19.11.39.11.62Z"/><path d="m610.41,84.58c0,.28-.04.54-.13.78-.08.24-.21.46-.37.64-.16.18-.36.33-.6.43-.24.11-.51.16-.82.16s-.57-.05-.81-.14c-.24-.1-.45-.24-.62-.43-.17-.19-.31-.42-.4-.7-.09-.28-.14-.59-.14-.95,0-.59.08-1.14.23-1.64s.36-.94.63-1.31c.27-.37.59-.67.96-.9.37-.23.77-.38,1.2-.44l.15.58c-.34.06-.64.17-.92.34-.28.17-.52.38-.72.62s-.38.52-.51.83c-.13.31-.22.62-.27.95.1-.16.26-.31.49-.45.23-.14.51-.2.84-.2.56,0,1.01.16,1.33.49s.48.78.48,1.36Zm-.75.07c0-.43-.1-.75-.3-.96s-.5-.32-.92-.32c-.29,0-.55.07-.76.22-.21.14-.36.31-.45.49-.01.08-.02.15-.02.21v.18c0,.19.03.37.08.55.05.18.13.34.24.48.11.14.24.25.4.34.16.09.35.13.56.13.17,0,.33-.03.47-.1.14-.07.26-.16.37-.27.1-.11.18-.25.24-.41.06-.16.08-.34.08-.52Z"/><path d="m618.08,86.22c-.18.14-.41.23-.68.29-.28.05-.57.08-.88.08-.38,0-.73-.07-1.06-.19s-.62-.33-.86-.59-.44-.6-.58-1.01c-.14-.41-.22-.9-.22-1.46s.08-1.09.24-1.5.37-.75.63-1.01.55-.45.88-.57.65-.18.99-.18c.36,0,.65.02.88.06.23.04.42.09.58.16l-.18.67c-.29-.14-.7-.22-1.23-.22-.25,0-.49.04-.73.13-.24.09-.46.24-.64.44-.19.2-.34.47-.46.8s-.17.74-.17,1.21c0,.43.05.81.16,1.13.11.32.26.59.45.81.19.22.41.38.67.49.25.11.53.16.83.16.27,0,.5-.03.71-.08.2-.05.37-.12.51-.21l.18.58Z"/></g></g><path class="cls-6" d="m577.21,43.4c11.98,0,21.7-9.72,21.7-21.7s-9.72-21.7-21.7-21.7-21.7,9.72-21.7,21.7,9.72,21.7,21.7,21.7"/><path class="cls-2" d="m21.7,43.4c11.99,0,21.7-9.72,21.7-21.7S33.69,0,21.7,0,0,9.72,0,21.7s9.72,21.7,21.7,21.7"/><g><g><path d="m.77,58.64c.23-.04.49-.08.79-.1.3-.02.57-.04.81-.04.28,0,.54.03.79.09.25.06.47.16.66.3s.34.32.45.54c.11.22.17.49.17.81,0,.49-.14.89-.4,1.2-.27.31-.61.51-1.03.61l.43.33,1.57,2.49h-.87l-1.74-2.72-.88-.14v2.85h-.75v-6.24Zm1.62.51h-.24c-.08,0-.17,0-.24,0s-.15.01-.22.02c-.07,0-.12.01-.17.03v2.32h.7c.41,0,.76-.1,1.03-.31.27-.2.4-.52.4-.95,0-.32-.11-.59-.33-.8-.22-.21-.53-.31-.93-.31Z"/><path d="m7.86,61.74h2.11v2.77c-.1.07-.21.14-.35.2-.14.06-.28.11-.43.15-.15.04-.31.07-.48.09-.17.02-.33.03-.48.03-.4,0-.77-.06-1.11-.19-.34-.13-.63-.33-.87-.59-.25-.27-.44-.61-.58-1.02-.14-.41-.21-.9-.21-1.45s.08-1.08.25-1.49.39-.75.66-1.01c.27-.26.57-.45.91-.57s.67-.18,1.01-.18c.36,0,.66.02.89.06.23.04.43.09.59.16l-.19.67c-.29-.14-.7-.22-1.23-.22-.25,0-.5.04-.75.13s-.47.23-.67.44c-.2.2-.36.47-.49.8s-.19.74-.19,1.22c0,.44.05.83.15,1.15.1.32.24.59.43.81.18.21.4.37.66.48s.54.16.84.16c.38,0,.71-.07.98-.23v-1.75l-1.47-.18v-.42Z"/><path d="m15.04,60.02c0,.15-.02.3-.07.46-.05.16-.12.3-.22.44-.1.13-.22.25-.37.36s-.33.18-.53.23v.04c.18.03.35.08.52.15.17.07.31.17.44.3s.23.28.31.46c.08.18.12.39.12.64,0,.32-.07.6-.2.84-.13.24-.31.43-.53.58-.22.15-.47.26-.75.33-.28.07-.57.11-.86.11h-.36c-.14,0-.28,0-.43-.01-.15,0-.3-.02-.45-.04-.15-.02-.28-.04-.4-.07v-6.2c.22-.04.48-.07.77-.09s.61-.04.96-.04c.23,0,.47.02.72.06.24.04.46.11.66.23.2.11.36.27.49.46.13.2.19.45.19.77Zm-2.58,1.33c.1,0,.23,0,.37,0,.14,0,.26-.01.36-.03.14-.05.28-.11.4-.18.13-.07.24-.15.34-.24.1-.09.18-.2.23-.32.06-.12.09-.26.09-.4,0-.2-.04-.36-.11-.49-.08-.13-.18-.23-.3-.31-.13-.08-.27-.13-.43-.17-.16-.03-.33-.05-.49-.05-.2,0-.38,0-.54.01-.17,0-.29.02-.37.04v2.14h.47Zm.5,2.95c.19,0,.38-.02.56-.07.18-.04.34-.12.48-.22.14-.1.25-.22.33-.36s.12-.31.12-.51c0-.25-.05-.44-.15-.59s-.23-.27-.39-.35c-.16-.08-.34-.14-.54-.17-.2-.03-.4-.04-.59-.04h-.78v2.26s.1.02.18.03.16.01.25.02c.09,0,.18.01.28.01.1,0,.18,0,.25,0Z"/><path d="m16.55,60.84c0-.16.05-.29.14-.38.09-.09.22-.14.37-.14s.29.05.39.14c.1.09.14.22.14.38s-.05.28-.14.38-.23.14-.39.14-.28-.05-.37-.14c-.09-.1-.14-.22-.14-.38Zm0,3.63c0-.16.05-.29.14-.38.09-.09.22-.14.37-.14s.29.05.39.14c.1.09.14.22.14.38s-.05.28-.14.38-.23.14-.39.14-.28-.05-.37-.14c-.09-.1-.14-.22-.14-.38Z"/><path d="m20.72,63.37c0-.38.1-.71.3-.99.2-.28.51-.53.93-.76-.15-.09-.29-.18-.42-.28-.13-.1-.24-.21-.34-.34-.1-.13-.18-.27-.23-.42-.06-.16-.09-.34-.09-.54,0-.23.04-.45.12-.64.08-.19.2-.36.35-.49.15-.14.34-.25.55-.32s.45-.12.72-.12c.25,0,.48.04.68.11.2.07.38.17.52.3.14.13.25.28.33.45.08.17.12.37.12.58,0,.34-.08.64-.23.9-.16.26-.41.52-.77.77.16.09.3.19.45.3s.26.23.37.36.19.28.25.45c.06.17.09.35.09.56,0,.26-.04.49-.13.71-.08.21-.21.4-.37.55-.16.15-.36.27-.59.36s-.5.13-.8.13-.54-.04-.76-.13c-.22-.08-.41-.2-.56-.34-.15-.14-.27-.31-.35-.51-.08-.19-.12-.41-.12-.63Zm2.98-.09c0-.18-.04-.34-.11-.47-.07-.14-.17-.26-.28-.37-.12-.11-.25-.21-.4-.3-.15-.09-.31-.18-.47-.26-.37.2-.63.43-.78.68-.16.25-.23.49-.23.72,0,.14.02.28.07.41.05.13.12.25.22.34.1.1.21.17.36.23s.3.09.49.09c.15,0,.29-.02.43-.07s.26-.11.36-.2.19-.2.25-.33c.06-.13.09-.29.09-.47Zm-2.13-3.26c0,.17.03.32.1.45.07.13.15.24.27.35.11.1.24.2.38.28s.29.17.45.25c.27-.21.47-.42.6-.62s.19-.43.19-.68c0-.31-.09-.54-.28-.71s-.42-.25-.68-.25c-.16,0-.31.03-.43.08-.13.05-.23.12-.32.21-.09.08-.16.18-.2.29-.04.11-.07.23-.07.35Z"/><path d="m25.4,61.73c0-1.08.18-1.89.53-2.44s.86-.82,1.53-.82c.73,0,1.25.27,1.58.81s.49,1.35.49,2.45-.18,1.89-.53,2.44c-.35.55-.87.82-1.54.82-.71,0-1.24-.28-1.57-.85-.33-.57-.49-1.37-.49-2.4Zm.75,0c0,.39.03.75.08,1.07s.13.6.24.83c.11.23.24.41.41.54s.36.19.59.19c.46,0,.79-.21,1-.63.21-.42.32-1.09.32-1.99,0-.38-.02-.74-.07-1.06-.04-.32-.12-.6-.23-.84-.1-.23-.24-.41-.41-.54s-.38-.19-.62-.19c-.45,0-.78.21-.99.64-.21.43-.32,1.09-.32,1.99Z"/><path d="m32.87,58.47l.57.25-3.29,7.42-.57-.25,3.29-7.42Z"/><path d="m36.48,64.21h1.26v-4.36l.09-.53-.36.42-.99.71-.34-.46,1.98-1.53h.32v5.74h1.23v.67h-3.19v-.67Z"/><path d="m41.02,63.37c0-.38.1-.71.3-.99.2-.28.51-.53.93-.76-.15-.09-.29-.18-.42-.28-.13-.1-.24-.21-.34-.34-.1-.13-.18-.27-.23-.42-.06-.16-.09-.34-.09-.54,0-.23.04-.45.12-.64.08-.19.2-.36.35-.49.15-.14.34-.25.55-.32s.45-.12.72-.12c.25,0,.48.04.68.11.2.07.38.17.52.3.14.13.25.28.33.45.08.17.12.37.12.58,0,.34-.08.64-.23.9-.16.26-.41.52-.77.77.16.09.3.19.45.3s.26.23.37.36.19.28.25.45c.06.17.09.35.09.56,0,.26-.04.49-.13.71-.08.21-.21.4-.37.55-.16.15-.36.27-.59.36s-.5.13-.8.13-.54-.04-.76-.13c-.22-.08-.41-.2-.56-.34-.15-.14-.27-.31-.35-.51-.08-.19-.12-.41-.12-.63Zm2.98-.09c0-.18-.04-.34-.11-.47-.07-.14-.17-.26-.28-.37-.12-.11-.25-.21-.4-.3-.15-.09-.31-.18-.47-.26-.37.2-.63.43-.78.68-.16.25-.23.49-.23.72,0,.14.02.28.07.41.05.13.12.25.22.34.1.1.21.17.36.23s.3.09.49.09c.15,0,.29-.02.43-.07s.26-.11.36-.2.19-.2.25-.33c.06-.13.09-.29.09-.47Zm-2.13-3.26c0,.17.03.32.1.45.07.13.15.24.27.35.11.1.24.2.38.28s.29.17.45.25c.27-.21.47-.42.6-.62s.19-.43.19-.68c0-.31-.09-.54-.28-.71s-.42-.25-.68-.25c-.16,0-.31.03-.43.08-.13.05-.23.12-.32.21-.09.08-.16.18-.2.29-.04.11-.07.23-.07.35Z"/><path d="m45.7,61.73c0-1.08.18-1.89.53-2.44s.86-.82,1.53-.82c.73,0,1.25.27,1.58.81s.49,1.35.49,2.45-.18,1.89-.53,2.44c-.35.55-.87.82-1.54.82-.71,0-1.24-.28-1.57-.85-.33-.57-.49-1.37-.49-2.4Zm.75,0c0,.39.03.75.08,1.07s.13.6.24.83c.11.23.24.41.41.54s.36.19.59.19c.46,0,.79-.21,1-.63.21-.42.32-1.09.32-1.99,0-.38-.02-.74-.07-1.06-.04-.32-.12-.6-.23-.84-.1-.23-.24-.41-.41-.54s-.38-.19-.62-.19c-.45,0-.78.21-.99.64-.21.43-.32,1.09-.32,1.99Z"/><path d="m53.17,58.47l.57.25-3.29,7.42-.57-.25,3.29-7.42Z"/><path d="m56.8,64.88l2.26-5.27.4-.44-.53.08h-2.56v-.67h3.76v.24l-2.6,6.06h-.72Z"/><path d="m61.1,61.73c0-1.08.18-1.89.53-2.44s.86-.82,1.53-.82c.73,0,1.25.27,1.58.81s.49,1.35.49,2.45-.18,1.89-.53,2.44c-.35.55-.87.82-1.54.82-.71,0-1.24-.28-1.57-.85-.33-.57-.49-1.37-.49-2.4Zm.75,0c0,.39.03.75.08,1.07s.13.6.24.83c.11.23.24.41.41.54s.36.19.59.19c.46,0,.79-.21,1-.63.21-.42.32-1.09.32-1.99,0-.38-.02-.74-.07-1.06-.04-.32-.12-.6-.23-.84-.1-.23-.24-.41-.41-.54s-.38-.19-.62-.19c-.45,0-.78.21-.99.64-.21.43-.32,1.09-.32,1.99Z"/></g><g><path d="m4.8,75.41c-.18.14-.41.23-.68.29-.28.05-.57.08-.88.08-.38,0-.73-.06-1.06-.19s-.62-.33-.86-.59c-.25-.26-.44-.6-.58-1.01-.14-.41-.22-.9-.22-1.46s.08-1.09.24-1.5c.16-.41.37-.75.63-1.01s.55-.45.88-.57.65-.18.99-.18c.36,0,.65.02.88.06s.42.09.58.16l-.18.67c-.29-.14-.7-.22-1.23-.22-.25,0-.49.05-.73.14s-.45.24-.64.44-.34.47-.45.8c-.11.33-.17.74-.17,1.22,0,.43.05.81.16,1.13.11.32.26.59.45.81s.41.38.67.49c.25.11.53.16.83.16.27,0,.51-.03.71-.08.2-.05.37-.12.51-.21l.18.58Z"/><path d="m10.75,71.45l.09-.94h-.04l-.34.86-1.64,2.84h-.23l-1.74-2.85-.32-.85h-.05l.13.94v4.24h-.7v-6.3h.56l1.97,3.22.3.7h.02l.28-.72,1.88-3.2h.58v6.3h-.75v-4.23Z"/><path d="m14.41,73.17l-2.08-3.8h.87l1.48,2.75.16.55h0l.17-.57,1.42-2.74h.79l-2.06,3.79v2.51h-.75v-2.5Z"/><path d="m19.22,72.76h-.42v2.92h-.75v-6.3h.75v2.93l.4-.13,2.12-2.81h.86l-2.11,2.71-.38.3.46.36,2.3,2.93h-.94l-2.29-2.92Z"/><path d="m23.59,71.63c0-.16.05-.29.14-.38.09-.09.22-.14.37-.14s.29.05.39.14c.1.09.14.22.14.38s-.05.28-.14.38-.23.14-.39.14-.28-.05-.37-.14c-.09-.1-.14-.22-.14-.38Zm0,3.63c0-.16.05-.29.14-.38.09-.09.22-.14.37-.14s.29.05.39.14c.1.09.14.22.14.38s-.05.28-.14.38-.23.14-.39.14-.28-.05-.37-.14c-.09-.1-.14-.22-.14-.38Z"/><path d="m27.53,72.53c0-1.08.18-1.89.53-2.44s.86-.82,1.53-.82c.73,0,1.25.27,1.58.81s.49,1.35.49,2.45-.18,1.89-.53,2.44c-.35.55-.87.82-1.54.82-.71,0-1.24-.28-1.57-.85-.33-.57-.49-1.37-.49-2.4Zm.75,0c0,.39.03.75.08,1.07s.13.6.24.83c.11.23.24.41.41.54s.36.19.59.19c.46,0,.79-.21,1-.63.21-.42.32-1.09.32-1.99,0-.38-.02-.74-.07-1.06-.04-.32-.12-.6-.23-.84-.1-.23-.24-.41-.41-.54s-.38-.19-.62-.19c-.45,0-.78.21-.99.64-.21.43-.32,1.09-.32,1.99Z"/><path d="m35,69.27l.57.25-3.29,7.42-.57-.25,3.29-7.42Z"/><path d="m38.63,75.68l2.26-5.27.4-.44-.53.08h-2.56v-.67h3.76v.24l-2.6,6.06h-.72Z"/><path d="m42.93,72.53c0-1.08.18-1.89.53-2.44s.86-.82,1.53-.82c.73,0,1.25.27,1.58.81s.49,1.35.49,2.45-.18,1.89-.53,2.44c-.35.55-.87.82-1.54.82-.71,0-1.24-.28-1.57-.85-.33-.57-.49-1.37-.49-2.4Zm.75,0c0,.39.03.75.08,1.07s.13.6.24.83c.11.23.24.41.41.54s.36.19.59.19c.46,0,.79-.21,1-.63.21-.42.32-1.09.32-1.99,0-.38-.02-.74-.07-1.06-.04-.32-.12-.6-.23-.84-.1-.23-.24-.41-.41-.54s-.38-.19-.62-.19c-.45,0-.78.21-.99.64-.21.43-.32,1.09-.32,1.99Z"/><path d="m50.4,69.27l.57.25-3.29,7.42-.57-.25,3.29-7.42Z"/><path d="m53.42,72.53c0-1.08.18-1.89.53-2.44s.86-.82,1.53-.82c.73,0,1.25.27,1.58.81s.49,1.35.49,2.45-.18,1.89-.53,2.44c-.35.55-.87.82-1.54.82-.71,0-1.24-.28-1.57-.85-.33-.57-.49-1.37-.49-2.4Zm.75,0c0,.39.03.75.08,1.07s.13.6.24.83c.11.23.24.41.41.54s.36.19.59.19c.46,0,.79-.21,1-.63.21-.42.32-1.09.32-1.99,0-.38-.02-.74-.07-1.06-.04-.32-.12-.6-.23-.84-.1-.23-.24-.41-.41-.54s-.38-.19-.62-.19c-.45,0-.78.21-.99.64-.21.43-.32,1.09-.32,1.99Z"/><path d="m60.89,69.27l.57.25-3.29,7.42-.57-.25,3.29-7.42Z"/><path d="m64.5,75.01h1.26v-4.36l.09-.53-.36.42-.99.71-.34-.46,1.98-1.53h.32v5.74h1.23v.67h-3.19v-.67Z"/><path d="m68.82,72.53c0-1.08.18-1.89.53-2.44s.86-.82,1.53-.82c.73,0,1.25.27,1.58.81s.49,1.35.49,2.45-.18,1.89-.53,2.44c-.35.55-.87.82-1.54.82-.71,0-1.24-.28-1.57-.85-.33-.57-.49-1.37-.49-2.4Zm.75,0c0,.39.03.75.08,1.07s.13.6.24.83c.11.23.24.41.41.54s.36.19.59.19c.46,0,.79-.21,1-.63.21-.42.32-1.09.32-1.99,0-.38-.02-.74-.07-1.06-.04-.32-.12-.6-.23-.84-.1-.23-.24-.41-.41-.54s-.38-.19-.62-.19c-.45,0-.78.21-.99.64-.21.43-.32,1.09-.32,1.99Z"/><path d="m73.73,72.53c0-1.08.18-1.89.53-2.44s.86-.82,1.53-.82c.73,0,1.25.27,1.58.81.33.54.49,1.35.49,2.45s-.18,1.89-.53,2.44c-.35.55-.87.82-1.54.82-.71,0-1.24-.28-1.57-.85-.33-.57-.49-1.37-.49-2.4Zm.75,0c0,.39.03.75.08,1.07s.13.6.24.83c.11.23.24.41.41.54s.36.19.59.19c.46,0,.79-.21,1-.63.21-.42.32-1.09.32-1.99,0-.38-.02-.74-.07-1.06-.04-.32-.12-.6-.22-.84-.11-.23-.24-.41-.41-.54s-.38-.19-.62-.19c-.45,0-.78.21-.99.64-.21.43-.32,1.09-.32,1.99Z"/></g><g><path d="m.77,80.24c.23-.05.47-.09.74-.11.26-.02.52-.03.78-.03.28,0,.56.03.84.08s.54.15.78.3c.23.14.42.34.57.59s.22.57.22.96-.07.71-.21.97c-.14.26-.32.48-.55.64s-.49.28-.78.36c-.29.07-.6.11-.91.11h-.15c-.07,0-.14,0-.22,0-.08,0-.15,0-.22-.01-.07,0-.12-.01-.15-.02v2.39h-.75v-6.24Zm1.54.51c-.16,0-.31,0-.45,0s-.26.02-.34.04v2.61s.08.02.14.02c.07,0,.14,0,.21,0,.07,0,.14,0,.21,0h.14c.2,0,.41-.02.61-.06.2-.04.38-.11.54-.21.16-.1.29-.25.39-.43.1-.19.15-.42.15-.71,0-.25-.05-.45-.14-.62-.09-.16-.22-.3-.37-.4-.15-.1-.33-.17-.52-.21s-.38-.06-.58-.06Z"/><path d="m5.35,82.31c.23-.14.49-.24.8-.31.3-.07.62-.1.95-.1.31,0,.56.04.75.13s.33.19.43.33c.1.14.17.28.2.45.03.16.05.32.05.49,0,.36,0,.71-.03,1.05-.02.34-.03.67-.03.97,0,.22,0,.43.03.63.02.2.05.38.1.55h-.53l-.19-.63h-.04c-.05.08-.12.17-.2.25-.08.08-.18.15-.29.22-.11.06-.25.12-.4.16-.15.04-.32.06-.51.06s-.37-.03-.54-.09-.31-.15-.43-.26-.21-.24-.28-.4c-.07-.16-.1-.33-.1-.53,0-.26.05-.48.16-.66.11-.18.26-.32.45-.42.2-.1.43-.18.7-.23s.57-.07.9-.07h.25c.08,0,.16,0,.25.02.02-.18.03-.34.03-.49,0-.33-.07-.56-.2-.69-.13-.13-.37-.2-.72-.2-.1,0-.21,0-.33.02-.12.02-.24.04-.36.06s-.24.06-.35.1c-.11.04-.21.08-.29.13l-.23-.55Zm1.28,3.61c.17,0,.32-.02.45-.07.13-.04.25-.1.34-.17s.18-.15.24-.23.11-.17.14-.24v-.75c-.08,0-.17-.01-.26-.01s-.17,0-.26,0c-.19,0-.37.01-.54.03-.18.02-.33.06-.47.12-.13.06-.24.14-.32.23-.08.1-.12.22-.12.37,0,.21.07.38.23.52.15.14.34.2.58.2Z"/><path d="m12.77,86.48v-2.56c0-.47-.07-.82-.2-1.06-.13-.24-.38-.36-.74-.36-.32,0-.58.09-.79.26-.21.17-.35.39-.44.64v3.08h-.72v-4.5h.5l.14.55h.04c.14-.19.34-.35.58-.47.24-.12.53-.18.87-.18.25,0,.46.03.65.09s.34.16.46.3c.12.14.22.34.28.58.06.24.09.55.09.92v2.72h-.72Z"/><path d="m14.21,81.98h.7v-.89l.72-.21v1.1h1.22v.63h-1.22v2.49c0,.31.04.53.12.66.08.13.21.19.4.19.16,0,.29-.02.4-.05.11-.03.23-.08.36-.13l.16.55c-.16.08-.34.14-.53.19s-.4.07-.62.07c-.37,0-.62-.1-.77-.31s-.23-.55-.23-1.04v-2.63h-.7v-.63Z"/><path d="m17.51,84.23c0-.76.17-1.35.51-1.75.34-.4.83-.61,1.46-.61.34,0,.63.06.88.17s.45.27.62.48c.16.21.28.46.36.75.08.29.12.61.12.97,0,.76-.17,1.35-.51,1.75s-.83.61-1.46.61c-.34,0-.63-.06-.88-.17-.25-.11-.45-.27-.62-.48s-.28-.46-.36-.75c-.08-.29-.12-.61-.12-.97Zm.75,0c0,.23.02.45.07.66s.12.39.21.55c.1.16.22.28.38.38.16.1.34.14.57.14.82,0,1.22-.57,1.22-1.73,0-.23-.02-.46-.07-.67s-.12-.39-.21-.55c-.1-.16-.22-.28-.38-.37-.16-.09-.35-.14-.57-.14-.82,0-1.22.57-1.22,1.73Z"/><path d="m25.48,86.48v-2.56c0-.47-.07-.82-.2-1.06-.13-.24-.38-.36-.74-.36-.32,0-.58.09-.79.26-.21.17-.35.39-.44.64v3.08h-.72v-4.5h.5l.14.55h.04c.14-.19.34-.35.58-.47.24-.12.53-.18.87-.18.25,0,.46.03.65.09s.34.16.46.3c.12.14.22.34.28.58.06.24.09.55.09.92v2.72h-.72Z"/><path d="m30.8,86.12c-.18.14-.41.26-.68.34s-.56.13-.87.13c-.34,0-.64-.06-.89-.17s-.46-.27-.62-.48-.28-.45-.36-.74c-.08-.29-.12-.61-.12-.97,0-.77.17-1.35.51-1.75.34-.4.83-.6,1.47-.6.2,0,.41.02.61.07.2.04.39.13.55.26s.29.3.4.54.15.54.15.91c0,.2-.02.42-.05.66h-2.89c0,.26.03.5.08.7.05.2.14.38.25.52.11.14.26.25.45.32.18.07.41.11.67.11.2,0,.41-.04.61-.11.2-.07.36-.16.46-.25l.27.52Zm-1.55-3.62c-.35,0-.64.09-.85.28-.21.19-.34.5-.38.95h2.23c0-.46-.09-.78-.26-.96-.17-.18-.42-.27-.74-.27Z"/><path d="m32.21,82.44c0-.16.05-.29.14-.38.09-.09.22-.14.37-.14s.29.05.39.14c.1.09.14.22.14.38s-.05.28-.14.38-.23.14-.39.14-.28-.05-.37-.14c-.09-.1-.14-.22-.14-.38Zm0,3.63c0-.16.05-.29.14-.38.09-.09.22-.14.37-.14s.29.05.39.14c.1.09.14.22.14.38s-.05.28-.14.38-.23.14-.39.14-.28-.05-.37-.14c-.09-.1-.14-.22-.14-.38Z"/><path d="m37.87,85.95c.2,0,.39-.03.57-.09.17-.06.32-.15.45-.27.13-.12.23-.26.3-.42.07-.16.11-.34.11-.53,0-.42-.12-.73-.37-.94-.25-.2-.59-.31-1.03-.31h-.67v-.26l1.3-2,.41-.4-.58.09h-1.78v-.67h3.21v.26l-1.43,2.15-.31.26v.02l.31-.06c.24,0,.46.05.67.13.2.08.38.2.53.35s.27.34.35.55c.08.21.13.45.13.72,0,.32-.06.61-.17.86-.11.25-.27.46-.46.63-.19.17-.42.3-.69.39-.26.09-.54.13-.84.13-.27,0-.51-.02-.73-.06-.22-.04-.4-.1-.57-.16l.19-.64c.14.07.3.12.49.17s.4.07.63.07Z"/><path d="m45.1,84.58c0,.28-.04.54-.13.78-.08.24-.21.46-.37.64s-.36.33-.6.43c-.24.1-.51.16-.82.16s-.57-.05-.81-.14c-.24-.1-.45-.24-.62-.43-.17-.19-.31-.42-.4-.7-.09-.28-.14-.59-.14-.95,0-.59.08-1.14.23-1.64s.36-.94.63-1.31.59-.67.96-.9c.37-.23.77-.38,1.2-.44l.15.58c-.34.06-.64.17-.92.34-.28.17-.52.38-.72.62-.21.25-.38.52-.51.83s-.22.62-.27.94c.1-.16.26-.31.49-.45.23-.13.51-.2.84-.2.56,0,1.01.16,1.33.49.32.32.48.78.48,1.36Zm-.75.07c0-.43-.1-.75-.3-.96-.2-.22-.5-.32-.92-.32-.29,0-.55.07-.76.22s-.36.31-.45.49c-.01.08-.02.15-.02.21v.18c0,.19.03.37.08.55.05.18.13.34.24.48.11.14.24.26.4.34.16.09.35.13.56.13.17,0,.33-.03.47-.1.14-.07.26-.16.36-.27.1-.11.18-.25.24-.41.06-.16.09-.34.09-.52Z"/><path d="m46.55,85.81h1.26v-4.36l.09-.53-.36.42-.99.71-.34-.46,1.98-1.53h.32v5.74h1.23v.67h-3.19v-.67Z"/><path d="m57.68,86.22c-.18.14-.41.23-.68.29-.28.05-.57.08-.88.08-.38,0-.73-.06-1.06-.19s-.62-.33-.86-.59c-.25-.26-.44-.6-.58-1.01-.14-.41-.22-.9-.22-1.46s.08-1.09.24-1.5c.16-.41.37-.75.63-1.01s.55-.45.88-.57.65-.18.99-.18c.36,0,.65.02.88.06s.42.09.58.16l-.18.67c-.29-.14-.7-.22-1.23-.22-.25,0-.49.05-.73.14s-.45.24-.64.44-.34.47-.45.8c-.11.33-.17.74-.17,1.22,0,.43.05.81.16,1.13.11.32.26.59.45.81s.41.38.67.49c.25.11.53.16.83.16.27,0,.51-.03.71-.08.2-.05.37-.12.51-.21l.18.58Z"/></g></g><path class="cls-3" d="m463.58,43.4c11.98,0,21.7-9.72,21.7-21.7S475.56,0,463.58,0s-21.7,9.72-21.7,21.7,9.72,21.7,21.7,21.7"/><g><g><path d="m442.64,58.64c.23-.04.49-.07.79-.1s.57-.04.81-.04c.28,0,.54.03.79.09.25.06.47.16.66.3.19.14.34.32.46.54.11.22.17.49.17.81,0,.49-.14.89-.41,1.2-.27.31-.61.51-1.03.61l.43.33,1.57,2.49h-.87l-1.74-2.72-.88-.13v2.85h-.75v-6.24Zm1.62.51h-.24c-.08,0-.17,0-.24,0s-.15.01-.22.02-.12.02-.17.03v2.32h.7c.41,0,.76-.1,1.03-.31.27-.2.41-.52.41-.95,0-.32-.11-.59-.33-.8-.22-.21-.53-.31-.93-.31Z"/><path d="m449.73,61.74h2.11v2.77c-.1.07-.21.14-.35.2-.14.06-.28.11-.43.15-.15.04-.31.07-.48.09-.17.02-.33.03-.48.03-.4,0-.77-.07-1.11-.19s-.63-.33-.87-.59c-.25-.27-.44-.61-.58-1.02-.14-.41-.21-.9-.21-1.45s.08-1.08.25-1.49c.17-.41.39-.75.66-1.01.27-.26.57-.45.91-.57s.67-.18,1.01-.18c.36,0,.66.02.89.06.23.04.43.09.59.16l-.19.67c-.29-.14-.7-.22-1.23-.22-.25,0-.5.04-.75.13s-.47.23-.67.44c-.2.2-.36.47-.49.8s-.19.74-.19,1.22c0,.44.05.83.15,1.15.1.32.24.59.43.81s.4.37.66.48c.26.11.54.16.84.16.38,0,.71-.08.98-.23v-1.75l-1.47-.18v-.42Z"/><path d="m456.91,60.02c0,.15-.02.3-.07.46-.05.16-.12.3-.22.44-.1.14-.22.25-.37.36-.15.1-.33.18-.53.23v.04c.18.03.35.08.52.15.17.07.31.17.44.3s.23.28.31.46c.08.18.12.39.12.64,0,.32-.07.6-.2.84-.13.24-.31.43-.53.58-.22.15-.47.26-.75.33s-.57.11-.86.11h-.36c-.14,0-.28,0-.43-.01-.15,0-.3-.02-.45-.04-.15-.01-.28-.04-.4-.07v-6.2c.22-.04.48-.07.77-.09s.61-.04.96-.04c.23,0,.47.02.71.06.24.04.46.11.66.22.2.11.36.27.49.46s.19.45.19.76Zm-2.58,1.33c.1,0,.23,0,.37,0,.14,0,.26-.01.36-.03.14-.05.28-.11.4-.17.13-.07.24-.15.34-.24s.18-.2.23-.32c.06-.12.08-.26.08-.4,0-.2-.04-.36-.11-.49s-.18-.23-.3-.31-.27-.13-.43-.17c-.16-.03-.33-.05-.5-.05-.2,0-.38,0-.54.01-.17,0-.29.02-.37.04v2.14h.47Zm.5,2.95c.19,0,.38-.02.56-.07.18-.04.34-.12.48-.22.14-.1.25-.22.33-.36.08-.14.12-.32.12-.51,0-.25-.05-.44-.15-.59-.1-.15-.23-.27-.39-.35-.16-.08-.34-.14-.54-.17-.2-.03-.4-.05-.59-.05h-.78v2.26s.1.02.18.03c.08,0,.16.01.25.02.09,0,.18.01.28.01s.18,0,.25,0Z"/><path d="m458.43,60.84c0-.16.05-.29.14-.38.09-.09.22-.14.37-.14s.29.05.39.14c.1.09.14.22.14.38s-.05.28-.14.38-.22.14-.39.14-.28-.05-.37-.14-.14-.22-.14-.38Zm0,3.63c0-.16.05-.29.14-.38.09-.09.22-.14.37-.14s.29.05.39.14c.1.09.14.22.14.38s-.05.28-.14.38-.22.14-.39.14-.28-.05-.37-.14-.14-.22-.14-.38Z"/><path d="m466.41,62.98c0,.28-.04.54-.13.78-.08.24-.21.46-.37.64s-.36.33-.6.43c-.24.11-.51.16-.82.16s-.57-.05-.81-.14c-.24-.1-.45-.24-.62-.43-.17-.19-.31-.42-.4-.7-.09-.28-.14-.59-.14-.95,0-.59.08-1.14.23-1.64.15-.5.36-.94.63-1.31.27-.37.59-.67.96-.9.37-.23.77-.38,1.2-.44l.15.58c-.34.06-.64.17-.92.34-.28.17-.52.38-.72.62s-.38.52-.51.83-.22.62-.27.95c.1-.16.26-.31.49-.45.23-.14.51-.2.84-.2.56,0,1.01.16,1.33.49s.48.78.48,1.36Zm-.75.07c0-.43-.1-.75-.3-.96s-.5-.32-.92-.32c-.29,0-.55.07-.76.22-.21.14-.36.31-.45.49-.01.08-.02.15-.02.21v.18c0,.19.03.37.08.55.05.18.13.34.24.48.11.14.24.25.4.34s.35.13.56.13c.17,0,.33-.03.47-.1.14-.07.26-.16.36-.27.1-.11.18-.25.24-.41.06-.16.08-.34.08-.52Z"/><path d="m467.86,64.21h1.26v-4.36l.09-.53-.36.42-.99.71-.34-.46,1.98-1.53h.32v5.74h1.23v.67h-3.19v-.67Z"/><path d="m474.74,58.47l.57.25-3.29,7.42-.57-.25,3.29-7.42Z"/><path d="m479.49,64.35c.2,0,.39-.03.57-.09.17-.06.32-.15.45-.27.13-.12.23-.26.3-.42.07-.16.11-.34.11-.53,0-.42-.12-.73-.37-.94s-.59-.31-1.03-.31h-.67v-.26l1.3-2,.41-.4-.58.09h-1.78v-.67h3.21v.26l-1.43,2.15-.31.26v.02l.31-.06c.24,0,.46.05.67.13.2.08.38.2.53.35.15.15.27.34.35.55s.13.46.13.72c0,.32-.06.61-.17.86s-.27.46-.46.63c-.19.17-.42.3-.69.39-.26.09-.54.14-.84.14-.27,0-.51-.02-.73-.06s-.41-.1-.57-.16l.19-.64c.14.07.3.12.49.17.19.04.4.07.63.07Z"/><path d="m483.28,64.88l2.26-5.27.4-.44-.53.08h-2.56v-.67h3.76v.24l-2.6,6.06h-.72Z"/><path d="m490.14,58.47l.57.25-3.29,7.42-.57-.25,3.29-7.42Z"/><path d="m496.79,60.01c0,.32-.06.64-.18.98s-.27.67-.46,1c-.19.34-.4.66-.63.99-.23.32-.47.62-.7.91l-.44.39v.04l.58-.1h1.96v.67h-3.58v-.26c.13-.14.29-.31.48-.51.19-.2.38-.43.58-.68.2-.25.4-.51.59-.79.19-.28.37-.56.53-.85.16-.29.29-.57.38-.86s.14-.55.14-.8c0-.29-.08-.54-.25-.73s-.42-.29-.77-.29c-.23,0-.45.05-.67.14-.22.09-.4.2-.56.32l-.3-.51c.21-.18.46-.32.75-.42.29-.1.6-.15.93-.15.26,0,.49.04.68.11.2.08.37.18.5.32.14.14.24.3.32.49.07.19.11.39.11.62Z"/><path d="m498.66,64.21h1.26v-4.36l.09-.53-.36.42-.99.71-.34-.46,1.98-1.53h.32v5.74h1.23v.67h-3.19v-.67Z"/></g><g><path d="m446.67,75.42c-.18.14-.41.23-.68.29-.28.05-.57.08-.88.08-.38,0-.73-.07-1.06-.19s-.62-.33-.86-.59c-.25-.26-.44-.6-.58-1.01-.14-.41-.22-.9-.22-1.46s.08-1.09.24-1.5c.16-.41.37-.75.63-1.01.26-.26.55-.45.88-.57s.65-.18.99-.18c.36,0,.65.02.88.06.23.04.42.09.58.16l-.18.67c-.29-.14-.7-.22-1.23-.22-.25,0-.49.04-.73.13-.24.09-.46.24-.64.44-.19.2-.34.47-.46.8-.11.33-.17.74-.17,1.21,0,.43.05.81.16,1.13.11.32.26.59.45.81.19.22.41.38.67.49.25.11.53.16.83.16.27,0,.5-.03.71-.08.2-.05.37-.12.51-.21l.18.58Z"/><path d="m452.62,71.45l.09-.94h-.04l-.34.86-1.64,2.84h-.23l-1.74-2.85-.32-.85h-.04l.13.94v4.24h-.7v-6.3h.56l1.97,3.22.3.7h.02l.28-.72,1.88-3.2h.58v6.3h-.75v-4.23Z"/><path d="m456.28,73.18l-2.08-3.8h.87l1.48,2.75.16.55h0l.17-.57,1.42-2.74h.79l-2.06,3.79v2.51h-.75v-2.5Z"/><path d="m461.09,72.76h-.42v2.92h-.75v-6.3h.75v2.93l.41-.13,2.12-2.81h.86l-2.11,2.71-.38.3.46.36,2.3,2.93h-.95l-2.29-2.92Z"/><path d="m465.46,71.64c0-.16.05-.29.14-.38s.22-.14.37-.14.29.05.39.14c.1.09.14.22.14.38s-.05.28-.14.38c-.1.1-.23.14-.39.14s-.28-.05-.37-.14c-.09-.1-.14-.22-.14-.38Zm0,3.63c0-.16.05-.29.14-.38s.22-.14.37-.14.29.05.39.14c.1.09.14.22.14.38s-.05.28-.14.38c-.1.1-.23.14-.39.14s-.28-.05-.37-.14c-.09-.1-.14-.22-.14-.38Z"/><path d="m473.73,73.74h-1.06v1.93h-.7v-1.93h-2.77v-.3l2.99-4.17h.49v3.83h1.06v.63Zm-1.76-2.59l.09-.74h-.03l-.32.61-1.27,1.72-.43.44.63-.07h1.32v-1.96Z"/><path d="m474.91,75.68l2.26-5.27.4-.44-.53.08h-2.57v-.67h3.76v.24l-2.6,6.06h-.72Z"/><path d="m481.78,69.27l.57.25-3.29,7.42-.57-.25,3.29-7.42Z"/><path d="m488.85,73.78c0,.28-.04.54-.13.78-.08.24-.21.46-.37.64s-.36.33-.6.43c-.24.11-.51.16-.82.16s-.57-.05-.81-.14c-.24-.1-.45-.24-.62-.43-.17-.19-.31-.42-.4-.7-.09-.28-.14-.59-.14-.95,0-.59.08-1.14.23-1.64.15-.5.36-.94.63-1.31.27-.37.59-.67.96-.9.37-.23.77-.38,1.2-.44l.15.58c-.34.06-.64.17-.92.34-.28.17-.52.38-.72.62s-.38.52-.51.83-.22.62-.27.95c.1-.16.26-.31.49-.45.23-.14.51-.2.84-.2.56,0,1.01.16,1.33.49s.48.78.48,1.36Zm-.75.07c0-.43-.1-.75-.3-.96s-.5-.32-.92-.32c-.29,0-.55.07-.76.22-.21.14-.36.31-.45.49-.01.08-.02.15-.02.21v.18c0,.19.03.37.08.55.05.18.13.34.24.48.11.14.24.25.4.34s.35.13.56.13c.17,0,.33-.03.47-.1.14-.07.26-.16.36-.27.1-.11.18-.25.24-.41.06-.16.08-.34.08-.52Z"/><path d="m489.93,74.17c0-.38.1-.71.3-.99.2-.28.51-.53.93-.76-.15-.09-.29-.18-.42-.28-.13-.1-.24-.21-.34-.34-.1-.13-.18-.27-.23-.42-.06-.16-.09-.34-.09-.54,0-.23.04-.45.12-.64.08-.19.2-.36.35-.5.15-.14.34-.25.55-.32s.46-.12.72-.12c.25,0,.48.04.68.11s.38.17.52.3c.14.13.25.28.33.45s.12.37.12.58c0,.34-.08.64-.23.9-.16.26-.41.52-.77.77.16.09.3.19.45.3.14.11.26.23.37.36.1.13.19.28.25.45s.09.35.09.56c0,.26-.04.49-.13.71s-.21.4-.37.55c-.16.15-.36.27-.59.36-.23.09-.5.13-.8.13s-.54-.04-.76-.13c-.22-.08-.41-.2-.56-.34-.15-.14-.27-.31-.35-.51-.08-.2-.12-.41-.12-.63Zm2.98-.09c0-.18-.04-.34-.11-.47s-.17-.26-.28-.37c-.12-.11-.25-.21-.4-.3-.15-.09-.31-.18-.47-.26-.37.2-.63.43-.78.68-.16.25-.23.49-.23.72,0,.14.02.28.07.41.05.13.12.25.22.34.1.1.21.17.36.23.14.06.3.08.49.08.15,0,.29-.02.43-.07.14-.04.26-.11.37-.2.1-.09.19-.2.25-.33.06-.14.09-.29.09-.47Zm-2.13-3.26c0,.17.03.32.1.45.07.13.15.24.26.35.11.1.24.2.38.28.14.09.29.17.45.25.27-.21.47-.42.6-.62.13-.2.19-.43.19-.67,0-.31-.09-.54-.28-.71-.19-.17-.42-.25-.68-.25-.16,0-.31.03-.43.08-.13.05-.23.12-.32.21s-.16.18-.2.29-.07.23-.07.35Z"/><path d="m497.18,69.27l.57.25-3.29,7.42-.57-.25,3.29-7.42Z"/><path d="m500.81,75.68l2.26-5.27.4-.44-.53.08h-2.57v-.67h3.76v.24l-2.6,6.06h-.72Z"/><path d="m505.33,74.17c0-.38.1-.71.3-.99.2-.28.51-.53.93-.76-.15-.09-.29-.18-.42-.28-.13-.1-.24-.21-.34-.34s-.18-.27-.23-.42c-.06-.16-.08-.34-.08-.54,0-.23.04-.45.12-.64.08-.19.2-.36.35-.5.15-.14.34-.25.55-.32s.45-.12.72-.12c.25,0,.48.04.68.11s.38.17.52.3.25.28.33.45c.08.17.12.37.12.58,0,.34-.08.64-.23.9-.16.26-.41.52-.77.77.16.09.3.19.45.3.14.11.26.23.37.36.11.13.19.28.25.45.06.17.09.35.09.56,0,.26-.04.49-.13.71s-.21.4-.37.55c-.16.15-.36.27-.59.36-.23.09-.5.13-.8.13s-.54-.04-.76-.13-.41-.2-.56-.34c-.15-.14-.27-.31-.35-.51-.08-.2-.12-.41-.12-.63Zm2.98-.09c0-.18-.04-.34-.11-.47-.07-.13-.17-.26-.28-.37s-.25-.21-.4-.3c-.15-.09-.31-.18-.47-.26-.37.2-.63.43-.78.68-.16.25-.23.49-.23.72,0,.14.02.28.07.41s.12.25.22.34.21.17.36.23c.14.06.3.08.49.08.15,0,.29-.02.43-.07.14-.04.26-.11.36-.2.11-.09.19-.2.25-.33.06-.14.09-.29.09-.47Zm-2.13-3.26c0,.17.03.32.1.45s.15.24.27.35c.11.1.24.2.38.28.14.09.29.17.45.25.27-.21.47-.42.6-.62.13-.2.19-.43.19-.67,0-.31-.09-.54-.28-.71-.19-.17-.42-.25-.68-.25-.16,0-.31.03-.43.08-.13.05-.23.12-.32.21s-.16.18-.2.29-.07.23-.07.35Z"/><path d="m512.58,69.27l.57.25-3.29,7.42-.57-.25,3.29-7.42Z"/><path d="m516.21,75.68l2.26-5.27.4-.44-.53.08h-2.56v-.67h3.76v.24l-2.6,6.06h-.72Z"/><path d="m521.09,75.01h1.26v-4.36l.09-.53-.36.42-.99.71-.34-.46,1.98-1.53h.32v5.74h1.23v.67h-3.2v-.67Z"/></g><g><path d="m442.64,80.24c.23-.05.47-.09.74-.11.26-.02.53-.03.78-.03.28,0,.56.03.84.08s.54.15.78.3c.23.14.42.34.57.59.15.25.22.57.22.96s-.07.71-.21.97-.32.48-.55.64c-.23.17-.49.28-.78.36s-.6.11-.91.11h-.15c-.07,0-.14,0-.22,0s-.15,0-.22-.01-.12-.01-.15-.02v2.39h-.75v-6.24Zm1.54.51c-.16,0-.31,0-.45,0-.14,0-.26.02-.34.04v2.61s.08.02.14.02.13,0,.21,0,.14,0,.21,0h.14c.2,0,.41-.02.61-.06.2-.04.38-.11.54-.21s.29-.25.39-.43c.1-.19.15-.42.15-.71,0-.25-.05-.45-.14-.62s-.22-.3-.37-.4c-.15-.1-.33-.17-.52-.21-.19-.04-.38-.06-.58-.06Z"/><path d="m447.22,82.31c.23-.14.49-.24.8-.31.3-.07.62-.1.95-.1.31,0,.56.04.75.13.19.08.33.19.43.33.1.13.17.28.2.45s.05.32.05.49c0,.36,0,.71-.03,1.05-.02.34-.03.67-.03.97,0,.22,0,.43.03.63.02.2.05.38.1.55h-.53l-.19-.63h-.04c-.05.08-.12.17-.2.25s-.18.15-.29.22c-.11.06-.25.12-.4.16-.15.04-.32.06-.51.06s-.37-.03-.54-.09c-.17-.06-.31-.15-.43-.26s-.21-.24-.28-.4-.1-.33-.1-.53c0-.26.05-.48.16-.66s.26-.32.45-.42c.2-.11.43-.18.7-.23.27-.04.58-.07.91-.07h.25c.08,0,.16,0,.25.02.02-.18.03-.34.03-.49,0-.33-.07-.56-.2-.69s-.37-.2-.72-.2c-.1,0-.21,0-.33.02-.12.02-.24.04-.36.07-.12.03-.24.06-.35.1-.11.04-.21.08-.29.13l-.22-.55Zm1.28,3.61c.17,0,.32-.02.45-.07.13-.04.25-.1.34-.17.1-.07.18-.15.24-.23.06-.08.11-.17.14-.24v-.75c-.08,0-.17-.01-.26-.01s-.17,0-.26,0c-.19,0-.37.01-.54.03-.18.02-.33.06-.47.12-.13.06-.24.13-.32.23-.08.1-.12.22-.12.37,0,.21.08.38.23.52.15.13.34.2.58.2Z"/><path d="m454.65,86.48v-2.57c0-.47-.07-.82-.2-1.06-.13-.24-.38-.36-.74-.36-.32,0-.58.08-.79.26s-.35.39-.44.64v3.08h-.72v-4.5h.5l.14.55h.04c.14-.19.34-.35.58-.47s.53-.18.87-.18c.25,0,.46.03.65.09.19.06.34.16.46.3.12.14.22.34.28.58.06.24.09.55.09.92v2.72h-.72Z"/><path d="m456.09,81.98h.7v-.89l.72-.21v1.1h1.22v.63h-1.22v2.49c0,.31.04.53.12.66.08.13.21.19.4.19.16,0,.29-.02.4-.05s.23-.08.36-.13l.16.55c-.16.08-.34.14-.53.19-.19.05-.4.07-.62.07-.37,0-.62-.1-.77-.31-.15-.21-.22-.55-.22-1.04v-2.63h-.7v-.63Z"/><path d="m459.39,84.23c0-.76.17-1.35.51-1.75.34-.4.83-.61,1.46-.61.34,0,.63.06.88.17s.46.27.62.48c.16.21.28.46.36.75s.12.61.12.97c0,.76-.17,1.35-.51,1.75-.34.4-.83.61-1.46.61-.34,0-.63-.06-.88-.17s-.45-.27-.62-.48-.28-.46-.36-.75-.12-.61-.12-.97Zm.75,0c0,.23.02.45.07.66s.12.39.21.55.22.28.38.38.34.14.57.14c.82,0,1.22-.57,1.22-1.73,0-.23-.02-.46-.07-.67s-.12-.39-.21-.55c-.1-.16-.22-.28-.38-.37-.16-.09-.34-.14-.57-.14-.82,0-1.22.57-1.22,1.73Z"/><path d="m467.35,86.48v-2.57c0-.47-.07-.82-.2-1.06-.13-.24-.38-.36-.74-.36-.32,0-.58.08-.79.26s-.35.39-.44.64v3.08h-.72v-4.5h.5l.13.55h.04c.14-.19.34-.35.58-.47.24-.12.53-.18.87-.18.25,0,.46.03.65.09.19.06.34.16.46.3.12.14.22.34.28.58.06.24.09.55.09.92v2.72h-.72Z"/><path d="m472.67,86.12c-.18.14-.41.26-.68.34-.27.08-.56.13-.87.13-.34,0-.64-.06-.89-.17s-.46-.27-.62-.48-.28-.46-.36-.74-.12-.61-.12-.97c0-.77.17-1.35.51-1.75.34-.4.83-.6,1.47-.6.2,0,.41.02.61.07.2.04.39.13.55.26s.29.3.4.54c.1.23.15.54.15.91,0,.2-.02.42-.05.66h-2.89c0,.26.03.5.08.7.05.2.14.38.25.52.11.14.26.25.45.32.18.08.41.11.67.11.2,0,.41-.04.61-.11s.36-.16.46-.25l.27.52Zm-1.55-3.62c-.35,0-.64.09-.85.28-.21.19-.34.5-.38.95h2.23c0-.46-.09-.78-.26-.96-.17-.18-.42-.27-.74-.27Z"/><path d="m474.09,82.44c0-.16.05-.29.14-.38s.22-.14.37-.14.29.05.39.14c.1.09.14.22.14.38s-.05.28-.14.38c-.1.1-.23.14-.39.14s-.28-.05-.37-.14c-.09-.1-.14-.22-.14-.38Zm0,3.63c0-.16.05-.29.14-.38s.22-.14.37-.14.29.05.39.14c.1.09.14.22.14.38s-.05.28-.14.38c-.1.1-.23.14-.39.14s-.28-.05-.37-.14c-.09-.1-.14-.22-.14-.38Z"/><path d="m482.2,81.62c0,.15-.02.3-.07.46-.05.16-.12.3-.22.44-.1.14-.22.25-.37.36-.15.1-.33.18-.53.23v.04c.18.03.35.08.52.15.17.07.31.17.44.3s.23.28.31.46c.08.18.12.39.12.64,0,.32-.07.6-.2.84-.13.24-.31.43-.53.58-.22.15-.47.26-.75.33-.28.07-.57.11-.86.11h-.36c-.14,0-.28,0-.43-.01-.15,0-.3-.02-.45-.04s-.28-.04-.4-.07v-6.2c.22-.04.48-.07.77-.09s.62-.04.96-.04c.23,0,.47.02.72.06s.46.11.66.22c.2.11.36.27.49.46.13.2.19.45.19.76Zm-2.58,1.33c.1,0,.22,0,.37,0,.14,0,.26-.01.36-.03.14-.05.28-.11.41-.17.13-.07.24-.15.34-.24.1-.09.18-.2.23-.32.06-.12.09-.26.09-.4,0-.2-.04-.36-.11-.49-.08-.13-.18-.23-.3-.31s-.27-.13-.43-.17c-.16-.03-.33-.05-.49-.05-.2,0-.38,0-.54.01-.17,0-.29.02-.37.04v2.14h.47Zm.5,2.95c.19,0,.38-.02.56-.07s.34-.12.48-.22c.14-.1.25-.22.33-.36.08-.14.12-.32.12-.51,0-.25-.05-.44-.15-.59-.1-.15-.23-.27-.39-.35s-.34-.14-.54-.17c-.2-.03-.4-.05-.59-.05h-.78v2.26s.1.02.18.03c.08,0,.16.01.25.02s.18.01.28.01c.1,0,.18,0,.25,0Z"/><path d="m484.39,85.37c0,.21.04.36.11.45.07.09.17.13.31.13.08,0,.16,0,.25-.02s.19-.04.31-.08l.08.57c-.1.05-.23.09-.4.12-.17.03-.32.04-.45.04-.27,0-.49-.08-.67-.23-.17-.15-.26-.41-.26-.78v-5.4h.72v5.19Z"/><path d="m486.15,82.31c.23-.14.49-.24.8-.31.3-.07.62-.1.95-.1.31,0,.56.04.75.13.19.08.33.19.43.33.1.13.17.28.2.45.03.16.05.32.05.49,0,.36,0,.71-.03,1.05-.02.34-.03.67-.03.97,0,.22,0,.43.03.63.02.2.05.38.1.55h-.53l-.19-.63h-.04c-.05.08-.12.17-.2.25s-.18.15-.29.22c-.11.06-.25.12-.4.16-.15.04-.32.06-.51.06s-.37-.03-.54-.09c-.17-.06-.31-.15-.43-.26s-.21-.24-.28-.4c-.07-.16-.1-.33-.1-.53,0-.26.05-.48.16-.66.11-.18.26-.32.45-.42.2-.11.43-.18.7-.23.27-.04.57-.07.9-.07h.25c.08,0,.16,0,.25.02.02-.18.03-.34.03-.49,0-.33-.07-.56-.2-.69s-.37-.2-.72-.2c-.1,0-.21,0-.33.02s-.24.04-.36.07c-.12.03-.24.06-.35.1s-.21.08-.29.13l-.23-.55Zm1.28,3.61c.17,0,.32-.02.45-.07.13-.04.25-.1.34-.17.1-.07.18-.15.24-.23.06-.08.11-.17.14-.24v-.75c-.08,0-.17-.01-.26-.01s-.17,0-.26,0c-.19,0-.37.01-.54.03-.18.02-.33.06-.47.12-.13.06-.24.13-.32.23-.08.1-.12.22-.12.37,0,.21.07.38.22.52s.34.2.58.2Z"/><path d="m493.75,86.18c-.18.13-.39.23-.64.3-.25.07-.5.1-.77.1-.35,0-.64-.06-.88-.17-.24-.11-.44-.27-.59-.48-.15-.21-.26-.46-.33-.75-.07-.29-.1-.61-.1-.97,0-.76.17-1.35.5-1.75.34-.4.82-.61,1.45-.61.29,0,.53.02.73.07.2.04.38.11.54.19l-.21.62c-.14-.08-.29-.14-.46-.18s-.35-.07-.54-.07c-.85,0-1.28.58-1.28,1.73,0,.23.02.45.07.65s.12.39.22.55c.11.16.24.29.41.38s.38.14.63.14c.22,0,.41-.03.58-.1.17-.07.31-.14.42-.22l.23.55Z"/><path d="m495.88,84.45h-.41v2.03h-.72v-6.3h.72v3.83l.37-.13,1.39-1.91h.84l-1.38,1.81-.37.3.45.36,1.5,2.03h-.89l-1.5-2.03Z"/><path d="m505.21,84.54h-1.06v1.93h-.7v-1.93h-2.77v-.3l2.99-4.17h.49v3.83h1.06v.63Zm-1.76-2.59l.09-.74h-.03l-.32.61-1.27,1.72-.43.44.63-.07h1.32v-1.96Z"/><path d="m512.6,86.22c-.18.14-.41.23-.68.29-.28.05-.57.08-.88.08-.38,0-.73-.07-1.06-.19s-.62-.33-.86-.59c-.25-.26-.44-.6-.58-1.01-.14-.41-.22-.9-.22-1.46s.08-1.09.24-1.5c.16-.41.37-.75.63-1.01.26-.26.55-.45.88-.57s.65-.18.99-.18c.36,0,.65.02.88.06.23.04.42.09.58.16l-.18.67c-.29-.14-.7-.22-1.23-.22-.25,0-.49.04-.73.13-.24.09-.46.24-.64.44-.19.2-.34.47-.46.8-.11.33-.17.74-.17,1.21,0,.43.05.81.16,1.13.11.32.26.59.45.81.19.22.41.38.67.49.25.11.53.16.83.16.27,0,.5-.03.71-.08.2-.05.37-.12.51-.21l.18.58Z"/></g></g></svg>