<svg width="413" height="201" viewBox="0 0 413 201" fill="none" xmlns="http://www.w3.org/2000/svg">
<path d="M16.1016 6.55078L9.75 24H6.65625L0.304688 6.55078H2.78906L8.26172 21.9023L13.7344 6.55078H16.1016ZM29.5312 17.6836H19.8867C19.8867 18.4883 20.0078 19.1914 20.25 19.793C20.4922 20.3867 20.8242 20.875 21.2461 21.2578C21.6523 21.6328 22.1328 21.9141 22.6875 22.1016C23.25 22.2891 23.8672 22.3828 24.5391 22.3828C25.4297 22.3828 26.3242 22.207 27.2227 21.8555C28.1289 21.4961 28.7734 21.1445 29.1562 20.8008H29.2734V23.2031C28.5312 23.5156 27.7734 23.7773 27 23.9883C26.2266 24.1992 25.4141 24.3047 24.5625 24.3047C22.3906 24.3047 20.6953 23.7188 19.4766 22.5469C18.2578 21.3672 17.6484 19.6953 17.6484 17.5312C17.6484 15.3906 18.2305 13.6914 19.3945 12.4336C20.5664 11.1758 22.1055 10.5469 24.0117 10.5469C25.7773 10.5469 27.1367 11.0625 28.0898 12.0938C29.0508 13.125 29.5312 14.5898 29.5312 16.4883V17.6836ZM27.3867 15.9961C27.3789 14.8398 27.0859 13.9453 26.5078 13.3125C25.9375 12.6797 25.0664 12.3633 23.8945 12.3633C22.7148 12.3633 21.7734 12.7109 21.0703 13.4062C20.375 14.1016 19.9805 14.9648 19.8867 15.9961H27.3867ZM41.0391 13.3125H40.9219C40.5938 13.2344 40.2734 13.1797 39.9609 13.1484C39.6562 13.1094 39.293 13.0898 38.8711 13.0898C38.1914 13.0898 37.5352 13.2422 36.9023 13.5469C36.2695 13.8438 35.6602 14.2305 35.0742 14.707V24H32.8711V10.9102H35.0742V12.8438C35.9492 12.1406 36.7188 11.6445 37.3828 11.3555C38.0547 11.0586 38.7383 10.9102 39.4336 10.9102C39.8164 10.9102 40.0938 10.9219 40.2656 10.9453C40.4375 10.9609 40.6953 10.9961 41.0391 11.0508V13.3125ZM53.7305 24H51.5273V22.6289C50.8945 23.1758 50.2344 23.6016 49.5469 23.9062C48.8594 24.2109 48.1133 24.3633 47.3086 24.3633C45.7461 24.3633 44.5039 23.7617 43.582 22.5586C42.668 21.3555 42.2109 19.6875 42.2109 17.5547C42.2109 16.4453 42.3672 15.457 42.6797 14.5898C43 13.7227 43.4297 12.9844 43.9688 12.375C44.5 11.7812 45.1172 11.3281 45.8203 11.0156C46.5312 10.7031 47.2656 10.5469 48.0234 10.5469C48.7109 10.5469 49.3203 10.6211 49.8516 10.7695C50.3828 10.9102 50.9414 11.1328 51.5273 11.4375V5.76562H53.7305V24ZM51.5273 20.7773V13.2656C50.9336 13 50.4023 12.8164 49.9336 12.7148C49.4648 12.6133 48.9531 12.5625 48.3984 12.5625C47.1641 12.5625 46.2031 12.9922 45.5156 13.8516C44.8281 14.7109 44.4844 15.9297 44.4844 17.5078C44.4844 19.0625 44.75 20.2461 45.2812 21.0586C45.8125 21.8633 46.6641 22.2656 47.8359 22.2656C48.4609 22.2656 49.0938 22.1289 49.7344 21.8555C50.375 21.5742 50.9727 21.2148 51.5273 20.7773ZM68.2383 24H66.0469V22.6055C65.8516 22.7383 65.5859 22.9258 65.25 23.168C64.9219 23.4023 64.6016 23.5898 64.2891 23.7305C63.9219 23.9102 63.5 24.0586 63.0234 24.1758C62.5469 24.3008 61.9883 24.3633 61.3477 24.3633C60.168 24.3633 59.168 23.9727 58.3477 23.1914C57.5273 22.4102 57.1172 21.4141 57.1172 20.2031C57.1172 19.2109 57.3281 18.4102 57.75 17.8008C58.1797 17.1836 58.7891 16.6992 59.5781 16.3477C60.375 15.9961 61.332 15.7578 62.4492 15.6328C63.5664 15.5078 64.7656 15.4141 66.0469 15.3516V15.0117C66.0469 14.5117 65.957 14.0977 65.7773 13.7695C65.6055 13.4414 65.3555 13.1836 65.0273 12.9961C64.7148 12.8164 64.3398 12.6953 63.9023 12.6328C63.4648 12.5703 63.0078 12.5391 62.5312 12.5391C61.9531 12.5391 61.3086 12.6172 60.5977 12.7734C59.8867 12.9219 59.1523 13.1406 58.3945 13.4297H58.2773V11.1914C58.707 11.0742 59.3281 10.9453 60.1406 10.8047C60.9531 10.6641 61.7539 10.5938 62.543 10.5938C63.4648 10.5938 64.2656 10.6719 64.9453 10.8281C65.6328 10.9766 66.2266 11.2344 66.7266 11.6016C67.2188 11.9609 67.5938 12.4258 67.8516 12.9961C68.1094 13.5664 68.2383 14.2734 68.2383 15.1172V24ZM66.0469 20.7773V17.1328C65.375 17.1719 64.582 17.2305 63.668 17.3086C62.7617 17.3867 62.043 17.5 61.5117 17.6484C60.8789 17.8281 60.3672 18.1094 59.9766 18.4922C59.5859 18.8672 59.3906 19.3867 59.3906 20.0508C59.3906 20.8008 59.6172 21.3672 60.0703 21.75C60.5234 22.125 61.2148 22.3125 62.1445 22.3125C62.918 22.3125 63.625 22.1641 64.2656 21.8672C64.9062 21.5625 65.5 21.1992 66.0469 20.7773ZM83.4258 24H81.2227V16.5469C81.2227 15.9453 81.1875 15.3828 81.1172 14.8594C81.0469 14.3281 80.918 13.9141 80.7305 13.6172C80.5352 13.2891 80.2539 13.0469 79.8867 12.8906C79.5195 12.7266 79.043 12.6445 78.457 12.6445C77.8555 12.6445 77.2266 12.793 76.5703 13.0898C75.9141 13.3867 75.2852 13.7656 74.6836 14.2266V24H72.4805V10.9102H74.6836V12.3633C75.3711 11.793 76.082 11.3477 76.8164 11.0273C77.5508 10.707 78.3047 10.5469 79.0781 10.5469C80.4922 10.5469 81.5703 10.9727 82.3125 11.8242C83.0547 12.6758 83.4258 13.9023 83.4258 15.5039V24ZM97.8398 24H95.6484V22.6055C95.4531 22.7383 95.1875 22.9258 94.8516 23.168C94.5234 23.4023 94.2031 23.5898 93.8906 23.7305C93.5234 23.9102 93.1016 24.0586 92.625 24.1758C92.1484 24.3008 91.5898 24.3633 90.9492 24.3633C89.7695 24.3633 88.7695 23.9727 87.9492 23.1914C87.1289 22.4102 86.7188 21.4141 86.7188 20.2031C86.7188 19.2109 86.9297 18.4102 87.3516 17.8008C87.7812 17.1836 88.3906 16.6992 89.1797 16.3477C89.9766 15.9961 90.9336 15.7578 92.0508 15.6328C93.168 15.5078 94.3672 15.4141 95.6484 15.3516V15.0117C95.6484 14.5117 95.5586 14.0977 95.3789 13.7695C95.207 13.4414 94.957 13.1836 94.6289 12.9961C94.3164 12.8164 93.9414 12.6953 93.5039 12.6328C93.0664 12.5703 92.6094 12.5391 92.1328 12.5391C91.5547 12.5391 90.9102 12.6172 90.1992 12.7734C89.4883 12.9219 88.7539 13.1406 87.9961 13.4297H87.8789V11.1914C88.3086 11.0742 88.9297 10.9453 89.7422 10.8047C90.5547 10.6641 91.3555 10.5938 92.1445 10.5938C93.0664 10.5938 93.8672 10.6719 94.5469 10.8281C95.2344 10.9766 95.8281 11.2344 96.3281 11.6016C96.8203 11.9609 97.1953 12.4258 97.4531 12.9961C97.7109 13.5664 97.8398 14.2734 97.8398 15.1172V24ZM95.6484 20.7773V17.1328C94.9766 17.1719 94.1836 17.2305 93.2695 17.3086C92.3633 17.3867 91.6445 17.5 91.1133 17.6484C90.4805 17.8281 89.9688 18.1094 89.5781 18.4922C89.1875 18.8672 88.9922 19.3867 88.9922 20.0508C88.9922 20.8008 89.2188 21.3672 89.6719 21.75C90.125 22.125 90.8164 22.3125 91.7461 22.3125C92.5195 22.3125 93.2266 22.1641 93.8672 21.8672C94.5078 21.5625 95.1016 21.1992 95.6484 20.7773Z" fill="black"/>
<path d="M16.1016 80H13.6289L11.918 75.1367H4.37109L2.66016 80H0.304688L6.65625 62.5508H9.75L16.1016 80ZM11.2031 73.1445L8.14453 64.5781L5.07422 73.1445H11.2031ZM28.7461 80H26.5547V78.6055C26.3594 78.7383 26.0938 78.9258 25.7578 79.168C25.4297 79.4023 25.1094 79.5898 24.7969 79.7305C24.4297 79.9102 24.0078 80.0586 23.5312 80.1758C23.0547 80.3008 22.4961 80.3633 21.8555 80.3633C20.6758 80.3633 19.6758 79.9727 18.8555 79.1914C18.0352 78.4102 17.625 77.4141 17.625 76.2031C17.625 75.2109 17.8359 74.4102 18.2578 73.8008C18.6875 73.1836 19.2969 72.6992 20.0859 72.3477C20.8828 71.9961 21.8398 71.7578 22.957 71.6328C24.0742 71.5078 25.2734 71.4141 26.5547 71.3516V71.0117C26.5547 70.5117 26.4648 70.0977 26.2852 69.7695C26.1133 69.4414 25.8633 69.1836 25.5352 68.9961C25.2227 68.8164 24.8477 68.6953 24.4102 68.6328C23.9727 68.5703 23.5156 68.5391 23.0391 68.5391C22.4609 68.5391 21.8164 68.6172 21.1055 68.7734C20.3945 68.9219 19.6602 69.1406 18.9023 69.4297H18.7852V67.1914C19.2148 67.0742 19.8359 66.9453 20.6484 66.8047C21.4609 66.6641 22.2617 66.5938 23.0508 66.5938C23.9727 66.5938 24.7734 66.6719 25.4531 66.8281C26.1406 66.9766 26.7344 67.2344 27.2344 67.6016C27.7266 67.9609 28.1016 68.4258 28.3594 68.9961C28.6172 69.5664 28.7461 70.2734 28.7461 71.1172V80ZM26.5547 76.7773V73.1328C25.8828 73.1719 25.0898 73.2305 24.1758 73.3086C23.2695 73.3867 22.5508 73.5 22.0195 73.6484C21.3867 73.8281 20.875 74.1094 20.4844 74.4922C20.0938 74.8672 19.8984 75.3867 19.8984 76.0508C19.8984 76.8008 20.125 77.3672 20.5781 77.75C21.0312 78.125 21.7227 78.3125 22.6523 78.3125C23.4258 78.3125 24.1328 78.1641 24.7734 77.8672C25.4141 77.5625 26.0078 77.1992 26.5547 76.7773ZM54.7617 74.6328C54.7617 75.5 54.5977 76.2656 54.2695 76.9297C53.9414 77.5938 53.5 78.1406 52.9453 78.5703C52.2891 79.0859 51.5664 79.4531 50.7773 79.6719C49.9961 79.8906 49 80 47.7891 80H41.6016V62.5508H46.7695C48.043 62.5508 48.9961 62.5977 49.6289 62.6914C50.2617 62.7852 50.8672 62.9805 51.4453 63.2773C52.0859 63.6133 52.5508 64.0469 52.8398 64.5781C53.1289 65.1016 53.2734 65.7305 53.2734 66.4648C53.2734 67.293 53.0625 68 52.6406 68.5859C52.2188 69.1641 51.6562 69.6289 50.9531 69.9805V70.0742C52.1328 70.3164 53.0625 70.8359 53.7422 71.6328C54.4219 72.4219 54.7617 73.4219 54.7617 74.6328ZM50.8594 66.7695C50.8594 66.3477 50.7891 65.9922 50.6484 65.7031C50.5078 65.4141 50.2812 65.1797 49.9688 65C49.6016 64.7891 49.1562 64.6602 48.6328 64.6133C48.1094 64.5586 47.4609 64.5312 46.6875 64.5312H43.9219V69.5703H46.9219C47.6484 69.5703 48.2266 69.5352 48.6562 69.4648C49.0859 69.3867 49.4844 69.2305 49.8516 68.9961C50.2188 68.7617 50.4766 68.4609 50.625 68.0938C50.7812 67.7188 50.8594 67.2773 50.8594 66.7695ZM52.3477 74.7266C52.3477 74.0234 52.2422 73.4648 52.0312 73.0508C51.8203 72.6367 51.4375 72.2852 50.8828 71.9961C50.5078 71.8008 50.0508 71.6758 49.5117 71.6211C48.9805 71.5586 48.332 71.5273 47.5664 71.5273H43.9219V78.0195H46.9922C48.0078 78.0195 48.8398 77.9688 49.4883 77.8672C50.1367 77.7578 50.668 77.5625 51.082 77.2812C51.5195 76.9766 51.8398 76.6289 52.043 76.2383C52.2461 75.8477 52.3477 75.3438 52.3477 74.7266ZM69.3984 73.3555C69.3984 74.4492 69.2422 75.4336 68.9297 76.3086C68.625 77.1836 68.2109 77.918 67.6875 78.5117C67.1328 79.1289 66.5234 79.5938 65.8594 79.9062C65.1953 80.2109 64.4648 80.3633 63.668 80.3633C62.9258 80.3633 62.2773 80.2734 61.7227 80.0938C61.168 79.9219 60.6211 79.6875 60.082 79.3906L59.9414 80H57.8789V61.7656H60.082V68.2812C60.6992 67.7734 61.3555 67.3594 62.0508 67.0391C62.7461 66.7109 63.5273 66.5469 64.3945 66.5469C65.9414 66.5469 67.1602 67.1406 68.0508 68.3281C68.9492 69.5156 69.3984 71.1914 69.3984 73.3555ZM67.125 73.4141C67.125 71.8516 66.8672 70.668 66.3516 69.8633C65.8359 69.0508 65.0039 68.6445 63.8555 68.6445C63.2148 68.6445 62.5664 68.7852 61.9102 69.0664C61.2539 69.3398 60.6445 69.6953 60.082 70.1328V77.6328C60.707 77.9141 61.2422 78.1094 61.6875 78.2188C62.1406 78.3281 62.6523 78.3828 63.2227 78.3828C64.4414 78.3828 65.3945 77.9844 66.082 77.1875C66.7773 76.3828 67.125 75.125 67.125 73.4141ZM94.9219 78.7344C94.4922 78.9219 94.1016 79.0977 93.75 79.2617C93.4062 79.4258 92.9531 79.5977 92.3906 79.7773C91.9141 79.9258 91.3945 80.0508 90.832 80.1523C90.2773 80.2617 89.6641 80.3164 88.9922 80.3164C87.7266 80.3164 86.5742 80.1406 85.5352 79.7891C84.5039 79.4297 83.6055 78.8711 82.8398 78.1133C82.0898 77.3711 81.5039 76.4297 81.082 75.2891C80.6602 74.1406 80.4492 72.8086 80.4492 71.293C80.4492 69.8555 80.6523 68.5703 81.0586 67.4375C81.4648 66.3047 82.0508 65.3477 82.8164 64.5664C83.5586 63.8086 84.4531 63.2305 85.5 62.832C86.5547 62.4336 87.7227 62.2344 89.0039 62.2344C89.9414 62.2344 90.875 62.3477 91.8047 62.5742C92.7422 62.8008 93.7812 63.1992 94.9219 63.7695V66.5234H94.7461C93.7852 65.7188 92.832 65.1328 91.8867 64.7656C90.9414 64.3984 89.9297 64.2148 88.8516 64.2148C87.9688 64.2148 87.1719 64.3594 86.4609 64.6484C85.7578 64.9297 85.1289 65.3711 84.5742 65.9727C84.0352 66.5586 83.6133 67.3008 83.3086 68.1992C83.0117 69.0898 82.8633 70.1211 82.8633 71.293C82.8633 72.5195 83.0273 73.5742 83.3555 74.457C83.6914 75.3398 84.1211 76.0586 84.6445 76.6133C85.1914 77.1914 85.8281 77.6211 86.5547 77.9023C87.2891 78.1758 88.0625 78.3125 88.875 78.3125C89.9922 78.3125 91.0391 78.1211 92.0156 77.7383C92.9922 77.3555 93.9062 76.7812 94.7578 76.0156H94.9219V78.7344ZM107.707 79.1797C106.973 79.5312 106.273 79.8047 105.609 80C104.953 80.1953 104.254 80.293 103.512 80.293C102.566 80.293 101.699 80.1562 100.91 79.8828C100.121 79.6016 99.4453 79.1797 98.8828 78.6172C98.3125 78.0547 97.8711 77.3438 97.5586 76.4844C97.2461 75.625 97.0898 74.6211 97.0898 73.4727C97.0898 71.332 97.6758 69.6523 98.8477 68.4336C100.027 67.2148 101.582 66.6055 103.512 66.6055C104.262 66.6055 104.996 66.7109 105.715 66.9219C106.441 67.1328 107.105 67.3906 107.707 67.6953V70.1445H107.59C106.918 69.6211 106.223 69.2188 105.504 68.9375C104.793 68.6562 104.098 68.5156 103.418 68.5156C102.168 68.5156 101.18 68.9375 100.453 69.7812C99.7344 70.6172 99.375 71.8477 99.375 73.4727C99.375 75.0508 99.7266 76.2656 100.43 77.1172C101.141 77.9609 102.137 78.3828 103.418 78.3828C103.863 78.3828 104.316 78.3242 104.777 78.207C105.238 78.0898 105.652 77.9375 106.02 77.75C106.34 77.5859 106.641 77.4141 106.922 77.2344C107.203 77.0469 107.426 76.8867 107.59 76.7539H107.707V79.1797ZM133.898 71.293C133.898 72.8789 133.551 74.3164 132.855 75.6055C132.168 76.8945 131.25 77.8945 130.102 78.6055C129.305 79.0977 128.414 79.4531 127.43 79.6719C126.453 79.8906 125.164 80 123.562 80H119.156V62.5508H123.516C125.219 62.5508 126.57 62.6758 127.57 62.9258C128.578 63.168 129.43 63.5039 130.125 63.9336C131.312 64.6758 132.238 65.6641 132.902 66.8984C133.566 68.1328 133.898 69.5977 133.898 71.293ZM131.473 71.2578C131.473 69.8906 131.234 68.7383 130.758 67.8008C130.281 66.8633 129.57 66.125 128.625 65.5859C127.938 65.1953 127.207 64.9258 126.434 64.7773C125.66 64.6211 124.734 64.543 123.656 64.543H121.477V78.0078H123.656C124.773 78.0078 125.746 77.9258 126.574 77.7617C127.41 77.5977 128.176 77.293 128.871 76.8477C129.738 76.293 130.387 75.5625 130.816 74.6562C131.254 73.75 131.473 72.6172 131.473 71.2578ZM148.09 80H145.887V78.6289C145.254 79.1758 144.594 79.6016 143.906 79.9062C143.219 80.2109 142.473 80.3633 141.668 80.3633C140.105 80.3633 138.863 79.7617 137.941 78.5586C137.027 77.3555 136.57 75.6875 136.57 73.5547C136.57 72.4453 136.727 71.457 137.039 70.5898C137.359 69.7227 137.789 68.9844 138.328 68.375C138.859 67.7812 139.477 67.3281 140.18 67.0156C140.891 66.7031 141.625 66.5469 142.383 66.5469C143.07 66.5469 143.68 66.6211 144.211 66.7695C144.742 66.9102 145.301 67.1328 145.887 67.4375V61.7656H148.09V80ZM145.887 76.7773V69.2656C145.293 69 144.762 68.8164 144.293 68.7148C143.824 68.6133 143.312 68.5625 142.758 68.5625C141.523 68.5625 140.562 68.9922 139.875 69.8516C139.188 70.7109 138.844 71.9297 138.844 73.5078C138.844 75.0625 139.109 76.2461 139.641 77.0586C140.172 77.8633 141.023 78.2656 142.195 78.2656C142.82 78.2656 143.453 78.1289 144.094 77.8555C144.734 77.5742 145.332 77.2148 145.887 76.7773ZM172.535 80H161.039V62.5508H172.535V64.6133H163.359V69.3945H172.535V71.457H163.359V77.9375H172.535V80ZM187.008 73.6836H177.363C177.363 74.4883 177.484 75.1914 177.727 75.793C177.969 76.3867 178.301 76.875 178.723 77.2578C179.129 77.6328 179.609 77.9141 180.164 78.1016C180.727 78.2891 181.344 78.3828 182.016 78.3828C182.906 78.3828 183.801 78.207 184.699 77.8555C185.605 77.4961 186.25 77.1445 186.633 76.8008H186.75V79.2031C186.008 79.5156 185.25 79.7773 184.477 79.9883C183.703 80.1992 182.891 80.3047 182.039 80.3047C179.867 80.3047 178.172 79.7188 176.953 78.5469C175.734 77.3672 175.125 75.6953 175.125 73.5312C175.125 71.3906 175.707 69.6914 176.871 68.4336C178.043 67.1758 179.582 66.5469 181.488 66.5469C183.254 66.5469 184.613 67.0625 185.566 68.0938C186.527 69.125 187.008 70.5898 187.008 72.4883V73.6836ZM184.863 71.9961C184.855 70.8398 184.562 69.9453 183.984 69.3125C183.414 68.6797 182.543 68.3633 181.371 68.3633C180.191 68.3633 179.25 68.7109 178.547 69.4062C177.852 70.1016 177.457 70.9648 177.363 71.9961H184.863ZM210.105 64.6133H201.281V69.5352H208.863V71.5977H201.281V80H198.961V62.5508H210.105V64.6133ZM219.633 63.8984H219.516C219.273 63.8281 218.957 63.7578 218.566 63.6875C218.176 63.6094 217.832 63.5703 217.535 63.5703C216.59 63.5703 215.902 63.7812 215.473 64.2031C215.051 64.6172 214.84 65.3711 214.84 66.4648V66.9102H218.812V68.7617H214.91V80H212.707V68.7617H211.219V66.9102H212.707V66.4766C212.707 64.9219 213.094 63.7305 213.867 62.9023C214.641 62.0664 215.758 61.6484 217.219 61.6484C217.711 61.6484 218.152 61.6719 218.543 61.7188C218.941 61.7656 219.305 61.8203 219.633 61.8828V63.8984ZM244.195 78.7109C243.242 79.1484 242.199 79.5312 241.066 79.8594C239.941 80.1797 238.852 80.3398 237.797 80.3398C236.438 80.3398 235.191 80.1523 234.059 79.7773C232.926 79.4023 231.961 78.8398 231.164 78.0898C230.359 77.332 229.738 76.3867 229.301 75.2539C228.863 74.1133 228.645 72.7812 228.645 71.2578C228.645 68.4688 229.457 66.2695 231.082 64.6602C232.715 63.043 234.953 62.2344 237.797 62.2344C238.789 62.2344 239.801 62.3555 240.832 62.5977C241.871 62.832 242.988 63.2344 244.184 63.8047V66.5586H243.973C243.73 66.3711 243.379 66.125 242.918 65.8203C242.457 65.5156 242.004 65.2617 241.559 65.0586C241.02 64.8164 240.406 64.6172 239.719 64.4609C239.039 64.2969 238.266 64.2148 237.398 64.2148C235.445 64.2148 233.898 64.8438 232.758 66.1016C231.625 67.3516 231.059 69.0469 231.059 71.1875C231.059 73.4453 231.652 75.2031 232.84 76.4609C234.027 77.7109 235.645 78.3359 237.691 78.3359C238.441 78.3359 239.188 78.2617 239.93 78.1133C240.68 77.9648 241.336 77.7734 241.898 77.5391V73.2617H237.223V71.2227H244.195V78.7109ZM258.691 78.5117C258.691 80.7305 258.188 82.3594 257.18 83.3984C256.172 84.4375 254.621 84.957 252.527 84.957C251.832 84.957 251.152 84.9062 250.488 84.8047C249.832 84.7109 249.184 84.5742 248.543 84.3945V82.1445H248.66C249.02 82.2852 249.59 82.457 250.371 82.6602C251.152 82.8711 251.934 82.9766 252.715 82.9766C253.465 82.9766 254.086 82.8867 254.578 82.707C255.07 82.5273 255.453 82.2773 255.727 81.957C256 81.6523 256.195 81.2852 256.312 80.8555C256.43 80.4258 256.488 79.9453 256.488 79.4141V78.2188C255.824 78.75 255.188 79.1484 254.578 79.4141C253.977 79.6719 253.207 79.8008 252.27 79.8008C250.707 79.8008 249.465 79.2383 248.543 78.1133C247.629 76.9805 247.172 75.3867 247.172 73.332C247.172 72.207 247.328 71.2383 247.641 70.4258C247.961 69.6055 248.395 68.8984 248.941 68.3047C249.449 67.75 250.066 67.3203 250.793 67.0156C251.52 66.7031 252.242 66.5469 252.961 66.5469C253.719 66.5469 254.352 66.625 254.859 66.7812C255.375 66.9297 255.918 67.1602 256.488 67.4727L256.629 66.9102H258.691V78.5117ZM256.488 76.4023V69.2656C255.902 69 255.355 68.8125 254.848 68.7031C254.348 68.5859 253.848 68.5273 253.348 68.5273C252.137 68.5273 251.184 68.9336 250.488 69.7461C249.793 70.5586 249.445 71.7383 249.445 73.2852C249.445 74.7539 249.703 75.8672 250.219 76.625C250.734 77.3828 251.59 77.7617 252.785 77.7617C253.426 77.7617 254.066 77.6406 254.707 77.3984C255.355 77.1484 255.949 76.8164 256.488 76.4023ZM284.988 80H282.668V71.457H273.961V80H271.641V62.5508H273.961V69.3945H282.668V62.5508H284.988V80ZM300.457 80H298.254V72.5469C298.254 71.9453 298.219 71.3828 298.148 70.8594C298.078 70.3281 297.949 69.9141 297.762 69.6172C297.566 69.2891 297.285 69.0469 296.918 68.8906C296.551 68.7266 296.074 68.6445 295.488 68.6445C294.887 68.6445 294.258 68.793 293.602 69.0898C292.945 69.3867 292.316 69.7656 291.715 70.2266V80H289.512V61.7656H291.715V68.3633C292.402 67.793 293.113 67.3477 293.848 67.0273C294.582 66.707 295.336 66.5469 296.109 66.5469C297.523 66.5469 298.602 66.9727 299.344 67.8242C300.086 68.6758 300.457 69.9023 300.457 71.5039V80ZM319.465 80H312.574V78.2188H314.859V64.332H312.574V62.5508H319.465V64.332H317.18V78.2188H319.465V80ZM325.605 64.7188H323.121V62.4336H325.605V64.7188ZM325.465 80H323.262V66.9102H325.465V80ZM344.836 75.4648C344.836 76.9961 344.367 78.1758 343.43 79.0039C342.5 79.832 341.25 80.2461 339.68 80.2461C339.305 80.2461 338.805 80.2109 338.18 80.1406C337.555 80.0781 337.031 80 336.609 79.9062V77.7383H336.738C337.059 77.8477 337.453 77.9609 337.922 78.0781C338.391 78.1953 338.871 78.2539 339.363 78.2539C340.082 78.2539 340.652 78.1719 341.074 78.0078C341.504 77.8438 341.82 77.6094 342.023 77.3047C342.234 76.9922 342.367 76.6094 342.422 76.1562C342.484 75.7031 342.516 75.1797 342.516 74.5859V64.4023H338.824V62.5508H344.836V75.4648ZM353.262 64.7188H350.777V62.4336H353.262V64.7188ZM353.121 80.3164C353.121 81.8477 352.73 83.0039 351.949 83.7852C351.168 84.5664 350.121 84.957 348.809 84.957C348.496 84.957 348.082 84.9258 347.566 84.8633C347.059 84.8008 346.633 84.7227 346.289 84.6289V82.5312H346.406C346.625 82.6172 346.918 82.7148 347.285 82.8242C347.66 82.9336 348.023 82.9883 348.375 82.9883C348.938 82.9883 349.391 82.9102 349.734 82.7539C350.078 82.5977 350.336 82.3633 350.508 82.0508C350.68 81.7383 350.789 81.3594 350.836 80.9141C350.891 80.4766 350.918 79.9414 350.918 79.3086V68.7617H348.188V66.9102H353.121V80.3164ZM380.098 80H377.086L370.184 72.2305L368.449 74.082V80H366.129V62.5508H368.449V71.6562L376.922 62.5508H379.734L371.941 70.7539L380.098 80ZM394.418 80H391.512L386.262 74.2695L384.832 75.6289V80H382.629V61.7656H384.832V73.4609L391.195 66.9102H393.973L387.891 72.957L394.418 80ZM13.3828 109H2.34375V91.5508H4.66406V106.938H13.3828V109ZM17.7539 109H15.5508V90.7656H17.7539V109ZM46.2656 109H43.9453V93.9648L39.0938 104.195H37.7109L32.8945 93.9648V109H30.7266V91.5508H33.8906L38.543 101.266L43.043 91.5508H46.2656V109ZM69.8789 109H67.6758V101.547C67.6758 100.984 67.6484 100.441 67.5938 99.918C67.5469 99.3945 67.4414 98.9766 67.2773 98.6641C67.0977 98.3281 66.8398 98.0742 66.5039 97.9023C66.168 97.7305 65.6836 97.6445 65.0508 97.6445C64.4336 97.6445 63.8164 97.8008 63.1992 98.1133C62.582 98.418 61.9648 98.8086 61.3477 99.2852C61.3711 99.4648 61.3906 99.6758 61.4062 99.918C61.4219 100.152 61.4297 100.387 61.4297 100.621V109H59.2266V101.547C59.2266 100.969 59.1992 100.422 59.1445 99.9062C59.0977 99.3828 58.9922 98.9648 58.8281 98.6523C58.6484 98.3164 58.3906 98.0664 58.0547 97.9023C57.7188 97.7305 57.2344 97.6445 56.6016 97.6445C56 97.6445 55.3945 97.793 54.7852 98.0898C54.1836 98.3867 53.582 98.7656 52.9805 99.2266V109H50.7773V95.9102H52.9805V97.3633C53.668 96.793 54.3516 96.3477 55.0312 96.0273C55.7188 95.707 56.4492 95.5469 57.2227 95.5469C58.1133 95.5469 58.8672 95.7344 59.4844 96.1094C60.1094 96.4844 60.5742 97.0039 60.8789 97.668C61.7695 96.918 62.582 96.3789 63.3164 96.0508C64.0508 95.7148 64.8359 95.5469 65.6719 95.5469C67.1094 95.5469 68.168 95.9844 68.8477 96.8594C69.5352 97.7266 69.8789 98.9414 69.8789 100.504V109ZM96.0469 109H93.1758L84.9023 93.3906V109H82.7344V91.5508H86.332L93.8789 105.801V91.5508H96.0469V109ZM111.457 109H109.254V101.547C109.254 100.945 109.219 100.383 109.148 99.8594C109.078 99.3281 108.949 98.9141 108.762 98.6172C108.566 98.2891 108.285 98.0469 107.918 97.8906C107.551 97.7266 107.074 97.6445 106.488 97.6445C105.887 97.6445 105.258 97.793 104.602 98.0898C103.945 98.3867 103.316 98.7656 102.715 99.2266V109H100.512V95.9102H102.715V97.3633C103.402 96.793 104.113 96.3477 104.848 96.0273C105.582 95.707 106.336 95.5469 107.109 95.5469C108.523 95.5469 109.602 95.9727 110.344 96.8242C111.086 97.6758 111.457 98.9023 111.457 100.504V109ZM137.32 93.5547C138.031 94.3359 138.574 95.293 138.949 96.4258C139.332 97.5586 139.523 98.8438 139.523 100.281C139.523 101.719 139.328 103.008 138.938 104.148C138.555 105.281 138.016 106.227 137.32 106.984C136.602 107.773 135.75 108.367 134.766 108.766C133.789 109.164 132.672 109.363 131.414 109.363C130.188 109.363 129.07 109.16 128.062 108.754C127.062 108.348 126.211 107.758 125.508 106.984C124.805 106.211 124.262 105.262 123.879 104.137C123.504 103.012 123.316 101.727 123.316 100.281C123.316 98.8594 123.504 97.5859 123.879 96.4609C124.254 95.3281 124.801 94.3594 125.52 93.5547C126.207 92.7891 127.059 92.2031 128.074 91.7969C129.098 91.3906 130.211 91.1875 131.414 91.1875C132.664 91.1875 133.785 91.3945 134.777 91.8086C135.777 92.2148 136.625 92.7969 137.32 93.5547ZM137.109 100.281C137.109 98.0156 136.602 96.2695 135.586 95.043C134.57 93.8086 133.184 93.1914 131.426 93.1914C129.652 93.1914 128.258 93.8086 127.242 95.043C126.234 96.2695 125.73 98.0156 125.73 100.281C125.73 102.57 126.246 104.324 127.277 105.543C128.309 106.754 129.691 107.359 131.426 107.359C133.16 107.359 134.539 106.754 135.562 105.543C136.594 104.324 137.109 102.57 137.109 100.281ZM154.184 102.461C154.184 104.594 153.637 106.277 152.543 107.512C151.449 108.746 149.984 109.363 148.148 109.363C146.297 109.363 144.824 108.746 143.73 107.512C142.645 106.277 142.102 104.594 142.102 102.461C142.102 100.328 142.645 98.6445 143.73 97.4102C144.824 96.168 146.297 95.5469 148.148 95.5469C149.984 95.5469 151.449 96.168 152.543 97.4102C153.637 98.6445 154.184 100.328 154.184 102.461ZM151.91 102.461C151.91 100.766 151.578 99.5078 150.914 98.6875C150.25 97.8594 149.328 97.4453 148.148 97.4453C146.953 97.4453 146.023 97.8594 145.359 98.6875C144.703 99.5078 144.375 100.766 144.375 102.461C144.375 104.102 144.707 105.348 145.371 106.199C146.035 107.043 146.961 107.465 148.148 107.465C149.32 107.465 150.238 107.047 150.902 106.211C151.574 105.367 151.91 104.117 151.91 102.461ZM177.633 96.8242C177.633 97.5977 177.496 98.3164 177.223 98.9805C176.957 99.6367 176.582 100.207 176.098 100.691C175.496 101.293 174.785 101.746 173.965 102.051C173.145 102.348 172.109 102.496 170.859 102.496H168.539V109H166.219V91.5508H170.953C172 91.5508 172.887 91.6406 173.613 91.8203C174.34 91.9922 174.984 92.2656 175.547 92.6406C176.211 93.0859 176.723 93.6406 177.082 94.3047C177.449 94.9688 177.633 95.8086 177.633 96.8242ZM175.219 96.8828C175.219 96.2812 175.113 95.7578 174.902 95.3125C174.691 94.8672 174.371 94.5039 173.941 94.2227C173.566 93.9805 173.137 93.8086 172.652 93.707C172.176 93.5977 171.57 93.543 170.836 93.543H168.539V100.516H170.496C171.434 100.516 172.195 100.434 172.781 100.27C173.367 100.098 173.844 99.8281 174.211 99.4609C174.578 99.0859 174.836 98.6914 174.984 98.2773C175.141 97.8633 175.219 97.3984 175.219 96.8828ZM192.047 102.297C192.047 103.359 191.895 104.332 191.59 105.215C191.285 106.09 190.855 106.832 190.301 107.441C189.785 108.02 189.176 108.469 188.473 108.789C187.777 109.102 187.039 109.258 186.258 109.258C185.578 109.258 184.961 109.184 184.406 109.035C183.859 108.887 183.301 108.656 182.73 108.344V113.828H180.527V95.9102H182.73V97.2812C183.316 96.7891 183.973 96.3789 184.699 96.0508C185.434 95.7148 186.215 95.5469 187.043 95.5469C188.621 95.5469 189.848 96.1445 190.723 97.3398C191.605 98.5273 192.047 100.18 192.047 102.297ZM189.773 102.355C189.773 100.777 189.504 99.5977 188.965 98.8164C188.426 98.0352 187.598 97.6445 186.48 97.6445C185.848 97.6445 185.211 97.7812 184.57 98.0547C183.93 98.3281 183.316 98.6875 182.73 99.1328V106.551C183.355 106.832 183.891 107.023 184.336 107.125C184.789 107.227 185.301 107.277 185.871 107.277C187.098 107.277 188.055 106.863 188.742 106.035C189.43 105.207 189.773 103.98 189.773 102.355ZM219.656 113.277C219.188 113.395 218.723 113.477 218.262 113.523C217.809 113.578 217.344 113.605 216.867 113.605C215.508 113.605 214.414 113.23 213.586 112.48C212.766 111.738 212.32 110.672 212.25 109.281C212.062 109.312 211.879 109.332 211.699 109.34C211.527 109.355 211.359 109.363 211.195 109.363C209.969 109.363 208.852 109.16 207.844 108.754C206.844 108.348 205.992 107.758 205.289 106.984C204.586 106.211 204.043 105.262 203.66 104.137C203.285 103.012 203.098 101.727 203.098 100.281C203.098 98.8594 203.285 97.5859 203.66 96.4609C204.035 95.3281 204.582 94.3594 205.301 93.5547C205.988 92.7891 206.84 92.2031 207.855 91.7969C208.879 91.3906 209.992 91.1875 211.195 91.1875C212.445 91.1875 213.566 91.3945 214.559 91.8086C215.559 92.2148 216.406 92.7969 217.102 93.5547C217.812 94.3359 218.355 95.293 218.73 96.4258C219.113 97.5586 219.305 98.8438 219.305 100.281C219.305 102.414 218.867 104.211 217.992 105.672C217.125 107.133 215.957 108.156 214.488 108.742C214.52 109.633 214.73 110.324 215.121 110.816C215.512 111.309 216.223 111.555 217.254 111.555C217.574 111.555 217.953 111.504 218.391 111.402C218.836 111.309 219.152 111.223 219.34 111.145H219.656V113.277ZM216.891 100.281C216.891 98.0156 216.383 96.2695 215.367 95.043C214.352 93.8086 212.965 93.1914 211.207 93.1914C209.434 93.1914 208.039 93.8086 207.023 95.043C206.016 96.2695 205.512 98.0156 205.512 100.281C205.512 102.57 206.027 104.324 207.059 105.543C208.09 106.754 209.473 107.359 211.207 107.359C212.941 107.359 214.32 106.754 215.344 105.543C216.375 104.324 216.891 102.57 216.891 100.281ZM233.426 113.828H231.223V107.523C230.543 108.109 229.867 108.547 229.195 108.836C228.523 109.117 227.797 109.258 227.016 109.258C225.461 109.258 224.219 108.66 223.289 107.465C222.367 106.262 221.906 104.605 221.906 102.496C221.906 101.371 222.066 100.379 222.387 99.5195C222.715 98.6523 223.145 97.9258 223.676 97.3398C224.191 96.7695 224.797 96.3281 225.492 96.0156C226.188 95.7031 226.922 95.5469 227.695 95.5469C228.398 95.5469 229.02 95.625 229.559 95.7812C230.105 95.9375 230.66 96.168 231.223 96.4727L231.363 95.9102H233.426V113.828ZM231.223 105.672V98.2656C230.613 97.9922 230.074 97.8008 229.605 97.6914C229.137 97.582 228.629 97.5273 228.082 97.5273C226.809 97.5273 225.84 97.9609 225.176 98.8281C224.512 99.6875 224.18 100.875 224.18 102.391C224.18 103.922 224.445 105.102 224.977 105.93C225.516 106.75 226.359 107.16 227.508 107.16C228.148 107.16 228.789 107.023 229.43 106.75C230.07 106.469 230.668 106.109 231.223 105.672ZM260.812 109H257.801L251.965 102.062H248.695V109H246.375V91.5508H251.262C252.316 91.5508 253.195 91.6211 253.898 91.7617C254.602 91.8945 255.234 92.1367 255.797 92.4883C256.43 92.8867 256.922 93.3906 257.273 94C257.633 94.6016 257.812 95.3672 257.812 96.2969C257.812 97.5547 257.496 98.6094 256.863 99.4609C256.23 100.305 255.359 100.941 254.25 101.371L260.812 109ZM255.387 96.4609C255.387 95.9609 255.297 95.5195 255.117 95.1367C254.945 94.7461 254.656 94.418 254.25 94.1523C253.914 93.9258 253.516 93.7695 253.055 93.6836C252.594 93.5898 252.051 93.543 251.426 93.543H248.695V100.129H251.039C251.773 100.129 252.414 100.066 252.961 99.9414C253.508 99.8086 253.973 99.5664 254.355 99.2148C254.707 98.8867 254.965 98.5117 255.129 98.0898C255.301 97.6602 255.387 97.1172 255.387 96.4609ZM271.055 98.3125H270.938C270.609 98.2344 270.289 98.1797 269.977 98.1484C269.672 98.1094 269.309 98.0898 268.887 98.0898C268.207 98.0898 267.551 98.2422 266.918 98.5469C266.285 98.8438 265.676 99.2305 265.09 99.707V109H262.887V95.9102H265.09V97.8438C265.965 97.1406 266.734 96.6445 267.398 96.3555C268.07 96.0586 268.754 95.9102 269.449 95.9102C269.832 95.9102 270.109 95.9219 270.281 95.9453C270.453 95.9609 270.711 95.9961 271.055 96.0508V98.3125ZM294.422 104.02C294.422 104.699 294.262 105.371 293.941 106.035C293.629 106.699 293.188 107.262 292.617 107.723C291.992 108.223 291.262 108.613 290.426 108.895C289.598 109.176 288.598 109.316 287.426 109.316C286.168 109.316 285.035 109.199 284.027 108.965C283.027 108.73 282.008 108.383 280.969 107.922V105.016H281.133C282.016 105.75 283.035 106.316 284.191 106.715C285.348 107.113 286.434 107.312 287.449 107.312C288.887 107.312 290.004 107.043 290.801 106.504C291.605 105.965 292.008 105.246 292.008 104.348C292.008 103.574 291.816 103.004 291.434 102.637C291.059 102.27 290.484 101.984 289.711 101.781C289.125 101.625 288.488 101.496 287.801 101.395C287.121 101.293 286.398 101.164 285.633 101.008C284.086 100.68 282.938 100.121 282.188 99.332C281.445 98.5352 281.074 97.5 281.074 96.2266C281.074 94.7656 281.691 93.5703 282.926 92.6406C284.16 91.7031 285.727 91.2344 287.625 91.2344C288.852 91.2344 289.977 91.3516 291 91.5859C292.023 91.8203 292.93 92.1094 293.719 92.4531V95.1953H293.555C292.891 94.6328 292.016 94.168 290.93 93.8008C289.852 93.4258 288.746 93.2383 287.613 93.2383C286.371 93.2383 285.371 93.4961 284.613 94.0117C283.863 94.5273 283.488 95.1914 283.488 96.0039C283.488 96.7305 283.676 97.3008 284.051 97.7148C284.426 98.1289 285.086 98.4453 286.031 98.6641C286.531 98.7734 287.242 98.9062 288.164 99.0625C289.086 99.2188 289.867 99.3789 290.508 99.543C291.805 99.8867 292.781 100.406 293.438 101.102C294.094 101.797 294.422 102.77 294.422 104.02ZM307.324 105.227C307.324 106.422 306.828 107.402 305.836 108.168C304.852 108.934 303.504 109.316 301.793 109.316C300.824 109.316 299.934 109.203 299.121 108.977C298.316 108.742 297.641 108.488 297.094 108.215V105.742H297.211C297.906 106.266 298.68 106.684 299.531 106.996C300.383 107.301 301.199 107.453 301.98 107.453C302.949 107.453 303.707 107.297 304.254 106.984C304.801 106.672 305.074 106.18 305.074 105.508C305.074 104.992 304.926 104.602 304.629 104.336C304.332 104.07 303.762 103.844 302.918 103.656C302.605 103.586 302.195 103.504 301.688 103.41C301.188 103.316 300.73 103.215 300.316 103.105C299.168 102.801 298.352 102.355 297.867 101.77C297.391 101.176 297.152 100.449 297.152 99.5898C297.152 99.0508 297.262 98.543 297.48 98.0664C297.707 97.5898 298.047 97.1641 298.5 96.7891C298.938 96.4219 299.492 96.1328 300.164 95.9219C300.844 95.7031 301.602 95.5938 302.438 95.5938C303.219 95.5938 304.008 95.6914 304.805 95.8867C305.609 96.0742 306.277 96.3047 306.809 96.5781V98.9336H306.691C306.129 98.5195 305.445 98.1719 304.641 97.8906C303.836 97.6016 303.047 97.457 302.273 97.457C301.469 97.457 300.789 97.6133 300.234 97.9258C299.68 98.2305 299.402 98.6875 299.402 99.2969C299.402 99.8359 299.57 100.242 299.906 100.516C300.234 100.789 300.766 101.012 301.5 101.184C301.906 101.277 302.359 101.371 302.859 101.465C303.367 101.559 303.789 101.645 304.125 101.723C305.148 101.957 305.938 102.359 306.492 102.93C307.047 103.508 307.324 104.273 307.324 105.227ZM331.547 93.6133H325.312V109H322.992V93.6133H316.758V91.5508H331.547V93.6133ZM340.512 108.883C340.098 108.992 339.645 109.082 339.152 109.152C338.668 109.223 338.234 109.258 337.852 109.258C336.516 109.258 335.5 108.898 334.805 108.18C334.109 107.461 333.762 106.309 333.762 104.723V97.7617H332.273V95.9102H333.762V92.1484H335.965V95.9102H340.512V97.7617H335.965V103.727C335.965 104.414 335.98 104.953 336.012 105.344C336.043 105.727 336.152 106.086 336.34 106.422C336.512 106.734 336.746 106.965 337.043 107.113C337.348 107.254 337.809 107.324 338.426 107.324C338.785 107.324 339.16 107.273 339.551 107.172C339.941 107.062 340.223 106.973 340.395 106.902H340.512V108.883ZM364.934 101.992C364.934 103.258 364.793 104.363 364.512 105.309C364.238 106.246 363.785 107.027 363.152 107.652C362.551 108.246 361.848 108.68 361.043 108.953C360.238 109.227 359.301 109.363 358.23 109.363C357.137 109.363 356.184 109.219 355.371 108.93C354.559 108.641 353.875 108.215 353.32 107.652C352.688 107.012 352.23 106.238 351.949 105.332C351.676 104.426 351.539 103.312 351.539 101.992V91.5508H353.859V102.109C353.859 103.055 353.922 103.801 354.047 104.348C354.18 104.895 354.398 105.391 354.703 105.836C355.047 106.344 355.512 106.727 356.098 106.984C356.691 107.242 357.402 107.371 358.23 107.371C359.066 107.371 359.777 107.246 360.363 106.996C360.949 106.738 361.418 106.352 361.77 105.836C362.074 105.391 362.289 104.883 362.414 104.312C362.547 103.734 362.613 103.02 362.613 102.168V91.5508H364.934V101.992ZM380.051 109H377.848V107.547C377.105 108.133 376.395 108.582 375.715 108.895C375.035 109.207 374.285 109.363 373.465 109.363C372.09 109.363 371.02 108.945 370.254 108.109C369.488 107.266 369.105 106.031 369.105 104.406V95.9102H371.309V103.363C371.309 104.027 371.34 104.598 371.402 105.074C371.465 105.543 371.598 105.945 371.801 106.281C372.012 106.625 372.285 106.875 372.621 107.031C372.957 107.188 373.445 107.266 374.086 107.266C374.656 107.266 375.277 107.117 375.949 106.82C376.629 106.523 377.262 106.145 377.848 105.684V95.9102H380.051V109ZM16.1016 120.551L9.75 138H6.65625L0.304688 120.551H2.78906L8.26172 135.902L13.7344 120.551H16.1016ZM29.8945 124.91L24.5977 138H22.3828L17.1211 124.91H19.5117L23.5664 135.328L27.5859 124.91H29.8945ZM61.6992 120.551L57.1641 138H54.5508L50.8828 123.516L47.2969 138H44.7422L40.125 120.551H42.5039L46.1719 135.059L49.7812 120.551H52.1367L55.7812 135.199L59.4258 120.551H61.6992ZM81.4219 124.91L78.0117 138H75.9727L72.6094 127.91L69.2695 138H67.2422L63.7969 124.91H66.0938L68.4961 135.047L71.7656 124.91H73.582L76.9336 135.047L79.207 124.91H81.4219ZM106.523 120.551L100.5 129.176L106.512 138H103.828L99.0703 130.816L94.1953 138H91.6641L97.7461 129.281L91.8047 120.551H94.4766L99.1758 127.641L103.98 120.551H106.523ZM120.82 138H118.043L114.328 132.973L110.59 138H108.023L113.133 131.473L108.07 124.91H110.848L114.539 129.855L118.242 124.91H120.82L115.676 131.355L120.82 138ZM144.656 120.551L138.516 130.348V138H136.195V130.594L130.031 120.551H132.598L137.367 128.355L142.184 120.551H144.656ZM158.215 124.91L150.574 142.828H148.219L150.656 137.367L145.441 124.91H147.832L151.852 134.613L155.906 124.91H158.215ZM182.461 138H168.844V135.844L179.543 122.613H169.242V120.551H182.203V122.648L171.398 135.938H182.461V138ZM195.48 138H184.91V136.371L192.539 126.75H185.074V124.91H195.281V126.48L187.617 136.137H195.48V138ZM13.6758 158.27C13.6758 161.402 13.1836 163.703 12.1992 165.172C11.2227 166.633 9.70312 167.363 7.64062 167.363C5.54688 167.363 4.01562 166.621 3.04688 165.137C2.08594 163.652 1.60547 161.371 1.60547 158.293C1.60547 155.191 2.09375 152.902 3.07031 151.426C4.04688 149.941 5.57031 149.199 7.64062 149.199C9.73438 149.199 11.2617 149.953 12.2227 151.461C13.1914 152.961 13.6758 155.23 13.6758 158.27ZM10.5938 163.59C10.8672 162.957 11.0508 162.215 11.1445 161.363C11.2461 160.504 11.2969 159.473 11.2969 158.27C11.2969 157.082 11.2461 156.051 11.1445 155.176C11.0508 154.301 10.8633 153.559 10.582 152.949C10.3086 152.348 9.93359 151.895 9.45703 151.59C8.98828 151.285 8.38281 151.133 7.64062 151.133C6.90625 151.133 6.29688 151.285 5.8125 151.59C5.33594 151.895 4.95703 152.355 4.67578 152.973C4.41016 153.551 4.22656 154.305 4.125 155.234C4.03125 156.164 3.98438 157.184 3.98438 158.293C3.98438 159.512 4.02734 160.531 4.11328 161.352C4.19922 162.172 4.38281 162.906 4.66406 163.555C4.92188 164.164 5.28516 164.629 5.75391 164.949C6.23047 165.27 6.85938 165.43 7.64062 165.43C8.375 165.43 8.98438 165.277 9.46875 164.973C9.95312 164.668 10.3281 164.207 10.5938 163.59ZM36.3984 167H26.9531V165.219H30.5859V153.523H26.9531V151.93C27.4453 151.93 27.9727 151.891 28.5352 151.812C29.0977 151.727 29.5234 151.605 29.8125 151.449C30.1719 151.254 30.4531 151.008 30.6562 150.711C30.8672 150.406 30.9883 150 31.0195 149.492H32.8359V165.219H36.3984V167ZM61.0898 167H49.2773V164.551C50.0977 163.848 50.918 163.145 51.7383 162.441C52.5664 161.738 53.3359 161.039 54.0469 160.344C55.5469 158.891 56.5742 157.738 57.1289 156.887C57.6836 156.027 57.9609 155.102 57.9609 154.109C57.9609 153.203 57.6602 152.496 57.0586 151.988C56.4648 151.473 55.6328 151.215 54.5625 151.215C53.8516 151.215 53.082 151.34 52.2539 151.59C51.4258 151.84 50.6172 152.223 49.8281 152.738H49.7109V150.277C50.2656 150.004 51.0039 149.754 51.9258 149.527C52.8555 149.301 53.7539 149.188 54.6211 149.188C56.4102 149.188 57.8125 149.621 58.8281 150.488C59.8438 151.348 60.3516 152.516 60.3516 153.992C60.3516 154.656 60.2656 155.277 60.0938 155.855C59.9297 156.426 59.6836 156.969 59.3555 157.484C59.0508 157.969 58.6914 158.445 58.2773 158.914C57.8711 159.383 57.375 159.902 56.7891 160.473C55.9531 161.293 55.0898 162.09 54.1992 162.863C53.3086 163.629 52.4766 164.34 51.7031 164.996H61.0898V167ZM83.25 158.598C83.625 158.934 83.9336 159.355 84.1758 159.863C84.418 160.371 84.5391 161.027 84.5391 161.832C84.5391 162.629 84.3945 163.359 84.1055 164.023C83.8164 164.688 83.4102 165.266 82.8867 165.758C82.3008 166.305 81.6094 166.711 80.8125 166.977C80.0234 167.234 79.1562 167.363 78.2109 167.363C77.2422 167.363 76.2891 167.246 75.3516 167.012C74.4141 166.785 73.6445 166.535 73.043 166.262V163.812H73.2188C73.8828 164.25 74.6641 164.613 75.5625 164.902C76.4609 165.191 77.3281 165.336 78.1641 165.336C78.6562 165.336 79.1797 165.254 79.7344 165.09C80.2891 164.926 80.7383 164.684 81.082 164.363C81.4414 164.02 81.707 163.641 81.8789 163.227C82.0586 162.812 82.1484 162.289 82.1484 161.656C82.1484 161.031 82.0469 160.516 81.8438 160.109C81.6484 159.695 81.375 159.371 81.0234 159.137C80.6719 158.895 80.2461 158.73 79.7461 158.645C79.2461 158.551 78.707 158.504 78.1289 158.504H77.0742V156.559H77.8945C79.082 156.559 80.0273 156.312 80.7305 155.82C81.4414 155.32 81.7969 154.594 81.7969 153.641C81.7969 153.219 81.707 152.852 81.5273 152.539C81.3477 152.219 81.0977 151.957 80.7773 151.754C80.4414 151.551 80.082 151.41 79.6992 151.332C79.3164 151.254 78.8828 151.215 78.3984 151.215C77.6562 151.215 76.8672 151.348 76.0312 151.613C75.1953 151.879 74.4062 152.254 73.6641 152.738H73.5469V150.289C74.1016 150.016 74.8398 149.766 75.7617 149.539C76.6914 149.305 77.5898 149.188 78.457 149.188C79.3086 149.188 80.0586 149.266 80.707 149.422C81.3555 149.578 81.9414 149.828 82.4648 150.172C83.0273 150.547 83.4531 151 83.7422 151.531C84.0312 152.062 84.1758 152.684 84.1758 153.395C84.1758 154.363 83.832 155.211 83.1445 155.938C82.4648 156.656 81.6602 157.109 80.7305 157.297V157.461C81.1055 157.523 81.5352 157.656 82.0195 157.859C82.5039 158.055 82.9141 158.301 83.25 158.598ZM108.879 162.09H106.289V167H104.039V162.09H95.6836V159.395L104.133 149.551H106.289V160.215H108.879V162.09ZM104.039 160.215V152.34L97.2773 160.215H104.039ZM132.035 161.457C132.035 162.27 131.887 163.047 131.59 163.789C131.293 164.531 130.887 165.156 130.371 165.664C129.809 166.211 129.137 166.633 128.355 166.93C127.582 167.219 126.684 167.363 125.66 167.363C124.707 167.363 123.789 167.262 122.906 167.059C122.023 166.863 121.277 166.625 120.668 166.344V163.871H120.832C121.473 164.277 122.223 164.625 123.082 164.914C123.941 165.195 124.785 165.336 125.613 165.336C126.168 165.336 126.703 165.258 127.219 165.102C127.742 164.945 128.207 164.672 128.613 164.281C128.957 163.945 129.215 163.543 129.387 163.074C129.566 162.605 129.656 162.062 129.656 161.445C129.656 160.844 129.551 160.336 129.34 159.922C129.137 159.508 128.852 159.176 128.484 158.926C128.078 158.629 127.582 158.422 126.996 158.305C126.418 158.18 125.77 158.117 125.051 158.117C124.363 158.117 123.699 158.164 123.059 158.258C122.426 158.352 121.879 158.445 121.418 158.539V149.551H131.918V151.602H123.68V156.242C124.016 156.211 124.359 156.188 124.711 156.172C125.062 156.156 125.367 156.148 125.625 156.148C126.57 156.148 127.398 156.23 128.109 156.395C128.82 156.551 129.473 156.832 130.066 157.238C130.691 157.668 131.176 158.223 131.52 158.902C131.863 159.582 132.035 160.434 132.035 161.457ZM156.129 161.34C156.129 163.113 155.543 164.562 154.371 165.688C153.207 166.805 151.777 167.363 150.082 167.363C149.223 167.363 148.441 167.23 147.738 166.965C147.035 166.699 146.414 166.305 145.875 165.781C145.203 165.133 144.684 164.273 144.316 163.203C143.957 162.133 143.777 160.844 143.777 159.336C143.777 157.789 143.941 156.418 144.27 155.223C144.605 154.027 145.137 152.965 145.863 152.035C146.551 151.152 147.438 150.465 148.523 149.973C149.609 149.473 150.875 149.223 152.32 149.223C152.781 149.223 153.168 149.242 153.48 149.281C153.793 149.32 154.109 149.391 154.43 149.492V151.73H154.312C154.094 151.613 153.762 151.504 153.316 151.402C152.879 151.293 152.43 151.238 151.969 151.238C150.289 151.238 148.949 151.766 147.949 152.82C146.949 153.867 146.367 155.285 146.203 157.074C146.859 156.676 147.504 156.375 148.137 156.172C148.777 155.961 149.516 155.855 150.352 155.855C151.094 155.855 151.746 155.926 152.309 156.066C152.879 156.199 153.461 156.473 154.055 156.887C154.742 157.363 155.258 157.965 155.602 158.691C155.953 159.418 156.129 160.301 156.129 161.34ZM153.75 161.434C153.75 160.707 153.641 160.105 153.422 159.629C153.211 159.152 152.859 158.738 152.367 158.387C152.008 158.137 151.609 157.973 151.172 157.895C150.734 157.816 150.277 157.777 149.801 157.777C149.137 157.777 148.52 157.855 147.949 158.012C147.379 158.168 146.793 158.41 146.191 158.738C146.176 158.91 146.164 159.078 146.156 159.242C146.148 159.398 146.145 159.598 146.145 159.84C146.145 161.074 146.27 162.051 146.52 162.77C146.777 163.48 147.129 164.043 147.574 164.457C147.934 164.801 148.32 165.055 148.734 165.219C149.156 165.375 149.613 165.453 150.105 165.453C151.238 165.453 152.129 165.109 152.777 164.422C153.426 163.727 153.75 162.73 153.75 161.434ZM179.613 152.164L171.715 167H169.207L177.609 151.602H167.672V149.551H179.613V152.164ZM203.391 162.137C203.391 163.645 202.801 164.898 201.621 165.898C200.449 166.898 198.973 167.398 197.191 167.398C195.301 167.398 193.793 166.91 192.668 165.934C191.551 164.957 190.992 163.707 190.992 162.184C190.992 161.215 191.273 160.34 191.836 159.559C192.398 158.77 193.191 158.145 194.215 157.684V157.613C193.277 157.113 192.582 156.566 192.129 155.973C191.684 155.379 191.461 154.637 191.461 153.746C191.461 152.434 192 151.34 193.078 150.465C194.156 149.59 195.527 149.152 197.191 149.152C198.934 149.152 200.324 149.57 201.363 150.406C202.402 151.242 202.922 152.305 202.922 153.594C202.922 154.383 202.676 155.16 202.184 155.926C201.691 156.684 200.969 157.277 200.016 157.707V157.777C201.109 158.246 201.945 158.824 202.523 159.512C203.102 160.199 203.391 161.074 203.391 162.137ZM200.613 153.617C200.613 152.781 200.289 152.117 199.641 151.625C199 151.125 198.18 150.875 197.18 150.875C196.195 150.875 195.387 151.109 194.754 151.578C194.129 152.047 193.816 152.68 193.816 153.477C193.816 154.039 193.973 154.527 194.285 154.941C194.605 155.348 195.086 155.711 195.727 156.031C196.016 156.172 196.43 156.355 196.969 156.582C197.516 156.809 198.047 156.996 198.562 157.145C199.336 156.629 199.871 156.094 200.168 155.539C200.465 154.984 200.613 154.344 200.613 153.617ZM200.977 162.359C200.977 161.641 200.816 161.066 200.496 160.637C200.184 160.199 199.566 159.762 198.645 159.324C198.277 159.152 197.875 158.992 197.438 158.844C197 158.695 196.418 158.488 195.691 158.223C194.988 158.605 194.422 159.125 193.992 159.781C193.57 160.438 193.359 161.18 193.359 162.008C193.359 163.062 193.723 163.934 194.449 164.621C195.176 165.309 196.098 165.652 197.215 165.652C198.355 165.652 199.266 165.359 199.945 164.773C200.633 164.188 200.977 163.383 200.977 162.359ZM226.934 157.227C226.934 158.75 226.758 160.133 226.406 161.375C226.062 162.617 225.539 163.676 224.836 164.551C224.125 165.441 223.234 166.129 222.164 166.613C221.094 167.098 219.836 167.34 218.391 167.34C217.984 167.34 217.602 167.316 217.242 167.27C216.883 167.23 216.562 167.164 216.281 167.07V164.832H216.398C216.625 164.949 216.945 165.062 217.359 165.172C217.773 165.273 218.234 165.324 218.742 165.324C220.469 165.324 221.82 164.809 222.797 163.777C223.781 162.738 224.352 161.309 224.508 159.488C223.781 159.926 223.098 160.238 222.457 160.426C221.816 160.613 221.117 160.707 220.359 160.707C219.641 160.707 218.988 160.637 218.402 160.496C217.824 160.355 217.242 160.082 216.656 159.676C215.969 159.199 215.449 158.594 215.098 157.859C214.754 157.125 214.582 156.246 214.582 155.223C214.582 153.441 215.168 151.992 216.34 150.875C217.512 149.758 218.941 149.199 220.629 149.199C221.473 149.199 222.254 149.332 222.973 149.598C223.691 149.855 224.32 150.246 224.859 150.77C225.523 151.418 226.035 152.254 226.395 153.277C226.754 154.293 226.934 155.609 226.934 157.227ZM224.566 156.723C224.566 155.512 224.441 154.539 224.191 153.805C223.941 153.07 223.598 152.5 223.16 152.094C222.793 151.742 222.398 151.492 221.977 151.344C221.555 151.188 221.098 151.109 220.605 151.109C219.48 151.109 218.59 151.461 217.934 152.164C217.285 152.867 216.961 153.855 216.961 155.129C216.961 155.871 217.066 156.477 217.277 156.945C217.488 157.414 217.844 157.824 218.344 158.176C218.695 158.418 219.082 158.582 219.504 158.668C219.926 158.746 220.395 158.785 220.91 158.785C221.52 158.785 222.137 158.703 222.762 158.539C223.387 158.375 223.973 158.137 224.52 157.824C224.527 157.66 224.535 157.5 224.543 157.344C224.559 157.18 224.566 156.973 224.566 156.723ZM5.76562 196H2.96484V192.66H5.76562V196ZM23.918 192.66L20.6133 200.336H18.9023L20.9414 192.66H23.918ZM43.6172 184.316H42.0469L38.8711 177.766H41.6836L43.6172 184.316ZM38.8828 184.316H37.3125L34.1367 177.766H36.9492L38.8828 184.316ZM65.0508 177.766L61.875 184.316H60.3047L62.2383 177.766H65.0508ZM60.3164 177.766L57.1406 184.316H55.5703L57.5039 177.766H60.3164ZM80.1211 186.25H77.3203V182.91H80.1211V186.25ZM80.1211 196H77.3203V192.66H80.1211V196ZM99.457 186.25H96.6562V182.91H99.457V186.25ZM100.312 192.66L97.0078 200.336H95.2969L97.3359 192.66H100.312ZM123.715 182.652C123.715 183.418 123.578 184.102 123.305 184.703C123.031 185.297 122.672 185.824 122.227 186.285C121.789 186.73 121.285 187.148 120.715 187.539C120.145 187.93 119.539 188.309 118.898 188.676V191.312H116.801V187.738C117.309 187.449 117.855 187.133 118.441 186.789C119.035 186.445 119.52 186.098 119.895 185.746C120.348 185.34 120.699 184.922 120.949 184.492C121.199 184.055 121.324 183.5 121.324 182.828C121.324 181.945 121.023 181.289 120.422 180.859C119.828 180.422 119.059 180.203 118.113 180.203C117.27 180.203 116.469 180.336 115.711 180.602C114.961 180.867 114.367 181.137 113.93 181.41H113.812V179.02C114.359 178.809 115.051 178.621 115.887 178.457C116.73 178.285 117.527 178.199 118.277 178.199C119.957 178.199 121.281 178.609 122.25 179.43C123.227 180.242 123.715 181.316 123.715 182.652ZM119.086 196H116.695V193.527H119.086V196ZM139.512 178.551L139.207 191.195H137.215L136.887 178.551H139.512ZM139.395 196H137.004V193.527H139.395V196ZM173.273 188.23C173.273 189.316 173.113 190.367 172.793 191.383C172.48 192.398 172.031 193.324 171.445 194.16H166.289L165.973 192.801C165.395 193.27 164.84 193.629 164.309 193.879C163.777 194.129 163.168 194.254 162.48 194.254C161.168 194.254 160.117 193.758 159.328 192.766C158.547 191.773 158.156 190.387 158.156 188.605C158.156 186.832 158.637 185.418 159.598 184.363C160.559 183.309 161.707 182.781 163.043 182.781C163.613 182.781 164.117 182.848 164.555 182.98C164.992 183.105 165.465 183.297 165.973 183.555V182.992H167.836V192.859H170.684C171.012 192.273 171.258 191.543 171.422 190.668C171.594 189.785 171.68 188.996 171.68 188.301C171.68 187.02 171.5 185.855 171.141 184.809C170.789 183.762 170.27 182.863 169.582 182.113C168.895 181.363 168.043 180.789 167.027 180.391C166.012 179.984 164.859 179.781 163.57 179.781C162.32 179.781 161.176 180.008 160.137 180.461C159.105 180.914 158.219 181.523 157.477 182.289C156.727 183.055 156.137 183.973 155.707 185.043C155.285 186.105 155.074 187.238 155.074 188.441C155.074 189.73 155.277 190.91 155.684 191.98C156.09 193.043 156.664 193.953 157.406 194.711C158.18 195.5 159.086 196.094 160.125 196.492C161.164 196.898 162.297 197.102 163.523 197.102C164.195 197.102 164.887 197.059 165.598 196.973C166.316 196.887 167.004 196.75 167.66 196.562V198.227C166.902 198.391 166.195 198.5 165.539 198.555C164.883 198.617 164.207 198.648 163.512 198.648C162.059 198.648 160.711 198.398 159.469 197.898C158.227 197.406 157.16 196.715 156.27 195.824C155.371 194.926 154.672 193.848 154.172 192.59C153.672 191.332 153.422 189.941 153.422 188.418C153.422 186.973 153.684 185.629 154.207 184.387C154.73 183.137 155.445 182.055 156.352 181.141C157.258 180.227 158.332 179.508 159.574 178.984C160.816 178.461 162.145 178.199 163.559 178.199C165.09 178.199 166.457 178.441 167.66 178.926C168.863 179.41 169.879 180.09 170.707 180.965C171.535 181.84 172.168 182.895 172.605 184.129C173.051 185.355 173.273 186.723 173.273 188.23ZM165.949 191.219V185.148C165.457 184.922 165.016 184.762 164.625 184.668C164.234 184.566 163.816 184.516 163.371 184.516C162.363 184.516 161.574 184.867 161.004 185.57C160.434 186.273 160.148 187.273 160.148 188.57C160.148 189.844 160.375 190.809 160.828 191.465C161.281 192.113 161.988 192.438 162.949 192.438C163.473 192.438 163.996 192.316 164.52 192.074C165.043 191.832 165.52 191.547 165.949 191.219ZM201.152 185.078H197.25L196.172 189.484H199.781V191.066H195.762L194.543 196H193.031L194.25 191.066H191.086L189.867 196H188.355L189.574 191.066H186.082V189.484H189.984L191.062 185.078H187.453V183.496H191.473L192.703 178.551H194.215L192.984 183.496H196.148L197.379 178.551H198.891L197.66 183.496H201.152V185.078ZM195.773 185.055H192.562L191.461 189.508H194.672L195.773 185.055ZM225.469 191.547C225.469 192.758 224.996 193.766 224.051 194.57C223.105 195.367 221.867 195.84 220.336 195.988V200.23H218.953V196.047C217.922 196.039 216.953 195.941 216.047 195.754C215.141 195.559 214.355 195.309 213.691 195.004V192.684H213.879C214.027 192.793 214.293 192.953 214.676 193.164C215.059 193.367 215.43 193.535 215.789 193.668C216.195 193.816 216.668 193.957 217.207 194.09C217.754 194.215 218.336 194.289 218.953 194.312V189.238C218.641 189.176 218.352 189.117 218.086 189.062C217.82 189 217.574 188.938 217.348 188.875C216.074 188.555 215.16 188.074 214.605 187.434C214.051 186.785 213.773 185.988 213.773 185.043C213.773 183.887 214.227 182.91 215.133 182.113C216.047 181.316 217.32 180.852 218.953 180.719V177.531H220.336V180.695C221.125 180.711 221.934 180.805 222.762 180.977C223.59 181.148 224.285 181.348 224.848 181.574V183.871H224.684C224.098 183.512 223.484 183.195 222.844 182.922C222.211 182.641 221.375 182.465 220.336 182.395V187.445C220.57 187.484 220.824 187.539 221.098 187.609C221.371 187.672 221.609 187.723 221.812 187.762C222.977 188.012 223.875 188.441 224.508 189.051C225.148 189.66 225.469 190.492 225.469 191.547ZM218.953 187.246V182.406C218.117 182.469 217.414 182.699 216.844 183.098C216.273 183.488 215.988 184.035 215.988 184.738C215.988 185.449 216.199 185.984 216.621 186.344C217.043 186.703 217.82 187.004 218.953 187.246ZM223.254 191.852C223.254 191.117 223.023 190.582 222.562 190.246C222.109 189.902 221.367 189.633 220.336 189.438V194.289C221.273 194.195 221.992 193.957 222.492 193.574C223 193.191 223.254 192.617 223.254 191.852ZM245.93 183.391C245.93 185.141 245.559 186.441 244.816 187.293C244.082 188.145 243.02 188.57 241.629 188.57C240.207 188.57 239.133 188.145 238.406 187.293C237.68 186.441 237.316 185.145 237.316 183.402C237.316 181.652 237.688 180.352 238.43 179.5C239.172 178.648 240.238 178.223 241.629 178.223C243.043 178.223 244.113 178.652 244.84 179.512C245.566 180.371 245.93 181.664 245.93 183.391ZM254.027 178.551L244.887 196H242.953L252.094 178.551H254.027ZM259.652 191.16C259.652 192.91 259.281 194.211 258.539 195.062C257.797 195.914 256.73 196.34 255.34 196.34C253.926 196.34 252.855 195.91 252.129 195.051C251.402 194.191 251.039 192.898 251.039 191.172C251.039 189.422 251.406 188.121 252.141 187.27C252.883 186.418 253.949 185.992 255.34 185.992C256.762 185.992 257.836 186.418 258.562 187.27C259.289 188.121 259.652 189.418 259.652 191.16ZM243.844 183.391C243.844 182.047 243.668 181.109 243.316 180.578C242.973 180.047 242.41 179.781 241.629 179.781C240.832 179.781 240.262 180.047 239.918 180.578C239.574 181.109 239.402 182.051 239.402 183.402C239.402 184.754 239.574 185.695 239.918 186.227C240.262 186.75 240.832 187.012 241.629 187.012C242.41 187.012 242.973 186.75 243.316 186.227C243.668 185.695 243.844 184.75 243.844 183.391ZM257.566 191.16C257.566 189.816 257.391 188.879 257.039 188.348C256.695 187.816 256.133 187.551 255.352 187.551C254.555 187.551 253.984 187.816 253.641 188.348C253.297 188.879 253.125 189.82 253.125 191.172C253.125 192.523 253.297 193.465 253.641 193.996C253.984 194.52 254.555 194.781 255.352 194.781C256.133 194.781 256.695 194.52 257.039 193.996C257.391 193.465 257.566 192.52 257.566 191.16ZM279.117 182.043C279.117 181.301 278.895 180.719 278.449 180.297C278.012 179.867 277.449 179.652 276.762 179.652C276.043 179.652 275.457 179.895 275.004 180.379C274.551 180.855 274.324 181.441 274.324 182.137C274.324 182.723 274.477 183.242 274.781 183.695C275.094 184.148 275.762 184.684 276.785 185.301C277.551 185.027 278.129 184.629 278.52 184.105C278.918 183.574 279.117 182.887 279.117 182.043ZM281.391 192.309L275.789 186.848C275.547 186.965 275.305 187.121 275.062 187.316C274.82 187.504 274.578 187.762 274.336 188.09C274.117 188.395 273.938 188.762 273.797 189.191C273.656 189.621 273.586 190.105 273.586 190.645C273.586 191.785 273.918 192.707 274.582 193.41C275.254 194.105 276.203 194.453 277.43 194.453C278.156 194.453 278.875 194.277 279.586 193.926C280.305 193.566 280.906 193.027 281.391 192.309ZM284.918 185.348V186.473C284.918 187.223 284.82 188.066 284.625 189.004C284.43 189.941 284.098 190.836 283.629 191.688L288.059 196H285.176L282.492 193.375C281.594 194.484 280.676 195.262 279.738 195.707C278.801 196.145 277.836 196.363 276.844 196.363C275.219 196.363 273.867 195.891 272.789 194.945C271.719 193.992 271.184 192.746 271.184 191.207C271.184 190.488 271.285 189.867 271.488 189.344C271.691 188.82 271.93 188.367 272.203 187.984C272.477 187.617 272.816 187.273 273.223 186.953C273.629 186.625 274.039 186.34 274.453 186.098C273.594 185.535 272.973 184.969 272.59 184.398C272.215 183.828 272.027 183.109 272.027 182.242C272.027 181.719 272.129 181.223 272.332 180.754C272.543 180.277 272.855 179.844 273.27 179.453C273.66 179.078 274.168 178.773 274.793 178.539C275.426 178.305 276.121 178.188 276.879 178.188C278.23 178.188 279.324 178.531 280.16 179.219C280.996 179.898 281.414 180.762 281.414 181.809C281.414 182.152 281.367 182.543 281.273 182.98C281.18 183.41 281.02 183.797 280.793 184.141C280.543 184.523 280.188 184.891 279.727 185.242C279.266 185.594 278.668 185.895 277.934 186.145L282.281 190.387C282.391 190.074 282.473 189.73 282.527 189.355C282.582 188.98 282.613 188.59 282.621 188.184C282.637 187.746 282.641 187.258 282.633 186.719C282.633 186.18 282.633 185.723 282.633 185.348H284.918ZM309.035 185.605L308.285 186.895L304.043 184.398L304.113 188.617H302.602L302.66 184.398L298.43 186.906L297.668 185.617L302.133 183.191L297.668 180.766L298.43 179.477L302.672 181.973L302.602 177.766H304.113L304.031 181.973L308.285 179.488L309.035 180.777L304.582 183.18L309.035 185.605ZM328.582 200.828H325.898C324.516 199.242 323.441 197.512 322.676 195.637C321.91 193.762 321.527 191.648 321.527 189.297C321.527 186.945 321.91 184.832 322.676 182.957C323.441 181.082 324.516 179.352 325.898 177.766H328.582V177.883C327.949 178.453 327.344 179.113 326.766 179.863C326.195 180.605 325.664 181.473 325.172 182.465C324.703 183.426 324.32 184.484 324.023 185.641C323.734 186.797 323.59 188.016 323.59 189.297C323.59 190.633 323.73 191.855 324.012 192.965C324.301 194.074 324.688 195.129 325.172 196.129C325.641 197.09 326.176 197.957 326.777 198.73C327.379 199.512 327.98 200.172 328.582 200.711V200.828ZM347.52 189.297C347.52 191.648 347.137 193.762 346.371 195.637C345.605 197.512 344.531 199.242 343.148 200.828H340.465V200.711C341.066 200.172 341.668 199.512 342.27 198.73C342.879 197.957 343.414 197.09 343.875 196.129C344.359 195.129 344.742 194.074 345.023 192.965C345.312 191.855 345.457 190.633 345.457 189.297C345.457 188.016 345.312 186.797 345.023 185.641C344.734 184.484 344.352 183.426 343.875 182.465C343.383 181.473 342.848 180.605 342.27 179.863C341.699 179.113 341.098 178.453 340.465 177.883V177.766H343.148C344.531 179.352 345.605 181.082 346.371 182.957C347.137 184.832 347.52 186.945 347.52 189.297Z" fill="black"/>
<path d="M0 36H413" stroke="black"/>
</svg>
