<svg width="413" height="180" viewBox="0 0 413 180" fill="none" xmlns="http://www.w3.org/2000/svg">
<path d="M1.44 6.368C2.112 6.24 2.848 6.144 3.648 6.08C4.464 6 5.272 5.96 6.072 5.96C6.904 5.96 7.736 6.032 8.568 6.176C9.416 6.304 10.176 6.576 10.848 6.992C11.52 7.392 12.064 7.96 12.48 8.696C12.912 9.416 13.128 10.36 13.128 11.528C13.128 12.584 12.944 13.48 12.576 14.216C12.208 14.936 11.72 15.528 11.112 15.992C10.504 16.456 9.808 16.792 9.024 17C8.256 17.208 7.456 17.312 6.624 17.312C6.544 17.312 6.416 17.312 6.24 17.312C6.064 17.312 5.88 17.312 5.688 17.312C5.496 17.296 5.304 17.28 5.112 17.264C4.936 17.248 4.808 17.232 4.728 17.216V23H1.44V6.368ZM6.336 8.792C6.016 8.792 5.712 8.808 5.424 8.84C5.136 8.856 4.904 8.88 4.728 8.912V14.36C4.792 14.376 4.888 14.392 5.016 14.408C5.144 14.424 5.28 14.44 5.424 14.456C5.568 14.456 5.704 14.456 5.832 14.456C5.976 14.456 6.08 14.456 6.144 14.456C6.576 14.456 7 14.416 7.416 14.336C7.848 14.256 8.232 14.112 8.568 13.904C8.904 13.68 9.168 13.376 9.36 12.992C9.568 12.608 9.672 12.104 9.672 11.48C9.672 10.952 9.576 10.52 9.384 10.184C9.192 9.832 8.936 9.552 8.616 9.344C8.312 9.136 7.96 8.992 7.56 8.912C7.16 8.832 6.752 8.792 6.336 8.792ZM13.8544 11H15.5104V8.744L18.6304 7.856V11H21.5584V13.64H18.6304V18.248C18.6304 19.08 18.7104 19.68 18.8704 20.048C19.0464 20.4 19.3664 20.576 19.8304 20.576C20.1504 20.576 20.4224 20.544 20.6464 20.48C20.8864 20.416 21.1504 20.32 21.4384 20.192L21.9904 22.592C21.5584 22.8 21.0544 22.976 20.4784 23.12C19.9024 23.264 19.3184 23.336 18.7264 23.336C17.6224 23.336 16.8064 23.056 16.2784 22.496C15.7664 21.92 15.5104 20.984 15.5104 19.688V13.64H13.8544V11ZM36.8599 18.488C36.8599 17.976 36.6679 17.56 36.2839 17.24C35.9159 16.92 35.4439 16.632 34.8679 16.376C34.3079 16.104 33.6919 15.832 33.0199 15.56C32.3639 15.272 31.7479 14.928 31.1719 14.528C30.6119 14.112 30.1399 13.6 29.7559 12.992C29.3879 12.384 29.2039 11.608 29.2039 10.664C29.2039 9.848 29.3399 9.144 29.6119 8.552C29.8839 7.944 30.2679 7.44 30.7639 7.04C31.2759 6.64 31.8759 6.344 32.5639 6.152C33.2519 5.96 34.0199 5.864 34.8679 5.864C35.8439 5.864 36.7639 5.952 37.6279 6.128C38.4919 6.288 39.2039 6.528 39.7639 6.848L38.7319 9.608C38.3799 9.384 37.8519 9.184 37.1479 9.008C36.4439 8.816 35.6839 8.72 34.8679 8.72C34.0999 8.72 33.5079 8.872 33.0919 9.176C32.6919 9.48 32.4919 9.888 32.4919 10.4C32.4919 10.88 32.6759 11.28 33.0439 11.6C33.4279 11.92 33.8999 12.216 34.4599 12.488C35.0359 12.76 35.6519 13.04 36.3079 13.328C36.9799 13.616 37.5959 13.968 38.1559 14.384C38.7319 14.784 39.2039 15.288 39.5719 15.896C39.9559 16.488 40.1479 17.232 40.1479 18.128C40.1479 19.024 39.9959 19.8 39.6919 20.456C39.4039 21.096 38.9879 21.632 38.4439 22.064C37.9159 22.496 37.2679 22.816 36.4999 23.024C35.7479 23.232 34.9159 23.336 34.0039 23.336C32.8039 23.336 31.7479 23.224 30.8359 23C29.9239 22.776 29.2519 22.552 28.8199 22.328L29.8759 19.52C30.0519 19.616 30.2759 19.72 30.5479 19.832C30.8359 19.944 31.1559 20.048 31.5079 20.144C31.8599 20.24 32.2279 20.32 32.6119 20.384C33.0119 20.448 33.4199 20.48 33.8359 20.48C34.8119 20.48 35.5559 20.32 36.0679 20C36.5959 19.664 36.8599 19.16 36.8599 18.488ZM42.1944 11.696C42.8344 11.408 43.5944 11.184 44.4744 11.024C45.3544 10.848 46.2744 10.76 47.2344 10.76C48.0664 10.76 48.7624 10.864 49.3224 11.072C49.8824 11.264 50.3224 11.544 50.6424 11.912C50.9784 12.28 51.2104 12.72 51.3384 13.232C51.4824 13.744 51.5544 14.32 51.5544 14.96C51.5544 15.664 51.5304 16.376 51.4824 17.096C51.4344 17.8 51.4024 18.496 51.3864 19.184C51.3864 19.872 51.4104 20.544 51.4584 21.2C51.5064 21.84 51.6264 22.448 51.8184 23.024H49.2744L48.7704 21.368H48.6504C48.3304 21.864 47.8824 22.296 47.3064 22.664C46.7464 23.016 46.0184 23.192 45.1224 23.192C44.5624 23.192 44.0584 23.112 43.6104 22.952C43.1624 22.776 42.7784 22.536 42.4584 22.232C42.1384 21.912 41.8904 21.544 41.7144 21.128C41.5384 20.696 41.4504 20.216 41.4504 19.688C41.4504 18.952 41.6104 18.336 41.9304 17.84C42.2664 17.328 42.7384 16.92 43.3464 16.616C43.9704 16.296 44.7064 16.08 45.5544 15.968C46.4184 15.84 47.3784 15.8 48.4344 15.848C48.5464 14.952 48.4824 14.312 48.2424 13.928C48.0024 13.528 47.4664 13.328 46.6344 13.328C46.0104 13.328 45.3464 13.392 44.6424 13.52C43.9544 13.648 43.3864 13.816 42.9384 14.024L42.1944 11.696ZM46.1544 20.624C46.7784 20.624 47.2744 20.488 47.6424 20.216C48.0104 19.928 48.2824 19.624 48.4584 19.304V17.744C47.9624 17.696 47.4824 17.688 47.0184 17.72C46.5704 17.752 46.1704 17.824 45.8184 17.936C45.4664 18.048 45.1864 18.208 44.9784 18.416C44.7704 18.624 44.6664 18.888 44.6664 19.208C44.6664 19.656 44.7944 20.008 45.0504 20.264C45.3224 20.504 45.6904 20.624 46.1544 20.624ZM61.5167 23V16.184C61.5167 15.208 61.3727 14.504 61.0847 14.072C60.8127 13.64 60.3407 13.424 59.6687 13.424C59.0767 13.424 58.5727 13.6 58.1567 13.952C57.7567 14.288 57.4687 14.712 57.2927 15.224V23H54.1727V11H56.6447L57.0047 12.584H57.1007C57.4687 12.072 57.9567 11.624 58.5647 11.24C59.1727 10.856 59.9567 10.664 60.9167 10.664C61.5087 10.664 62.0367 10.744 62.5007 10.904C62.9647 11.064 63.3567 11.328 63.6767 11.696C63.9967 12.064 64.2367 12.568 64.3967 13.208C64.5567 13.832 64.6367 14.608 64.6367 15.536V23H61.5167ZM72.2188 19.688C72.2188 19.368 72.0828 19.112 71.8108 18.92C71.5388 18.728 71.2028 18.552 70.8028 18.392C70.4028 18.232 69.9628 18.072 69.4828 17.912C69.0028 17.736 68.5628 17.504 68.1628 17.216C67.7628 16.912 67.4268 16.536 67.1548 16.088C66.8828 15.624 66.7468 15.032 66.7468 14.312C66.7468 13.128 67.0988 12.224 67.8028 11.6C68.5068 10.976 69.5228 10.664 70.8508 10.664C71.7628 10.664 72.5868 10.76 73.3228 10.952C74.0588 11.144 74.6348 11.36 75.0508 11.6L74.3548 13.856C73.9868 13.712 73.5228 13.56 72.9628 13.4C72.4028 13.24 71.8348 13.16 71.2588 13.16C70.3308 13.16 69.8668 13.52 69.8668 14.24C69.8668 14.528 70.0028 14.76 70.2748 14.936C70.5468 15.112 70.8828 15.28 71.2828 15.44C71.6828 15.584 72.1228 15.744 72.6028 15.92C73.0828 16.096 73.5228 16.328 73.9228 16.616C74.3228 16.888 74.6588 17.248 74.9308 17.696C75.2028 18.144 75.3388 18.72 75.3388 19.424C75.3388 20.64 74.9468 21.6 74.1628 22.304C73.3948 22.992 72.2348 23.336 70.6828 23.336C69.8348 23.336 69.0348 23.224 68.2828 23C67.5468 22.792 66.9468 22.544 66.4828 22.256L67.3468 19.928C67.7148 20.136 68.2028 20.344 68.8108 20.552C69.4188 20.744 70.0428 20.84 70.6828 20.84C71.1468 20.84 71.5148 20.752 71.7868 20.576C72.0748 20.4 72.2188 20.104 72.2188 19.688ZM94.8221 10.112C94.8221 10.528 94.7661 10.944 94.6541 11.36C94.5581 11.776 94.3901 12.16 94.1501 12.512C93.9101 12.848 93.5981 13.152 93.2141 13.424C92.8301 13.68 92.3661 13.872 91.8221 14V14.144C92.3021 14.224 92.7581 14.36 93.1901 14.552C93.6221 14.744 93.9981 15.008 94.3181 15.344C94.6381 15.68 94.8861 16.088 95.0621 16.568C95.2541 17.048 95.3501 17.616 95.3501 18.272C95.3501 19.136 95.1661 19.888 94.7981 20.528C94.4301 21.152 93.9341 21.664 93.3101 22.064C92.7021 22.464 92.0061 22.76 91.2221 22.952C90.4381 23.144 89.6301 23.24 88.7981 23.24C88.5261 23.24 88.1741 23.24 87.7421 23.24C87.3261 23.24 86.8701 23.224 86.3741 23.192C85.8941 23.176 85.3981 23.144 84.8861 23.096C84.3901 23.048 83.9341 22.976 83.5181 22.88V6.32C83.8221 6.272 84.1661 6.224 84.5501 6.176C84.9501 6.128 85.3741 6.088 85.8221 6.056C86.2701 6.024 86.7261 6 87.1901 5.984C87.6701 5.968 88.1421 5.96 88.6061 5.96C89.3901 5.96 90.1501 6.024 90.8861 6.152C91.6381 6.264 92.3021 6.472 92.8781 6.776C93.4701 7.08 93.9421 7.504 94.2941 8.048C94.6461 8.592 94.8221 9.28 94.8221 10.112ZM88.8221 20.528C89.2221 20.528 89.6061 20.48 89.9741 20.384C90.3581 20.288 90.6941 20.144 90.9821 19.952C91.2701 19.744 91.5021 19.488 91.6781 19.184C91.8541 18.88 91.9421 18.52 91.9421 18.104C91.9421 17.576 91.8381 17.16 91.6301 16.856C91.4221 16.552 91.1501 16.32 90.8141 16.16C90.4781 15.984 90.1021 15.872 89.6861 15.824C89.2701 15.776 88.8541 15.752 88.4381 15.752H86.6861V20.384C86.7661 20.416 86.8941 20.44 87.0701 20.456C87.2461 20.472 87.4301 20.488 87.6221 20.504C87.8301 20.504 88.0381 20.512 88.2461 20.528C88.4701 20.528 88.6621 20.528 88.8221 20.528ZM87.7421 13.256C87.9661 13.256 88.2221 13.248 88.5101 13.232C88.8141 13.216 89.0621 13.192 89.2541 13.16C89.8621 12.968 90.3821 12.68 90.8141 12.296C91.2621 11.912 91.4861 11.408 91.4861 10.784C91.4861 10.368 91.4061 10.024 91.2461 9.752C91.0861 9.48 90.8701 9.264 90.5981 9.104C90.3421 8.944 90.0461 8.832 89.7101 8.768C89.3741 8.704 89.0221 8.672 88.6541 8.672C88.2381 8.672 87.8541 8.68 87.5021 8.696C87.1501 8.712 86.8781 8.736 86.6861 8.768V13.256H87.7421ZM97.0498 17C97.0498 14.968 97.5458 13.408 98.5378 12.32C99.5298 11.216 100.922 10.664 102.714 10.664C103.674 10.664 104.506 10.816 105.21 11.12C105.914 11.424 106.498 11.856 106.962 12.416C107.426 12.96 107.77 13.624 107.994 14.408C108.234 15.192 108.354 16.056 108.354 17C108.354 19.032 107.858 20.6 106.866 21.704C105.89 22.792 104.506 23.336 102.714 23.336C101.754 23.336 100.922 23.184 100.218 22.88C99.5138 22.576 98.9218 22.152 98.4418 21.608C97.9778 21.048 97.6258 20.376 97.3858 19.592C97.1618 18.808 97.0498 17.944 97.0498 17ZM100.266 17C100.266 17.528 100.314 18.016 100.41 18.464C100.506 18.912 100.65 19.304 100.842 19.64C101.034 19.976 101.282 20.24 101.586 20.432C101.906 20.608 102.282 20.696 102.714 20.696C103.53 20.696 104.138 20.4 104.538 19.808C104.938 19.216 105.138 18.28 105.138 17C105.138 15.896 104.954 15.008 104.586 14.336C104.218 13.648 103.594 13.304 102.714 13.304C101.946 13.304 101.346 13.592 100.914 14.168C100.482 14.744 100.266 15.688 100.266 17ZM113.732 18.968C113.732 19.528 113.804 19.936 113.948 20.192C114.092 20.448 114.324 20.576 114.644 20.576C114.836 20.576 115.02 20.56 115.196 20.528C115.388 20.496 115.62 20.424 115.892 20.312L116.228 22.76C115.972 22.888 115.58 23.016 115.052 23.144C114.524 23.272 113.98 23.336 113.42 23.336C112.508 23.336 111.812 23.128 111.332 22.712C110.852 22.28 110.612 21.576 110.612 20.6V6.2H113.732V18.968ZM127.771 18.776C127.771 19.448 127.779 20.12 127.795 20.792C127.811 21.464 127.883 22.208 128.011 23.024H125.779L125.347 21.464H125.251C124.931 22.024 124.467 22.48 123.859 22.832C123.267 23.168 122.563 23.336 121.747 23.336C120.243 23.336 119.075 22.84 118.243 21.848C117.411 20.856 116.995 19.304 116.995 17.192C116.995 15.144 117.459 13.552 118.387 12.416C119.315 11.28 120.675 10.712 122.467 10.712C122.963 10.712 123.371 10.744 123.691 10.808C124.011 10.856 124.331 10.944 124.651 11.072V6.2H127.771V18.776ZM122.467 20.696C123.075 20.696 123.555 20.552 123.907 20.264C124.259 19.96 124.507 19.528 124.651 18.968V13.88C124.427 13.704 124.179 13.576 123.907 13.496C123.635 13.4 123.283 13.352 122.851 13.352C121.971 13.352 121.307 13.648 120.859 14.24C120.427 14.832 120.211 15.848 120.211 17.288C120.211 18.312 120.387 19.136 120.739 19.76C121.107 20.384 121.683 20.696 122.467 20.696Z" fill="black"/>
<path d="M9.72 75.28H4.56L3.288 79H0L6.048 62.08H8.472L14.52 79H11.064L9.72 75.28ZM5.4 72.64H9L7.752 68.896L7.248 66.256H7.128L6.624 68.92L5.4 72.64ZM15.8273 67.696C16.4673 67.408 17.2273 67.184 18.1073 67.024C18.9873 66.848 19.9073 66.76 20.8672 66.76C21.6993 66.76 22.3953 66.864 22.9553 67.072C23.5153 67.264 23.9553 67.544 24.2753 67.912C24.6113 68.28 24.8433 68.72 24.9713 69.232C25.1153 69.744 25.1873 70.32 25.1873 70.96C25.1873 71.664 25.1633 72.376 25.1153 73.096C25.0673 73.8 25.0353 74.496 25.0193 75.184C25.0193 75.872 25.0433 76.544 25.0913 77.2C25.1393 77.84 25.2593 78.448 25.4513 79.024H22.9073L22.4033 77.368H22.2833C21.9633 77.864 21.5153 78.296 20.9393 78.664C20.3793 79.016 19.6513 79.192 18.7553 79.192C18.1953 79.192 17.6913 79.112 17.2433 78.952C16.7953 78.776 16.4113 78.536 16.0913 78.232C15.7713 77.912 15.5233 77.544 15.3473 77.128C15.1713 76.696 15.0833 76.216 15.0833 75.688C15.0833 74.952 15.2433 74.336 15.5633 73.84C15.8993 73.328 16.3713 72.92 16.9793 72.616C17.6033 72.296 18.3393 72.08 19.1873 71.968C20.0513 71.84 21.0113 71.8 22.0673 71.848C22.1793 70.952 22.1153 70.312 21.8753 69.928C21.6353 69.528 21.0993 69.328 20.2673 69.328C19.6433 69.328 18.9793 69.392 18.2753 69.52C17.5873 69.648 17.0193 69.816 16.5713 70.024L15.8273 67.696ZM19.7873 76.624C20.4113 76.624 20.9073 76.488 21.2753 76.216C21.6433 75.928 21.9153 75.624 22.0913 75.304V73.744C21.5953 73.696 21.1153 73.688 20.6513 73.72C20.2033 73.752 19.8033 73.824 19.4513 73.936C19.0993 74.048 18.8193 74.208 18.6113 74.416C18.4033 74.624 18.2993 74.888 18.2993 75.208C18.2993 75.656 18.4273 76.008 18.6833 76.264C18.9553 76.504 19.3233 76.624 19.7873 76.624ZM45.2518 66.112C45.2518 66.528 45.1958 66.944 45.0838 67.36C44.9878 67.776 44.8198 68.16 44.5798 68.512C44.3398 68.848 44.0278 69.152 43.6438 69.424C43.2598 69.68 42.7958 69.872 42.2518 70V70.144C42.7318 70.224 43.1878 70.36 43.6198 70.552C44.0518 70.744 44.4278 71.008 44.7478 71.344C45.0678 71.68 45.3158 72.088 45.4918 72.568C45.6838 73.048 45.7798 73.616 45.7798 74.272C45.7798 75.136 45.5958 75.888 45.2278 76.528C44.8598 77.152 44.3638 77.664 43.7398 78.064C43.1318 78.464 42.4358 78.76 41.6518 78.952C40.8678 79.144 40.0598 79.24 39.2278 79.24C38.9558 79.24 38.6038 79.24 38.1718 79.24C37.7558 79.24 37.2998 79.224 36.8038 79.192C36.3238 79.176 35.8278 79.144 35.3158 79.096C34.8198 79.048 34.3638 78.976 33.9478 78.88V62.32C34.2518 62.272 34.5958 62.224 34.9798 62.176C35.3798 62.128 35.8038 62.088 36.2518 62.056C36.6998 62.024 37.1558 62 37.6198 61.984C38.0998 61.968 38.5718 61.96 39.0358 61.96C39.8198 61.96 40.5798 62.024 41.3158 62.152C42.0678 62.264 42.7318 62.472 43.3078 62.776C43.8998 63.08 44.3718 63.504 44.7238 64.048C45.0758 64.592 45.2518 65.28 45.2518 66.112ZM39.2518 76.528C39.6518 76.528 40.0358 76.48 40.4038 76.384C40.7878 76.288 41.1238 76.144 41.4118 75.952C41.6998 75.744 41.9318 75.488 42.1078 75.184C42.2838 74.88 42.3718 74.52 42.3718 74.104C42.3718 73.576 42.2678 73.16 42.0598 72.856C41.8518 72.552 41.5798 72.32 41.2438 72.16C40.9078 71.984 40.5318 71.872 40.1158 71.824C39.6998 71.776 39.2838 71.752 38.8678 71.752H37.1158V76.384C37.1958 76.416 37.3238 76.44 37.4998 76.456C37.6758 76.472 37.8598 76.488 38.0518 76.504C38.2598 76.504 38.4678 76.512 38.6758 76.528C38.8998 76.528 39.0918 76.528 39.2518 76.528ZM38.1718 69.256C38.3958 69.256 38.6518 69.248 38.9398 69.232C39.2438 69.216 39.4918 69.192 39.6838 69.16C40.2918 68.968 40.8118 68.68 41.2438 68.296C41.6918 67.912 41.9158 67.408 41.9158 66.784C41.9158 66.368 41.8358 66.024 41.6758 65.752C41.5158 65.48 41.2998 65.264 41.0278 65.104C40.7718 64.944 40.4758 64.832 40.1398 64.768C39.8038 64.704 39.4518 64.672 39.0838 64.672C38.6678 64.672 38.2838 64.68 37.9318 64.696C37.5798 64.712 37.3078 64.736 37.1158 64.768V69.256H38.1718ZM48.0555 62.2H51.1755V67.96H51.2715C51.6075 67.576 52.0395 67.272 52.5675 67.048C53.0955 66.824 53.6795 66.712 54.3195 66.712C55.7595 66.712 56.8555 67.208 57.6075 68.2C58.3755 69.176 58.7595 70.672 58.7595 72.688C58.7595 74.848 58.2235 76.488 57.1515 77.608C56.0955 78.728 54.6395 79.288 52.7835 79.288C51.7595 79.288 50.8235 79.2 49.9755 79.024C49.1275 78.864 48.4875 78.68 48.0555 78.472V62.2ZM53.4075 69.352C52.8315 69.352 52.3595 69.504 51.9915 69.808C51.6395 70.096 51.3675 70.52 51.1755 71.08V76.312C51.4315 76.44 51.7035 76.528 51.9915 76.576C52.2955 76.624 52.6155 76.648 52.9515 76.648C53.7995 76.648 54.4395 76.344 54.8715 75.736C55.3195 75.112 55.5435 74.128 55.5435 72.784C55.5435 70.496 54.8315 69.352 53.4075 69.352ZM78.1363 78.304C77.6243 78.672 76.9683 78.936 76.1683 79.096C75.3843 79.256 74.5763 79.336 73.7443 79.336C72.7363 79.336 71.7763 79.184 70.8643 78.88C69.9683 78.56 69.1763 78.056 68.4883 77.368C67.8003 76.664 67.2483 75.76 66.8323 74.656C66.4323 73.536 66.2323 72.184 66.2323 70.6C66.2323 68.952 66.4563 67.576 66.9043 66.472C67.3683 65.352 67.9603 64.456 68.6803 63.784C69.4163 63.096 70.2323 62.608 71.1283 62.32C72.0243 62.016 72.9203 61.864 73.8163 61.864C74.7763 61.864 75.5843 61.928 76.2403 62.056C76.9123 62.184 77.4643 62.336 77.8963 62.512L77.2483 65.296C76.8803 65.12 76.4403 64.992 75.9283 64.912C75.4323 64.832 74.8243 64.792 74.1043 64.792C72.7763 64.792 71.7043 65.264 70.8883 66.208C70.0883 67.152 69.6883 68.616 69.6883 70.6C69.6883 71.464 69.7843 72.256 69.9763 72.976C70.1683 73.68 70.4563 74.288 70.8403 74.8C71.2403 75.296 71.7283 75.688 72.3043 75.976C72.8963 76.248 73.5763 76.384 74.3443 76.384C75.0643 76.384 75.6723 76.312 76.1683 76.168C76.6643 76.024 77.0963 75.84 77.4643 75.616L78.1363 78.304ZM87.7234 78.256C87.2434 78.608 86.6594 78.872 85.9714 79.048C85.2994 79.24 84.6034 79.336 83.8834 79.336C82.9234 79.336 82.1074 79.184 81.4354 78.88C80.7794 78.576 80.2434 78.152 79.8274 77.608C79.4114 77.048 79.1074 76.376 78.9154 75.592C78.7394 74.808 78.6514 73.944 78.6514 73C78.6514 70.968 79.1074 69.408 80.0194 68.32C80.9314 67.216 82.2594 66.664 84.0034 66.664C84.8834 66.664 85.5874 66.736 86.1154 66.88C86.6594 67.024 87.1474 67.208 87.5794 67.432L86.8354 69.976C86.4674 69.8 86.0994 69.664 85.7314 69.568C85.3794 69.472 84.9714 69.424 84.5074 69.424C83.6434 69.424 82.9874 69.712 82.5394 70.288C82.0914 70.848 81.8674 71.752 81.8674 73C81.8674 73.512 81.9234 73.984 82.0354 74.416C82.1474 74.848 82.3154 75.224 82.5394 75.544C82.7634 75.864 83.0514 76.12 83.4034 76.312C83.7714 76.488 84.1954 76.576 84.6754 76.576C85.2034 76.576 85.6514 76.512 86.0194 76.384C86.3874 76.24 86.7154 76.072 87.0034 75.88L87.7234 78.256ZM95.1666 62.2C95.5026 62.152 95.8786 62.112 96.2946 62.08C96.7266 62.048 97.1666 62.024 97.6146 62.008C98.0626 61.992 98.4946 61.984 98.9106 61.984C99.3426 61.968 99.7266 61.96 100.063 61.96C101.551 61.96 102.823 62.168 103.879 62.584C104.935 63 105.791 63.584 106.447 64.336C107.103 65.088 107.583 65.984 107.887 67.024C108.191 68.064 108.343 69.208 108.343 70.456C108.343 71.592 108.199 72.688 107.911 73.744C107.623 74.8 107.143 75.736 106.471 76.552C105.799 77.368 104.911 78.024 103.807 78.52C102.719 79.016 101.367 79.264 99.7506 79.264C99.4946 79.264 99.1506 79.256 98.7186 79.24C98.3026 79.224 97.8626 79.2 97.3986 79.168C96.9506 79.152 96.5186 79.128 96.1026 79.096C95.6866 79.08 95.3746 79.056 95.1666 79.024V62.2ZM100.327 64.888C99.9746 64.888 99.6146 64.896 99.2466 64.912C98.8946 64.928 98.6306 64.952 98.4546 64.984V76.24C98.5186 76.256 98.6226 76.272 98.7666 76.288C98.9266 76.288 99.0946 76.296 99.2706 76.312C99.4466 76.312 99.6146 76.32 99.7746 76.336C99.9346 76.336 100.055 76.336 100.135 76.336C101.063 76.336 101.831 76.176 102.439 75.856C103.063 75.52 103.551 75.08 103.903 74.536C104.271 73.992 104.527 73.368 104.671 72.664C104.815 71.944 104.887 71.208 104.887 70.456C104.887 69.8 104.823 69.144 104.695 68.488C104.567 67.816 104.327 67.216 103.975 66.688C103.639 66.16 103.175 65.728 102.583 65.392C101.991 65.056 101.239 64.888 100.327 64.888ZM120.834 74.776C120.834 75.448 120.842 76.12 120.858 76.792C120.874 77.464 120.946 78.208 121.074 79.024H118.842L118.41 77.464H118.314C117.994 78.024 117.53 78.48 116.922 78.832C116.33 79.168 115.626 79.336 114.81 79.336C113.306 79.336 112.138 78.84 111.306 77.848C110.474 76.856 110.058 75.304 110.058 73.192C110.058 71.144 110.522 69.552 111.45 68.416C112.378 67.28 113.738 66.712 115.53 66.712C116.026 66.712 116.434 66.744 116.754 66.808C117.074 66.856 117.394 66.944 117.714 67.072V62.2H120.834V74.776ZM115.53 76.696C116.138 76.696 116.618 76.552 116.97 76.264C117.322 75.96 117.57 75.528 117.714 74.968V69.88C117.49 69.704 117.242 69.576 116.97 69.496C116.698 69.4 116.346 69.352 115.914 69.352C115.034 69.352 114.37 69.648 113.922 70.24C113.49 70.832 113.274 71.848 113.274 73.288C113.274 74.312 113.45 75.136 113.802 75.76C114.17 76.384 114.746 76.696 115.53 76.696ZM129.713 62.2H139.673V65.128H133.001V69.04H139.073V71.968H133.001V76.072H139.793V79H129.713V62.2ZM151.781 77.968C151.301 78.352 150.645 78.68 149.813 78.952C148.997 79.208 148.125 79.336 147.197 79.336C145.261 79.336 143.845 78.776 142.949 77.656C142.053 76.52 141.604 74.968 141.604 73C141.604 70.888 142.109 69.304 143.117 68.248C144.125 67.192 145.541 66.664 147.365 66.664C147.973 66.664 148.565 66.744 149.141 66.904C149.717 67.064 150.229 67.328 150.677 67.696C151.125 68.064 151.485 68.56 151.757 69.184C152.029 69.808 152.165 70.584 152.165 71.512C152.165 71.848 152.141 72.208 152.093 72.592C152.061 72.976 152.005 73.376 151.925 73.792H144.725C144.773 74.8 145.029 75.56 145.493 76.072C145.973 76.584 146.741 76.84 147.797 76.84C148.453 76.84 149.037 76.744 149.549 76.552C150.077 76.344 150.477 76.136 150.749 75.928L151.781 77.968ZM147.317 69.16C146.501 69.16 145.893 69.408 145.493 69.904C145.109 70.384 144.877 71.032 144.797 71.848H149.261C149.325 70.984 149.189 70.32 148.853 69.856C148.533 69.392 148.021 69.16 147.317 69.16ZM160.51 62.2H170.47V65.128H163.798V69.28H169.942V72.208H163.798V79H160.51V62.2ZM171.522 67H173.178V66.328C173.178 64.808 173.498 63.712 174.138 63.04C174.778 62.352 175.706 62.008 176.922 62.008C178.202 62.008 179.266 62.16 180.114 62.464L179.514 64.96C179.146 64.832 178.818 64.752 178.53 64.72C178.258 64.672 177.97 64.648 177.666 64.648C177.346 64.648 177.09 64.696 176.898 64.792C176.722 64.888 176.586 65.04 176.49 65.248C176.41 65.44 176.354 65.688 176.322 65.992C176.306 66.28 176.298 66.616 176.298 67H178.938V69.64H176.298V79H173.178V69.64H171.522V67ZM192.102 70.24H198.366V77.728C197.694 78.288 196.886 78.696 195.942 78.952C195.014 79.208 194.094 79.336 193.182 79.336C192.11 79.336 191.11 79.168 190.182 78.832C189.27 78.496 188.478 77.976 187.806 77.272C187.134 76.552 186.606 75.64 186.222 74.536C185.838 73.432 185.646 72.12 185.646 70.6C185.646 69.016 185.87 67.672 186.318 66.568C186.782 65.448 187.382 64.544 188.118 63.856C188.87 63.152 189.71 62.648 190.638 62.344C191.566 62.024 192.51 61.864 193.47 61.864C194.43 61.864 195.27 61.936 195.99 62.08C196.726 62.224 197.31 62.376 197.742 62.536L197.07 65.296C196.67 65.136 196.222 65.016 195.726 64.936C195.23 64.84 194.598 64.792 193.83 64.792C193.142 64.792 192.51 64.896 191.934 65.104C191.358 65.312 190.854 65.656 190.422 66.136C190.006 66.6 189.678 67.2 189.438 67.936C189.214 68.672 189.102 69.568 189.102 70.624C189.102 71.632 189.214 72.504 189.438 73.24C189.662 73.96 189.974 74.56 190.374 75.04C190.774 75.504 191.238 75.848 191.766 76.072C192.31 76.296 192.886 76.408 193.494 76.408C193.91 76.408 194.318 76.36 194.718 76.264C195.118 76.152 195.454 75.992 195.726 75.784V72.616L192.102 72.232V70.24ZM210.879 79C210.879 80.744 210.407 82.024 209.463 82.84C208.519 83.672 207.199 84.088 205.503 84.088C204.351 84.088 203.439 84.008 202.767 83.848C202.111 83.688 201.615 83.52 201.279 83.344L201.927 80.872C202.295 81.016 202.719 81.16 203.199 81.304C203.695 81.448 204.303 81.52 205.023 81.52C206.111 81.52 206.847 81.28 207.231 80.8C207.631 80.336 207.831 79.68 207.831 78.832V78.064H207.735C207.175 78.816 206.183 79.192 204.759 79.192C203.207 79.192 202.047 78.712 201.279 77.752C200.527 76.792 200.151 75.288 200.151 73.24C200.151 71.096 200.663 69.472 201.687 68.368C202.711 67.264 204.199 66.712 206.151 66.712C207.175 66.712 208.087 66.784 208.887 66.928C209.703 67.072 210.367 67.24 210.879 67.432V79ZM205.599 76.696C206.207 76.696 206.671 76.56 206.991 76.288C207.327 76.016 207.583 75.608 207.759 75.064V69.664C207.263 69.456 206.647 69.352 205.911 69.352C205.111 69.352 204.487 69.656 204.039 70.264C203.591 70.856 203.367 71.808 203.367 73.12C203.367 74.288 203.559 75.176 203.943 75.784C204.327 76.392 204.879 76.696 205.599 76.696ZM229.169 71.968H223.025V79H219.737V62.2H223.025V69.04H229.169V62.2H232.457V79H229.169V71.968ZM242.642 79V72.184C242.642 71.208 242.506 70.504 242.234 70.072C241.962 69.64 241.466 69.424 240.746 69.424C240.218 69.424 239.73 69.608 239.282 69.976C238.85 70.328 238.562 70.784 238.418 71.344V79H235.298V62.2H238.418V68.344H238.514C238.898 67.832 239.37 67.424 239.93 67.12C240.49 66.816 241.202 66.664 242.066 66.664C242.674 66.664 243.21 66.744 243.674 66.904C244.138 67.064 244.522 67.328 244.826 67.696C245.146 68.064 245.378 68.568 245.522 69.208C245.682 69.832 245.762 70.608 245.762 71.536V79H242.642ZM254.854 62.2H258.142V79H254.854V62.2ZM261.578 67H264.698V79H261.578V67ZM261.122 63.616C261.122 63.152 261.29 62.76 261.626 62.44C261.978 62.104 262.458 61.936 263.066 61.936C263.674 61.936 264.162 62.104 264.53 62.44C264.914 62.76 265.106 63.152 265.106 63.616C265.106 64.08 264.914 64.472 264.53 64.792C264.162 65.096 263.674 65.248 263.066 65.248C262.458 65.248 261.978 65.096 261.626 64.792C261.29 64.472 261.122 64.08 261.122 63.616ZM275.582 62.2H278.87V74.488C278.87 75.128 278.798 75.736 278.654 76.312C278.51 76.888 278.27 77.4 277.934 77.848C277.614 78.28 277.198 78.632 276.686 78.904C276.174 79.16 275.55 79.288 274.814 79.288C274.35 79.288 273.846 79.24 273.302 79.144C272.758 79.048 272.285 78.912 271.885 78.736L272.606 76.048C273.021 76.256 273.493 76.36 274.021 76.36C274.694 76.36 275.118 76.112 275.294 75.616C275.486 75.12 275.582 74.464 275.582 73.648V62.2ZM282.109 67H285.229V79.504C285.229 80.96 284.941 82.072 284.365 82.84C283.789 83.608 282.869 83.992 281.605 83.992C281.125 83.992 280.613 83.936 280.069 83.824V81.208C280.133 81.208 280.189 81.208 280.237 81.208C280.285 81.224 280.333 81.232 280.381 81.232C281.101 81.232 281.565 81 281.773 80.536C281.997 80.072 282.109 79.432 282.109 78.616V67ZM281.701 63.616C281.701 63.152 281.869 62.76 282.205 62.44C282.557 62.104 283.037 61.936 283.645 61.936C284.253 61.936 284.741 62.104 285.109 62.44C285.493 62.76 285.685 63.152 285.685 63.616C285.685 64.08 285.493 64.472 285.109 64.792C284.741 65.096 284.253 65.248 283.645 65.248C283.037 65.248 282.557 65.096 282.205 64.792C281.869 64.472 281.701 64.08 281.701 63.616ZM298.537 71.824H297.673V79H294.385V62.2H297.673V69.64L298.441 69.304L303.073 62.2H306.817L301.921 69.256L300.625 70.168L301.969 71.104L307.561 79H303.505L298.537 71.824ZM313.156 74.032H312.316V79H309.196V62.2H312.316V72.112L313.036 71.776L315.772 67H319.204L316.324 71.56L315.1 72.472L316.42 73.408L319.66 79H316.084L313.156 74.032ZM337.033 79H326.401V62.2H329.689V76.072H337.033V79ZM341.873 74.968C341.873 75.528 341.945 75.936 342.089 76.192C342.233 76.448 342.465 76.576 342.785 76.576C342.977 76.576 343.161 76.56 343.337 76.528C343.529 76.496 343.761 76.424 344.033 76.312L344.369 78.76C344.113 78.888 343.721 79.016 343.193 79.144C342.665 79.272 342.121 79.336 341.561 79.336C340.649 79.336 339.953 79.128 339.473 78.712C338.993 78.28 338.753 77.576 338.753 76.6V62.2H341.873V74.968ZM364.886 70.288L365.246 66.952H365.102L364.07 69.64L360.494 75.904H359.438L355.67 69.616L354.614 66.952H354.494L354.974 70.264V79H351.854V62.2H354.854L359.342 69.88L360.134 71.8H360.23L360.95 69.832L365.198 62.2H368.174V79H364.886V70.288ZM377.793 79V72.472C377.793 71.368 377.689 70.584 377.481 70.12C377.273 69.656 376.841 69.424 376.185 69.424C375.641 69.424 375.201 69.576 374.865 69.88C374.529 70.168 374.273 70.544 374.097 71.008V79H370.977V67H373.401L373.761 68.584H373.857C374.225 68.072 374.689 67.624 375.249 67.24C375.825 66.856 376.561 66.664 377.457 66.664C378.225 66.664 378.849 66.824 379.329 67.144C379.825 67.448 380.209 67.968 380.481 68.704C380.849 68.08 381.321 67.584 381.897 67.216C382.473 66.848 383.169 66.664 383.985 66.664C384.657 66.664 385.225 66.744 385.689 66.904C386.169 67.064 386.553 67.344 386.841 67.744C387.145 68.128 387.369 68.648 387.513 69.304C387.657 69.96 387.729 70.792 387.729 71.8V79H384.609V72.256C384.609 71.312 384.505 70.608 384.297 70.144C384.105 69.664 383.665 69.424 382.977 69.424C382.417 69.424 381.969 69.576 381.633 69.88C381.313 70.184 381.073 70.6 380.913 71.128V79H377.793ZM5.616 101.24L4.296 98.6H4.176L4.56 101.24V110H1.44V93.08H3.84L10.2 102.032L11.472 104.6H11.592L11.208 102.032V93.2H14.328V110.12H11.928L5.616 101.24ZM24.4854 110V103.184C24.4854 102.208 24.3414 101.504 24.0534 101.072C23.7814 100.64 23.3094 100.424 22.6374 100.424C22.0454 100.424 21.5414 100.6 21.1254 100.952C20.7254 101.288 20.4374 101.712 20.2614 102.224V110H17.1414V98H19.6134L19.9734 99.584H20.0694C20.4374 99.072 20.9254 98.624 21.5334 98.24C22.1414 97.856 22.9254 97.664 23.8854 97.664C24.4774 97.664 25.0054 97.744 25.4694 97.904C25.9334 98.064 26.3254 98.328 26.6454 98.696C26.9654 99.064 27.2054 99.568 27.3654 100.208C27.5254 100.832 27.6054 101.608 27.6054 102.536V110H24.4854ZM35.5292 101.6C35.5292 98.8 36.1452 96.648 37.3772 95.144C38.6092 93.624 40.3692 92.864 42.6572 92.864C43.8572 92.864 44.9052 93.072 45.8012 93.488C46.6972 93.904 47.4412 94.496 48.0332 95.264C48.6252 96.032 49.0652 96.952 49.3532 98.024C49.6412 99.096 49.7852 100.288 49.7852 101.6C49.7852 104.4 49.1612 106.56 47.9132 108.08C46.6812 109.584 44.9292 110.336 42.6572 110.336C41.4412 110.336 40.3852 110.128 39.4892 109.712C38.5932 109.296 37.8492 108.704 37.2572 107.936C36.6812 107.168 36.2492 106.248 35.9612 105.176C35.6732 104.104 35.5292 102.912 35.5292 101.6ZM38.9852 101.6C38.9852 102.448 39.0572 103.232 39.2012 103.952C39.3452 104.656 39.5612 105.264 39.8492 105.776C40.1532 106.288 40.5372 106.688 41.0012 106.976C41.4652 107.264 42.0172 107.408 42.6572 107.408C43.8252 107.408 44.7292 106.952 45.3692 106.04C46.0092 105.128 46.3292 103.648 46.3292 101.6C46.3292 100.784 46.2572 100.024 46.1132 99.32C45.9852 98.616 45.7772 98 45.4892 97.472C45.2012 96.944 44.8252 96.536 44.3612 96.248C43.8972 95.944 43.3292 95.792 42.6572 95.792C41.4892 95.792 40.5852 96.264 39.9452 97.208C39.3052 98.136 38.9852 99.6 38.9852 101.6ZM51.4873 104C51.4873 101.968 51.9833 100.408 52.9753 99.32C53.9673 98.216 55.3593 97.664 57.1513 97.664C58.1113 97.664 58.9433 97.816 59.6473 98.12C60.3513 98.424 60.9353 98.856 61.3993 99.416C61.8633 99.96 62.2073 100.624 62.4313 101.408C62.6713 102.192 62.7913 103.056 62.7913 104C62.7913 106.032 62.2953 107.6 61.3033 108.704C60.3273 109.792 58.9433 110.336 57.1513 110.336C56.1913 110.336 55.3593 110.184 54.6553 109.88C53.9513 109.576 53.3593 109.152 52.8793 108.608C52.4153 108.048 52.0633 107.376 51.8233 106.592C51.5993 105.808 51.4873 104.944 51.4873 104ZM54.7033 104C54.7033 104.528 54.7513 105.016 54.8473 105.464C54.9433 105.912 55.0873 106.304 55.2793 106.64C55.4713 106.976 55.7193 107.24 56.0233 107.432C56.3433 107.608 56.7193 107.696 57.1513 107.696C57.9673 107.696 58.5753 107.4 58.9753 106.808C59.3753 106.216 59.5753 105.28 59.5753 104C59.5753 102.896 59.3913 102.008 59.0233 101.336C58.6553 100.648 58.0313 100.304 57.1513 100.304C56.3833 100.304 55.7833 100.592 55.3513 101.168C54.9193 101.744 54.7033 102.688 54.7033 104ZM71.0963 93.368C71.7683 93.24 72.5043 93.144 73.3043 93.08C74.1203 93 74.9283 92.96 75.7283 92.96C76.5603 92.96 77.3923 93.032 78.2243 93.176C79.0723 93.304 79.8323 93.576 80.5043 93.992C81.1763 94.392 81.7203 94.96 82.1363 95.696C82.5683 96.416 82.7843 97.36 82.7843 98.528C82.7843 99.584 82.6003 100.48 82.2323 101.216C81.8643 101.936 81.3763 102.528 80.7683 102.992C80.1603 103.456 79.4643 103.792 78.6803 104C77.9123 104.208 77.1123 104.312 76.2803 104.312C76.2003 104.312 76.0723 104.312 75.8963 104.312C75.7203 104.312 75.5363 104.312 75.3443 104.312C75.1523 104.296 74.9603 104.28 74.7683 104.264C74.5923 104.248 74.4643 104.232 74.3843 104.216V110H71.0963V93.368ZM75.9922 95.792C75.6723 95.792 75.3683 95.808 75.0803 95.84C74.7923 95.856 74.5603 95.88 74.3843 95.912V101.36C74.4483 101.376 74.5443 101.392 74.6723 101.408C74.8003 101.424 74.9363 101.44 75.0803 101.456C75.2243 101.456 75.3603 101.456 75.4883 101.456C75.6323 101.456 75.7363 101.456 75.8003 101.456C76.2323 101.456 76.6563 101.416 77.0723 101.336C77.5043 101.256 77.8883 101.112 78.2243 100.904C78.5603 100.68 78.8243 100.376 79.0163 99.992C79.2243 99.608 79.3283 99.104 79.3283 98.48C79.3283 97.952 79.2323 97.52 79.0403 97.184C78.8483 96.832 78.5923 96.552 78.2723 96.344C77.9683 96.136 77.6163 95.992 77.2163 95.912C76.8163 95.832 76.4083 95.792 75.9922 95.792ZM84.0555 98H86.3355L86.6955 99.44H86.7915C87.2075 98.832 87.6955 98.384 88.2555 98.096C88.8315 97.808 89.5275 97.664 90.3435 97.664C91.8475 97.664 92.9755 98.144 93.7275 99.104C94.4795 100.048 94.8555 101.576 94.8555 103.688C94.8555 104.712 94.7355 105.64 94.4955 106.472C94.2555 107.288 93.8955 107.984 93.4155 108.56C92.9515 109.136 92.3755 109.576 91.6875 109.88C91.0155 110.184 90.2395 110.336 89.3595 110.336C88.8635 110.336 88.4555 110.296 88.1355 110.216C87.8155 110.152 87.4955 110.04 87.1755 109.88V114.8H84.0555V98ZM89.4075 100.304C88.7995 100.304 88.3195 100.456 87.9675 100.76C87.6315 101.064 87.3675 101.52 87.1755 102.128V107.12C87.3995 107.296 87.6395 107.44 87.8955 107.552C88.1675 107.648 88.5195 107.696 88.9515 107.696C89.8475 107.696 90.5195 107.384 90.9675 106.76C91.4155 106.12 91.6395 105.072 91.6395 103.616C91.6395 102.56 91.4635 101.744 91.1115 101.168C90.7595 100.592 90.1915 100.304 89.4075 100.304ZM118.262 114.848C117.494 115.056 116.718 115.16 115.934 115.16C115.118 115.16 114.326 115.072 113.558 114.896C112.79 114.736 112.046 114.56 111.326 114.368C110.606 114.176 109.91 113.992 109.238 113.816C108.566 113.656 107.934 113.576 107.342 113.576C106.958 113.576 106.59 113.624 106.238 113.72V110.888C106.686 110.792 107.15 110.744 107.63 110.744C108.302 110.744 108.966 110.824 109.622 110.984C110.294 111.144 110.974 111.312 111.662 111.488C112.35 111.68 113.054 111.856 113.774 112.016C114.494 112.176 115.254 112.256 116.054 112.256C116.406 112.256 116.766 112.232 117.134 112.184C117.502 112.152 117.878 112.088 118.262 111.992V114.848ZM102.326 101.6C102.326 98.8 102.942 96.648 104.174 95.144C105.406 93.624 107.166 92.864 109.454 92.864C110.654 92.864 111.702 93.072 112.598 93.488C113.494 93.904 114.238 94.496 114.83 95.264C115.422 96.032 115.862 96.952 116.15 98.024C116.438 99.096 116.582 100.288 116.582 101.6C116.582 104.4 115.958 106.56 114.71 108.08C113.478 109.584 111.726 110.336 109.454 110.336C108.238 110.336 107.182 110.128 106.286 109.712C105.39 109.296 104.646 108.704 104.054 107.936C103.478 107.168 103.046 106.248 102.758 105.176C102.47 104.104 102.326 102.912 102.326 101.6ZM105.782 101.6C105.782 102.448 105.854 103.232 105.998 103.952C106.142 104.656 106.358 105.264 106.646 105.776C106.95 106.288 107.334 106.688 107.798 106.976C108.262 107.264 108.814 107.408 109.454 107.408C110.622 107.408 111.526 106.952 112.166 106.04C112.806 105.128 113.126 103.648 113.126 101.6C113.126 100.784 113.054 100.024 112.91 99.32C112.782 98.616 112.574 98 112.286 97.472C111.998 96.944 111.622 96.536 111.158 96.248C110.694 95.944 110.126 95.792 109.454 95.792C108.286 95.792 107.382 96.264 106.742 97.208C106.102 98.136 105.782 99.6 105.782 101.6ZM129.012 114.8H125.892V108.968H125.796C125.524 109.384 125.156 109.72 124.692 109.976C124.228 110.216 123.628 110.336 122.892 110.336C121.404 110.336 120.26 109.832 119.46 108.824C118.676 107.816 118.284 106.288 118.284 104.24C118.284 102.096 118.82 100.472 119.892 99.368C120.98 98.264 122.532 97.712 124.548 97.712C124.98 97.712 125.412 97.736 125.844 97.784C126.276 97.816 126.684 97.872 127.068 97.952C127.468 98.016 127.836 98.096 128.172 98.192C128.508 98.272 128.788 98.352 129.012 98.432V114.8ZM123.732 107.696C124.34 107.696 124.804 107.56 125.124 107.288C125.46 107.016 125.716 106.608 125.892 106.064V100.664C125.652 100.536 125.38 100.456 125.076 100.424C124.772 100.376 124.428 100.352 124.044 100.352C123.196 100.352 122.556 100.672 122.124 101.312C121.708 101.952 121.5 102.888 121.5 104.12C121.5 105.288 121.692 106.176 122.076 106.784C122.46 107.392 123.012 107.696 123.732 107.696ZM137.87 93.368C138.238 93.304 138.63 93.248 139.046 93.2C139.478 93.136 139.902 93.088 140.318 93.056C140.75 93.024 141.166 93 141.566 92.984C141.966 92.968 142.334 92.96 142.67 92.96C143.454 92.96 144.222 93.032 144.974 93.176C145.742 93.32 146.422 93.568 147.014 93.92C147.622 94.272 148.102 94.76 148.454 95.384C148.822 95.992 149.006 96.76 149.006 97.688C149.006 99.064 148.686 100.184 148.046 101.048C147.406 101.912 146.55 102.512 145.478 102.848L146.654 103.592L150.494 110H146.702L142.886 103.424L141.158 103.112V110H137.87V93.368ZM142.91 95.888C142.574 95.888 142.238 95.896 141.902 95.912C141.582 95.928 141.334 95.96 141.158 96.008V100.88H142.55C143.462 100.88 144.19 100.672 144.734 100.256C145.278 99.84 145.55 99.152 145.55 98.192C145.55 97.472 145.326 96.912 144.878 96.512C144.43 96.096 143.774 95.888 142.91 95.888ZM158.859 100.928C158.363 100.752 157.915 100.664 157.515 100.664C156.955 100.664 156.483 100.816 156.099 101.12C155.731 101.408 155.483 101.784 155.355 102.248V110H152.235V98H154.659L155.019 99.584H155.115C155.387 98.992 155.755 98.536 156.219 98.216C156.683 97.896 157.227 97.736 157.851 97.736C158.267 97.736 158.739 97.824 159.267 98L158.859 100.928ZM174.04 105.488C174.04 104.976 173.848 104.56 173.464 104.24C173.096 103.92 172.624 103.632 172.048 103.376C171.488 103.104 170.872 102.832 170.2 102.56C169.544 102.272 168.928 101.928 168.352 101.528C167.792 101.112 167.32 100.6 166.936 99.992C166.568 99.384 166.384 98.608 166.384 97.664C166.384 96.848 166.52 96.144 166.792 95.552C167.064 94.944 167.448 94.44 167.944 94.04C168.456 93.64 169.056 93.344 169.744 93.152C170.432 92.96 171.2 92.864 172.048 92.864C173.024 92.864 173.944 92.952 174.808 93.128C175.672 93.288 176.384 93.528 176.944 93.848L175.912 96.608C175.56 96.384 175.032 96.184 174.328 96.008C173.624 95.816 172.864 95.72 172.048 95.72C171.28 95.72 170.688 95.872 170.272 96.176C169.872 96.48 169.672 96.888 169.672 97.4C169.672 97.88 169.856 98.28 170.224 98.6C170.608 98.92 171.08 99.216 171.64 99.488C172.216 99.76 172.832 100.04 173.488 100.328C174.16 100.616 174.776 100.968 175.336 101.384C175.912 101.784 176.384 102.288 176.752 102.896C177.136 103.488 177.328 104.232 177.328 105.128C177.328 106.024 177.176 106.8 176.872 107.456C176.584 108.096 176.168 108.632 175.624 109.064C175.096 109.496 174.448 109.816 173.68 110.024C172.928 110.232 172.096 110.336 171.184 110.336C169.984 110.336 168.928 110.224 168.016 110C167.104 109.776 166.432 109.552 166 109.328L167.056 106.52C167.232 106.616 167.456 106.72 167.728 106.832C168.016 106.944 168.336 107.048 168.688 107.144C169.04 107.24 169.408 107.32 169.792 107.384C170.192 107.448 170.6 107.48 171.016 107.48C171.992 107.48 172.736 107.32 173.248 107C173.776 106.664 174.04 106.16 174.04 105.488ZM184.414 106.688C184.414 106.368 184.278 106.112 184.006 105.92C183.734 105.728 183.398 105.552 182.998 105.392C182.598 105.232 182.158 105.072 181.678 104.912C181.198 104.736 180.758 104.504 180.358 104.216C179.958 103.912 179.622 103.536 179.35 103.088C179.078 102.624 178.942 102.032 178.942 101.312C178.942 100.128 179.294 99.224 179.998 98.6C180.702 97.976 181.718 97.664 183.046 97.664C183.958 97.664 184.782 97.76 185.518 97.952C186.254 98.144 186.83 98.36 187.246 98.6L186.55 100.856C186.182 100.712 185.718 100.56 185.158 100.4C184.598 100.24 184.03 100.16 183.454 100.16C182.526 100.16 182.062 100.52 182.062 101.24C182.062 101.528 182.198 101.76 182.47 101.936C182.742 102.112 183.078 102.28 183.478 102.44C183.878 102.584 184.318 102.744 184.798 102.92C185.278 103.096 185.718 103.328 186.118 103.616C186.518 103.888 186.854 104.248 187.126 104.696C187.398 105.144 187.534 105.72 187.534 106.424C187.534 107.64 187.142 108.6 186.358 109.304C185.59 109.992 184.43 110.336 182.878 110.336C182.03 110.336 181.23 110.224 180.478 110C179.742 109.792 179.142 109.544 178.678 109.256L179.542 106.928C179.91 107.136 180.398 107.344 181.006 107.552C181.614 107.744 182.238 107.84 182.878 107.84C183.342 107.84 183.71 107.752 183.982 107.576C184.27 107.4 184.414 107.104 184.414 106.688ZM206.774 96.128H201.878V110H198.59V96.128H193.67V93.2H206.774V96.128ZM205.995 98H207.651V95.744L210.771 94.856V98H213.699V100.64H210.771V105.248C210.771 106.08 210.851 106.68 211.011 107.048C211.187 107.4 211.507 107.576 211.971 107.576C212.291 107.576 212.563 107.544 212.787 107.48C213.027 107.416 213.291 107.32 213.579 107.192L214.131 109.592C213.699 109.8 213.195 109.976 212.619 110.12C212.043 110.264 211.459 110.336 210.867 110.336C209.763 110.336 208.947 110.056 208.419 109.496C207.907 108.92 207.651 107.984 207.651 106.688V100.64H205.995V98ZM230.873 93.2H233.993V104.048C233.993 105.136 233.849 106.072 233.561 106.856C233.273 107.64 232.873 108.288 232.361 108.8C231.849 109.312 231.225 109.688 230.489 109.928C229.753 110.168 228.945 110.288 228.065 110.288C223.809 110.288 221.681 108.344 221.681 104.456V93.2H224.969V103.808C224.969 104.464 225.025 105.024 225.137 105.488C225.265 105.936 225.457 106.304 225.713 106.592C225.969 106.864 226.289 107.064 226.673 107.192C227.057 107.304 227.505 107.36 228.017 107.36C229.025 107.36 229.753 107.08 230.201 106.52C230.649 105.96 230.873 105.056 230.873 103.808V93.2ZM239.727 98V104.816C239.727 105.792 239.839 106.496 240.063 106.928C240.303 107.36 240.759 107.576 241.431 107.576C242.023 107.576 242.511 107.4 242.895 107.048C243.295 106.696 243.591 106.264 243.783 105.752V98H246.903V106.352C246.903 107.008 246.935 107.656 246.999 108.296C247.063 108.92 247.159 109.488 247.287 110H244.935L244.383 108.224H244.287C243.919 108.832 243.407 109.336 242.751 109.736C242.095 110.136 241.319 110.336 240.423 110.336C239.815 110.336 239.271 110.256 238.791 110.096C238.311 109.936 237.911 109.672 237.591 109.304C237.271 108.936 237.023 108.44 236.847 107.816C236.687 107.192 236.607 106.408 236.607 105.464V98H239.727ZM260.577 103.064L261.009 105.92H261.129L261.609 103.04L264.825 93.2H268.281L262.041 110.12H259.689L253.401 93.2H257.217L260.577 103.064ZM273.317 104.288L273.725 106.136H273.845L274.181 104.24L276.221 98H279.581L274.565 110.12H272.669L267.461 98H271.085L273.317 104.288ZM289.636 102.584L289.948 105.56H290.044L290.38 102.536L293.308 93.2H295.468L298.348 102.584L298.684 105.56H298.78L299.14 102.536L301.18 93.2H304.516L299.884 110.12H297.676L294.676 100.784L294.268 98.216H294.148L293.74 100.808L290.764 110.12H288.436L283.828 93.2H287.404L289.636 102.584ZM314.158 98L316.342 104.144L316.774 106.136H316.87L317.206 104.12L318.742 98H321.598L317.902 110.12H315.598L313.174 103.4L312.862 101.888H312.742L312.454 103.424L310.15 110.12H307.774L303.91 98H307.294L309.046 104.024L309.334 106.16H309.454L309.862 104L311.854 98H314.158ZM331.556 101.456L326.876 93.2H330.836L333.428 98.048L334.004 99.752L334.556 98.048L337.268 93.2H340.844L335.996 101.288L341.084 110H337.172L334.22 104.816L333.572 103.04L332.948 104.816L329.972 110H326.396L331.556 101.456ZM344.252 103.856L340.652 98H344.372L345.932 100.568L346.604 102.248L347.324 100.568L348.956 98H352.34L348.716 103.76L352.58 110H348.956L347.108 107.12L346.388 105.344L345.62 107.12L343.772 110H340.364L344.252 103.856ZM362.87 103.76L357.35 93.2H361.262L364.334 99.512L364.67 101.288H364.79L365.15 99.464L368.126 93.2H371.654L366.158 103.736V110H362.87V103.76ZM376.189 104.744L376.621 106.616H376.765L377.077 104.72L378.901 98H382.117L378.469 108.824C378.165 109.72 377.869 110.536 377.581 111.272C377.309 112.024 377.005 112.672 376.669 113.216C376.333 113.76 375.957 114.176 375.541 114.464C375.141 114.768 374.661 114.92 374.101 114.92C373.269 114.92 372.605 114.784 372.109 114.512L372.685 112.016C372.925 112.112 373.165 112.16 373.405 112.16C373.773 112.16 374.125 112 374.461 111.68C374.813 111.376 375.077 110.816 375.253 110L370.237 98H373.981L376.189 104.744ZM387.507 107.072L394.611 97.136L395.859 96.128H387.507V93.2H399.147V96.128L391.995 106.16L390.771 107.072H399.147V110H387.507V107.072ZM400.236 107.36L404.964 101.672L406.188 100.64H400.236V98H409.644V100.64L404.964 106.424L403.764 107.36H409.644V110H400.236V107.36ZM0.96 132.576C0.96 129.632 1.464 127.448 2.472 126.024C3.48 124.584 4.928 123.864 6.816 123.864C8.832 123.864 10.312 124.576 11.256 126C12.2 127.408 12.672 129.6 12.672 132.576C12.672 135.536 12.16 137.736 11.136 139.176C10.128 140.616 8.68 141.336 6.792 141.336C4.792 141.336 3.32 140.584 2.376 139.08C1.432 137.56 0.96 135.392 0.96 132.576ZM4.08 132.576C4.08 134.528 4.288 136.04 4.704 137.112C5.136 138.168 5.84 138.696 6.816 138.696C7.76 138.696 8.448 138.208 8.88 137.232C9.328 136.256 9.552 134.704 9.552 132.576C9.552 130.64 9.344 129.144 8.928 128.088C8.512 127.032 7.8 126.504 6.792 126.504C5.832 126.504 5.136 127 4.704 127.992C4.288 128.984 4.08 130.512 4.08 132.576ZM22.1115 138.36H25.4475V128.88L25.8075 127.248L24.6555 128.664L22.5195 130.128L21.1995 128.328L26.6715 123.912H28.4235V138.36H31.6875V141H22.1115V138.36ZM50.775 128.304C50.775 129.12 50.623 129.944 50.319 130.776C50.031 131.608 49.655 132.424 49.191 133.224C48.743 134.024 48.239 134.8 47.679 135.552C47.135 136.288 46.599 136.968 46.071 137.592L44.799 138.576V138.696L46.527 138.36H51.135V141H41.031V139.392C41.415 138.992 41.847 138.528 42.327 138C42.807 137.456 43.287 136.888 43.767 136.296C44.263 135.688 44.743 135.064 45.207 134.424C45.671 133.784 46.087 133.144 46.455 132.504C46.823 131.848 47.111 131.216 47.319 130.608C47.543 130 47.655 129.424 47.655 128.88C47.655 128.224 47.463 127.688 47.079 127.272C46.711 126.84 46.119 126.624 45.303 126.624C44.791 126.624 44.263 126.736 43.719 126.96C43.191 127.168 42.743 127.44 42.375 127.776L41.127 125.568C41.751 125.056 42.455 124.648 43.239 124.344C44.039 124.024 44.975 123.864 46.047 123.864C46.735 123.864 47.367 123.96 47.943 124.152C48.519 124.344 49.015 124.624 49.431 124.992C49.847 125.36 50.175 125.824 50.415 126.384C50.655 126.928 50.775 127.568 50.775 128.304ZM64.8465 138.696C65.8385 138.696 66.5905 138.432 67.1025 137.904C67.6305 137.376 67.8945 136.736 67.8945 135.984C67.8945 135.072 67.6225 134.4 67.0785 133.968C66.5345 133.536 65.6785 133.32 64.5105 133.32H62.7825V131.664L65.6865 127.704L67.0545 126.624L65.1585 126.84H61.1265V124.2H70.2945V125.904L66.9105 130.44L65.8545 131.088V131.208L66.8625 131.064C67.4225 131.112 67.9505 131.24 68.4465 131.448C68.9585 131.656 69.3985 131.96 69.7665 132.36C70.1505 132.744 70.4545 133.224 70.6785 133.8C70.9025 134.376 71.0145 135.04 71.0145 135.792C71.0145 136.736 70.8545 137.552 70.5345 138.24C70.2305 138.928 69.7985 139.504 69.2385 139.968C68.6945 140.432 68.0545 140.776 67.3185 141C66.5825 141.224 65.7905 141.336 64.9425 141.336C64.2385 141.336 63.5105 141.272 62.7585 141.144C62.0065 141.016 61.3985 140.832 60.9345 140.592L61.7745 138C62.1905 138.208 62.6465 138.376 63.1425 138.504C63.6545 138.632 64.2225 138.696 64.8465 138.696ZM92.022 136.32H89.382V141H86.478V136.32H79.206V134.544L86.814 124.08H89.382V133.824H92.022V136.32ZM86.478 130.152L86.694 128.136H86.598L85.782 129.864L83.286 133.104L82.086 134.016L83.622 133.824H86.478V130.152ZM103.718 138.576C104.774 138.576 105.582 138.32 106.142 137.808C106.702 137.296 106.982 136.592 106.982 135.696C106.982 134.736 106.654 134.032 105.998 133.584C105.342 133.136 104.406 132.912 103.19 132.912L101.294 132.984V124.2H109.55V127.128H103.982V130.368L104.966 130.272C105.75 130.304 106.454 130.448 107.078 130.704C107.718 130.96 108.262 131.32 108.71 131.784C109.158 132.232 109.502 132.784 109.742 133.44C109.982 134.08 110.102 134.8 110.102 135.6C110.102 136.544 109.942 137.376 109.622 138.096C109.302 138.816 108.854 139.416 108.278 139.896C107.718 140.376 107.054 140.736 106.286 140.976C105.518 141.216 104.678 141.336 103.766 141.336C103.046 141.336 102.358 141.272 101.702 141.144C101.062 141.032 100.518 140.872 100.07 140.664L100.91 138.072C101.278 138.232 101.678 138.36 102.11 138.456C102.558 138.536 103.094 138.576 103.718 138.576ZM130.605 135.792C130.605 136.576 130.469 137.304 130.197 137.976C129.941 138.648 129.573 139.232 129.093 139.728C128.613 140.224 128.029 140.616 127.341 140.904C126.669 141.192 125.925 141.336 125.109 141.336C124.277 141.336 123.509 141.208 122.805 140.952C122.117 140.68 121.517 140.28 121.005 139.752C120.493 139.224 120.093 138.56 119.805 137.76C119.517 136.96 119.373 136.032 119.373 134.976C119.373 133.392 119.597 131.96 120.045 130.68C120.509 129.4 121.125 128.288 121.893 127.344C122.677 126.384 123.581 125.616 124.605 125.04C125.645 124.448 126.741 124.056 127.893 123.864L128.589 126.336C127.789 126.464 127.053 126.712 126.381 127.08C125.709 127.448 125.109 127.888 124.581 128.4C124.069 128.912 123.629 129.488 123.261 130.128C122.909 130.752 122.661 131.4 122.517 132.072C122.837 131.672 123.253 131.336 123.765 131.064C124.277 130.776 124.917 130.632 125.685 130.632C126.405 130.632 127.069 130.744 127.677 130.968C128.285 131.192 128.805 131.528 129.237 131.976C129.669 132.408 130.005 132.944 130.245 133.584C130.485 134.224 130.605 134.96 130.605 135.792ZM127.581 135.96C127.581 134.168 126.701 133.272 124.941 133.272C124.301 133.272 123.757 133.416 123.309 133.704C122.877 133.992 122.573 134.328 122.397 134.712C122.365 134.888 122.349 135.04 122.349 135.168C122.349 135.296 122.349 135.424 122.349 135.552C122.349 135.936 122.405 136.32 122.517 136.704C122.629 137.072 122.789 137.408 122.997 137.712C123.221 138 123.501 138.24 123.837 138.432C124.173 138.608 124.573 138.696 125.037 138.696C125.789 138.696 126.397 138.44 126.861 137.928C127.341 137.416 127.581 136.76 127.581 135.96ZM140.309 141L145.805 128.064L146.861 126.888L145.421 127.128H139.253V124.2H150.077V125.112L143.357 141H140.309ZM157.675 136.896C157.675 136.336 157.747 135.84 157.891 135.408C158.035 134.96 158.235 134.56 158.491 134.208C158.763 133.84 159.075 133.512 159.427 133.224C159.795 132.936 160.187 132.672 160.603 132.432C159.819 131.936 159.203 131.368 158.755 130.728C158.307 130.072 158.083 129.264 158.083 128.304C158.083 127.68 158.195 127.096 158.419 126.552C158.659 126.008 158.995 125.536 159.427 125.136C159.875 124.736 160.411 124.424 161.035 124.2C161.659 123.976 162.363 123.864 163.147 123.864C163.867 123.864 164.523 123.96 165.115 124.152C165.707 124.344 166.211 124.616 166.627 124.968C167.059 125.32 167.387 125.752 167.611 126.264C167.851 126.76 167.971 127.312 167.971 127.92C167.971 128.864 167.755 129.664 167.323 130.32C166.907 130.976 166.291 131.576 165.475 132.12C166.435 132.68 167.155 133.296 167.635 133.968C168.131 134.64 168.379 135.504 168.379 136.56C168.379 137.28 168.243 137.936 167.971 138.528C167.715 139.104 167.347 139.6 166.867 140.016C166.387 140.432 165.811 140.76 165.139 141C164.467 141.224 163.731 141.336 162.931 141.336C162.131 141.336 161.403 141.224 160.747 141C160.107 140.792 159.555 140.496 159.091 140.112C158.643 139.728 158.291 139.264 158.035 138.72C157.795 138.176 157.675 137.568 157.675 136.896ZM165.403 136.584C165.403 136.216 165.315 135.88 165.139 135.576C164.963 135.272 164.731 135 164.443 134.76C164.171 134.504 163.859 134.272 163.507 134.064C163.171 133.856 162.827 133.656 162.475 133.464C161.723 133.896 161.203 134.368 160.915 134.88C160.643 135.376 160.507 135.872 160.507 136.368C160.507 137.008 160.723 137.56 161.155 138.024C161.603 138.472 162.219 138.696 163.003 138.696C163.723 138.696 164.299 138.52 164.731 138.168C165.179 137.816 165.403 137.288 165.403 136.584ZM161.059 128.352C161.059 128.736 161.131 129.072 161.275 129.36C161.419 129.648 161.611 129.904 161.851 130.128C162.107 130.336 162.387 130.536 162.691 130.728C163.011 130.904 163.339 131.072 163.675 131.232C164.635 130.416 165.115 129.52 165.115 128.544C165.115 127.872 164.915 127.368 164.515 127.032C164.131 126.68 163.659 126.504 163.099 126.504C162.395 126.504 161.875 126.688 161.539 127.056C161.219 127.424 161.059 127.856 161.059 128.352ZM176.978 129.456C176.978 128.64 177.098 127.888 177.338 127.2C177.594 126.512 177.954 125.928 178.418 125.448C178.898 124.952 179.474 124.568 180.146 124.296C180.834 124.008 181.618 123.864 182.498 123.864C184.306 123.864 185.722 124.408 186.746 125.496C187.786 126.568 188.306 128.136 188.306 130.2C188.306 132.056 188.066 133.664 187.586 135.024C187.122 136.368 186.49 137.496 185.69 138.408C184.906 139.304 183.994 139.992 182.954 140.472C181.914 140.952 180.818 141.24 179.666 141.336L178.994 138.888C179.874 138.776 180.658 138.56 181.346 138.24C182.034 137.92 182.626 137.528 183.122 137.064C183.618 136.584 184.018 136.048 184.322 135.456C184.642 134.848 184.866 134.2 184.994 133.512C184.61 133.928 184.194 134.216 183.746 134.376C183.314 134.536 182.73 134.616 181.994 134.616C181.386 134.616 180.778 134.512 180.17 134.304C179.578 134.096 179.042 133.784 178.562 133.368C178.098 132.936 177.714 132.4 177.41 131.76C177.122 131.104 176.978 130.336 176.978 129.456ZM180.002 129.288C180.002 130.2 180.258 130.888 180.77 131.352C181.282 131.816 181.922 132.048 182.69 132.048C183.346 132.048 183.882 131.944 184.298 131.736C184.714 131.528 185.034 131.272 185.258 130.968C185.306 130.632 185.33 130.312 185.33 130.008C185.33 129.56 185.274 129.12 185.162 128.688C185.05 128.256 184.874 127.872 184.634 127.536C184.41 127.2 184.114 126.936 183.746 126.744C183.394 126.536 182.97 126.432 182.474 126.432C181.69 126.432 181.082 126.688 180.65 127.2C180.218 127.696 180.002 128.392 180.002 129.288ZM1.008 170.416C1.008 169.856 1.184 169.416 1.536 169.096C1.888 168.76 2.352 168.592 2.928 168.592C3.536 168.592 4.016 168.76 4.368 169.096C4.72 169.416 4.896 169.856 4.896 170.416C4.896 170.976 4.72 171.424 4.368 171.76C4.016 172.096 3.536 172.264 2.928 172.264C2.352 172.264 1.888 172.096 1.536 171.76C1.184 171.424 1.008 170.976 1.008 170.416ZM9.633 170.464C9.633 169.92 9.809 169.488 10.161 169.168C10.529 168.848 10.977 168.688 11.505 168.688C12.177 168.688 12.705 168.912 13.089 169.36C13.473 169.808 13.665 170.4 13.665 171.136C13.665 171.856 13.553 172.472 13.329 172.984C13.105 173.512 12.825 173.944 12.489 174.28C12.169 174.632 11.817 174.904 11.433 175.096C11.065 175.304 10.729 175.456 10.425 175.552L9.513 174.256C9.945 174.08 10.321 173.792 10.641 173.392C10.961 172.992 11.137 172.568 11.169 172.12C10.801 172.168 10.449 172.056 10.113 171.784C9.793 171.512 9.633 171.072 9.633 170.464ZM25.0686 157.168C25.0686 157.632 24.9086 158.008 24.5886 158.296C24.2846 158.568 23.9006 158.704 23.4366 158.704C22.8446 158.704 22.3806 158.52 22.0446 158.152C21.7086 157.768 21.5406 157.264 21.5406 156.64C21.5406 156 21.6366 155.456 21.8286 155.008C22.0366 154.56 22.2766 154.192 22.5486 153.904C22.8366 153.6 23.1326 153.368 23.4366 153.208C23.7406 153.032 24.0046 152.904 24.2286 152.824L24.9966 154.12C24.6766 154.248 24.4046 154.456 24.1806 154.744C23.9566 155.016 23.8286 155.312 23.7966 155.632C24.1166 155.632 24.4046 155.776 24.6606 156.064C24.9326 156.336 25.0686 156.704 25.0686 157.168ZM20.9166 157.168C20.9166 157.632 20.7566 158.008 20.4366 158.296C20.1326 158.568 19.7486 158.704 19.2846 158.704C18.6926 158.704 18.2286 158.52 17.8926 158.152C17.5566 157.768 17.3886 157.264 17.3886 156.64C17.3886 156 17.4846 155.456 17.6766 155.008C17.8846 154.56 18.1246 154.192 18.3966 153.904C18.6846 153.6 18.9806 153.368 19.2846 153.208C19.5886 153.032 19.8526 152.904 20.0766 152.824L20.8446 154.12C20.5246 154.248 20.2526 154.456 20.0286 154.744C19.8046 155.016 19.6766 155.312 19.6446 155.632C19.9646 155.632 20.2526 155.776 20.5086 156.064C20.7806 156.336 20.9166 156.704 20.9166 157.168ZM32.9312 156.544C32.9312 156.08 33.0832 155.704 33.3872 155.416C33.7072 155.128 34.1072 154.984 34.5872 154.984C35.1632 154.984 35.6192 155.176 35.9552 155.56C36.2912 155.944 36.4592 156.448 36.4592 157.072C36.4592 157.712 36.3552 158.256 36.1472 158.704C35.9552 159.152 35.7152 159.528 35.4272 159.832C35.1552 160.12 34.8592 160.352 34.5392 160.528C34.2352 160.688 33.9792 160.808 33.7712 160.888L32.9792 159.568C33.2992 159.424 33.5792 159.232 33.8192 158.992C34.0752 158.752 34.2192 158.448 34.2512 158.08C33.9312 158.096 33.6272 157.976 33.3392 157.72C33.0672 157.448 32.9312 157.056 32.9312 156.544ZM28.7792 156.544C28.7792 156.08 28.9312 155.704 29.2352 155.416C29.5552 155.128 29.9552 154.984 30.4352 154.984C31.0112 154.984 31.4672 155.176 31.8032 155.56C32.1392 155.944 32.3072 156.448 32.3072 157.072C32.3072 157.712 32.2032 158.256 31.9952 158.704C31.8032 159.152 31.5632 159.528 31.2752 159.832C31.0032 160.12 30.7072 160.352 30.3872 160.528C30.0832 160.688 29.8272 160.808 29.6192 160.888L28.8272 159.568C29.1472 159.424 29.4272 159.232 29.6672 158.992C29.9232 158.752 30.0672 158.448 30.0992 158.08C29.7792 158.096 29.4752 157.976 29.1872 157.72C28.9152 157.448 28.7792 157.056 28.7792 156.544ZM43.5054 161.728C43.5054 161.168 43.6814 160.728 44.0334 160.408C44.3854 160.072 44.8494 159.904 45.4254 159.904C46.0334 159.904 46.5134 160.072 46.8654 160.408C47.2174 160.728 47.3934 161.168 47.3934 161.728C47.3934 162.288 47.2174 162.736 46.8654 163.072C46.5134 163.408 46.0334 163.576 45.4254 163.576C44.8494 163.576 44.3854 163.408 44.0334 163.072C43.6814 162.736 43.5054 162.288 43.5054 161.728ZM43.5054 170.416C43.5054 169.856 43.6814 169.416 44.0334 169.096C44.3854 168.76 44.8494 168.592 45.4254 168.592C46.0334 168.592 46.5134 168.76 46.8654 169.096C47.2174 169.416 47.3934 169.856 47.3934 170.416C47.3934 170.976 47.2174 171.424 46.8654 171.76C46.5134 172.096 46.0334 172.264 45.4254 172.264C44.8494 172.264 44.3854 172.096 44.0334 171.76C43.6814 171.424 43.5054 170.976 43.5054 170.416ZM55.7571 170.464C55.7571 169.92 55.9331 169.488 56.2851 169.168C56.6531 168.848 57.1011 168.688 57.6291 168.688C58.3011 168.688 58.8291 168.912 59.2131 169.36C59.5971 169.808 59.7891 170.4 59.7891 171.136C59.7891 171.856 59.6771 172.472 59.4531 172.984C59.2291 173.512 58.9491 173.944 58.6131 174.28C58.2931 174.632 57.9411 174.904 57.5571 175.096C57.1891 175.304 56.8531 175.456 56.5491 175.552L55.6371 174.256C56.0691 174.08 56.4451 173.792 56.7651 173.392C57.0851 172.992 57.2611 172.568 57.2931 172.12C56.9251 172.168 56.5731 172.056 56.2371 171.784C55.9171 171.512 55.7571 171.072 55.7571 170.464ZM55.7571 161.728C55.7571 161.168 55.9331 160.728 56.2851 160.408C56.6371 160.072 57.1011 159.904 57.6771 159.904C58.2851 159.904 58.7651 160.072 59.1171 160.408C59.4691 160.728 59.6451 161.168 59.6451 161.728C59.6451 162.288 59.4691 162.736 59.1171 163.072C58.7651 163.408 58.2851 163.576 57.6771 163.576C57.1011 163.576 56.6371 163.408 56.2851 163.072C55.9331 162.736 55.7571 162.288 55.7571 161.728ZM70.0843 167.008C70.0043 166.176 70.0443 165.472 70.2043 164.896C70.3643 164.304 70.5803 163.8 70.8523 163.384C71.1403 162.952 71.4603 162.584 71.8123 162.28C72.1803 161.96 72.5163 161.656 72.8203 161.368C73.1403 161.08 73.4043 160.784 73.6123 160.48C73.8203 160.16 73.9243 159.784 73.9243 159.352C73.9243 158.792 73.7643 158.344 73.4443 158.008C73.1403 157.672 72.5883 157.504 71.7883 157.504C71.5323 157.504 71.2603 157.536 70.9723 157.6C70.6843 157.648 70.3963 157.728 70.1083 157.84C69.8203 157.936 69.5403 158.056 69.2683 158.2C69.0123 158.328 68.7803 158.464 68.5723 158.608L67.3723 156.304C67.9803 155.888 68.6763 155.544 69.4603 155.272C70.2603 155 71.2203 154.864 72.3403 154.864C73.8443 154.864 75.0203 155.232 75.8683 155.968C76.7163 156.688 77.1403 157.664 77.1403 158.896C77.1403 159.712 77.0283 160.392 76.8043 160.936C76.5963 161.464 76.3323 161.92 76.0123 162.304C75.6923 162.672 75.3403 163 74.9563 163.288C74.5723 163.576 74.2203 163.888 73.9003 164.224C73.5803 164.544 73.3083 164.92 73.0843 165.352C72.8603 165.784 72.7483 166.336 72.7483 167.008H70.0843ZM69.6043 170.416C69.6043 169.856 69.7803 169.416 70.1323 169.096C70.4843 168.76 70.9483 168.592 71.5243 168.592C72.1323 168.592 72.6123 168.76 72.9643 169.096C73.3163 169.416 73.4923 169.856 73.4923 170.416C73.4923 170.976 73.3163 171.424 72.9643 171.76C72.6123 172.096 72.1323 172.264 71.5243 172.264C70.9483 172.264 70.4843 172.096 70.1323 171.76C69.7803 171.424 69.6043 170.976 69.6043 170.416ZM86.1891 155.2H89.4051V163.096L88.7811 167.008H86.8131L86.1891 163.096V155.2ZM85.8531 170.416C85.8531 169.856 86.0291 169.416 86.3811 169.096C86.7331 168.76 87.1971 168.592 87.7731 168.592C88.3811 168.592 88.8611 168.76 89.2131 169.096C89.5651 169.416 89.7411 169.856 89.7411 170.416C89.7411 170.976 89.5651 171.424 89.2131 171.76C88.8611 172.096 88.3811 172.264 87.7731 172.264C87.1971 172.264 86.7331 172.096 86.3811 171.76C86.0291 171.424 85.8531 170.976 85.8531 170.416ZM113.21 160.384H114.89L113.738 166.888C113.61 167.64 113.602 168.184 113.714 168.52C113.842 168.856 114.114 169.024 114.53 169.024C114.946 169.024 115.354 168.928 115.754 168.736C116.154 168.544 116.514 168.248 116.834 167.848C117.154 167.448 117.41 166.944 117.602 166.336C117.81 165.728 117.914 165.008 117.914 164.176C117.914 162.976 117.714 161.952 117.314 161.104C116.914 160.256 116.362 159.56 115.658 159.016C114.97 158.456 114.154 158.048 113.21 157.792C112.266 157.536 111.25 157.408 110.162 157.408C108.914 157.408 107.754 157.632 106.682 158.08C105.61 158.528 104.674 159.144 103.874 159.928C103.09 160.712 102.474 161.648 102.026 162.736C101.578 163.808 101.354 164.976 101.354 166.24C101.354 167.488 101.538 168.608 101.906 169.6C102.29 170.592 102.842 171.432 103.562 172.12C104.282 172.824 105.17 173.36 106.226 173.728C107.298 174.112 108.522 174.304 109.898 174.304C110.362 174.304 110.89 174.248 111.482 174.136C112.074 174.024 112.61 173.856 113.09 173.632L113.834 175.936C113.178 176.256 112.506 176.48 111.818 176.608C111.146 176.736 110.37 176.8 109.49 176.8C107.938 176.8 106.498 176.576 105.17 176.128C103.858 175.68 102.714 175.016 101.738 174.136C100.778 173.256 100.026 172.168 99.4821 170.872C98.9381 169.56 98.6661 168.048 98.6661 166.336C98.6661 164.592 98.9781 163.016 99.6021 161.608C100.226 160.2 101.066 159 102.122 158.008C103.178 157.016 104.402 156.256 105.794 155.728C107.186 155.184 108.658 154.912 110.21 154.912C111.682 154.912 113.05 155.128 114.314 155.56C115.578 155.976 116.674 156.584 117.602 157.384C118.53 158.168 119.258 159.136 119.786 160.288C120.314 161.424 120.578 162.72 120.578 164.176C120.578 165.2 120.394 166.16 120.026 167.056C119.674 167.952 119.178 168.728 118.538 169.384C117.914 170.04 117.178 170.56 116.33 170.944C115.498 171.328 114.602 171.52 113.642 171.52C113.242 171.52 112.866 171.48 112.514 171.4C112.178 171.304 111.89 171.152 111.65 170.944C111.426 170.736 111.258 170.464 111.146 170.128C111.034 169.792 111.002 169.376 111.05 168.88H110.954C110.714 169.216 110.45 169.544 110.162 169.864C109.89 170.184 109.586 170.472 109.25 170.728C108.914 170.968 108.546 171.16 108.146 171.304C107.746 171.448 107.306 171.52 106.826 171.52C106.442 171.52 106.074 171.44 105.722 171.28C105.37 171.104 105.066 170.864 104.81 170.56C104.554 170.256 104.346 169.888 104.186 169.456C104.042 169.024 103.97 168.544 103.97 168.016C103.97 167.024 104.13 166.064 104.45 165.136C104.77 164.192 105.202 163.36 105.746 162.64C106.306 161.92 106.946 161.344 107.666 160.912C108.402 160.464 109.178 160.24 109.994 160.24C110.554 160.24 111.026 160.328 111.41 160.504C111.794 160.664 112.146 160.88 112.466 161.152L113.21 160.384ZM111.698 163.288C111.49 163.112 111.274 162.976 111.05 162.88C110.826 162.784 110.546 162.736 110.21 162.736C109.73 162.736 109.282 162.872 108.866 163.144C108.466 163.416 108.114 163.768 107.81 164.2C107.522 164.632 107.298 165.12 107.138 165.664C106.978 166.192 106.898 166.712 106.898 167.224C106.898 167.752 107.002 168.184 107.21 168.52C107.434 168.856 107.81 169.024 108.338 169.024C108.562 169.024 108.802 168.96 109.058 168.832C109.314 168.688 109.562 168.504 109.802 168.28C110.042 168.056 110.274 167.8 110.498 167.512C110.722 167.224 110.922 166.92 111.098 166.6L111.698 163.288ZM135.327 167.08H133.191L132.327 170.776H129.759L130.623 167.08H128.847L129.375 164.752H131.175L131.775 162.208H130.047L130.575 159.88H132.327L133.167 156.424H135.711L134.895 159.88H137.031L137.871 156.424H140.415L139.599 159.88H141.327L140.727 162.208H139.047L138.447 164.752H140.103L139.527 167.08H137.895L137.031 170.776H134.463L135.327 167.08ZM133.743 164.752H135.879L136.479 162.208H134.343L133.743 164.752ZM153.79 172.312C152.878 172.28 152.078 172.184 151.39 172.024C150.702 171.864 150.166 171.68 149.782 171.472L150.718 168.76C151.006 168.936 151.406 169.104 151.918 169.264C152.446 169.424 153.07 169.536 153.79 169.6V164.68C153.294 164.456 152.798 164.208 152.302 163.936C151.822 163.664 151.39 163.336 151.006 162.952C150.622 162.568 150.31 162.112 150.07 161.584C149.846 161.04 149.734 160.4 149.734 159.664C149.734 158.288 150.094 157.224 150.814 156.472C151.55 155.704 152.542 155.208 153.79 154.984V152.8H156.286V154.888C156.99 154.936 157.606 155.032 158.134 155.176C158.662 155.32 159.15 155.488 159.598 155.68L158.734 158.344C158.462 158.216 158.118 158.088 157.702 157.96C157.286 157.832 156.814 157.736 156.286 157.672V162.16C156.782 162.384 157.278 162.64 157.774 162.928C158.286 163.2 158.734 163.528 159.118 163.912C159.518 164.296 159.838 164.752 160.078 165.28C160.334 165.792 160.462 166.408 160.462 167.128C160.462 168.6 160.086 169.752 159.334 170.584C158.598 171.4 157.582 171.928 156.286 172.168V174.4H153.79V172.312ZM157.342 167.488C157.342 166.976 157.134 166.56 156.718 166.24C156.318 165.904 155.83 165.6 155.254 165.328V169.6C155.958 169.52 156.478 169.296 156.814 168.928C157.166 168.56 157.342 168.08 157.342 167.488ZM152.854 159.4C152.854 159.88 153.038 160.28 153.406 160.6C153.79 160.92 154.262 161.216 154.822 161.488V157.6C154.07 157.632 153.55 157.816 153.262 158.152C152.99 158.488 152.854 158.904 152.854 159.4ZM168.99 158.992C168.99 158.272 169.094 157.656 169.302 157.144C169.51 156.632 169.798 156.208 170.166 155.872C170.534 155.536 170.974 155.296 171.486 155.152C172.014 154.992 172.582 154.912 173.19 154.912C173.798 154.912 174.358 154.984 174.87 155.128C175.382 155.272 175.822 155.504 176.19 155.824C176.574 156.144 176.87 156.568 177.078 157.096C177.286 157.608 177.398 158.24 177.414 158.992C177.398 159.744 177.286 160.384 177.078 160.912C176.87 161.424 176.574 161.84 176.19 162.16C175.822 162.48 175.382 162.712 174.87 162.856C174.358 163 173.798 163.072 173.19 163.072C172.582 163.072 172.014 163 171.486 162.856C170.974 162.712 170.534 162.48 170.166 162.16C169.798 161.84 169.51 161.424 169.302 160.912C169.094 160.384 168.99 159.744 168.99 158.992ZM171.774 158.992C171.774 160.368 172.246 161.056 173.19 161.056C173.686 161.056 174.038 160.912 174.246 160.624C174.47 160.32 174.59 159.776 174.606 158.992C174.59 158.224 174.47 157.688 174.246 157.384C174.038 157.08 173.686 156.928 173.19 156.928C172.694 156.928 172.334 157.08 172.11 157.384C171.886 157.688 171.774 158.224 171.774 158.992ZM178.734 167.872C178.734 167.152 178.838 166.536 179.046 166.024C179.254 165.512 179.542 165.088 179.91 164.752C180.278 164.416 180.718 164.176 181.23 164.032C181.758 163.872 182.326 163.792 182.934 163.792C183.542 163.792 184.102 163.864 184.614 164.008C185.126 164.152 185.566 164.384 185.934 164.704C186.318 165.024 186.614 165.448 186.822 165.976C187.03 166.488 187.142 167.12 187.158 167.872C187.142 168.624 187.03 169.264 186.822 169.792C186.614 170.304 186.318 170.72 185.934 171.04C185.566 171.36 185.126 171.592 184.614 171.736C184.102 171.88 183.542 171.952 182.934 171.952C182.326 171.952 181.758 171.88 181.23 171.736C180.718 171.592 180.278 171.36 179.91 171.04C179.542 170.72 179.254 170.304 179.046 169.792C178.838 169.264 178.734 168.624 178.734 167.872ZM181.518 167.872C181.518 169.248 181.99 169.936 182.934 169.936C183.43 169.936 183.782 169.792 183.99 169.504C184.214 169.2 184.334 168.656 184.35 167.872C184.334 167.104 184.214 166.568 183.99 166.264C183.782 165.96 183.43 165.808 182.934 165.808C182.438 165.808 182.078 165.96 181.854 166.264C181.63 166.568 181.518 167.104 181.518 167.872ZM184.014 154.864L185.766 156.448L171.942 172.336L170.19 170.68L184.014 154.864ZM196.2 167.344C196.2 166.736 196.296 166.16 196.488 165.616C196.696 165.056 196.976 164.536 197.328 164.056C197.696 163.576 198.128 163.128 198.624 162.712C199.12 162.296 199.656 161.928 200.232 161.608C199.832 161.08 199.504 160.544 199.248 160C198.992 159.456 198.864 158.88 198.864 158.272C198.864 157.872 198.936 157.472 199.08 157.072C199.24 156.656 199.48 156.288 199.8 155.968C200.136 155.632 200.568 155.368 201.096 155.176C201.624 154.968 202.264 154.864 203.016 154.864C203.752 154.864 204.376 154.952 204.888 155.128C205.416 155.304 205.84 155.536 206.16 155.824C206.48 156.112 206.712 156.44 206.856 156.808C207 157.176 207.072 157.552 207.072 157.936C207.072 158.592 206.84 159.28 206.376 160C205.912 160.704 205.12 161.384 204 162.04C204.56 162.904 205.12 163.696 205.68 164.416C206.24 165.136 206.864 165.848 207.552 166.552C207.92 166.152 208.248 165.656 208.536 165.064C208.84 164.456 209.104 163.84 209.328 163.216L211.584 164.416C211.488 164.704 211.352 165.024 211.176 165.376C211.016 165.712 210.832 166.056 210.624 166.408C210.432 166.76 210.232 167.096 210.024 167.416C209.816 167.72 209.624 167.984 209.448 168.208C209.96 168.672 210.408 169.04 210.792 169.312C211.176 169.568 211.568 169.808 211.968 170.032L210.312 172.336C209.864 172.128 209.4 171.856 208.92 171.52C208.456 171.168 207.992 170.768 207.528 170.32C206.952 170.848 206.232 171.32 205.368 171.736C204.504 172.136 203.44 172.336 202.176 172.336C201.344 172.336 200.56 172.224 199.824 172C199.104 171.776 198.472 171.448 197.928 171.016C197.4 170.584 196.976 170.064 196.656 169.456C196.352 168.832 196.2 168.128 196.2 167.344ZM205.656 168.424C204.84 167.576 204.096 166.736 203.424 165.904C202.752 165.056 202.168 164.256 201.672 163.504C200.904 164.096 200.32 164.672 199.92 165.232C199.52 165.776 199.32 166.392 199.32 167.08C199.32 167.896 199.616 168.536 200.208 169C200.816 169.464 201.608 169.696 202.584 169.696C203.224 169.696 203.824 169.568 204.384 169.312C204.944 169.04 205.368 168.744 205.656 168.424ZM201.984 158.416C201.984 159.088 202.272 159.808 202.848 160.576C203.472 160.176 203.92 159.8 204.192 159.448C204.48 159.096 204.624 158.76 204.624 158.44C204.624 158.056 204.512 157.752 204.288 157.528C204.08 157.304 203.736 157.192 203.256 157.192C202.824 157.192 202.504 157.304 202.296 157.528C202.088 157.752 201.984 158.048 201.984 158.416ZM222.222 154.456L222.894 155.56L223.254 156.976L223.614 155.656L224.286 154.48L225.822 155.32L225.102 156.568L223.95 157.6L225.51 157.216H226.878V158.968H225.558L224.094 158.584L225.294 159.712L225.894 160.72L224.358 161.608L223.71 160.504L223.23 158.968L222.918 160.36L222.222 161.536L220.686 160.648L221.382 159.472L222.462 158.584L221.142 158.968H219.726V157.192H221.166L222.582 157.6L221.358 156.544L220.686 155.344L222.222 154.456ZM238.511 177.28C237.775 176.512 237.151 175.664 236.639 174.736C236.127 173.824 235.711 172.888 235.391 171.928C235.087 170.952 234.863 169.976 234.719 169C234.575 168.008 234.503 167.064 234.503 166.168C234.503 165.288 234.575 164.36 234.719 163.384C234.863 162.408 235.095 161.432 235.415 160.456C235.735 159.464 236.151 158.496 236.663 157.552C237.191 156.608 237.831 155.728 238.583 154.912L240.599 156.208C240.039 156.96 239.567 157.744 239.183 158.56C238.815 159.376 238.511 160.216 238.271 161.08C238.047 161.928 237.879 162.784 237.767 163.648C237.671 164.512 237.623 165.352 237.623 166.168C237.623 166.936 237.679 167.752 237.791 168.616C237.903 169.48 238.079 170.344 238.319 171.208C238.559 172.056 238.871 172.888 239.255 173.704C239.639 174.52 240.103 175.264 240.647 175.936L238.511 177.28ZM249.36 154.912C250.096 155.68 250.72 156.528 251.232 157.456C251.744 158.368 252.152 159.312 252.456 160.288C252.776 161.248 253.008 162.224 253.152 163.216C253.296 164.192 253.368 165.128 253.368 166.024C253.368 166.904 253.296 167.832 253.152 168.808C253.008 169.784 252.776 170.768 252.456 171.76C252.136 172.736 251.712 173.696 251.184 174.64C250.672 175.584 250.04 176.464 249.288 177.28L247.272 175.96C247.864 175.16 248.352 174.344 248.736 173.512C249.12 172.696 249.424 171.872 249.648 171.04C249.872 170.192 250.024 169.352 250.104 168.52C250.2 167.672 250.248 166.84 250.248 166.024C250.248 165.256 250.184 164.448 250.056 163.6C249.944 162.736 249.768 161.88 249.528 161.032C249.288 160.168 248.976 159.336 248.592 158.536C248.224 157.72 247.776 156.968 247.248 156.28L249.36 154.912Z" fill="black"/>
<path d="M0 36H413" stroke="black"/>
</svg>
