<svg width="413" height="180" viewBox="0 0 413 180" fill="none" xmlns="http://www.w3.org/2000/svg">
<path d="M2.04 6.368C2.648 6.224 3.304 6.128 4.008 6.08C4.712 6.032 5.408 6.008 6.096 6.008C6.832 6.008 7.576 6.08 8.328 6.224C9.096 6.368 9.792 6.632 10.416 7.016C11.04 7.4 11.544 7.928 11.928 8.6C12.328 9.272 12.528 10.128 12.528 11.168C12.528 12.192 12.344 13.056 11.976 13.76C11.608 14.464 11.12 15.04 10.512 15.488C9.904 15.92 9.208 16.232 8.424 16.424C7.64 16.616 6.832 16.712 6 16.712C5.92 16.712 5.784 16.712 5.592 16.712C5.416 16.712 5.224 16.712 5.016 16.712C4.824 16.696 4.632 16.68 4.44 16.664C4.248 16.648 4.112 16.632 4.032 16.616V23H2.04V6.368ZM6.144 7.736C5.728 7.736 5.328 7.744 4.944 7.76C4.56 7.776 4.256 7.816 4.032 7.88V14.84C4.112 14.872 4.24 14.896 4.416 14.912C4.592 14.912 4.776 14.92 4.968 14.936C5.16 14.936 5.344 14.936 5.52 14.936C5.696 14.936 5.824 14.936 5.904 14.936C6.448 14.936 6.984 14.888 7.512 14.792C8.056 14.68 8.544 14.488 8.976 14.216C9.408 13.944 9.752 13.56 10.008 13.064C10.28 12.568 10.416 11.936 10.416 11.168C10.416 10.512 10.288 9.968 10.032 9.536C9.792 9.088 9.464 8.736 9.048 8.48C8.648 8.208 8.192 8.016 7.68 7.904C7.168 7.792 6.656 7.736 6.144 7.736ZM13.6703 11H15.5423V8.624L17.4623 8.072V11H20.7263V12.68H17.4623V19.328C17.4623 20.16 17.5663 20.752 17.7743 21.104C17.9823 21.44 18.3343 21.608 18.8303 21.608C19.2463 21.608 19.5983 21.568 19.8863 21.488C20.1743 21.392 20.4943 21.272 20.8463 21.128L21.2783 22.592C20.8463 22.8 20.3743 22.968 19.8623 23.096C19.3503 23.224 18.7983 23.288 18.2063 23.288C17.2303 23.288 16.5423 23.016 16.1423 22.472C15.7423 21.912 15.5423 20.984 15.5423 19.688V12.68H13.6703V11ZM37.5615 18.728C37.5615 18.056 37.3615 17.512 36.9615 17.096C36.5615 16.664 36.0575 16.288 35.4495 15.968C34.8575 15.632 34.2095 15.32 33.5055 15.032C32.8015 14.744 32.1455 14.4 31.5375 14C30.9455 13.584 30.4495 13.08 30.0495 12.488C29.6495 11.88 29.4495 11.112 29.4495 10.184C29.4495 8.872 29.9055 7.832 30.8175 7.064C31.7295 6.296 33.0255 5.912 34.7055 5.912C35.6815 5.912 36.5695 5.984 37.3695 6.128C38.1695 6.272 38.7935 6.456 39.2415 6.68L38.6415 8.432C38.2735 8.256 37.7295 8.088 37.0095 7.928C36.3055 7.768 35.5055 7.688 34.6095 7.688C33.5535 7.688 32.7615 7.928 32.2335 8.408C31.7055 8.872 31.4415 9.424 31.4415 10.064C31.4415 10.688 31.6415 11.208 32.0415 11.624C32.4415 12.04 32.9375 12.416 33.5295 12.752C34.1375 13.072 34.7935 13.392 35.4975 13.712C36.2015 14.032 36.8495 14.408 37.4415 14.84C38.0495 15.256 38.5535 15.76 38.9535 16.352C39.3535 16.944 39.5535 17.68 39.5535 18.56C39.5535 19.28 39.4255 19.928 39.1695 20.504C38.9135 21.08 38.5375 21.576 38.0415 21.992C37.5455 22.408 36.9455 22.728 36.2415 22.952C35.5375 23.176 34.7375 23.288 33.8415 23.288C32.6415 23.288 31.6495 23.192 30.8655 23C30.0815 22.824 29.4735 22.624 29.0415 22.4L29.7135 20.6C30.0815 20.808 30.6255 21.016 31.3455 21.224C32.0655 21.416 32.8735 21.512 33.7695 21.512C34.2975 21.512 34.7935 21.464 35.2575 21.368C35.7215 21.256 36.1215 21.088 36.4575 20.864C36.7935 20.624 37.0575 20.328 37.2495 19.976C37.4575 19.624 37.5615 19.208 37.5615 18.728ZM42.3435 11.888C42.9515 11.52 43.6555 11.248 44.4555 11.072C45.2715 10.896 46.1195 10.808 46.9995 10.808C47.8315 10.808 48.4955 10.92 48.9915 11.144C49.5035 11.368 49.8875 11.664 50.1435 12.032C50.4155 12.384 50.5915 12.776 50.6715 13.208C50.7675 13.64 50.8155 14.072 50.8155 14.504C50.8155 15.464 50.7915 16.4 50.7435 17.312C50.6955 18.224 50.6715 19.088 50.6715 19.904C50.6715 20.496 50.6955 21.056 50.7435 21.584C50.7915 22.112 50.8795 22.6 51.0075 23.048H49.5915L49.0875 21.368H48.9675C48.8235 21.592 48.6395 21.816 48.4155 22.04C48.2075 22.248 47.9515 22.44 47.6475 22.616C47.3435 22.776 46.9915 22.912 46.5915 23.024C46.1915 23.136 45.7355 23.192 45.2235 23.192C44.7115 23.192 44.2315 23.112 43.7835 22.952C43.3515 22.792 42.9755 22.568 42.6555 22.28C42.3355 21.976 42.0795 21.616 41.8875 21.2C41.7115 20.784 41.6235 20.312 41.6235 19.784C41.6235 19.08 41.7675 18.496 42.0555 18.032C42.3435 17.552 42.7435 17.176 43.2555 16.904C43.7835 16.616 44.4075 16.416 45.1275 16.304C45.8635 16.176 46.6715 16.112 47.5515 16.112C47.7755 16.112 47.9915 16.112 48.1995 16.112C48.4235 16.112 48.6475 16.128 48.8715 16.16C48.9195 15.68 48.9435 15.248 48.9435 14.864C48.9435 13.984 48.7675 13.368 48.4155 13.016C48.0635 12.664 47.4235 12.488 46.4955 12.488C46.2235 12.488 45.9275 12.512 45.6075 12.56C45.3035 12.592 44.9835 12.648 44.6475 12.728C44.3275 12.792 44.0155 12.88 43.7115 12.992C43.4235 13.088 43.1675 13.2 42.9435 13.328L42.3435 11.888ZM45.7515 21.512C46.1995 21.512 46.5995 21.456 46.9515 21.344C47.3035 21.216 47.6075 21.064 47.8635 20.888C48.1195 20.696 48.3275 20.488 48.4875 20.264C48.6635 20.04 48.7915 19.824 48.8715 19.616V17.624C48.6475 17.608 48.4155 17.6 48.1755 17.6C47.9515 17.584 47.7275 17.576 47.5035 17.576C47.0075 17.576 46.5195 17.608 46.0395 17.672C45.5755 17.72 45.1595 17.824 44.7915 17.984C44.4395 18.128 44.1515 18.336 43.9275 18.608C43.7195 18.864 43.6155 19.192 43.6155 19.592C43.6155 20.152 43.8155 20.616 44.2155 20.984C44.6155 21.336 45.1275 21.512 45.7515 21.512ZM62.1458 23V16.16C62.1458 14.912 61.9618 13.976 61.5938 13.352C61.2418 12.712 60.5858 12.392 59.6258 12.392C58.7778 12.392 58.0738 12.624 57.5138 13.088C56.9698 13.536 56.5858 14.104 56.3618 14.792V23H54.4418V11H55.7858L56.1458 12.464H56.2418C56.6258 11.952 57.1378 11.536 57.7778 11.216C58.4338 10.88 59.2098 10.712 60.1058 10.712C60.7618 10.712 61.3378 10.792 61.8338 10.952C62.3298 11.096 62.7378 11.36 63.0578 11.744C63.3938 12.128 63.6418 12.648 63.8018 13.304C63.9778 13.944 64.0658 14.76 64.0658 15.752V23H62.1458ZM72.8468 19.736C72.8468 19.256 72.7028 18.88 72.4148 18.608C72.1268 18.336 71.7668 18.112 71.3348 17.936C70.9188 17.744 70.4548 17.568 69.9428 17.408C69.4468 17.232 68.9828 17.016 68.5508 16.76C68.1348 16.488 67.7828 16.144 67.4948 15.728C67.2068 15.312 67.0628 14.752 67.0628 14.048C67.0628 12.896 67.3908 12.056 68.0468 11.528C68.7028 10.984 69.6148 10.712 70.7828 10.712C71.6468 10.712 72.3668 10.792 72.9428 10.952C73.5348 11.096 74.0468 11.272 74.4788 11.48L74.0228 13.064C73.6548 12.888 73.2068 12.736 72.6788 12.608C72.1668 12.464 71.6148 12.392 71.0228 12.392C70.3188 12.392 69.7988 12.512 69.4628 12.752C69.1428 12.992 68.9828 13.408 68.9828 14C68.9828 14.416 69.1268 14.744 69.4148 14.984C69.7028 15.208 70.0548 15.416 70.4708 15.608C70.9028 15.784 71.3668 15.96 71.8628 16.136C72.3748 16.312 72.8388 16.544 73.2548 16.832C73.6868 17.12 74.0468 17.488 74.3348 17.936C74.6228 18.368 74.7668 18.944 74.7668 19.664C74.7668 20.176 74.6788 20.656 74.5028 21.104C74.3428 21.552 74.0868 21.936 73.7348 22.256C73.3828 22.576 72.9428 22.824 72.4148 23C71.9028 23.192 71.2948 23.288 70.5908 23.288C69.6788 23.288 68.9028 23.2 68.2628 23.024C67.6228 22.848 67.0868 22.64 66.6548 22.4L67.2308 20.768C67.5988 20.976 68.0788 21.168 68.6708 21.344C69.2628 21.52 69.8628 21.608 70.4708 21.608C71.1588 21.608 71.7268 21.472 72.1748 21.2C72.6228 20.928 72.8468 20.44 72.8468 19.736ZM84.2588 6.368C84.8668 6.256 85.5628 6.168 86.3468 6.104C87.1468 6.04 87.8748 6.008 88.5308 6.008C89.2668 6.008 89.9628 6.088 90.6188 6.248C91.2908 6.408 91.8748 6.672 92.3708 7.04C92.8828 7.408 93.2908 7.888 93.5948 8.48C93.8988 9.072 94.0508 9.792 94.0508 10.64C94.0508 11.952 93.6908 13.016 92.9708 13.832C92.2508 14.648 91.3388 15.192 90.2348 15.464L91.3868 16.352L95.5628 23H93.2348L88.6028 15.752L86.2508 15.392V23H84.2588V6.368ZM88.5788 7.736C88.3708 7.736 88.1548 7.736 87.9308 7.736C87.7068 7.736 87.4908 7.744 87.2828 7.76C87.0748 7.776 86.8748 7.792 86.6828 7.808C86.5068 7.824 86.3628 7.848 86.2508 7.88V14.072H88.1228C89.2268 14.072 90.1388 13.8 90.8588 13.256C91.5788 12.712 91.9388 11.864 91.9388 10.712C91.9388 9.848 91.6428 9.136 91.0508 8.576C90.4588 8.016 89.6348 7.736 88.5788 7.736ZM105.952 22.04C105.472 22.424 104.864 22.728 104.128 22.952C103.408 23.176 102.64 23.288 101.824 23.288C100.912 23.288 100.12 23.144 99.4478 22.856C98.7758 22.552 98.2238 22.128 97.7918 21.584C97.3598 21.024 97.0398 20.36 96.8318 19.592C96.6238 18.824 96.5198 17.96 96.5198 17C96.5198 14.952 96.9758 13.392 97.8878 12.32C98.7998 11.248 100.104 10.712 101.8 10.712C102.344 10.712 102.888 10.776 103.432 10.904C103.976 11.016 104.464 11.24 104.896 11.576C105.328 11.912 105.68 12.392 105.952 13.016C106.224 13.624 106.36 14.432 106.36 15.44C106.36 15.968 106.312 16.552 106.216 17.192H98.5117C98.5117 17.896 98.5838 18.52 98.7278 19.064C98.8718 19.608 99.0958 20.072 99.3998 20.456C99.7038 20.824 100.096 21.112 100.576 21.32C101.072 21.512 101.672 21.608 102.376 21.608C102.92 21.608 103.464 21.512 104.008 21.32C104.552 21.128 104.96 20.904 105.232 20.648L105.952 22.04ZM101.824 12.392C100.88 12.392 100.12 12.64 99.5438 13.136C98.9838 13.632 98.6478 14.48 98.5358 15.68H104.488C104.488 14.464 104.256 13.616 103.792 13.136C103.328 12.64 102.672 12.392 101.824 12.392ZM118.313 23.552C118.313 25.104 117.897 26.248 117.065 26.984C116.249 27.72 115.033 28.088 113.417 28.088C112.457 28.088 111.681 28.024 111.089 27.896C110.513 27.784 110.017 27.632 109.601 27.44L110.105 25.808C110.473 25.952 110.881 26.088 111.329 26.216C111.777 26.344 112.361 26.408 113.081 26.408C113.753 26.408 114.297 26.344 114.713 26.216C115.145 26.104 115.489 25.904 115.745 25.616C116.001 25.344 116.177 24.984 116.273 24.536C116.369 24.104 116.417 23.584 116.417 22.976V21.824H116.321C116.001 22.288 115.593 22.648 115.097 22.904C114.601 23.144 113.953 23.264 113.153 23.264C111.537 23.264 110.345 22.76 109.577 21.752C108.825 20.744 108.449 19.176 108.449 17.048C108.449 15 108.937 13.448 109.913 12.392C110.889 11.32 112.329 10.784 114.233 10.784C115.145 10.784 115.921 10.856 116.561 11C117.217 11.144 117.801 11.312 118.313 11.504V23.552ZM113.489 21.584C114.305 21.584 114.945 21.384 115.409 20.984C115.873 20.568 116.201 19.928 116.393 19.064V12.92C115.753 12.616 114.937 12.464 113.945 12.464C112.857 12.464 112.001 12.832 111.377 13.568C110.753 14.304 110.441 15.456 110.441 17.024C110.441 17.696 110.497 18.312 110.609 18.872C110.721 19.432 110.897 19.912 111.137 20.312C111.377 20.712 111.689 21.024 112.073 21.248C112.457 21.472 112.929 21.584 113.489 21.584ZM123.74 11V17.84C123.74 18.464 123.772 19.016 123.836 19.496C123.916 19.96 124.044 20.352 124.22 20.672C124.396 20.976 124.636 21.208 124.94 21.368C125.244 21.528 125.628 21.608 126.092 21.608C126.524 21.608 126.908 21.544 127.244 21.416C127.58 21.272 127.876 21.08 128.132 20.84C128.404 20.6 128.636 20.328 128.828 20.024C129.036 19.704 129.204 19.368 129.332 19.016V11H131.252V19.592C131.252 20.168 131.268 20.768 131.3 21.392C131.348 22 131.42 22.536 131.516 23H130.196L129.716 21.104H129.596C129.228 21.728 128.732 22.248 128.108 22.664C127.484 23.08 126.692 23.288 125.732 23.288C125.092 23.288 124.524 23.208 124.028 23.048C123.548 22.904 123.14 22.64 122.804 22.256C122.484 21.872 122.236 21.36 122.06 20.72C121.9 20.064 121.82 19.24 121.82 18.248V11H123.74ZM137.086 20.048C137.086 20.608 137.182 21.008 137.374 21.248C137.566 21.488 137.838 21.608 138.19 21.608C138.398 21.608 138.622 21.592 138.862 21.56C139.102 21.528 139.374 21.456 139.678 21.344L139.894 22.856C139.638 22.984 139.278 23.088 138.814 23.168C138.366 23.248 137.974 23.288 137.638 23.288C136.918 23.288 136.326 23.088 135.862 22.688C135.398 22.272 135.166 21.576 135.166 20.6V6.2H137.086V20.048ZM141.765 11.888C142.373 11.52 143.077 11.248 143.877 11.072C144.693 10.896 145.541 10.808 146.421 10.808C147.253 10.808 147.917 10.92 148.413 11.144C148.925 11.368 149.309 11.664 149.565 12.032C149.837 12.384 150.013 12.776 150.093 13.208C150.189 13.64 150.237 14.072 150.237 14.504C150.237 15.464 150.213 16.4 150.165 17.312C150.117 18.224 150.093 19.088 150.093 19.904C150.093 20.496 150.117 21.056 150.165 21.584C150.213 22.112 150.301 22.6 150.429 23.048H149.013L148.509 21.368H148.389C148.245 21.592 148.061 21.816 147.837 22.04C147.629 22.248 147.373 22.44 147.069 22.616C146.765 22.776 146.413 22.912 146.013 23.024C145.613 23.136 145.157 23.192 144.645 23.192C144.133 23.192 143.653 23.112 143.205 22.952C142.773 22.792 142.397 22.568 142.077 22.28C141.757 21.976 141.501 21.616 141.309 21.2C141.133 20.784 141.045 20.312 141.045 19.784C141.045 19.08 141.189 18.496 141.477 18.032C141.765 17.552 142.165 17.176 142.677 16.904C143.205 16.616 143.829 16.416 144.549 16.304C145.285 16.176 146.093 16.112 146.973 16.112C147.197 16.112 147.413 16.112 147.621 16.112C147.845 16.112 148.069 16.128 148.293 16.16C148.341 15.68 148.365 15.248 148.365 14.864C148.365 13.984 148.189 13.368 147.837 13.016C147.485 12.664 146.845 12.488 145.917 12.488C145.645 12.488 145.349 12.512 145.029 12.56C144.725 12.592 144.405 12.648 144.069 12.728C143.749 12.792 143.437 12.88 143.133 12.992C142.845 13.088 142.589 13.2 142.365 13.328L141.765 11.888ZM145.173 21.512C145.621 21.512 146.021 21.456 146.373 21.344C146.725 21.216 147.029 21.064 147.285 20.888C147.541 20.696 147.749 20.488 147.909 20.264C148.085 20.04 148.213 19.824 148.293 19.616V17.624C148.069 17.608 147.837 17.6 147.597 17.6C147.373 17.584 147.149 17.576 146.925 17.576C146.429 17.576 145.941 17.608 145.461 17.672C144.997 17.72 144.581 17.824 144.213 17.984C143.861 18.128 143.573 18.336 143.349 18.608C143.141 18.864 143.037 19.192 143.037 19.592C143.037 20.152 143.237 20.616 143.637 20.984C144.037 21.336 144.549 21.512 145.173 21.512ZM159.528 12.848C159.048 12.688 158.592 12.608 158.16 12.608C157.472 12.608 156.928 12.8 156.528 13.184C156.128 13.552 155.88 14.024 155.784 14.6V23H153.864V11H155.208L155.568 12.464H155.664C155.968 11.92 156.328 11.504 156.744 11.216C157.176 10.912 157.72 10.76 158.376 10.76C158.84 10.76 159.36 10.84 159.936 11L159.528 12.848Z" fill="black"/>
<path d="M10.032 74.344H3.84L2.16 79H0.192L6.552 61.936H7.464L13.848 79H11.76L10.032 74.344ZM4.488 72.616H9.432L7.56 67.504L6.96 64.96H6.936L6.336 67.552L4.488 72.616ZM15.6951 67.888C16.3031 67.52 17.0071 67.248 17.8071 67.072C18.6231 66.896 19.4711 66.808 20.3511 66.808C21.1831 66.808 21.8471 66.92 22.3431 67.144C22.8551 67.368 23.2391 67.664 23.4951 68.032C23.7671 68.384 23.9431 68.776 24.0231 69.208C24.1191 69.64 24.1671 70.072 24.1671 70.504C24.1671 71.464 24.1431 72.4 24.0951 73.312C24.0471 74.224 24.0231 75.088 24.0231 75.904C24.0231 76.496 24.0471 77.056 24.0951 77.584C24.1431 78.112 24.2311 78.6 24.3591 79.048H22.9431L22.4391 77.368H22.3191C22.1751 77.592 21.9911 77.816 21.7671 78.04C21.5591 78.248 21.3031 78.44 20.9991 78.616C20.6951 78.776 20.3431 78.912 19.9431 79.024C19.5431 79.136 19.0871 79.192 18.5751 79.192C18.0631 79.192 17.5831 79.112 17.1351 78.952C16.7031 78.792 16.3271 78.568 16.0071 78.28C15.6871 77.976 15.4311 77.616 15.2391 77.2C15.0631 76.784 14.9751 76.312 14.9751 75.784C14.9751 75.08 15.1191 74.496 15.4071 74.032C15.6951 73.552 16.0951 73.176 16.6071 72.904C17.1351 72.616 17.7591 72.416 18.4791 72.304C19.2151 72.176 20.0231 72.112 20.9031 72.112C21.1271 72.112 21.3431 72.112 21.5511 72.112C21.7751 72.112 21.9991 72.128 22.2231 72.16C22.2711 71.68 22.2951 71.248 22.2951 70.864C22.2951 69.984 22.1191 69.368 21.7671 69.016C21.4151 68.664 20.7751 68.488 19.8471 68.488C19.5751 68.488 19.2791 68.512 18.9591 68.56C18.6551 68.592 18.3351 68.648 17.9991 68.728C17.6791 68.792 17.3671 68.88 17.0631 68.992C16.7751 69.088 16.5191 69.2 16.2951 69.328L15.6951 67.888ZM19.1031 77.512C19.5511 77.512 19.9511 77.456 20.3031 77.344C20.6551 77.216 20.9591 77.064 21.2151 76.888C21.4711 76.696 21.6791 76.488 21.8391 76.264C22.0151 76.04 22.1431 75.824 22.2231 75.616V73.624C21.9991 73.608 21.7671 73.6 21.5271 73.6C21.3031 73.584 21.0791 73.576 20.8551 73.576C20.3591 73.576 19.8711 73.608 19.3911 73.672C18.9271 73.72 18.5111 73.824 18.1431 73.984C17.7911 74.128 17.5031 74.336 17.2791 74.608C17.0711 74.864 16.9671 75.192 16.9671 75.592C16.9671 76.152 17.1671 76.616 17.5671 76.984C17.9671 77.336 18.4791 77.512 19.1031 77.512ZM44.5118 66.04C44.5118 66.44 44.4478 66.848 44.3198 67.264C44.1918 67.68 43.9998 68.072 43.7438 68.44C43.4878 68.792 43.1598 69.104 42.7598 69.376C42.3598 69.648 41.8878 69.856 41.3438 70V70.096C41.8238 70.176 42.2798 70.312 42.7118 70.504C43.1598 70.696 43.5518 70.96 43.8878 71.296C44.2238 71.632 44.4958 72.04 44.7038 72.52C44.9118 73 45.0157 73.568 45.0157 74.224C45.0157 75.088 44.8317 75.84 44.4637 76.48C44.1118 77.104 43.6398 77.616 43.0478 78.016C42.4718 78.416 41.8078 78.712 41.0558 78.904C40.3038 79.096 39.5358 79.192 38.7518 79.192C38.4798 79.192 38.1598 79.192 37.7918 79.192C37.4238 79.192 37.0398 79.176 36.6398 79.144C36.2398 79.128 35.8398 79.096 35.4398 79.048C35.0398 79.016 34.6878 78.96 34.3838 78.88V62.344C34.9758 62.248 35.6638 62.168 36.4478 62.104C37.2318 62.04 38.0878 62.008 39.0158 62.008C39.6398 62.008 40.2718 62.064 40.9118 62.176C41.5678 62.272 42.1598 62.472 42.6878 62.776C43.2158 63.064 43.6478 63.472 43.9838 64C44.3358 64.528 44.5118 65.208 44.5118 66.04ZM38.9438 77.464C39.4558 77.464 39.9518 77.408 40.4318 77.296C40.9118 77.168 41.3358 76.976 41.7038 76.72C42.0718 76.448 42.3598 76.12 42.5678 75.736C42.7918 75.352 42.9038 74.896 42.9038 74.368C42.9038 73.712 42.7678 73.184 42.4958 72.784C42.2398 72.384 41.8958 72.072 41.4638 71.848C41.0478 71.624 40.5758 71.472 40.0478 71.392C39.5198 71.312 38.9918 71.272 38.4638 71.272H36.3758V77.296C36.4878 77.328 36.6478 77.352 36.8558 77.368C37.0638 77.384 37.2878 77.4 37.5278 77.416C37.7678 77.432 38.0158 77.448 38.2718 77.464C38.5278 77.464 38.7518 77.464 38.9438 77.464ZM37.6238 69.592C37.8958 69.592 38.2238 69.584 38.6078 69.568C38.9918 69.552 39.3118 69.528 39.5678 69.496C39.9518 69.368 40.3118 69.216 40.6478 69.04C40.9838 68.848 41.2798 68.632 41.5358 68.392C41.8078 68.136 42.0158 67.848 42.1598 67.528C42.3198 67.192 42.3998 66.832 42.3998 66.448C42.3998 65.92 42.2958 65.488 42.0878 65.152C41.8958 64.8 41.6318 64.52 41.2958 64.312C40.9598 64.104 40.5758 63.96 40.1438 63.88C39.7118 63.784 39.2718 63.736 38.8238 63.736C38.2958 63.736 37.8078 63.752 37.3598 63.784C36.9278 63.8 36.5998 63.832 36.3758 63.88V69.592H37.6238ZM48.2074 62.2H50.1274V68.176H50.2234C50.5914 67.712 51.0554 67.352 51.6154 67.096C52.1914 66.84 52.8154 66.712 53.4874 66.712C55.0394 66.712 56.1994 67.208 56.9674 68.2C57.7514 69.192 58.1434 70.728 58.1434 72.808C58.1434 74.904 57.6314 76.496 56.6074 77.584C55.5834 78.672 54.1434 79.216 52.2874 79.216C51.3914 79.216 50.5754 79.12 49.8394 78.928C49.1194 78.736 48.5754 78.528 48.2074 78.304V62.2ZM53.1514 68.392C52.3514 68.392 51.7034 68.616 51.2074 69.064C50.7114 69.512 50.3514 70.144 50.1274 70.96V77.008C50.4314 77.184 50.7994 77.32 51.2314 77.416C51.6634 77.496 52.1114 77.536 52.5754 77.536C53.6634 77.536 54.5274 77.152 55.1674 76.384C55.8234 75.616 56.1514 74.416 56.1514 72.784C56.1514 72.16 56.0954 71.576 55.9834 71.032C55.8714 70.488 55.6954 70.024 55.4554 69.64C55.2154 69.256 54.9034 68.952 54.5194 68.728C54.1514 68.504 53.6954 68.392 53.1514 68.392ZM78.5108 78.304C78.0308 78.672 77.4228 78.928 76.6868 79.072C75.9508 79.216 75.1668 79.288 74.3348 79.288C73.3268 79.288 72.3828 79.12 71.5028 78.784C70.6228 78.432 69.8548 77.904 69.1988 77.2C68.5428 76.496 68.0228 75.6 67.6388 74.512C67.2548 73.408 67.0628 72.104 67.0628 70.6C67.0628 69.032 67.2708 67.704 67.6868 66.616C68.1188 65.512 68.6788 64.616 69.3668 63.928C70.0708 63.224 70.8548 62.712 71.7188 62.392C72.5828 62.072 73.4628 61.912 74.3588 61.912C75.3188 61.912 76.1028 61.968 76.7108 62.08C77.3188 62.176 77.8388 62.312 78.2708 62.488L77.7908 64.24C77.0228 63.872 75.9268 63.688 74.5028 63.688C73.8468 63.688 73.1988 63.808 72.5588 64.048C71.9188 64.288 71.3428 64.68 70.8308 65.224C70.3348 65.768 69.9348 66.48 69.6308 67.36C69.3268 68.24 69.1748 69.32 69.1748 70.6C69.1748 71.752 69.3188 72.76 69.6068 73.624C69.8948 74.488 70.2868 75.208 70.7828 75.784C71.2948 76.36 71.8868 76.792 72.5588 77.08C73.2468 77.368 73.9908 77.512 74.7908 77.512C75.5108 77.512 76.1348 77.44 76.6628 77.296C77.2068 77.152 77.6628 76.968 78.0308 76.744L78.5108 78.304ZM88.6179 78.208C88.1379 78.56 87.5699 78.824 86.9139 79C86.2579 79.192 85.5699 79.288 84.8499 79.288C83.9219 79.288 83.1379 79.144 82.4979 78.856C81.8579 78.552 81.3299 78.128 80.9139 77.584C80.5139 77.024 80.2179 76.36 80.0259 75.592C79.8499 74.808 79.7619 73.944 79.7619 73C79.7619 70.968 80.2099 69.416 81.1059 68.344C82.0019 67.256 83.2899 66.712 84.9699 66.712C85.7379 66.712 86.3859 66.776 86.9139 66.904C87.4579 67.016 87.9459 67.184 88.3779 67.408L87.8259 69.064C87.4579 68.856 87.0499 68.696 86.6019 68.584C86.1539 68.456 85.6739 68.392 85.1619 68.392C82.8899 68.392 81.7539 69.928 81.7539 73C81.7539 73.608 81.8099 74.192 81.9219 74.752C82.0499 75.296 82.2499 75.784 82.5219 76.216C82.8099 76.632 83.1779 76.968 83.6259 77.224C84.0899 77.48 84.6579 77.608 85.3299 77.608C85.9059 77.608 86.4179 77.52 86.8659 77.344C87.3299 77.168 87.7059 76.968 87.9939 76.744L88.6179 78.208ZM97.2666 62.2C97.5706 62.152 97.9066 62.12 98.2746 62.104C98.6586 62.072 99.0506 62.056 99.4506 62.056C99.8666 62.04 100.267 62.032 100.651 62.032C101.051 62.016 101.419 62.008 101.755 62.008C103.099 62.008 104.259 62.216 105.235 62.632C106.227 63.048 107.043 63.632 107.683 64.384C108.323 65.12 108.795 66.008 109.099 67.048C109.419 68.088 109.579 69.232 109.579 70.48C109.579 71.616 109.427 72.712 109.123 73.768C108.835 74.808 108.371 75.736 107.731 76.552C107.091 77.352 106.259 78 105.235 78.496C104.211 78.976 102.971 79.216 101.515 79.216C101.259 79.216 100.923 79.208 100.507 79.192C100.107 79.192 99.6906 79.176 99.2586 79.144C98.8266 79.128 98.4266 79.112 98.0586 79.096C97.6906 79.08 97.4266 79.056 97.2666 79.024V62.2ZM101.803 63.784C101.595 63.784 101.363 63.784 101.107 63.784C100.867 63.784 100.627 63.792 100.387 63.808C100.147 63.824 99.9226 63.84 99.7146 63.856C99.5226 63.872 99.3706 63.888 99.2586 63.904V77.344C99.3386 77.36 99.4906 77.376 99.7146 77.392C99.9386 77.392 100.171 77.4 100.411 77.416C100.651 77.416 100.883 77.424 101.107 77.44C101.331 77.44 101.483 77.44 101.563 77.44C102.683 77.44 103.619 77.248 104.371 76.864C105.139 76.48 105.747 75.968 106.195 75.328C106.659 74.672 106.987 73.928 107.179 73.096C107.371 72.248 107.467 71.376 107.467 70.48C107.467 69.696 107.379 68.912 107.203 68.128C107.027 67.328 106.723 66.608 106.291 65.968C105.859 65.328 105.275 64.808 104.539 64.408C103.819 63.992 102.907 63.784 101.803 63.784ZM121.994 74.872C121.994 75.688 122.002 76.432 122.018 77.104C122.034 77.76 122.106 78.408 122.234 79.048H120.938L120.458 77.344H120.362C120.042 77.904 119.578 78.368 118.97 78.736C118.362 79.104 117.65 79.288 116.834 79.288C115.234 79.288 114.042 78.784 113.258 77.776C112.49 76.768 112.106 75.192 112.106 73.048C112.106 71 112.586 69.448 113.546 68.392C114.522 67.32 115.858 66.784 117.554 66.784C118.146 66.784 118.61 66.816 118.946 66.88C119.298 66.944 119.674 67.048 120.074 67.192V62.2H121.994V74.872ZM117.146 77.608C117.962 77.608 118.61 77.4 119.09 76.984C119.57 76.552 119.898 75.904 120.074 75.04V69.088C119.786 68.864 119.458 68.704 119.09 68.608C118.722 68.512 118.234 68.464 117.626 68.464C116.522 68.464 115.658 68.832 115.034 69.568C114.41 70.288 114.098 71.448 114.098 73.048C114.098 73.704 114.146 74.312 114.242 74.872C114.354 75.432 114.53 75.912 114.77 76.312C115.01 76.712 115.322 77.032 115.706 77.272C116.106 77.496 116.586 77.608 117.146 77.608ZM132.282 62.2H141.426V63.976H134.274V69.472H140.826V71.248H134.274V77.224H141.546V79H132.282V62.2ZM153.717 78.04C153.237 78.424 152.629 78.728 151.893 78.952C151.173 79.176 150.405 79.288 149.589 79.288C148.677 79.288 147.885 79.144 147.213 78.856C146.541 78.552 145.989 78.128 145.557 77.584C145.125 77.024 144.805 76.36 144.597 75.592C144.389 74.824 144.285 73.96 144.285 73C144.285 70.952 144.741 69.392 145.653 68.32C146.565 67.248 147.869 66.712 149.565 66.712C150.109 66.712 150.653 66.776 151.197 66.904C151.741 67.016 152.229 67.24 152.661 67.576C153.093 67.912 153.445 68.392 153.717 69.016C153.989 69.624 154.125 70.432 154.125 71.44C154.125 71.968 154.077 72.552 153.981 73.192H146.277C146.277 73.896 146.349 74.52 146.493 75.064C146.637 75.608 146.861 76.072 147.165 76.456C147.469 76.824 147.861 77.112 148.341 77.32C148.837 77.512 149.437 77.608 150.141 77.608C150.685 77.608 151.229 77.512 151.773 77.32C152.317 77.128 152.725 76.904 152.997 76.648L153.717 78.04ZM149.589 68.392C148.645 68.392 147.885 68.64 147.309 69.136C146.749 69.632 146.413 70.48 146.301 71.68H152.253C152.253 70.464 152.021 69.616 151.557 69.136C151.093 68.64 150.437 68.392 149.589 68.392ZM163.735 62.2H172.879V63.976H165.727V69.712H172.399V71.488H165.727V79H163.735V62.2ZM174.622 67H176.494V66.328C176.494 65.592 176.55 64.952 176.662 64.408C176.79 63.864 176.99 63.424 177.262 63.088C177.534 62.736 177.886 62.48 178.318 62.32C178.75 62.144 179.286 62.056 179.926 62.056C180.438 62.056 180.886 62.088 181.27 62.152C181.67 62.216 182.086 62.336 182.518 62.512L182.086 64.12C181.718 63.96 181.366 63.856 181.03 63.808C180.71 63.76 180.406 63.736 180.118 63.736C179.702 63.736 179.374 63.8 179.134 63.928C178.91 64.056 178.742 64.248 178.63 64.504C178.534 64.744 178.47 65.048 178.438 65.416C178.422 65.768 178.414 66.184 178.414 66.664V67H181.606V68.68H178.414V79H176.494V68.68H174.622V67ZM195.86 70.624H201.5V78.016C201.244 78.208 200.932 78.384 200.564 78.544C200.212 78.704 199.828 78.84 199.412 78.952C199.012 79.064 198.588 79.144 198.14 79.192C197.708 79.256 197.284 79.288 196.868 79.288C195.796 79.288 194.812 79.12 193.916 78.784C193.02 78.432 192.244 77.904 191.588 77.2C190.932 76.48 190.42 75.576 190.052 74.488C189.684 73.384 189.5 72.088 189.5 70.6C189.5 69.048 189.724 67.72 190.172 66.616C190.62 65.512 191.204 64.616 191.924 63.928C192.644 63.224 193.452 62.712 194.348 62.392C195.244 62.072 196.14 61.912 197.036 61.912C197.996 61.912 198.788 61.968 199.412 62.08C200.036 62.176 200.564 62.312 200.996 62.488L200.492 64.24C199.724 63.872 198.628 63.688 197.204 63.688C196.532 63.688 195.86 63.808 195.188 64.048C194.532 64.272 193.94 64.656 193.412 65.2C192.884 65.744 192.452 66.456 192.116 67.336C191.78 68.216 191.612 69.304 191.612 70.6C191.612 71.784 191.748 72.808 192.02 73.672C192.292 74.536 192.668 75.256 193.148 75.832C193.644 76.392 194.236 76.816 194.924 77.104C195.612 77.376 196.364 77.512 197.18 77.512C198.204 77.512 199.076 77.312 199.796 76.912V72.232L195.86 71.752V70.624ZM213.892 79.552C213.892 81.104 213.476 82.248 212.644 82.984C211.828 83.72 210.612 84.088 208.996 84.088C208.036 84.088 207.26 84.024 206.668 83.896C206.092 83.784 205.596 83.632 205.18 83.44L205.684 81.808C206.052 81.952 206.46 82.088 206.908 82.216C207.356 82.344 207.94 82.408 208.66 82.408C209.332 82.408 209.876 82.344 210.292 82.216C210.724 82.104 211.068 81.904 211.324 81.616C211.58 81.344 211.756 80.984 211.852 80.536C211.948 80.104 211.996 79.584 211.996 78.976V77.824H211.9C211.58 78.288 211.172 78.648 210.676 78.904C210.18 79.144 209.532 79.264 208.732 79.264C207.116 79.264 205.924 78.76 205.156 77.752C204.404 76.744 204.028 75.176 204.028 73.048C204.028 71 204.516 69.448 205.492 68.392C206.468 67.32 207.908 66.784 209.812 66.784C210.724 66.784 211.5 66.856 212.14 67C212.796 67.144 213.38 67.312 213.892 67.504V79.552ZM209.068 77.584C209.884 77.584 210.524 77.384 210.988 76.984C211.452 76.568 211.78 75.928 211.972 75.064V68.92C211.332 68.616 210.516 68.464 209.524 68.464C208.436 68.464 207.58 68.832 206.956 69.568C206.332 70.304 206.02 71.456 206.02 73.024C206.02 73.696 206.076 74.312 206.188 74.872C206.3 75.432 206.476 75.912 206.716 76.312C206.956 76.712 207.268 77.024 207.652 77.248C208.036 77.472 208.508 77.584 209.068 77.584ZM234.237 71.296H226.173V79H224.181V62.2H226.173V69.52H234.237V62.2H236.229V79H234.237V71.296ZM247.818 79V72.16C247.818 71.536 247.778 70.992 247.698 70.528C247.634 70.048 247.506 69.656 247.314 69.352C247.122 69.032 246.858 68.792 246.522 68.632C246.202 68.472 245.778 68.392 245.25 68.392C244.498 68.392 243.818 68.64 243.21 69.136C242.602 69.616 242.21 70.24 242.034 71.008V79H240.114V62.2H242.034V68.344H242.13C242.546 67.848 243.042 67.456 243.618 67.168C244.21 66.864 244.938 66.712 245.802 66.712C246.474 66.712 247.058 66.792 247.554 66.952C248.05 67.096 248.458 67.36 248.778 67.744C249.114 68.128 249.354 68.648 249.498 69.304C249.658 69.944 249.738 70.76 249.738 71.752V79H247.818ZM260.285 62.2H262.277V79H260.285V62.2ZM267.029 67H268.949V79H267.029V67ZM266.621 63.352C266.621 62.984 266.741 62.672 266.981 62.416C267.237 62.144 267.557 62.008 267.941 62.008C268.325 62.008 268.653 62.144 268.925 62.416C269.197 62.672 269.333 62.984 269.333 63.352C269.333 63.72 269.197 64.024 268.925 64.264C268.653 64.504 268.325 64.624 267.941 64.624C267.557 64.624 267.237 64.504 266.981 64.264C266.741 64.024 266.621 63.72 266.621 63.352ZM280.282 62.2H282.274V75.304C282.274 76.584 281.986 77.56 281.41 78.232C280.85 78.904 279.994 79.24 278.842 79.24C278.714 79.24 278.554 79.232 278.362 79.216C278.17 79.2 277.978 79.176 277.786 79.144C277.594 79.112 277.41 79.072 277.234 79.024C277.042 78.976 276.89 78.92 276.778 78.856L277.162 77.152C277.61 77.36 278.098 77.464 278.626 77.464C279.298 77.464 279.738 77.232 279.946 76.768C280.17 76.288 280.282 75.64 280.282 74.824V62.2ZM286.81 67H288.73V79.648C288.73 81.136 288.474 82.248 287.962 82.984C287.45 83.72 286.634 84.088 285.514 84.088C285.386 84.088 285.266 84.08 285.154 84.064C285.042 84.064 284.922 84.056 284.794 84.04V82.408C285.242 82.408 285.594 82.336 285.85 82.192C286.122 82.064 286.33 81.856 286.474 81.568C286.618 81.28 286.706 80.912 286.738 80.464C286.786 80.032 286.81 79.52 286.81 78.928V67ZM286.402 63.352C286.402 62.984 286.522 62.672 286.762 62.416C287.018 62.144 287.338 62.008 287.722 62.008C288.106 62.008 288.434 62.144 288.706 62.416C288.978 62.672 289.114 62.984 289.114 63.352C289.114 63.72 288.978 64.024 288.706 64.264C288.434 64.504 288.106 64.624 287.722 64.624C287.338 64.624 287.018 64.504 286.762 64.264C286.522 64.024 286.402 63.72 286.402 63.352ZM302.535 71.224H301.407V79H299.415V62.2H301.407V70.024L302.487 69.688L308.127 62.2H310.431L304.815 69.424L303.807 70.216L305.031 71.176L311.175 79H308.655L302.535 71.224ZM316.895 73.6H315.791V79H313.871V62.2H315.791V72.424L316.775 72.088L320.495 67H322.727L319.055 71.824L318.071 72.616L319.271 73.576L323.279 79H320.903L316.895 73.6ZM341.156 79H331.22V62.2H333.212V77.224H341.156V79ZM345.562 76.048C345.562 76.608 345.658 77.008 345.85 77.248C346.042 77.488 346.314 77.608 346.666 77.608C346.874 77.608 347.098 77.592 347.338 77.56C347.578 77.528 347.85 77.456 348.154 77.344L348.37 78.856C348.114 78.984 347.754 79.088 347.29 79.168C346.842 79.248 346.45 79.288 346.114 79.288C345.394 79.288 344.802 79.088 344.338 78.688C343.874 78.272 343.642 77.576 343.642 76.6V62.2H345.562V76.048ZM369.936 67.72L370.176 65.2H370.056L369.144 67.504L364.776 75.088H364.176L359.544 67.48L358.68 65.2H358.56L358.896 67.696V79H357.024V62.2H358.512L363.768 70.792L364.56 72.664H364.608L365.352 70.744L370.368 62.2H371.928V79H369.936V67.72ZM382.849 79V72.208C382.849 71.568 382.817 71.016 382.753 70.552C382.705 70.072 382.601 69.672 382.441 69.352C382.281 69.032 382.049 68.792 381.745 68.632C381.457 68.472 381.073 68.392 380.593 68.392C379.857 68.392 379.241 68.616 378.745 69.064C378.265 69.512 377.929 70.072 377.737 70.744V79H375.817V67H377.161L377.521 68.464H377.617C378.049 67.952 378.545 67.536 379.105 67.216C379.681 66.88 380.425 66.712 381.337 66.712C382.105 66.712 382.729 66.864 383.209 67.168C383.705 67.456 384.089 67.968 384.361 68.704C384.729 68.08 385.233 67.592 385.873 67.24C386.529 66.888 387.265 66.712 388.081 66.712C388.753 66.712 389.321 66.792 389.785 66.952C390.249 67.096 390.633 67.36 390.937 67.744C391.241 68.128 391.457 68.648 391.585 69.304C391.729 69.96 391.801 70.792 391.801 71.8V79H389.881V71.776C389.881 71.2 389.849 70.704 389.785 70.288C389.737 69.856 389.625 69.504 389.449 69.232C389.289 68.944 389.057 68.736 388.753 68.608C388.465 68.464 388.081 68.392 387.601 68.392C386.801 68.392 386.177 68.616 385.729 69.064C385.281 69.512 384.961 70.152 384.769 70.984V79H382.849ZM5.064 99.008L3.768 96.584H3.672L3.912 99.008V110H2.04V92.936H3.096L11.136 104.144L12.384 106.448H12.504L12.24 104.144V93.2H14.112V110.264H13.056L5.064 99.008ZM25.7004 110V103.16C25.7004 101.912 25.5164 100.976 25.1484 100.352C24.7964 99.712 24.1404 99.392 23.1804 99.392C22.3324 99.392 21.6284 99.624 21.0684 100.088C20.5244 100.536 20.1404 101.104 19.9164 101.792V110H17.9964V98H19.3404L19.7004 99.464H19.7964C20.1804 98.952 20.6924 98.536 21.3324 98.216C21.9884 97.88 22.7644 97.712 23.6604 97.712C24.3164 97.712 24.8924 97.792 25.3884 97.952C25.8844 98.096 26.2924 98.36 26.6124 98.744C26.9484 99.128 27.1964 99.648 27.3564 100.304C27.5324 100.944 27.6204 101.76 27.6204 102.752V110H25.7004ZM37.0159 101.6C37.0159 98.8 37.6079 96.656 38.7919 95.168C39.9759 93.664 41.6639 92.912 43.8559 92.912C45.0399 92.912 46.0639 93.12 46.9279 93.536C47.7919 93.952 48.5039 94.544 49.0639 95.312C49.6399 96.064 50.0639 96.976 50.3359 98.048C50.6079 99.104 50.7439 100.288 50.7439 101.6C50.7439 104.4 50.1439 106.552 48.9439 108.056C47.7599 109.544 46.0639 110.288 43.8559 110.288C42.6879 110.288 41.6719 110.08 40.8079 109.664C39.9599 109.248 39.2479 108.664 38.6719 107.912C38.1119 107.144 37.6959 106.232 37.4239 105.176C37.1519 104.104 37.0159 102.912 37.0159 101.6ZM39.1279 101.6C39.1279 102.528 39.2159 103.408 39.3919 104.24C39.5839 105.072 39.8719 105.808 40.2559 106.448C40.6399 107.072 41.1279 107.576 41.7199 107.96C42.3279 108.328 43.0399 108.512 43.8559 108.512C45.3439 108.512 46.5119 107.952 47.3599 106.832C48.2079 105.696 48.6319 103.952 48.6319 101.6C48.6319 100.688 48.5359 99.816 48.3439 98.984C48.1679 98.136 47.8799 97.4 47.4799 96.776C47.0959 96.136 46.5999 95.632 45.9919 95.264C45.3999 94.88 44.6879 94.688 43.8559 94.688C42.3839 94.688 41.2239 95.256 40.3759 96.392C39.5439 97.512 39.1279 99.248 39.1279 101.6ZM53.2541 104C53.2541 101.968 53.7021 100.416 54.5981 99.344C55.5101 98.256 56.8141 97.712 58.5101 97.712C59.4061 97.712 60.1821 97.864 60.8381 98.168C61.5101 98.456 62.0621 98.88 62.4941 99.44C62.9261 99.984 63.2461 100.648 63.4541 101.432C63.6621 102.2 63.7661 103.056 63.7661 104C63.7661 106.032 63.3101 107.592 62.3981 108.68C61.5021 109.752 60.2061 110.288 58.5101 110.288C57.6141 110.288 56.8301 110.144 56.1581 109.856C55.5021 109.552 54.9581 109.128 54.5261 108.584C54.0941 108.024 53.7741 107.36 53.5661 106.592C53.3581 105.808 53.2541 104.944 53.2541 104ZM55.2461 104C55.2461 104.608 55.3021 105.192 55.4141 105.752C55.5421 106.312 55.7341 106.8 55.9901 107.216C56.2461 107.632 56.5821 107.968 56.9981 108.224C57.4141 108.48 57.9181 108.608 58.5101 108.608C60.6861 108.624 61.7741 107.088 61.7741 104C61.7741 103.376 61.7101 102.784 61.5821 102.224C61.4701 101.664 61.2861 101.176 61.0301 100.76C60.7741 100.344 60.4381 100.016 60.0221 99.776C59.6061 99.52 59.1021 99.392 58.5101 99.392C56.3341 99.376 55.2461 100.912 55.2461 104ZM73.3838 93.368C73.9918 93.224 74.6478 93.128 75.3518 93.08C76.0558 93.032 76.7518 93.008 77.4398 93.008C78.1758 93.008 78.9198 93.08 79.6718 93.224C80.4398 93.368 81.1358 93.632 81.7598 94.016C82.3838 94.4 82.8878 94.928 83.2718 95.6C83.6718 96.272 83.8718 97.128 83.8718 98.168C83.8718 99.192 83.6878 100.056 83.3198 100.76C82.9518 101.464 82.4638 102.04 81.8558 102.488C81.2478 102.92 80.5518 103.232 79.7678 103.424C78.9838 103.616 78.1758 103.712 77.3438 103.712C77.2638 103.712 77.1278 103.712 76.9358 103.712C76.7598 103.712 76.5678 103.712 76.3598 103.712C76.1678 103.696 75.9758 103.68 75.7838 103.664C75.5918 103.648 75.4558 103.632 75.3758 103.616V110H73.3838V93.368ZM77.4878 94.736C77.0718 94.736 76.6718 94.744 76.2878 94.76C75.9038 94.776 75.5998 94.816 75.3758 94.88V101.84C75.4558 101.872 75.5838 101.896 75.7598 101.912C75.9358 101.912 76.1198 101.92 76.3118 101.936C76.5038 101.936 76.6878 101.936 76.8638 101.936C77.0398 101.936 77.1678 101.936 77.2478 101.936C77.7918 101.936 78.3278 101.888 78.8558 101.792C79.3998 101.68 79.8878 101.488 80.3198 101.216C80.7518 100.944 81.0958 100.56 81.3518 100.064C81.6238 99.568 81.7598 98.936 81.7598 98.168C81.7598 97.512 81.6318 96.968 81.3758 96.536C81.1358 96.088 80.8078 95.736 80.3918 95.48C79.9918 95.208 79.5358 95.016 79.0238 94.904C78.5118 94.792 77.9998 94.736 77.4878 94.736ZM85.7543 98H87.0742L87.4342 99.44H87.5303C87.8983 98.88 88.3703 98.456 88.9463 98.168C89.5383 97.864 90.2103 97.712 90.9622 97.712C92.5623 97.712 93.7543 98.184 94.5383 99.128C95.3223 100.072 95.7143 101.616 95.7143 103.76C95.7143 104.768 95.5783 105.68 95.3063 106.496C95.0503 107.296 94.6823 107.976 94.2023 108.536C93.7223 109.096 93.1383 109.528 92.4503 109.832C91.7783 110.136 91.0263 110.288 90.1943 110.288C89.6023 110.288 89.1303 110.248 88.7783 110.168C88.4423 110.104 88.0743 109.984 87.6743 109.808V114.8H85.7543V98ZM90.6023 99.392C89.7863 99.392 89.1383 99.608 88.6583 100.04C88.1943 100.456 87.8663 101.096 87.6743 101.96V107.912C87.9623 108.136 88.2903 108.312 88.6583 108.44C89.0263 108.552 89.5143 108.608 90.1223 108.608C91.2263 108.608 92.0983 108.2 92.7383 107.384C93.3943 106.552 93.7223 105.336 93.7223 103.736C93.7223 103.08 93.6663 102.488 93.5543 101.96C93.4423 101.416 93.2583 100.96 93.0023 100.592C92.7623 100.208 92.4423 99.912 92.0423 99.704C91.6583 99.496 91.1783 99.392 90.6023 99.392ZM120.185 114.104C119.801 114.216 119.425 114.288 119.057 114.32C118.689 114.368 118.321 114.392 117.953 114.392C117.153 114.392 116.369 114.304 115.601 114.128C114.849 113.968 114.113 113.784 113.393 113.576C112.689 113.384 112.009 113.2 111.353 113.024C110.697 112.864 110.073 112.784 109.481 112.784C109.097 112.784 108.729 112.832 108.377 112.928V111.176C108.601 111.128 108.817 111.088 109.025 111.056C109.233 111.024 109.449 111.008 109.673 111.008C110.345 111.008 111.009 111.088 111.665 111.248C112.337 111.424 113.017 111.608 113.705 111.8C114.393 112.008 115.097 112.192 115.817 112.352C116.537 112.528 117.297 112.616 118.097 112.616C118.801 112.616 119.497 112.536 120.185 112.376V114.104ZM104.633 101.6C104.633 98.8 105.225 96.656 106.409 95.168C107.593 93.664 109.281 92.912 111.473 92.912C112.657 92.912 113.681 93.12 114.545 93.536C115.409 93.952 116.121 94.544 116.681 95.312C117.257 96.064 117.681 96.976 117.953 98.048C118.225 99.104 118.361 100.288 118.361 101.6C118.361 104.4 117.761 106.552 116.561 108.056C115.377 109.544 113.681 110.288 111.473 110.288C110.305 110.288 109.289 110.08 108.425 109.664C107.577 109.248 106.865 108.664 106.289 107.912C105.729 107.144 105.313 106.232 105.041 105.176C104.769 104.104 104.633 102.912 104.633 101.6ZM106.745 101.6C106.745 102.528 106.833 103.408 107.009 104.24C107.201 105.072 107.489 105.808 107.873 106.448C108.257 107.072 108.745 107.576 109.337 107.96C109.945 108.328 110.657 108.512 111.473 108.512C112.961 108.512 114.129 107.952 114.977 106.832C115.825 105.696 116.249 103.952 116.249 101.6C116.249 100.688 116.153 99.816 115.961 98.984C115.785 98.136 115.497 97.4 115.097 96.776C114.713 96.136 114.217 95.632 113.609 95.264C113.017 94.88 112.305 94.688 111.473 94.688C110.001 94.688 108.841 95.256 107.993 96.392C107.161 97.512 106.745 99.248 106.745 101.6ZM130.735 114.8H128.815V108.8H128.719C128.399 109.28 127.991 109.648 127.495 109.904C127.015 110.16 126.375 110.288 125.575 110.288C123.975 110.288 122.791 109.784 122.023 108.776C121.255 107.752 120.871 106.176 120.871 104.048C120.871 101.984 121.367 100.424 122.359 99.368C123.351 98.312 124.799 97.784 126.703 97.784C127.551 97.784 128.343 97.864 129.079 98.024C129.831 98.184 130.383 98.352 130.735 98.528V114.8ZM125.911 108.608C126.727 108.608 127.367 108.4 127.831 107.984C128.295 107.568 128.623 106.928 128.815 106.064V99.92C128.223 99.616 127.407 99.464 126.367 99.464C125.263 99.464 124.399 99.84 123.775 100.592C123.167 101.328 122.863 102.472 122.863 104.024C122.863 104.696 122.919 105.32 123.031 105.896C123.143 106.456 123.319 106.936 123.559 107.336C123.799 107.736 124.111 108.048 124.495 108.272C124.879 108.496 125.351 108.608 125.911 108.608ZM141.024 93.368C141.632 93.256 142.328 93.168 143.112 93.104C143.912 93.04 144.64 93.008 145.296 93.008C146.032 93.008 146.728 93.088 147.384 93.248C148.056 93.408 148.64 93.672 149.136 94.04C149.648 94.408 150.056 94.888 150.36 95.48C150.664 96.072 150.816 96.792 150.816 97.64C150.816 98.952 150.456 100.016 149.736 100.832C149.016 101.648 148.104 102.192 147 102.464L148.152 103.352L152.328 110H150L145.368 102.752L143.016 102.392V110H141.024V93.368ZM145.344 94.736C145.136 94.736 144.92 94.736 144.696 94.736C144.472 94.736 144.256 94.744 144.048 94.76C143.84 94.776 143.64 94.792 143.448 94.808C143.272 94.824 143.128 94.848 143.016 94.88V101.072H144.888C145.992 101.072 146.904 100.8 147.624 100.256C148.344 99.712 148.704 98.864 148.704 97.712C148.704 96.848 148.408 96.136 147.816 95.576C147.224 95.016 146.4 94.736 145.344 94.736ZM160.535 99.848C160.055 99.688 159.599 99.608 159.167 99.608C158.479 99.608 157.935 99.8 157.535 100.184C157.135 100.552 156.887 101.024 156.791 101.6V110H154.871V98H156.215L156.575 99.464H156.671C156.975 98.92 157.335 98.504 157.751 98.216C158.183 97.912 158.727 97.76 159.383 97.76C159.847 97.76 160.367 97.84 160.943 98L160.535 99.848ZM177.202 105.728C177.202 105.056 177.002 104.512 176.602 104.096C176.202 103.664 175.698 103.288 175.09 102.968C174.498 102.632 173.85 102.32 173.146 102.032C172.442 101.744 171.786 101.4 171.178 101C170.586 100.584 170.09 100.08 169.69 99.488C169.29 98.88 169.09 98.112 169.09 97.184C169.09 95.872 169.546 94.832 170.458 94.064C171.37 93.296 172.666 92.912 174.346 92.912C175.322 92.912 176.21 92.984 177.01 93.128C177.81 93.272 178.434 93.456 178.882 93.68L178.282 95.432C177.914 95.256 177.37 95.088 176.65 94.928C175.946 94.768 175.146 94.688 174.25 94.688C173.194 94.688 172.402 94.928 171.874 95.408C171.346 95.872 171.082 96.424 171.082 97.064C171.082 97.688 171.282 98.208 171.682 98.624C172.082 99.04 172.578 99.416 173.17 99.752C173.778 100.072 174.434 100.392 175.138 100.712C175.842 101.032 176.49 101.408 177.082 101.84C177.69 102.256 178.194 102.76 178.594 103.352C178.994 103.944 179.194 104.68 179.194 105.56C179.194 106.28 179.066 106.928 178.81 107.504C178.554 108.08 178.178 108.576 177.682 108.992C177.186 109.408 176.586 109.728 175.882 109.952C175.178 110.176 174.378 110.288 173.482 110.288C172.282 110.288 171.29 110.192 170.506 110C169.722 109.824 169.114 109.624 168.682 109.4L169.354 107.6C169.722 107.808 170.266 108.016 170.986 108.224C171.706 108.416 172.514 108.512 173.41 108.512C173.938 108.512 174.434 108.464 174.898 108.368C175.362 108.256 175.762 108.088 176.098 107.864C176.434 107.624 176.698 107.328 176.89 106.976C177.098 106.624 177.202 106.208 177.202 105.728ZM187.456 106.736C187.456 106.256 187.312 105.88 187.024 105.608C186.736 105.336 186.376 105.112 185.944 104.936C185.528 104.744 185.064 104.568 184.552 104.408C184.056 104.232 183.592 104.016 183.16 103.76C182.744 103.488 182.392 103.144 182.104 102.728C181.816 102.312 181.672 101.752 181.672 101.048C181.672 99.896 182 99.056 182.656 98.528C183.312 97.984 184.224 97.712 185.392 97.712C186.256 97.712 186.976 97.792 187.552 97.952C188.144 98.096 188.656 98.272 189.088 98.48L188.632 100.064C188.264 99.888 187.816 99.736 187.288 99.608C186.776 99.464 186.224 99.392 185.632 99.392C184.928 99.392 184.408 99.512 184.072 99.752C183.752 99.992 183.592 100.408 183.592 101C183.592 101.416 183.736 101.744 184.024 101.984C184.312 102.208 184.664 102.416 185.08 102.608C185.512 102.784 185.976 102.96 186.472 103.136C186.984 103.312 187.448 103.544 187.864 103.832C188.296 104.12 188.656 104.488 188.944 104.936C189.232 105.368 189.376 105.944 189.376 106.664C189.376 107.176 189.288 107.656 189.112 108.104C188.952 108.552 188.696 108.936 188.344 109.256C187.992 109.576 187.552 109.824 187.024 110C186.512 110.192 185.904 110.288 185.2 110.288C184.288 110.288 183.512 110.2 182.872 110.024C182.232 109.848 181.696 109.64 181.264 109.4L181.84 107.768C182.208 107.976 182.688 108.168 183.28 108.344C183.872 108.52 184.472 108.608 185.08 108.608C185.768 108.608 186.336 108.472 186.784 108.2C187.232 107.928 187.456 107.44 187.456 106.736ZM208.966 94.976H203.734V110H201.742V94.976H196.51V93.2H208.966V94.976ZM208.202 98H210.074V95.624L211.994 95.072V98H215.258V99.68H211.994V106.328C211.994 107.16 212.098 107.752 212.306 108.104C212.514 108.44 212.866 108.608 213.362 108.608C213.778 108.608 214.13 108.568 214.418 108.488C214.706 108.392 215.026 108.272 215.378 108.128L215.81 109.592C215.378 109.8 214.906 109.968 214.394 110.096C213.882 110.224 213.33 110.288 212.738 110.288C211.762 110.288 211.074 110.016 210.674 109.472C210.274 108.912 210.074 107.984 210.074 106.688V99.68H208.202V98ZM234.157 93.2H236.077V104.408C236.077 105.416 235.941 106.288 235.669 107.024C235.413 107.76 235.037 108.368 234.541 108.848C234.061 109.312 233.477 109.656 232.789 109.88C232.101 110.104 231.341 110.216 230.509 110.216C228.525 110.216 227.029 109.768 226.021 108.872C225.013 107.976 224.509 106.616 224.509 104.792V93.2H226.501V103.856C226.501 104.704 226.581 105.424 226.741 106.016C226.917 106.592 227.173 107.064 227.509 107.432C227.845 107.784 228.261 108.04 228.757 108.2C229.269 108.36 229.861 108.44 230.533 108.44C231.829 108.44 232.757 108.088 233.317 107.384C233.877 106.664 234.157 105.488 234.157 103.856V93.2ZM241.701 98V104.84C241.701 105.464 241.733 106.016 241.797 106.496C241.877 106.96 242.005 107.352 242.181 107.672C242.357 107.976 242.597 108.208 242.901 108.368C243.205 108.528 243.589 108.608 244.053 108.608C244.485 108.608 244.869 108.544 245.205 108.416C245.541 108.272 245.837 108.08 246.093 107.84C246.365 107.6 246.597 107.328 246.789 107.024C246.997 106.704 247.165 106.368 247.293 106.016V98H249.213V106.592C249.213 107.168 249.229 107.768 249.261 108.392C249.309 109 249.381 109.536 249.477 110H248.157L247.677 108.104H247.557C247.189 108.728 246.693 109.248 246.069 109.664C245.445 110.08 244.653 110.288 243.693 110.288C243.053 110.288 242.485 110.208 241.989 110.048C241.509 109.904 241.101 109.64 240.765 109.256C240.445 108.872 240.197 108.36 240.021 107.72C239.861 107.064 239.781 106.24 239.781 105.248V98H241.701ZM263.142 104.744L263.718 107.288H263.742L264.366 104.696L268.422 93.2H270.414L264.054 110.264H263.166L256.686 93.2H258.87L263.142 104.744ZM275.14 105.032L275.812 107.312H275.836L276.436 104.984L279.124 98H281.188L276.076 110.264H275.26L270.052 98H272.26L275.14 105.032ZM291.828 104.456L292.212 107.24H292.236L292.644 104.408L296.1 93.2H297.06L300.54 104.456L300.948 107.24H300.972L301.404 104.408L304.236 93.2H306.18L301.5 110.264H300.396L296.988 99.008L296.556 96.464H296.436L296.004 99.032L292.596 110.264H291.492L286.692 93.2H288.804L291.828 104.456ZM315.577 98L318.337 105.008L318.937 107.312H318.985L319.441 104.96L321.577 98H323.401L319.369 110.264H318.433L315.289 102.344L314.833 100.376H314.761L314.281 102.368L311.257 110.264H310.321L306.145 98H308.233L310.609 104.984L311.017 107.312H311.041L311.617 104.936L314.185 98H315.577ZM334.904 101.456L329.792 93.2H332.192L335.6 98.888L336.2 100.256L336.776 98.888L340.376 93.2H342.584L337.304 101.288L342.824 110H340.496L336.704 103.976L336.056 102.536L335.432 103.976L331.544 110H329.312L334.904 101.456ZM347.601 103.856L343.569 98H345.921L348.201 101.312L348.873 102.68L349.569 101.312L351.897 98H354.057L350.001 103.76L354.297 110H352.017L349.473 106.352L348.753 104.912L348.009 106.352L345.417 110H343.281L347.601 103.856ZM365.642 103.328L360.098 93.2H362.426L366.362 100.544L366.77 102.008H366.794L367.226 100.496L370.994 93.2H373.13L367.634 103.304V110H365.642V103.328ZM377.517 105.776L378.189 108.08H378.309L378.837 105.752L381.165 98H383.109L379.557 108.776C379.285 109.56 379.013 110.32 378.741 111.056C378.485 111.792 378.197 112.448 377.877 113.024C377.557 113.6 377.197 114.056 376.797 114.392C376.397 114.744 375.933 114.92 375.405 114.92C374.829 114.92 374.357 114.84 373.989 114.68L374.325 113.024C374.533 113.104 374.733 113.144 374.925 113.144C375.373 113.144 375.805 112.904 376.221 112.424C376.637 111.96 376.981 111.152 377.253 110L372.429 98H374.637L377.517 105.776ZM389.225 108.2L397.697 95.936L398.705 94.976H389.225V93.2H400.505V95L391.985 107.336L390.977 108.224H400.505V110H389.225V108.2ZM401.742 108.32L407.286 100.688L408.294 99.68H401.742V98H410.286V99.68L404.694 107.384L403.71 108.32H410.286V110H401.742V108.32ZM1.032 132.6C1.032 129.72 1.496 127.552 2.424 126.096C3.368 124.64 4.736 123.912 6.528 123.912C8.464 123.912 9.864 124.632 10.728 126.072C11.608 127.496 12.048 129.672 12.048 132.6C12.048 135.48 11.576 137.648 10.632 139.104C9.704 140.56 8.336 141.288 6.528 141.288C4.624 141.288 3.232 140.528 2.352 139.008C1.472 137.488 1.032 135.352 1.032 132.6ZM3.024 132.6C3.024 133.64 3.088 134.592 3.216 135.456C3.36 136.304 3.576 137.04 3.864 137.664C4.152 138.272 4.512 138.752 4.944 139.104C5.392 139.44 5.92 139.608 6.528 139.608C7.744 139.608 8.632 139.048 9.192 137.928C9.768 136.792 10.056 135.016 10.056 132.6C10.056 131.576 9.992 130.632 9.864 129.768C9.752 128.904 9.552 128.16 9.264 127.536C8.992 126.912 8.632 126.432 8.184 126.096C7.736 125.76 7.184 125.592 6.528 125.592C5.328 125.592 4.44 126.16 3.864 127.296C3.304 128.432 3.024 130.2 3.024 132.6ZM22.0686 139.224H25.4286V127.608L25.6686 126.192L24.7086 127.32L22.0686 129.216L21.1566 127.992L26.4366 123.912H27.3006V139.224H30.5886V141H22.0686V139.224ZM49.6571 128.016C49.6571 128.864 49.4971 129.736 49.1771 130.632C48.8731 131.512 48.4651 132.4 47.9531 133.296C47.4571 134.192 46.8971 135.072 46.2731 135.936C45.6491 136.784 45.0251 137.592 44.4011 138.36L43.2251 139.392V139.488L44.7611 139.224H49.9931V141H40.4411V140.304C40.7931 139.936 41.2171 139.48 41.7131 138.936C42.2091 138.392 42.7211 137.792 43.2491 137.136C43.7931 136.464 44.3211 135.76 44.8331 135.024C45.3611 134.272 45.8331 133.512 46.2491 132.744C46.6811 131.976 47.0251 131.216 47.2811 130.464C47.5371 129.712 47.6651 129 47.6651 128.328C47.6651 127.544 47.4411 126.896 46.9931 126.384C46.5451 125.856 45.8651 125.592 44.9531 125.592C44.3451 125.592 43.7531 125.72 43.1771 125.976C42.6011 126.216 42.1051 126.496 41.6891 126.816L40.8971 125.448C41.4571 124.968 42.1211 124.592 42.8891 124.32C43.6571 124.048 44.4811 123.912 45.3611 123.912C46.0491 123.912 46.6571 124.016 47.1851 124.224C47.7131 124.416 48.1611 124.696 48.5291 125.064C48.8971 125.432 49.1771 125.872 49.3691 126.384C49.5611 126.88 49.6571 127.424 49.6571 128.016ZM64.0457 139.608C64.5897 139.608 65.0937 139.528 65.5577 139.368C66.0217 139.208 66.4217 138.976 66.7577 138.672C67.0937 138.352 67.3577 137.976 67.5497 137.544C67.7417 137.112 67.8377 136.64 67.8377 136.128C67.8377 135.008 67.5017 134.176 66.8297 133.632C66.1737 133.088 65.2617 132.816 64.0937 132.816H62.3177V132.12L65.7737 126.792L66.8777 125.736L65.3177 125.976H60.5657V124.2H69.1337V124.896L65.3177 130.632L64.4777 131.328V131.376L65.2937 131.208C65.9337 131.224 66.5257 131.344 67.0697 131.568C67.6137 131.776 68.0857 132.088 68.4857 132.504C68.8857 132.904 69.1977 133.392 69.4217 133.968C69.6457 134.528 69.7577 135.168 69.7577 135.888C69.7577 136.752 69.6057 137.52 69.3017 138.192C68.9977 138.864 68.5817 139.432 68.0537 139.896C67.5417 140.344 66.9337 140.688 66.2297 140.928C65.5257 141.168 64.7817 141.288 63.9977 141.288C63.2777 141.288 62.6297 141.232 62.0537 141.12C61.4777 141.008 60.9737 140.864 60.5417 140.688L61.0457 138.984C61.4137 139.16 61.8457 139.312 62.3417 139.44C62.8537 139.552 63.4217 139.608 64.0457 139.608ZM90.4823 135.84H87.6503V141H85.7783V135.84H78.3863V135.048L86.3543 123.936H87.6503V134.16H90.4823V135.84ZM85.7783 128.928L86.0183 126.96H85.9463L85.1063 128.592L81.7223 133.176L80.5703 134.352L82.2503 134.16H85.7783V128.928ZM102.495 139.608C103.599 139.608 104.511 139.288 105.231 138.648C105.951 138.008 106.311 137.08 106.311 135.864C106.311 134.696 105.951 133.824 105.231 133.248C104.527 132.672 103.551 132.384 102.303 132.384L100.287 132.504V124.2H107.775V125.976H102.087V130.752L103.119 130.704C104.703 130.72 105.951 131.16 106.863 132.024C107.775 132.888 108.231 134.128 108.231 135.744C108.231 136.64 108.079 137.44 107.775 138.144C107.471 138.832 107.055 139.408 106.527 139.872C106.015 140.336 105.407 140.688 104.703 140.928C103.999 141.168 103.247 141.288 102.447 141.288C101.727 141.288 101.119 141.248 100.623 141.168C100.127 141.088 99.6628 140.968 99.2308 140.808L99.7348 139.176C100.103 139.32 100.495 139.432 100.911 139.512C101.343 139.576 101.871 139.608 102.495 139.608ZM128.667 135.936C128.667 136.672 128.555 137.368 128.331 138.024C128.107 138.664 127.779 139.232 127.347 139.728C126.915 140.208 126.379 140.592 125.739 140.88C125.099 141.152 124.371 141.288 123.555 141.288C122.755 141.288 122.035 141.16 121.395 140.904C120.755 140.648 120.203 140.272 119.739 139.776C119.275 139.264 118.915 138.64 118.659 137.904C118.419 137.168 118.299 136.32 118.299 135.36C118.299 133.776 118.499 132.32 118.899 130.992C119.315 129.648 119.883 128.48 120.603 127.488C121.323 126.496 122.171 125.696 123.147 125.088C124.139 124.464 125.211 124.072 126.363 123.912L126.771 125.448C125.875 125.608 125.059 125.912 124.323 126.36C123.587 126.808 122.939 127.36 122.379 128.016C121.835 128.672 121.387 129.408 121.035 130.224C120.683 131.04 120.443 131.88 120.315 132.744C120.571 132.312 121.003 131.92 121.611 131.568C122.219 131.2 122.963 131.016 123.843 131.016C125.347 131.016 126.523 131.448 127.371 132.312C128.235 133.176 128.667 134.384 128.667 135.936ZM126.675 136.128C126.675 134.992 126.411 134.136 125.883 133.56C125.355 132.984 124.539 132.696 123.435 132.696C122.651 132.696 121.971 132.888 121.395 133.272C120.835 133.656 120.443 134.088 120.219 134.568C120.187 134.792 120.171 134.976 120.171 135.12C120.171 135.264 120.171 135.424 120.171 135.6C120.171 136.096 120.235 136.584 120.363 137.064C120.507 137.544 120.723 137.976 121.011 138.36C121.299 138.728 121.651 139.032 122.067 139.272C122.499 139.496 123.003 139.608 123.579 139.608C124.043 139.608 124.459 139.52 124.827 139.344C125.211 139.168 125.539 138.928 125.811 138.624C126.083 138.32 126.291 137.952 126.435 137.52C126.595 137.088 126.675 136.624 126.675 136.128ZM138.976 141L145 126.936L146.056 125.76L144.64 125.976H137.8V124.2H147.832V124.848L140.92 141H138.976ZM156.155 136.992C156.155 135.984 156.419 135.112 156.947 134.376C157.475 133.624 158.299 132.944 159.419 132.336C159.019 132.096 158.643 131.848 158.291 131.592C157.955 131.32 157.651 131.016 157.379 130.68C157.123 130.344 156.915 129.968 156.755 129.552C156.611 129.136 156.539 128.656 156.539 128.112C156.539 127.488 156.643 126.92 156.851 126.408C157.075 125.896 157.387 125.456 157.787 125.088C158.203 124.72 158.691 124.432 159.251 124.224C159.827 124.016 160.475 123.912 161.195 123.912C161.867 123.912 162.475 124.008 163.019 124.2C163.563 124.392 164.019 124.656 164.387 124.992C164.771 125.328 165.067 125.728 165.275 126.192C165.483 126.656 165.587 127.168 165.587 127.728C165.587 128.64 165.379 129.448 164.963 130.152C164.547 130.84 163.859 131.52 162.899 132.192C163.315 132.432 163.707 132.696 164.075 132.984C164.459 133.272 164.787 133.592 165.059 133.944C165.347 134.296 165.571 134.696 165.731 135.144C165.891 135.576 165.971 136.072 165.971 136.632C165.971 137.32 165.859 137.952 165.635 138.528C165.411 139.088 165.083 139.576 164.651 139.992C164.219 140.392 163.691 140.712 163.067 140.952C162.443 141.176 161.731 141.288 160.931 141.288C160.163 141.288 159.483 141.176 158.891 140.952C158.299 140.728 157.795 140.424 157.379 140.04C156.979 139.656 156.675 139.208 156.467 138.696C156.259 138.168 156.155 137.6 156.155 136.992ZM164.099 136.752C164.099 136.272 164.003 135.856 163.811 135.504C163.619 135.136 163.363 134.808 163.043 134.52C162.739 134.216 162.387 133.944 161.987 133.704C161.587 133.464 161.171 133.232 160.739 133.008C159.763 133.552 159.067 134.16 158.651 134.832C158.235 135.504 158.027 136.144 158.027 136.752C158.027 137.136 158.091 137.504 158.219 137.856C158.347 138.208 158.539 138.512 158.795 138.768C159.051 139.024 159.363 139.232 159.731 139.392C160.115 139.536 160.555 139.608 161.051 139.608C161.451 139.608 161.835 139.552 162.203 139.44C162.571 139.312 162.891 139.136 163.163 138.912C163.451 138.672 163.675 138.376 163.835 138.024C164.011 137.656 164.099 137.232 164.099 136.752ZM158.411 128.064C158.411 128.512 158.499 128.912 158.675 129.264C158.851 129.6 159.083 129.904 159.371 130.176C159.675 130.448 160.019 130.704 160.403 130.944C160.787 131.168 161.187 131.384 161.603 131.592C162.323 131.032 162.851 130.48 163.187 129.936C163.539 129.392 163.715 128.792 163.715 128.136C163.715 127.32 163.459 126.696 162.947 126.264C162.451 125.816 161.851 125.592 161.147 125.592C160.715 125.592 160.331 125.664 159.995 125.808C159.659 125.952 159.371 126.136 159.131 126.36C158.891 126.584 158.707 126.848 158.579 127.152C158.467 127.44 158.411 127.744 158.411 128.064ZM175.248 129.288C175.248 128.52 175.36 127.808 175.584 127.152C175.808 126.496 176.136 125.928 176.568 125.448C177 124.968 177.536 124.592 178.176 124.32C178.832 124.048 179.592 123.912 180.456 123.912C182.088 123.912 183.36 124.44 184.272 125.496C185.184 126.552 185.64 128.04 185.64 129.96C185.64 131.768 185.432 133.352 185.016 134.712C184.616 136.056 184.056 137.192 183.336 138.12C182.616 139.048 181.76 139.776 180.768 140.304C179.792 140.816 178.728 141.144 177.576 141.288L177.144 139.752C178.072 139.608 178.904 139.336 179.64 138.936C180.392 138.536 181.032 138.032 181.56 137.424C182.104 136.816 182.544 136.128 182.88 135.36C183.216 134.576 183.448 133.728 183.576 132.816C183.144 133.328 182.664 133.688 182.136 133.896C181.624 134.088 180.944 134.184 180.096 134.184C179.44 134.184 178.816 134.08 178.224 133.872C177.648 133.648 177.136 133.328 176.688 132.912C176.24 132.496 175.888 131.984 175.632 131.376C175.376 130.768 175.248 130.072 175.248 129.288ZM177.24 129.096C177.24 130.232 177.536 131.088 178.128 131.664C178.736 132.224 179.528 132.504 180.504 132.504C181.288 132.504 181.96 132.376 182.52 132.12C183.08 131.864 183.48 131.528 183.72 131.112C183.752 130.904 183.768 130.72 183.768 130.56C183.768 130.4 183.768 130.232 183.768 130.056C183.768 129.48 183.696 128.928 183.552 128.4C183.424 127.856 183.224 127.376 182.952 126.96C182.68 126.528 182.32 126.192 181.872 125.952C181.44 125.712 180.928 125.592 180.336 125.592C179.36 125.592 178.6 125.904 178.056 126.528C177.512 127.136 177.24 127.992 177.24 129.096ZM1.176 170.896C1.176 170.464 1.296 170.128 1.536 169.888C1.792 169.632 2.128 169.504 2.544 169.504C2.976 169.504 3.32 169.632 3.576 169.888C3.832 170.128 3.96 170.464 3.96 170.896C3.96 171.312 3.832 171.648 3.576 171.904C3.32 172.16 2.976 172.288 2.544 172.288C2.128 172.288 1.792 172.16 1.536 171.904C1.296 171.648 1.176 171.312 1.176 170.896ZM10.5276 170.968C10.5276 170.584 10.6556 170.272 10.9116 170.032C11.1676 169.792 11.4956 169.672 11.8956 169.672C12.3916 169.672 12.7916 169.848 13.0956 170.2C13.4156 170.552 13.5756 171.064 13.5756 171.736C13.5756 172.312 13.4956 172.816 13.3356 173.248C13.1756 173.68 12.9676 174.048 12.7116 174.352C12.4556 174.672 12.1756 174.928 11.8716 175.12C11.5676 175.328 11.2636 175.48 10.9596 175.576L10.3596 174.64C10.9356 174.416 11.3596 174.064 11.6316 173.584C11.9196 173.12 12.0636 172.648 12.0636 172.168C11.9196 172.216 11.7836 172.24 11.6556 172.24C11.3356 172.24 11.0636 172.136 10.8396 171.928C10.6316 171.704 10.5276 171.384 10.5276 170.968ZM24.1459 157.12C24.1459 157.488 24.0259 157.784 23.7859 158.008C23.5459 158.216 23.2419 158.32 22.8739 158.32C22.4419 158.32 22.0819 158.176 21.7939 157.888C21.5219 157.6 21.3859 157.176 21.3859 156.616C21.3859 156.088 21.4579 155.64 21.6019 155.272C21.7619 154.888 21.9459 154.568 22.1539 154.312C22.3779 154.04 22.6019 153.824 22.8259 153.664C23.0659 153.504 23.2739 153.392 23.4499 153.328L24.0499 154.168C23.6979 154.344 23.4099 154.584 23.1859 154.888C22.9779 155.176 22.8739 155.544 22.8739 155.992C22.9379 155.976 23.0259 155.968 23.1379 155.968C23.4579 155.968 23.7059 156.08 23.8819 156.304C24.0579 156.528 24.1459 156.8 24.1459 157.12ZM20.6419 157.12C20.6419 157.488 20.5219 157.784 20.2819 158.008C20.0419 158.216 19.7379 158.32 19.3699 158.32C18.9379 158.32 18.5779 158.176 18.2899 157.888C18.0179 157.6 17.8819 157.176 17.8819 156.616C17.8819 156.088 17.9539 155.64 18.0979 155.272C18.2579 154.888 18.4419 154.568 18.6499 154.312C18.8739 154.04 19.0979 153.824 19.3219 153.664C19.5619 153.504 19.7699 153.392 19.9459 153.328L20.5459 154.168C20.1939 154.344 19.9059 154.584 19.6819 154.888C19.4739 155.176 19.3699 155.544 19.3699 155.992C19.4339 155.976 19.5219 155.968 19.6339 155.968C19.9539 155.968 20.2019 156.08 20.3779 156.304C20.5539 156.528 20.6419 156.8 20.6419 157.12ZM32.3312 156.184C32.3312 155.816 32.4432 155.528 32.6672 155.32C32.9072 155.112 33.2112 155.008 33.5792 155.008C34.0272 155.008 34.3872 155.152 34.6592 155.44C34.9472 155.712 35.0912 156.128 35.0912 156.688C35.0912 157.216 35.0112 157.672 34.8512 158.056C34.7072 158.44 34.5232 158.768 34.2992 159.04C34.0912 159.296 33.8672 159.504 33.6272 159.664C33.3872 159.824 33.1792 159.936 33.0032 160L32.4032 159.184C32.7712 158.992 33.0592 158.752 33.2672 158.464C33.4752 158.176 33.5792 157.8 33.5792 157.336C33.5152 157.352 33.4272 157.36 33.3152 157.36C33.0112 157.36 32.7712 157.256 32.5952 157.048C32.4192 156.824 32.3312 156.536 32.3312 156.184ZM28.8272 156.184C28.8272 155.816 28.9392 155.528 29.1632 155.32C29.4032 155.112 29.7072 155.008 30.0752 155.008C30.5232 155.008 30.8832 155.152 31.1552 155.44C31.4432 155.712 31.5872 156.128 31.5872 156.688C31.5872 157.216 31.5072 157.672 31.3472 158.056C31.2032 158.44 31.0192 158.768 30.7952 159.04C30.5872 159.296 30.3632 159.504 30.1232 159.664C29.8832 159.824 29.6752 159.936 29.4992 160L28.8992 159.184C29.2672 158.992 29.5552 158.752 29.7632 158.464C29.9712 158.176 30.0752 157.8 30.0752 157.336C30.0112 157.352 29.9232 157.36 29.8112 157.36C29.5072 157.36 29.2672 157.256 29.0912 157.048C28.9152 156.824 28.8272 156.536 28.8272 156.184ZM42.6371 161.224C42.6371 160.792 42.7571 160.456 42.9971 160.216C43.2531 159.96 43.5891 159.832 44.0051 159.832C44.4371 159.832 44.7811 159.96 45.0371 160.216C45.2931 160.456 45.4211 160.792 45.4211 161.224C45.4211 161.64 45.2931 161.976 45.0371 162.232C44.7811 162.488 44.4371 162.616 44.0051 162.616C43.5891 162.616 43.2531 162.488 42.9971 162.232C42.7571 161.976 42.6371 161.64 42.6371 161.224ZM42.6371 170.896C42.6371 170.464 42.7571 170.128 42.9971 169.888C43.2531 169.632 43.5891 169.504 44.0051 169.504C44.4371 169.504 44.7811 169.632 45.0371 169.888C45.2931 170.128 45.4211 170.464 45.4211 170.896C45.4211 171.312 45.2931 171.648 45.0371 171.904C44.7811 172.16 44.4371 172.288 44.0051 172.288C43.5891 172.288 43.2531 172.16 42.9971 171.904C42.7571 171.648 42.6371 171.312 42.6371 170.896ZM54.2376 170.968C54.2376 170.584 54.3656 170.272 54.6216 170.032C54.8776 169.792 55.2056 169.672 55.6056 169.672C56.1016 169.672 56.5016 169.848 56.8056 170.2C57.1256 170.552 57.2856 171.064 57.2856 171.736C57.2856 172.312 57.2056 172.816 57.0456 173.248C56.8856 173.68 56.6776 174.048 56.4216 174.352C56.1656 174.672 55.8856 174.928 55.5816 175.12C55.2776 175.328 54.9736 175.48 54.6696 175.576L54.0696 174.64C54.6456 174.416 55.0696 174.064 55.3416 173.584C55.6296 173.12 55.7736 172.648 55.7736 172.168C55.6296 172.216 55.4936 172.24 55.3656 172.24C55.0456 172.24 54.7736 172.136 54.5496 171.928C54.3416 171.704 54.2376 171.384 54.2376 170.968ZM54.4056 161.224C54.4056 160.792 54.5256 160.456 54.7656 160.216C55.0216 159.96 55.3576 159.832 55.7736 159.832C56.2056 159.832 56.5496 159.96 56.8056 160.216C57.0616 160.456 57.1896 160.792 57.1896 161.224C57.1896 161.64 57.0616 161.976 56.8056 162.232C56.5496 162.488 56.2056 162.616 55.7736 162.616C55.3576 162.616 55.0216 162.488 54.7656 162.232C54.5256 161.976 54.4056 161.64 54.4056 161.224ZM68.2406 167.752C68.2246 167.672 68.2166 167.584 68.2166 167.488C68.2166 167.392 68.2166 167.304 68.2166 167.224C68.2166 166.552 68.3126 165.96 68.5046 165.448C68.7126 164.936 68.9606 164.472 69.2486 164.056C69.5526 163.624 69.8726 163.224 70.2086 162.856C70.5606 162.488 70.8806 162.12 71.1686 161.752C71.4726 161.368 71.7206 160.968 71.9126 160.552C72.1206 160.12 72.2246 159.632 72.2246 159.088C72.2246 158.352 72.0086 157.752 71.5766 157.288C71.1606 156.824 70.4566 156.592 69.4646 156.592C68.8886 156.592 68.3046 156.696 67.7126 156.904C67.1206 157.096 66.6086 157.328 66.1766 157.6L65.5286 156.112C66.1366 155.744 66.7766 155.456 67.4486 155.248C68.1206 155.024 68.9526 154.912 69.9446 154.912C70.6486 154.912 71.2646 155.016 71.7926 155.224C72.3366 155.416 72.7846 155.688 73.1366 156.04C73.5046 156.392 73.7766 156.808 73.9526 157.288C74.1286 157.768 74.2166 158.28 74.2166 158.824C74.2166 159.544 74.1046 160.176 73.8806 160.72C73.6726 161.248 73.4006 161.736 73.0646 162.184C72.7446 162.616 72.3926 163.024 72.0086 163.408C71.6406 163.792 71.2886 164.2 70.9526 164.632C70.6326 165.048 70.3606 165.504 70.1366 166C69.9286 166.496 69.8246 167.08 69.8246 167.752H68.2406ZM67.7606 170.896C67.7606 170.464 67.8806 170.128 68.1206 169.888C68.3766 169.632 68.7126 169.504 69.1286 169.504C69.5606 169.504 69.9046 169.632 70.1606 169.888C70.4166 170.128 70.5446 170.464 70.5446 170.896C70.5446 171.312 70.4166 171.648 70.1606 171.904C69.9046 172.16 69.5606 172.288 69.1286 172.288C68.7126 172.288 68.3766 172.16 68.1206 171.904C67.8806 171.648 67.7606 171.312 67.7606 170.896ZM84.5402 155.2H86.5322V163.528L86.1242 167.752H84.9482L84.5402 163.528V155.2ZM84.1322 170.896C84.1322 170.464 84.2522 170.128 84.4922 169.888C84.7482 169.632 85.0842 169.504 85.5002 169.504C85.9322 169.504 86.2762 169.632 86.5322 169.888C86.7882 170.128 86.9162 170.464 86.9162 170.896C86.9162 171.312 86.7882 171.648 86.5322 171.904C86.2762 172.16 85.9322 172.288 85.5002 172.288C85.0842 172.288 84.7482 172.16 84.4922 171.904C84.2522 171.648 84.1322 171.312 84.1322 170.896ZM112.171 160.216H112.987L111.763 167.104C111.683 167.52 111.619 167.896 111.571 168.232C111.539 168.552 111.523 168.84 111.523 169.096C111.523 169.496 111.587 169.792 111.715 169.984C111.859 170.16 112.099 170.248 112.435 170.248C112.979 170.248 113.515 170.104 114.043 169.816C114.587 169.528 115.067 169.12 115.483 168.592C115.899 168.064 116.235 167.432 116.491 166.696C116.763 165.944 116.899 165.104 116.899 164.176C116.899 162.944 116.691 161.856 116.275 160.912C115.859 159.968 115.275 159.176 114.523 158.536C113.771 157.88 112.875 157.384 111.835 157.048C110.795 156.712 109.651 156.544 108.403 156.544C107.107 156.544 105.883 156.784 104.731 157.264C103.595 157.744 102.603 158.408 101.755 159.256C100.923 160.104 100.259 161.12 99.7631 162.304C99.2831 163.488 99.0431 164.776 99.0431 166.168C99.0431 167.592 99.2591 168.864 99.6911 169.984C100.139 171.104 100.771 172.048 101.587 172.816C102.403 173.584 103.379 174.168 104.515 174.568C105.651 174.968 106.915 175.168 108.307 175.168C108.771 175.168 109.299 175.112 109.891 175C110.483 174.904 111.019 174.736 111.499 174.496L111.979 176.032C111.259 176.336 110.595 176.536 109.987 176.632C109.379 176.744 108.723 176.8 108.019 176.8C106.531 176.8 105.131 176.576 103.819 176.128C102.523 175.68 101.387 175.016 100.411 174.136C99.4511 173.256 98.6911 172.168 98.1311 170.872C97.5711 169.56 97.2911 168.048 97.2911 166.336C97.2911 164.592 97.5871 163.016 98.1791 161.608C98.7871 160.2 99.6031 159 100.627 158.008C101.651 157.016 102.843 156.256 104.203 155.728C105.563 155.184 107.003 154.912 108.523 154.912C109.963 154.912 111.299 155.128 112.531 155.56C113.763 155.976 114.827 156.584 115.723 157.384C116.635 158.168 117.347 159.136 117.859 160.288C118.387 161.424 118.651 162.72 118.651 164.176C118.651 165.2 118.475 166.184 118.123 167.128C117.771 168.056 117.291 168.872 116.683 169.576C116.091 170.28 115.395 170.848 114.595 171.28C113.795 171.696 112.947 171.904 112.051 171.904C111.379 171.904 110.843 171.76 110.443 171.472C110.043 171.184 109.843 170.648 109.843 169.864C109.843 169.72 109.851 169.568 109.867 169.408C109.883 169.232 109.907 169.048 109.939 168.856H109.843C109.619 169.224 109.355 169.592 109.051 169.96C108.747 170.312 108.403 170.632 108.019 170.92C107.651 171.208 107.251 171.448 106.819 171.64C106.403 171.816 105.963 171.904 105.499 171.904C105.115 171.904 104.747 171.824 104.395 171.664C104.043 171.488 103.739 171.24 103.483 170.92C103.227 170.6 103.019 170.224 102.859 169.792C102.715 169.344 102.643 168.84 102.643 168.28C102.643 167.256 102.811 166.248 103.147 165.256C103.483 164.264 103.931 163.384 104.491 162.616C105.067 161.848 105.731 161.232 106.483 160.768C107.251 160.288 108.059 160.048 108.907 160.048C109.499 160.048 109.971 160.136 110.323 160.312C110.675 160.488 111.019 160.704 111.355 160.96L112.171 160.216ZM110.803 162.568C110.531 162.248 110.259 162.032 109.987 161.92C109.715 161.792 109.371 161.728 108.955 161.728C108.331 161.728 107.747 161.92 107.203 162.304C106.659 162.672 106.187 163.16 105.787 163.768C105.403 164.36 105.091 165.032 104.851 165.784C104.627 166.52 104.515 167.248 104.515 167.968C104.515 168.592 104.643 169.128 104.899 169.576C105.155 170.008 105.619 170.224 106.291 170.224C106.611 170.224 106.939 170.12 107.275 169.912C107.627 169.704 107.971 169.424 108.307 169.072C108.643 168.704 108.963 168.296 109.267 167.848C109.571 167.4 109.843 166.944 110.083 166.48L110.803 162.568ZM133.868 166.6H131.348L130.412 170.608H128.756L129.692 166.6H127.82L128.156 165.064H130.052L130.796 161.92H129.02L129.356 160.384H131.156L132.068 156.592H133.724L132.812 160.384H135.332L136.244 156.592H137.9L136.988 160.384H138.836L138.452 161.92H136.628L135.884 165.064H137.636L137.252 166.6H135.524L134.588 170.608H132.932L133.868 166.6ZM131.708 165.064H134.228L134.972 161.92H132.452L131.708 165.064ZM152.433 172.288C151.553 172.272 150.769 172.192 150.081 172.048C149.409 171.92 148.865 171.744 148.449 171.52L149.097 169.768C149.417 169.96 149.849 170.136 150.393 170.296C150.953 170.456 151.633 170.544 152.433 170.56V164.08C151.953 163.84 151.473 163.584 150.993 163.312C150.529 163.04 150.113 162.72 149.745 162.352C149.377 161.968 149.081 161.52 148.857 161.008C148.633 160.496 148.521 159.888 148.521 159.184C148.521 158.032 148.841 157.088 149.481 156.352C150.137 155.616 151.121 155.16 152.433 154.984V152.8H154.065V154.912C154.881 154.944 155.545 155.024 156.057 155.152C156.585 155.264 157.057 155.416 157.473 155.608L156.897 157.288C156.577 157.128 156.193 156.992 155.745 156.88C155.297 156.752 154.737 156.672 154.065 156.64V162.568C154.561 162.824 155.057 163.104 155.553 163.408C156.049 163.696 156.489 164.032 156.873 164.416C157.273 164.8 157.593 165.248 157.833 165.76C158.073 166.272 158.193 166.872 158.193 167.56C158.193 168.808 157.841 169.84 157.137 170.656C156.449 171.456 155.425 171.968 154.065 172.192V174.4H152.433V172.288ZM156.201 167.728C156.201 167.344 156.129 167 155.985 166.696C155.857 166.392 155.681 166.12 155.457 165.88C155.233 165.64 154.969 165.424 154.665 165.232C154.361 165.04 154.033 164.856 153.681 164.68V170.512C154.417 170.4 155.017 170.12 155.481 169.672C155.961 169.208 156.201 168.56 156.201 167.728ZM150.513 159.064C150.513 159.752 150.729 160.312 151.161 160.744C151.609 161.176 152.161 161.568 152.817 161.92V156.664C151.969 156.76 151.369 157.04 151.017 157.504C150.681 157.968 150.513 158.488 150.513 159.064ZM167.782 158.992C167.782 158.272 167.878 157.656 168.07 157.144C168.262 156.632 168.518 156.208 168.838 155.872C169.174 155.536 169.566 155.296 170.014 155.152C170.478 154.992 170.974 154.912 171.502 154.912C172.03 154.912 172.518 154.984 172.966 155.128C173.43 155.272 173.822 155.504 174.142 155.824C174.478 156.144 174.742 156.568 174.934 157.096C175.126 157.608 175.222 158.24 175.222 158.992C175.222 159.744 175.126 160.384 174.934 160.912C174.742 161.424 174.478 161.84 174.142 162.16C173.822 162.48 173.43 162.712 172.966 162.856C172.518 163 172.03 163.072 171.502 163.072C170.974 163.072 170.478 163 170.014 162.856C169.566 162.712 169.174 162.48 168.838 162.16C168.518 161.84 168.262 161.424 168.07 160.912C167.878 160.384 167.782 159.744 167.782 158.992ZM169.558 158.992C169.558 159.952 169.726 160.64 170.062 161.056C170.414 161.472 170.894 161.68 171.502 161.68C171.806 161.68 172.078 161.64 172.318 161.56C172.558 161.464 172.758 161.32 172.918 161.128C173.094 160.92 173.222 160.648 173.302 160.312C173.398 159.96 173.446 159.52 173.446 158.992C173.446 158.464 173.398 158.032 173.302 157.696C173.222 157.344 173.094 157.072 172.918 156.88C172.758 156.672 172.558 156.528 172.318 156.448C172.078 156.352 171.806 156.304 171.502 156.304C170.894 156.304 170.414 156.496 170.062 156.88C169.726 157.248 169.558 157.952 169.558 158.992ZM176.35 167.872C176.35 167.152 176.446 166.536 176.638 166.024C176.83 165.512 177.086 165.088 177.406 164.752C177.742 164.416 178.134 164.176 178.582 164.032C179.046 163.872 179.542 163.792 180.07 163.792C180.598 163.792 181.086 163.864 181.534 164.008C181.998 164.152 182.39 164.384 182.71 164.704C183.046 165.024 183.31 165.448 183.502 165.976C183.694 166.488 183.79 167.12 183.79 167.872C183.79 168.624 183.694 169.264 183.502 169.792C183.31 170.304 183.046 170.72 182.71 171.04C182.39 171.36 181.998 171.592 181.534 171.736C181.086 171.88 180.598 171.952 180.07 171.952C179.542 171.952 179.046 171.88 178.582 171.736C178.134 171.592 177.742 171.36 177.406 171.04C177.086 170.72 176.83 170.304 176.638 169.792C176.446 169.264 176.35 168.624 176.35 167.872ZM178.126 167.872C178.126 168.832 178.294 169.52 178.63 169.936C178.982 170.352 179.462 170.56 180.07 170.56C180.374 170.56 180.646 170.52 180.886 170.44C181.126 170.344 181.326 170.2 181.486 170.008C181.662 169.8 181.79 169.528 181.87 169.192C181.966 168.84 182.014 168.4 182.014 167.872C182.014 167.344 181.966 166.912 181.87 166.576C181.79 166.224 181.662 165.952 181.486 165.76C181.326 165.552 181.126 165.408 180.886 165.328C180.646 165.232 180.374 165.184 180.07 165.184C179.462 165.184 178.982 165.376 178.63 165.76C178.294 166.128 178.126 166.832 178.126 167.872ZM181.39 154.888L182.566 155.8L170.254 172.288L169.054 171.352L181.39 154.888ZM193.895 167.512C193.895 166.872 194.007 166.264 194.23 165.688C194.455 165.096 194.759 164.552 195.143 164.056C195.527 163.56 195.959 163.104 196.439 162.688C196.935 162.272 197.447 161.904 197.975 161.584C197.591 161.008 197.255 160.432 196.967 159.856C196.695 159.28 196.559 158.656 196.559 157.984C196.559 157.6 196.623 157.224 196.751 156.856C196.879 156.488 197.079 156.16 197.351 155.872C197.639 155.584 197.999 155.352 198.431 155.176C198.879 155 199.415 154.912 200.039 154.912C200.695 154.912 201.247 155 201.695 155.176C202.143 155.336 202.503 155.552 202.775 155.824C203.047 156.096 203.239 156.4 203.351 156.736C203.479 157.072 203.543 157.416 203.543 157.768C203.543 158.44 203.279 159.136 202.751 159.856C202.239 160.56 201.423 161.24 200.303 161.896C200.559 162.36 200.855 162.84 201.191 163.336C201.543 163.816 201.911 164.296 202.295 164.776C202.679 165.256 203.071 165.736 203.471 166.216C203.871 166.68 204.271 167.112 204.671 167.512C204.847 167.32 205.023 167.08 205.199 166.792C205.375 166.488 205.543 166.176 205.703 165.856C205.879 165.52 206.031 165.176 206.159 164.824C206.303 164.472 206.431 164.136 206.543 163.816L208.031 164.512C207.935 164.784 207.799 165.112 207.623 165.496C207.447 165.864 207.247 166.248 207.023 166.648C206.815 167.032 206.599 167.408 206.375 167.776C206.151 168.128 205.943 168.424 205.751 168.664C206.087 168.984 206.391 169.264 206.663 169.504C206.935 169.728 207.183 169.928 207.407 170.104C207.647 170.264 207.871 170.416 208.079 170.56C208.303 170.688 208.527 170.816 208.751 170.944L207.551 172.288C206.703 171.872 205.735 171.128 204.647 170.056C204.359 170.344 204.039 170.624 203.687 170.896C203.351 171.152 202.967 171.384 202.535 171.592C202.103 171.8 201.623 171.968 201.095 172.096C200.583 172.224 200.015 172.288 199.391 172.288C198.639 172.288 197.927 172.184 197.255 171.976C196.599 171.768 196.023 171.464 195.527 171.064C195.031 170.648 194.631 170.144 194.327 169.552C194.039 168.96 193.895 168.28 193.895 167.512ZM203.519 168.856C203.055 168.392 202.599 167.888 202.151 167.344C201.703 166.8 201.271 166.256 200.855 165.712C200.455 165.168 200.079 164.648 199.727 164.152C199.391 163.64 199.103 163.192 198.863 162.808C198.431 163.128 198.031 163.456 197.663 163.792C197.295 164.128 196.967 164.488 196.679 164.872C196.407 165.24 196.191 165.64 196.031 166.072C195.887 166.504 195.815 166.968 195.815 167.464C195.815 167.96 195.919 168.408 196.127 168.808C196.335 169.192 196.615 169.52 196.967 169.792C197.335 170.048 197.751 170.248 198.215 170.392C198.679 170.536 199.167 170.608 199.679 170.608C200.079 170.608 200.463 170.56 200.831 170.464C201.215 170.352 201.575 170.216 201.911 170.056C202.247 169.896 202.551 169.712 202.823 169.504C203.111 169.296 203.343 169.08 203.519 168.856ZM198.431 157.984C198.431 158.464 198.527 158.944 198.719 159.424C198.927 159.888 199.191 160.352 199.511 160.816C200.359 160.272 200.943 159.776 201.263 159.328C201.599 158.88 201.767 158.488 201.767 158.152C201.767 157.64 201.639 157.224 201.383 156.904C201.143 156.584 200.719 156.424 200.111 156.424C199.535 156.424 199.111 156.568 198.839 156.856C198.567 157.144 198.431 157.52 198.431 157.984ZM220.128 154.84L220.728 155.848L221.16 157.192L221.664 155.824L222.24 154.864L223.392 155.488L222.768 156.52L221.664 157.672L223.296 157.384H224.448V158.728H223.344L221.808 158.44L222.912 159.592L223.464 160.528L222.336 161.2L221.712 160.192L221.16 158.728L220.704 160.12L220.104 161.128L218.904 160.456L219.552 159.448L220.56 158.44L219.168 158.728H217.968V157.384H219.168L220.656 157.672L219.576 156.616L218.952 155.512L220.128 154.84ZM235.839 177.28C235.103 176.512 234.479 175.664 233.967 174.736C233.455 173.824 233.039 172.888 232.719 171.928C232.415 170.952 232.191 169.976 232.047 169C231.903 168.008 231.831 167.064 231.831 166.168C231.831 165.288 231.903 164.36 232.047 163.384C232.191 162.408 232.423 161.432 232.743 160.456C233.063 159.464 233.479 158.496 233.991 157.552C234.519 156.608 235.159 155.728 235.911 154.912L237.063 155.752C236.423 156.568 235.887 157.416 235.455 158.296C235.039 159.16 234.703 160.04 234.447 160.936C234.191 161.832 234.007 162.728 233.895 163.624C233.799 164.504 233.751 165.352 233.751 166.168C233.751 166.936 233.807 167.776 233.919 168.688C234.047 169.584 234.239 170.488 234.495 171.4C234.767 172.296 235.111 173.176 235.527 174.04C235.959 174.904 236.471 175.688 237.063 176.392L235.839 177.28ZM244.788 154.912C245.524 155.68 246.148 156.528 246.66 157.456C247.172 158.368 247.58 159.312 247.884 160.288C248.204 161.248 248.436 162.224 248.58 163.216C248.724 164.192 248.796 165.128 248.796 166.024C248.796 166.904 248.724 167.832 248.58 168.808C248.436 169.784 248.204 170.768 247.884 171.76C247.564 172.736 247.14 173.696 246.612 174.64C246.1 175.584 245.468 176.464 244.716 177.28L243.564 176.44C244.204 175.624 244.74 174.776 245.172 173.896C245.604 173.016 245.94 172.128 246.18 171.232C246.436 170.336 246.612 169.448 246.708 168.568C246.82 167.688 246.876 166.84 246.876 166.024C246.876 165.256 246.812 164.424 246.684 163.528C246.556 162.632 246.356 161.728 246.084 160.816C245.828 159.904 245.492 159.016 245.076 158.152C244.66 157.288 244.156 156.504 243.564 155.8L244.788 154.912Z" fill="black"/>
<path d="M0 36H413" stroke="black"/>
</svg>
