<?xml version="1.0" encoding="UTF-8"?><svg id="Layer_1" xmlns="http://www.w3.org/2000/svg" viewBox="0 0 156 50.73"><defs><style>.cls-1{fill:#3cae49;}.cls-2{fill:#3dae2b;}.cls-3{fill:#30261d;}</style></defs><path class="cls-2" d="m31.79,30h-9.46V8.32h-7.69v9c0,5.58-1.38,8.34-2.89,9.98-2.56,2.82-5.52,3.09-8.08,3.09-1.25,0-2.5-.13-3.68-.46v-7.49c1.25.33,3.28.46,4.53-.85.2-.26,1.18-1.31,1.18-4.66V.7h26.08v29.3Z"/><path class="cls-3" d="m68.06,39.81c-1.92,0-3.29,1.42-3.29,3.42s1.36,3.4,3.29,3.4,3.29-1.41,3.29-3.4-1.36-3.42-3.29-3.42Zm14.47.45c-.4-.28-.9-.31-1.36-.31h-.67v2.9h.79c.37,0,.84,0,1.26-.31.36-.28.54-.72.54-1.15,0-.55-.27-.9-.55-1.12Zm0,0c-.4-.28-.9-.31-1.36-.31h-.67v2.9h.79c.37,0,.84,0,1.26-.31.36-.28.54-.72.54-1.15,0-.55-.27-.9-.55-1.12Zm-14.47-.45c-1.92,0-3.29,1.42-3.29,3.42s1.36,3.4,3.29,3.4,3.29-1.41,3.29-3.4-1.36-3.42-3.29-3.42ZM0,35.53v15.19h152.03v-15.19H0Zm57.65,4.41h-2.22v8.22h-1.92v-8.22h-2.22v-1.66h6.37v1.66Zm10.41,8.44c-3.13,0-5.27-2.14-5.27-5.15s2.14-5.17,5.27-5.17,5.27,2.16,5.27,5.17-2.14,5.15-5.27,5.15Zm16.19-4.75c-.55.55-1.36.87-2.5.87h-1.24v3.66h-1.92v-9.88h2.87c1.11,0,1.88.12,2.61.75.8.73,1.01,1.67,1.01,2.39,0,.39-.06,1.45-.82,2.21Zm15.01,2.43c-.95.66-2.12.74-2.78.74h-.27v1.36h-1.92v-1.36h-.27c-.67,0-1.84-.08-2.78-.74-.71-.52-1.48-1.44-1.48-3.14s.77-2.62,1.48-3.14c.95-.67,2.12-.74,2.78-.74h.27v-1.15h1.92v1.15h.27c.66,0,1.83.08,2.78.74.71.52,1.48,1.44,1.48,3.14s-.77,2.62-1.48,3.14Zm-1.29-4.95c-.34-.25-.83-.41-1.47-.41h-.3v4.44h.3c.46,0,.98-.01,1.47-.42.34-.25.78-.81.78-1.8,0-.87-.33-1.47-.78-1.81Zm-5.43,0c-.35.28-.8.8-.8,1.81s.45,1.52.8,1.8c.49.4.98.42,1.45.42h.3v-4.44h-.3c-.3,0-.93.04-1.45.41Zm-10-.86c-.4-.28-.9-.31-1.36-.31h-.67v2.9h.79c.37,0,.84,0,1.26-.31.36-.28.54-.72.54-1.15,0-.55-.27-.9-.55-1.12Zm-14.47-.45c-1.92,0-3.29,1.42-3.29,3.42s1.36,3.4,3.29,3.4,3.29-1.41,3.29-3.4-1.36-3.42-3.29-3.42Zm0,0c-1.92,0-3.29,1.42-3.29,3.42s1.36,3.4,3.29,3.4,3.29-1.41,3.29-3.4-1.36-3.42-3.29-3.42Zm0,0c-1.92,0-3.29,1.42-3.29,3.42s1.36,3.4,3.29,3.4,3.29-1.41,3.29-3.4-1.36-3.42-3.29-3.42Z"/><path class="cls-2" d="m63.47,18.39c-3.99,1.73-5.1,5.78-5.26,9.39,1.61-1.87,4.02-3.86,8.33-6.49-3.57,3.06-5.78,5.48-7.51,8.83,1.8.1,5.09.13,5.67.06,5.78-.68,6.67-4.48,7.24-6.73.41-1.61,1.9-5.11,3.22-6.31-3.44-.87-8.5-.15-11.7,1.24Zm-1.75-17.6v3.04c-2.78-2.39-6.43-3.84-10.43-3.84-8.72,0-15.79,6.89-15.79,15.39s7.07,15.39,15.79,15.39c1.54,0,3.03-.22,4.44-.62-.15-2.88.13-5.88,1.23-8.44-1.26.88-2.78,1.39-4.43,1.39-4.26,0-7.72-3.46-7.72-7.72s3.46-7.72,7.72-7.72,7.72,3.46,7.72,7.72c0,.79-.12,1.55-.34,2.26.74-.61,1.58-1.14,2.56-1.56,2.44-1.06,5.67-1.74,8.73-1.81V.8h-9.48Z"/><polygon class="cls-2" points="80.06 .8 87.52 .8 95.11 17.03 102.7 .8 110.16 .8 115.27 29.98 106.23 29.98 103.88 14.47 96.68 29.98 93.54 29.98 86.34 14.47 83.98 29.98 74.95 29.98 80.06 .8"/><path class="cls-1" d="m144.3,18.39c-3.99,1.73-5.1,5.78-5.26,9.39,1.61-1.87,4.02-3.86,8.33-6.49-3.57,3.06-5.78,5.48-7.51,8.83,1.8.1,5.09.13,5.67.06,5.78-.68,6.67-4.48,7.24-6.73.41-1.61,1.9-5.11,3.22-6.31-3.44-.87-8.5-.15-11.7,1.24Zm-1.75-17.6v3.04c-2.78-2.39-6.43-3.84-10.43-3.84-8.72,0-15.79,6.89-15.79,15.39s7.07,15.39,15.79,15.39c1.54,0,3.03-.22,4.44-.62-.15-2.88.14-5.88,1.23-8.44-1.25.88-2.78,1.39-4.43,1.39-4.26,0-7.72-3.46-7.72-7.72s3.46-7.72,7.72-7.72,7.72,3.46,7.72,7.72c0,.79-.12,1.55-.34,2.26.74-.61,1.58-1.14,2.56-1.56,2.44-1.06,5.67-1.74,8.73-1.81V.8h-9.48Z"/></svg>